<svg width="167" height="167" viewBox="0 0 167 167" fill="none" xmlns="http://www.w3.org/2000/svg">
<path d="M135.382 42.8822L138 26.5025L140.618 42.8822C140.78 43.8943 141.543 44.7051 142.544 44.9278L154.097 47.5L142.544 50.0722C141.543 50.2949 140.78 51.1057 140.618 52.1178L138 68.4975L135.382 52.1178C135.22 51.1057 134.457 50.2949 133.456 50.0722L121.903 47.5L133.456 44.9278C134.457 44.7051 135.22 43.8943 135.382 42.8822Z" fill="white" stroke="#1B1B1B" stroke-width="3"/>
<path d="M20.4404 84.1055C20.2553 84.924 20.157 85.7512 20.157 86.59C20.157 94.8651 29.3692 102.244 43.7645 107.062C44.0653 105.552 44.4153 104.011 44.8144 102.437C31.3013 98.1045 22.1209 91.5562 20.4375 84.1055H20.4404Z" fill="#BEE7EC"/>
<path d="M121.908 102.527C122.313 104.098 122.666 105.639 122.972 107.149C137.518 102.333 146.843 94.9143 146.843 86.59C146.843 85.7512 146.744 84.924 146.559 84.1055C144.864 91.6083 135.571 98.1971 121.908 102.527Z" fill="#BEE7EC"/>
<path d="M146.559 84.1056C146.744 83.287 146.843 82.4598 146.843 81.621C146.843 73.3546 137.645 65.9791 123.27 61.1604C122.958 62.6673 122.599 64.2061 122.188 65.7737C135.698 70.1065 144.876 76.6519 146.559 84.1056Z" fill="#82C6D1"/>
<path d="M44.5339 65.8633C44.1289 64.2956 43.7732 62.754 43.4666 61.2471C29.2419 66.0687 20.157 73.4037 20.157 81.6209C20.157 82.4597 20.2553 83.2869 20.4404 84.1055C22.1122 76.7039 31.1769 70.1961 44.5339 65.8633Z" fill="#82C6D1"/>
<path d="M44.8174 102.437C46.2693 96.7364 48.3692 90.6567 51.088 84.412C48.2419 77.9881 46.0495 71.7261 44.5368 65.8633C31.1769 70.1961 22.1151 76.7039 20.4434 84.1055C22.1267 91.5591 31.3071 98.1045 44.8202 102.437H44.8174Z" fill="white"/>
<path d="M122.188 65.7737C120.65 71.6683 118.428 77.9563 115.547 84.4063C118.301 90.6799 120.43 96.7944 121.908 102.527C135.571 98.1943 144.864 91.6083 146.559 84.1055C144.876 76.6548 135.699 70.1065 122.188 65.7737Z" fill="#9BD7DF"/>
<path d="M51.6867 29.5698C50.8855 29.8186 50.1191 30.1483 49.3931 30.5677C42.2287 34.7038 40.4441 46.3716 43.4666 61.2499C44.9244 60.7554 46.4342 60.2868 47.9961 59.8471C44.9909 45.9782 46.0726 34.7558 51.6838 29.5698H51.6867Z" fill="#82C6D1"/>
<path d="M86.6787 126.846C85.5159 127.977 84.3532 129.05 83.1934 130.063C94.569 140.128 105.569 144.417 112.736 140.281C113.462 139.862 114.13 139.361 114.746 138.795C107.449 141.062 97.1895 136.385 86.6787 126.849V126.846Z" fill="#82C6D1"/>
<path d="M49.1356 64.5039C48.7076 62.9218 48.3287 61.3686 47.9989 59.8472C46.4371 60.2868 44.9272 60.7554 43.4695 61.25C43.7761 62.7569 44.1318 64.2956 44.5368 65.8662C46.0177 65.3861 47.5535 64.932 49.1385 64.5068L49.1356 64.5039Z" fill="#82C6D1"/>
<path d="M49.1357 64.5039C47.5507 64.9291 46.0177 65.3832 44.5339 65.8633C46.0466 71.7262 48.2391 77.9881 51.0852 84.4121C51.9529 82.4164 52.8842 80.4062 53.8792 78.3844C51.921 73.6062 50.336 68.9466 49.1357 64.5039Z" fill="#82C6D1"/>
<path d="M79.7485 41.5097C80.8997 40.3702 82.048 39.2855 83.1933 38.2587C71.835 28.2222 60.8556 23.9502 53.697 28.0805C52.971 28.4999 52.3028 29.0003 51.6868 29.5672C58.9813 27.2995 69.2406 31.9736 79.7485 41.5069V41.5097Z" fill="#BEE7EC"/>
<path d="M114.746 138.792C115.547 138.543 116.314 138.213 117.04 137.794C124.198 133.661 125.986 122.007 122.972 107.146C121.511 107.629 119.999 108.086 118.437 108.517C121.439 122.383 120.36 133.606 114.746 138.789V138.792Z" fill="#BEE7EC"/>
<path d="M117.3 103.858C117.728 105.44 118.107 106.996 118.437 108.52C119.999 108.092 121.511 107.632 122.972 107.149C122.665 105.639 122.313 104.098 121.908 102.527C120.421 102.999 118.885 103.441 117.3 103.858Z" fill="#BEE7EC"/>
<path d="M112.719 90.3761C114.602 95.0126 116.132 99.5391 117.3 103.857C118.885 103.441 120.424 102.998 121.908 102.527C120.43 96.7943 118.301 90.6827 115.547 84.4062C114.665 86.3817 113.722 88.3746 112.716 90.3761H112.719Z" fill="#BEE7EC"/>
<path d="M47.999 59.8443C53.7982 58.213 60.2858 56.9693 67.2419 56.2057C71.2912 50.6437 75.5199 45.7006 79.7485 41.5096C69.2405 31.9764 58.9813 27.2994 51.6868 29.5699C46.0756 34.753 44.9938 45.9783 47.999 59.8472V59.8443Z" fill="white"/>
<path d="M118.437 108.52C112.701 110.096 106.312 111.297 99.4717 112.034C95.324 117.669 90.997 122.652 86.6787 126.846C97.1867 136.385 107.449 141.062 114.746 138.792C120.357 133.608 121.439 122.386 118.437 108.52Z" fill="#9BD7DF"/>
<path d="M99.4714 112.034C106.312 111.297 112.701 110.097 118.437 108.52C118.107 106.996 117.728 105.44 117.3 103.858C112.956 104.997 108.256 105.923 103.284 106.6C102.034 108.471 100.761 110.282 99.4743 112.034H99.4714Z" fill="#BEE7EC"/>
<path d="M67.242 56.2058C60.2858 56.9694 53.8011 58.2131 47.999 59.8444C48.3288 61.3658 48.7077 62.9219 49.1357 64.5011C53.5639 63.3124 58.374 62.3463 63.4732 61.6406C64.7082 59.7721 65.9635 57.9557 67.2391 56.2058H67.242Z" fill="#82C6D1"/>
<path d="M58.6574 69.4354C60.2135 66.7426 61.8217 64.1423 63.4732 61.6433C58.374 62.349 53.564 63.3151 49.1357 64.5039C50.3361 68.9465 51.924 73.6062 53.8792 78.3843C55.3399 75.4139 56.9307 72.4261 58.6574 69.4354Z" fill="#BEE7EC"/>
<path d="M108.493 98.2088C106.812 101.118 105.071 103.918 103.281 106.6C108.253 105.923 112.956 104.997 117.297 103.858C116.129 99.5364 114.599 95.0127 112.716 90.3762C111.408 92.9794 110.003 95.5941 108.493 98.2088Z" fill="white"/>
<path d="M52.0454 138.433C52.6615 139.003 53.3296 139.5 54.0556 139.92C61.139 144.01 71.9623 139.871 83.1933 130.06C82.0422 129.042 80.8852 127.963 79.7312 126.829C69.3562 136.134 59.2532 140.672 52.0454 138.43V138.433Z" fill="#BEE7EC"/>
<path d="M118.732 59.772C120.294 60.2058 121.806 60.6715 123.267 61.1603C126.368 46.1547 124.606 34.3712 117.395 30.209C116.669 29.7897 115.903 29.4628 115.102 29.2112C120.753 34.4319 121.812 45.7729 118.729 59.772H118.732Z" fill="#BEE7EC"/>
<path d="M117.581 64.4258C119.166 64.8452 120.701 65.2964 122.185 65.7707C122.593 64.203 122.955 62.6643 123.267 61.1574C121.806 60.6686 120.294 60.2029 118.732 59.769C118.396 61.2904 118.012 62.8436 117.581 64.4258Z" fill="#BEE7EC"/>
<path d="M115.547 84.4063C118.425 77.9563 120.649 71.6654 122.188 65.7737C120.704 65.2964 119.166 64.8481 117.583 64.4287C116.357 68.909 114.746 73.6062 112.756 78.4162C113.751 80.4235 114.68 82.4221 115.55 84.4063H115.547Z" fill="#BEE7EC"/>
<path d="M83.2165 123.534C82.0538 124.691 80.891 125.79 79.7312 126.832C80.8881 127.966 82.0422 129.044 83.1934 130.062C84.3532 129.05 85.5159 127.977 86.6787 126.846C85.5275 125.799 84.3706 124.697 83.2165 123.534Z" fill="#BEE7EC"/>
<path d="M110.118 84.3832C111.05 86.3963 111.915 88.3949 112.719 90.3733C113.722 88.3718 114.668 86.3818 115.55 84.4034C114.68 82.4193 113.748 80.4206 112.756 78.4133C111.941 80.3859 111.061 82.3788 110.121 84.3803L110.118 84.3832Z" fill="#BEE7EC"/>
<path d="M83.2163 123.534C84.3704 124.694 85.5273 125.799 86.6785 126.846C90.9968 122.655 95.3209 117.669 99.4714 112.034C97.3108 112.266 95.1068 112.454 92.8653 112.592C89.7039 116.642 86.4615 120.309 83.2192 123.534H83.2163Z" fill="#BEE7EC"/>
<path d="M96.7701 107.331C95.4859 109.148 94.1815 110.903 92.8625 112.593C95.1041 112.454 97.311 112.269 99.4687 112.034C100.759 110.284 102.028 108.471 103.278 106.6C101.155 106.889 98.9828 107.135 96.7672 107.328L96.7701 107.331Z" fill="#BEE7EC"/>
<path d="M104.192 95.7241C101.829 99.8168 99.3384 103.698 96.77 107.331C98.9856 107.135 101.158 106.892 103.281 106.602C105.071 103.921 106.815 101.118 108.493 98.2115C110.003 95.5968 111.408 92.9821 112.716 90.379C111.912 88.4006 111.047 86.402 110.115 84.3889C108.354 88.1403 106.378 91.9351 104.189 95.7299L104.192 95.7241Z" fill="#BEE7EC"/>
<path d="M115.105 29.2113C114.489 28.6415 113.821 28.144 113.095 27.7246C105.852 23.5422 94.6934 27.9676 83.1934 38.2586C84.3474 39.2796 85.5073 40.3585 86.6671 41.4952C97.3052 31.7305 107.724 26.9147 115.105 29.2113Z" fill="#82C6D1"/>
<path d="M48.2968 108.445C46.735 108.011 45.2252 107.548 43.7674 107.059C40.8287 121.79 42.6394 133.325 49.7546 137.435C50.4806 137.854 51.2471 138.181 52.0483 138.433C46.4747 133.284 45.3698 122.181 48.2968 108.445Z" fill="#82C6D1"/>
<path d="M49.419 103.782C47.8369 103.363 46.3011 102.915 44.8173 102.438C44.4181 104.011 44.0681 105.553 43.7673 107.062C45.2251 107.551 46.7378 108.014 48.2968 108.448C48.6207 106.924 48.9967 105.367 49.419 103.782Z" fill="#BEE7EC"/>
<path d="M51.0851 84.4121C48.3663 90.6567 46.2664 96.7394 44.8145 102.437C46.2982 102.912 47.8341 103.36 49.4162 103.782C50.5616 99.4987 52.0627 95.0126 53.911 90.4138C52.9073 88.4036 51.9644 86.3992 51.0822 84.4121H51.0851Z" fill="#82C6D1"/>
<path d="M56.5084 84.3891C55.5684 82.3731 54.692 80.3687 53.8792 78.3845C52.8843 80.4063 51.9529 82.4165 51.0852 84.4122C51.9645 86.3993 52.9103 88.4008 53.9139 90.4139C54.7151 88.4239 55.5799 86.4137 56.5084 84.3891Z" fill="#82C6D1"/>
<path d="M83.2165 44.8271C84.3677 43.6615 85.5188 42.5479 86.6671 41.4951C85.5072 40.3584 84.3474 39.2796 83.1933 38.2585C82.048 39.2853 80.8968 40.37 79.7485 41.5096C80.9026 42.5566 82.0624 43.6644 83.2194 44.8271H83.2165Z" fill="#BEE7EC"/>
<path d="M83.2165 44.8271C82.0595 43.6643 80.9026 42.5566 79.7456 41.5095C75.517 45.7035 71.2883 50.6436 67.239 56.2057C69.3938 55.9685 71.5949 55.7776 73.8336 55.633C76.9053 51.6531 80.058 48.0318 83.2165 44.8242V44.8271Z" fill="#82C6D1"/>
<path d="M69.9665 60.9001C71.2363 59.0837 72.5292 57.3251 73.8336 55.636C71.5949 55.7777 69.3938 55.9715 67.239 56.2087C65.9635 57.9615 64.7053 59.775 63.4731 61.6434C65.5904 61.3513 67.7567 61.1026 69.9665 60.903V60.9001Z" fill="#82C6D1"/>
<path d="M69.9665 60.9001C67.7567 61.0997 65.5904 61.3485 63.4731 61.6406C61.8216 64.1396 60.2134 66.7398 58.6573 69.4326C56.9306 72.4205 55.3398 75.4112 53.8792 78.3816C54.6919 80.3658 55.5683 82.3702 56.5083 84.3862C58.397 80.2675 60.549 76.0909 62.9583 71.9172C65.1941 68.0443 67.5427 64.3623 69.9665 60.9001Z" fill="#82C6D1"/>
<path d="M79.7311 126.832C75.433 122.615 71.1349 117.617 67.0133 111.976C60.2625 111.224 53.9543 110.018 48.2939 108.445C45.3668 122.181 46.4717 133.284 52.0453 138.433C59.2531 140.674 69.3561 136.136 79.7311 126.832Z" fill="#9BD7DF"/>
<path d="M86.667 41.4953C90.9159 45.6632 95.1677 50.5947 99.2459 56.1509C106.289 56.9 112.857 58.138 118.732 59.7721C121.812 45.7731 120.754 34.4321 115.105 29.2114C107.723 26.9148 97.3051 31.7306 86.667 41.4953Z" fill="#9BD7DF"/>
<path d="M49.4191 103.782C48.9968 105.367 48.6208 106.923 48.2969 108.448C53.9572 110.021 60.2655 111.224 67.0163 111.979C65.735 110.226 64.471 108.41 63.2302 106.536C58.3305 105.85 53.6998 104.922 49.4191 103.785V103.782Z" fill="#BEE7EC"/>
<path d="M117.581 64.4259C118.012 62.8467 118.396 61.2906 118.732 59.7692C112.857 58.135 106.289 56.8971 99.2458 56.1479C100.53 57.8949 101.794 59.7056 103.038 61.574C108.209 62.2682 113.086 63.2343 117.581 64.4259Z" fill="#82C6D1"/>
<path d="M108.134 69.7941C109.797 72.6749 111.336 75.5557 112.753 78.4163C114.743 73.6034 116.354 68.9062 117.581 64.4288C113.089 63.2371 108.209 62.2711 103.038 61.5769C104.788 64.2061 106.491 66.948 108.134 69.7941Z" fill="#82C6D1"/>
<path d="M58.2988 98.5674C56.7282 95.8457 55.2647 93.1211 53.9139 90.4138C52.0628 95.0156 50.5617 99.4988 49.4192 103.782C53.6999 104.919 58.3306 105.848 63.2303 106.533C61.5382 103.979 59.8925 101.321 58.2988 98.5674Z" fill="white"/>
<path d="M67.0134 111.976C71.1322 117.614 75.4331 122.612 79.7312 126.832C80.891 125.79 82.0537 124.691 83.2165 123.534C79.9886 120.292 76.7665 116.613 73.6254 112.558C71.3809 112.413 69.174 112.216 67.0134 111.976Z" fill="#82C6D1"/>
<path d="M69.7381 107.285C67.5225 107.083 65.3503 106.828 63.2302 106.533C64.4711 108.407 65.735 110.224 67.0163 111.976C69.1769 112.216 71.3809 112.413 73.6283 112.558C72.3152 110.863 71.0194 109.104 69.7409 107.285H69.7381Z" fill="#BEE7EC"/>
<path d="M56.5083 84.3889C55.5798 86.4136 54.7121 88.4238 53.9138 90.4137C55.2646 93.121 56.7252 95.8456 58.2986 98.5673C59.8895 101.324 61.5381 103.982 63.2301 106.533C65.3531 106.831 67.5224 107.082 69.738 107.285C67.2708 103.768 64.8759 100.022 62.6025 96.0828C60.3436 92.1694 58.3131 88.256 56.5112 84.3889H56.5083Z" fill="#82C6D1"/>
<path d="M99.2458 56.1508C95.1676 50.5945 90.9158 45.663 86.6669 41.4951C85.5186 42.5508 84.3675 43.6615 83.2163 44.8271C86.3921 48.0174 89.5622 51.63 92.6541 55.607C94.8899 55.74 97.091 55.9223 99.2458 56.1508Z" fill="#BEE7EC"/>
<path d="M96.5475 60.8595C98.7572 61.0504 100.924 61.2904 103.041 61.5768C101.797 59.7083 100.533 57.9006 99.2489 56.1507C97.0941 55.9222 94.8959 55.74 92.6572 55.6069C93.9704 57.2932 95.269 59.046 96.5475 60.8595Z" fill="#BEE7EC"/>
<path d="M110.118 84.3833C111.058 82.3788 111.938 80.386 112.753 78.4163C111.336 75.5529 109.797 72.6721 108.134 69.7941C106.491 66.9481 104.788 64.2061 103.038 61.5769C100.921 61.2935 98.7542 61.0534 96.5444 60.8596C99.0666 64.4375 101.511 68.2554 103.83 72.2787C106.17 76.3309 108.267 80.3831 110.115 84.3862L110.118 84.3833Z" fill="#BEE7EC"/>
<path d="M83.4998 55.3322C86.6091 55.3322 89.6664 55.4277 92.6571 55.607C89.5651 51.63 86.3951 48.0174 83.2193 44.8271C80.0608 48.0319 76.9081 51.656 73.8364 55.6359C76.9891 55.4364 80.2141 55.3322 83.5027 55.3322H83.4998Z" fill="white"/>
<path d="M83.4998 112.879C80.1418 112.879 76.8445 112.769 73.6252 112.561C76.7664 116.616 79.9885 120.292 83.2163 123.537C86.4616 120.312 89.701 116.642 92.8624 112.595C89.8052 112.784 86.6814 112.882 83.4969 112.882L83.4998 112.879Z" fill="#82C6D1"/>
<path d="M69.738 107.285C71.0165 109.104 72.3122 110.863 73.6254 112.558C76.8446 112.766 80.1419 112.876 83.4999 112.876C86.6815 112.876 89.8082 112.778 92.8654 112.59C94.1843 110.901 95.4888 109.145 96.773 107.329C92.4923 107.707 88.0554 107.907 83.5028 107.907C78.9502 107.907 74.172 107.69 69.7409 107.282L69.738 107.285Z" fill="#BEE7EC"/>
<path d="M96.5474 60.8596C95.269 59.0461 93.9703 57.2933 92.6572 55.607C89.6665 55.4277 86.6092 55.3323 83.4999 55.3323C80.2142 55.3323 76.9863 55.4364 73.8336 55.636C72.5292 57.328 71.2363 59.0837 69.9666 60.9001C74.3254 60.5067 78.8548 60.2985 83.4999 60.2985C88.1451 60.2985 92.3361 60.4923 96.5474 60.8596Z" fill="#82C6D1"/>
<path d="M110.118 84.3833C108.27 80.3832 106.173 76.3281 103.833 72.2758C101.511 68.2526 99.0666 64.4375 96.5474 60.8568C92.3361 60.4894 87.9744 60.2957 83.4999 60.2957C79.0254 60.2957 74.3282 60.5039 69.9665 60.8973C67.5456 64.3594 65.1941 68.0414 62.9583 71.9143C60.5489 76.088 58.397 80.2646 56.5083 84.3833C58.3102 88.2504 60.3407 92.1638 62.5996 96.0772C64.8759 100.019 67.2679 103.765 69.7351 107.279C74.1662 107.687 78.7709 107.904 83.497 107.904C88.2231 107.904 92.4894 107.704 96.7672 107.326C99.3356 103.693 101.826 99.8112 104.189 95.7185C106.379 91.9266 108.354 88.1318 110.115 84.3775L110.118 84.3833ZM83.4999 97.6622C75.9537 97.6622 69.8363 91.5448 69.8363 83.9986C69.8363 76.4524 75.9537 70.3351 83.4999 70.3351C91.0461 70.3351 97.1634 76.4524 97.1634 83.9986C97.1634 91.5448 91.0461 97.6622 83.4999 97.6622Z" fill="white"/>
<path d="M83.5 97.665C91.0462 97.665 97.1635 91.5476 97.1635 84.0014C97.1635 76.4553 91.0462 70.3379 83.5 70.3379C75.9538 70.3379 69.8364 76.4553 69.8364 84.0014C69.8364 91.5476 75.9538 97.665 83.5 97.665Z" fill="#9BD7DF"/>
<path d="M83.1933 130.06L86.6786 126.843C90.9969 122.652 95.321 117.666 99.4715 112.031C106.312 111.294 112.701 110.093 118.437 108.517C121.439 122.383 120.36 133.606 114.746 138.789C115.547 138.54 116.314 138.21 117.04 137.791C124.198 133.658 125.986 122.004 122.972 107.143C137.518 102.327 146.843 94.9086 146.843 86.5843C146.843 85.7455 146.744 84.9183 146.559 84.0998C144.864 91.6026 135.571 98.1914 121.908 102.521C120.43 96.7886 118.301 90.677 115.547 84.4006C118.425 77.9506 120.649 71.6597 122.188 65.7679L123.27 61.1546M123.27 61.1546C137.645 65.9733 146.843 73.3488 146.843 81.6152C146.843 82.454 146.744 83.5705 146.559 84.389M123.27 61.1546C126.371 46.149 124.609 34.3655 117.398 30.2034C116.672 29.784 115.906 29.4571 115.105 29.2055C120.756 34.4262 121.815 45.7672 118.732 59.7663L117.581 64.423C116.354 68.9033 114.743 73.6005 112.753 78.4105C111.336 75.547 109.797 72.6662 108.134 69.7883C106.491 66.9422 104.788 64.2003 103.038 61.5711L99.2459 56.145C95.1677 50.5888 90.9159 45.6573 86.667 41.4894L83.1933 38.2528M43.7645 107.057L48.294 108.442C53.9543 110.015 60.2626 111.219 67.0134 111.974L73.6253 112.555C76.8445 112.763 80.1418 112.873 83.4999 112.873C86.6815 112.873 89.8081 112.775 92.8654 112.587C89.704 116.636 86.4617 120.304 83.2193 123.529L79.734 126.826C69.3591 136.131 59.256 140.669 52.0483 138.427C52.6643 138.997 53.3325 139.494 54.0584 139.914C61.1419 144.004 71.9651 139.865 83.1962 130.054C94.5719 140.119 105.572 144.409 112.739 140.272C113.465 139.853 114.133 139.353 114.749 138.786M51.6867 29.567C50.8855 29.8158 50.119 30.1455 49.3931 30.5649C42.2287 34.701 40.4441 46.3688 43.4666 61.2472C29.2419 66.0659 20.157 73.4038 20.157 81.621C20.157 82.4598 20.2553 83.287 20.4404 84.1056M51.6867 29.567C52.3028 29.0001 52.9709 28.4998 53.6969 28.0804C60.8555 23.9472 71.835 28.2221 83.1933 38.2586C94.6933 27.9676 105.852 23.5422 113.095 27.7246C113.821 28.144 114.489 28.6415 115.105 29.2113M51.6867 29.567C58.9813 27.2994 69.2405 31.9735 79.7485 41.5067L83.2193 44.8243C86.3951 48.0146 89.5652 51.6271 92.6571 55.6042L96.5474 60.8567C99.0695 64.4346 101.514 68.2525 103.833 72.2758C106.173 76.328 108.27 80.3802 110.118 84.3832C108.357 88.1346 106.381 91.9294 104.192 95.7242C101.829 99.8169 99.3385 103.698 96.7701 107.331C92.4894 107.71 88.0525 107.91 83.4999 107.91C78.9473 107.91 74.1691 107.693 69.738 107.285L63.2302 106.533C58.3305 105.847 53.6998 104.919 49.4191 103.782L44.8173 102.437C31.3042 98.1046 22.1238 91.5563 20.4404 84.1056M20.4404 84.1056C20.2553 84.9241 20.157 85.7513 20.157 86.5901C20.157 94.8652 29.3692 102.244 43.7645 107.062C40.8259 121.793 42.6365 133.328 49.7517 137.438C50.4777 137.857 51.2442 138.184 52.0454 138.436M103.281 106.602C105.071 103.921 106.815 101.118 108.493 98.2116C110.003 95.5969 111.408 92.9822 112.716 90.3791C114.599 95.0156 116.129 99.5421 117.297 103.86C112.953 105 108.253 105.926 103.281 106.602Z" stroke="black" stroke-width="3" stroke-miterlimit="10"/>
<path d="M83.5 97.665C91.0462 97.665 97.1635 91.5476 97.1635 84.0014C97.1635 76.4553 91.0462 70.3379 83.5 70.3379C75.9538 70.3379 69.8364 76.4553 69.8364 84.0014C69.8364 91.5476 75.9538 97.665 83.5 97.665Z" stroke="black" stroke-width="3" stroke-miterlimit="10"/>
<path d="M28.5088 114.939L32.5 89.6295L36.4912 114.939C36.6507 115.951 37.4113 116.763 38.4103 116.988L56.1863 121L38.4103 125.012C37.4113 125.237 36.6507 126.049 36.4912 127.061L32.5 152.37L28.5088 127.061C28.3493 126.049 27.5887 125.237 26.5897 125.012L8.81366 121L26.5897 116.988C27.5888 116.763 28.3493 115.951 28.5088 114.939Z" fill="white" stroke="#1B1B1B" stroke-width="3"/>
<path d="M15.9419 57.9189L16 57.5531L16.0581 57.9189C16.219 58.9308 16.9811 59.7421 17.981 59.9659L18.1332 60L17.981 60.0341C16.9811 60.2579 16.219 61.0692 16.0581 62.0811L16 62.4469L15.9419 62.0811C15.781 61.0692 15.0189 60.2579 14.019 60.0341L13.8668 60L14.019 59.9659C15.0189 59.7421 15.781 58.9308 15.9419 57.9189Z" fill="white" stroke="#1B1B1B" stroke-width="3"/>
<path d="M144.5 133.553L144.833 135.644C144.993 136.656 145.755 137.468 146.755 137.692L148.133 138L146.755 138.308C145.755 138.532 144.993 139.344 144.833 140.355L144.5 142.447L144.167 140.356C144.007 139.344 143.245 138.532 142.245 138.308L140.867 138L142.245 137.692C143.245 137.468 144.007 136.656 144.167 135.644L144.5 133.553Z" fill="white" stroke="#1B1B1B" stroke-width="3"/>
<path d="M86.9419 14.9189L87 14.5531L87.0581 14.9189C87.219 15.9308 87.9811 16.7421 88.981 16.9659L89.1332 17L88.981 17.0341C87.9811 17.2579 87.219 18.0692 87.0581 19.0811L87 19.4469L86.9419 19.0811C86.781 18.0692 86.0189 17.2579 85.019 17.0341L84.8668 17L85.019 16.9659C86.0189 16.7421 86.781 15.9308 86.9419 14.9189Z" fill="white" stroke="#1B1B1B" stroke-width="3"/>
<path d="M137.942 116.919L138 116.553L138.058 116.919C138.219 117.931 138.981 118.742 139.981 118.966L140.133 119L139.981 119.034C138.981 119.258 138.219 120.069 138.058 121.081L138 121.447L137.942 121.081C137.781 120.069 137.019 119.258 136.019 119.034L135.867 119L136.019 118.966C137.019 118.742 137.781 117.931 137.942 116.919Z" fill="white" stroke="#1B1B1B" stroke-width="3"/>
<path d="M25.0001 39.8942C33.2259 39.8942 39.8942 33.2259 39.8942 25.0001C39.8942 16.7743 33.2259 10.106 25.0001 10.106C16.7743 10.106 10.106 16.7743 10.106 25.0001C10.106 33.2259 16.7743 39.8942 25.0001 39.8942Z" fill="#82C6D1" stroke="#1B1B1B" stroke-width="3" stroke-miterlimit="10"/>
<path d="M31.3431 18H26.6569C26.2941 18 26 18.2941 26 18.6569V23.3431C26 23.7059 26.2941 24 26.6569 24H31.3431C31.7059 24 32 23.7059 32 23.3431V18.6569C32 18.2941 31.7059 18 31.3431 18Z" fill="white"/>
<path d="M20.5448 18.1482L17.1625 23.4726C17.0219 23.6941 17.1731 23.9905 17.4263 23.9905H24.1909C24.4442 23.9905 24.5954 23.6941 24.4548 23.4726L21.0725 18.1482C20.9466 17.9506 20.6701 17.9506 20.5448 18.1482Z" fill="white"/>
<path d="M31.801 26H17.2002C17.09 26 17 26.096 17 26.2145V31.7855C17 31.904 17.0894 32 17.2002 32H22.5751C22.6997 32 22.8006 31.904 22.8006 31.7855V30.1971C22.8006 29.3047 23.5615 28.5812 24.5 28.5812C25.4385 28.5812 26.1994 29.3047 26.1994 30.1971V31.7855C26.1994 31.904 26.3003 32 26.4249 32H31.7998C31.91 32 32 31.904 32 31.7855V26.2145C32 26.096 31.9106 26 31.7998 26H31.801Z" fill="white"/>
</svg>
