<svg width="80" height="80" viewBox="0 0 80 80" fill="none" xmlns="http://www.w3.org/2000/svg">
<path d="M52.7384 39.9875L57.6052 35.1193C63.2076 29.517 67.6725 23.2068 71 16.4782V9H53.9093C51.5065 13.6693 48.3514 18.048 44.4441 21.9568L39.5773 26.8249C31.1063 18.3512 20.1074 13.9474 9.00973 13.6095L9.20301 32.2507C15.4686 32.6206 21.6286 35.1986 26.4161 39.9875C21.5772 44.8279 15.3352 47.41 9 47.7354L9.20301 66.3585C20.2353 65.9761 31.155 61.5737 39.5773 53.15L44.4441 58.0168C48.3583 61.9325 51.5176 66.3209 53.9232 71H71V63.4954C67.6725 56.7668 63.2076 50.458 57.6052 44.8543L52.7384 39.9861V39.9875Z" fill="#1B1B1B" fill-opacity="0.2"/>
</svg>
