<svg width="167" height="167" viewBox="0 0 167 167" fill="none" xmlns="http://www.w3.org/2000/svg">
<path d="M25 39.8941C33.2257 39.8941 39.8941 33.2258 39.8941 25C39.8941 16.7742 33.2257 10.1059 25 10.1059C16.7742 10.1059 10.1058 16.7742 10.1058 25C10.1058 33.2258 16.7742 39.8941 25 39.8941Z" fill="#82C6D1" stroke="#1B1B1B" stroke-width="3" stroke-miterlimit="10"/>
<path d="M31.343 18H26.6568C26.294 18 25.9999 18.2941 25.9999 18.6569V23.3432C25.9999 23.7059 26.294 24 26.6568 24H31.343C31.7058 24 31.9999 23.7059 31.9999 23.3432V18.6569C31.9999 18.2941 31.7058 18 31.343 18Z" fill="white"/>
<path d="M20.5448 18.1483L17.1625 23.4727C17.0219 23.6942 17.1731 23.9905 17.4263 23.9905H24.1909C24.4442 23.9905 24.5954 23.6942 24.4548 23.4727L21.0725 18.1483C20.9466 17.9507 20.6701 17.9507 20.5448 18.1483Z" fill="white"/>
<path d="M31.8009 26H17.2C17.0899 26 16.9999 26.096 16.9999 26.2145V31.7856C16.9999 31.9041 17.0893 32 17.2 32H22.575C22.6996 32 22.8005 31.9041 22.8005 31.7856V30.1971C22.8005 29.3047 23.5614 28.5813 24.4999 28.5813C25.4384 28.5813 26.1992 29.3047 26.1992 30.1971V31.7856C26.1992 31.9041 26.3002 32 26.4248 32H31.7997C31.9099 32 31.9999 31.9041 31.9999 31.7856V26.2145C31.9999 26.096 31.9105 26 31.7997 26H31.8009Z" fill="white"/>
<path d="M124.151 104.066C121.994 101.048 115.526 98.029 108.195 95.0103C100.863 91.9916 94.3949 87.248 91.3762 81.2106C90.5741 79.6021 89.9531 77.4717 89.6253 75.0956C88.8836 80.3654 89.7547 85.73 91.3762 88.9729C94.3949 95.0103 100.863 99.7539 108.195 102.773C115.526 105.791 121.994 108.81 124.151 111.829C124.185 111.876 124.215 111.928 124.245 111.975C125.781 109.211 125.41 105.83 124.151 104.066Z" fill="#82C6D1"/>
<path d="M75.4677 49.8464H58.8735L58.8951 57.6088H75.4591L75.4677 49.8464Z" fill="#9BD7DF"/>
<path d="M49.977 131.235C71.0086 131.235 74.851 116.633 75.4245 109.013V104.558C75.4245 104.519 75.4245 104.498 75.4245 104.498L75.4633 57.6045H58.8994L59.0374 102.773C59.0287 102.932 59.0244 103.083 59.0158 103.238L59.0374 110.535C58.6061 120.885 56.4499 123.472 50.7619 124.093C43.3186 124.908 39.2003 115.71 39.2003 115.71L29.5189 121.661C33.8011 127.099 40.2525 131.235 49.9813 131.235H49.977Z" fill="#BEE7EC"/>
<path d="M125.875 92.8541C137.773 98.0419 140.822 106.464 141.59 110.949C141.775 109.483 141.861 107.913 141.831 106.223C141.831 106.223 142.694 92.4229 125.875 85.0918C114.689 80.2144 108.66 77.821 106.508 74.3495C106.319 74.7333 106.159 75.1473 106.038 75.6045C103.882 83.798 109.057 85.523 125.875 92.8541Z" fill="#9BD7DF"/>
<path d="M95.6886 63.0985C103.451 56.6299 112.076 55.7674 121.766 57.6045C126.716 58.5446 130.606 61.7573 133.228 64.6768L137.088 62.2317C137.088 62.2317 131.46 51.6835 121.766 49.8464C112.076 48.0093 103.451 48.8718 95.6886 55.3404C89.9919 60.0884 88.7111 68.545 89.6253 75.0999C90.2636 70.5632 92.1007 66.0956 95.6886 63.1028V63.0985Z" fill="#9BD7DF"/>
<path d="M117.682 130.803C117.682 130.803 139.05 131.174 141.59 110.949C140.822 106.464 137.778 98.0419 125.875 92.8541C109.057 85.523 103.882 83.798 106.038 75.6045C106.159 75.1473 106.319 74.7377 106.508 74.3495C105.422 72.603 105.318 70.5848 106.038 67.8421C108.195 59.6485 121.994 63.0985 124.15 70.4296L133.228 64.6811C130.606 61.7616 126.716 58.5489 121.766 57.6088C112.076 55.7717 103.451 56.6342 95.6886 63.1028C92.0963 66.0956 90.2636 70.5632 89.6253 75.0999C89.9574 77.476 90.5741 79.6064 91.3762 81.2149C94.3949 87.2523 100.863 91.9959 108.195 95.0146C115.526 98.0333 121.994 101.052 124.15 104.071C125.41 105.834 125.785 109.215 124.245 111.98C126.289 115.093 125.75 122.636 117.682 123.908C109.488 125.202 102.588 122.183 97.8448 114.42L88.0082 119.953C92.7605 125.227 102.101 132.175 117.682 130.808V130.803Z" fill="#BEE7EC"/>
<path d="M133.228 64.6811L124.15 70.4296C121.994 63.0985 108.195 59.6485 106.038 67.8421C105.318 70.5848 105.422 72.603 106.508 74.3495C109.7 67.8119 122.115 71.2662 124.15 78.1919L137.088 69.9983V62.236L133.228 64.6811Z" fill="#82C6D1"/>
<path d="M141.59 110.949C139.05 131.174 117.682 130.803 117.682 130.803C102.101 132.17 92.7604 125.223 88.0081 119.949C85.2611 116.904 84.045 114.416 84.045 114.416V122.178C84.045 122.178 93.1011 140.722 117.682 138.566C117.682 138.566 142.263 138.997 141.831 113.985C141.831 113.985 141.905 112.803 141.59 110.949Z" fill="#82C6D1"/>
<path d="M124.245 111.975C123.15 113.946 121.089 115.602 117.682 116.141C109.488 117.435 102.588 114.416 97.8448 106.654L84.045 114.416C84.045 114.416 85.2611 116.904 88.0081 119.949L97.8448 114.416C102.588 122.178 109.488 125.197 117.682 123.903C125.75 122.631 126.289 115.089 124.245 111.975Z" fill="#9BD7DF"/>
<path d="M75.4202 112.26V109.013C74.851 116.633 71.0086 131.235 49.977 131.235C40.2482 131.235 33.7968 127.103 29.5146 121.661C28.1303 119.902 26.9703 118.004 26 116.063V123.826C29.9588 131.756 37.0958 138.997 49.977 138.997C78.4389 138.997 75.4202 112.26 75.4202 112.26Z" fill="#82C6D1"/>
<path d="M59.0115 103.238C58.5328 113.196 56.3594 115.718 50.7575 116.331C43.3143 117.146 39.196 107.948 39.196 107.948L26 116.063C26.9703 118.004 28.1303 119.902 29.5146 121.665L39.196 115.714C39.196 115.714 43.31 124.913 50.7575 124.098C56.4456 123.477 58.6018 120.889 59.0331 110.539L59.0115 103.243V103.238Z" fill="#9BD7DF"/>
<path d="M113.494 52.4499C115.836 52.4499 118.333 52.7087 121.123 53.2391C127.743 54.494 132.301 61.0316 133.638 63.1835V68.1083L125.405 73.322C122.425 69.5702 117.289 67.4269 112.895 67.4269C108.544 67.4269 105.085 69.402 103.403 72.8476L102.567 74.5597L103.572 76.1811C106.12 80.2865 111.726 82.7187 121.908 87.139C122.736 87.4969 123.598 87.8721 124.495 88.2645C138.584 94.4054 138.412 105.337 138.386 106.027L138.377 106.122V106.29C138.407 107.752 138.334 109.18 138.161 110.529L138.097 111.038L138.183 111.543C138.403 112.819 138.386 113.673 138.381 113.798L138.373 113.893V114.061C138.485 120.478 136.777 125.532 133.293 129.077C127.406 135.067 118.148 135.136 117.755 135.136H117.552L117.371 135.149C116.151 135.257 114.935 135.309 113.762 135.309C105.762 135.309 98.8711 132.872 93.2779 128.072C90.0695 125.317 88.2065 122.518 87.4863 121.302V116.45L96.7882 111.219C101.221 116.912 107.151 119.9 114.103 119.9C115.435 119.9 116.815 119.788 118.212 119.568C123.435 118.745 126.013 115.907 127.255 113.669L128.26 111.836L127.117 110.094C127.061 110.008 127.01 109.926 126.949 109.844C124.375 106.239 118.363 103.254 109.501 99.6018C102.218 96.6004 96.8745 92.288 94.4552 87.4495C93.2564 85.0474 92.3507 80.4504 93.0321 75.5946L93.1011 75.116L93.0364 74.6373C92.6052 71.5367 92.7734 68.2635 93.5108 65.426C94.3431 62.2305 95.8179 59.7336 97.8922 58.0043C102.429 54.2223 107.384 52.4629 113.486 52.4629M113.494 49C107.082 49 101.17 50.7724 95.6885 55.3392C89.9919 60.0872 88.7111 68.5438 89.6253 75.0987C88.8836 80.3685 89.7547 85.7331 91.3761 88.976C94.3948 95.0134 100.863 99.7571 108.195 102.776C115.526 105.794 121.994 108.813 124.15 111.832C124.185 111.879 124.215 111.931 124.245 111.978C123.15 113.949 121.089 115.605 117.682 116.144C116.461 116.338 115.271 116.433 114.111 116.433C107.483 116.433 101.881 113.264 97.8448 106.657L84.045 114.419V122.182C84.045 122.182 92.1351 138.741 113.77 138.741C115.03 138.741 116.332 138.685 117.682 138.569C117.682 138.569 117.708 138.569 117.764 138.569C119.295 138.569 142.25 138.168 141.831 113.988C141.831 113.988 141.905 112.806 141.59 110.952C141.775 109.486 141.862 107.916 141.831 106.226C141.831 106.226 142.694 92.426 125.875 85.0949C114.689 80.2175 108.66 77.8242 106.508 74.3527C107.694 71.9161 110.165 70.8682 112.899 70.8682C117.509 70.8682 122.874 73.8481 124.155 78.195L137.092 70.0014V62.2391C137.092 62.2391 131.46 51.6866 121.766 49.8495C118.92 49.3062 116.164 49 113.494 49Z" fill="#1B1B1B"/>
<path d="M72.0134 53.2995V57.6076L71.9703 104.501V112.448L71.9919 112.643C72.0005 112.742 72.9923 122.734 67.0369 129.357C63.3412 133.467 57.6013 135.554 49.977 135.554C40.7614 135.554 33.8615 131.333 29.4499 122.997V117.999L38.023 112.729C40.1878 115.795 44.1251 119.84 49.8304 119.84C50.2616 119.84 50.7015 119.814 51.1327 119.767C53.897 119.465 57.3642 118.676 59.6756 115.213C61.3488 112.707 62.1811 109.175 62.4571 103.41L62.4657 103.263C62.47 103.151 62.4787 103.039 62.483 102.922V102.767L62.3493 57.5989L62.3364 53.2952H72.0177M75.4677 49.8495H58.8735L58.8994 57.6119L59.0374 102.78C59.0287 102.94 59.0244 103.091 59.0158 103.246C58.5371 113.203 56.3637 115.726 50.7619 116.338C50.4471 116.373 50.1366 116.39 49.8347 116.39C42.978 116.39 39.2003 107.955 39.2003 107.955L26 116.067V123.829C29.9588 131.759 37.0958 139 49.977 139C78.4389 139 75.4202 112.263 75.4202 112.263V104.561C75.4202 104.522 75.4202 104.501 75.4202 104.501L75.459 57.6076V49.8495H75.4633H75.4677Z" fill="#1B1B1B"/>
</svg>
