<svg width="240" height="240" viewBox="0 0 240 240" fill="none" xmlns="http://www.w3.org/2000/svg">
<path d="M33 33H229V229H33V33Z" fill="#F8FAFF"/>
<path fill-rule="evenodd" clip-rule="evenodd" d="M227 35H35V227H227V35ZM33 33V229H229V33H33Z" fill="#1B1B1B"/>
<path d="M134.32 144.95C130.96 151.03 129.47 157.66 129.65 164.15C128.04 161.41 126.79 158.47 125.92 155.44L125.84 155.35C129.17 152.51 132.06 149.02 134.31 144.96L134.32 144.95Z" fill="#82C6D1"/>
<path d="M137.56 116.48L137.58 116.5C134.26 119.33 131.38 122.81 129.14 126.87C132.5 120.79 133.99 114.17 133.8 107.67C133.72 104.67 133.28 101.71 132.5 98.83C134.14 102.25 136.72 113.54 137.56 116.48Z" fill="#82C6D1"/>
<path d="M199.27 144.23C200.88 146.98 202.13 149.91 203 152.95C205.65 162.2 204.78 172.45 199.79 181.52C189.79 199.65 167.03 206.17 148.95 196.07C139.94 191.04 133.8 182.83 131.14 173.63L125.94 155.45C126.81 158.49 128.06 161.42 129.67 164.16C132.95 169.77 137.72 174.6 143.79 177.99C161.87 188.09 184.63 181.58 194.63 163.44C197.98 157.35 199.48 150.73 199.29 144.24L199.27 144.23Z" fill="#82C6D1"/>
<path d="M132.5 98.83C133.28 101.7 133.72 104.67 133.8 107.67C130.52 102.06 125.75 97.23 119.68 93.84C101.6 83.74 78.84 90.25 68.84 108.39C65.48 114.47 63.99 121.1 64.18 127.59C62.57 124.84 61.32 121.91 60.45 118.87C57.82 109.62 58.68 99.36 63.68 90.3C73.68 72.17 96.44 65.66 114.52 75.76C123.56 80.81 129.71 89.05 132.36 98.3C132.41 98.48 132.46 98.65 132.51 98.83L132.5 98.83Z" fill="#82C6D1"/>
<path d="M197.82 134.87C198.69 137.91 199.18 141.05 199.27 144.23C195.99 138.62 191.22 133.79 185.16 130.4C167.08 120.3 144.32 126.81 134.32 144.95C132.08 149.02 129.18 152.51 125.85 155.34C114.33 165.16 97.4999 167.32 83.4799 159.49C75.5699 155.07 69.8699 148.2 66.7899 140.36L64.9299 134.04C64.4999 131.92 64.2499 129.75 64.1899 127.58C67.4699 133.19 72.2399 138.02 78.2999 141.41C96.3799 151.51 119.14 145 129.14 126.86C131.38 122.8 134.26 119.33 137.58 116.49C149.1 106.64 165.95 104.47 179.98 112.31C189.02 117.36 195.17 125.61 197.82 134.86L197.82 134.87Z" fill="#C7E8EF"/>
<path d="M203.96 152.69L203.96 152.67L198.8 134.64L198.8 134.61C195.97 124.7 189.46 116.48 180.49 111.46C167.01 103.93 150.21 105.32 138.17 114.79C138.01 114.17 137.82 113.44 137.62 112.63C136.47 108.08 134.75 101.25 133.48 98.52C133.44 98.37 133.4 98.23 133.35 98.04C130.51 88.13 124.01 79.91 115.04 74.9C106.04 69.88 95.6599 68.67 85.7999 71.49C75.9399 74.31 67.7799 80.83 62.8099 89.83C57.8499 98.83 56.6799 109.25 59.5199 119.16L63.9799 134.3C64.4199 136.49 65.0599 138.66 65.8799 140.75C69.1399 149.07 75.2199 156.04 83.0099 160.39C88.8199 163.64 95.2599 165.23 101.67 165.23C110.12 165.23 118.52 162.46 125.37 157.06L130.19 173.91C133.04 183.78 139.54 191.96 148.48 196.95C154.28 200.19 160.67 201.84 167.13 201.84C170.66 201.84 174.21 201.35 177.69 200.35C187.55 197.53 195.71 191.02 200.68 182.01C205.64 173.01 206.82 162.6 203.98 152.69L203.96 152.69ZM135.2 145.45C139.91 136.91 147.65 130.74 156.99 128.07C166.33 125.4 176.16 126.54 184.67 131.3C190.3 134.44 194.99 139.02 198.27 144.54C198.41 150.96 196.85 157.33 193.73 162.97C189.02 171.5 181.29 177.68 171.94 180.35C162.59 183.02 152.76 181.88 144.25 177.12C138.62 173.97 133.93 169.4 130.65 163.88C130.51 157.46 132.08 151.09 135.19 145.45L135.2 145.45ZM134.8 109.75C135.11 110.94 135.4 112.09 135.66 113.12C135.97 114.36 136.24 115.42 136.45 116.19C135.36 117.16 134.32 118.18 133.35 119.26C134.23 116.17 134.72 112.97 134.81 109.75L134.8 109.75ZM131.56 99.2C131.97 100.74 132.28 102.31 132.49 103.89C129.23 99.43 125.04 95.69 120.18 92.98C111.2 87.96 100.83 86.76 90.9699 89.58C81.1099 92.4 72.9499 98.91 67.9799 107.92C65.2999 112.79 63.7099 118.17 63.2999 123.67C62.5599 122.03 61.9199 120.35 61.4299 118.61C58.7399 109.21 59.8499 99.33 64.5599 90.8C69.2699 82.26 77.0099 76.09 86.3499 73.41C95.6899 70.74 105.53 71.88 114.04 76.64C122.55 81.39 128.72 89.19 131.41 98.58L131.56 99.2ZM69.7399 108.88C74.4499 100.34 82.1899 94.17 91.5299 91.5C100.87 88.83 110.71 89.97 119.22 94.73C124.85 97.87 129.54 102.45 132.82 107.97C132.96 114.39 131.4 120.75 128.29 126.39C123.58 134.94 115.84 141.11 106.5 143.79C97.1599 146.46 87.3199 145.32 78.8099 140.56C73.1799 137.42 68.4899 132.84 65.2099 127.32C65.0699 120.9 66.6299 114.53 69.7499 108.89L69.7399 108.88ZM125.21 154.6C113.74 164.38 97.1699 166.01 83.9799 158.64C76.6099 154.52 70.8499 147.92 67.7499 140.05L65.9199 133.82C65.7599 133.01 65.6299 132.2 65.5199 131.39C68.7799 135.85 72.9699 139.59 77.8299 142.3C83.6299 145.54 90.0199 147.19 96.4799 147.19C100.01 147.19 103.56 146.7 107.05 145.7C116.91 142.88 125.07 136.37 130.04 127.36C132.17 123.5 134.93 120.1 138.25 117.27C149.72 107.46 166.3 105.83 179.51 113.2C188.02 117.96 194.19 125.75 196.88 135.15C197.38 136.88 197.73 138.65 197.96 140.43C194.7 135.98 190.51 132.25 185.66 129.54C176.68 124.53 166.31 123.32 156.45 126.14C146.59 128.96 138.42 135.47 133.46 144.48C131.32 148.36 128.55 151.76 125.22 154.6L125.21 154.6ZM130.14 152.56C129.43 155.07 128.97 157.64 128.77 160.24C128.1 158.75 127.51 157.21 127.04 155.64C128.13 154.67 129.16 153.64 130.14 152.56ZM198.91 181.05C194.2 189.59 186.46 195.76 177.12 198.43C167.78 201.1 157.94 199.96 149.43 195.2C140.96 190.47 134.8 182.71 132.09 173.35L130.28 167.01C133.63 171.89 138.08 175.96 143.29 178.87C152.27 183.88 162.64 185.09 172.5 182.27C182.36 179.45 190.52 172.94 195.49 163.93C198.18 159.06 199.75 153.67 200.16 148.17C200.9 149.8 201.54 151.49 202.03 153.22L202.03 153.24C204.73 162.64 203.61 172.51 198.91 181.05Z" fill="#1B1B1B"/>
<path d="M10 10H153V47H10V10Z" fill="#1B1B1B"/>
<path d="M153 10H66V47H153V10Z" fill="#73C92D"/>
<path fill-rule="evenodd" clip-rule="evenodd" d="M151 12H68V45H151V12ZM153 10V47H66V10H153Z" fill="#1B1B1B"/>
<path d="M76 27.101V24.9448H82.2195V27.101H76ZM77.8194 32.9358V21.6388H80.3893V32.9358H77.8194Z" fill="#1B1B1B"/>
<path d="M87.0731 33.1169C86.2255 33.1169 85.4697 32.9305 84.8056 32.5579C84.1361 32.1852 83.6125 31.6795 83.2183 31.0459C82.8296 30.4124 82.6353 29.699 82.6353 28.9058C82.6353 28.1125 82.8296 27.4258 83.2129 26.8029C83.5963 26.18 84.1199 25.6796 84.7894 25.3123C85.4589 24.9449 86.2201 24.7639 87.0731 24.7639C87.9262 24.7639 88.6604 24.9449 89.3353 25.3069C90.0101 25.669 90.5392 26.1641 90.9279 26.7976C91.3166 27.4258 91.511 28.1338 91.511 28.9111C91.511 29.6884 91.3166 30.4284 90.9279 31.0566C90.5392 31.6848 90.0101 32.1905 89.3461 32.5632C88.682 32.9359 87.9208 33.1222 87.0785 33.1222L87.0731 33.1169ZM87.0731 30.817C87.4295 30.817 87.7426 30.7425 88.0233 30.5881C88.3041 30.4337 88.5146 30.2101 88.6658 29.9226C88.817 29.6298 88.8925 29.2997 88.8925 28.9271C88.8925 28.5544 88.817 28.2456 88.6604 27.9635C88.5038 27.6813 88.2933 27.4631 88.0179 27.3033C87.7426 27.1436 87.4295 27.0638 87.0785 27.0638C86.7276 27.0638 86.4037 27.1436 86.1283 27.3033C85.8476 27.4631 85.6316 27.6866 85.4751 27.9688C85.3185 28.251 85.2429 28.5704 85.2429 28.9218C85.2429 29.2944 85.3185 29.6245 85.4751 29.9173C85.6316 30.2101 85.8476 30.4284 86.1283 30.5828C86.4037 30.7372 86.7222 30.8117 87.0785 30.8117L87.0731 30.817Z" fill="#1B1B1B"/>
<path d="M96.0784 32.691C95.3334 32.691 94.6693 32.5153 94.0916 32.1639C93.514 31.8126 93.0551 31.3388 92.7257 30.7318C92.391 30.1303 92.2236 29.4595 92.2236 28.7248C92.2236 27.9901 92.391 27.2927 92.7257 26.7018C93.0605 26.1108 93.5194 25.6424 94.1024 25.2963C94.6855 24.9503 95.3442 24.7799 96.0784 24.7799C96.6345 24.7799 97.1312 24.8811 97.5685 25.0834C98.0058 25.2857 98.3621 25.5731 98.6375 25.9405C98.9074 26.3078 99.064 26.7337 99.0964 27.2129V30.2527C99.064 30.7265 98.9074 31.1418 98.6375 31.5091C98.3621 31.8765 98.0112 32.1639 97.5685 32.3716C97.1312 32.5792 96.6345 32.6857 96.0784 32.6857V32.691ZM96.1972 36.5241C95.3172 36.5241 94.5451 36.375 93.8703 36.0716C93.2008 35.7681 92.6663 35.3475 92.2776 34.7992L93.8595 33.2553C94.151 33.596 94.475 33.8516 94.8367 34.0272C95.1984 34.2029 95.6249 34.2881 96.1108 34.2881C96.7425 34.2881 97.2446 34.1337 97.6009 33.8303C97.9572 33.5268 98.1408 33.0849 98.1408 32.5153V30.4923L98.5727 28.7514L98.1894 27.0106V24.9556H100.711V32.4514C100.711 33.2713 100.516 33.99 100.128 34.6075C99.7389 35.2198 99.2044 35.6936 98.5187 36.029C97.8331 36.3644 97.061 36.5294 96.1918 36.5294L96.1972 36.5241ZM96.5643 30.455C96.9207 30.455 97.2284 30.3805 97.4875 30.2261C97.7467 30.0717 97.9464 29.8694 98.0868 29.6085C98.2272 29.353 98.2974 29.0549 98.2974 28.7142C98.2974 28.4054 98.2272 28.1232 98.0868 27.857C97.9464 27.5962 97.7521 27.3885 97.4929 27.2342C97.2392 27.0798 96.9315 27.0052 96.5751 27.0052C96.2188 27.0052 95.9273 27.0798 95.6573 27.2342C95.3928 27.3885 95.1876 27.5962 95.0418 27.857C94.8961 28.1179 94.8259 28.4107 94.8259 28.7301C94.8259 29.0495 94.9015 29.3264 95.0526 29.5926C95.2038 29.8588 95.4036 30.0717 95.6627 30.2261C95.9219 30.3805 96.2188 30.455 96.5643 30.455Z" fill="#1B1B1B"/>
<path d="M106.482 33.1168C105.602 33.1168 104.825 32.9411 104.15 32.5844C103.469 32.2278 102.94 31.7326 102.546 31.0938C102.157 30.4603 101.963 29.7362 101.963 28.9217C101.963 28.1072 102.152 27.4204 102.53 26.7922C102.908 26.164 103.426 25.6636 104.079 25.3016C104.733 24.9396 105.472 24.7585 106.298 24.7585C107.124 24.7585 107.821 24.9289 108.431 25.2696C109.041 25.6103 109.527 26.0788 109.883 26.6857C110.24 27.2926 110.418 27.9794 110.418 28.7567C110.418 28.9111 110.407 29.0655 110.391 29.2252C110.375 29.3849 110.337 29.5606 110.283 29.7575L103.313 29.7895V28.0486L109.181 28.0167L108.08 28.7567C108.069 28.3095 107.999 27.9315 107.864 27.628C107.729 27.3246 107.535 27.0957 107.27 26.9306C107.006 26.7656 106.693 26.6857 106.331 26.6857C105.931 26.6857 105.586 26.7816 105.289 26.9679C104.992 27.1542 104.765 27.4098 104.603 27.7398C104.441 28.0699 104.36 28.4639 104.36 28.9217C104.36 29.3796 104.447 29.7842 104.619 30.1249C104.792 30.4656 105.035 30.7265 105.354 30.9075C105.672 31.0885 106.045 31.179 106.477 31.179C106.865 31.179 107.222 31.1098 107.546 30.9714C107.87 30.8329 108.15 30.6306 108.399 30.3538L109.813 31.7326C109.414 32.2065 108.928 32.5525 108.361 32.7761C107.794 32.9997 107.168 33.1115 106.477 33.1115L106.482 33.1168Z" fill="#1B1B1B"/>
<path d="M110.785 27.101V24.9448H117.004V27.101H110.785ZM112.604 32.9358V21.6388H115.174V32.9358H112.604Z" fill="#1B1B1B"/>
<path d="M118.106 32.9358V21H120.676V32.9358H118.106ZM123.478 32.9358V28.3787C123.478 27.9741 123.343 27.644 123.078 27.3832C122.814 27.1223 122.479 26.9945 122.079 26.9945C121.809 26.9945 121.572 27.0531 121.361 27.1649C121.151 27.282 120.983 27.4417 120.865 27.6494C120.74 27.857 120.681 28.0965 120.681 28.3734L119.699 27.8996C119.699 27.2767 119.833 26.7283 120.109 26.2545C120.379 25.786 120.757 25.4187 121.232 25.1632C121.707 24.9076 122.258 24.7745 122.868 24.7745C123.478 24.7745 124.055 24.9023 124.536 25.1632C125.016 25.424 125.389 25.7754 125.653 26.2332C125.923 26.6858 126.053 27.2181 126.053 27.8197V32.9358H123.483H123.478Z" fill="#1B1B1B"/>
<path d="M131.641 33.1168C130.761 33.1168 129.983 32.9411 129.308 32.5844C128.628 32.2278 128.099 31.7326 127.705 31.0938C127.316 30.4603 127.122 29.7362 127.122 28.9217C127.122 28.1072 127.311 27.4204 127.689 26.7922C128.067 26.164 128.585 25.6636 129.238 25.3016C129.892 24.9396 130.631 24.7585 131.457 24.7585C132.283 24.7585 132.98 24.9289 133.59 25.2696C134.2 25.6103 134.686 26.0788 135.042 26.6857C135.398 27.2926 135.577 27.9794 135.577 28.7567C135.577 28.9111 135.566 29.0655 135.55 29.2252C135.533 29.3849 135.496 29.5606 135.442 29.7575L128.472 29.7895V28.0486L134.34 28.0167L133.239 28.7567C133.228 28.3095 133.158 27.9315 133.023 27.628C132.888 27.3246 132.694 27.0957 132.429 26.9306C132.164 26.7656 131.851 26.6857 131.49 26.6857C131.09 26.6857 130.745 26.7816 130.448 26.9679C130.151 27.1542 129.924 27.4098 129.762 27.7398C129.6 28.0699 129.519 28.4639 129.519 28.9217C129.519 29.3796 129.605 29.7842 129.778 30.1249C129.951 30.4656 130.194 30.7265 130.512 30.9075C130.831 31.0885 131.203 31.179 131.635 31.179C132.024 31.179 132.38 31.1098 132.704 30.9714C133.028 30.8329 133.309 30.6306 133.557 30.3538L134.972 31.7326C134.572 32.2065 134.086 32.5525 133.52 32.7761C132.953 32.9997 132.326 33.1115 131.635 33.1115L131.641 33.1168Z" fill="#1B1B1B"/>
<path d="M136.781 32.9359V24.9449H139.35V32.9359H136.781ZM139.35 28.5598L138.281 27.7399C138.492 26.7976 138.854 26.0683 139.356 25.5518C139.863 25.0354 140.554 24.7799 141.434 24.7799C141.823 24.7799 142.163 24.8385 142.46 24.9503C142.757 25.0621 143.016 25.2377 143.238 25.4667L141.72 27.3726C141.618 27.2661 141.488 27.1756 141.321 27.1117C141.154 27.0478 140.965 27.0159 140.754 27.0159C140.322 27.0159 139.977 27.1436 139.728 27.4045C139.48 27.6654 139.356 28.0487 139.356 28.5651L139.35 28.5598Z" fill="#1B1B1B"/>
<path d="M25.4541 32.8549C24.6118 32.8549 23.8452 32.6738 23.1703 32.3118C22.4901 31.9498 21.961 31.4494 21.5777 30.8159C21.1944 30.1823 21 29.469 21 28.6757C21 27.8825 21.1944 27.1585 21.5831 26.5303C21.9718 25.902 22.5063 25.4016 23.1865 25.0396C23.8668 24.6776 24.628 24.4966 25.4703 24.4966C26.1127 24.4966 26.7012 24.6031 27.2303 24.816C27.7594 25.029 28.2291 25.3431 28.6394 25.7636L26.9874 27.4087C26.7984 27.201 26.577 27.0467 26.3287 26.9508C26.0803 26.8497 25.7942 26.8018 25.4703 26.8018C25.1139 26.8018 24.7954 26.8816 24.5093 27.0413C24.2231 27.201 24.0018 27.4193 23.8398 27.7015C23.6778 27.9836 23.5969 28.3031 23.5969 28.6651C23.5969 29.0271 23.6778 29.3678 23.8398 29.65C24.0018 29.9374 24.2285 30.1557 24.5147 30.3154C24.8062 30.4751 25.1193 30.555 25.4649 30.555C25.8104 30.555 26.0965 30.5018 26.3557 30.39C26.6148 30.2782 26.8416 30.1238 27.0305 29.9108L28.6826 31.5239C28.2507 31.9605 27.7702 32.2959 27.2411 32.5195C26.712 32.7431 26.1181 32.8549 25.4487 32.8549H25.4541Z" fill="#FAFAFA"/>
<path d="M33.5092 32.8548C32.6615 32.8548 31.9057 32.6685 31.2416 32.2958C30.5722 31.9231 30.0485 31.4174 29.6544 30.7838C29.2656 30.1503 29.0713 29.4369 29.0713 28.6437C29.0713 27.8505 29.2656 27.1637 29.649 26.5408C30.0323 25.9179 30.556 25.4175 31.2254 25.0502C31.8949 24.6828 32.6561 24.5018 33.5092 24.5018C34.3622 24.5018 35.0964 24.6828 35.7713 25.0449C36.4462 25.4069 36.9752 25.902 37.364 26.5355C37.7527 27.1637 37.947 27.8718 37.947 28.649C37.947 29.4263 37.7527 30.1663 37.364 30.7945C36.9752 31.4227 36.4462 31.9284 35.7821 32.3011C35.118 32.6738 34.3568 32.8601 33.5146 32.8601L33.5092 32.8548ZM33.5092 30.5549C33.8655 30.5549 34.1786 30.4804 34.4594 30.326C34.7401 30.1716 34.9507 29.948 35.1018 29.6605C35.253 29.3677 35.3286 29.0377 35.3286 28.665C35.3286 28.2923 35.253 27.9836 35.0964 27.7014C34.9399 27.4192 34.7293 27.201 34.454 27.0413C34.1786 26.8815 33.8655 26.8017 33.5146 26.8017C33.1636 26.8017 32.8397 26.8815 32.5644 27.0413C32.2836 27.201 32.0677 27.4246 31.9111 27.7067C31.7545 27.9889 31.6789 28.3083 31.6789 28.6597C31.6789 29.0323 31.7545 29.3624 31.9111 29.6552C32.0677 29.948 32.2836 30.1663 32.5644 30.3207C32.8397 30.4751 33.1582 30.5496 33.5146 30.5496L33.5092 30.5549Z" fill="#FAFAFA"/>
<path d="M42.6657 32.8389C41.8883 32.8389 41.2026 32.6578 40.6087 32.2958C40.0149 31.9338 39.5506 31.4387 39.2158 30.8158C38.8811 30.193 38.7137 29.4796 38.7137 28.6757C38.7137 27.8718 38.8811 27.1637 39.2158 26.5355C39.5506 25.9127 40.0149 25.4176 40.6141 25.0555C41.2134 24.6935 41.8991 24.5125 42.6657 24.5125C43.211 24.5125 43.7131 24.6137 44.1666 24.816C44.6201 25.0183 44.9926 25.3058 45.2842 25.6731C45.5757 26.0404 45.7377 26.4663 45.7863 26.9455V30.3154C45.7431 30.7839 45.5757 31.2098 45.2842 31.5878C44.9926 31.9658 44.6255 32.2692 44.1666 32.4928C43.7077 32.7164 43.211 32.8282 42.6657 32.8282V32.8389ZM43.1138 30.555C43.481 30.555 43.7995 30.4751 44.064 30.3154C44.334 30.1557 44.5391 29.9321 44.6903 29.6499C44.8415 29.3624 44.9171 29.0377 44.9171 28.665C44.9171 28.2924 44.8415 27.9836 44.6903 27.7014C44.5391 27.4193 44.334 27.201 44.064 27.0413C43.7995 26.8816 43.4864 26.8017 43.13 26.8017C42.7737 26.8017 42.466 26.8816 42.196 27.0466C41.9261 27.2117 41.7155 27.4353 41.5536 27.7121C41.3916 27.9942 41.3106 28.3137 41.3106 28.6757C41.3106 29.0377 41.3862 29.3625 41.5374 29.6446C41.6885 29.9321 41.8991 30.1504 42.1798 30.3101C42.4552 30.4698 42.7683 30.5496 43.1138 30.5496V30.555ZM47.3304 32.6738H44.8091V30.5177L45.1924 28.5586L44.7605 26.6367V20.7327H47.3304V32.6685V32.6738Z" fill="#FAFAFA"/>
<path d="M53.1179 32.8549C52.2378 32.8549 51.4604 32.6792 50.7855 32.3225C50.1053 31.9658 49.5762 31.4707 49.1821 30.8318C48.7934 30.1983 48.599 29.4743 48.599 28.6597C48.599 27.8452 48.788 27.1585 49.1659 26.5303C49.5438 25.902 50.0621 25.4016 50.7154 25.0396C51.3686 24.6776 52.1083 24.4966 52.9343 24.4966C53.7603 24.4966 54.4568 24.6669 55.0668 25.0077C55.6769 25.3484 56.1628 25.8169 56.5191 26.4238C56.8755 27.0307 57.0536 27.7174 57.0536 28.4947C57.0536 28.6491 57.0428 28.8035 57.0266 28.9632C57.0104 29.1229 56.9727 29.2986 56.9187 29.4956L49.9487 29.5275V27.7867L55.8173 27.7547L54.7159 28.4947C54.7051 28.0475 54.6349 27.6695 54.5 27.3661C54.365 27.0626 54.1706 26.8337 53.9061 26.6687C53.6415 26.5036 53.3284 26.4238 52.9667 26.4238C52.5672 26.4238 52.2216 26.5196 51.9247 26.7059C51.6278 26.8923 51.401 27.1478 51.239 27.4779C51.0771 27.808 50.9961 28.2019 50.9961 28.6597C50.9961 29.1176 51.0825 29.5222 51.2552 29.8629C51.428 30.2036 51.671 30.4645 51.9895 30.6455C52.308 30.8265 52.6805 30.917 53.1125 30.917C53.5012 30.917 53.8575 30.8478 54.1814 30.7094C54.5054 30.571 54.7861 30.3687 55.0345 30.0918L56.449 31.4707C56.0494 31.9445 55.5635 32.2905 54.9967 32.5141C54.4298 32.7377 53.8035 32.8495 53.1125 32.8495L53.1179 32.8549Z" fill="#FAFAFA"/>
</svg>
