<svg width="167" height="167" viewBox="0 0 167 167" fill="none" xmlns="http://www.w3.org/2000/svg">
<path d="M83.9999 128.307C74.1194 130.615 64.4616 130.988 55.9083 129.493C63.5507 137.835 73.3358 142.843 83.9999 142.843C94.664 142.843 104.446 137.835 112.091 129.493C103.541 130.988 93.8804 130.615 83.9999 128.307V128.307Z" fill="white"/>
<path d="M83.9999 39.6925C93.8804 37.385 103.538 37.012 112.091 38.507C104.449 30.1648 94.664 25.1566 83.9999 25.1566C73.3358 25.1566 63.5536 30.1648 55.9083 38.507C64.4587 37.012 74.1194 37.385 83.9999 39.6925V39.6925Z" fill="white"/>
<path d="M42.9628 61.8477C45.7648 52.693 50.2496 44.6863 55.9084 38.5099C44.3595 40.5282 34.8289 45.9441 29.4968 54.5812C24.1648 63.2183 23.9161 73.6395 27.8197 84C30.7113 76.3287 35.8843 68.692 42.9628 61.8477Z" fill="white"/>
<path d="M125.037 106.152C122.235 115.307 117.75 123.314 112.092 129.49C123.64 127.472 133.171 122.056 138.503 113.419C143.835 104.782 144.087 94.3576 140.183 83.9971C137.292 91.6684 132.119 99.3051 125.04 106.149L125.037 106.152Z" fill="white"/>
<path d="M106.144 119.861C98.8858 123.779 91.3822 126.581 84 128.307C93.8805 130.615 103.538 130.988 112.092 129.493C117.75 123.317 122.235 115.31 125.037 106.155C119.751 111.27 113.401 115.943 106.144 119.864V119.861Z" fill="#BEE7EC"/>
<path d="M61.8564 48.1388C69.1142 44.2207 76.6178 41.4188 84 39.6925C74.1195 37.385 64.4617 37.012 55.9084 38.507C50.2496 44.6834 45.7648 52.6901 42.9629 61.8448C48.2487 56.7296 54.5986 52.0569 61.8564 48.1359V48.1388Z" fill="#82C6D1"/>
<path d="M27.8197 84C23.9161 94.3605 24.1677 104.787 29.4997 113.422C34.8318 122.056 44.3624 127.475 55.9113 129.493C50.2525 123.317 45.7677 115.31 42.9657 106.155C35.8872 99.3079 30.7142 91.6742 27.8226 84.0029L27.8197 84Z" fill="white"/>
<path d="M140.18 84C144.084 73.6395 143.832 63.2125 138.5 54.5783C133.168 45.9441 123.638 40.5253 112.089 38.507C117.747 44.6834 122.232 52.6901 125.034 61.8448C132.113 68.692 137.286 76.3258 140.177 83.9971L140.18 84Z" fill="white"/>
<path d="M84 39.6925C91.3793 41.4159 98.8829 44.2207 106.144 48.1388C113.401 52.0569 119.751 56.7325 125.037 61.8477C122.235 52.693 117.75 44.6863 112.092 38.5099C103.541 37.0149 93.8805 37.3879 84 39.6954V39.6925Z" fill="#BEE7EC"/>
<path d="M84 128.307C76.6207 126.584 69.1171 123.779 61.8564 119.861C54.5986 115.943 48.2487 111.267 42.9629 106.152C45.7648 115.307 50.2496 123.314 55.9084 129.49C64.4588 130.985 74.1195 130.612 84 128.305V128.307Z" fill="#82C6D1"/>
<path d="M125.037 61.8477C127.131 68.6863 128.287 76.1638 128.287 84C128.287 91.8361 127.131 99.3137 125.037 106.152C132.116 99.305 137.289 91.6713 140.18 84C137.289 76.3287 132.116 68.692 125.037 61.8477Z" fill="#82C6D1"/>
<path d="M42.9628 106.152C40.8693 99.3137 39.7127 91.8361 39.7127 84C39.7127 76.1638 40.8693 68.6863 42.9628 61.8477C35.8843 68.6949 30.7113 76.3287 27.8197 84C30.7113 91.6713 35.8843 99.3079 42.9628 106.152Z" fill="#BEE7EC"/>
<path d="M125.037 61.8477C119.751 56.7325 113.401 52.0597 106.144 48.1388C98.8858 44.2207 91.3822 41.4188 84 39.6925C76.6207 41.4159 69.1171 44.2207 61.8564 48.1388C54.5986 52.0569 48.2487 56.7325 42.9629 61.8477C40.8694 68.6863 39.7128 76.1638 39.7128 84C39.7128 91.8361 40.8694 99.3137 42.9629 106.152C48.2487 111.267 54.5986 115.94 61.8564 119.861C69.1142 123.779 76.6178 126.581 84 128.307C91.3793 126.584 98.8829 123.779 106.144 119.861C113.401 115.943 119.751 111.267 125.037 106.152C127.131 99.3137 128.287 91.8361 128.287 84C128.287 76.1638 127.131 68.6863 125.037 61.8477V61.8477Z" fill="#9BD7DF"/>
<path d="M42.96 61.8448C49.5469 40.3287 65.439 25.1566 84 25.1566C108.46 25.1566 128.287 51.5017 128.287 84C128.287 116.498 108.46 142.843 84 142.843C73.3445 142.843 63.5682 137.844 55.9286 129.513" stroke="#1B1B1B" stroke-width="3" stroke-miterlimit="10"/>
<path d="M125.04 61.8448C141.678 77.9364 147.782 98.3913 138.503 113.422C126.275 133.226 91.9576 136.109 61.8593 119.861C31.7581 103.611 17.2685 74.3826 29.4998 54.5783C34.8318 45.9441 44.3624 40.5253 55.9114 38.507" stroke="#1B1B1B" stroke-width="3" stroke-miterlimit="10"/>
<path d="M84.1446 128.276C60.8675 133.758 38.7991 128.481 29.4998 113.422C17.2714 93.6173 31.7581 64.3894 61.8593 48.1388C91.9605 31.891 126.275 34.771 138.503 54.5783C143.853 63.2443 144.09 73.7118 140.143 84.107" stroke="#1B1B1B" stroke-width="3" stroke-miterlimit="10"/>
<path d="M20.3816 131.882L23 115.503L25.6184 131.882C25.7802 132.894 26.5433 133.705 27.5438 133.928L39.0974 136.5L27.5438 139.072C26.5433 139.295 25.7802 140.106 25.6184 141.118L23 157.497L20.3816 141.118C20.2198 140.106 19.4567 139.295 18.4562 139.072L6.90255 136.5L18.4562 133.928C19.4567 133.705 20.2198 132.894 20.3816 131.882Z" fill="white" stroke="#1B1B1B" stroke-width="3"/>
<path d="M138.241 27.1942L141.5 6.59709L144.759 27.1942C144.919 28.206 145.681 29.0178 146.68 29.2425L161.164 32.5L146.68 35.7575C145.681 35.9822 144.919 36.794 144.759 37.8058L141.5 58.4029L138.241 37.8058C138.081 36.794 137.319 35.9822 136.32 35.7575L121.836 32.5L136.32 29.2425C137.319 29.0178 138.081 28.206 138.241 27.1942Z" fill="white" stroke="#1B1B1B" stroke-width="3"/>
<path d="M8.94186 68.9189L9 68.5531L9.05815 68.9189C9.21903 69.9308 9.98112 70.7421 10.981 70.9659L11.1332 71L10.981 71.0341C9.98113 71.2579 9.21903 72.0692 9.05815 73.0811L9 73.4469L8.94186 73.0811C8.78097 72.0692 8.01888 71.2579 7.01897 71.0341L6.86682 71L7.01897 70.9659C8.01887 70.7421 8.78097 69.9308 8.94186 68.9189Z" fill="white" stroke="#1B1B1B" stroke-width="3"/>
<path d="M135.167 139.644L135.5 137.553L135.833 139.644C135.993 140.656 136.755 141.468 137.755 141.692L139.133 142L137.755 142.308C136.755 142.532 135.993 143.344 135.833 144.356L135.5 146.447L135.167 144.356C135.007 143.344 134.245 142.532 133.245 142.308L131.867 142L133.245 141.692C134.245 141.468 135.007 140.656 135.167 139.644Z" fill="white" stroke="#1B1B1B" stroke-width="3"/>
<path d="M115.942 17.9189L116 17.5531L116.058 17.9189C116.219 18.9308 116.981 19.7421 117.981 19.9659L118.133 20L117.981 20.0341C116.981 20.2579 116.219 21.0692 116.058 22.0811L116 22.4469L115.942 22.0811C115.781 21.0692 115.019 20.2579 114.019 20.0341L113.867 20L114.019 19.9659C115.019 19.7421 115.781 18.9308 115.942 17.9189Z" fill="white" stroke="#1B1B1B" stroke-width="3"/>
<path d="M157.942 116.919L158 116.553L158.058 116.919C158.219 117.931 158.981 118.742 159.981 118.966L160.133 119L159.981 119.034C158.981 119.258 158.219 120.069 158.058 121.081L158 121.447L157.942 121.081C157.781 120.069 157.019 119.258 156.019 119.034L155.867 119L156.019 118.966C157.019 118.742 157.781 117.931 157.942 116.919Z" fill="white" stroke="#1B1B1B" stroke-width="3"/>
<path d="M25 39.8941C33.2257 39.8941 39.8941 33.2258 39.8941 25C39.8941 16.7742 33.2257 10.1059 25 10.1059C16.7742 10.1059 10.1058 16.7742 10.1058 25C10.1058 33.2258 16.7742 39.8941 25 39.8941Z" fill="#82C6D1" stroke="#1B1B1B" stroke-width="3" stroke-miterlimit="10"/>
<path d="M31.343 18H26.6568C26.294 18 25.9999 18.2941 25.9999 18.6569V23.3432C25.9999 23.706 26.294 24 26.6568 24H31.343C31.7058 24 31.9999 23.706 31.9999 23.3432V18.6569C31.9999 18.2941 31.7058 18 31.343 18Z" fill="white"/>
<path d="M20.5448 18.1483L17.1625 23.4727C17.0219 23.6942 17.1731 23.9905 17.4263 23.9905H24.1909C24.4442 23.9905 24.5954 23.6942 24.4548 23.4727L21.0725 18.1483C20.9466 17.9507 20.6701 17.9507 20.5448 18.1483V18.1483Z" fill="white"/>
<path d="M31.8009 26H17.2C17.0899 26 16.9999 26.096 16.9999 26.2145V31.7856C16.9999 31.9041 17.0893 32 17.2 32H22.575C22.6996 32 22.8005 31.9041 22.8005 31.7856V30.1971C22.8005 29.3047 23.5614 28.5813 24.4999 28.5813C25.4384 28.5813 26.1992 29.3047 26.1992 30.1971V31.7856C26.1992 31.9041 26.3002 32 26.4248 32H31.7997C31.9099 32 31.9999 31.9041 31.9999 31.7856V26.2145C31.9999 26.096 31.9105 26 31.7997 26H31.8009Z" fill="white"/>
</svg>
