<svg width="240" height="240" viewBox="0 0 240 240" fill="none" xmlns="http://www.w3.org/2000/svg">
<path d="M34 34H228V228H34V34Z" fill="#F8FAFF" stroke="#1B1B1B" stroke-width="2"/>
<path d="M10 10H153V47H10V10Z" fill="#1B1B1B"/>
<path d="M153 10H66V47H153V10Z" fill="#73C92D"/>
<path fill-rule="evenodd" clip-rule="evenodd" d="M151 12H68V45H151V12ZM153 10V47H66V10H153Z" fill="#1B1B1B"/>
<path d="M76 27.101V24.9449H82.2195V27.101H76ZM77.8194 32.9358V21.6389H80.3893V32.9358H77.8194Z" fill="#1B1B1B"/>
<path d="M87.0731 33.1168C86.2255 33.1168 85.4697 32.9305 84.8056 32.5578C84.1361 32.1852 83.6125 31.6794 83.2183 31.0459C82.8296 30.4123 82.6353 29.699 82.6353 28.9057C82.6353 28.1125 82.8296 27.4257 83.2129 26.8028C83.5963 26.18 84.1199 25.6795 84.7894 25.3122C85.4589 24.9449 86.2201 24.7639 87.0731 24.7639C87.9262 24.7639 88.6604 24.9449 89.3353 25.3069C90.0101 25.6689 90.5392 26.164 90.9279 26.7975C91.3166 27.4257 91.511 28.1338 91.511 28.911C91.511 29.6883 91.3166 30.4283 90.9279 31.0565C90.5392 31.6847 90.0101 32.1905 89.3461 32.5631C88.682 32.9358 87.9208 33.1221 87.0785 33.1221L87.0731 33.1168ZM87.0731 30.8169C87.4295 30.8169 87.7426 30.7424 88.0233 30.588C88.3041 30.4336 88.5146 30.21 88.6658 29.9226C88.817 29.6298 88.8925 29.2997 88.8925 28.927C88.8925 28.5544 88.817 28.2456 88.6604 27.9634C88.5038 27.6813 88.2933 27.463 88.0179 27.3033C87.7426 27.1436 87.4295 27.0637 87.0785 27.0637C86.7276 27.0637 86.4037 27.1436 86.1283 27.3033C85.8476 27.463 85.6316 27.6866 85.4751 27.9687C85.3185 28.2509 85.2429 28.5703 85.2429 28.9217C85.2429 29.2944 85.3185 29.6244 85.4751 29.9172C85.6316 30.21 85.8476 30.4283 86.1283 30.5827C86.4037 30.7371 86.7222 30.8116 87.0785 30.8116L87.0731 30.8169Z" fill="#1B1B1B"/>
<path d="M96.0784 32.6909C95.3334 32.6909 94.6693 32.5152 94.0916 32.1639C93.514 31.8125 93.0551 31.3387 92.7257 30.7318C92.391 30.1302 92.2236 29.4594 92.2236 28.7247C92.2236 27.9901 92.391 27.2927 92.7257 26.7017C93.0605 26.1108 93.5194 25.6423 94.1024 25.2962C94.6855 24.9502 95.3442 24.7798 96.0784 24.7798C96.6345 24.7798 97.1312 24.881 97.5685 25.0833C98.0058 25.2856 98.3621 25.5731 98.6375 25.9404C98.9074 26.3078 99.064 26.7337 99.0964 27.2128V30.2527C99.064 30.7265 98.9074 31.1417 98.6375 31.5091C98.3621 31.8764 98.0112 32.1639 97.5685 32.3715C97.1312 32.5791 96.6345 32.6856 96.0784 32.6856V32.6909ZM96.1972 36.524C95.3172 36.524 94.5451 36.375 93.8703 36.0715C93.2008 35.768 92.6663 35.3475 92.2776 34.7991L93.8595 33.2552C94.151 33.596 94.475 33.8515 94.8367 34.0272C95.1984 34.2029 95.6249 34.288 96.1108 34.288C96.7425 34.288 97.2446 34.1337 97.6009 33.8302C97.9572 33.5268 98.1408 33.0849 98.1408 32.5152V30.4922L98.5727 28.7514L98.1894 27.0105V24.9555H100.711V32.4514C100.711 33.2712 100.516 33.9899 100.128 34.6075C99.7389 35.2197 99.2044 35.6935 98.5187 36.0289C97.8331 36.3643 97.061 36.5293 96.1918 36.5293L96.1972 36.524ZM96.5643 30.455C96.9207 30.455 97.2284 30.3804 97.4875 30.226C97.7467 30.0716 97.9464 29.8693 98.0868 29.6085C98.2272 29.3529 98.2974 29.0548 98.2974 28.7141C98.2974 28.4053 98.2272 28.1232 98.0868 27.857C97.9464 27.5961 97.7521 27.3885 97.4929 27.2341C97.2392 27.0797 96.9315 27.0052 96.5751 27.0052C96.2188 27.0052 95.9273 27.0797 95.6573 27.2341C95.3928 27.3885 95.1876 27.5961 95.0418 27.857C94.8961 28.1178 94.8259 28.4106 94.8259 28.7301C94.8259 29.0495 94.9015 29.3263 95.0526 29.5925C95.2038 29.8587 95.4036 30.0716 95.6627 30.226C95.9219 30.3804 96.2188 30.455 96.5643 30.455Z" fill="#1B1B1B"/>
<path d="M106.482 33.1168C105.602 33.1168 104.825 32.9411 104.15 32.5844C103.469 32.2278 102.94 31.7326 102.546 31.0938C102.157 30.4603 101.963 29.7362 101.963 28.9217C101.963 28.1072 102.152 27.4204 102.53 26.7922C102.908 26.164 103.426 25.6636 104.079 25.3016C104.733 24.9396 105.472 24.7585 106.298 24.7585C107.124 24.7585 107.821 24.9289 108.431 25.2696C109.041 25.6103 109.527 26.0788 109.883 26.6857C110.24 27.2926 110.418 27.9794 110.418 28.7567C110.418 28.9111 110.407 29.0655 110.391 29.2252C110.375 29.3849 110.337 29.5606 110.283 29.7575L103.313 29.7895V28.0486L109.181 28.0167L108.08 28.7567C108.069 28.3095 107.999 27.9315 107.864 27.628C107.729 27.3246 107.535 27.0957 107.27 26.9306C107.006 26.7656 106.693 26.6857 106.331 26.6857C105.931 26.6857 105.586 26.7816 105.289 26.9679C104.992 27.1542 104.765 27.4098 104.603 27.7398C104.441 28.0699 104.36 28.4639 104.36 28.9217C104.36 29.3796 104.447 29.7842 104.619 30.1249C104.792 30.4656 105.035 30.7265 105.354 30.9075C105.672 31.0885 106.045 31.179 106.477 31.179C106.865 31.179 107.222 31.1098 107.546 30.9714C107.87 30.8329 108.15 30.6306 108.399 30.3538L109.813 31.7326C109.414 32.2065 108.928 32.5525 108.361 32.7761C107.794 32.9997 107.168 33.1115 106.477 33.1115L106.482 33.1168Z" fill="#1B1B1B"/>
<path d="M110.785 27.101V24.9449H117.004V27.101H110.785ZM112.604 32.9358V21.6389H115.174V32.9358H112.604Z" fill="#1B1B1B"/>
<path d="M118.106 32.9358V21H120.676V32.9358H118.106ZM123.478 32.9358V28.3787C123.478 27.9741 123.343 27.644 123.078 27.3832C122.814 27.1223 122.479 26.9945 122.079 26.9945C121.809 26.9945 121.572 27.0531 121.361 27.1649C121.151 27.282 120.983 27.4417 120.865 27.6494C120.74 27.857 120.681 28.0965 120.681 28.3734L119.699 27.8996C119.699 27.2767 119.833 26.7283 120.109 26.2545C120.379 25.786 120.757 25.4187 121.232 25.1632C121.707 24.9076 122.258 24.7745 122.868 24.7745C123.478 24.7745 124.055 24.9023 124.536 25.1632C125.016 25.424 125.389 25.7754 125.653 26.2332C125.923 26.6858 126.053 27.2181 126.053 27.8197V32.9358H123.483H123.478Z" fill="#1B1B1B"/>
<path d="M131.641 33.1168C130.761 33.1168 129.983 32.9411 129.308 32.5844C128.628 32.2278 128.099 31.7326 127.705 31.0938C127.316 30.4603 127.122 29.7362 127.122 28.9217C127.122 28.1072 127.311 27.4204 127.689 26.7922C128.067 26.164 128.585 25.6636 129.238 25.3016C129.892 24.9396 130.631 24.7585 131.457 24.7585C132.283 24.7585 132.98 24.9289 133.59 25.2696C134.2 25.6103 134.686 26.0788 135.042 26.6857C135.398 27.2926 135.577 27.9794 135.577 28.7567C135.577 28.9111 135.566 29.0655 135.55 29.2252C135.533 29.3849 135.496 29.5606 135.442 29.7575L128.472 29.7895V28.0486L134.34 28.0167L133.239 28.7567C133.228 28.3095 133.158 27.9315 133.023 27.628C132.888 27.3246 132.694 27.0957 132.429 26.9306C132.164 26.7656 131.851 26.6857 131.49 26.6857C131.09 26.6857 130.745 26.7816 130.448 26.9679C130.151 27.1542 129.924 27.4098 129.762 27.7398C129.6 28.0699 129.519 28.4639 129.519 28.9217C129.519 29.3796 129.605 29.7842 129.778 30.1249C129.951 30.4656 130.194 30.7265 130.512 30.9075C130.831 31.0885 131.203 31.179 131.635 31.179C132.024 31.179 132.38 31.1098 132.704 30.9714C133.028 30.8329 133.309 30.6306 133.557 30.3538L134.972 31.7326C134.572 32.2065 134.086 32.5525 133.52 32.7761C132.953 32.9997 132.326 33.1115 131.635 33.1115L131.641 33.1168Z" fill="#1B1B1B"/>
<path d="M136.781 32.9358V24.9449H139.35V32.9358H136.781ZM139.35 28.5597L138.281 27.7398C138.492 26.7975 138.854 26.0682 139.356 25.5518C139.863 25.0354 140.554 24.7798 141.434 24.7798C141.823 24.7798 142.163 24.8384 142.46 24.9502C142.757 25.062 143.016 25.2377 143.238 25.4666L141.72 27.3725C141.618 27.266 141.488 27.1755 141.321 27.1116C141.154 27.0478 140.965 27.0158 140.754 27.0158C140.322 27.0158 139.977 27.1436 139.728 27.4045C139.48 27.6653 139.356 28.0486 139.356 28.565L139.35 28.5597Z" fill="#1B1B1B"/>
<path d="M25.4541 32.8548C24.6118 32.8548 23.8452 32.6738 23.1703 32.3118C22.4901 31.9498 21.961 31.4493 21.5777 30.8158C21.1944 30.1823 21 29.4689 21 28.6757C21 27.8824 21.1944 27.1584 21.5831 26.5302C21.9718 25.902 22.5063 25.4016 23.1865 25.0395C23.8668 24.6775 24.628 24.4965 25.4703 24.4965C26.1127 24.4965 26.7012 24.603 27.2303 24.8159C27.7594 25.0289 28.2291 25.343 28.6394 25.7636L26.9874 27.4086C26.7984 27.201 26.577 27.0466 26.3287 26.9508C26.0803 26.8496 25.7942 26.8017 25.4703 26.8017C25.1139 26.8017 24.7954 26.8816 24.5093 27.0413C24.2231 27.201 24.0018 27.4193 23.8398 27.7014C23.6778 27.9836 23.5969 28.303 23.5969 28.665C23.5969 29.027 23.6778 29.3677 23.8398 29.6499C24.0018 29.9374 24.2285 30.1557 24.5147 30.3154C24.8062 30.4751 25.1193 30.5549 25.4649 30.5549C25.8104 30.5549 26.0965 30.5017 26.3557 30.3899C26.6148 30.2781 26.8416 30.1237 27.0305 29.9108L28.6826 31.5239C28.2507 31.9604 27.7702 32.2958 27.2411 32.5194C26.712 32.743 26.1181 32.8548 25.4487 32.8548H25.4541Z" fill="#FAFAFA"/>
<path d="M33.5092 32.8548C32.6615 32.8548 31.9057 32.6685 31.2416 32.2958C30.5722 31.9232 30.0485 31.4174 29.6544 30.7839C29.2656 30.1504 29.0713 29.437 29.0713 28.6438C29.0713 27.8505 29.2656 27.1638 29.649 26.5409C30.0323 25.918 30.556 25.4176 31.2254 25.0502C31.8949 24.6829 32.6561 24.5019 33.5092 24.5019C34.3622 24.5019 35.0964 24.6829 35.7713 25.0449C36.4462 25.4069 36.9752 25.902 37.364 26.5356C37.7527 27.1638 37.947 27.8718 37.947 28.6491C37.947 29.4264 37.7527 30.1664 37.364 30.7946C36.9752 31.4228 36.4462 31.9285 35.7821 32.3012C35.118 32.6738 34.3568 32.8602 33.5146 32.8602L33.5092 32.8548ZM33.5092 30.555C33.8655 30.555 34.1786 30.4805 34.4594 30.3261C34.7401 30.1717 34.9507 29.9481 35.1018 29.6606C35.253 29.3678 35.3286 29.0377 35.3286 28.6651C35.3286 28.2924 35.253 27.9836 35.0964 27.7015C34.9399 27.4193 34.7293 27.201 34.454 27.0413C34.1786 26.8816 33.8655 26.8017 33.5146 26.8017C33.1636 26.8017 32.8397 26.8816 32.5644 27.0413C32.2836 27.201 32.0677 27.4246 31.9111 27.7068C31.7545 27.9889 31.6789 28.3084 31.6789 28.6597C31.6789 29.0324 31.7545 29.3625 31.9111 29.6553C32.0677 29.9481 32.2836 30.1664 32.5644 30.3207C32.8397 30.4751 33.1582 30.5497 33.5146 30.5497L33.5092 30.555Z" fill="#FAFAFA"/>
<path d="M42.6657 32.8389C41.8883 32.8389 41.2026 32.6578 40.6087 32.2958C40.0149 31.9338 39.5506 31.4387 39.2158 30.8158C38.8811 30.193 38.7137 29.4796 38.7137 28.6757C38.7137 27.8718 38.8811 27.1637 39.2158 26.5355C39.5506 25.9127 40.0149 25.4176 40.6141 25.0555C41.2134 24.6935 41.8991 24.5125 42.6657 24.5125C43.211 24.5125 43.7131 24.6137 44.1666 24.816C44.6201 25.0183 44.9926 25.3058 45.2842 25.6731C45.5757 26.0404 45.7377 26.4663 45.7863 26.9455V30.3154C45.7431 30.7839 45.5757 31.2098 45.2842 31.5878C44.9926 31.9658 44.6255 32.2692 44.1666 32.4928C43.7077 32.7164 43.211 32.8282 42.6657 32.8282V32.8389ZM43.1138 30.555C43.481 30.555 43.7995 30.4751 44.064 30.3154C44.334 30.1557 44.5391 29.9321 44.6903 29.6499C44.8415 29.3624 44.9171 29.0377 44.9171 28.665C44.9171 28.2924 44.8415 27.9836 44.6903 27.7014C44.5391 27.4193 44.334 27.201 44.064 27.0413C43.7995 26.8816 43.4864 26.8017 43.13 26.8017C42.7737 26.8017 42.466 26.8816 42.196 27.0466C41.9261 27.2117 41.7155 27.4353 41.5536 27.7121C41.3916 27.9942 41.3106 28.3137 41.3106 28.6757C41.3106 29.0377 41.3862 29.3625 41.5374 29.6446C41.6885 29.9321 41.8991 30.1504 42.1798 30.3101C42.4552 30.4698 42.7683 30.5496 43.1138 30.5496V30.555ZM47.3304 32.6738H44.8091V30.5177L45.1924 28.5586L44.7605 26.6367V20.7327H47.3304V32.6685V32.6738Z" fill="#FAFAFA"/>
<path d="M53.1179 32.8548C52.2378 32.8548 51.4604 32.6791 50.7855 32.3224C50.1053 31.9657 49.5762 31.4706 49.1821 30.8318C48.7934 30.1982 48.599 29.4742 48.599 28.6597C48.599 27.8452 48.788 27.1584 49.1659 26.5302C49.5438 25.902 50.0621 25.4016 50.7154 25.0395C51.3686 24.6775 52.1083 24.4965 52.9343 24.4965C53.7603 24.4965 54.4568 24.6669 55.0668 25.0076C55.6769 25.3483 56.1628 25.8168 56.5191 26.4237C56.8755 27.0306 57.0536 27.7174 57.0536 28.4947C57.0536 28.649 57.0428 28.8034 57.0266 28.9631C57.0104 29.1229 56.9727 29.2985 56.9187 29.4955L49.9487 29.5275V27.7866L55.8173 27.7546L54.7159 28.4947C54.7051 28.0475 54.6349 27.6695 54.5 27.366C54.365 27.0626 54.1706 26.8336 53.9061 26.6686C53.6415 26.5036 53.3284 26.4237 52.9667 26.4237C52.5672 26.4237 52.2216 26.5195 51.9247 26.7059C51.6278 26.8922 51.401 27.1477 51.239 27.4778C51.0771 27.8079 50.9961 28.2018 50.9961 28.6597C50.9961 29.1175 51.0825 29.5221 51.2552 29.8629C51.428 30.2036 51.671 30.4644 51.9895 30.6454C52.308 30.8264 52.6805 30.917 53.1125 30.917C53.5012 30.917 53.8575 30.8477 54.1814 30.7093C54.5054 30.5709 54.7861 30.3686 55.0345 30.0918L56.449 31.4706C56.0494 31.9444 55.5635 32.2905 54.9967 32.5141C54.4298 32.7377 53.8035 32.8495 53.1125 32.8495L53.1179 32.8548Z" fill="#FAFAFA"/>
<path d="M60.1665 172.475C59.4804 171.539 59.0394 170.623 58.8436 169.725C58.6665 168.829 58.6846 167.873 58.8981 166.857L61.7335 167.307C61.5823 167.98 61.5501 168.624 61.6369 169.238C61.7424 169.855 62.012 170.46 62.4457 171.051C62.84 171.589 63.2404 171.931 63.6469 172.08C64.0612 172.239 64.4404 172.192 64.7844 171.94C65.0962 171.711 65.2779 171.429 65.3294 171.094C65.381 170.758 65.3584 170.378 65.2616 169.953C65.1726 169.539 65.0507 169.091 64.8958 168.609C64.7488 168.138 64.6179 167.655 64.5032 167.161C64.3992 166.658 64.3525 166.155 64.3632 165.651C64.3926 165.15 64.5244 164.665 64.7587 164.195C65.0038 163.718 65.4166 163.266 65.9972 162.84C66.696 162.328 67.4203 162.053 68.1701 162.015C68.9278 161.989 69.6564 162.182 70.3561 162.595C71.0665 162.999 71.7095 163.594 72.2852 164.379C72.8688 165.175 73.2613 166.003 73.4629 166.864C73.6723 167.735 73.6928 168.564 73.5244 169.349L70.6891 168.898C70.7915 168.294 70.7986 167.752 70.7104 167.271C70.63 166.8 70.4282 166.345 70.1049 165.904C69.7815 165.463 69.4392 165.177 69.0779 165.045C68.7274 164.905 68.3962 164.95 68.0845 165.179C67.7942 165.392 67.6286 165.662 67.5878 165.989C67.5578 166.309 67.5926 166.672 67.6922 167.079C67.7998 167.496 67.9271 167.94 68.0741 168.411C68.229 168.892 68.3584 169.384 68.4624 169.887C68.5664 170.389 68.5984 170.895 68.5583 171.404C68.5369 171.916 68.3929 172.418 68.1263 172.911C67.8704 173.397 67.4468 173.856 66.8555 174.29C65.7697 175.087 64.6311 175.326 63.4397 175.01C62.2591 174.685 61.168 173.84 60.1665 172.475Z" fill="black"/>
<path d="M174.46 203L171.1 193.28H174.1L176.18 200.34L175.3 200.36L177.6 193.28H180.08L182.4 200.36L181.5 200.34L183.6 193.28H186.6L183.24 203H180.74L178.48 196.28H179.24L176.94 203H174.46ZM187.547 203V193.28H190.607V203H187.547ZM189.087 191.94C188.607 191.94 188.207 191.78 187.887 191.46C187.58 191.127 187.427 190.727 187.427 190.26C187.427 189.78 187.58 189.38 187.887 189.06C188.207 188.74 188.607 188.58 189.087 188.58C189.567 188.58 189.96 188.74 190.267 189.06C190.574 189.38 190.727 189.78 190.727 190.26C190.727 190.727 190.574 191.127 190.267 191.46C189.96 191.78 189.567 191.94 189.087 191.94ZM193.922 203V192.44C193.922 191.653 194.095 190.947 194.442 190.32C194.802 189.68 195.302 189.18 195.942 188.82C196.582 188.447 197.342 188.26 198.222 188.26C198.888 188.26 199.468 188.373 199.962 188.6C200.468 188.813 200.908 189.113 201.282 189.5L199.362 191.42C199.228 191.287 199.075 191.187 198.902 191.12C198.742 191.04 198.548 191 198.322 191C197.908 191 197.582 191.12 197.342 191.36C197.102 191.6 196.982 191.927 196.982 192.34V203H193.922ZM191.782 195.88V193.28H199.782V195.88H191.782ZM202.126 203V189.26H205.186V203H202.126ZM199.926 195.88V193.28H207.386V195.88H199.926Z" fill="black"/>
<path d="M174.627 157.575C176.913 144.161 170.349 130.904 158.711 124.411L168.82 87.3451L146.787 81.3362L136.678 118.402C123.352 118.087 110.967 126.175 106.129 138.893C127.85 148.65 150.964 154.954 174.627 157.575Z" fill="#82C6D1" stroke="black" stroke-width="2" stroke-miterlimit="10"/>
<path d="M172.447 164.001C149.439 161.651 126.949 155.62 105.852 146.131L104.194 145.386C92.5669 177.791 79 185.159 79 185.159L86.8158 187.29C92.5159 185.489 100.477 181.039 106.234 170.055C106.234 170.055 104.739 182.039 96.0596 189.811L147.253 203.773C147.253 203.773 168.488 204.821 172.447 164.001Z" fill="white" stroke="black" stroke-width="2" stroke-miterlimit="10"/>
<path d="M76.0274 68.8725C76.3995 66.6453 79.6005 66.6453 79.9727 68.8724L85.1001 99.557C85.3363 100.97 86.3106 102.15 87.6542 102.648L101.07 107.625C102.809 108.27 102.809 110.73 101.07 111.375L87.6542 116.352C86.3106 116.85 85.3363 118.03 85.1001 119.443L79.9727 150.128C79.6005 152.355 76.3995 152.355 76.0274 150.128L70.8999 119.443C70.6637 118.03 69.6894 116.85 68.3458 116.352L54.9299 111.375C53.1907 110.73 53.1907 108.27 54.9299 107.625L68.3458 102.648C69.6894 102.15 70.6637 100.97 70.8999 99.557L76.0274 68.8725Z" fill="#C7E8EF" stroke="black" stroke-width="2"/>
<path d="M113.211 59.7569C113.585 57.5325 116.781 57.5325 117.155 59.7569L120.391 78.9934C120.629 80.408 121.606 81.587 122.952 82.0831L123.298 81.1448L122.952 82.0831L131.2 85.1234C132.945 85.7664 132.945 88.2336 131.2 88.8766L122.952 91.9169C121.606 92.413 120.629 93.592 120.391 95.0067L117.155 114.243C116.781 116.468 113.585 116.468 113.211 114.243L109.976 95.0067C109.738 93.592 108.76 92.413 107.414 91.9169L99.1659 88.8766C97.4215 88.2336 97.4215 85.7664 99.1659 85.1234L107.414 82.0831C108.76 81.587 109.738 80.408 109.976 78.9934L113.211 59.7569Z" fill="#C7E8EF" stroke="black" stroke-width="2"/>
<path d="M191.028 100.586C191.405 98.366 194.595 98.366 194.972 100.586L197.394 114.853C197.635 116.27 198.616 117.448 199.966 117.941L205.938 120.121C207.69 120.761 207.69 123.239 205.938 123.879L199.966 126.059C198.616 126.552 197.635 127.73 197.394 129.147L194.972 143.414C194.595 145.634 191.405 145.634 191.028 143.414L188.606 129.147C188.365 127.73 187.384 126.552 186.034 126.059L180.062 123.879C178.31 123.239 178.31 120.761 180.062 120.121L186.034 117.941C187.384 117.448 188.365 116.27 188.606 114.853L191.028 100.586Z" fill="#C7E8EF" stroke="black" stroke-width="2"/>
</svg>
