<svg width="167" height="167" viewBox="0 0 167 167" fill="none" xmlns="http://www.w3.org/2000/svg">
<path d="M15.624 118.678C14.9379 117.743 14.497 116.826 14.3012 115.928C14.124 115.033 14.1422 114.077 14.3557 113.061L17.191 113.511C17.0399 114.184 17.0077 114.828 17.0945 115.442C17.2 116.059 17.4695 116.663 17.9033 117.255C18.2976 117.792 18.698 118.135 19.1044 118.283C19.5187 118.443 19.8979 118.396 20.242 118.144C20.5537 117.915 20.7354 117.633 20.787 117.297C20.8386 116.962 20.8159 116.582 20.7191 116.157C20.6302 115.742 20.5083 115.294 20.3534 114.813C20.2064 114.342 20.0755 113.859 19.9608 113.364C19.8568 112.862 19.8101 112.359 19.8208 111.855C19.8501 111.354 19.982 110.868 20.2163 110.399C20.4614 109.921 20.8742 109.47 21.4548 109.044C22.1536 108.531 22.8779 108.256 23.6277 108.219C24.3853 108.192 25.114 108.385 25.8136 108.798C26.524 109.203 27.1671 109.798 27.7428 110.583C28.3263 111.378 28.7189 112.207 28.9204 113.068C29.1298 113.939 29.1504 114.767 28.982 115.552L26.1466 115.102C26.2491 114.498 26.2562 113.955 26.1679 113.474C26.0876 113.004 25.8858 112.549 25.5624 112.108C25.2391 111.667 24.8968 111.381 24.5355 111.249C24.185 111.109 23.8538 111.154 23.542 111.382C23.2517 111.595 23.0862 111.865 23.0454 112.193C23.0153 112.513 23.0501 112.876 23.1498 113.282C23.2574 113.699 23.3847 114.143 23.5317 114.614C23.6866 115.096 23.816 115.588 23.92 116.091C24.024 116.593 24.056 117.099 24.0159 117.608C23.9944 118.119 23.8504 118.622 23.5838 119.115C23.328 119.6 22.9044 120.06 22.3131 120.494C21.2272 121.29 20.0886 121.53 18.8973 121.213C17.7166 120.889 16.6256 120.044 15.624 118.678Z" fill="#1B1B1B"/>
<path d="M112.46 145L109.1 135.28H112.1L114.18 142.34L113.3 142.36L115.6 135.28H118.08L120.4 142.36L119.5 142.34L121.6 135.28H124.6L121.24 145H118.74L116.48 138.28H117.24L114.94 145H112.46Z" fill="#1B1B1B"/>
<path d="M125.547 145V135.28H128.607V145H125.547ZM127.087 133.94C126.607 133.94 126.207 133.78 125.887 133.46C125.58 133.127 125.427 132.727 125.427 132.26C125.427 131.78 125.58 131.38 125.887 131.06C126.207 130.74 126.607 130.58 127.087 130.58C127.567 130.58 127.96 130.74 128.267 131.06C128.574 131.38 128.727 131.78 128.727 132.26C128.727 132.727 128.574 133.127 128.267 133.46C127.96 133.78 127.567 133.94 127.087 133.94Z" fill="#1B1B1B"/>
<path d="M131.922 145V134.44C131.922 133.653 132.095 132.947 132.442 132.32C132.802 131.68 133.302 131.18 133.942 130.82C134.582 130.447 135.342 130.26 136.222 130.26C136.888 130.26 137.468 130.373 137.962 130.6C138.468 130.813 138.908 131.113 139.282 131.5L137.362 133.42C137.228 133.287 137.075 133.187 136.902 133.12C136.742 133.04 136.548 133 136.322 133C135.908 133 135.582 133.12 135.342 133.36C135.102 133.6 134.982 133.927 134.982 134.34V145H131.922ZM129.782 137.88V135.28H137.782V137.88H129.782Z" fill="#1B1B1B"/>
<path d="M140.126 145V131.26H143.186V145H140.126ZM137.926 137.88V135.28H145.386V137.88H137.926Z" fill="#1B1B1B"/>
<path d="M112.465 103.505C114.353 92.4202 108.929 81.4659 99.3122 76.1003L107.666 45.4709L89.4591 40.5054L81.1056 71.1349C70.0933 70.8744 59.8589 77.5582 55.8613 88.0675C73.8105 96.1299 92.9106 101.339 112.465 103.505Z" fill="#82C6D1" stroke="#1B1B1B" stroke-width="3" stroke-miterlimit="10"/>
<path d="M110.663 108.815C91.6504 106.873 73.0656 101.89 55.6324 94.0483L54.2622 93.4329C44.654 120.21 33.4431 126.299 33.4431 126.299L39.9016 128.06C44.6119 126.572 51.1902 122.894 55.9479 113.818C55.9479 113.818 54.7125 123.721 47.5402 130.143L89.8439 141.681C89.8439 141.681 107.391 142.547 110.663 108.815Z" fill="white" stroke="#1B1B1B" stroke-width="3" stroke-miterlimit="10"/>
<path d="M41.1009 56.0778L45 31.5531L48.8991 56.0779C49.06 57.0898 49.8221 57.9011 50.822 58.1249L68.1332 62L50.822 65.8751C49.8221 66.0989 49.06 66.9102 48.8991 67.9222L45 92.4469L41.1009 67.9221C40.94 66.9102 40.1779 66.0989 39.178 65.8751L21.8668 62L39.178 58.1249C40.1779 57.9011 40.94 57.0898 41.1009 56.0778Z" fill="white" stroke="#1B1B1B" stroke-width="3"/>
<path d="M120.241 84.1942L123.5 63.5971L126.759 84.1942C126.919 85.206 127.681 86.0178 128.68 86.2425L143.164 89.5L128.68 92.7575C127.681 92.9822 126.919 93.794 126.759 94.8058L123.5 115.403L120.241 94.8058C120.081 93.794 119.319 92.9822 118.32 92.7575L103.836 89.5L118.32 86.2425C119.319 86.0178 120.081 85.206 120.241 84.1942Z" fill="white" stroke="#1B1B1B" stroke-width="3"/>
<path d="M17.9419 75.9189L18 75.5531L18.0581 75.9189C18.219 76.9308 18.9811 77.7421 19.981 77.9659L20.1332 78L19.981 78.0341C18.9811 78.2579 18.219 79.0692 18.0581 80.0811L18 80.4469L17.9419 80.0811C17.781 79.0692 17.0189 78.2579 16.019 78.0341L15.8668 78L16.019 77.9659C17.0189 77.7421 17.781 76.9308 17.9419 75.9189Z" fill="white" stroke="#1B1B1B" stroke-width="3"/>
<path d="M134.5 39.5531L134.833 41.6445C134.993 42.6564 135.755 43.4678 136.755 43.6916L138.133 44L136.755 44.3084C135.755 44.5322 134.993 45.3436 134.833 46.3555L134.5 48.4469L134.167 46.3555C134.007 45.3436 133.245 44.5322 132.245 44.3084L130.867 44L132.245 43.6916C133.245 43.4678 134.007 42.6564 134.167 41.6445L134.5 39.5531Z" fill="white" stroke="#1B1B1B" stroke-width="3"/>
<path d="M65.9419 39.9189L66 39.5531L66.0581 39.9189C66.219 40.9308 66.9811 41.7421 67.981 41.9659L68.1332 42L67.981 42.0341C66.9811 42.2579 66.219 43.0692 66.0581 44.0811L66 44.4469L65.9419 44.0811C65.781 43.0692 65.0189 42.2579 64.019 42.0341L63.8668 42L64.019 41.9659C65.0189 41.7421 65.781 40.9308 65.9419 39.9189Z" fill="white" stroke="#1B1B1B" stroke-width="3"/>
<path d="M149.942 103.919L150 103.553L150.058 103.919C150.219 104.931 150.981 105.742 151.981 105.966L152.133 106L151.981 106.034C150.981 106.258 150.219 107.069 150.058 108.081L150 108.447L149.942 108.081C149.781 107.069 149.019 106.258 148.019 106.034L147.867 106L148.019 105.966C149.019 105.742 149.781 104.931 149.942 103.919Z" fill="white" stroke="#1B1B1B" stroke-width="3"/>
<path d="M25 39.8941C33.2257 39.8941 39.8941 33.2258 39.8941 25C39.8941 16.7742 33.2257 10.1059 25 10.1059C16.7742 10.1059 10.1058 16.7742 10.1058 25C10.1058 33.2258 16.7742 39.8941 25 39.8941Z" fill="#82C6D1" stroke="#1B1B1B" stroke-width="3" stroke-miterlimit="10"/>
<path d="M31.343 18H26.6568C26.294 18 25.9999 18.2941 25.9999 18.6569V23.3432C25.9999 23.7059 26.294 24 26.6568 24H31.343C31.7058 24 31.9999 23.7059 31.9999 23.3432V18.6569C31.9999 18.2941 31.7058 18 31.343 18Z" fill="white"/>
<path d="M20.5448 18.1483L17.1625 23.4727C17.0219 23.6942 17.1731 23.9905 17.4263 23.9905H24.1909C24.4442 23.9905 24.5954 23.6942 24.4548 23.4727L21.0725 18.1483C20.9466 17.9507 20.6701 17.9507 20.5448 18.1483Z" fill="white"/>
<path d="M31.8009 26H17.2C17.0899 26 16.9999 26.096 16.9999 26.2145V31.7856C16.9999 31.9041 17.0893 32 17.2 32H22.575C22.6996 32 22.8005 31.9041 22.8005 31.7856V30.1971C22.8005 29.3047 23.5614 28.5813 24.4999 28.5813C25.4384 28.5813 26.1992 29.3047 26.1992 30.1971V31.7856C26.1992 31.9041 26.3002 32 26.4248 32H31.7997C31.9099 32 31.9999 31.9041 31.9999 31.7856V26.2145C31.9999 26.096 31.9105 26 31.7997 26H31.8009Z" fill="white"/>
</svg>
