<svg width="80" height="80" viewBox="0 0 80 80" fill="none" xmlns="http://www.w3.org/2000/svg">
<path d="M70.0732 12.6423H46.9511C46.2416 12.6423 45.6665 13.2174 45.6665 13.9268V37.0489C45.6665 37.7584 46.2416 38.3335 46.9511 38.3335H70.0732C70.7826 38.3335 71.3577 37.7584 71.3577 37.0489V13.9268C71.3577 13.2174 70.7826 12.6423 70.0732 12.6423Z" fill="#1B1B1B" fill-opacity="0.2"/>
<path d="M8.96498 38.3319C8.90715 38.3316 8.85048 38.3157 8.80094 38.2858C8.7514 38.256 8.71083 38.2133 8.68353 38.1623C8.65623 38.1114 8.64322 38.0539 8.64584 37.9962C8.64846 37.9384 8.66664 37.8824 8.69845 37.8341L25.3977 12.7852C25.4271 12.7415 25.4668 12.7056 25.5132 12.6809C25.5597 12.6561 25.6116 12.6432 25.6643 12.6432C25.7169 12.6432 25.7688 12.6561 25.8153 12.6809C25.8618 12.7056 25.9014 12.7415 25.9308 12.7852L42.6301 37.8341C42.662 37.8825 42.6802 37.9387 42.6827 37.9966C42.6853 38.0545 42.6721 38.112 42.6446 38.163C42.6171 38.2141 42.5763 38.2567 42.5266 38.2864C42.4768 38.3162 42.4199 38.3319 42.3619 38.3319H8.96498Z" fill="#1B1B1B" fill-opacity="0.2"/>
<path d="M48.2131 68.7808C48.128 68.7808 48.0463 68.7469 47.9861 68.6867C47.9258 68.6265 47.892 68.5448 47.892 68.4596V61.3319C47.892 59.2388 47.0605 57.2315 45.5805 55.7514C44.1004 54.2714 42.0931 53.4399 40 53.4399C37.9069 53.4399 35.8995 54.2714 34.4195 55.7514C32.9394 57.2315 32.108 59.2388 32.108 61.3319V68.4596C32.108 68.5448 32.0741 68.6265 32.0139 68.6867C31.9537 68.7469 31.872 68.7808 31.7868 68.7808H8.84939C8.74984 68.7808 8.63904 68.6427 8.63904 68.4596V43.4637C8.63904 43.279 8.74984 43.1425 8.84939 43.1425H71.1505C71.2501 43.1425 71.3609 43.279 71.3609 43.4637V68.4596C71.3609 68.6427 71.2501 68.7808 71.1505 68.7808H48.2131Z" fill="#1B1B1B" fill-opacity="0.2"/>
</svg>
