<svg width="240" height="240" viewBox="0 0 240 240" fill="none" xmlns="http://www.w3.org/2000/svg">
<path d="M33 33H229V229H33V33Z" fill="#F8FAFF"/>
<path fill-rule="evenodd" clip-rule="evenodd" d="M227 35H35V227H227V35ZM33 33V229H229V33H33Z" fill="#1B1B1B"/>
<path d="M133.267 129.06C130.305 134.419 128.992 140.263 129.151 145.983C127.732 143.568 126.63 140.977 125.863 138.306L125.792 138.227C128.728 135.724 131.275 132.648 133.258 129.069L133.267 129.06Z" fill="#82C6D1"/>
<path d="M136.122 103.967L136.14 103.985C133.214 106.479 130.675 109.546 128.701 113.125C131.662 107.766 132.976 101.931 132.808 96.202C132.738 93.5579 132.35 90.9489 131.662 88.4105C133.108 91.4249 135.382 101.376 136.122 103.967Z" fill="#82C6D1"/>
<path d="M190.513 128.426C191.932 130.85 193.034 133.432 193.8 136.112C196.136 144.264 195.369 153.299 190.971 161.293C182.157 177.273 162.097 183.019 146.161 174.117C138.22 169.684 132.808 162.448 130.464 154.339L125.88 138.315C126.647 140.994 127.749 143.577 129.168 145.992C132.059 150.937 136.263 155.194 141.613 158.182C157.549 167.084 177.609 161.346 186.423 145.357C189.376 139.99 190.698 134.155 190.53 128.435L190.513 128.426Z" fill="#82C6D1"/>
<path d="M131.662 88.4106C132.35 90.9402 132.738 93.5579 132.808 96.2021C129.917 91.2575 125.713 87.0004 120.363 84.0125C104.427 75.1104 84.3669 80.8483 75.553 96.8367C72.5915 102.196 71.2782 108.039 71.4457 113.759C70.0266 111.336 68.9249 108.753 68.1581 106.074C65.84 97.9208 66.598 88.8777 71.005 80.8923C79.8189 64.9127 99.8794 59.1748 115.815 68.0769C123.783 72.5279 129.203 79.7906 131.539 87.9435C131.583 88.1021 131.627 88.2519 131.671 88.4106L131.662 88.4106Z" fill="#82C6D1"/>
<path d="M189.235 120.176C190.002 122.855 190.434 125.623 190.513 128.426C187.622 123.481 183.418 119.224 178.076 116.236C162.141 107.334 142.08 113.072 133.266 129.06C131.292 132.648 128.736 135.724 125.801 138.218C115.647 146.873 100.814 148.777 88.4565 141.876C81.4847 137.98 76.4608 131.925 73.7461 125.015L72.1067 119.444C71.7277 117.576 71.5074 115.663 71.4545 113.751C74.3454 118.695 78.5497 122.952 83.8909 125.94C99.8265 134.842 119.887 129.104 128.701 113.116C130.675 109.537 133.214 106.479 136.14 103.976C146.293 95.2942 161.145 93.3816 173.511 100.292C181.479 104.743 186.899 112.014 189.235 120.167L189.235 120.176Z" fill="#C7E8EF"/>
<path d="M194.647 135.882L194.647 135.865L190.099 119.973L190.099 119.947C187.604 111.212 181.866 103.967 173.96 99.5426C162.079 92.9057 147.272 94.1308 136.66 102.478C136.519 101.931 136.351 101.288 136.175 100.574C135.161 96.5635 133.645 90.5436 132.526 88.1374C132.491 88.0052 132.456 87.8818 132.412 87.7143C129.908 78.9797 124.179 71.7347 116.273 67.3189C108.341 62.8943 99.1919 61.8278 90.5013 64.3134C81.8108 66.7989 74.6186 72.5456 70.2381 80.4781C65.8664 88.4106 64.8352 97.5947 67.3383 106.329L71.2694 119.674C71.6572 121.604 72.2213 123.516 72.944 125.359C75.8173 132.692 81.1762 138.835 88.0422 142.669C93.1631 145.534 98.8393 146.935 104.489 146.935C111.937 146.935 119.34 144.494 125.378 139.734L129.626 154.586C132.138 163.285 137.867 170.495 145.747 174.893C150.859 177.748 156.491 179.203 162.185 179.203C165.296 179.203 168.425 178.771 171.492 177.89C180.183 175.404 187.375 169.666 191.756 161.725C196.127 153.792 197.167 144.617 194.664 135.882L194.647 135.882ZM134.042 129.501C138.193 121.974 145.015 116.536 153.248 114.183C161.48 111.829 170.144 112.834 177.645 117.029C182.607 119.797 186.741 123.834 189.631 128.699C189.755 134.358 188.38 139.972 185.63 144.943C181.479 152.461 174.665 157.908 166.424 160.262C158.183 162.615 149.519 161.61 142.019 157.415C137.056 154.638 132.923 150.61 130.032 145.745C129.908 140.087 131.292 134.472 134.033 129.501L134.042 129.501ZM133.69 98.0354C133.963 99.0843 134.218 100.098 134.448 101.006C134.721 102.099 134.959 103.033 135.144 103.712C134.183 104.567 133.266 105.466 132.412 106.417C133.187 103.694 133.619 100.873 133.698 98.0354L133.69 98.0354ZM130.834 88.7367C131.195 90.0941 131.468 91.4779 131.654 92.8705C128.78 88.9394 125.087 85.643 120.804 83.2545C112.889 78.8299 103.749 77.7722 95.0581 80.2577C86.3676 82.7433 79.1754 88.4811 74.7949 96.4225C72.4328 100.715 71.0314 105.457 70.67 110.304C70.0178 108.859 69.4537 107.378 69.0218 105.845C66.6509 97.5595 67.6292 88.8513 71.7806 81.333C75.9319 73.8059 82.7539 68.3678 90.9861 66.0056C99.2183 63.6523 107.891 64.6571 115.392 68.8525C122.892 73.0391 128.331 79.914 130.702 88.1903L130.834 88.7367ZM76.3462 97.2686C80.4975 89.7415 87.3195 84.3033 95.5517 81.95C103.784 79.5967 112.457 80.6015 119.957 84.7969C124.92 87.5645 129.053 91.6013 131.944 96.4665C132.068 102.125 130.693 107.731 127.952 112.702C123.8 120.238 116.978 125.676 108.746 128.038C100.514 130.391 91.841 129.387 84.3404 125.191C79.3782 122.424 75.2444 118.387 72.3535 113.521C72.2301 107.863 73.605 102.248 76.355 97.2774L76.3462 97.2686ZM125.237 137.566C115.127 146.186 100.523 147.623 88.8972 141.127C82.4013 137.495 77.3245 131.678 74.5922 124.742L72.9793 119.251C72.8382 118.537 72.7236 117.823 72.6267 117.109C75.5 121.04 79.1931 124.336 83.4766 126.725C88.5887 129.58 94.2208 131.035 99.9146 131.035C103.026 131.035 106.155 130.603 109.231 129.721C117.921 127.236 125.114 121.498 129.494 113.557C131.371 110.155 133.804 107.158 136.73 104.663C146.84 96.017 161.453 94.5804 173.097 101.076C180.597 105.272 186.035 112.138 188.406 120.423C188.847 121.948 189.156 123.508 189.358 125.077C186.485 121.154 182.792 117.867 178.517 115.478C170.602 111.062 161.462 109.996 152.772 112.481C144.081 114.967 136.88 120.705 132.508 128.646C130.622 132.066 128.181 135.063 125.246 137.566L125.237 137.566ZM129.582 135.768C128.956 137.98 128.551 140.245 128.375 142.537C127.784 141.224 127.264 139.866 126.85 138.482C127.811 137.628 128.718 136.72 129.582 135.768ZM190.196 160.879C186.044 168.406 179.222 173.844 170.99 176.197C162.758 178.551 154.085 177.546 146.584 173.35C139.119 169.181 133.69 162.342 131.301 154.092L129.706 148.504C132.658 152.805 136.581 156.392 141.173 158.957C149.087 163.373 158.227 164.439 166.918 161.954C175.609 159.468 182.801 153.731 187.181 145.789C189.552 141.497 190.936 136.746 191.297 131.898C191.95 133.335 192.514 134.825 192.946 136.35L192.946 136.367C195.325 144.652 194.338 153.352 190.196 160.879Z" fill="#1B1B1B"/>
<path d="M10 10H153V47H10V10Z" fill="#1B1B1B"/>
<path d="M153 10H66V47H153V10Z" fill="#73C92D"/>
<path fill-rule="evenodd" clip-rule="evenodd" d="M151 12H68V45H151V12ZM153 10V47H66V10H153Z" fill="#1B1B1B"/>
<path d="M76 27.101V24.9448H82.2195V27.101H76ZM77.8194 32.9358V21.6388H80.3893V32.9358H77.8194Z" fill="#1B1B1B"/>
<path d="M87.0731 33.1169C86.2255 33.1169 85.4697 32.9305 84.8056 32.5579C84.1361 32.1852 83.6125 31.6795 83.2183 31.0459C82.8296 30.4124 82.6353 29.699 82.6353 28.9058C82.6353 28.1125 82.8296 27.4258 83.2129 26.8029C83.5963 26.18 84.1199 25.6796 84.7894 25.3123C85.4589 24.9449 86.2201 24.7639 87.0731 24.7639C87.9262 24.7639 88.6604 24.9449 89.3353 25.3069C90.0101 25.669 90.5392 26.1641 90.9279 26.7976C91.3166 27.4258 91.511 28.1338 91.511 28.9111C91.511 29.6884 91.3166 30.4284 90.9279 31.0566C90.5392 31.6848 90.0101 32.1905 89.3461 32.5632C88.682 32.9359 87.9208 33.1222 87.0785 33.1222L87.0731 33.1169ZM87.0731 30.817C87.4295 30.817 87.7426 30.7425 88.0233 30.5881C88.3041 30.4337 88.5146 30.2101 88.6658 29.9226C88.817 29.6298 88.8925 29.2997 88.8925 28.9271C88.8925 28.5544 88.817 28.2456 88.6604 27.9635C88.5038 27.6813 88.2933 27.4631 88.0179 27.3033C87.7426 27.1436 87.4295 27.0638 87.0785 27.0638C86.7276 27.0638 86.4037 27.1436 86.1283 27.3033C85.8476 27.4631 85.6316 27.6866 85.4751 27.9688C85.3185 28.251 85.2429 28.5704 85.2429 28.9218C85.2429 29.2944 85.3185 29.6245 85.4751 29.9173C85.6316 30.2101 85.8476 30.4284 86.1283 30.5828C86.4037 30.7372 86.7222 30.8117 87.0785 30.8117L87.0731 30.817Z" fill="#1B1B1B"/>
<path d="M96.0784 32.691C95.3334 32.691 94.6693 32.5153 94.0916 32.1639C93.514 31.8126 93.0551 31.3388 92.7257 30.7318C92.391 30.1303 92.2236 29.4595 92.2236 28.7248C92.2236 27.9901 92.391 27.2927 92.7257 26.7018C93.0605 26.1108 93.5194 25.6424 94.1024 25.2963C94.6855 24.9503 95.3442 24.7799 96.0784 24.7799C96.6345 24.7799 97.1312 24.8811 97.5685 25.0834C98.0058 25.2857 98.3621 25.5731 98.6375 25.9405C98.9074 26.3078 99.064 26.7337 99.0964 27.2129V30.2527C99.064 30.7265 98.9074 31.1418 98.6375 31.5091C98.3621 31.8765 98.0112 32.1639 97.5685 32.3716C97.1312 32.5792 96.6345 32.6857 96.0784 32.6857V32.691ZM96.1972 36.5241C95.3172 36.5241 94.5451 36.375 93.8703 36.0716C93.2008 35.7681 92.6663 35.3475 92.2776 34.7992L93.8595 33.2553C94.151 33.596 94.475 33.8516 94.8367 34.0272C95.1984 34.2029 95.6249 34.2881 96.1108 34.2881C96.7425 34.2881 97.2446 34.1337 97.6009 33.8303C97.9572 33.5268 98.1408 33.0849 98.1408 32.5153V30.4923L98.5727 28.7514L98.1894 27.0106V24.9556H100.711V32.4514C100.711 33.2713 100.516 33.99 100.128 34.6075C99.7389 35.2198 99.2044 35.6936 98.5187 36.029C97.8331 36.3644 97.061 36.5294 96.1918 36.5294L96.1972 36.5241ZM96.5643 30.455C96.9207 30.455 97.2284 30.3805 97.4875 30.2261C97.7467 30.0717 97.9464 29.8694 98.0868 29.6085C98.2272 29.353 98.2974 29.0549 98.2974 28.7142C98.2974 28.4054 98.2272 28.1232 98.0868 27.857C97.9464 27.5962 97.7521 27.3885 97.4929 27.2342C97.2392 27.0798 96.9315 27.0052 96.5751 27.0052C96.2188 27.0052 95.9273 27.0798 95.6573 27.2342C95.3928 27.3885 95.1876 27.5962 95.0418 27.857C94.8961 28.1179 94.8259 28.4107 94.8259 28.7301C94.8259 29.0495 94.9015 29.3264 95.0526 29.5926C95.2038 29.8588 95.4036 30.0717 95.6627 30.2261C95.9219 30.3805 96.2188 30.455 96.5643 30.455Z" fill="#1B1B1B"/>
<path d="M106.482 33.1168C105.602 33.1168 104.825 32.9411 104.15 32.5844C103.469 32.2278 102.94 31.7326 102.546 31.0938C102.157 30.4603 101.963 29.7362 101.963 28.9217C101.963 28.1072 102.152 27.4204 102.53 26.7922C102.908 26.164 103.426 25.6636 104.079 25.3016C104.733 24.9396 105.472 24.7585 106.298 24.7585C107.124 24.7585 107.821 24.9289 108.431 25.2696C109.041 25.6103 109.527 26.0788 109.883 26.6857C110.24 27.2926 110.418 27.9794 110.418 28.7567C110.418 28.9111 110.407 29.0655 110.391 29.2252C110.375 29.3849 110.337 29.5606 110.283 29.7575L103.313 29.7895V28.0486L109.181 28.0167L108.08 28.7567C108.069 28.3095 107.999 27.9315 107.864 27.628C107.729 27.3246 107.535 27.0957 107.27 26.9306C107.006 26.7656 106.693 26.6857 106.331 26.6857C105.931 26.6857 105.586 26.7816 105.289 26.9679C104.992 27.1542 104.765 27.4098 104.603 27.7398C104.441 28.0699 104.36 28.4639 104.36 28.9217C104.36 29.3796 104.447 29.7842 104.619 30.1249C104.792 30.4656 105.035 30.7265 105.354 30.9075C105.672 31.0885 106.045 31.179 106.477 31.179C106.865 31.179 107.222 31.1098 107.546 30.9714C107.87 30.8329 108.15 30.6306 108.399 30.3538L109.813 31.7326C109.414 32.2065 108.928 32.5525 108.361 32.7761C107.794 32.9997 107.168 33.1115 106.477 33.1115L106.482 33.1168Z" fill="#1B1B1B"/>
<path d="M110.785 27.101V24.9448H117.004V27.101H110.785ZM112.604 32.9358V21.6388H115.174V32.9358H112.604Z" fill="#1B1B1B"/>
<path d="M118.106 32.9358V21H120.676V32.9358H118.106ZM123.478 32.9358V28.3787C123.478 27.9741 123.343 27.644 123.078 27.3832C122.814 27.1223 122.479 26.9945 122.079 26.9945C121.809 26.9945 121.572 27.0531 121.361 27.1649C121.151 27.282 120.983 27.4417 120.865 27.6494C120.74 27.857 120.681 28.0965 120.681 28.3734L119.699 27.8996C119.699 27.2767 119.833 26.7283 120.109 26.2545C120.379 25.786 120.757 25.4187 121.232 25.1632C121.707 24.9076 122.258 24.7745 122.868 24.7745C123.478 24.7745 124.055 24.9023 124.536 25.1632C125.016 25.424 125.389 25.7754 125.653 26.2332C125.923 26.6858 126.053 27.2181 126.053 27.8197V32.9358H123.483H123.478Z" fill="#1B1B1B"/>
<path d="M131.641 33.1168C130.761 33.1168 129.983 32.9411 129.308 32.5844C128.628 32.2278 128.099 31.7326 127.705 31.0938C127.316 30.4603 127.122 29.7362 127.122 28.9217C127.122 28.1072 127.311 27.4204 127.689 26.7922C128.067 26.164 128.585 25.6636 129.238 25.3016C129.892 24.9396 130.631 24.7585 131.457 24.7585C132.283 24.7585 132.98 24.9289 133.59 25.2696C134.2 25.6103 134.686 26.0788 135.042 26.6857C135.398 27.2926 135.577 27.9794 135.577 28.7567C135.577 28.9111 135.566 29.0655 135.55 29.2252C135.533 29.3849 135.496 29.5606 135.442 29.7575L128.472 29.7895V28.0486L134.34 28.0167L133.239 28.7567C133.228 28.3095 133.158 27.9315 133.023 27.628C132.888 27.3246 132.694 27.0957 132.429 26.9306C132.164 26.7656 131.851 26.6857 131.49 26.6857C131.09 26.6857 130.745 26.7816 130.448 26.9679C130.151 27.1542 129.924 27.4098 129.762 27.7398C129.6 28.0699 129.519 28.4639 129.519 28.9217C129.519 29.3796 129.605 29.7842 129.778 30.1249C129.951 30.4656 130.194 30.7265 130.512 30.9075C130.831 31.0885 131.203 31.179 131.635 31.179C132.024 31.179 132.38 31.1098 132.704 30.9714C133.028 30.8329 133.309 30.6306 133.557 30.3538L134.972 31.7326C134.572 32.2065 134.086 32.5525 133.52 32.7761C132.953 32.9997 132.326 33.1115 131.635 33.1115L131.641 33.1168Z" fill="#1B1B1B"/>
<path d="M136.781 32.9359V24.9449H139.35V32.9359H136.781ZM139.35 28.5598L138.281 27.7399C138.492 26.7976 138.854 26.0683 139.356 25.5518C139.863 25.0354 140.554 24.7799 141.434 24.7799C141.823 24.7799 142.163 24.8385 142.46 24.9503C142.757 25.0621 143.016 25.2377 143.238 25.4667L141.72 27.3726C141.618 27.2661 141.488 27.1756 141.321 27.1117C141.154 27.0478 140.965 27.0159 140.754 27.0159C140.322 27.0159 139.977 27.1436 139.728 27.4045C139.48 27.6654 139.356 28.0487 139.356 28.5651L139.35 28.5598Z" fill="#1B1B1B"/>
<path d="M25.4541 32.8549C24.6118 32.8549 23.8452 32.6738 23.1703 32.3118C22.4901 31.9498 21.961 31.4494 21.5777 30.8159C21.1944 30.1823 21 29.469 21 28.6757C21 27.8825 21.1944 27.1585 21.5831 26.5303C21.9718 25.902 22.5063 25.4016 23.1865 25.0396C23.8668 24.6776 24.628 24.4966 25.4703 24.4966C26.1127 24.4966 26.7012 24.6031 27.2303 24.816C27.7594 25.029 28.2291 25.3431 28.6394 25.7636L26.9874 27.4087C26.7984 27.201 26.577 27.0467 26.3287 26.9508C26.0803 26.8497 25.7942 26.8018 25.4703 26.8018C25.1139 26.8018 24.7954 26.8816 24.5093 27.0413C24.2231 27.201 24.0018 27.4193 23.8398 27.7015C23.6778 27.9836 23.5969 28.3031 23.5969 28.6651C23.5969 29.0271 23.6778 29.3678 23.8398 29.65C24.0018 29.9374 24.2285 30.1557 24.5147 30.3154C24.8062 30.4751 25.1193 30.555 25.4649 30.555C25.8104 30.555 26.0965 30.5018 26.3557 30.39C26.6148 30.2782 26.8416 30.1238 27.0305 29.9108L28.6826 31.5239C28.2507 31.9605 27.7702 32.2959 27.2411 32.5195C26.712 32.7431 26.1181 32.8549 25.4487 32.8549H25.4541Z" fill="#FAFAFA"/>
<path d="M33.5092 32.8548C32.6615 32.8548 31.9057 32.6685 31.2416 32.2958C30.5722 31.9231 30.0485 31.4174 29.6544 30.7838C29.2656 30.1503 29.0713 29.4369 29.0713 28.6437C29.0713 27.8505 29.2656 27.1637 29.649 26.5408C30.0323 25.9179 30.556 25.4175 31.2254 25.0502C31.8949 24.6828 32.6561 24.5018 33.5092 24.5018C34.3622 24.5018 35.0964 24.6828 35.7713 25.0449C36.4462 25.4069 36.9752 25.902 37.364 26.5355C37.7527 27.1637 37.947 27.8718 37.947 28.649C37.947 29.4263 37.7527 30.1663 37.364 30.7945C36.9752 31.4227 36.4462 31.9284 35.7821 32.3011C35.118 32.6738 34.3568 32.8601 33.5146 32.8601L33.5092 32.8548ZM33.5092 30.5549C33.8655 30.5549 34.1786 30.4804 34.4594 30.326C34.7401 30.1716 34.9507 29.948 35.1018 29.6605C35.253 29.3677 35.3286 29.0377 35.3286 28.665C35.3286 28.2923 35.253 27.9836 35.0964 27.7014C34.9399 27.4192 34.7293 27.201 34.454 27.0413C34.1786 26.8815 33.8655 26.8017 33.5146 26.8017C33.1636 26.8017 32.8397 26.8815 32.5644 27.0413C32.2836 27.201 32.0677 27.4246 31.9111 27.7067C31.7545 27.9889 31.6789 28.3083 31.6789 28.6597C31.6789 29.0323 31.7545 29.3624 31.9111 29.6552C32.0677 29.948 32.2836 30.1663 32.5644 30.3207C32.8397 30.4751 33.1582 30.5496 33.5146 30.5496L33.5092 30.5549Z" fill="#FAFAFA"/>
<path d="M42.6657 32.8389C41.8883 32.8389 41.2026 32.6578 40.6087 32.2958C40.0149 31.9338 39.5506 31.4387 39.2158 30.8158C38.8811 30.193 38.7137 29.4796 38.7137 28.6757C38.7137 27.8718 38.8811 27.1637 39.2158 26.5355C39.5506 25.9127 40.0149 25.4176 40.6141 25.0555C41.2134 24.6935 41.8991 24.5125 42.6657 24.5125C43.211 24.5125 43.7131 24.6137 44.1666 24.816C44.6201 25.0183 44.9926 25.3058 45.2842 25.6731C45.5757 26.0404 45.7377 26.4663 45.7863 26.9455V30.3154C45.7431 30.7839 45.5757 31.2098 45.2842 31.5878C44.9926 31.9658 44.6255 32.2692 44.1666 32.4928C43.7077 32.7164 43.211 32.8282 42.6657 32.8282V32.8389ZM43.1138 30.555C43.481 30.555 43.7995 30.4751 44.064 30.3154C44.334 30.1557 44.5391 29.9321 44.6903 29.6499C44.8415 29.3624 44.9171 29.0377 44.9171 28.665C44.9171 28.2924 44.8415 27.9836 44.6903 27.7014C44.5391 27.4193 44.334 27.201 44.064 27.0413C43.7995 26.8816 43.4864 26.8017 43.13 26.8017C42.7737 26.8017 42.466 26.8816 42.196 27.0466C41.9261 27.2117 41.7155 27.4353 41.5536 27.7121C41.3916 27.9942 41.3106 28.3137 41.3106 28.6757C41.3106 29.0377 41.3862 29.3625 41.5374 29.6446C41.6885 29.9321 41.8991 30.1504 42.1798 30.3101C42.4552 30.4698 42.7683 30.5496 43.1138 30.5496V30.555ZM47.3304 32.6738H44.8091V30.5177L45.1924 28.5586L44.7605 26.6367V20.7327H47.3304V32.6685V32.6738Z" fill="#FAFAFA"/>
<path d="M53.1179 32.8549C52.2378 32.8549 51.4604 32.6792 50.7855 32.3225C50.1053 31.9658 49.5762 31.4707 49.1821 30.8318C48.7934 30.1983 48.599 29.4743 48.599 28.6597C48.599 27.8452 48.788 27.1585 49.1659 26.5303C49.5438 25.902 50.0621 25.4016 50.7154 25.0396C51.3686 24.6776 52.1083 24.4966 52.9343 24.4966C53.7603 24.4966 54.4568 24.6669 55.0668 25.0077C55.6769 25.3484 56.1628 25.8169 56.5191 26.4238C56.8755 27.0307 57.0536 27.7174 57.0536 28.4947C57.0536 28.6491 57.0428 28.8035 57.0266 28.9632C57.0104 29.1229 56.9727 29.2986 56.9187 29.4956L49.9487 29.5275V27.7867L55.8173 27.7547L54.7159 28.4947C54.7051 28.0475 54.6349 27.6695 54.5 27.3661C54.365 27.0626 54.1706 26.8337 53.9061 26.6687C53.6415 26.5036 53.3284 26.4238 52.9667 26.4238C52.5672 26.4238 52.2216 26.5196 51.9247 26.7059C51.6278 26.8923 51.401 27.1478 51.239 27.4779C51.0771 27.808 50.9961 28.2019 50.9961 28.6597C50.9961 29.1176 51.0825 29.5222 51.2552 29.8629C51.428 30.2036 51.671 30.4645 51.9895 30.6455C52.308 30.8265 52.6805 30.917 53.1125 30.917C53.5012 30.917 53.8575 30.8478 54.1814 30.7094C54.5054 30.571 54.7861 30.3687 55.0345 30.0918L56.449 31.4707C56.0494 31.9445 55.5635 32.2905 54.9967 32.5141C54.4298 32.7377 53.8035 32.8495 53.1125 32.8495L53.1179 32.8549Z" fill="#FAFAFA"/>
<rect x="34" y="196" width="194" height="32" fill="#8AD953" stroke="#1B1B1B" stroke-width="2"/>
<path d="M108.76 214.86V212.42H111.8C112.187 212.42 112.54 212.34 112.86 212.18C113.18 212.02 113.433 211.787 113.62 211.48C113.807 211.173 113.9 210.8 113.9 210.36C113.9 209.933 113.807 209.567 113.62 209.26C113.433 208.953 113.18 208.72 112.86 208.56C112.54 208.4 112.187 208.32 111.8 208.32H108.76V205.88H112.26C113.153 205.88 113.96 206.06 114.68 206.42C115.4 206.78 115.967 207.3 116.38 207.98C116.807 208.647 117.02 209.44 117.02 210.36C117.02 211.28 116.807 212.08 116.38 212.76C115.967 213.427 115.4 213.947 114.68 214.32C113.96 214.68 113.153 214.86 112.26 214.86H108.76ZM106.36 220V205.88H109.5V220H106.36ZM122.208 220.2C121.315 220.2 120.515 219.98 119.808 219.54C119.115 219.1 118.562 218.5 118.148 217.74C117.748 216.98 117.548 216.113 117.548 215.14C117.548 214.167 117.748 213.3 118.148 212.54C118.562 211.78 119.115 211.18 119.808 210.74C120.515 210.3 121.315 210.08 122.208 210.08C122.862 210.08 123.448 210.207 123.968 210.46C124.502 210.713 124.935 211.067 125.268 211.52C125.602 211.96 125.788 212.467 125.828 213.04V217.24C125.788 217.813 125.602 218.327 125.268 218.78C124.948 219.22 124.522 219.567 123.988 219.82C123.455 220.073 122.862 220.2 122.208 220.2ZM122.828 217.44C123.482 217.44 124.008 217.227 124.408 216.8C124.808 216.36 125.008 215.807 125.008 215.14C125.008 214.687 124.915 214.287 124.728 213.94C124.555 213.593 124.302 213.327 123.968 213.14C123.648 212.94 123.275 212.84 122.848 212.84C122.422 212.84 122.042 212.94 121.708 213.14C121.388 213.327 121.128 213.593 120.928 213.94C120.742 214.287 120.648 214.687 120.648 215.14C120.648 215.58 120.742 215.973 120.928 216.32C121.115 216.667 121.375 216.94 121.708 217.14C122.042 217.34 122.415 217.44 122.828 217.44ZM124.888 220V217.38L125.348 215.02L124.888 212.66V210.28H127.888V220H124.888ZM129.963 220V210.28H133.023V220H129.963ZM133.023 214.66L131.743 213.66C131.996 212.527 132.423 211.647 133.023 211.02C133.623 210.393 134.456 210.08 135.523 210.08C135.99 210.08 136.396 210.153 136.743 210.3C137.103 210.433 137.416 210.647 137.683 210.94L135.863 213.24C135.73 213.093 135.563 212.98 135.363 212.9C135.163 212.82 134.936 212.78 134.683 212.78C134.176 212.78 133.77 212.94 133.463 213.26C133.17 213.567 133.023 214.033 133.023 214.66ZM139.896 220V206.26H142.956V220H139.896ZM137.696 212.88V210.28H145.156V212.88H137.696ZM152.193 220V205.88H155.313V220H152.193ZM149.473 208.54V205.88H155.113V208.54H149.473Z" fill="#1B1B1B"/>
</svg>
