<svg width="240" height="240" viewBox="0 0 240 240" fill="none" xmlns="http://www.w3.org/2000/svg">
<path d="M34 228.791V34H228.791V228.791H34Z" fill="#F8FAFF" stroke="#1B1B1B" stroke-width="2" stroke-miterlimit="10"/>
<path d="M139.905 123.06L139.857 184.341C139.857 184.341 143.242 214.319 111.33 214.319C96.8869 214.319 88.8799 206.196 84.446 197.309L99.2417 188.209C99.2417 188.209 103.854 198.522 112.205 197.608C118.582 196.912 121 194.011 121.483 182.407L121.3 123.06H139.905Z" fill="#1B1B1B"/>
<path d="M194.495 146.143L209 136.956C209 136.956 202.685 125.124 191.821 123.06C180.956 121 171.286 121.967 162.583 129.22C153.879 136.473 154.363 151.462 157.747 158.231C161.132 165 168.385 170.319 176.605 173.703C184.824 177.088 192.077 180.473 194.495 183.857C196.912 187.242 196.429 195.945 187.242 197.396C178.055 198.846 170.319 195.462 165 186.758L149.528 195.462C149.528 195.462 159.681 216.253 187.242 213.835C187.242 213.835 214.802 214.319 214.319 186.275C214.319 186.275 215.286 170.802 196.429 162.582C177.572 154.363 171.769 152.429 174.187 143.242C176.605 134.055 192.077 137.923 194.495 146.143Z" fill="#1B1B1B"/>
<rect x="10" y="10" width="143" height="37" fill="#1B1B1B"/>
<path d="M67 46V11H152V46H67Z" fill="#73C92D" stroke="#1B1B1B" stroke-width="2"/>
<path d="M76 27.101V24.9448H82.2195V27.101H76ZM77.8194 32.9358V21.6388H80.3893V32.9358H77.8194Z" fill="#1B1B1B"/>
<path d="M87.0731 33.1169C86.2255 33.1169 85.4697 32.9305 84.8056 32.5579C84.1361 32.1852 83.6125 31.6795 83.2183 31.0459C82.8296 30.4124 82.6353 29.699 82.6353 28.9058C82.6353 28.1125 82.8296 27.4258 83.2129 26.8029C83.5963 26.18 84.1199 25.6796 84.7894 25.3123C85.4589 24.9449 86.2201 24.7639 87.0731 24.7639C87.9262 24.7639 88.6604 24.9449 89.3353 25.3069C90.0101 25.669 90.5392 26.1641 90.9279 26.7976C91.3166 27.4258 91.511 28.1338 91.511 28.9111C91.511 29.6884 91.3166 30.4284 90.9279 31.0566C90.5392 31.6848 90.0101 32.1905 89.3461 32.5632C88.682 32.9359 87.9208 33.1222 87.0785 33.1222L87.0731 33.1169ZM87.0731 30.817C87.4295 30.817 87.7426 30.7425 88.0233 30.5881C88.3041 30.4337 88.5146 30.2101 88.6658 29.9226C88.817 29.6298 88.8925 29.2997 88.8925 28.9271C88.8925 28.5544 88.817 28.2456 88.6604 27.9635C88.5038 27.6813 88.2933 27.4631 88.0179 27.3033C87.7426 27.1436 87.4295 27.0638 87.0785 27.0638C86.7276 27.0638 86.4037 27.1436 86.1283 27.3033C85.8476 27.4631 85.6316 27.6866 85.4751 27.9688C85.3185 28.251 85.2429 28.5704 85.2429 28.9218C85.2429 29.2944 85.3185 29.6245 85.4751 29.9173C85.6316 30.2101 85.8476 30.4284 86.1283 30.5828C86.4037 30.7372 86.7222 30.8117 87.0785 30.8117L87.0731 30.817Z" fill="#1B1B1B"/>
<path d="M96.0784 32.691C95.3334 32.691 94.6693 32.5153 94.0916 32.1639C93.514 31.8126 93.0551 31.3388 92.7257 30.7318C92.391 30.1303 92.2236 29.4595 92.2236 28.7248C92.2236 27.9901 92.391 27.2927 92.7257 26.7018C93.0605 26.1108 93.5194 25.6424 94.1024 25.2963C94.6855 24.9503 95.3442 24.7799 96.0784 24.7799C96.6345 24.7799 97.1312 24.8811 97.5685 25.0834C98.0058 25.2857 98.3621 25.5731 98.6375 25.9405C98.9074 26.3078 99.064 26.7337 99.0964 27.2129V30.2527C99.064 30.7265 98.9074 31.1418 98.6375 31.5091C98.3621 31.8765 98.0112 32.1639 97.5685 32.3716C97.1312 32.5792 96.6345 32.6857 96.0784 32.6857V32.691ZM96.1972 36.5241C95.3172 36.5241 94.5451 36.375 93.8703 36.0716C93.2008 35.7681 92.6663 35.3475 92.2776 34.7992L93.8595 33.2553C94.151 33.596 94.475 33.8516 94.8367 34.0272C95.1984 34.2029 95.6249 34.2881 96.1108 34.2881C96.7425 34.2881 97.2446 34.1337 97.6009 33.8303C97.9572 33.5268 98.1408 33.0849 98.1408 32.5153V30.4923L98.5727 28.7514L98.1894 27.0106V24.9556H100.711V32.4514C100.711 33.2713 100.516 33.99 100.128 34.6075C99.7389 35.2198 99.2044 35.6936 98.5187 36.029C97.8331 36.3644 97.061 36.5294 96.1918 36.5294L96.1972 36.5241ZM96.5643 30.455C96.9207 30.455 97.2284 30.3805 97.4875 30.2261C97.7467 30.0717 97.9464 29.8694 98.0868 29.6085C98.2272 29.353 98.2974 29.0549 98.2974 28.7142C98.2974 28.4054 98.2272 28.1232 98.0868 27.857C97.9464 27.5962 97.7521 27.3885 97.4929 27.2342C97.2392 27.0798 96.9315 27.0052 96.5751 27.0052C96.2188 27.0052 95.9273 27.0798 95.6573 27.2342C95.3928 27.3885 95.1876 27.5962 95.0418 27.857C94.8961 28.1179 94.8259 28.4107 94.8259 28.7301C94.8259 29.0495 94.9015 29.3264 95.0526 29.5926C95.2038 29.8588 95.4036 30.0717 95.6627 30.2261C95.9219 30.3805 96.2188 30.455 96.5643 30.455Z" fill="#1B1B1B"/>
<path d="M106.482 33.1168C105.602 33.1168 104.825 32.9411 104.15 32.5844C103.469 32.2278 102.94 31.7326 102.546 31.0938C102.157 30.4603 101.963 29.7362 101.963 28.9217C101.963 28.1072 102.152 27.4204 102.53 26.7922C102.908 26.164 103.426 25.6636 104.079 25.3016C104.733 24.9396 105.472 24.7585 106.298 24.7585C107.124 24.7585 107.821 24.9289 108.431 25.2696C109.041 25.6103 109.527 26.0788 109.883 26.6857C110.24 27.2926 110.418 27.9794 110.418 28.7567C110.418 28.9111 110.407 29.0655 110.391 29.2252C110.375 29.3849 110.337 29.5606 110.283 29.7575L103.313 29.7895V28.0486L109.181 28.0167L108.08 28.7567C108.069 28.3095 107.999 27.9315 107.864 27.628C107.729 27.3246 107.535 27.0957 107.27 26.9306C107.006 26.7656 106.693 26.6857 106.331 26.6857C105.931 26.6857 105.586 26.7816 105.289 26.9679C104.992 27.1542 104.765 27.4098 104.603 27.7398C104.441 28.0699 104.36 28.4639 104.36 28.9217C104.36 29.3796 104.447 29.7842 104.619 30.1249C104.792 30.4656 105.035 30.7265 105.354 30.9075C105.672 31.0885 106.045 31.179 106.477 31.179C106.865 31.179 107.222 31.1098 107.546 30.9714C107.87 30.8329 108.15 30.6306 108.399 30.3538L109.813 31.7326C109.414 32.2065 108.928 32.5525 108.361 32.7761C107.794 32.9997 107.168 33.1115 106.477 33.1115L106.482 33.1168Z" fill="#1B1B1B"/>
<path d="M110.785 27.101V24.9448H117.004V27.101H110.785ZM112.604 32.9358V21.6388H115.174V32.9358H112.604Z" fill="#1B1B1B"/>
<path d="M118.106 32.9358V21H120.676V32.9358H118.106ZM123.478 32.9358V28.3787C123.478 27.9741 123.343 27.644 123.078 27.3832C122.814 27.1223 122.479 26.9945 122.079 26.9945C121.809 26.9945 121.572 27.0531 121.361 27.1649C121.151 27.282 120.983 27.4417 120.865 27.6494C120.74 27.857 120.681 28.0965 120.681 28.3734L119.698 27.8996C119.698 27.2767 119.833 26.7283 120.109 26.2545C120.379 25.786 120.757 25.4187 121.232 25.1632C121.707 24.9076 122.257 24.7745 122.868 24.7745C123.478 24.7745 124.055 24.9023 124.536 25.1632C125.016 25.424 125.389 25.7754 125.653 26.2332C125.923 26.6858 126.053 27.2181 126.053 27.8197V32.9358H123.483H123.478Z" fill="#1B1B1B"/>
<path d="M131.641 33.1168C130.761 33.1168 129.983 32.9411 129.309 32.5844C128.628 32.2278 128.099 31.7326 127.705 31.0938C127.316 30.4603 127.122 29.7362 127.122 28.9217C127.122 28.1072 127.311 27.4204 127.689 26.7922C128.067 26.164 128.585 25.6636 129.238 25.3016C129.892 24.9396 130.631 24.7585 131.457 24.7585C132.283 24.7585 132.98 24.9289 133.59 25.2696C134.2 25.6103 134.686 26.0788 135.042 26.6857C135.399 27.2926 135.577 27.9794 135.577 28.7567C135.577 28.9111 135.566 29.0655 135.55 29.2252C135.534 29.3849 135.496 29.5606 135.442 29.7575L128.472 29.7895V28.0486L134.34 28.0167L133.239 28.7567C133.228 28.3095 133.158 27.9315 133.023 27.628C132.888 27.3246 132.694 27.0957 132.429 26.9306C132.165 26.7656 131.851 26.6857 131.49 26.6857C131.09 26.6857 130.745 26.7816 130.448 26.9679C130.151 27.1542 129.924 27.4098 129.762 27.7398C129.6 28.0699 129.519 28.4639 129.519 28.9217C129.519 29.3796 129.606 29.7842 129.778 30.1249C129.951 30.4656 130.194 30.7265 130.513 30.9075C130.831 31.0885 131.204 31.179 131.636 31.179C132.024 31.179 132.381 31.1098 132.705 30.9714C133.028 30.8329 133.309 30.6306 133.558 30.3538L134.972 31.7326C134.573 32.2065 134.087 32.5525 133.52 32.7761C132.953 32.9997 132.327 33.1115 131.636 33.1115L131.641 33.1168Z" fill="#1B1B1B"/>
<path d="M136.781 32.9359V24.9449H139.35V32.9359H136.781ZM139.35 28.5598L138.281 27.7399C138.492 26.7976 138.854 26.0683 139.356 25.5518C139.863 25.0354 140.554 24.7799 141.434 24.7799C141.823 24.7799 142.163 24.8385 142.46 24.9503C142.757 25.0621 143.016 25.2377 143.238 25.4667L141.72 27.3726C141.618 27.2661 141.488 27.1756 141.321 27.1117C141.154 27.0478 140.965 27.0159 140.754 27.0159C140.322 27.0159 139.977 27.1436 139.728 27.4045C139.48 27.6654 139.356 28.0487 139.356 28.5651L139.35 28.5598Z" fill="#1B1B1B"/>
<path d="M25.4541 32.8549C24.6118 32.8549 23.8452 32.6738 23.1703 32.3118C22.4901 31.9498 21.961 31.4494 21.5777 30.8159C21.1944 30.1823 21 29.469 21 28.6757C21 27.8825 21.1944 27.1585 21.5831 26.5303C21.9718 25.902 22.5063 25.4016 23.1865 25.0396C23.8668 24.6776 24.628 24.4966 25.4703 24.4966C26.1127 24.4966 26.7012 24.6031 27.2303 24.816C27.7594 25.029 28.2291 25.3431 28.6394 25.7636L26.9874 27.4087C26.7984 27.201 26.577 27.0467 26.3287 26.9508C26.0803 26.8497 25.7942 26.8018 25.4703 26.8018C25.1139 26.8018 24.7954 26.8816 24.5093 27.0413C24.2231 27.201 24.0018 27.4193 23.8398 27.7015C23.6778 27.9836 23.5969 28.3031 23.5969 28.6651C23.5969 29.0271 23.6778 29.3678 23.8398 29.65C24.0018 29.9374 24.2285 30.1557 24.5147 30.3154C24.8062 30.4751 25.1193 30.555 25.4649 30.555C25.8104 30.555 26.0965 30.5018 26.3557 30.39C26.6148 30.2782 26.8416 30.1238 27.0305 29.9108L28.6826 31.5239C28.2507 31.9605 27.7702 32.2959 27.2411 32.5195C26.712 32.7431 26.1181 32.8549 25.4487 32.8549H25.4541Z" fill="#FAFAFA"/>
<path d="M33.5092 32.8548C32.6615 32.8548 31.9057 32.6685 31.2416 32.2958C30.5722 31.9231 30.0485 31.4174 29.6544 30.7838C29.2656 30.1503 29.0713 29.4369 29.0713 28.6437C29.0713 27.8505 29.2656 27.1637 29.649 26.5408C30.0323 25.9179 30.556 25.4175 31.2254 25.0502C31.8949 24.6828 32.6561 24.5018 33.5092 24.5018C34.3622 24.5018 35.0964 24.6828 35.7713 25.0449C36.4462 25.4069 36.9752 25.902 37.364 26.5355C37.7527 27.1637 37.947 27.8718 37.947 28.649C37.947 29.4263 37.7527 30.1663 37.364 30.7945C36.9752 31.4227 36.4462 31.9284 35.7821 32.3011C35.118 32.6738 34.3568 32.8601 33.5146 32.8601L33.5092 32.8548ZM33.5092 30.5549C33.8655 30.5549 34.1786 30.4804 34.4594 30.326C34.7401 30.1716 34.9507 29.948 35.1018 29.6605C35.253 29.3677 35.3286 29.0377 35.3286 28.665C35.3286 28.2923 35.253 27.9836 35.0964 27.7014C34.9399 27.4192 34.7293 27.201 34.454 27.0413C34.1786 26.8815 33.8655 26.8017 33.5146 26.8017C33.1636 26.8017 32.8397 26.8815 32.5644 27.0413C32.2836 27.201 32.0677 27.4246 31.9111 27.7067C31.7545 27.9889 31.6789 28.3083 31.6789 28.6597C31.6789 29.0323 31.7545 29.3624 31.9111 29.6552C32.0677 29.948 32.2836 30.1663 32.5644 30.3207C32.8397 30.4751 33.1582 30.5496 33.5146 30.5496L33.5092 30.5549Z" fill="#FAFAFA"/>
<path d="M42.6656 32.8389C41.8882 32.8389 41.2025 32.6578 40.6086 32.2958C40.0148 31.9338 39.5504 31.4387 39.2157 30.8158C38.881 30.193 38.7136 29.4796 38.7136 28.6757C38.7136 27.8718 38.881 27.1637 39.2157 26.5355C39.5504 25.9127 40.0148 25.4176 40.614 25.0555C41.2133 24.6935 41.899 24.5125 42.6656 24.5125C43.2109 24.5125 43.713 24.6137 44.1665 24.816C44.62 25.0183 44.9925 25.3058 45.2841 25.6731C45.5756 26.0404 45.7376 26.4663 45.7862 26.9455V30.3154C45.743 30.7839 45.5756 31.2098 45.2841 31.5878C44.9925 31.9658 44.6254 32.2692 44.1665 32.4928C43.7076 32.7164 43.2109 32.8282 42.6656 32.8282V32.8389ZM43.1137 30.555C43.4808 30.555 43.7994 30.4751 44.0639 30.3154C44.3339 30.1557 44.539 29.9321 44.6902 29.6499C44.8413 29.3624 44.9169 29.0377 44.9169 28.665C44.9169 28.2924 44.8413 27.9836 44.6902 27.7014C44.539 27.4193 44.3339 27.201 44.0639 27.0413C43.7994 26.8816 43.4862 26.8017 43.1299 26.8017C42.7736 26.8017 42.4658 26.8816 42.1959 27.0466C41.926 27.2117 41.7154 27.4353 41.5534 27.7121C41.3915 27.9942 41.3105 28.3137 41.3105 28.6757C41.3105 29.0377 41.3861 29.3625 41.5372 29.6446C41.6884 29.9321 41.899 30.1504 42.1797 30.3101C42.455 30.4698 42.7682 30.5496 43.1137 30.5496V30.555ZM47.3302 32.6738H44.809V30.5177L45.1923 28.5586L44.7604 26.6367V20.7327H47.3302V32.6685V32.6738Z" fill="#FAFAFA"/>
<path d="M53.118 32.8549C52.238 32.8549 51.4605 32.6792 50.7857 32.3225C50.1054 31.9658 49.5763 31.4707 49.1822 30.8318C48.7935 30.1983 48.5991 29.4743 48.5991 28.6597C48.5991 27.8452 48.7881 27.1585 49.166 26.5303C49.5439 25.902 50.0622 25.4016 50.7155 25.0396C51.3687 24.6776 52.1084 24.4966 52.9344 24.4966C53.7604 24.4966 54.4569 24.6669 55.067 25.0077C55.677 25.3484 56.1629 25.8169 56.5193 26.4238C56.8756 27.0307 57.0538 27.7174 57.0538 28.4947C57.0538 28.6491 57.043 28.8035 57.0268 28.9632C57.0106 29.1229 56.9728 29.2986 56.9188 29.4956L49.9488 29.5275V27.7867L55.8174 27.7547L54.716 28.4947C54.7053 28.0475 54.6351 27.6695 54.5001 27.3661C54.3651 27.0626 54.1708 26.8337 53.9062 26.6687C53.6417 26.5036 53.3285 26.4238 52.9668 26.4238C52.5673 26.4238 52.2218 26.5196 51.9248 26.7059C51.6279 26.8923 51.4011 27.1478 51.2392 27.4779C51.0772 27.808 50.9962 28.2019 50.9962 28.6597C50.9962 29.1176 51.0826 29.5222 51.2554 29.8629C51.4281 30.2036 51.6711 30.4645 51.9896 30.6455C52.3081 30.8265 52.6807 30.917 53.1126 30.917C53.5013 30.917 53.8576 30.8478 54.1816 30.7094C54.5055 30.571 54.7862 30.3687 55.0346 30.0918L56.4491 31.4707C56.0496 31.9445 55.5637 32.2905 54.9968 32.5141C54.4299 32.7377 53.8036 32.8495 53.1126 32.8495L53.118 32.8549Z" fill="#FAFAFA"/>
</svg>
