<svg width="80" height="80" viewBox="0 0 80 80" fill="none" xmlns="http://www.w3.org/2000/svg">
<path d="M70.0732 12.6423H46.9511C46.2416 12.6423 45.6665 13.2175 45.6665 13.9269V37.049C45.6665 37.7584 46.2416 38.3335 46.9511 38.3335H70.0732C70.7826 38.3335 71.3577 37.7584 71.3577 37.049V13.9269C71.3577 13.2175 70.7826 12.6423 70.0732 12.6423Z" fill="#1B1B1B" fill-opacity="0.2"/>
<path d="M8.96504 38.3318C8.90721 38.3315 8.85054 38.3156 8.801 38.2857C8.75146 38.2559 8.71089 38.2132 8.68359 38.1623C8.65629 38.1113 8.64328 38.0539 8.6459 37.9961C8.64852 37.9383 8.6667 37.8823 8.69851 37.834L25.3978 12.7851C25.4272 12.7414 25.4668 12.7056 25.5133 12.6808C25.5598 12.656 25.6116 12.6431 25.6643 12.6431C25.717 12.6431 25.7689 12.656 25.8153 12.6808C25.8618 12.7056 25.9015 12.7414 25.9309 12.7851L42.6301 37.834C42.662 37.8824 42.6802 37.9386 42.6828 37.9965C42.6853 38.0544 42.6722 38.1119 42.6447 38.163C42.6172 38.214 42.5764 38.2566 42.5266 38.2864C42.4768 38.3161 42.42 38.3318 42.362 38.3318H8.96504Z" fill="#1B1B1B" fill-opacity="0.2"/>
<path d="M48.2131 68.7808C48.128 68.7808 48.0463 68.747 47.9861 68.6867C47.9258 68.6265 47.892 68.5448 47.892 68.4597V61.332C47.892 59.2389 47.0605 57.2315 45.5805 55.7515C44.1004 54.2714 42.0931 53.4399 40 53.4399C37.9069 53.4399 35.8995 54.2714 34.4195 55.7515C32.9394 57.2315 32.108 59.2389 32.108 61.332V68.4597C32.108 68.5448 32.0741 68.6265 32.0139 68.6867C31.9537 68.747 31.872 68.7808 31.7868 68.7808H8.84939C8.74984 68.7808 8.63904 68.6427 8.63904 68.4597V43.4637C8.63904 43.2791 8.74984 43.1426 8.84939 43.1426H71.1505C71.2501 43.1426 71.3609 43.2791 71.3609 43.4637V68.4597C71.3609 68.6427 71.2501 68.7808 71.1505 68.7808H48.2131Z" fill="#1B1B1B" fill-opacity="0.2"/>
</svg>
