<svg width="240" height="240" viewBox="0 0 240 240" fill="none" xmlns="http://www.w3.org/2000/svg">
<path d="M34 35H228V229H34V35Z" fill="#F8FAFF"/>
<path fill-rule="evenodd" clip-rule="evenodd" d="M33 33H229V229H33V33ZM35 35V227H227V35H35Z" fill="#1B1B1B"/>
<g clip-path="url(#clip0_3220_652)">
<path d="M109.201 83.1694C103.125 84.3191 97.4831 85.9375 92.4157 87.9361C92.4069 91.3851 92.7164 95.0463 93.3354 98.8579C95.1837 98.1592 97.0939 97.5048 99.0837 96.9034C102.232 91.898 105.637 87.2994 109.201 83.1694Z" fill="#82C6D1"/>
<path d="M168.275 98.7516C168.886 94.9401 169.178 91.2788 169.16 87.8299C164.092 85.8401 158.441 84.2394 152.366 83.1074C155.939 87.2285 159.361 91.8183 162.518 96.8149C164.508 97.4074 166.427 98.053 168.275 98.7516Z" fill="#82C6D1"/>
<path d="M130.894 163.371C133.91 165.803 136.943 167.89 139.959 169.597C144.221 166.228 148.439 162.151 152.463 157.482C147.086 158.499 141.382 159.153 135.457 159.383C133.945 160.798 132.424 162.133 130.894 163.371Z" fill="#82C6D1"/>
<path d="M178.286 137.097C178.852 140.882 179.109 144.508 179.047 147.931C188.854 142.023 194.797 134.312 194.78 125.875C194.78 123.956 194.461 122.072 193.869 120.241C191.799 126.662 186.263 132.463 178.286 137.106V137.097Z" fill="#A1DCE2"/>
<path d="M83.3864 103.554C82.8205 99.7688 82.564 96.1429 82.6259 92.7205C72.8184 98.6279 66.8756 106.34 66.8844 114.776C66.8844 116.695 67.2028 118.579 67.7953 120.41C69.8558 113.989 75.4096 108.188 83.3776 103.545L83.3864 103.554Z" fill="#A1DCE2"/>
<path d="M178.242 103.412C186.228 108.029 191.791 113.812 193.878 120.233C194.47 118.402 194.78 116.518 194.771 114.599C194.762 106.163 188.793 98.4599 178.967 92.5878C179.038 96.0014 178.791 99.6272 178.233 103.421L178.242 103.412Z" fill="#82C6D1"/>
<path d="M92.4156 87.936C92.4333 78.7476 94.6972 71.0626 99.2428 66.0571C97.3503 66.4639 95.5551 67.136 93.8925 68.1C86.5523 72.3272 82.8292 81.3122 82.6346 92.7204C82.5727 96.134 82.8292 99.7598 83.3952 103.554C84.1999 108.913 85.6326 114.582 87.6843 120.383C89.4884 115.245 91.77 110.001 94.538 104.783C94.0605 102.775 93.6625 100.795 93.3442 98.8578C92.7251 95.0462 92.4156 91.385 92.4244 87.936H92.4156Z" fill="#C7E8EF"/>
<path d="M121.714 71.0537C124.721 68.6748 127.763 66.6408 130.761 64.987C120.715 59.4864 111.031 58.2306 103.691 62.4578C102.02 63.4217 100.543 64.6333 99.2429 66.0571C105.867 64.6244 113.693 66.4993 121.714 71.0537Z" fill="#C7E8EF"/>
<path d="M99.3932 174.682C100.693 176.106 102.179 177.318 103.85 178.273C111.199 182.482 120.883 181.191 130.912 175.664C127.905 174.019 124.863 171.994 121.847 169.615C113.835 174.196 106.017 176.088 99.3932 174.682Z" fill="#C7E8EF"/>
<path d="M178.967 92.5878C178.729 81.1796 174.988 72.2034 167.63 68.0028C165.959 67.0477 164.163 66.3756 162.271 65.9688C166.825 70.9565 169.107 78.6415 169.16 87.83C169.178 91.2789 168.877 94.9402 168.276 98.7517C167.966 100.688 167.577 102.669 167.108 104.686C169.885 109.903 172.193 115.139 174.006 120.268C176.04 114.458 177.455 108.789 178.251 103.421C178.808 99.6361 179.056 96.0014 178.985 92.5878H178.967Z" fill="#A1DCE2"/>
<path d="M82.7054 148.063C82.9442 159.471 86.685 168.448 94.0429 172.648C95.7143 173.603 97.5095 174.275 99.402 174.682C94.8476 169.695 92.566 162.009 92.5129 152.821C88.9313 151.415 85.6503 149.823 82.7054 148.063Z" fill="#A1DCE2"/>
<path d="M157.822 62.3783C150.473 58.1688 140.79 59.4599 130.761 64.9871C127.763 66.6409 124.721 68.6749 121.714 71.0538C117.452 74.4232 113.233 78.5001 109.21 83.1694C105.654 87.2994 102.241 91.898 99.0925 96.9035C98.2877 98.1769 97.5007 99.4769 96.7401 100.803C95.9707 102.13 95.2367 103.457 94.5381 104.783C91.7701 110.001 89.4884 115.245 87.6844 120.383C85.6503 126.193 84.2354 131.871 83.4395 137.23C86.4374 138.963 89.7803 140.529 93.4061 141.899C93.7156 139.963 94.1048 137.982 94.5735 135.965C95.7585 130.916 97.4476 125.671 99.6497 120.365C101.569 115.731 103.868 111.053 106.556 106.419C109.236 101.776 112.146 97.4518 115.214 93.4722C118.716 88.9177 122.431 84.8232 126.224 81.2681C127.737 79.8531 129.258 78.5177 130.788 77.2796C133.795 74.8388 136.828 72.7429 139.835 71.0273C147.847 66.4552 155.665 64.5538 162.288 65.9688C160.988 64.545 159.503 63.3334 157.831 62.3783H157.822Z" fill="#A1DCE2"/>
<path d="M139.958 169.597C136.952 167.89 133.909 165.803 130.894 163.371C129.355 162.133 127.834 160.807 126.322 159.401C120.388 159.188 114.684 158.552 109.307 157.552C113.348 162.213 117.575 166.272 121.847 169.633C124.863 172.003 127.905 174.028 130.912 175.682C140.958 181.182 150.641 182.438 157.982 178.211C159.653 177.247 161.13 176.035 162.43 174.612C155.806 176.044 147.98 174.169 139.958 169.615V169.597Z" fill="#A1DCE2"/>
<path d="M178.286 137.097C177.482 131.738 176.049 126.06 173.997 120.259C172.184 115.13 169.885 109.894 167.099 104.677C166.392 103.35 165.658 102.024 164.888 100.697C164.119 99.3707 163.332 98.0795 162.518 96.8061C159.352 91.8095 155.939 87.2197 152.366 83.0986C148.325 78.438 144.097 74.3789 139.826 71.0183C136.819 72.734 133.786 74.8299 130.779 77.2707C132.318 78.5088 133.839 79.8353 135.351 81.2414C139.154 84.7877 142.877 88.8646 146.397 93.4101C149.465 97.3809 152.393 101.697 155.09 106.331C157.787 110.965 160.104 115.634 162.032 120.259C164.243 125.556 165.95 130.801 167.152 135.841C167.63 137.849 168.028 139.83 168.346 141.767C168.965 145.578 169.275 149.239 169.266 152.688C169.248 161.877 166.984 169.562 162.439 174.567C164.331 174.16 166.127 173.488 167.789 172.524C175.129 168.297 178.852 159.312 179.056 147.904C179.118 144.49 178.861 140.865 178.295 137.071L178.286 137.097Z" fill="#C7E8EF"/>
<path d="M168.329 141.793C166.48 142.492 164.57 143.146 162.58 143.748C157.592 145.251 152.18 146.418 146.458 147.179C141.471 147.842 136.244 148.196 130.867 148.205C125.49 148.205 120.264 147.869 115.267 147.223C109.546 146.48 104.133 145.331 99.1367 143.845C97.1469 143.252 95.2279 142.607 93.3796 141.908C89.7537 140.537 86.4109 138.972 83.4129 137.239C75.4272 132.622 69.8646 126.839 67.7775 120.418C67.185 122.249 66.8755 124.133 66.8843 126.052C66.8932 134.488 72.8537 142.191 82.6877 148.063C85.6326 149.823 88.9136 151.415 92.4952 152.821C97.5626 154.811 103.222 156.412 109.289 157.543C114.666 158.543 120.37 159.18 126.304 159.392C127.816 159.445 129.337 159.471 130.876 159.471C132.415 159.471 133.936 159.436 135.448 159.383C141.382 159.153 147.086 158.499 152.454 157.482C158.53 156.332 164.172 154.714 169.239 152.715C169.239 149.266 168.939 145.605 168.32 141.793H168.329Z" fill="#C7E8EF"/>
<path d="M194.788 120.241C195.363 118.384 195.655 116.483 195.655 114.599C195.646 106.286 190.031 98.3095 179.843 92.0925V91.7034H179.825C179.392 80.0034 175.235 71.3367 168.072 67.2333C166.436 66.2959 164.632 65.6061 162.731 65.1728C161.395 63.7489 159.892 62.5462 158.256 61.6088L156.929 60.8483V60.919C149.846 57.585 140.631 58.6551 130.752 63.9877C120.229 58.3455 110.474 57.5231 103.24 61.6884C101.595 62.6347 100.101 63.8462 98.7742 65.2612C96.864 65.7034 95.0687 66.3932 93.4415 67.3394C86.2075 71.5047 82.0776 80.3394 81.7592 92.2251C71.5891 98.4775 65.9912 106.472 66 114.785C66 116.651 66.3007 118.552 66.8755 120.418C66.3095 122.275 66.0089 124.168 66.0089 126.052C66.0177 134.373 71.6422 142.35 81.8299 148.567C82.1837 160.453 86.3401 169.279 93.5918 173.418C94.9361 174.187 96.3952 174.797 97.9252 175.222L97.8898 175.266L98.9333 175.487C100.269 176.902 101.763 178.096 103.399 179.033C106.433 180.767 109.899 181.633 113.684 181.633C118.937 181.633 124.801 179.953 130.903 176.654C136.996 179.918 142.833 181.58 148.068 181.58C151.88 181.58 155.364 180.705 158.415 178.954C160.06 178.007 161.563 176.796 162.89 175.372C164.791 174.93 166.586 174.24 168.214 173.303C175.448 169.137 179.578 160.312 179.896 148.426C190.066 142.182 195.664 134.188 195.655 125.866C195.655 124 195.354 122.107 194.78 120.233L194.788 120.241ZM179.463 100.803C179.463 100.75 179.471 100.697 179.48 100.644C179.569 99.8129 179.639 98.9904 179.701 98.1768C179.719 97.9027 179.737 97.6285 179.746 97.3632C179.781 96.7884 179.807 96.2224 179.825 95.6653C179.834 95.3734 179.843 95.0816 179.843 94.7898C179.843 94.5864 179.861 94.383 179.861 94.1884C188.907 99.9809 193.869 107.188 193.878 114.608C193.878 115.519 193.807 116.439 193.656 117.35C191.101 112.008 186.157 107.082 179.188 102.961C179.286 102.236 179.374 101.52 179.454 100.803H179.463ZM177.261 103.881C176.571 108.329 175.474 112.928 173.962 117.606C173.82 117.235 173.661 116.872 173.52 116.501C173.387 116.173 173.263 115.846 173.131 115.519C172.75 114.582 172.352 113.644 171.946 112.707C171.804 112.388 171.671 112.079 171.53 111.761C171.044 110.664 170.531 109.567 170 108.48C169.938 108.356 169.885 108.232 169.823 108.099C169.248 106.914 168.647 105.738 168.028 104.562C168.382 103.014 168.682 101.475 168.948 99.9632H168.965L169.133 98.8932C169.752 95.0374 170.053 91.3142 170.035 87.8299V87.2285H170.018C169.885 79.1721 168.072 72.451 164.694 67.5959C165.561 67.9231 166.401 68.3122 167.188 68.7721C173.971 72.6544 177.835 81.1265 178.074 92.6143V92.7204C178.083 93.1183 178.074 93.534 178.074 93.9408C178.074 94.3741 178.074 94.8074 178.065 95.2408C178.056 95.6387 178.03 96.0455 178.012 96.4435C177.995 96.868 177.977 97.2925 177.95 97.7258C177.924 98.1503 177.88 98.5748 177.844 98.9993C177.809 99.4238 177.773 99.8571 177.729 100.282C177.685 100.706 177.632 101.139 177.579 101.573C177.544 101.891 177.499 102.209 177.455 102.528L177.261 103.872V103.881ZM163.084 96.0632C162.368 94.9401 161.634 93.8347 160.891 92.7469C160.82 92.6496 160.75 92.5523 160.679 92.4462C159.98 91.4381 159.273 90.4387 158.548 89.4571C158.344 89.1741 158.132 88.9 157.92 88.6258C157.318 87.8211 156.708 87.0251 156.089 86.2469C155.85 85.9462 155.612 85.6455 155.373 85.3537C155.134 85.0619 154.904 84.7612 154.665 84.4693C159.485 85.4864 164.048 86.8217 168.258 88.4313C168.258 88.9176 168.249 89.4129 168.231 89.917C168.231 90.1204 168.231 90.3238 168.214 90.5272C168.178 91.3408 168.134 92.1721 168.063 93.0034C168.046 93.1979 168.028 93.4013 168.01 93.5959C167.948 94.2415 167.886 94.8959 167.816 95.5503C167.78 95.851 167.736 96.1517 167.701 96.4612C167.656 96.8238 167.603 97.1864 167.55 97.5489C166.109 97.0272 164.614 96.5319 163.093 96.0721L163.084 96.0632ZM167.267 99.3353C167.108 100.273 166.931 101.228 166.737 102.183C166.374 101.537 166.012 100.892 165.649 100.264C165.286 99.6449 164.915 99.0081 164.526 98.3802C165.463 98.6898 166.374 99.0081 167.267 99.3353ZM168.249 86.5653C163.482 84.7877 158.318 83.3462 152.826 82.3115C149.165 78.1197 145.327 74.3789 141.391 71.1775C148.873 67.136 155.895 65.6238 161.811 66.7911C165.799 71.2836 168.01 78.102 168.249 86.5741V86.5653ZM131.186 65.7653C141.294 60.1938 150.597 59.2653 157.38 63.1476L157.61 63.2802C158.318 63.7047 158.999 64.1734 159.644 64.704C153.719 64.2353 146.963 66.0394 139.897 69.9836L139.631 70.134C139.552 70.1782 139.463 70.2224 139.384 70.2755C136.35 72.0088 133.264 74.1401 130.222 76.6074C130.186 76.634 130.151 76.6693 130.116 76.6959L129.373 77.2972H129.39C128.117 78.3673 126.852 79.4728 125.614 80.6313C121.732 84.2659 118 88.4047 114.507 92.9415C111.367 97.0183 108.44 101.405 105.787 105.986C103.134 110.567 100.799 115.298 98.8361 120.038C96.6517 125.318 94.9272 130.615 93.7157 135.771C93.3265 137.416 92.9905 139.061 92.7163 140.679C92.4422 140.573 92.1769 140.467 91.9116 140.352C91.5225 140.192 91.1422 140.042 90.7619 139.874C90.3197 139.68 89.8776 139.485 89.4442 139.29C89.1082 139.14 88.7633 138.99 88.4361 138.839C87.7109 138.503 87.0123 138.15 86.3136 137.796C86.0218 137.646 85.7476 137.486 85.4646 137.336C85.1109 137.141 84.7572 136.956 84.4123 136.761C85.2082 131.623 86.5701 126.282 88.4626 120.869L88.5245 120.692C90.3463 115.51 92.6279 110.301 95.3252 105.207L95.4578 104.951C96.1299 103.695 96.8197 102.448 97.5095 101.246C98.2347 99.9898 98.9952 98.7251 99.8442 97.3809C102.913 92.5081 106.291 87.9183 109.882 83.753C113.826 79.1721 117.982 75.1483 122.236 71.7877L122.271 71.7612C125.234 69.4177 128.232 67.4102 131.195 65.7741L131.186 65.7653ZM130.77 78.4469C132.105 79.5435 133.432 80.6932 134.741 81.9136C138.561 85.4775 142.249 89.5367 145.689 93.9762C148.793 97.9823 151.694 102.298 154.312 106.799C156.929 111.301 159.246 115.952 161.201 120.622C163.367 125.804 165.074 131.004 166.277 136.071C166.684 137.787 167.029 139.512 167.32 141.218C165.693 141.82 164.022 142.395 162.324 142.907C157.31 144.42 151.933 145.561 146.344 146.303C141.303 146.975 136.094 147.32 130.867 147.32C125.623 147.312 120.441 147.002 115.382 146.348C109.793 145.622 104.407 144.49 99.3932 142.996C97.6687 142.483 95.9973 141.917 94.3878 141.324C94.6708 139.626 95.0157 137.902 95.4225 136.169C96.6075 131.101 98.3055 125.892 100.454 120.701C102.391 116.032 104.699 111.371 107.308 106.861C109.917 102.351 112.809 98.0265 115.895 94.0115C119.327 89.5544 122.997 85.4864 126.808 81.9136C128.108 80.702 129.435 79.5435 130.761 78.4381L130.77 78.4469ZM94.0606 97.6551C93.9986 97.2306 93.9279 96.7972 93.8748 96.3728C93.8483 96.1693 93.8218 95.9659 93.7952 95.7625C93.4946 93.2775 93.3354 90.8632 93.3177 88.5462C97.5184 86.919 102.073 85.5836 106.893 84.5489C106.645 84.8496 106.415 85.1591 106.167 85.4598C105.946 85.7428 105.716 86.017 105.495 86.3C104.85 87.1136 104.222 87.9449 103.594 88.7761C103.408 89.0238 103.222 89.2714 103.037 89.519C102.303 90.5183 101.586 91.5353 100.879 92.5612C100.817 92.6585 100.746 92.7469 100.684 92.8353C99.9415 93.9319 99.2075 95.0374 98.5 96.1605C96.9878 96.6204 95.4932 97.1245 94.0429 97.6551H94.0606ZM97.085 98.4864C96.7048 99.1231 96.3333 99.751 95.9708 100.37C95.6082 100.998 95.2456 101.635 94.883 102.289C94.6796 101.334 94.5027 100.388 94.3435 99.4503C95.2367 99.1142 96.1476 98.7959 97.0762 98.4864H97.085ZM104.133 63.236C110.589 59.5129 119.353 60.1585 128.931 65.0313C128.754 65.1374 128.577 65.2523 128.391 65.3585C128.152 65.5 127.922 65.6503 127.684 65.7918C127.188 66.1013 126.693 66.4197 126.198 66.7469C125.986 66.8884 125.773 67.0299 125.552 67.1714C124.863 67.6401 124.182 68.1177 123.492 68.6129L123.439 68.6483C122.837 69.0904 122.236 69.5415 121.635 70.0102C115.312 66.5081 109.245 64.7129 103.806 64.7129C103.152 64.7129 102.506 64.7394 101.878 64.7925C102.595 64.2088 103.346 63.687 104.133 63.236ZM99.7204 66.8884C105.619 65.7034 112.65 67.1979 120.14 71.2217C116.222 74.4319 112.393 78.1728 108.741 82.3823C103.249 83.4347 98.0844 84.8938 93.3354 86.6802C93.5565 78.2081 95.7497 71.3898 99.7204 66.8884ZM94.3435 68.887C95.1306 68.4272 95.9619 68.0381 96.8374 67.7108C93.4769 72.5748 91.6728 79.2959 91.5667 87.3435H91.549V87.9537C91.5401 91.4381 91.8497 95.1612 92.4776 99.017L92.6544 100.087H92.6721C92.9374 101.599 93.2469 103.138 93.6095 104.686C93.0259 105.8 92.4599 106.914 91.9204 108.037C91.6905 108.506 91.4782 108.975 91.2572 109.452C90.9123 110.186 90.5674 110.929 90.2401 111.663C90.0014 112.194 89.7803 112.724 89.5504 113.264C89.2585 113.954 88.9667 114.643 88.6837 115.333C88.4714 115.864 88.2592 116.403 88.0469 116.934C87.9408 117.208 87.8259 117.473 87.7286 117.748C86.1367 112.884 84.9871 108.09 84.2884 103.465V103.439C84.1469 102.51 84.0231 101.582 83.9259 100.671C83.6252 97.9381 83.4925 95.2938 83.5367 92.7734C83.5367 92.7734 83.5367 92.7646 83.5367 92.7557C83.7401 81.268 87.5871 72.787 94.3524 68.887H94.3435ZM86.7558 120.409C84.934 125.654 83.6075 130.827 82.785 135.824C75.5245 131.402 70.6959 126.105 68.7592 120.436C70.6782 114.758 75.498 109.452 82.7408 105.004C83.5721 110.001 84.9252 115.174 86.7558 120.409ZM81.7504 94.3387C81.7504 94.5598 81.768 94.7809 81.768 95.002C81.768 95.2496 81.7769 95.5061 81.7857 95.7625C81.8034 96.3816 81.8388 97.0006 81.8742 97.6285C81.8918 97.8496 81.9007 98.0796 81.9184 98.3006C81.9803 99.1496 82.051 100.007 82.1483 100.874C82.2279 101.617 82.3252 102.369 82.4313 103.12C75.4714 107.268 70.5456 112.203 68.0075 117.553C67.8572 116.633 67.7776 115.722 67.7776 114.812C67.7687 107.392 72.7123 100.167 81.7415 94.3476L81.7504 94.3387ZM67.8041 126.069C67.8041 125.158 67.8748 124.239 68.0252 123.328C70.581 128.669 75.5245 133.586 82.4932 137.707L82.8823 137.937C82.9265 137.964 82.9708 137.99 83.015 138.017C86.0572 139.777 89.4531 141.369 93.1055 142.748C93.132 142.757 93.1674 142.766 93.2027 142.784L94.1225 143.129V143.111C95.6701 143.677 97.2708 144.216 98.9245 144.703C104.036 146.224 109.501 147.373 115.188 148.116C120.317 148.78 125.623 149.116 130.903 149.107C136.209 149.107 141.497 148.753 146.609 148.072C152.286 147.32 157.761 146.153 162.863 144.614C164.482 144.128 166.082 143.597 167.63 143.031C167.701 143.491 167.771 143.951 167.825 144.402C167.842 144.561 167.869 144.729 167.886 144.888C168.099 146.666 168.249 148.399 168.329 150.097C168.329 150.195 168.329 150.292 168.329 150.398C168.355 150.982 168.364 151.565 168.364 152.14C163.456 154.033 158.061 155.545 152.313 156.641C146.883 157.667 141.197 158.304 135.431 158.525C133.91 158.578 132.38 158.614 130.894 158.614C129.452 158.614 127.914 158.587 126.357 158.534C120.573 158.331 114.896 157.712 109.475 156.703C103.514 155.589 97.9163 154.015 92.8401 152.025C89.3204 150.637 86.0572 149.063 83.1653 147.329C73.2694 141.404 67.8041 133.86 67.7952 126.069H67.8041ZM150.155 158.817C146.848 162.469 143.407 165.733 139.905 168.545C139.428 168.271 138.95 167.979 138.464 167.678C138.207 167.519 137.942 167.351 137.686 167.192C137.129 166.838 136.571 166.467 136.014 166.086C135.705 165.874 135.395 165.653 135.095 165.432C134.723 165.167 134.352 164.91 133.98 164.636C133.644 164.388 133.308 164.132 132.981 163.875C132.769 163.707 132.548 163.539 132.335 163.371C133.512 162.39 134.688 161.355 135.846 160.276C137.173 160.223 138.49 160.143 139.799 160.046C139.95 160.037 140.1 160.02 140.259 160.011C141.462 159.914 142.665 159.807 143.85 159.675C144.186 159.639 144.522 159.595 144.858 159.56C145.884 159.436 146.901 159.312 147.909 159.162C148.263 159.109 148.616 159.056 148.97 159.003C149.359 158.941 149.757 158.888 150.146 158.826L150.155 158.817ZM128.71 160.356C129.39 160.365 130.063 160.373 130.726 160.373H130.912C131.646 160.373 132.38 160.365 133.122 160.347C132.388 160.992 131.654 161.629 130.92 162.239C130.186 161.629 129.444 161.001 128.71 160.356ZM94.4939 171.905C88.0293 168.2 84.2089 160.338 83.6606 149.655C83.864 149.77 84.085 149.885 84.2973 150C84.483 150.097 84.6599 150.195 84.8456 150.301C85.4646 150.628 86.1014 150.955 86.7469 151.273C86.8708 151.335 86.9857 151.397 87.1095 151.45C88.5687 152.158 90.081 152.83 91.6463 153.458C91.7701 161.514 93.6095 168.226 96.9878 173.09C96.1211 172.763 95.2898 172.374 94.4939 171.914V171.905ZM93.4415 154.112C98.2082 155.89 103.373 157.331 108.856 158.366C112.517 162.567 116.355 166.299 120.29 169.5C112.818 173.541 105.796 175.063 99.8884 173.895C95.9 169.403 93.6803 162.584 93.4415 154.103V154.112ZM104.31 177.521C103.523 177.07 102.763 176.548 102.046 175.973C107.963 176.433 114.719 174.638 121.785 170.703C123.094 171.72 124.412 172.666 125.729 173.55C125.924 173.683 126.118 173.807 126.313 173.931C126.835 174.275 127.356 174.603 127.878 174.93C128.09 175.063 128.303 175.195 128.524 175.319C128.71 175.434 128.904 175.558 129.099 175.664C119.539 180.563 110.784 181.226 104.31 177.53V177.521ZM130.92 164.521C131.177 164.724 131.433 164.91 131.699 165.114C132.105 165.432 132.512 165.741 132.919 166.051C133.255 166.299 133.582 166.529 133.918 166.767C134.325 167.059 134.732 167.351 135.139 167.634C135.51 167.89 135.882 168.12 136.244 168.359C136.616 168.598 136.978 168.846 137.35 169.075C137.827 169.376 138.305 169.65 138.782 169.933C139.039 170.084 139.295 170.243 139.543 170.393L139.711 170.49L140.065 170.694C147.139 174.612 153.905 176.389 159.821 175.903C159.105 176.486 158.353 177.008 157.557 177.459C150.783 181.359 141.48 180.457 131.354 174.921C128.382 173.294 125.376 171.286 122.413 168.96C118.734 166.069 115.126 162.682 111.668 158.888C112.022 158.95 112.393 158.994 112.747 159.047C113.154 159.109 113.561 159.171 113.967 159.224C114.931 159.356 115.895 159.48 116.868 159.595C117.239 159.639 117.602 159.684 117.973 159.719C119.159 159.843 120.352 159.949 121.546 160.037C121.697 160.046 121.838 160.064 121.988 160.073C123.306 160.17 124.633 160.241 125.968 160.294C127.312 161.532 128.674 162.708 130.018 163.814L130.912 164.539L130.92 164.521ZM161.97 173.798C156.071 174.974 149.041 173.48 141.559 169.465C145.477 166.263 149.306 162.514 152.959 158.295C158.442 157.234 163.615 155.801 168.355 154.015C168.134 162.478 165.941 169.288 161.961 173.798H161.97ZM167.356 171.79C166.569 172.25 165.729 172.639 164.862 172.967C168.222 168.103 170.027 161.382 170.133 153.325H170.15V152.715V152.688C170.15 149.195 169.841 145.481 169.222 141.643L169.045 140.573H169.018C168.727 138.946 168.399 137.301 168.01 135.656C166.781 130.491 165.048 125.203 162.846 119.932C160.865 115.183 158.512 110.461 155.85 105.897C153.188 101.325 150.244 96.9476 147.095 92.8796C143.593 88.3605 139.852 84.2306 135.952 80.6047C134.714 79.4462 133.45 78.3408 132.185 77.2884C132.415 77.1115 132.636 76.9347 132.866 76.7578C133.202 76.5013 133.538 76.236 133.874 75.9884C134.237 75.7142 134.599 75.4578 134.971 75.2013C135.298 74.9625 135.625 74.7238 135.961 74.5027C136.598 74.0605 137.235 73.6449 137.871 73.2381C138.234 73.0081 138.597 72.7959 138.959 72.5748C139.225 72.4156 139.49 72.2564 139.746 72.0972C143.859 75.3782 147.873 79.2782 151.694 83.6823C155.293 87.8299 158.68 92.4108 161.776 97.2836C162.598 98.5748 163.385 99.8748 164.128 101.148C164.871 102.422 165.605 103.757 166.33 105.101C169.045 110.186 171.344 115.386 173.175 120.56C175.182 126.229 176.615 131.826 177.42 137.212C177.977 140.935 178.233 144.535 178.171 147.913C177.968 159.401 174.121 167.882 167.347 171.782L167.356 171.79ZM174.952 120.277C176.774 115.033 178.11 109.85 178.932 104.854C186.184 109.275 191.021 114.573 192.958 120.241C191.039 125.919 186.219 131.234 178.976 135.673C178.136 130.668 176.792 125.495 174.961 120.277H174.952ZM179.958 146.339C179.958 146.073 179.94 145.799 179.931 145.534C179.931 145.375 179.931 145.216 179.922 145.065C179.896 144.314 179.861 143.562 179.807 142.792C179.807 142.695 179.799 142.598 179.79 142.501C179.675 140.891 179.507 139.246 179.268 137.566C186.228 133.427 191.154 128.484 193.692 123.133C193.842 124.053 193.922 124.964 193.922 125.875C193.931 133.303 188.987 140.529 179.958 146.339Z" fill="#1B1B1B"/>
<path d="M130.832 140.511C141.382 140.511 149.943 131.977 149.943 121.453C149.943 110.929 141.382 102.395 130.832 102.395C120.282 102.395 111.721 110.929 111.721 121.453C111.721 131.977 120.282 140.511 130.832 140.511Z" fill="#A1DCE2"/>
<path d="M130.832 141.395C119.804 141.395 110.837 132.446 110.837 121.453C110.837 110.461 119.804 101.511 130.832 101.511C141.86 101.511 150.827 110.461 150.827 121.453C150.827 132.446 141.86 141.395 130.832 141.395ZM130.832 103.271C120.777 103.271 112.605 111.424 112.605 121.444C112.605 131.464 120.786 139.618 130.832 139.618C140.878 139.618 149.059 131.464 149.059 121.444C149.059 111.424 140.878 103.271 130.832 103.271Z" fill="#1B1B1B"/>
</g>
<path d="M10 10H153V47H10V10Z" fill="#1B1B1B"/>
<path d="M153 10H66V47H153V10Z" fill="#73C92D"/>
<path fill-rule="evenodd" clip-rule="evenodd" d="M151 12H68V45H151V12ZM153 10V47H66V10H153Z" fill="#1B1B1B"/>
<path d="M76 27.101V24.9448H82.2195V27.101H76ZM77.8194 32.9358V21.6388H80.3893V32.9358H77.8194Z" fill="#1B1B1B"/>
<path d="M87.0731 33.1169C86.2255 33.1169 85.4697 32.9305 84.8056 32.5579C84.1361 32.1852 83.6125 31.6795 83.2183 31.0459C82.8296 30.4124 82.6353 29.699 82.6353 28.9058C82.6353 28.1125 82.8296 27.4258 83.2129 26.8029C83.5963 26.18 84.1199 25.6796 84.7894 25.3123C85.4589 24.9449 86.2201 24.7639 87.0731 24.7639C87.9262 24.7639 88.6604 24.9449 89.3353 25.3069C90.0101 25.669 90.5392 26.1641 90.9279 26.7976C91.3166 27.4258 91.511 28.1338 91.511 28.9111C91.511 29.6884 91.3166 30.4284 90.9279 31.0566C90.5392 31.6848 90.0101 32.1905 89.3461 32.5632C88.682 32.9359 87.9208 33.1222 87.0785 33.1222L87.0731 33.1169ZM87.0731 30.817C87.4295 30.817 87.7426 30.7425 88.0233 30.5881C88.3041 30.4337 88.5146 30.2101 88.6658 29.9226C88.817 29.6298 88.8925 29.2997 88.8925 28.9271C88.8925 28.5544 88.817 28.2456 88.6604 27.9635C88.5038 27.6813 88.2933 27.4631 88.0179 27.3033C87.7426 27.1436 87.4295 27.0638 87.0785 27.0638C86.7276 27.0638 86.4037 27.1436 86.1283 27.3033C85.8476 27.4631 85.6316 27.6866 85.4751 27.9688C85.3185 28.251 85.2429 28.5704 85.2429 28.9218C85.2429 29.2944 85.3185 29.6245 85.4751 29.9173C85.6316 30.2101 85.8476 30.4284 86.1283 30.5828C86.4037 30.7372 86.7222 30.8117 87.0785 30.8117L87.0731 30.817Z" fill="#1B1B1B"/>
<path d="M96.0784 32.691C95.3334 32.691 94.6693 32.5153 94.0916 32.1639C93.514 31.8126 93.0551 31.3388 92.7257 30.7318C92.391 30.1303 92.2236 29.4595 92.2236 28.7248C92.2236 27.9901 92.391 27.2927 92.7257 26.7018C93.0605 26.1108 93.5194 25.6424 94.1024 25.2963C94.6855 24.9503 95.3442 24.7799 96.0784 24.7799C96.6345 24.7799 97.1312 24.8811 97.5685 25.0834C98.0058 25.2857 98.3621 25.5731 98.6375 25.9405C98.9074 26.3078 99.064 26.7337 99.0964 27.2129V30.2527C99.064 30.7265 98.9074 31.1418 98.6375 31.5091C98.3621 31.8765 98.0112 32.1639 97.5685 32.3716C97.1312 32.5792 96.6345 32.6857 96.0784 32.6857V32.691ZM96.1972 36.5241C95.3172 36.5241 94.5451 36.375 93.8703 36.0716C93.2008 35.7681 92.6663 35.3475 92.2776 34.7992L93.8595 33.2553C94.151 33.596 94.475 33.8516 94.8367 34.0272C95.1984 34.2029 95.6249 34.2881 96.1108 34.2881C96.7425 34.2881 97.2446 34.1337 97.6009 33.8303C97.9572 33.5268 98.1408 33.0849 98.1408 32.5153V30.4923L98.5727 28.7514L98.1894 27.0106V24.9556H100.711V32.4514C100.711 33.2713 100.516 33.99 100.128 34.6075C99.7389 35.2198 99.2044 35.6936 98.5187 36.029C97.8331 36.3644 97.061 36.5294 96.1918 36.5294L96.1972 36.5241ZM96.5643 30.455C96.9207 30.455 97.2284 30.3805 97.4875 30.2261C97.7467 30.0717 97.9464 29.8694 98.0868 29.6085C98.2272 29.353 98.2974 29.0549 98.2974 28.7142C98.2974 28.4054 98.2272 28.1232 98.0868 27.857C97.9464 27.5962 97.7521 27.3885 97.4929 27.2342C97.2392 27.0798 96.9315 27.0052 96.5751 27.0052C96.2188 27.0052 95.9273 27.0798 95.6573 27.2342C95.3928 27.3885 95.1876 27.5962 95.0418 27.857C94.8961 28.1179 94.8259 28.4107 94.8259 28.7301C94.8259 29.0495 94.9015 29.3264 95.0526 29.5926C95.2038 29.8588 95.4036 30.0717 95.6627 30.2261C95.9219 30.3805 96.2188 30.455 96.5643 30.455Z" fill="#1B1B1B"/>
<path d="M106.482 33.1168C105.602 33.1168 104.825 32.9411 104.15 32.5844C103.469 32.2278 102.94 31.7326 102.546 31.0938C102.157 30.4603 101.963 29.7362 101.963 28.9217C101.963 28.1072 102.152 27.4204 102.53 26.7922C102.908 26.164 103.426 25.6636 104.079 25.3016C104.733 24.9396 105.472 24.7585 106.298 24.7585C107.124 24.7585 107.821 24.9289 108.431 25.2696C109.041 25.6103 109.527 26.0788 109.883 26.6857C110.24 27.2926 110.418 27.9794 110.418 28.7567C110.418 28.9111 110.407 29.0655 110.391 29.2252C110.375 29.3849 110.337 29.5606 110.283 29.7575L103.313 29.7895V28.0486L109.181 28.0167L108.08 28.7567C108.069 28.3095 107.999 27.9315 107.864 27.628C107.729 27.3246 107.535 27.0957 107.27 26.9306C107.006 26.7656 106.693 26.6857 106.331 26.6857C105.931 26.6857 105.586 26.7816 105.289 26.9679C104.992 27.1542 104.765 27.4098 104.603 27.7398C104.441 28.0699 104.36 28.4639 104.36 28.9217C104.36 29.3796 104.447 29.7842 104.619 30.1249C104.792 30.4656 105.035 30.7265 105.354 30.9075C105.672 31.0885 106.045 31.179 106.477 31.179C106.865 31.179 107.222 31.1098 107.546 30.9714C107.87 30.8329 108.15 30.6306 108.399 30.3538L109.813 31.7326C109.414 32.2065 108.928 32.5525 108.361 32.7761C107.794 32.9997 107.168 33.1115 106.477 33.1115L106.482 33.1168Z" fill="#1B1B1B"/>
<path d="M110.785 27.101V24.9448H117.004V27.101H110.785ZM112.604 32.9358V21.6388H115.174V32.9358H112.604Z" fill="#1B1B1B"/>
<path d="M118.106 32.9358V21H120.676V32.9358H118.106ZM123.478 32.9358V28.3787C123.478 27.9741 123.343 27.644 123.078 27.3832C122.814 27.1223 122.479 26.9945 122.079 26.9945C121.809 26.9945 121.572 27.0531 121.361 27.1649C121.151 27.282 120.983 27.4417 120.865 27.6494C120.74 27.857 120.681 28.0965 120.681 28.3734L119.699 27.8996C119.699 27.2767 119.833 26.7283 120.109 26.2545C120.379 25.786 120.757 25.4187 121.232 25.1632C121.707 24.9076 122.258 24.7745 122.868 24.7745C123.478 24.7745 124.055 24.9023 124.536 25.1632C125.016 25.424 125.389 25.7754 125.653 26.2332C125.923 26.6858 126.053 27.2181 126.053 27.8197V32.9358H123.483H123.478Z" fill="#1B1B1B"/>
<path d="M131.641 33.1168C130.761 33.1168 129.983 32.9411 129.308 32.5844C128.628 32.2278 128.099 31.7326 127.705 31.0938C127.316 30.4603 127.122 29.7362 127.122 28.9217C127.122 28.1072 127.311 27.4204 127.689 26.7922C128.067 26.164 128.585 25.6636 129.238 25.3016C129.892 24.9396 130.631 24.7585 131.457 24.7585C132.283 24.7585 132.98 24.9289 133.59 25.2696C134.2 25.6103 134.686 26.0788 135.042 26.6857C135.398 27.2926 135.577 27.9794 135.577 28.7567C135.577 28.9111 135.566 29.0655 135.55 29.2252C135.533 29.3849 135.496 29.5606 135.442 29.7575L128.472 29.7895V28.0486L134.34 28.0167L133.239 28.7567C133.228 28.3095 133.158 27.9315 133.023 27.628C132.888 27.3246 132.694 27.0957 132.429 26.9306C132.164 26.7656 131.851 26.6857 131.49 26.6857C131.09 26.6857 130.745 26.7816 130.448 26.9679C130.151 27.1542 129.924 27.4098 129.762 27.7398C129.6 28.0699 129.519 28.4639 129.519 28.9217C129.519 29.3796 129.605 29.7842 129.778 30.1249C129.951 30.4656 130.194 30.7265 130.512 30.9075C130.831 31.0885 131.203 31.179 131.635 31.179C132.024 31.179 132.38 31.1098 132.704 30.9714C133.028 30.8329 133.309 30.6306 133.557 30.3538L134.972 31.7326C134.572 32.2065 134.086 32.5525 133.52 32.7761C132.953 32.9997 132.326 33.1115 131.635 33.1115L131.641 33.1168Z" fill="#1B1B1B"/>
<path d="M136.781 32.9359V24.9449H139.35V32.9359H136.781ZM139.35 28.5598L138.281 27.7399C138.492 26.7976 138.854 26.0683 139.356 25.5518C139.863 25.0354 140.554 24.7799 141.434 24.7799C141.823 24.7799 142.163 24.8385 142.46 24.9503C142.757 25.0621 143.016 25.2377 143.238 25.4667L141.72 27.3726C141.618 27.2661 141.488 27.1756 141.321 27.1117C141.154 27.0478 140.965 27.0159 140.754 27.0159C140.322 27.0159 139.977 27.1436 139.728 27.4045C139.48 27.6654 139.356 28.0487 139.356 28.5651L139.35 28.5598Z" fill="#1B1B1B"/>
<path d="M25.4541 32.8549C24.6118 32.8549 23.8452 32.6738 23.1703 32.3118C22.4901 31.9498 21.961 31.4494 21.5777 30.8159C21.1944 30.1823 21 29.469 21 28.6757C21 27.8825 21.1944 27.1585 21.5831 26.5303C21.9718 25.902 22.5063 25.4016 23.1865 25.0396C23.8668 24.6776 24.628 24.4966 25.4703 24.4966C26.1127 24.4966 26.7012 24.6031 27.2303 24.816C27.7594 25.029 28.2291 25.3431 28.6394 25.7636L26.9874 27.4087C26.7984 27.201 26.577 27.0467 26.3287 26.9508C26.0803 26.8497 25.7942 26.8018 25.4703 26.8018C25.1139 26.8018 24.7954 26.8816 24.5093 27.0413C24.2231 27.201 24.0018 27.4193 23.8398 27.7015C23.6778 27.9836 23.5969 28.3031 23.5969 28.6651C23.5969 29.0271 23.6778 29.3678 23.8398 29.65C24.0018 29.9374 24.2285 30.1557 24.5147 30.3154C24.8062 30.4751 25.1193 30.555 25.4649 30.555C25.8104 30.555 26.0965 30.5018 26.3557 30.39C26.6148 30.2782 26.8416 30.1238 27.0305 29.9108L28.6826 31.5239C28.2507 31.9605 27.7702 32.2959 27.2411 32.5195C26.712 32.7431 26.1181 32.8549 25.4487 32.8549H25.4541Z" fill="#FAFAFA"/>
<path d="M33.5092 32.8548C32.6615 32.8548 31.9057 32.6685 31.2416 32.2958C30.5722 31.9231 30.0485 31.4174 29.6544 30.7838C29.2656 30.1503 29.0713 29.4369 29.0713 28.6437C29.0713 27.8505 29.2656 27.1637 29.649 26.5408C30.0323 25.9179 30.556 25.4175 31.2254 25.0502C31.8949 24.6828 32.6561 24.5018 33.5092 24.5018C34.3622 24.5018 35.0964 24.6828 35.7713 25.0449C36.4462 25.4069 36.9752 25.902 37.364 26.5355C37.7527 27.1637 37.947 27.8718 37.947 28.649C37.947 29.4263 37.7527 30.1663 37.364 30.7945C36.9752 31.4227 36.4462 31.9284 35.7821 32.3011C35.118 32.6738 34.3568 32.8601 33.5146 32.8601L33.5092 32.8548ZM33.5092 30.5549C33.8655 30.5549 34.1786 30.4804 34.4594 30.326C34.7401 30.1716 34.9507 29.948 35.1018 29.6605C35.253 29.3677 35.3286 29.0377 35.3286 28.665C35.3286 28.2923 35.253 27.9836 35.0964 27.7014C34.9399 27.4192 34.7293 27.201 34.454 27.0413C34.1786 26.8815 33.8655 26.8017 33.5146 26.8017C33.1636 26.8017 32.8397 26.8815 32.5644 27.0413C32.2836 27.201 32.0677 27.4246 31.9111 27.7067C31.7545 27.9889 31.6789 28.3083 31.6789 28.6597C31.6789 29.0323 31.7545 29.3624 31.9111 29.6552C32.0677 29.948 32.2836 30.1663 32.5644 30.3207C32.8397 30.4751 33.1582 30.5496 33.5146 30.5496L33.5092 30.5549Z" fill="#FAFAFA"/>
<path d="M42.6657 32.8389C41.8883 32.8389 41.2026 32.6578 40.6087 32.2958C40.0149 31.9338 39.5506 31.4387 39.2158 30.8158C38.8811 30.193 38.7137 29.4796 38.7137 28.6757C38.7137 27.8718 38.8811 27.1637 39.2158 26.5355C39.5506 25.9127 40.0149 25.4176 40.6141 25.0555C41.2134 24.6935 41.8991 24.5125 42.6657 24.5125C43.211 24.5125 43.7131 24.6137 44.1666 24.816C44.6201 25.0183 44.9926 25.3058 45.2842 25.6731C45.5757 26.0404 45.7377 26.4663 45.7863 26.9455V30.3154C45.7431 30.7839 45.5757 31.2098 45.2842 31.5878C44.9926 31.9658 44.6255 32.2692 44.1666 32.4928C43.7077 32.7164 43.211 32.8282 42.6657 32.8282V32.8389ZM43.1138 30.555C43.481 30.555 43.7995 30.4751 44.064 30.3154C44.334 30.1557 44.5391 29.9321 44.6903 29.6499C44.8415 29.3624 44.9171 29.0377 44.9171 28.665C44.9171 28.2924 44.8415 27.9836 44.6903 27.7014C44.5391 27.4193 44.334 27.201 44.064 27.0413C43.7995 26.8816 43.4864 26.8017 43.13 26.8017C42.7737 26.8017 42.466 26.8816 42.196 27.0466C41.9261 27.2117 41.7155 27.4353 41.5536 27.7121C41.3916 27.9942 41.3106 28.3137 41.3106 28.6757C41.3106 29.0377 41.3862 29.3625 41.5374 29.6446C41.6885 29.9321 41.8991 30.1504 42.1798 30.3101C42.4552 30.4698 42.7683 30.5496 43.1138 30.5496V30.555ZM47.3304 32.6738H44.8091V30.5177L45.1924 28.5586L44.7605 26.6367V20.7327H47.3304V32.6685V32.6738Z" fill="#FAFAFA"/>
<path d="M53.1179 32.8549C52.2378 32.8549 51.4604 32.6792 50.7855 32.3225C50.1053 31.9658 49.5762 31.4707 49.1821 30.8318C48.7934 30.1983 48.599 29.4743 48.599 28.6597C48.599 27.8452 48.788 27.1585 49.1659 26.5303C49.5438 25.902 50.0621 25.4016 50.7154 25.0396C51.3686 24.6776 52.1083 24.4966 52.9343 24.4966C53.7603 24.4966 54.4568 24.6669 55.0668 25.0077C55.6769 25.3484 56.1628 25.8169 56.5191 26.4238C56.8755 27.0307 57.0536 27.7174 57.0536 28.4947C57.0536 28.6491 57.0428 28.8035 57.0266 28.9632C57.0104 29.1229 56.9727 29.2986 56.9187 29.4956L49.9487 29.5275V27.7867L55.8173 27.7547L54.7159 28.4947C54.7051 28.0475 54.6349 27.6695 54.5 27.3661C54.365 27.0626 54.1706 26.8337 53.9061 26.6687C53.6415 26.5036 53.3284 26.4238 52.9667 26.4238C52.5672 26.4238 52.2216 26.5196 51.9247 26.7059C51.6278 26.8923 51.401 27.1478 51.239 27.4779C51.0771 27.808 50.9961 28.2019 50.9961 28.6597C50.9961 29.1176 51.0825 29.5222 51.2552 29.8629C51.428 30.2036 51.671 30.4645 51.9895 30.6455C52.308 30.8265 52.6805 30.917 53.1125 30.917C53.5012 30.917 53.8575 30.8478 54.1814 30.7094C54.5054 30.571 54.7861 30.3687 55.0345 30.0918L56.449 31.4707C56.0494 31.9445 55.5635 32.2905 54.9967 32.5141C54.4298 32.7377 53.8035 32.8495 53.1125 32.8495L53.1179 32.8549Z" fill="#FAFAFA"/>
<rect x="34" y="196" width="194" height="32" fill="#8AD953" stroke="#1B1B1B" stroke-width="2"/>
<path d="M108.76 214.86V212.42H111.8C112.187 212.42 112.54 212.34 112.86 212.18C113.18 212.02 113.433 211.787 113.62 211.48C113.807 211.173 113.9 210.8 113.9 210.36C113.9 209.933 113.807 209.567 113.62 209.26C113.433 208.953 113.18 208.72 112.86 208.56C112.54 208.4 112.187 208.32 111.8 208.32H108.76V205.88H112.26C113.153 205.88 113.96 206.06 114.68 206.42C115.4 206.78 115.967 207.3 116.38 207.98C116.807 208.647 117.02 209.44 117.02 210.36C117.02 211.28 116.807 212.08 116.38 212.76C115.967 213.427 115.4 213.947 114.68 214.32C113.96 214.68 113.153 214.86 112.26 214.86H108.76ZM106.36 220V205.88H109.5V220H106.36ZM122.208 220.2C121.315 220.2 120.515 219.98 119.808 219.54C119.115 219.1 118.562 218.5 118.148 217.74C117.748 216.98 117.548 216.113 117.548 215.14C117.548 214.167 117.748 213.3 118.148 212.54C118.562 211.78 119.115 211.18 119.808 210.74C120.515 210.3 121.315 210.08 122.208 210.08C122.862 210.08 123.448 210.207 123.968 210.46C124.502 210.713 124.935 211.067 125.268 211.52C125.602 211.96 125.788 212.467 125.828 213.04V217.24C125.788 217.813 125.602 218.327 125.268 218.78C124.948 219.22 124.522 219.567 123.988 219.82C123.455 220.073 122.862 220.2 122.208 220.2ZM122.828 217.44C123.482 217.44 124.008 217.227 124.408 216.8C124.808 216.36 125.008 215.807 125.008 215.14C125.008 214.687 124.915 214.287 124.728 213.94C124.555 213.593 124.302 213.327 123.968 213.14C123.648 212.94 123.275 212.84 122.848 212.84C122.422 212.84 122.042 212.94 121.708 213.14C121.388 213.327 121.128 213.593 120.928 213.94C120.742 214.287 120.648 214.687 120.648 215.14C120.648 215.58 120.742 215.973 120.928 216.32C121.115 216.667 121.375 216.94 121.708 217.14C122.042 217.34 122.415 217.44 122.828 217.44ZM124.888 220V217.38L125.348 215.02L124.888 212.66V210.28H127.888V220H124.888ZM129.963 220V210.28H133.023V220H129.963ZM133.023 214.66L131.743 213.66C131.996 212.527 132.423 211.647 133.023 211.02C133.623 210.393 134.456 210.08 135.523 210.08C135.99 210.08 136.396 210.153 136.743 210.3C137.103 210.433 137.416 210.647 137.683 210.94L135.863 213.24C135.73 213.093 135.563 212.98 135.363 212.9C135.163 212.82 134.936 212.78 134.683 212.78C134.176 212.78 133.77 212.94 133.463 213.26C133.17 213.567 133.023 214.033 133.023 214.66ZM139.896 220V206.26H142.956V220H139.896ZM137.696 212.88V210.28H145.156V212.88H137.696ZM152.193 220V205.88H155.313V220H152.193ZM149.473 208.54V205.88H155.113V208.54H149.473Z" fill="#1B1B1B"/>
<defs>
<clipPath id="clip0_3220_652">
<rect width="130" height="122.925" fill="white" transform="translate(66 59)"/>
</clipPath>
</defs>
</svg>
