<svg width="50" height="50" viewBox="0 0 50 50" fill="none" xmlns="http://www.w3.org/2000/svg">
<path d="M9 9H44.78V44.78H9V9Z" fill="#F8FAFF"/>
<path fill-rule="evenodd" clip-rule="evenodd" d="M42.78 11H11V42.78H42.78V11ZM9 9V44.78H44.78V9H9Z" fill="#1B1B1B"/>
<g clip-path="url(#clip0_3210_231)">
<path d="M22.73 20.53C21.47 20.73 20.29 21.03 19.21 21.41C19.21 21.59 19.21 21.77 19.21 21.96C19.23 22.44 19.3 22.95 19.39 23.48C19.9 23.28 20.44 23.1 21.01 22.94C21.55 22.08 22.12 21.27 22.72 20.53H22.73Z" fill="#1B1B1B"/>
<path d="M17.73 31.21C15.86 30.14 15 28.88 15 27.74C15 26.6 15.8 25.44 17.52 24.39C17.37 23.66 17.28 22.94 17.23 22.26C14.84 23.5 13 25.38 13 27.74C13 30.1 14.86 32.01 17.28 33.25C17.36 33.29 17.44 33.32 17.52 33.36C17.52 33.24 17.52 33.11 17.52 32.99C17.55 32.42 17.62 31.82 17.73 31.21Z" fill="#1B1B1B"/>
<path d="M29.96 33.05C28.94 33.19 27.88 33.27 26.77 33.27C25.75 33.27 24.78 33.2 23.84 33.08C24.48 33.89 25.15 34.61 25.82 35.24C26.13 35.25 26.45 35.26 26.77 35.26C27.17 35.26 27.57 35.25 27.96 35.23C28.64 34.59 29.31 33.86 29.96 33.04V33.05Z" fill="#1B1B1B"/>
<path d="M40.52 27.74C40.52 25.46 38.8 23.63 36.51 22.39C36.46 23.08 36.36 23.79 36.2 24.52C37.78 25.53 38.51 26.69 38.51 27.74C38.51 28.79 37.71 30.04 35.99 31.08C36.11 31.73 36.19 32.37 36.22 32.98C36.22 33.07 36.22 33.15 36.22 33.24C38.64 32 40.5 30.11 40.5 27.73L40.52 27.74Z" fill="#1B1B1B"/>
<path d="M20.97 32.52C20.5 32.39 20.05 32.24 19.62 32.08C19.57 32.42 19.54 32.76 19.52 33.09C19.5 33.48 19.51 33.83 19.52 34.17C20.53 34.5 21.62 34.77 22.78 34.96C22.14 34.21 21.53 33.4 20.96 32.52H20.97Z" fill="#1B1B1B"/>
<path d="M31.02 34.91C32.16 34.71 33.25 34.44 34.24 34.1C34.25 33.78 34.26 33.45 34.24 33.09C34.22 32.74 34.18 32.37 34.13 32C33.73 32.16 33.3 32.3 32.86 32.44C32.28 33.33 31.66 34.15 31.02 34.92V34.91Z" fill="#1B1B1B"/>
<path d="M32.8 23.03C33.35 23.19 33.87 23.37 34.36 23.57C34.46 23.02 34.52 22.48 34.55 21.97C34.55 21.81 34.55 21.66 34.55 21.51C33.49 21.12 32.32 20.81 31.08 20.59C31.69 21.34 32.26 22.17 32.8 23.04V23.03Z" fill="#1B1B1B"/>
<path d="M32.8 23.03C31.93 22.77 30.98 22.57 29.98 22.44C30.52 23.16 31.04 23.93 31.52 24.77C32.13 25.82 32.63 26.87 33.03 27.9C33.43 26.97 33.76 26.05 34 25.17C33.77 24.7 33.52 24.23 33.25 23.77C33.11 23.52 32.95 23.28 32.8 23.04V23.03Z" fill="#1B1B1B"/>
<path d="M28.09 20.25C29.12 20.3 30.12 20.42 31.07 20.59C30.27 19.6 29.43 18.72 28.57 17.96C28.41 18.05 28.25 18.14 28.08 18.25C27.68 18.51 27.27 18.82 26.87 19.15C27.28 19.48 27.68 19.85 28.08 20.25H28.09Z" fill="#1B1B1B"/>
<path d="M32.61 37.72C31.69 38.25 30.32 38.19 28.64 37.31C28.12 37.75 27.59 38.15 27.06 38.49C27 38.53 26.94 38.56 26.88 38.6C29.12 40 31.61 40.6 33.61 39.45C35.6 38.3 36.32 35.87 36.24 33.25C35.62 33.56 34.95 33.85 34.24 34.1C34.15 35.98 33.52 37.19 32.61 37.72Z" fill="#1B1B1B"/>
<path d="M19.77 25.17C19.61 24.59 19.49 24.03 19.4 23.49C18.98 23.65 18.57 23.83 18.2 24.02C17.96 24.14 17.74 24.27 17.53 24.4C17.76 25.55 18.12 26.74 18.6 27.95C18.92 27.03 19.31 26.1 19.78 25.17H19.77Z" fill="#1B1B1B"/>
<path d="M19.21 21.42C19.21 19.28 19.86 17.91 20.85 17.35C21.83 16.78 23.34 16.9 25.19 17.96C25.75 17.47 26.32 17.03 26.89 16.66C26.85 16.63 26.81 16.6 26.77 16.57C24.47 15.09 21.9 14.42 19.85 15.61C17.79 16.8 17.08 19.35 17.22 22.07C17.22 22.13 17.23 22.2 17.24 22.26C17.26 22.26 17.27 22.24 17.29 22.23C17.88 21.93 18.53 21.65 19.22 21.41L19.21 21.42Z" fill="#1B1B1B"/>
<path d="M33.89 30.68C33.99 31.13 34.08 31.57 34.13 31.99C34.55 31.82 34.96 31.65 35.33 31.46C35.57 31.34 35.79 31.21 36.01 31.08C35.83 30.07 35.55 29.01 35.17 27.94C34.81 28.85 34.38 29.77 33.89 30.68Z" fill="#1B1B1B"/>
<path d="M22.79 34.96C23.54 35.84 24.32 36.63 25.12 37.31C25.4 37.17 25.68 37 25.98 36.81C26.28 36.62 26.58 36.39 26.88 36.16C26.52 35.88 26.17 35.57 25.81 35.24C24.77 35.2 23.75 35.11 22.79 34.95V34.96Z" fill="#1B1B1B"/>
<path d="M18.19 24.02C18.56 23.83 18.97 23.66 19.39 23.49C19.3 22.97 19.24 22.46 19.21 21.97C19.21 21.78 19.21 21.6 19.21 21.42C18.52 21.66 17.88 21.93 17.28 22.24C17.26 22.24 17.25 22.26 17.23 22.27C17.27 22.95 17.37 23.67 17.52 24.4C17.73 24.27 17.95 24.15 18.19 24.02Z" fill="#1B1B1B"/>
<path d="M23.83 33.08C22.82 32.95 21.85 32.77 20.96 32.52C21.53 33.4 22.15 34.21 22.78 34.96C23.75 35.12 24.76 35.21 25.8 35.25C25.13 34.62 24.46 33.9 23.82 33.09L23.83 33.08Z" fill="#1B1B1B"/>
<path d="M36.01 31.09C35.8 31.22 35.57 31.35 35.33 31.47C34.96 31.66 34.55 31.83 34.13 32C34.18 32.37 34.22 32.74 34.24 33.09C34.26 33.45 34.25 33.78 34.24 34.1C34.95 33.85 35.62 33.57 36.24 33.25C36.24 33.16 36.24 33.08 36.24 32.99C36.21 32.38 36.13 31.74 36.01 31.09Z" fill="#1B1B1B"/>
<path d="M32.8 23.03C32.26 22.16 31.68 21.34 31.08 20.58C30.12 20.41 29.13 20.29 28.1 20.24C28.74 20.89 29.38 21.62 29.98 22.43C30.98 22.57 31.93 22.77 32.8 23.02V23.03Z" fill="#1B1B1B"/>
<path d="M22.25 24.76C22.74 23.91 23.27 23.13 23.81 22.4C22.82 22.53 21.88 22.71 21.01 22.94C20.84 23.21 20.67 23.48 20.51 23.76C20.24 24.23 20 24.69 19.76 25.16C20 26.04 20.33 26.96 20.73 27.89C21.13 26.86 21.63 25.81 22.24 24.76H22.25Z" fill="#1B1B1B"/>
<path d="M34.36 23.57C34.27 24.09 34.15 24.62 34 25.17C34.46 26.1 34.85 27.03 35.18 27.95C35.64 26.79 35.99 25.64 36.22 24.53C35.95 24.36 35.66 24.19 35.34 24.02C35.03 23.86 34.71 23.72 34.36 23.58V23.57Z" fill="#1B1B1B"/>
<path d="M25.12 37.31C23.44 38.18 22.07 38.25 21.15 37.72C20.25 37.2 19.63 36.01 19.53 34.18C18.81 33.94 18.14 33.67 17.52 33.37C17.46 35.95 18.19 38.33 20.15 39.46C22.15 40.62 24.64 40.01 26.88 38.61C26.82 38.57 26.76 38.54 26.7 38.5C26.17 38.16 25.64 37.76 25.12 37.32V37.31Z" fill="#1B1B1B"/>
<path d="M32.92 17.34C33.92 17.92 34.57 19.32 34.56 21.5C35.16 21.72 35.73 21.96 36.25 22.23C36.34 22.28 36.43 22.33 36.52 22.38C36.52 22.28 36.54 22.17 36.55 22.06C36.69 19.34 35.98 16.78 33.92 15.6C31.86 14.41 29.3 15.08 27.01 16.56C26.97 16.59 26.93 16.62 26.89 16.65C27.46 17.03 28.03 17.46 28.59 17.95C30.44 16.89 31.95 16.77 32.93 17.34H32.92Z" fill="#1B1B1B"/>
<path d="M22.73 20.53C23.68 20.38 24.66 20.28 25.68 20.24C26.08 19.84 26.48 19.48 26.89 19.14C26.48 18.81 26.08 18.5 25.68 18.24C25.51 18.13 25.35 18.04 25.19 17.95C24.34 18.69 23.52 19.56 22.73 20.53Z" fill="#1B1B1B"/>
<path d="M31.02 34.91C30.04 35.08 29.02 35.19 27.96 35.24C27.6 35.57 27.24 35.88 26.89 36.16C27.19 36.4 27.49 36.62 27.79 36.81C28.08 37 28.37 37.16 28.65 37.31C29.47 36.62 30.26 35.81 31.03 34.91H31.02Z" fill="#1B1B1B"/>
<path d="M18.59 27.95C18.2 29.07 17.91 30.16 17.73 31.21C17.88 31.3 18.03 31.38 18.19 31.47C18.63 31.69 19.11 31.9 19.62 32.08C19.68 31.63 19.77 31.16 19.88 30.68C19.39 29.77 18.95 28.85 18.6 27.94L18.59 27.95Z" fill="#1B1B1B"/>
<path d="M25.67 20.24C24.65 20.28 23.67 20.38 22.72 20.53C22.12 21.27 21.55 22.08 21.01 22.94C21.88 22.7 22.82 22.52 23.81 22.4C24.41 21.6 25.03 20.88 25.67 20.24Z" fill="#1B1B1B"/>
<path d="M34.55 21.51C34.55 21.66 34.55 21.81 34.55 21.97C34.52 22.48 34.46 23.02 34.36 23.57C34.7 23.71 35.03 23.86 35.34 24.01C35.66 24.17 35.95 24.34 36.22 24.52C36.37 23.79 36.48 23.07 36.53 22.39C36.44 22.34 36.35 22.28 36.26 22.24C35.74 21.97 35.17 21.73 34.57 21.51H34.55Z" fill="#1B1B1B"/>
<path d="M27.96 35.24C29.02 35.19 30.04 35.08 31.02 34.91C31.66 34.15 32.28 33.33 32.86 32.43C31.97 32.7 30.99 32.9 29.96 33.05C29.31 33.87 28.64 34.6 27.96 35.24Z" fill="#1B1B1B"/>
<path d="M19.52 33.09C19.54 32.77 19.57 32.43 19.62 32.08C19.11 31.89 18.63 31.69 18.19 31.47C18.03 31.39 17.88 31.3 17.73 31.21C17.63 31.82 17.55 32.42 17.52 32.99C17.52 33.12 17.52 33.24 17.52 33.36C18.14 33.66 18.81 33.94 19.53 34.17C19.51 33.83 19.5 33.47 19.53 33.09H19.52Z" fill="#1B1B1B"/>
<path d="M19.77 25.17C19.31 26.1 18.92 27.03 18.59 27.95C18.95 28.86 19.38 29.78 19.87 30.69C20.07 29.8 20.36 28.86 20.73 27.91C20.33 26.98 20 26.06 19.76 25.18L19.77 25.17Z" fill="#1B1B1B"/>
<path d="M28.64 37.31C28.36 37.17 28.08 37 27.78 36.81C27.48 36.62 27.18 36.39 26.88 36.16C26.58 36.4 26.28 36.62 25.98 36.81C25.69 37 25.4 37.16 25.12 37.31C25.64 37.75 26.17 38.15 26.7 38.49C26.76 38.53 26.82 38.56 26.88 38.6C26.94 38.56 27 38.53 27.06 38.49C27.59 38.15 28.12 37.75 28.64 37.31Z" fill="#1B1B1B"/>
<path d="M25.6701 18.25C26.0701 18.51 26.4801 18.82 26.8801 19.15C27.2901 18.82 27.6901 18.51 28.0901 18.25C28.2601 18.14 28.4201 18.05 28.5801 17.96C28.0201 17.47 27.4501 17.03 26.8801 16.66C26.3101 17.04 25.7401 17.47 25.1801 17.96C25.3401 18.05 25.5001 18.14 25.6701 18.25Z" fill="#1B1B1B"/>
<path d="M33.89 30.68C34.38 29.77 34.82 28.85 35.17 27.94C34.85 27.02 34.46 26.09 33.99 25.16C33.75 26.04 33.42 26.96 33.02 27.89C33.39 28.85 33.68 29.78 33.88 30.67L33.89 30.68Z" fill="#1B1B1B"/>
<path d="M26.81 31.61C28.91 31.61 30.62 29.95 30.62 27.91C30.62 25.87 28.92 24.21 26.81 24.21C24.7 24.21 23 25.87 23 27.91C23 29.95 24.7 31.61 26.81 31.61Z" fill="#C7E8EF"/>
<path fill-rule="evenodd" clip-rule="evenodd" d="M22 27.91C22 25.2919 24.1739 23.21 26.81 23.21C29.4461 23.21 31.62 25.2919 31.62 27.91C31.62 30.5298 29.4344 32.61 26.81 32.61C24.1739 32.61 22 30.5281 22 27.91ZM26.81 25.21C25.2261 25.21 24 26.4481 24 27.91C24 29.3719 25.2261 30.61 26.81 30.61C28.3856 30.61 29.62 29.3702 29.62 27.91C29.62 26.4481 28.3939 25.21 26.81 25.21Z" fill="#1B1B1B"/>
</g>
<path d="M5 5H38.4545V13.6561H5V5Z" fill="#1B1B1B"/>
<path d="M38.4545 5H18.1011V13.6561H38.4545V5Z" fill="#73C92D"/>
<path fill-rule="evenodd" clip-rule="evenodd" d="M36.4545 7H20.1011V11.6561H36.4545V7ZM38.4545 5V13.6561H18.1011V5H38.4545Z" fill="#1B1B1B"/>
<defs>
<clipPath id="clip0_3210_231">
<rect width="27.52" height="25.06" fill="white" transform="translate(13 15)"/>
</clipPath>
</defs>
</svg>
