<svg width="40" height="40" viewBox="0 0 40 40" fill="none" xmlns="http://www.w3.org/2000/svg">
<path fill-rule="evenodd" clip-rule="evenodd" d="M36 2H4C2.89543 2 2 2.89543 2 4V36C2 37.1046 2.89543 38 4 38H36C37.1046 38 38 37.1046 38 36V4C38 2.89543 37.1046 2 36 2ZM4 0C1.79086 0 0 1.79086 0 4V36C0 38.2091 1.79086 40 4 40H36C38.2091 40 40 38.2091 40 36V4C40 1.79086 38.2091 0 36 0H4Z" fill="#1B1B1B" fill-opacity="0.2"/>
<path d="M35.0366 6.32114H23.4755C23.1208 6.32114 22.8333 6.6087 22.8333 6.96342V18.5245C22.8333 18.8792 23.1208 19.1667 23.4755 19.1667H35.0366C35.3913 19.1667 35.6789 18.8792 35.6789 18.5245V6.96342C35.6789 6.6087 35.3913 6.32114 35.0366 6.32114Z" fill="#1B1B1B" fill-opacity="0.2"/>
<path d="M4.48249 19.166C4.45357 19.1658 4.42524 19.1579 4.40047 19.1429C4.3757 19.128 4.35542 19.1067 4.34177 19.0812C4.32812 19.0557 4.32161 19.027 4.32292 18.9981C4.32423 18.9692 4.33332 18.9412 4.34922 18.9171L12.6989 6.3926C12.7135 6.37075 12.7334 6.35284 12.7566 6.34045C12.7799 6.32807 12.8058 6.32159 12.8321 6.32159C12.8585 6.32159 12.8844 6.32807 12.9076 6.34045C12.9309 6.35284 12.9507 6.37075 12.9654 6.3926L21.315 18.9171C21.331 18.9413 21.3401 18.9693 21.3414 18.9983C21.3426 19.0273 21.336 19.056 21.3223 19.0815C21.3086 19.1071 21.2882 19.1284 21.2633 19.1432C21.2384 19.1581 21.2099 19.166 21.181 19.166H4.48249Z" fill="#1B1B1B" fill-opacity="0.2"/>
<path d="M24.1066 34.3904C24.064 34.3904 24.0232 34.3735 23.9931 34.3434C23.963 34.3133 23.9461 34.2724 23.9461 34.2298V30.666C23.9461 29.6194 23.5303 28.6157 22.7903 27.8757C22.0503 27.1357 21.0466 26.72 20 26.72C18.9535 26.72 17.9498 27.1357 17.2098 27.8757C16.4698 28.6157 16.054 29.6194 16.054 30.666V34.2298C16.054 34.2724 16.0371 34.3133 16.007 34.3434C15.9769 34.3735 15.9361 34.3904 15.8935 34.3904H4.42476C4.37498 34.3904 4.31958 34.3214 4.31958 34.2298V21.7319C4.31958 21.6395 4.37498 21.5713 4.42476 21.5713H35.5753C35.6251 21.5713 35.6805 21.6395 35.6805 21.7319V34.2298C35.6805 34.3214 35.6251 34.3904 35.5753 34.3904H24.1066Z" fill="#1B1B1B" fill-opacity="0.2"/>
</svg>
