<svg width="40" height="40" viewBox="0 0 40 40" fill="none" xmlns="http://www.w3.org/2000/svg">
<path fill-rule="evenodd" clip-rule="evenodd" d="M36 2H4C2.89543 2 2 2.89543 2 4V36C2 37.1046 2.89543 38 4 38H36C37.1046 38 38 37.1046 38 36V4C38 2.89543 37.1046 2 36 2ZM4 0C1.79086 0 0 1.79086 0 4V36C0 38.2091 1.79086 40 4 40H36C38.2091 40 40 38.2091 40 36V4C40 1.79086 38.2091 0 36 0H4Z" fill="#1B1B1B" fill-opacity="0.2"/>
<path d="M26.3692 19.9937L28.8026 17.5597C31.6038 14.7585 33.8363 11.6034 35.5 8.23908V4.5H26.9546C25.7532 6.83466 24.1757 9.02402 22.222 10.9784L19.7886 13.4125C15.5532 9.17559 10.0537 6.97372 4.50487 6.80477L4.60151 16.1253C7.73432 16.3103 10.8143 17.5993 13.2081 19.9937C10.7886 22.4139 7.66758 23.705 4.5 23.8677L4.60151 33.1792C10.1177 32.988 15.5775 30.7869 19.7886 26.575L22.222 29.0084C24.1792 30.9662 25.7588 33.1605 26.9616 35.5H35.5V31.7477C33.8363 28.3834 31.6038 25.229 28.8026 22.4271L26.3692 19.993V19.9937Z" fill="#1B1B1B" fill-opacity="0.2"/>
</svg>
