<svg width="50" height="50" viewBox="0 0 50 50" fill="none" xmlns="http://www.w3.org/2000/svg">
<path d="M9.17993 9H44.9599V44.78H9.17993V9Z" fill="#F8FAFF"/>
<path fill-rule="evenodd" clip-rule="evenodd" d="M42.9599 11H11.1799V42.78H42.9599V11ZM9.17993 9V44.78H44.9599V9H9.17993Z" fill="#1B1B1B"/>
<path d="M13.7429 35.7525C13.7429 33.6094 15.4803 31.8721 17.6234 31.8721H25.3843C27.5274 31.8721 29.2647 33.6094 29.2647 35.7525C29.2647 37.8956 27.5274 39.633 25.3843 39.633H17.6234C15.4803 39.633 13.7429 37.8956 13.7429 35.7525Z" fill="#B4E791"/>
<path fill-rule="evenodd" clip-rule="evenodd" d="M25.3843 33.8721H17.6234C16.5848 33.8721 15.7429 34.714 15.7429 35.7525C15.7429 36.7911 16.5848 37.633 17.6234 37.633H25.3843C26.4228 37.633 27.2647 36.7911 27.2647 35.7525C27.2647 34.714 26.4228 33.8721 25.3843 33.8721ZM17.6234 31.8721C15.4803 31.8721 13.7429 33.6094 13.7429 35.7525C13.7429 37.8956 15.4803 39.633 17.6234 39.633H25.3843C27.5274 39.633 29.2647 37.8956 29.2647 35.7525C29.2647 33.6094 27.5274 31.8721 25.3843 31.8721H17.6234Z" fill="#1B1B1B"/>
<path d="M29.2647 20.5055C29.2647 22.6486 25.7901 24.3859 21.5038 24.3859C17.2176 24.3859 13.7429 22.6486 13.7429 20.5055C13.7429 18.3623 17.2176 16.625 21.5038 16.625C25.7901 16.625 29.2647 18.3623 29.2647 20.5055Z" fill="#FFC587"/>
<path fill-rule="evenodd" clip-rule="evenodd" d="M27.2599 20.5055C27.2341 20.4319 27.0746 20.0391 26.0972 19.5504C25.025 19.0143 23.4038 18.625 21.5038 18.625C19.6039 18.625 17.9827 19.0143 16.9105 19.5504C15.933 20.0391 15.7735 20.4319 15.7478 20.5055C15.7735 20.579 15.933 20.9718 16.9105 21.4605C17.9827 21.9966 19.6039 22.3859 21.5038 22.3859C23.4038 22.3859 25.025 21.9966 26.0972 21.4605C27.0746 20.9718 27.2341 20.579 27.2599 20.5055ZM21.5038 24.3859C25.7901 24.3859 29.2647 22.6486 29.2647 20.5055C29.2647 18.3623 25.7901 16.625 21.5038 16.625C17.2176 16.625 13.7429 18.3623 13.7429 20.5055C13.7429 22.6486 17.2176 24.3859 21.5038 24.3859Z" fill="#1B1B1B"/>
<path d="M33.6108 22.8516L42.9239 27.6633L33.6108 32.4751L24.2977 27.6633L33.6108 22.8516Z" fill="#C7E8EF"/>
<path fill-rule="evenodd" clip-rule="evenodd" d="M33.6108 25.1027L28.6548 27.6633L33.6108 30.2239L38.5668 27.6633L33.6108 25.1027ZM33.6108 22.8516L24.2977 27.6633L33.6108 32.4751L42.9239 27.6633L33.6108 22.8516Z" fill="#1B1B1B"/>
<path fill-rule="evenodd" clip-rule="evenodd" d="M20.5039 33.8721L20.5039 23.2307L22.5039 23.2307L22.5039 33.8721L20.5039 33.8721Z" fill="#1B1B1B"/>
<path fill-rule="evenodd" clip-rule="evenodd" d="M32.6108 21.5054H28.1095V19.5054H34.6108V24.0844H32.6108V21.5054Z" fill="#1B1B1B"/>
<path fill-rule="evenodd" clip-rule="evenodd" d="M32.6108 35.063L32.6108 31.1647L34.6108 31.1647L34.6108 37.063L28.1095 37.063L28.1095 35.063L32.6108 35.063Z" fill="#1B1B1B"/>
<path d="M5 5H38.4545V13.6561H5V5Z" fill="#1B1B1B"/>
<path d="M38.4545 5H18.1011V13.6561H38.4545V5Z" fill="#73C92D"/>
<path fill-rule="evenodd" clip-rule="evenodd" d="M36.4545 7H20.1011V11.6561H36.4545V7ZM38.4545 5V13.6561H18.1011V5H38.4545Z" fill="#1B1B1B"/>
</svg>
