<svg width="50" height="50" viewBox="0 0 50 50" fill="none" xmlns="http://www.w3.org/2000/svg">
<path d="M10.1819 43.962V10.1818H43.9621V43.962H10.1819Z" fill="#F8FAFF" stroke="#1B1B1B" stroke-width="2" stroke-miterlimit="10"/>
<path d="M27.6192 24.5563L27.6104 35.6983C27.6104 35.6983 28.2258 41.1488 22.4236 41.1488C19.7976 41.1488 18.3418 39.6719 17.5356 38.0561L20.2258 36.4015C20.2258 36.4015 21.0644 38.2767 22.5827 38.1106C23.7422 37.984 24.1818 37.4565 24.2697 35.3466L24.2363 24.5563H27.6192Z" fill="#1B1B1B"/>
<path d="M37.5445 28.7531L40.1818 27.0828C40.1818 27.0828 39.0337 24.9316 37.0583 24.5562C35.0829 24.1817 33.3247 24.3575 31.7423 25.6762C30.1599 26.9949 30.2478 29.7202 30.8632 30.9509C31.4785 32.1817 32.7972 33.1487 34.2917 33.7641C35.7862 34.3795 37.1049 34.9949 37.5445 35.6103C37.984 36.2257 37.8961 37.8081 36.2258 38.0718C34.5555 38.3356 33.1489 37.7202 32.1818 36.1378L29.3687 37.7202C29.3687 37.7202 31.2148 41.5004 36.2258 41.0608C36.2258 41.0608 41.2368 41.1487 41.1489 36.0498C41.1489 36.0498 41.3247 33.2367 37.8961 31.7422C34.4676 30.2476 33.4126 29.896 33.8522 28.2257C34.2917 26.5553 37.1049 27.2586 37.5445 28.7531Z" fill="#1B1B1B"/>
<rect x="5" y="5" width="33.4545" height="8.65607" fill="#1B1B1B"/>
<path d="M19.1011 12.6561V6H37.4545V12.6561H19.1011Z" fill="#73C92D" stroke="#1B1B1B" stroke-width="2"/>
</svg>
