<svg width="50" height="50" viewBox="0 0 50 50" fill="none" xmlns="http://www.w3.org/2000/svg">
<path d="M44.962 8.99994H9.18176V44.7802H44.962V8.99994Z" fill="#F8FAFF"/>
<path fill-rule="evenodd" clip-rule="evenodd" d="M42.962 10.9999H11.1818V42.7802H42.962V10.9999ZM44.962 8.99994V44.7802H9.18176V8.99994H44.962Z" fill="#1B1B1B"/>
<path d="M27.619 24.3745L27.6102 35.5164C27.6102 35.5164 28.2256 40.967 22.4234 40.967C19.7975 40.967 18.3417 39.4901 17.5355 37.8742L20.2256 36.2197C20.2256 36.2197 21.0643 38.0949 22.5826 37.9287C23.7421 37.8021 24.1817 37.2747 24.2696 35.1648L24.2362 24.3745H27.619Z" fill="#1B1B1B"/>
<path d="M37.5444 28.5713L40.1817 26.901C40.1817 26.901 39.0336 24.7498 37.0582 24.3744C35.0828 23.9999 33.3246 24.1757 31.7422 25.4944C30.1597 26.8131 30.2477 29.5384 30.863 30.7691C31.4784 31.9999 32.7971 32.9669 34.2916 33.5823C35.7861 34.1977 37.1048 34.8131 37.5444 35.4285C37.9839 36.0438 37.896 37.6263 36.2257 37.89C34.5553 38.1537 33.1488 37.5384 32.1817 35.9559L29.3685 37.5384C29.3685 37.5384 31.2147 41.3186 36.2257 40.879C36.2257 40.879 41.2367 40.9669 41.1488 35.868C41.1488 35.868 41.3246 33.0548 37.896 31.5603C34.4674 30.0658 33.4125 29.7142 33.852 28.0438C34.2916 26.3735 37.1048 27.0768 37.5444 28.5713Z" fill="#1B1B1B"/>
<path d="M5 5H38.4545V13.6561H5V5Z" fill="#1B1B1B"/>
<path d="M38.4545 5H18.1011V13.6561H38.4545V5Z" fill="#73C92D"/>
<path fill-rule="evenodd" clip-rule="evenodd" d="M36.4545 7H20.1011V11.6561H36.4545V7ZM38.4545 5V13.6561H18.1011V5H38.4545Z" fill="#1B1B1B"/>
</svg>
