<svg width="50" height="50" viewBox="0 0 50 50" fill="none" xmlns="http://www.w3.org/2000/svg">
<path d="M9 9H44.78V44.78H9V9Z" fill="#F8FAFF"/>
<path fill-rule="evenodd" clip-rule="evenodd" d="M42.9599 11H11.1799V42.78H42.9599V11ZM9.17993 9V44.78H44.9599V9H9.17993Z" fill="#1B1B1B"/>
<path d="M5 5H38.4545V13.6561H5V5Z" fill="#1B1B1B"/>
<path d="M38.4545 5H18.1011V13.6561H38.4545V5Z" fill="#73C92D"/>
<path fill-rule="evenodd" clip-rule="evenodd" d="M36.4545 7H20.1011V11.6561H36.4545V7ZM38.4545 5V13.6561H18.1011V5H38.4545Z" fill="#1B1B1B"/>
<g clip-path="url(#clip0_3210_309)">
<path d="M27.84 29.63C27.31 30.59 27.08 31.63 27.11 32.65C26.86 32.22 26.66 31.76 26.52 31.28H26.51C27.03 30.82 27.49 30.27 27.84 29.63Z" fill="#82C6D1"/>
<path d="M28.35 25.15C27.83 25.6 27.38 26.15 27.02 26.78C27.55 25.82 27.78 24.78 27.75 23.76C27.74 23.29 27.67 22.82 27.55 22.37C27.81 22.91 28.21 24.68 28.34 25.14L28.35 25.15Z" fill="#82C6D1"/>
<path d="M38.05 29.51C38.3 29.94 38.5 30.4 38.64 30.88C39.06 32.33 38.92 33.95 38.13 35.37C36.56 38.22 32.98 39.24 30.14 37.66C28.72 36.87 27.76 35.58 27.34 34.13L26.52 31.27C26.66 31.75 26.85 32.21 27.11 32.64C27.63 33.52 28.37 34.28 29.33 34.81C32.17 36.4 35.75 35.37 37.32 32.52C37.85 31.56 38.08 30.52 38.05 29.5V29.51Z" fill="#82C6D1"/>
<path d="M27.55 22.38C27.67 22.83 27.74 23.3 27.75 23.77C27.23 22.89 26.49 22.13 25.53 21.6C22.69 20.01 19.11 21.04 17.54 23.89C17.01 24.85 16.78 25.89 16.81 26.91C16.56 26.48 16.36 26.02 16.22 25.54C15.8 24.09 15.94 22.47 16.73 21.05C18.31 18.19 21.89 17.16 24.73 18.75C26.15 19.54 27.12 20.84 27.53 22.29C27.53 22.32 27.55 22.35 27.55 22.37V22.38Z" fill="#82C6D1"/>
<path d="M37.8199 28.04C37.9599 28.52 38.0299 29.01 38.0499 29.51C37.5299 28.63 36.7899 27.87 35.8299 27.34C32.9899 25.75 29.4099 26.78 27.8399 29.63C27.4899 30.27 27.0299 30.82 26.5099 31.26C24.6999 32.8 22.0499 33.14 19.8499 31.91C18.6099 31.22 17.7099 30.14 17.2299 28.9L16.9399 27.91C16.8699 27.58 16.8299 27.24 16.8199 26.89C17.3399 27.77 18.0799 28.53 19.0399 29.06C21.8799 30.65 25.4599 29.62 27.0299 26.77C27.3799 26.13 27.8299 25.59 28.3599 25.14C30.1699 23.59 32.8199 23.25 35.0199 24.48C36.4399 25.27 37.4099 26.57 37.8199 28.02V28.04Z" fill="#C7E8EF"/>
<path d="M39.5901 30.61L39.5001 30.28C39.5001 30.28 39.4801 30.2 39.4701 30.16L38.7801 27.76C38.5201 26.84 37.5001 23.73 35.5001 22.62C33.4001 21.44 30.8501 21.49 28.8001 22.64C28.7401 22.52 28.6801 22.4 28.6301 22.29L28.4901 22.01C27.9801 20.24 26.8201 18.77 25.2101 17.87C23.6101 16.98 21.7501 16.76 19.9801 17.27C18.2101 17.77 16.7501 18.94 15.8601 20.55C14.9701 22.16 14.7601 24.03 15.2701 25.81L15.9601 28.16C16.0401 28.54 16.1501 28.92 16.2901 29.28C16.8701 30.77 17.9601 32.02 19.3601 32.79C20.4001 33.37 21.5501 33.66 22.7001 33.66C23.9101 33.66 25.1101 33.34 26.1701 32.72L26.3701 33.42C26.8801 35.19 28.0401 36.65 29.6401 37.54C30.6801 38.12 31.8201 38.42 32.9801 38.42C33.6101 38.42 34.2501 38.33 34.8701 38.15C36.6401 37.64 38.1001 36.48 38.9901 34.86C39.8801 33.24 39.9001 31.96 39.5701 30.61H39.5901ZM26.6501 23.91C26.5501 24.39 26.3901 24.86 26.1501 25.3C25.5201 26.44 24.4801 27.27 23.2301 27.63C21.9801 27.99 20.6601 27.84 19.5201 27.2C18.8801 26.84 18.3401 26.34 17.9201 25.75C18.0201 25.27 18.1801 24.8 18.4201 24.36C19.0501 23.22 20.0901 22.39 21.3401 22.03C22.5901 21.67 23.9101 21.83 25.0501 22.46C25.6901 22.82 26.2301 23.32 26.6501 23.91ZM17.6101 21.52C18.2401 20.38 19.2801 19.55 20.5301 19.19C20.9701 19.06 21.4201 19 21.8701 19C22.6901 19 23.5001 19.21 24.2401 19.62C24.5901 19.82 24.9201 20.05 25.2101 20.32C23.8101 19.76 22.2701 19.68 20.8001 20.1C19.3301 20.52 18.0701 21.4 17.1701 22.62C17.2701 22.24 17.4201 21.87 17.6201 21.51L17.6101 21.52ZM20.3301 31.04C19.4101 30.53 18.6901 29.72 18.2601 28.76C18.3501 28.82 18.4401 28.89 18.5401 28.94C19.5801 29.52 20.7201 29.82 21.8801 29.82C22.5101 29.82 23.1501 29.73 23.7701 29.55C24.3801 29.38 24.9501 29.12 25.4701 28.8V28.82C26.8501 28.06 27.3701 27.18 27.8301 26.4C28.1501 25.86 28.4201 25.4 28.9901 24.92C30.5301 23.61 32.7501 23.39 34.5201 24.38C35.1001 24.7 35.6501 25.47 36.0901 26.36C34.5301 25.56 32.7601 25.39 31.0701 25.87C29.3001 26.38 27.8401 27.54 26.9501 29.16C26.6601 29.68 26.2901 30.14 25.8501 30.52C24.3101 31.83 22.1001 32.05 20.3301 31.06V31.04ZM28.7101 30.11C29.3401 28.97 30.3801 28.14 31.6301 27.78C32.8801 27.42 34.2001 27.57 35.3401 28.21C35.9101 28.53 36.4001 28.95 36.8001 29.46C36.8001 30.01 36.6701 30.61 36.4301 31.04C35.8001 32.18 34.7601 33.01 33.5101 33.37C32.2601 33.73 30.9401 33.58 29.8001 32.94C29.1601 32.58 28.6201 32.08 28.2001 31.49C28.3001 31.01 28.4601 30.54 28.7001 30.1L28.7101 30.11ZM37.2401 33.88C36.6101 35.02 35.5701 35.85 34.3201 36.21C33.0701 36.57 31.7501 36.42 30.6101 35.78C30.2601 35.58 29.9301 35.35 29.6501 35.08C31.0501 35.64 32.5901 35.72 34.0601 35.3C35.5401 34.88 36.8001 34 37.6901 32.78C37.6101 33.14 37.4601 33.49 37.2401 33.89V33.88Z" fill="#1B1B1B"/>
</g>
<defs>
<clipPath id="clip0_3210_309">
<rect width="24.78" height="21.41" fill="white" transform="translate(15 17)"/>
</clipPath>
</defs>
</svg>
