<svg width="40" height="40" viewBox="0 0 40 40" fill="none" xmlns="http://www.w3.org/2000/svg">
<path d="M35.0366 6.32129H23.4755C23.1208 6.32129 22.8333 6.60885 22.8333 6.96357V18.5246C22.8333 18.8793 23.1208 19.1669 23.4755 19.1669H35.0366C35.3913 19.1669 35.6789 18.8793 35.6789 18.5246V6.96357C35.6789 6.60885 35.3913 6.32129 35.0366 6.32129Z" fill="#1B1B1B" fill-opacity="0.2"/>
<path d="M4.48249 19.1661C4.45357 19.166 4.42524 19.158 4.40047 19.1431C4.3757 19.1282 4.35542 19.1069 4.34177 19.0814C4.32812 19.0559 4.32161 19.0272 4.32292 18.9983C4.32423 18.9694 4.33332 18.9414 4.34922 18.9173L12.6989 6.39279C12.7135 6.37093 12.7334 6.35302 12.7566 6.34064C12.7799 6.32825 12.8058 6.32178 12.8321 6.32178C12.8585 6.32178 12.8844 6.32825 12.9076 6.34064C12.9309 6.35302 12.9507 6.37093 12.9654 6.39279L21.315 18.9173C21.331 18.9415 21.3401 18.9695 21.3414 18.9985C21.3426 19.0274 21.336 19.0562 21.3223 19.0817C21.3086 19.1072 21.2882 19.1286 21.2633 19.1434C21.2384 19.1583 21.2099 19.1661 21.181 19.1661H4.48249Z" fill="#1B1B1B" fill-opacity="0.2"/>
<path d="M24.1066 34.3904C24.064 34.3904 24.0231 34.3735 23.993 34.3434C23.9629 34.3133 23.946 34.2724 23.946 34.2298V30.666C23.946 29.6194 23.5303 28.6157 22.7902 27.8757C22.0502 27.1357 21.0465 26.72 20 26.72C18.9534 26.72 17.9498 27.1357 17.2097 27.8757C16.4697 28.6157 16.054 29.6194 16.054 30.666V34.2298C16.054 34.2724 16.0371 34.3133 16.0069 34.3434C15.9768 34.3735 15.936 34.3904 15.8934 34.3904H4.4247C4.37492 34.3904 4.31952 34.3214 4.31952 34.2298V21.7319C4.31952 21.6395 4.37492 21.5713 4.4247 21.5713H35.5753C35.6251 21.5713 35.6805 21.6395 35.6805 21.7319V34.2298C35.6805 34.3214 35.6251 34.3904 35.5753 34.3904H24.1066Z" fill="#1B1B1B" fill-opacity="0.2"/>
<rect x="0.5" y="0.5" width="39" height="39" rx="3.5" stroke="#1B1B1B" stroke-opacity="0.2"/>
</svg>
