<svg width="50" height="50" viewBox="0 0 50 50" fill="none" xmlns="http://www.w3.org/2000/svg">
<path d="M10 43.7802V10H43.7802V43.7802H10Z" fill="#F8FAFF" stroke="#1B1B1B" stroke-width="2" stroke-miterlimit="10"/>
<path d="M34.6344 31.6857C35.0038 29.517 33.9426 27.3738 32.0611 26.324L33.6954 20.3312L30.1333 19.3597L28.4989 25.3525C26.3443 25.3015 24.3419 26.6092 23.5598 28.6654C27.0716 30.2428 30.8086 31.262 34.6344 31.6857Z" fill="#82C6D1" stroke="black" stroke-width="2" stroke-miterlimit="10"/>
<path d="M23.5151 29.8355C26.9259 31.3697 30.5621 32.3447 34.282 32.7246C33.6418 39.3243 30.2087 39.1549 30.2087 39.1549L21.5 37.4999C22.2267 37.0107 23.0707 36.0567 23.6341 35.3736C22.0641 36.5634 17.4625 36.8347 17.0001 36C17.0001 36 21.3672 34.9542 23.247 29.7151L23.5151 29.8355Z" fill="white" stroke="black" stroke-width="2" stroke-miterlimit="10"/>
<path d="M17 16.4208L17.8137 21.5815C17.9242 22.2821 18.3974 22.8718 19.0575 23.1313L21.267 24L19.0575 24.8687C18.3974 25.1282 17.9241 25.7179 17.8137 26.4185L17 31.5792L16.1863 26.4185C16.0759 25.7179 15.6026 25.1282 14.9425 24.8687L12.733 24L14.9425 23.1313C15.6026 22.8718 16.0759 22.2821 16.1863 21.5815L17 16.4208Z" fill="#C7E8EF" stroke="black" stroke-width="2"/>
<path d="M25.1752 20.1327L25.5266 19.1965L25.1752 20.1327L26.1539 20.5L25.1752 20.8673L25.5266 21.8035L25.1752 20.8673C24.5057 21.1186 24.0212 21.7082 23.9047 22.4138L23.5 24.8638L23.0953 22.4138C22.9788 21.7082 22.4943 21.1186 21.8248 20.8673L21.4734 21.8035L21.8248 20.8673L20.8461 20.5L21.8248 20.1327C22.4943 19.8814 22.9788 19.2918 23.0953 18.5862L23.5 16.1362L23.9047 18.5862C24.0212 19.2918 24.5057 19.8814 25.1752 20.1327Z" fill="#C7E8EF" stroke="black" stroke-width="2"/>
<path d="M38.5 21.8519L38.9006 24.1615C39.0237 24.8716 39.5194 25.4605 40.198 25.7031L41.0288 26L40.198 26.2969C39.5194 26.5395 39.0237 27.1284 38.9006 27.8385L38.5 30.1481L38.0994 27.8385C37.9763 27.1284 37.4806 26.5395 36.802 26.2969L35.9712 26L36.802 25.7031C37.4806 25.4605 37.9763 24.8716 38.0994 24.1615L38.5 21.8519Z" fill="#C7E8EF" stroke="black" stroke-width="2"/>
<rect x="5" y="5" width="33.4545" height="8.65607" fill="#1B1B1B"/>
<path d="M19.1011 12.6561V6H37.4545V12.6561H19.1011Z" fill="#73C92D" stroke="#1B1B1B" stroke-width="2"/>
</svg>
