<svg width="1440" height="560" viewBox="0 0 1440 560" fill="none" xmlns="http://www.w3.org/2000/svg">
<path d="M1267.5 92.5V467.5H892.5V92.5H1267.5V92.5ZM1267.5 80H892.5C889.185 80 886.005 81.317 883.661 83.6612C881.317 86.0054 880 89.1848 880 92.5V467.5C880 470.815 881.317 473.995 883.661 476.339C886.005 478.683 889.185 480 892.5 480H1267.5C1270.82 480 1273.99 478.683 1276.34 476.339C1278.68 473.995 1280 470.815 1280 467.5V92.5C1280 89.1848 1278.68 86.0054 1276.34 83.6612C1273.99 81.317 1270.82 80 1267.5 80Z" fill="white" fill-opacity="0.2"/>
<path d="M1242.43 127.37H1116.86C1111.68 127.37 1107.49 131.567 1107.49 136.745V262.315C1107.49 267.493 1111.68 271.69 1116.86 271.69H1242.43C1247.61 271.69 1251.81 267.493 1251.81 262.315V136.745C1251.81 131.567 1247.61 127.37 1242.43 127.37Z" fill="white" fill-opacity="0.2"/>
<path d="M1000.02 129.096L909.783 264.409C909.314 265.115 909.045 265.936 909.005 266.783C908.965 267.63 909.156 268.471 909.557 269.219C909.958 269.966 910.554 270.59 911.281 271.026C912.009 271.461 912.841 271.69 913.689 271.69H1094.16C1095.01 271.69 1095.84 271.461 1096.57 271.026C1097.29 270.59 1097.89 269.966 1098.29 269.219C1098.69 268.471 1098.88 267.63 1098.84 266.783C1098.8 265.936 1098.53 265.115 1098.06 264.409L1007.83 129.096C1007.4 128.452 1006.82 127.923 1006.14 127.557C1005.46 127.191 1004.7 127 1003.92 127C1003.15 127 1002.39 127.191 1001.71 127.557C1001.03 127.923 1000.44 128.452 1000.02 129.096V129.096Z" fill="white" fill-opacity="0.2"/>
<path d="M1247.24 290.549H913.963C911.439 290.549 909.393 292.893 909.393 295.706V429.416C909.393 432.26 911.439 434.573 913.963 434.573H1036.62C1037.99 434.573 1039.3 434.029 1040.27 433.062C1041.23 432.096 1041.78 430.784 1041.78 429.416V391.307C1041.78 381.02 1045.86 371.153 1053.14 363.879C1060.41 356.605 1070.28 352.518 1080.56 352.518V352.518C1085.66 352.513 1090.71 353.512 1095.42 355.459C1100.13 357.407 1104.41 360.263 1108.02 363.865C1111.62 367.468 1114.48 371.745 1116.44 376.454C1118.39 381.163 1119.39 386.21 1119.39 391.307V429.416C1119.39 430.783 1119.93 432.093 1120.9 433.06C1121.87 434.026 1123.17 434.571 1124.54 434.573H1247.2C1249.72 434.573 1251.77 432.229 1251.77 429.416V295.706C1251.81 292.862 1249.76 290.549 1247.24 290.549Z" fill="white" fill-opacity="0.2"/>
</svg>
