<svg width="1440" height="560" viewBox="0 0 1440 560" fill="none" xmlns="http://www.w3.org/2000/svg">
<path d="M1151.45 279.391L1178.8 252.106C1209.43 221.599 1234.85 186.296 1254.06 147.597V105.664H1158.02C1144.18 132.479 1126.24 156.982 1104.85 178.296L1077.51 205.581C1031.85 159.899 970.389 133.398 905.758 131.522L906.844 236.031C943.314 238.143 977.729 253.578 1003.52 279.391C977.445 305.494 942.563 320.976 905.672 322.821L906.812 427.229C971.066 425.085 1032.09 398.604 1077.48 353.17L1104.82 380.455C1126.25 401.81 1144.22 426.368 1158.07 453.243H1254.05V411.146C1234.84 372.45 1209.42 337.148 1178.8 306.637L1151.45 279.391Z" fill="white" fill-opacity="0.2"/>
<path d="M1267.5 92.4731V466.668H892.5V92.4731H1267.5V92.4731ZM1267.5 80H892.5C889.185 80 886.005 81.3141 883.661 83.6533C881.317 85.9925 880 89.1651 880 92.4731V466.668C880 469.976 881.317 473.148 883.661 475.487C886.005 477.827 889.185 479.141 892.5 479.141H1267.5C1270.82 479.141 1273.99 477.827 1276.34 475.487C1278.68 473.148 1280 469.976 1280 466.668V92.4731C1280 89.1651 1278.68 85.9925 1276.34 83.6533C1273.99 81.3141 1270.82 80 1267.5 80Z" fill="white" fill-opacity="0.2"/>
</svg>
