<svg width="180" height="130" viewBox="0 0 180 130" fill="none" xmlns="http://www.w3.org/2000/svg">
<path d="M114 1H16C7.71573 1 1 7.71573 1 16V114C1 122.284 7.71573 129 16 129H114C122.284 129 129 122.284 129 114V16C129 7.71573 122.284 1 114 1Z" fill="#8FDFF3"/>
<path d="M114 2C121.72 2 128 8.28 128 16V114C128 121.72 121.72 128 114 128H16C8.28 128 2 121.72 2 114V16C2 8.28 8.28 2 16 2H114ZM114 0H16C7.16 0 0 7.16 0 16V114C0 122.84 7.16 130 16 130H114C122.84 130 130 122.84 130 114V16C130 7.16 122.84 0 114 0Z" fill="#1B1B1B"/>
<path d="M106.75 70.86V57.91L104.5 54.71H94.36V52.46L90.8 48.52H79.35V66.54L81.04 76.68H106.75V70.86Z" fill="#B5E4EA" stroke="#1B1B1B" stroke-width="2" stroke-linejoin="bevel"/>
<path d="M76.72 62.6001L78.6 76.6801H29.04L38.62 62.6001H76.72Z" fill="#B4E791" stroke="#1B1B1B" stroke-width="2" stroke-linejoin="bevel"/>
<path d="M145.23 90.5699L146.17 57.9099L136.04 50.3999H116.14V62.5999L102.44 62.7899V66.3499L98.87 60.9099H83.48V74.0499L81.98 70.4799H72.03V93.0099H83.85L83.67 88.8799L85.92 93.0099H103.94V88.3099L107.69 96.9499H145.23V90.5699Z" fill="#C7E8EF" stroke="#1B1B1B" stroke-width="2" stroke-linejoin="bevel"/>
<path d="M14.96 64.8598L20.6 59.7798H34.49V82.1198L29.79 90.1898H14.96V64.8598Z" fill="#C7E8EF" stroke="#1B1B1B" stroke-width="2" stroke-linejoin="bevel"/>
<path d="M52.69 56.5898L48.75 63.7198V90.7498H63.02L64.33 84.9298V56.5898H52.69Z" fill="#C7E8EF" stroke="#1B1B1B" stroke-width="2" stroke-linejoin="bevel"/>
<path d="M140.72 72.3499V95.2499L151.98 105.19H166.81L168.12 80.6099L156.3 72.3499H140.72Z" fill="#C7E8EF"/>
<path d="M168 81.1H154.42L140.5 72.5V84.5L141 97.5L151.5 105H166.5L168 81.1Z" fill="#82C6D1"/>
<path d="M140.72 72.3499V95.2499L151.98 105.19H166.81L168.12 80.6099L156.3 72.3499H140.72Z" stroke="#1B1B1B" stroke-width="2" stroke-linejoin="bevel"/>
<path d="M2 57.1499H22.27V100.51L11.39 116.09H2" fill="#C7E8EF"/>
<path d="M21.89 57.4199L8.38001 70.4799H1.99997V117L11.89 116.42L21.89 100.42V57.4199Z" fill="#82C6D1"/>
<path d="M2 57.1499H22.27V100.51L11.39 116.09H1" stroke="#1B1B1B" stroke-width="2" stroke-linejoin="bevel"/>
<path d="M25.09 84.7499L32.6 75.5499H51.18V80.1499L54.75 73.6699H73.52L75.39 82.1199V113.47L50.24 114.03V104.46L47.61 111.4H25.09V84.7499Z" fill="#C7E8EF"/>
<path d="M75.5 82.1198H51.18V75.5498L45.74 84.3698L25.15 84.7498L25.15 111H47.5L50 106V114L75.5 113.5V82.1198Z" fill="#82C6D1"/>
<path d="M25.09 84.7499L32.6 75.5499H51.18V80.1499L54.75 73.6699H73.52L75.39 82.1199V113.47L50.24 114.03V104.46L47.61 111.4H25.09V84.7499Z" stroke="#1B1B1B" stroke-width="2" stroke-linejoin="bevel"/>
<path d="M111.43 80.8098H130.39L138.65 89.4398V92.6298H142.4L148.22 97.3198V114.03H116.31L111.43 105.21V80.8098Z" fill="#C7E8EF"/>
<path d="M148.5 97.8H137.69L137.75 89.4398L117.99 89.4698L111.43 80.8098L111.43 105L116.5 114H148V107L148.5 97.8Z" fill="#82C6D1"/>
<path d="M111.43 80.8098H130.39L138.65 89.4398V92.6298H142.4L148.22 97.3198V114.03H116.31L111.43 105.21V80.8098Z" stroke="#1B1B1B" stroke-width="2" stroke-linejoin="bevel"/>
<path d="M75.5 98.6399V113.65H107.97L102.34 98.6399H75.5Z" fill="#8AD953" stroke="#1B1B1B" stroke-width="2" stroke-linejoin="bevel"/>
<path d="M123.78 72.52C123.78 72.52 139.59 58.39 139.59 45.91C139.59 36.74 132.51 29.3 123.78 29.3C115.05 29.3 107.97 36.74 107.97 45.91C107.97 58.39 123.78 72.52 123.78 72.52Z" fill="#FF8E14" stroke="#1B1B1B" stroke-width="2" stroke-miterlimit="10"/>
<path d="M123.78 53.6701C128.635 53.6701 132.57 49.7347 132.57 44.8801C132.57 40.0255 128.635 36.0901 123.78 36.0901C118.925 36.0901 114.99 40.0255 114.99 44.8801C114.99 49.7347 118.925 53.6701 123.78 53.6701Z" fill="#FF2434" stroke="#1B1B1B" stroke-width="2" stroke-miterlimit="10"/>
<path d="M57.14 48.1601C57.14 48.1601 65.22 40.9401 65.22 34.5501C65.22 29.8601 61.6 26.0601 57.14 26.0601C52.68 26.0601 49.06 29.8601 49.06 34.5501C49.06 40.9301 57.14 48.1601 57.14 48.1601Z" fill="#FF8E14" stroke="#1B1B1B" stroke-width="2" stroke-miterlimit="10"/>
<path d="M57.14 37.7401C59.189 37.7401 60.85 36.079 60.85 34.0301C60.85 31.9811 59.189 30.3201 57.14 30.3201C55.091 30.3201 53.43 31.9811 53.43 34.0301C53.43 36.079 55.091 37.7401 57.14 37.7401Z" fill="#FF2434" stroke="#1B1B1B" stroke-width="2" stroke-miterlimit="10"/>
</svg>
