<svg width="180" height="130" viewBox="0 0 180 130" fill="none" xmlns="http://www.w3.org/2000/svg">
<g clip-path="url(#clip0_3204_230)">
<path d="M113.97 0H15.97C7.13344 0 -0.0299988 7.16344 -0.0299988 16V114C-0.0299988 122.837 7.13344 130 15.97 130H113.97C122.807 130 129.97 122.837 129.97 114V16C129.97 7.16344 122.807 0 113.97 0Z" fill="#8FDFF3"/>
<path d="M29.39 79C37.376 79 43.85 72.5261 43.85 64.54C43.85 56.554 37.376 50.08 29.39 50.08C21.404 50.08 14.93 56.554 14.93 64.54C14.93 72.5261 21.404 79 29.39 79Z" fill="#FFA543"/>
<path fill-rule="evenodd" clip-rule="evenodd" d="M29.39 51.08C21.9562 51.08 15.93 57.1063 15.93 64.54C15.93 71.9738 21.9562 78 29.39 78C36.8237 78 42.85 71.9738 42.85 64.54C42.85 57.1063 36.8237 51.08 29.39 51.08ZM13.93 64.54C13.93 56.0017 20.8517 49.08 29.39 49.08C37.9283 49.08 44.85 56.0017 44.85 64.54C44.85 73.0783 37.9283 80 29.39 80C20.8517 80 13.93 73.0783 13.93 64.54Z" fill="#1B1B1B"/>
<path fill-rule="evenodd" clip-rule="evenodd" d="M129.97 40.5026C66.5432 37.5202 29.58 74.3 29.58 74.3C17.6219 64.1878 4.40941 62.8959 -0.0299988 62.7619V114C-0.0299988 122.837 7.13344 130 15.97 130H113.97C122.807 130 129.97 122.837 129.97 114V40.5026Z" fill="#8AD953"/>
<path fill-rule="evenodd" clip-rule="evenodd" d="M29.6899 77.0121L28.2886 75.8272C18.3144 67.3927 7.4176 65.3553 1.97 64.8837V114C1.97 121.732 8.23801 128 15.97 128H113.97C121.702 128 127.97 121.732 127.97 114V42.4226C97.5742 41.3689 73.484 49.5424 56.904 58.0618C48.4399 62.411 41.937 66.8486 37.56 70.1896C35.372 71.8597 33.7166 73.2547 32.6145 74.2259C32.0635 74.7115 31.6509 75.091 31.3794 75.3459C31.2436 75.4733 31.1431 75.5696 31.0783 75.6323C31.0458 75.6637 31.0223 75.6867 31.0077 75.701L30.9925 75.716L30.9907 75.7177M29.58 74.3C19.0818 65.4224 7.61681 63.3428 1.97 62.8767C1.18474 62.8118 0.511989 62.7782 -0.0299988 62.7619V114C-0.0299988 122.837 7.13344 130 15.97 130H113.97C122.807 130 129.97 122.837 129.97 114V40.5026C66.5432 37.5202 29.58 74.3 29.58 74.3Z" fill="#1B1B1B"/>
<path d="M113.97 2C121.69 2 127.97 8.28 127.97 16V114C127.97 121.72 121.69 128 113.97 128H15.97C8.25 128 1.97 121.72 1.97 114V16C1.97 8.28 8.25 2 15.97 2H113.97ZM113.97 0H15.97C7.13 0 -0.0299988 7.16 -0.0299988 16V114C-0.0299988 122.84 7.13 130 15.97 130H113.97C122.81 130 129.97 122.84 129.97 114V16C129.97 7.16 122.81 0 113.97 0Z" fill="#1B1B1B"/>
<path d="M84.8199 58.03C88.1799 49.62 94.7799 47.87 101.31 47.97C108.87 48.09 116.91 53.72 116.17 65.36L127.42 53.51C127.42 53.51 124.74 42.25 131.64 38.02C138.54 33.8 149.8 35.49 152.76 42.67C155.71 49.85 154.87 57.03 151.07 60.97C147.27 64.91 143.04 66.88 137.69 64.63L116.24 91.73C116.24 91.73 114.9 114.16 114.54 128.81H67.5299L76.1099 87.23L66.4899 52.7C66.4899 52.7 59.0299 51.72 59.3099 43.69C59.5899 35.67 64.2399 31.45 68.5999 30.18C72.9599 28.91 82.2599 27.93 84.5099 36.37C86.7599 44.82 81.4099 49.33 81.4099 49.33L84.8199 58.03Z" fill="#FAFAFA"/>
<path fill-rule="evenodd" clip-rule="evenodd" d="M77.1438 30.6131C74.2141 30.0076 70.9772 30.5292 68.8796 31.1402C64.9259 32.2918 60.574 36.1448 60.3093 43.7249C60.1827 47.3573 61.7771 49.3011 63.3586 50.3803C64.171 50.9347 64.9986 51.2705 65.6272 51.467C65.9398 51.5648 66.1983 51.6266 66.3743 51.6634C66.4622 51.6817 66.5291 51.6937 66.5714 51.7008C66.5925 51.7044 66.6075 51.7067 66.6157 51.7079L66.6211 51.7087C66.6211 51.7087 66.6212 51.7082 66.6211 51.7087L67.4533 52.4317L77.0732 86.9617L77.0893 87.4321L68.5093 129.012L66.5506 128.608L75.0816 87.2651L65.6912 53.5593C65.5021 53.5136 65.2789 53.4537 65.0302 53.3759C64.2688 53.1378 63.2489 52.7267 62.2313 52.0323C60.1528 50.614 58.1572 48.0529 58.3105 43.6552C58.6059 35.1953 63.554 30.6083 68.3203 29.22C70.5827 28.561 74.1758 27.9575 77.5486 28.6545C79.2479 29.0057 80.9245 29.6942 82.3381 30.9039C83.7596 32.1203 84.8656 33.822 85.4762 36.1125C86.6697 40.5947 85.8522 44.0803 84.7039 46.4542C84.1335 47.6336 83.4859 48.5304 82.9762 49.1368C82.8328 49.3074 82.6999 49.4555 82.5823 49.5808L85.7533 57.6711L85.9033 58.0611L84.0366 58.779L83.8889 58.395L83.8866 58.389L80.4789 49.695L80.7651 48.5666C80.7647 48.5661 80.7652 48.5665 80.7651 48.5666L80.764 48.5667L80.767 48.5641C80.7724 48.5593 80.7826 48.5503 80.7971 48.5371C80.8262 48.5107 80.8727 48.4674 80.9335 48.4075C81.0553 48.2875 81.234 48.1012 81.4452 47.8499C81.8683 47.3466 82.4177 46.5878 82.9035 45.5834C83.8677 43.5898 84.6001 40.5952 83.5436 36.6274C83.0292 34.698 82.1289 33.3572 81.0377 32.4234C79.9386 31.4828 78.5958 30.9132 77.1438 30.6131Z" fill="#1B1B1B"/>
<path fill-rule="evenodd" clip-rule="evenodd" d="M143.485 37.0514C139.65 36.3005 135.371 36.9105 132.163 38.8726C129.136 40.7282 128.127 44.1762 127.941 47.4088C127.849 49.0021 127.963 50.4774 128.101 51.5577C128.17 52.0964 128.244 52.5329 128.301 52.8321C128.329 52.9816 128.353 53.0965 128.369 53.1725C128.377 53.2104 128.384 53.2386 128.388 53.2565L128.392 53.2755L128.393 53.2785C128.393 53.2785 128.393 53.2785 128.393 53.2785L128.145 54.1986L116.895 66.0484L101.615 82.1484L100.165 80.7717L115.445 64.6717L126.335 53.2004C126.272 52.8674 126.191 52.3925 126.117 51.8114C125.968 50.6483 125.843 49.0443 125.944 47.2938C126.143 43.8389 127.244 39.5419 131.117 37.1675L131.118 37.167C134.809 34.9095 139.61 34.2547 143.87 35.0887C148.123 35.9216 152.035 38.2882 153.684 42.2889L153.685 42.29C156.728 49.6959 155.958 57.3429 151.79 61.6643C149.827 63.6991 147.684 65.3008 145.266 66.0738C143.023 66.7909 140.617 66.7712 138.015 65.8306L117.22 92.1036C117.21 92.2684 117.197 92.4957 117.18 92.7805C117.143 93.4219 117.089 94.3547 117.023 95.5198C116.892 97.8503 116.714 101.11 116.524 104.827C116.144 112.264 115.719 121.523 115.54 128.835L114.54 129.81H67.53V127.81H113.565C113.758 120.637 114.163 111.84 114.526 104.725C114.716 101.004 114.895 97.7405 115.027 95.4074C115.092 94.2409 115.146 93.3069 115.183 92.6644C115.202 92.3431 115.217 92.0948 115.227 91.9266L115.242 91.6715C115.242 91.6713 115.242 91.6704 116.24 91.7301L115.242 91.6704L115.456 91.1094L136.906 64.0094L138.078 63.7083C140.551 64.7485 142.701 64.7942 144.657 64.1688C146.641 63.5343 148.513 62.181 150.35 60.2758C153.782 56.7172 154.692 50.0041 151.835 43.0501C150.524 39.8714 147.326 37.8034 143.485 37.0514Z" fill="#1B1B1B"/>
<path fill-rule="evenodd" clip-rule="evenodd" d="M90.6138 59.6503L92.6738 56.0803L94.4061 57.0798L92.3461 60.6498L90.6138 59.6503Z" fill="#1B1B1B"/>
<path fill-rule="evenodd" clip-rule="evenodd" d="M95.2648 59.6485L97.3348 56.0785L99.065 57.0817L96.995 60.6517L95.2648 59.6485Z" fill="#1B1B1B"/>
<path fill-rule="evenodd" clip-rule="evenodd" d="M92.3316 50.6991C89.6774 52.0567 87.3461 54.4027 85.7486 58.4011L85.7466 58.4061L85.7466 58.4061C85.212 59.7235 84.7587 61.224 84.4097 62.9305L84.4095 62.9314C83.0742 69.4264 84.9913 73.3211 87.1256 75.6048C88.2122 76.7674 89.3831 77.541 90.2836 78.0232C90.7327 78.2637 91.1107 78.4297 91.3715 78.5341C91.5018 78.5862 91.6024 78.6227 91.6675 78.6454C91.6866 78.652 91.7026 78.6575 91.7154 78.6617C91.7244 78.6647 91.7319 78.6672 91.7376 78.6691L91.7498 78.673L91.7508 78.6733C91.7508 78.6733 91.7508 78.6733 91.7505 78.6739L92.46 79.6301V82.0801H90.46V80.3219C90.1588 80.1956 89.7757 80.0199 89.3394 79.7863C88.2968 79.2279 86.9352 78.3302 85.6644 76.9704C83.0837 74.2091 80.9858 69.654 82.4503 62.5292C82.8211 60.7169 83.3074 59.0984 83.8923 57.6566C85.6549 53.2464 88.3031 50.5132 91.4208 48.9185C94.5111 47.3379 97.9782 46.9189 101.325 46.9702L101.326 46.9702C105.338 47.0339 109.496 48.5583 112.561 51.6398C115.641 54.7354 117.549 59.3334 117.17 65.3984C117.168 65.4595 117.164 65.5123 117.162 65.5363C117.159 65.5773 117.16 65.5767 117.16 65.5701H115.16C115.16 65.4934 115.165 65.4228 115.168 65.3938C115.17 65.3649 115.17 65.3567 115.17 65.3567C115.17 65.3567 115.17 65.3581 115.17 65.3601L115.172 65.2966C115.526 59.734 113.785 55.7054 111.144 53.0503C108.484 50.377 104.842 49.0264 101.295 48.9699M92.3316 50.6991C95.0137 49.3273 98.1114 48.9212 101.294 48.9699L92.3316 50.6991Z" fill="#1B1B1B"/>
<path d="M41.9699 90.3999H1.2399V109.05H41.9699V90.3999Z" fill="#1379C4"/>
<path d="M40.9599 91.3999V108.05H2.2399V91.3999H40.9599ZM42.9599 89.3999H0.239899V110.05H42.9599V89.3999Z" fill="#1B1B1B"/>
<path d="M7.79995 103.98V95.4701H9.34995L12.5999 100.4H11.8899L15.1299 95.4701H16.6799V103.98H14.5399V99.0401L14.8799 99.1201L12.9499 102.06H11.5299L9.60995 99.1201L9.92995 99.0401V103.98H7.78995H7.79995Z" fill="#FAFAFA"/>
<path d="M22.3299 104.14C21.6699 104.14 21.0699 104.03 20.5199 103.8C19.9699 103.58 19.4899 103.26 19.0699 102.86C18.6599 102.46 18.3399 101.99 18.0999 101.45C17.8599 100.91 17.7499 100.33 17.7499 99.7001C17.7499 99.0701 17.8599 98.5001 18.0899 97.9701C18.3199 97.4401 18.6399 96.9701 19.0399 96.5701C19.4499 96.1701 19.9299 95.8601 20.4799 95.6401C21.0299 95.4201 21.6399 95.3201 22.2899 95.3201C22.9399 95.3201 23.5499 95.4301 24.0999 95.6401C24.6499 95.8601 25.1299 96.1701 25.5399 96.5701C25.9499 96.9701 26.2699 97.4401 26.4899 97.9801C26.7099 98.5201 26.8299 99.1001 26.8299 99.7201C26.8299 100.34 26.7199 100.92 26.4899 101.46C26.2599 102 25.9399 102.47 25.5399 102.87C25.1299 103.27 24.6499 103.59 24.1099 103.81C23.5699 104.03 22.9599 104.14 22.3199 104.14H22.3299ZM22.3099 102.22C22.7799 102.22 23.1999 102.12 23.5499 101.91C23.8999 101.7 24.1799 101.41 24.3699 101.03C24.5599 100.65 24.6499 100.21 24.6499 99.7101C24.6499 99.3401 24.5999 99.0101 24.4899 98.7001C24.3799 98.4001 24.2199 98.1301 24.0199 97.9101C23.8099 97.6901 23.5599 97.5201 23.2799 97.4101C22.9899 97.2901 22.6699 97.2401 22.3199 97.2401C21.8499 97.2401 21.4399 97.3401 21.0799 97.5501C20.7299 97.7501 20.4499 98.0401 20.2599 98.4101C20.0599 98.7801 19.9699 99.2201 19.9699 99.7101C19.9699 100.09 20.0199 100.44 20.1299 100.75C20.2399 101.06 20.3999 101.32 20.5999 101.54C20.8099 101.76 21.0599 101.93 21.3499 102.04C21.6399 102.16 21.9599 102.21 22.3199 102.21L22.3099 102.22Z" fill="#FAFAFA"/>
<path d="M27.9399 103.98V95.4701H29.4399L30.0899 97.2201V103.98H27.9399ZM33.8099 103.98L28.8399 97.6801L29.4399 95.4701L34.4199 101.77L33.8099 103.98ZM33.8099 103.98L33.2599 102.19V95.4701H35.4099V103.98H33.8099Z" fill="#FAFAFA"/>
</g>
<defs>
<clipPath id="clip0_3204_230">
<rect width="180" height="130" fill="white"/>
</clipPath>
</defs>
</svg>
