<svg width="180" height="130" viewBox="0 0 180 130" fill="none" xmlns="http://www.w3.org/2000/svg">
<path d="M114 1H16C7.71573 1 1 7.71573 1 16V114C1 122.284 7.71573 129 16 129H114C122.284 129 129 122.284 129 114V16C129 7.71573 122.284 1 114 1Z" fill="#8FDFF3"/>
<path d="M114 2C121.72 2 128 8.28 128 16V114C128 121.72 121.72 128 114 128H16C8.28 128 2 121.72 2 114V16C2 8.28 8.28 2 16 2H114ZM114 0H16C7.16 0 0 7.16 0 16V114C0 122.84 7.16 130 16 130H114C122.84 130 130 122.84 130 114V16C130 7.16 122.84 0 114 0Z" fill="#1B1B1B"/>
<g clip-path="url(#clip0_2329_13954)">
<path d="M14.0285 20L24.8685 50.56L15.1285 66.98C15.1285 66.98 8.36847 70.67 7.55847 67.6L-3.88153 38.93C-3.07153 40.18 2.40847 37.47 2.40847 37.47L12.6085 22.14L14.0285 20Z" fill="#8AD953"/>
<path d="M12.6085 22.1399L2.40848 37.4699C2.40848 37.4699 -3.07152 40.1799 -3.88152 38.9299C-4.10152 38.5899 -3.97152 37.9599 -3.30152 36.9099C-0.0315175 31.7799 7.90848 20.3899 7.90848 20.3899L8.87848 22.4599L12.5385 22.0899L12.6085 22.1399Z" fill="white"/>
<path d="M-3.88152 38.93L7.55848 67.6C8.36848 70.67 15.1285 66.98 15.1285 66.98L24.8685 50.56L14.0285 20L12.6085 22.14L2.40848 37.47C2.40848 37.47 -3.07152 40.18 -3.88152 38.93C-4.10152 38.59 -3.97152 37.96 -3.30152 36.91C-0.0315175 31.78 7.90848 20.39 7.90848 20.39L8.87848 22.46L12.5385 22.09" stroke="#1B1B1B" stroke-width="2" stroke-linejoin="bevel"/>
</g>
<path d="M114.02 2C121.74 2 128.02 8.28 128.02 16V114C128.02 121.72 121.74 128 114.02 128H16.02C8.30002 128 2.02002 121.72 2.02002 114V16C2.02002 8.28 8.30002 2 16.02 2H114.02ZM114.02 0H16.02C7.18002 0 0.0200195 7.16 0.0200195 16V114C0.0200195 122.84 7.18002 130 16.02 130H114.02C122.86 130 130.02 122.84 130.02 114V16C130.02 7.16 122.86 0 114.02 0Z" fill="#1B1B1B"/>
<path d="M53.3401 61.45L34.7301 54.34C32.1401 53.76 28.0601 54.65 28.7801 57.84C28.1501 56.98 28.0701 56.06 28.0601 55.82V25.08C28.0601 25.08 28.3301 20.85 35.2301 22.4L53.5701 31.86L54.2701 61.8L53.3401 61.45Z" fill="#8AD953"/>
<path d="M34.73 54.3401L53.34 61.4501L49 63.8001V65.5201C49 65.5201 32.76 60.0401 30.41 59.1001C29.64 58.7901 29.12 58.3301 28.78 57.8401C28.06 54.6501 32.14 53.7601 34.73 54.3401Z" fill="white"/>
<path d="M28.0601 55.77V25.08C28.0601 25.08 28.3301 20.85 35.2301 22.4L53.5701 31.86L54.2701 61.8L53.3401 61.45L34.7301 54.34C32.1401 53.76 28.0601 54.65 28.7801 57.84" stroke="#1B1B1B" stroke-width="2" stroke-linejoin="bevel"/>
<path d="M28.0601 55.77V55.82C28.0701 56.06 28.1501 56.98 28.7801 57.84C29.1201 58.33 29.6401 58.79 30.4101 59.1C32.7601 60.04 49.0001 65.52 49.0001 65.52V63.8L53.3401 61.45L53.4301 61.4" stroke="#1B1B1B" stroke-width="2" stroke-linejoin="bevel"/>
<path d="M135.7 37.2201V66.8801C135.7 66.8801 135.61 67.6801 134.95 68.5401L134.92 68.5201C135.67 67.2101 132.39 65.8101 132.39 65.8101L113.67 57.7801L114.18 26.6401L114.21 26.6201V24.8401L134.01 33.9401C134.01 33.9401 135.7 35.1601 135.7 37.2201Z" fill="#8AD953"/>
<path d="M132.39 65.8101C132.39 65.8101 135.67 67.2101 134.92 68.5201L134.95 68.5401C134.41 69.2401 133.49 69.9701 131.93 70.3101L108.48 60.6901L109.23 27.2801L110.83 28.5901L114.18 26.6401L113.67 57.7801L132.39 65.8101Z" fill="white"/>
<path d="M114.21 24.8401V26.6201L114.18 26.6401L114.21 24.8401Z" fill="white"/>
<path d="M114.21 24.8401L134.01 33.9401C134.01 33.9401 135.7 35.1601 135.7 37.2201V66.8801C135.7 66.8801 135.61 67.6801 134.95 68.5401C134.41 69.2401 133.49 69.9701 131.93 70.3101L108.48 60.6901L109.23 27.2801L110.83 28.5901L114.18 26.6401L114.21 26.6201V24.8401Z" stroke="#1B1B1B" stroke-width="2" stroke-linejoin="bevel"/>
<path d="M114.18 26.6401L113.67 57.7801L132.39 65.8101C132.39 65.8101 135.67 67.2101 134.92 68.5201" stroke="#1B1B1B" stroke-width="2" stroke-linejoin="bevel"/>
<path d="M170.6 28.4201H172.01L169.58 62.3101H143.76C143.76 62.3101 139.53 61.5801 139.35 58.6601L140.77 26.5701H140.81C140.81 27.8901 144.76 28.6901 144.76 28.6901L170.6 28.4201Z" fill="#8AD953"/>
<path d="M170.6 28.42L144.76 28.69C144.76 28.69 140.81 27.89 140.81 26.57C140.81 26.21 141.11 25.8099 141.86 25.3799L167.7 24.7L167.6 26.1L170.6 28.42Z" fill="white"/>
<path d="M170.75 28.54L170.6 28.42L167.6 26.1L167.7 24.7L141.86 25.3799C141.11 25.8099 140.81 26.21 140.81 26.57C140.81 27.89 144.76 28.69 144.76 28.69L170.6 28.42H172.01L169.58 62.31H143.76C143.76 62.31 139.53 61.58 139.35 58.66L140.77 26.57V26.4699" stroke="#1B1B1B" stroke-width="2" stroke-linejoin="bevel"/>
<path d="M51.8201 39.6875L64.3601 62.7699L83.9301 58.8299C83.9301 58.8299 86.0401 59.9599 88.4301 59.9599C90.8201 59.9599 92.52 59 93.0701 58.2399L110.83 58.9599L92.6401 34.6699C92.6401 34.6699 79.4101 31.3799 77.5801 36.3099C77.5801 36.3099 66.0401 28.8499 51.8201 39.5499V39.6875Z" fill="#8AD953" stroke="#1B1B1B" stroke-width="2" stroke-linejoin="bevel"/>
<path d="M77.6001 36.31L88.6801 57.55C88.6801 57.55 90.3801 57.6 91.8601 56.41C95.0901 53.8 109.06 56.55 109.06 56.55L108.13 54.35L93.7701 33.7C93.7701 33.7 77.6001 28.99 77.6001 36.31Z" fill="white"/>
<path fill-rule="evenodd" clip-rule="evenodd" d="M79.234 33.2573L90.9201 54.21C90.9201 54.21 97.6742 50.8906 108.192 54.4964L109.06 56.5499C109.06 56.5499 95.09 53.7999 91.86 56.4099C90.38 57.5999 88.68 57.5499 88.68 57.5499L77.6 36.3099C77.6 34.8686 78.227 33.8936 79.234 33.2573Z" fill="#DAEDF2"/>
<path d="M77.6 36.31L88.68 57.55C88.68 57.55 90.38 57.6 91.86 56.41C95.09 53.8 109.06 56.55 109.06 56.55L108.13 54.35L93.77 33.7C93.77 33.7 77.6 28.99 77.6 36.31V36.31Z" stroke="#1B1B1B" stroke-width="2" stroke-linejoin="bevel"/>
<path d="M89.2801 57.44C89.2801 57.44 86.8901 57.79 85.0601 56.74C80.6501 54.2 66.3701 60.04 66.3701 60.04L54.1201 37.93L56.5101 35.44C56.5101 35.44 72.5701 28.7 77.5901 34.9C79.0401 36.68 89.3501 55.53 89.3501 55.53L89.2801 57.45V57.44Z" fill="white"/>
<path fill-rule="evenodd" clip-rule="evenodd" d="M85.0601 56.7401C86.8901 57.7901 89.2801 57.4401 89.2801 57.4401V57.4501L89.3092 56.6512C83.2324 49.4516 68.2101 56.47 68.2101 56.47L56.7688 35.335C56.6001 35.4023 56.5101 35.4401 56.5101 35.4401L54.1201 37.9301L66.3701 60.0401C66.3701 60.0401 80.6501 54.2001 85.0601 56.7401Z" fill="#DAEDF2"/>
<path d="M89.2801 57.44C89.2801 57.44 86.8901 57.79 85.0601 56.74C80.6501 54.2 66.3701 60.04 66.3701 60.04L54.1201 37.93L56.5101 35.44C56.5101 35.44 72.5701 28.7 77.5901 34.9C79.0401 36.68 89.3501 55.53 89.3501 55.53L89.2801 57.45V57.44Z" stroke="#1B1B1B" stroke-width="2" stroke-linejoin="bevel"/>
<g clip-path="url(#clip1_2329_13954)">
<path d="M63.78 102.82C76.4328 102.82 86.69 92.5628 86.69 79.91C86.69 67.2572 76.4328 57 63.78 57C51.1272 57 40.87 67.2572 40.87 79.91C40.87 92.5628 51.1272 102.82 63.78 102.82Z" fill="#FAFAFA" stroke="#1B1B1B" stroke-width="2" stroke-linejoin="bevel"/>
<path d="M104.09 133.64L105.04 99.55L101.6 98.52L99.36 95.42C99.36 95.42 70.9 85.62 63.89 95.42C56.88 85.62 28.42 95.42 28.42 95.42L26.18 98.52L22.74 99.55L23.69 133.64" fill="#DAEDF2"/>
<path fill-rule="evenodd" clip-rule="evenodd" d="M105.011 100.58L104.09 133.64H23.69L22.7676 100.538C31.0012 98.2569 54.1046 92.6241 60.3 99.3099C60.3 99.3099 60.46 100.83 63.89 100.83C67.32 100.83 67.25 99.3099 67.25 99.3099C67.25 99.3099 74.5717 91.0603 105.011 100.58Z" fill="#FF8E14"/>
<path d="M60.3 99.3098L59.29 100.14V138.84L68.16 136.87V100.3L67.24 99.3198C67.24 99.3198 66.86 100.84 63.88 100.84C60.9 100.84 60.83 99.8598 60.29 99.3198L60.3 99.3098Z" fill="#FF8E14"/>
<path d="M104.09 133.64L105.04 99.55L101.6 98.52L99.36 95.42C99.36 95.42 70.9 85.62 63.89 95.42C56.88 85.62 28.42 95.42 28.42 95.42L26.18 98.52L22.74 99.55L23.69 133.64" stroke="#1B1B1B" stroke-width="2" stroke-linejoin="bevel"/>
<path d="M60.3 84.99V89.68" stroke="#1B1B1B" stroke-width="2" stroke-linejoin="bevel"/>
<path d="M67.2501 84.99V89.68" stroke="#1B1B1B" stroke-width="2" stroke-linejoin="bevel"/>
<path d="M20.38 128.68C26.654 128.68 31.74 123.124 31.74 116.27C31.74 109.416 26.654 103.86 20.38 103.86C14.1061 103.86 9.02002 109.416 9.02002 116.27C9.02002 123.124 14.1061 128.68 20.38 128.68Z" fill="#FAFAFA" stroke="#1B1B1B" stroke-width="2" stroke-linejoin="bevel"/>
<path d="M108.83 128.68C115.104 128.68 120.19 123.124 120.19 116.27C120.19 109.416 115.104 103.86 108.83 103.86C102.556 103.86 97.47 109.416 97.47 116.27C97.47 123.124 102.556 128.68 108.83 128.68Z" fill="#FAFAFA" stroke="#1B1B1B" stroke-width="2" stroke-linejoin="bevel"/>
</g>
<defs>
<clipPath id="clip0_2329_13954">
<rect width="25" height="53" fill="white" transform="translate(1.02002 17)"/>
</clipPath>
<clipPath id="clip1_2329_13954">
<rect width="114" height="74" fill="white" transform="translate(8.02002 54)"/>
</clipPath>
</defs>
</svg>
