<svg width="180" height="130" viewBox="0 0 180 130" fill="none" xmlns="http://www.w3.org/2000/svg">
<path d="M114 1H16C7.71573 1 1 7.71573 1 16V114C1 122.284 7.71573 129 16 129H114C122.284 129 129 122.284 129 114V16C129 7.71573 122.284 1 114 1Z" fill="#8FDFF3"/>
<path d="M114 2C121.72 2 128 8.28 128 16V114C128 121.72 121.72 128 114 128H16C8.28 128 2 121.72 2 114V16C2 8.28 8.28 2 16 2H114ZM114 0H16C7.16 0 0 7.16 0 16V114C0 122.84 7.16 130 16 130H114C122.84 130 130 122.84 130 114V16C130 7.16 122.84 0 114 0Z" fill="black"/>
<path d="M114 2C121.72 2 128 8.28 128 16V114C128 121.72 121.72 128 114 128H16C8.28 128 2 121.72 2 114V16C2 8.28 8.28 2 16 2H114ZM114 0H16C7.16 0 0 7.16 0 16V114C0 122.84 7.16 130 16 130H114C122.84 130 130 122.84 130 114V16C130 7.16 122.84 0 114 0Z" fill="#1B1B1B"/>
<path d="M64.2199 70.54H12.3099V76.24H64.2199V70.54Z" fill="#DAD4DD" stroke="#1B1B1B" stroke-width="2" stroke-miterlimit="10"/>
<path d="M64.2199 70.14H12.3099L20.3099 45.55H56.2199L64.2199 70.14Z" fill="#EBE6ED" stroke="#1B1B1B" stroke-width="2" stroke-linejoin="bevel"/>
<path d="M38.16 72.66C52.7679 72.66 64.61 67.0725 64.61 60.18C64.61 53.2874 52.7679 47.7 38.16 47.7C23.552 47.7 11.71 53.2874 11.71 60.18C11.71 67.0725 23.552 72.66 38.16 72.66Z" fill="#515151" stroke="#1B1B1B" stroke-width="2" stroke-miterlimit="10"/>
<path d="M38.29 60.4001C39.9027 60.4001 41.21 59.7823 41.21 59.0201C41.21 58.258 39.9027 57.6401 38.29 57.6401C36.6773 57.6401 35.37 58.258 35.37 59.0201C35.37 59.7823 36.6773 60.4001 38.29 60.4001Z" fill="#EBE6ED" stroke="#1B1B1B" stroke-width="2" stroke-miterlimit="10"/>
<path d="M53.83 58.8401H53.97V48.3001H53.83V58.8401Z" fill="white" stroke="#1B1B1B" stroke-width="2" stroke-miterlimit="10"/>
<path d="M55.2299 60.72H52.7V64.84H55.2299V60.72Z" fill="#FFEC7B" stroke="#1B1B1B" stroke-width="2" stroke-linejoin="bevel"/>
<path d="M19.54 74.6C20.1862 74.6 20.71 74.0762 20.71 73.43C20.71 72.7838 20.1862 72.26 19.54 72.26C18.8938 72.26 18.37 72.7838 18.37 73.43C18.37 74.0762 18.8938 74.6 19.54 74.6Z" fill="#FF2434"/>
<path d="M15.9799 74.6C16.6261 74.6 17.1499 74.0762 17.1499 73.43C17.1499 72.7838 16.6261 72.26 15.9799 72.26C15.3338 72.26 14.8099 72.7838 14.8099 73.43C14.8099 74.0762 15.3338 74.6 15.9799 74.6Z" fill="#6DD028"/>
<path d="M92.6101 9.82007H46.7601C44.4405 9.82007 42.5601 11.7005 42.5601 14.0201V31.4201C42.5601 33.7397 44.4405 35.6201 46.7601 35.6201H92.6101C94.9297 35.6201 96.8101 33.7397 96.8101 31.4201V14.0201C96.8101 11.7005 94.9297 9.82007 92.6101 9.82007Z" fill="#00D1D1" stroke="#1B1B1B" stroke-width="2" stroke-miterlimit="10"/>
<path d="M86.0501 12.4302H53.3201V33.0002H86.0501V12.4302Z" fill="#303030"/>
<path d="M48.7001 19.03C49.9537 19.03 50.9701 18.0137 50.9701 16.76C50.9701 15.5063 49.9537 14.49 48.7001 14.49C47.4464 14.49 46.4301 15.5063 46.4301 16.76C46.4301 18.0137 47.4464 19.03 48.7001 19.03Z" fill="white" stroke="#EFEFEF" stroke-miterlimit="10"/>
<path d="M90.93 28.1301C92.1837 28.1301 93.2 27.1138 93.2 25.8601C93.2 24.6064 92.1837 23.5901 90.93 23.5901C89.6763 23.5901 88.66 24.6064 88.66 25.8601C88.66 27.1138 89.6763 28.1301 90.93 28.1301Z" fill="white" stroke="#EFEFEF" stroke-miterlimit="10"/>
<path d="M93.2101 17.8501C93.9557 17.8501 94.5601 17.2457 94.5601 16.5001C94.5601 15.7546 93.9557 15.1501 93.2101 15.1501C92.4645 15.1501 91.8601 15.7546 91.8601 16.5001C91.8601 17.2457 92.4645 17.8501 93.2101 17.8501Z" fill="white"/>
<path d="M88.5801 17.97C89.3257 17.97 89.9301 17.3656 89.9301 16.62C89.9301 15.8744 89.3257 15.27 88.5801 15.27C87.8345 15.27 87.2301 15.8744 87.2301 16.62C87.2301 17.3656 87.8345 17.97 88.5801 17.97Z" fill="white"/>
<path d="M90.9501 20.22C91.6957 20.22 92.3001 19.6156 92.3001 18.87C92.3001 18.1244 91.6957 17.52 90.9501 17.52C90.2045 17.52 89.6001 18.1244 89.6001 18.87C89.6001 19.6156 90.2045 20.22 90.9501 20.22Z" fill="white"/>
<path d="M88.51 31.95C88.9242 31.95 89.26 31.6142 89.26 31.2C89.26 30.7857 88.9242 30.45 88.51 30.45C88.0958 30.45 87.76 30.7857 87.76 31.2C87.76 31.6142 88.0958 31.95 88.51 31.95Z" fill="white"/>
<path d="M50.9601 31.95C51.3743 31.95 51.7101 31.6142 51.7101 31.2C51.7101 30.7857 51.3743 30.45 50.9601 30.45C50.5459 30.45 50.2101 30.7857 50.2101 31.2C50.2101 31.6142 50.5459 31.95 50.9601 31.95Z" fill="white"/>
<path d="M90.8301 15.6001C91.5757 15.6001 92.1801 14.9957 92.1801 14.2501C92.1801 13.5046 91.5757 12.9001 90.8301 12.9001C90.0845 12.9001 89.4801 13.5046 89.4801 14.2501C89.4801 14.9957 90.0845 15.6001 90.8301 15.6001Z" fill="white"/>
<path d="M49.38 21.28H48.02C47.6003 21.28 47.26 21.6203 47.26 22.04V27.38C47.26 27.7998 47.6003 28.14 48.02 28.14H49.38C49.7997 28.14 50.14 27.7998 50.14 27.38V22.04C50.14 21.6203 49.7997 21.28 49.38 21.28Z" fill="white"/>
<path d="M52.13 25.38V24.02C52.13 23.6003 51.7897 23.26 51.37 23.26H46.03C45.6103 23.26 45.27 23.6003 45.27 24.02V25.38C45.27 25.7997 45.6103 26.14 46.03 26.14H51.37C51.7897 26.14 52.13 25.7997 52.13 25.38Z" fill="white"/>
<path d="M122.89 46.4701C124.15 46.2501 129.62 45.3301 134.61 45.2801C144.94 45.1801 155.89 47.3501 155.89 58.7101C155.89 70.0701 145.05 70.9101 127.28 70.9101C109.51 70.9101 109.29 56.4401 109.29 56.4401V43.9301C109.29 43.9301 105.24 43.9301 105.24 40.8401C105.24 37.7501 109.29 37.8501 109.29 37.8501C109.29 37.8501 108.57 32.0601 116.32 32.0601C121.79 32.0601 122.61 37.4101 122.83 40.0201C122.95 41.3601 122.93 44.2801 122.89 46.4701Z" fill="#FFDA00"/>
<path d="M122.89 46.47C122.71 46.5 122.63 46.53 122.63 46.53" stroke="#1B1B1B" stroke-width="2" stroke-miterlimit="10"/>
<path d="M122.89 46.4701C122.93 44.2801 122.96 41.3601 122.83 40.0201C122.61 37.4101 121.8 32.0601 116.32 32.0601C108.57 32.0601 109.29 37.8501 109.29 37.8501C109.29 37.8501 105.24 37.7401 105.24 40.8401C105.24 43.9401 109.29 43.9301 109.29 43.9301V56.4401C109.29 56.4401 109.5 70.9101 127.28 70.9101C145.06 70.9101 155.89 70.0801 155.89 58.7101C155.89 47.3401 144.94 45.1801 134.61 45.2801C129.61 45.3201 124.14 46.2501 122.89 46.4701V46.4701Z" stroke="#1B1B1B" stroke-width="2" stroke-miterlimit="10"/>
<path d="M122.83 49.21C122.83 49.21 122.86 48.02 122.89 46.47" stroke="#1B1B1B" stroke-width="2" stroke-miterlimit="10"/>
<path d="M123.14 52.6301C123.14 52.6301 121.59 57.2801 134.4 57.2801C147.21 57.2801 145.45 52.6301 145.45 52.6301" stroke="#1B1B1B" stroke-width="2" stroke-miterlimit="10"/>
<path d="M113.43 37.0801V40.1301" stroke="#1B1B1B" stroke-width="2" stroke-miterlimit="10"/>
<path d="M48.6299 109.16H48.6199V105.7H44.5799V109.16H44.5699C41.7299 109.16 39.4299 111.46 39.4299 114.3V116.27C39.4299 116.27 41.1399 117.96 46.5999 117.96C52.0599 117.96 53.7699 116.27 53.7699 116.27V114.3C53.7699 111.46 51.4699 109.16 48.6299 109.16Z" fill="white"/>
<path fill-rule="evenodd" clip-rule="evenodd" d="M53.7699 115.443C46.3091 117.399 45.29 115.77 45.29 115.77C45.29 112.16 48.29 109.98 48.29 109.98L48.3 109.99L48.6199 108.702V106.972L44.59 106.99L44.5799 106.997V109.16H44.5699C41.7299 109.16 39.4299 111.46 39.4299 114.3V116.27C39.4299 116.27 39.9435 116.778 41.3065 117.236L49.5634 117.768C51.5423 117.488 52.6978 116.966 53.2817 116.618L53.7699 115.464V115.443Z" fill="#EAEAEA"/>
<path d="M48.6299 109.16H48.6199V105.7H44.5799V109.16H44.5699C41.7299 109.16 39.4299 111.46 39.4299 114.3V116.27C39.4299 116.27 41.1399 117.96 46.5999 117.96C52.0599 117.96 53.7699 116.27 53.7699 116.27V114.3C53.7699 111.46 51.4699 109.16 48.6299 109.16V109.16Z" stroke="#1B1B1B" stroke-width="2" stroke-miterlimit="10"/>
<path d="M36.6399 84.45L33.9199 105C33.9199 105 39.2299 106.97 47.5299 106.97C55.8299 106.97 58.9299 105.14 58.9299 105.14L56.0199 84.45C56.0199 84.45 53.4899 82.48 46.4299 82.48C39.3699 82.48 36.6399 84.45 36.6399 84.45Z" fill="#F4EBD7"/>
<path fill-rule="evenodd" clip-rule="evenodd" d="M33.9199 105L36.6399 84.4499C36.6399 84.4499 37.2744 83.9921 38.7227 83.5178L39.65 83.6998V83.7098L39.42 103.79C39.42 103.79 48.6899 106.356 58.6821 103.378L58.9299 105.14C58.9299 105.14 55.8299 106.97 47.5299 106.97C39.2299 106.97 33.9199 105 33.9199 105Z" fill="#EADEC7"/>
<path d="M36.6399 84.45L33.9199 105C33.9199 105 39.2299 106.97 47.5299 106.97C55.8299 106.97 58.9299 105.14 58.9299 105.14L56.0199 84.45C56.0199 84.45 53.4899 82.48 46.4299 82.48C39.3699 82.48 36.6399 84.45 36.6399 84.45Z" stroke="#1B1B1B" stroke-width="2" stroke-miterlimit="10"/>
<path d="M37.7999 106.58V110.1" stroke="#1B1B1B" stroke-width="2" stroke-miterlimit="10"/>
<path d="M37.68 112.74C38.768 112.74 39.65 111.858 39.65 110.77C39.65 109.682 38.768 108.8 37.68 108.8C36.592 108.8 35.71 109.682 35.71 110.77C35.71 111.858 36.592 112.74 37.68 112.74Z" fill="white" stroke="#1B1B1B" stroke-width="2" stroke-miterlimit="10"/>
<path d="M102.3 84.9401C102.38 87.2101 105.54 93.5301 104.27 99.5801C103 105.63 99.65 114.64 90.98 108.59C90.98 108.59 85.95 110.42 85.75 103.38C85.55 96.3401 88.73 98.0301 88.73 98.0301C88.73 98.0301 81.7 98.9301 85.87 84.5401C90.03 70.1501 91.41 70.0301 93.66 70.1501C95.91 70.2701 99.63 71.7301 99.35 78.6101C99.35 78.6101 102.02 76.7701 102.31 84.9301L102.3 84.9401Z" fill="#8AD953" stroke="#1B1B1B" stroke-width="2" stroke-linejoin="bevel"/>
<path d="M98.78 88.76C98.78 88.76 90.94 117.06 86.02 117.06H132.48L98.79 88.76H98.78Z" fill="#E28C03" stroke="#1B1B1B" stroke-width="2" stroke-linejoin="bevel"/>
<path d="M98.5801 88.76C98.5801 88.76 100.72 105.37 112.06 117.06H140.01C140.01 117.06 126.64 103.69 125.23 88.76H98.5801Z" fill="#914D2C"/>
<g style="mix-blend-mode:multiply" opacity="0.3">
<path fill-rule="evenodd" clip-rule="evenodd" d="M101.096 88.76C103.193 94.0854 112.249 112.409 138.438 115.358C139.405 116.455 140.01 117.06 140.01 117.06H112.06C100.72 105.37 98.5801 88.76 98.5801 88.76H101.096Z" fill="#914D2C"/>
</g>
<path d="M98.5801 88.76C98.5801 88.76 100.72 105.37 112.06 117.06H140.01C140.01 117.06 126.64 103.69 125.23 88.76H98.5801Z" stroke="#1B1B1B" stroke-width="2" stroke-linejoin="bevel"/>
<path d="M119.74 113.55C119.74 113.55 114.57 114.28 115.84 116.81C117.11 119.34 120.77 115.18 120.77 115.18L119.74 113.55Z" fill="#CC9337" stroke="#1B1B1B" stroke-width="2" stroke-linejoin="bevel"/>
<path d="M122.03 113.73C122.03 113.73 127.2 114.46 125.93 116.99C124.66 119.52 121 115.36 121 115.36L122.03 113.73Z" fill="#CC9337" stroke="#1B1B1B" stroke-width="2" stroke-linejoin="bevel"/>
<path d="M120.5 112.91C120.5 112.91 118.36 117.67 121.18 117.95C124 118.23 122.43 112.91 122.43 112.91H120.5Z" fill="#CC9337" stroke="#1B1B1B" stroke-width="2" stroke-linejoin="bevel"/>
<path d="M119.74 113.75C119.74 113.75 117.46 113.93 118.13 110.21C118.8 106.49 119.74 108.96 119.74 108.96C119.74 108.96 120.21 105.17 120.97 105.17C121.73 105.17 123.44 105.58 123.53 111.4C123.62 117.22 119.74 113.75 119.74 113.75Z" fill="#FF4317" stroke="#1B1B1B" stroke-width="2" stroke-linejoin="bevel"/>
<path d="M99.05 117.06L98.15 99.8801" stroke="#1B1B1B" stroke-width="2" stroke-linejoin="bevel"/>
<path d="M71.94 15.6001L63.21 28.7201" stroke="#E2E2E2" stroke-miterlimit="10"/>
<path d="M75.72 14.72L66.99 27.84" stroke="#E2E2E2" stroke-miterlimit="10"/>
<path d="M26.61 61.53L28.48 62.78" stroke="#AFAFAF" stroke-linejoin="bevel"/>
<path d="M24.6899 62.27L26.5599 63.52" stroke="#AFAFAF" stroke-linejoin="bevel"/>
<path d="M49.63 54.6499L51.51 55.8999" stroke="#AFAFAF" stroke-linejoin="bevel"/>
<path d="M47.71 55.3899L49.59 56.6399" stroke="#AFAFAF" stroke-linejoin="bevel"/>
<g style="mix-blend-mode:multiply">
<path d="M129.23 45.8899C129.23 45.8899 128.1 48.4899 131.48 51.4799C134.86 54.4699 125.73 56.0299 125.73 56.0299L136.13 57.2299C136.13 57.2299 143.34 58.3699 145.93 60.7099C148.52 63.0599 150.05 66.7499 146.82 69.4799C146.82 69.4799 154.86 67.5899 155.63 61.5199C156.4 55.4499 148.23 45.8799 148.23 45.8799H129.22L129.23 45.8899Z" fill="#E0B23F"/>
</g>
<path d="M143.97 38.75C143.97 38.75 137.06 34.4 134.79 34.91C132.52 35.42 128.8 35.12 128.38 39.66C127.96 44.2 131.06 49.99 136.18 52.99C141.3 55.99 142.91 58.98 148.51 60.74C154.11 62.5 164.24 61.57 162.79 55.16C161.34 48.75 154.22 45.45 154.22 45.45L143.98 38.75H143.97Z" fill="#F2B95F"/>
<path fill-rule="evenodd" clip-rule="evenodd" d="M142.2 37.701C143.251 38.2973 143.97 38.75 143.97 38.75H143.98L154.22 45.45C154.22 45.45 161.34 48.75 162.79 55.16C164.24 61.57 154.11 62.5 148.51 60.74C145.079 59.6616 143.145 58.1213 140.985 56.3999C140.572 56.0714 140.151 55.7362 139.711 55.3964C165.133 63.3424 152.23 49.28 152.23 49.28L150.67 48.9L135.99 35.24L142.2 37.701Z" fill="#D89D45"/>
<path d="M143.97 38.75C143.97 38.75 137.06 34.4 134.79 34.91C132.52 35.42 128.8 35.12 128.38 39.66C127.96 44.2 131.06 49.99 136.18 52.99C141.3 55.99 142.91 58.98 148.51 60.74C154.11 62.5 164.24 61.57 162.79 55.16C161.34 48.75 154.22 45.45 154.22 45.45L143.98 38.75H143.97Z" stroke="#1B1B1B" stroke-width="2" stroke-miterlimit="10"/>
<path d="M140.37 42.67L145.23 37.4C145.23 37.4 147.61 35.54 151.02 38.12C154.43 40.7 154.22 43.29 154.22 43.29L152.23 49.28C152.23 49.28 148.53 50.11 144.71 47.83C140.89 45.56 140.37 42.66 140.37 42.66V42.67Z" fill="#D89C45"/>
<path fill-rule="evenodd" clip-rule="evenodd" d="M148.504 36.8758C149.249 37.0485 150.097 37.4215 151.02 38.1199C153.424 39.9389 154.029 41.7629 154.177 42.6806C153.115 43.3395 151.407 43.6203 148.88 41.9699C144.424 39.06 146.121 36.8447 147.548 36.7527C147.659 36.7553 147.774 36.7623 147.892 36.7741C147.915 36.7787 147.937 36.7839 147.96 36.7899C148.092 36.8251 148.277 36.8534 148.504 36.8758Z" fill="#FCBC5E"/>
<path d="M140.37 41.67L145.23 37.4C145.23 37.4 147.61 35.54 151.02 38.12C154.43 40.7 154.22 43.29 154.22 43.29L152.23 49.28C152.23 49.28 148.53 50.11 144.71 47.83C140.89 45.56 140.37 42.66 140.37 42.66V41.67Z" stroke="#1B1B1B" stroke-width="2" stroke-miterlimit="10"/>
<path d="M120.77 111.67V113.51" stroke="#FFEE1A" stroke-miterlimit="10"/>
<path d="M113.43 60.1799C113.43 60.1799 114.64 63.0799 117.27 64.8499" stroke="white" stroke-miterlimit="10"/>
<path d="M117.92 65.6899L118.86 66.3499" stroke="white" stroke-miterlimit="10"/>
<path opacity="0.3" d="M122.47 92.0701C122.47 92.0701 124.47 99.1101 125.74 101.36" stroke="#B76646" stroke-miterlimit="10"/>
</svg>
