<svg width="180" height="130" viewBox="0 0 180 130" fill="none" xmlns="http://www.w3.org/2000/svg">
<path d="M114 1H16C7.71573 1 1 7.71573 1 16V114C1 122.284 7.71573 129 16 129H114C122.284 129 129 122.284 129 114V16C129 7.71573 122.284 1 114 1Z" fill="#8FDFF3"/>
<path d="M114 2C121.72 2 128 8.28 128 16V114C128 121.72 121.72 128 114 128H16C8.28 128 2 121.72 2 114V16C2 8.28 8.28 2 16 2H114ZM114 0H16C7.16 0 0 7.16 0 16V114C0 122.84 7.16 130 16 130H114C122.84 130 130 122.84 130 114V16C130 7.16 122.84 0 114 0Z" fill="black"/>
<path d="M64.22 70.54H12.31V76.24H64.22V70.54Z" fill="#DAD4DD"/>
<path fill-rule="evenodd" clip-rule="evenodd" d="M11.31 69.54H65.22V77.24H11.31V69.54ZM13.31 71.54V75.24H63.22V71.54H13.31Z" fill="#1B1B1B"/>
<path d="M64.22 70.14H12.31L20.31 45.55H56.22L64.22 70.14Z" fill="#EBE6ED"/>
<path fill-rule="evenodd" clip-rule="evenodd" d="M19.359 45.2406L20.31 44.55H56.22L57.1709 45.2406L65.1709 69.8306L64.22 71.14H12.31L11.359 69.8306L19.359 45.2406ZM21.0362 46.55L13.6869 69.14H62.8431L55.4937 46.55H21.0362Z" fill="#1B1B1B"/>
<path d="M38.16 72.66C52.7679 72.66 64.61 67.0725 64.61 60.18C64.61 53.2875 52.7679 47.7 38.16 47.7C23.5521 47.7 11.71 53.2875 11.71 60.18C11.71 67.0725 23.5521 72.66 38.16 72.66Z" fill="#515151"/>
<path fill-rule="evenodd" clip-rule="evenodd" d="M19.8837 52.2597C15.1806 54.4788 12.71 57.3472 12.71 60.18C12.71 63.0128 15.1806 65.8812 19.8837 68.1003C24.5093 70.2828 30.9699 71.66 38.16 71.66C45.3501 71.66 51.8106 70.2828 56.4362 68.1003C61.1394 65.8812 63.61 63.0128 63.61 60.18C63.61 57.3472 61.1394 54.4788 56.4362 52.2597C51.8106 50.0772 45.3501 48.7 38.16 48.7C30.9699 48.7 24.5093 50.0772 19.8837 52.2597ZM19.0303 50.4509C23.9777 48.1166 30.7422 46.7 38.16 46.7C45.5778 46.7 52.3423 48.1166 57.2897 50.4509C62.1595 52.7487 65.61 56.1203 65.61 60.18C65.61 64.2397 62.1595 67.6113 57.2897 69.9091C52.3423 72.2434 45.5778 73.66 38.16 73.66C30.7422 73.66 23.9777 72.2434 19.0303 69.9091C14.1604 67.6113 10.71 64.2397 10.71 60.18C10.71 56.1203 14.1604 52.7487 19.0303 50.4509Z" fill="#1B1B1B"/>
<path d="M38.29 60.4C39.9027 60.4 41.21 59.7822 41.21 59.02C41.21 58.2579 39.9027 57.64 38.29 57.64C36.6773 57.64 35.37 58.2579 35.37 59.02C35.37 59.7822 36.6773 60.4 38.29 60.4Z" fill="#EBE6ED"/>
<path fill-rule="evenodd" clip-rule="evenodd" d="M36.3413 59.1554C36.341 59.1553 36.3424 59.1524 36.3467 59.1471C36.3437 59.1528 36.3416 59.1554 36.3413 59.1554ZM36.5148 59.02C36.5525 58.9981 36.598 58.9741 36.6525 58.9483C37.0199 58.7747 37.5977 58.64 38.29 58.64C38.9823 58.64 39.5601 58.7747 39.9275 58.9483C39.982 58.9741 40.0274 58.9981 40.0652 59.02C40.0274 59.0419 39.982 59.0659 39.9275 59.0917C39.5601 59.2653 38.9823 59.4 38.29 59.4C37.5977 59.4 37.0199 59.2653 36.6525 59.0917C36.598 59.0659 36.5525 59.0419 36.5148 59.02ZM40.2387 59.1554C40.2384 59.1554 40.2363 59.1528 40.2333 59.1471C40.2375 59.1524 40.239 59.1553 40.2387 59.1554ZM40.2333 58.893C40.2363 58.8873 40.2384 58.8846 40.2387 58.8847C40.239 58.8848 40.2375 58.8876 40.2333 58.893ZM36.3467 58.893C36.3424 58.8876 36.341 58.8848 36.3413 58.8847C36.3416 58.8846 36.3437 58.8873 36.3467 58.893ZM35.798 57.1401C36.4874 56.8142 37.3696 56.64 38.29 56.64C39.2104 56.64 40.0926 56.8142 40.782 57.1401C41.3945 57.4295 42.21 58.0263 42.21 59.02C42.21 60.0137 41.3945 60.6105 40.782 60.8999C40.0926 61.2258 39.2104 61.4 38.29 61.4C37.3696 61.4 36.4874 61.2258 35.798 60.8999C35.1855 60.6105 34.37 60.0137 34.37 59.02C34.37 58.0263 35.1855 57.4295 35.798 57.1401Z" fill="#1B1B1B"/>
<path d="M53.83 58.84H53.97V48.3H53.83V58.84Z" fill="white"/>
<path fill-rule="evenodd" clip-rule="evenodd" d="M54.97 59.84H52.83V47.3H54.97V59.84Z" fill="#1B1B1B"/>
<path d="M55.23 60.72H52.7V64.84H55.23V60.72Z" fill="#FFEC7B"/>
<path fill-rule="evenodd" clip-rule="evenodd" d="M51.7 60.72L52.7 59.72H55.23L56.23 60.72V64.84L55.23 65.84H52.7L51.7 64.84V60.72ZM53.7 61.72V63.84H54.23V61.72H53.7Z" fill="#1B1B1B"/>
<path d="M19.54 74.6C20.1862 74.6 20.71 74.0762 20.71 73.43C20.71 72.7838 20.1862 72.26 19.54 72.26C18.8938 72.26 18.37 72.7838 18.37 73.43C18.37 74.0762 18.8938 74.6 19.54 74.6Z" fill="#FF2434"/>
<path d="M15.98 74.6C16.6262 74.6 17.15 74.0762 17.15 73.43C17.15 72.7838 16.6262 72.26 15.98 72.26C15.3338 72.26 14.81 72.7838 14.81 73.43C14.81 74.0762 15.3338 74.6 15.98 74.6Z" fill="#6DD028"/>
<path d="M26.6101 61.53L28.4801 62.78" stroke="#AFAFAF" stroke-linejoin="bevel"/>
<path d="M24.69 62.27L26.56 63.52" stroke="#AFAFAF" stroke-linejoin="bevel"/>
<path d="M49.6299 54.65L51.5099 55.9" stroke="#AFAFAF" stroke-linejoin="bevel"/>
<path d="M47.71 55.39L49.59 56.64" stroke="#AFAFAF" stroke-linejoin="bevel"/>
<path d="M92.61 9.82001H46.76C44.4404 9.82001 42.56 11.7004 42.56 14.02V31.42C42.56 33.7396 44.4404 35.62 46.76 35.62H92.61C94.9296 35.62 96.81 33.7396 96.81 31.42V14.02C96.81 11.7004 94.9296 9.82001 92.61 9.82001Z" fill="#00D1D1"/>
<path fill-rule="evenodd" clip-rule="evenodd" d="M46.76 10.82C44.9927 10.82 43.56 12.2527 43.56 14.02V31.42C43.56 33.1873 44.9927 34.62 46.76 34.62H92.61C94.3773 34.62 95.81 33.1873 95.81 31.42V14.02C95.81 12.2527 94.3773 10.82 92.61 10.82H46.76ZM41.56 14.02C41.56 11.1481 43.8881 8.82001 46.76 8.82001H92.61C95.4819 8.82001 97.81 11.1481 97.81 14.02V31.42C97.81 34.2919 95.4819 36.62 92.61 36.62H46.76C43.8881 36.62 41.56 34.2919 41.56 31.42V14.02Z" fill="#1B1B1B"/>
<path d="M86.05 12.43H53.32V33H86.05V12.43Z" fill="#303030"/>
<path d="M48.7 19.03C49.9537 19.03 50.97 18.0137 50.97 16.76C50.97 15.5063 49.9537 14.49 48.7 14.49C47.4463 14.49 46.43 15.5063 46.43 16.76C46.43 18.0137 47.4463 19.03 48.7 19.03Z" fill="white"/>
<path fill-rule="evenodd" clip-rule="evenodd" d="M48.7 14.99C47.7224 14.99 46.93 15.7825 46.93 16.76C46.93 17.7376 47.7224 18.53 48.7 18.53C49.6775 18.53 50.47 17.7376 50.47 16.76C50.47 15.7825 49.6775 14.99 48.7 14.99ZM45.93 16.76C45.93 15.2302 47.1702 13.99 48.7 13.99C50.2298 13.99 51.47 15.2302 51.47 16.76C51.47 18.2899 50.2298 19.53 48.7 19.53C47.1702 19.53 45.93 18.2899 45.93 16.76Z" fill="white"/>
<path d="M90.93 28.13C92.1837 28.13 93.2 27.1137 93.2 25.86C93.2 24.6063 92.1837 23.59 90.93 23.59C89.6763 23.59 88.66 24.6063 88.66 25.86C88.66 27.1137 89.6763 28.13 90.93 28.13Z" fill="white"/>
<path fill-rule="evenodd" clip-rule="evenodd" d="M90.93 24.09C89.9525 24.09 89.16 24.8825 89.16 25.86C89.16 26.8375 89.9525 27.63 90.93 27.63C91.9075 27.63 92.7 26.8375 92.7 25.86C92.7 24.8825 91.9075 24.09 90.93 24.09ZM88.16 25.86C88.16 24.3302 89.4002 23.09 90.93 23.09C92.4598 23.09 93.7 24.3302 93.7 25.86C93.7 27.3898 92.4598 28.63 90.93 28.63C89.4002 28.63 88.16 27.3898 88.16 25.86Z" fill="white"/>
<path d="M93.21 17.85C93.9556 17.85 94.56 17.2456 94.56 16.5C94.56 15.7544 93.9556 15.15 93.21 15.15C92.4644 15.15 91.86 15.7544 91.86 16.5C91.86 17.2456 92.4644 17.85 93.21 17.85Z" fill="white"/>
<path d="M88.58 17.97C89.3256 17.97 89.93 17.3656 89.93 16.62C89.93 15.8744 89.3256 15.27 88.58 15.27C87.8344 15.27 87.23 15.8744 87.23 16.62C87.23 17.3656 87.8344 17.97 88.58 17.97Z" fill="white"/>
<path d="M90.95 20.22C91.6956 20.22 92.3 19.6156 92.3 18.87C92.3 18.1244 91.6956 17.52 90.95 17.52C90.2044 17.52 89.6 18.1244 89.6 18.87C89.6 19.6156 90.2044 20.22 90.95 20.22Z" fill="white"/>
<path d="M88.51 31.95C88.9242 31.95 89.26 31.6142 89.26 31.2C89.26 30.7858 88.9242 30.45 88.51 30.45C88.0958 30.45 87.76 30.7858 87.76 31.2C87.76 31.6142 88.0958 31.95 88.51 31.95Z" fill="white"/>
<path d="M50.96 31.95C51.3742 31.95 51.71 31.6142 51.71 31.2C51.71 30.7858 51.3742 30.45 50.96 30.45C50.5458 30.45 50.21 30.7858 50.21 31.2C50.21 31.6142 50.5458 31.95 50.96 31.95Z" fill="white"/>
<path d="M90.83 15.6C91.5756 15.6 92.18 14.9956 92.18 14.25C92.18 13.5044 91.5756 12.9 90.83 12.9C90.0844 12.9 89.48 13.5044 89.48 14.25C89.48 14.9956 90.0844 15.6 90.83 15.6Z" fill="white"/>
<path d="M49.38 21.28H48.02C47.6003 21.28 47.26 21.6203 47.26 22.04V27.38C47.26 27.7997 47.6003 28.14 48.02 28.14H49.38C49.7997 28.14 50.14 27.7997 50.14 27.38V22.04C50.14 21.6203 49.7997 21.28 49.38 21.28Z" fill="white"/>
<path d="M52.13 25.38V24.02C52.13 23.6003 51.7897 23.26 51.37 23.26H46.03C45.6103 23.26 45.27 23.6003 45.27 24.02V25.38C45.27 25.7997 45.6103 26.14 46.03 26.14H51.37C51.7897 26.14 52.13 25.7997 52.13 25.38Z" fill="white"/>
<path fill-rule="evenodd" clip-rule="evenodd" d="M62.7936 28.443L71.5236 15.323L72.3562 15.877L63.6262 28.997L62.7936 28.443Z" fill="#E2E2E2"/>
<path fill-rule="evenodd" clip-rule="evenodd" d="M66.5737 27.563L75.3037 14.443L76.1362 14.997L67.4062 28.117L66.5737 27.563Z" fill="#E2E2E2"/>
<path d="M48.63 109.16H48.62V105.7H44.58V109.16H44.57C41.73 109.16 39.43 111.46 39.43 114.3V116.27C39.43 116.27 41.14 117.96 46.6 117.96C52.06 117.96 53.77 116.27 53.77 116.27V114.3C53.77 111.46 51.47 109.16 48.63 109.16Z" fill="white"/>
<path fill-rule="evenodd" clip-rule="evenodd" d="M53.77 115.443C46.3091 117.399 45.29 115.77 45.29 115.77C45.29 112.16 48.29 109.98 48.29 109.98L48.3 109.99L48.62 108.702V106.972L44.59 106.99L44.58 106.997V109.16H44.57C41.73 109.16 39.43 111.46 39.43 114.3V116.27C39.43 116.27 39.9436 116.778 41.3066 117.236L49.5634 117.768C51.5424 117.488 52.6979 116.966 53.2817 116.618L53.77 115.464V115.443Z" fill="#EAEAEA"/>
<path fill-rule="evenodd" clip-rule="evenodd" d="M43.58 104.7H49.62V108.239C52.5412 108.712 54.77 111.245 54.77 114.3V116.688L54.4729 116.981L53.77 116.27C54.4729 116.981 54.4724 116.982 54.4718 116.982L54.4706 116.983L54.4682 116.986L54.4627 116.991L54.4498 117.003C54.4403 117.012 54.4289 117.023 54.4156 117.035C54.3891 117.058 54.355 117.088 54.3128 117.122C54.2284 117.19 54.112 117.276 53.9595 117.374C53.6543 117.571 53.2074 117.814 52.5882 118.05C51.349 118.521 49.4336 118.96 46.6 118.96C43.7663 118.96 41.851 118.521 40.6118 118.05C39.9926 117.814 39.5456 117.571 39.2404 117.374C39.088 117.276 38.9716 117.19 38.8872 117.122C38.845 117.088 38.8109 117.058 38.7844 117.035C38.7711 117.023 38.7597 117.012 38.7502 117.003L38.7373 116.991L38.7318 116.986L38.7294 116.983L38.7282 116.982C38.7276 116.982 38.7271 116.981 39.43 116.27L38.7271 116.981L38.43 116.688V114.3C38.43 111.245 40.6588 108.712 43.58 108.239V104.7ZM40.43 115.759C40.6235 115.874 40.9149 116.025 41.3232 116.18C42.304 116.554 43.9736 116.96 46.6 116.96C49.2263 116.96 50.896 116.554 51.8768 116.18C52.2851 116.025 52.5765 115.874 52.77 115.759V114.3C52.77 112.012 50.9177 110.16 48.63 110.16H47.62V106.7H45.58V110.16H44.57C42.2823 110.16 40.43 112.012 40.43 114.3V115.759Z" fill="#1B1B1B"/>
<path d="M36.64 84.45L33.92 105C33.92 105 39.23 106.97 47.53 106.97C55.83 106.97 58.93 105.14 58.93 105.14L56.02 84.45C56.02 84.45 53.49 82.48 46.43 82.48C39.37 82.48 36.64 84.45 36.64 84.45Z" fill="#F4EBD7"/>
<path fill-rule="evenodd" clip-rule="evenodd" d="M33.9199 105L36.6399 84.45C36.6399 84.45 37.2744 83.9921 38.7227 83.5179L39.65 83.6999V83.7099L39.42 103.79C39.42 103.79 48.6899 106.356 58.6821 103.378L58.9299 105.14C58.9299 105.14 55.8299 106.97 47.5299 106.97C39.2299 106.97 33.9199 105 33.9199 105Z" fill="#EADEC7"/>
<path fill-rule="evenodd" clip-rule="evenodd" d="M38.5872 82.5111C40.2565 81.9858 42.8058 81.48 46.4299 81.48C50.0537 81.48 52.5566 81.9857 54.1816 82.514C54.9937 82.778 55.5842 83.0468 55.9836 83.2591C56.1832 83.3652 56.3347 83.457 56.442 83.5266C56.4956 83.5614 56.5381 83.5907 56.57 83.6134C56.586 83.6247 56.5992 83.6345 56.6099 83.6424L56.624 83.6531L56.6297 83.6574L56.6321 83.6592L56.6332 83.6601C56.6338 83.6605 56.6343 83.661 56.0199 84.45L56.6343 83.661L56.9538 83.9097L60.0132 105.662L59.4383 106.001L58.9299 105.14C59.4383 106.001 59.4378 106.001 59.4373 106.002L59.4362 106.002L59.4338 106.004L59.4281 106.007L59.4133 106.016C59.4018 106.022 59.3873 106.03 59.3696 106.04C59.3341 106.059 59.2859 106.084 59.2245 106.115C59.1017 106.175 58.9262 106.257 58.6938 106.352C58.2289 106.542 57.5374 106.785 56.5872 107.025C54.6864 107.504 51.7535 107.97 47.5299 107.97C43.3014 107.97 39.83 107.468 37.4086 106.964C36.1976 106.712 35.2482 106.459 34.597 106.267C34.2713 106.171 34.02 106.091 33.8477 106.033C33.7616 106.004 33.6952 105.981 33.649 105.965L33.5951 105.946L33.5797 105.94L33.5749 105.939L33.5733 105.938C33.573 105.938 33.5721 105.938 33.9199 105L33.5721 105.938L32.8239 105.66L35.7051 83.8913L36.0548 83.6391L36.6399 84.45C36.0548 83.6391 36.0553 83.6387 36.0558 83.6383L36.0568 83.6376L36.0592 83.6359L36.0646 83.632L36.0785 83.6223C36.0892 83.6149 36.1027 83.6057 36.119 83.5949C36.1515 83.5733 36.1953 83.5451 36.2508 83.5113C36.3618 83.4437 36.5194 83.3537 36.7265 83.2493C37.1411 83.0402 37.7532 82.7736 38.5872 82.5111ZM37.5672 85.0657C37.5863 85.0557 37.6063 85.0455 37.6271 85.0351C37.945 84.8747 38.4567 84.6489 39.1876 84.4189C40.6484 83.9592 42.9941 83.48 46.4299 83.48C49.8662 83.48 52.1583 83.9592 53.5633 84.416C54.2662 84.6445 54.7494 84.8681 55.045 85.0252C55.0622 85.0343 55.0788 85.0433 55.0948 85.052L57.8358 104.541C57.4566 104.69 56.8857 104.886 56.0977 105.085C54.3734 105.521 51.6063 105.97 47.5299 105.97C43.4585 105.97 40.1249 105.487 37.8163 105.006C36.6623 104.766 35.7654 104.526 35.1616 104.348C35.1126 104.334 35.0656 104.32 35.0204 104.306L37.5672 85.0657Z" fill="#1B1B1B"/>
<path fill-rule="evenodd" clip-rule="evenodd" d="M36.8 110.1V106.58H38.8V110.1H36.8Z" fill="#1B1B1B"/>
<path d="M37.68 112.74C38.768 112.74 39.65 111.858 39.65 110.77C39.65 109.682 38.768 108.8 37.68 108.8C36.592 108.8 35.71 109.682 35.71 110.77C35.71 111.858 36.592 112.74 37.68 112.74Z" fill="white"/>
<path fill-rule="evenodd" clip-rule="evenodd" d="M37.68 109.8C37.1443 109.8 36.71 110.234 36.71 110.77C36.71 111.306 37.1443 111.74 37.68 111.74C38.2157 111.74 38.65 111.306 38.65 110.77C38.65 110.234 38.2157 109.8 37.68 109.8ZM34.71 110.77C34.71 109.13 36.0397 107.8 37.68 107.8C39.3203 107.8 40.65 109.13 40.65 110.77C40.65 112.41 39.3203 113.74 37.68 113.74C36.0397 113.74 34.71 112.41 34.71 110.77Z" fill="#1B1B1B"/>
<path d="M102.3 84.94C102.38 87.21 105.54 93.53 104.27 99.58C103 105.63 99.65 114.64 90.98 108.59C90.98 108.59 85.95 110.42 85.75 103.38C85.55 96.34 88.73 98.03 88.73 98.03C88.73 98.03 81.7 98.93 85.87 84.54C90.03 70.15 91.41 70.03 93.66 70.15C95.91 70.27 99.63 71.73 99.35 78.61C99.35 78.61 102.02 76.77 102.31 84.93L102.3 84.94Z" fill="#8AD953"/>
<path fill-rule="evenodd" clip-rule="evenodd" d="M91.3266 72.438C90.2683 74.1125 88.9167 77.6018 86.8307 84.8177C84.7614 91.9583 85.6062 94.897 86.5226 96.0635C86.8647 96.499 87.254 96.7401 87.6072 96.8747C87.9036 96.8356 88.1755 96.8526 88.3983 96.8892C88.6233 96.9261 88.8108 96.9846 88.9449 97.0348C89.0126 97.0602 89.0686 97.0843 89.1112 97.1038C89.1325 97.1136 89.1507 97.1223 89.1654 97.1296L89.1849 97.1395L89.1928 97.1435L89.1962 97.1453L89.1978 97.1462C89.1985 97.1466 89.1993 97.147 88.73 98.03C88.857 99.0219 88.856 99.022 88.855 99.0222L88.8529 99.0224L88.8481 99.023L88.8365 99.0244L88.8054 99.0276C88.7813 99.0299 88.7503 99.0325 88.7129 99.0348C88.6384 99.0393 88.5382 99.0427 88.4171 99.0404C88.2114 99.0365 87.9407 99.0161 87.6306 98.9546C87.4991 99.05 87.276 99.2866 87.0824 99.8829C86.8609 100.565 86.7013 101.654 86.7496 103.352C86.7964 105 87.124 106.019 87.5051 106.643C87.8738 107.247 88.3233 107.534 88.7529 107.675C89.2054 107.824 89.6782 107.824 90.0623 107.774C90.2501 107.75 90.4049 107.715 90.509 107.688C90.5608 107.674 90.599 107.663 90.6215 107.656C90.6327 107.652 90.6399 107.65 90.6428 107.649L90.6418 107.649L90.6392 107.65C90.6391 107.65 90.6391 107.649 90.6392 107.65L91.5522 107.77C93.6087 109.205 95.2243 109.658 96.4788 109.587C97.7125 109.517 98.7553 108.93 99.6653 107.944C101.545 105.909 102.659 102.387 103.291 99.3746C103.88 96.5692 103.449 93.6513 102.82 91.0803C102.575 90.0778 102.306 89.1518 102.06 88.306C101.991 88.0673 101.923 87.835 101.859 87.6093C101.58 86.6356 101.326 85.6892 101.301 84.9752L101.31 84.9511C101.239 82.966 101.024 81.6477 100.767 80.7861C100.506 79.9133 100.228 79.5955 100.099 79.4925C100.011 79.4225 99.9696 79.4303 99.9487 79.4342C99.9476 79.4344 99.9466 79.4346 99.9456 79.4348C99.923 79.4388 99.902 79.4466 99.8886 79.4529C99.8849 79.4546 99.883 79.4557 99.883 79.4557C99.883 79.4557 99.8836 79.4553 99.8851 79.4544C99.8871 79.4533 99.8907 79.4511 99.8959 79.4477L99.9053 79.4417L99.911 79.4378L99.9141 79.4357L99.9157 79.4346C99.9159 79.4345 99.916 79.4344 99.9143 79.4317L98.3508 78.5694C98.4834 75.3109 97.6654 73.5212 96.7282 72.5332C95.7795 71.5331 94.5621 71.1996 93.6067 71.1486C93.0318 71.1179 92.7439 71.1269 92.473 71.2432C92.2178 71.3527 91.8411 71.6239 91.3266 72.438ZM100.36 77.4683C100.286 74.5017 99.4344 72.48 98.1793 71.1568C96.7755 69.6769 95.0079 69.2205 93.7133 69.1514C93.1632 69.1221 92.4346 69.0832 91.6842 69.4053C90.9179 69.7342 90.2677 70.3699 89.6359 71.3695C88.4017 73.3225 86.9834 77.088 84.9095 84.2617M100.36 77.4683C100.678 77.5276 101.016 77.6665 101.344 77.9275C101.918 78.3845 102.362 79.1367 102.683 80.2139C103.008 81.3002 103.235 82.8077 103.309 84.8945L103.3 84.9185C103.318 85.3408 103.488 86.0319 103.782 87.0595C103.842 87.2712 103.907 87.4939 103.974 87.7262C104.221 88.5765 104.506 89.5565 104.763 90.6048C105.416 93.2737 105.93 96.5408 105.249 99.7855C104.611 102.823 103.415 106.831 101.135 109.301C99.9647 110.568 98.465 111.477 96.5925 111.584C94.8469 111.683 92.9213 111.077 90.7976 109.675C90.6602 109.705 90.4991 109.734 90.3195 109.758C89.7543 109.831 88.9571 109.848 88.1271 109.575C87.2742 109.294 86.4287 108.718 85.7981 107.685C85.1797 106.672 84.8036 105.28 84.7504 103.408C84.6986 101.586 84.8616 100.246 85.1801 99.2653C85.3286 98.8079 85.5154 98.4164 85.7374 98.0893C85.465 97.8757 85.1985 97.6155 84.9499 97.299C83.3938 95.3181 82.8089 91.5108 84.9095 84.2617M88.73 98.03L88.857 99.0219L89.1993 97.147L88.73 98.03Z" fill="#1B1B1B"/>
<path d="M98.78 88.76C98.78 88.76 90.94 117.06 86.02 117.06H132.48L98.79 88.76H98.78Z" fill="#E28C03"/>
<path fill-rule="evenodd" clip-rule="evenodd" d="M97.8163 88.493L98.78 87.76H98.79L99.4332 87.9943L133.123 116.294L132.48 118.06H86.02V116.06C86.1754 116.06 86.5792 115.918 87.2322 115.181C87.8429 114.491 88.5102 113.463 89.2087 112.164C90.6009 109.576 92.0227 106.092 93.3053 102.568C94.5848 99.0525 95.713 95.5328 96.5219 92.8893C96.9261 91.5683 97.2501 90.4677 97.4729 89.698C97.5843 89.3132 97.6704 89.0111 97.7285 88.8057C97.7575 88.703 97.7796 88.6244 97.7943 88.5717L97.8109 88.5123L97.8163 88.493C97.8163 88.4929 97.8163 88.493 98.78 88.76L97.8163 88.493ZM99.3196 90.5108C99.0991 91.2684 98.799 92.2827 98.4343 93.4745C97.6195 96.1373 96.4802 99.6925 95.1847 103.252C93.8923 106.803 92.4316 110.394 90.9701 113.112C90.361 114.244 89.735 115.257 89.1021 116.06H129.735L99.3196 90.5108Z" fill="#1B1B1B"/>
<path d="M98.58 88.76C98.58 88.76 100.72 105.37 112.06 117.06H140.01C140.01 117.06 126.64 103.69 125.23 88.76H98.58Z" fill="#914D2C"/>
<g style="mix-blend-mode:multiply" opacity="0.3">
<path fill-rule="evenodd" clip-rule="evenodd" d="M101.096 88.7599C103.193 94.0854 112.249 112.409 138.438 115.358C139.405 116.455 140.01 117.06 140.01 117.06H112.06C100.72 105.37 98.58 88.7599 98.58 88.7599H101.096Z" fill="#914D2C"/>
</g>
<path fill-rule="evenodd" clip-rule="evenodd" d="M97.5882 88.8878L98.58 87.76H125.23L126.226 88.666C126.908 95.8871 130.497 102.796 133.977 107.949C135.711 110.515 137.402 112.622 138.658 114.087C139.286 114.818 139.804 115.389 140.164 115.774C140.344 115.967 140.484 116.113 140.578 116.211C140.625 116.26 140.661 116.296 140.684 116.32L140.71 116.346L140.716 116.352L140.717 116.353C140.717 116.353 140.718 116.352 140.717 116.353L140.01 118.06H112.06L111.342 117.756C105.535 111.77 102.103 104.548 100.123 98.8548C99.1312 96.0032 98.4991 93.522 98.1143 91.7502C97.9219 90.8639 97.7911 90.1542 97.7081 89.6633C97.6666 89.4178 97.637 89.2269 97.6176 89.0959C97.6079 89.0304 97.6007 88.9799 97.5959 88.945L97.5904 88.9044L97.5889 88.8931L97.5882 88.8878C97.5881 88.8874 97.5882 88.8878 98.58 88.76L97.5882 88.8878ZM99.7556 89.76C99.8317 90.1797 99.9344 90.7069 100.069 91.3258C100.44 93.0337 101.051 95.4355 102.012 98.1978C103.903 103.634 107.128 110.415 112.486 116.06H137.724C137.542 115.853 137.346 115.629 137.14 115.389C135.845 113.88 134.105 111.711 132.32 109.069C128.903 104.01 125.261 97.1286 124.334 89.76H99.7556Z" fill="#1B1B1B"/>
<path d="M119.74 113.55C119.74 113.55 114.57 114.28 115.84 116.81C117.11 119.34 120.77 115.18 120.77 115.18L119.74 113.55Z" fill="#CC9337"/>
<path fill-rule="evenodd" clip-rule="evenodd" d="M119.6 112.56C119.6 112.56 119.6 112.56 119.74 113.55L120.585 113.016L121.615 114.646L121.521 115.841L120.77 115.18C121.521 115.841 121.521 115.84 121.521 115.841L121.52 115.841L121.519 115.843L121.516 115.846L121.505 115.858L121.469 115.899C121.438 115.933 121.394 115.981 121.338 116.04C121.227 116.158 121.067 116.322 120.873 116.51C120.488 116.881 119.944 117.366 119.34 117.773C118.763 118.162 118.004 118.569 117.212 118.621C116.791 118.648 116.339 118.577 115.915 118.332C115.493 118.087 115.174 117.712 114.946 117.259C114.721 116.809 114.61 116.341 114.646 115.868C114.682 115.394 114.859 114.985 115.103 114.648C115.566 114.006 116.29 113.589 116.911 113.316C117.557 113.032 118.229 112.845 118.726 112.73C118.977 112.671 119.191 112.629 119.344 112.602C119.42 112.588 119.482 112.578 119.525 112.571L119.577 112.563L119.592 112.561L119.597 112.56L119.6 112.56ZM119.505 115.05L119.258 114.659C119.232 114.665 119.205 114.671 119.178 114.678C118.745 114.778 118.205 114.932 117.716 115.147C117.203 115.372 116.874 115.612 116.725 115.818C116.662 115.906 116.644 115.969 116.64 116.019C116.636 116.07 116.642 116.178 116.734 116.361C116.823 116.54 116.897 116.589 116.918 116.601C116.937 116.612 116.979 116.631 117.081 116.625C117.331 116.608 117.726 116.449 118.222 116.115C118.692 115.798 119.142 115.401 119.484 115.071C119.491 115.064 119.498 115.057 119.505 115.05Z" fill="#1B1B1B"/>
<path d="M122.03 113.73C122.03 113.73 127.2 114.46 125.93 116.99C124.66 119.52 121 115.36 121 115.36L122.03 113.73Z" fill="#CC9337"/>
<path fill-rule="evenodd" clip-rule="evenodd" d="M122.592 114.858C122.565 114.851 122.538 114.845 122.512 114.839L122.265 115.23C122.272 115.237 122.279 115.244 122.286 115.251C122.628 115.581 123.078 115.978 123.548 116.295C124.044 116.629 124.439 116.788 124.689 116.805C124.791 116.811 124.833 116.792 124.852 116.781C124.873 116.769 124.946 116.72 125.036 116.541C125.128 116.358 125.134 116.25 125.13 116.199C125.126 116.149 125.108 116.086 125.045 115.998C124.896 115.792 124.567 115.552 124.054 115.327C123.565 115.112 123.025 114.958 122.592 114.858ZM121 115.36L120.249 116.021L120.155 114.826L121.185 113.196L122.03 113.73C122.17 112.74 122.17 112.74 122.17 112.74L122.173 112.74L122.178 112.741L122.193 112.743L122.245 112.751C122.288 112.758 122.35 112.768 122.426 112.782C122.579 112.809 122.793 112.851 123.044 112.91C123.541 113.025 124.213 113.212 124.859 113.496C125.48 113.769 126.204 114.186 126.667 114.828C126.911 115.165 127.088 115.574 127.124 116.048C127.16 116.521 127.049 116.989 126.824 117.439C126.596 117.892 126.277 118.267 125.855 118.512C125.431 118.757 124.979 118.828 124.558 118.801C123.766 118.749 123.007 118.342 122.43 117.953C121.826 117.546 121.282 117.061 120.897 116.69C120.702 116.502 120.543 116.338 120.432 116.22C120.376 116.161 120.332 116.113 120.301 116.079L120.265 116.038L120.254 116.026L120.251 116.023L120.25 116.021C120.25 116.021 120.249 116.021 121 115.36Z" fill="#1B1B1B"/>
<path d="M120.5 112.91C120.5 112.91 118.36 117.67 121.18 117.95C124 118.23 122.43 112.91 122.43 112.91H120.5Z" fill="#CC9337"/>
<path fill-rule="evenodd" clip-rule="evenodd" d="M119.588 112.5L120.5 111.91H122.43L123.389 112.627L122.43 112.91C123.389 112.627 123.389 112.627 123.389 112.627L123.39 112.63L123.391 112.634L123.396 112.65L123.41 112.702C123.423 112.746 123.44 112.809 123.46 112.888C123.501 113.045 123.555 113.268 123.61 113.533C123.719 114.056 123.84 114.776 123.862 115.504C123.884 116.2 123.823 117.059 123.444 117.758C123.243 118.128 122.941 118.473 122.507 118.7C122.074 118.926 121.586 118.995 121.081 118.945C120.581 118.895 120.126 118.739 119.745 118.456C119.363 118.173 119.112 117.804 118.957 117.419C118.66 116.684 118.693 115.849 118.793 115.178C118.897 114.48 119.098 113.812 119.265 113.33C119.35 113.086 119.429 112.883 119.487 112.739C119.516 112.667 119.54 112.61 119.558 112.569L119.578 112.521L119.585 112.507L119.587 112.503L119.588 112.5C119.588 112.5 119.588 112.5 120.5 112.91L119.588 112.5ZM121.181 113.91C121.172 113.935 121.163 113.96 121.154 113.986C121.008 114.406 120.85 114.945 120.772 115.472C120.689 116.027 120.716 116.433 120.811 116.67C120.852 116.77 120.896 116.82 120.937 116.85C120.979 116.881 121.074 116.935 121.279 116.955C121.479 116.975 121.559 116.939 121.58 116.928C121.6 116.917 121.638 116.893 121.686 116.804C121.806 116.583 121.881 116.165 121.863 115.566C121.845 114.999 121.749 114.406 121.652 113.941C121.65 113.931 121.648 113.92 121.646 113.91H121.181ZM121.412 113.319C121.412 113.319 121.412 113.319 121.412 113.319V113.319Z" fill="#1B1B1B"/>
<path d="M119.74 113.75C119.74 113.75 117.46 113.93 118.13 110.21C118.8 106.49 119.74 108.96 119.74 108.96C119.74 108.96 120.21 105.17 120.97 105.17C121.73 105.17 123.44 105.58 123.53 111.4C123.62 117.22 119.74 113.75 119.74 113.75Z" fill="#FF4317"/>
<path fill-rule="evenodd" clip-rule="evenodd" d="M120.732 109.083C120.732 109.083 120.732 109.083 120.732 109.083L120.732 109.083L120.732 109.083L120.733 109.082L120.733 109.075L120.737 109.047C120.74 109.022 120.745 108.983 120.752 108.934C120.766 108.836 120.786 108.694 120.813 108.523C120.867 108.18 120.946 107.729 121.046 107.284C121.134 106.892 121.23 106.539 121.329 106.276C121.415 106.335 121.531 106.443 121.66 106.643C122.041 107.236 122.486 108.564 122.53 111.416C122.552 112.807 122.323 113.415 122.161 113.643C122.076 113.763 122.011 113.797 121.813 113.768C121.547 113.729 121.21 113.57 120.888 113.362C120.738 113.265 120.613 113.171 120.526 113.103C120.482 113.068 120.45 113.041 120.429 113.024L120.408 113.006L120.405 113.003L120.406 113.004L120.406 113.004C120.406 113.004 120.406 113.004 120.406 113.004L119.663 112.754C119.663 112.753 119.663 112.753 119.663 112.753L119.664 112.753L119.667 112.753L119.672 112.752L119.681 112.752L119.69 112.751C119.69 112.751 119.691 112.751 119.691 112.751C119.691 112.751 119.688 112.751 119.682 112.751C119.665 112.751 119.633 112.748 119.593 112.74C119.51 112.723 119.418 112.688 119.337 112.618C119.232 112.527 118.81 112.078 119.114 110.387C119.215 109.827 119.314 109.467 119.393 109.245L120.732 109.083ZM119.028 107.156C119.049 107.054 119.071 106.95 119.094 106.846C119.204 106.356 119.35 105.811 119.537 105.371C119.628 105.156 119.753 104.907 119.928 104.696C120.088 104.503 120.433 104.17 120.97 104.17C121.254 104.17 121.665 104.209 122.112 104.424C122.564 104.642 122.986 105.008 123.342 105.562C124.029 106.63 124.484 108.416 124.53 111.385C124.553 112.903 124.33 114.044 123.79 114.803C123.174 115.669 122.285 115.858 121.524 115.747C120.832 115.646 120.205 115.302 119.802 115.041C119.626 114.927 119.475 114.818 119.358 114.728C119.307 114.721 119.252 114.712 119.195 114.7C118.872 114.634 118.436 114.482 118.03 114.132C117.163 113.383 116.78 112.062 117.146 110.033C117.317 109.082 117.527 108.378 117.816 107.915C117.965 107.678 118.194 107.406 118.546 107.258C118.71 107.189 118.873 107.158 119.028 107.156ZM119.522 108.961C119.522 108.961 119.521 108.963 119.518 108.966C119.521 108.962 119.522 108.961 119.522 108.961ZM118.636 109.012C118.636 109.012 118.638 109.014 118.641 109.017C118.638 109.014 118.636 109.012 118.636 109.012Z" fill="#1B1B1B"/>
<path fill-rule="evenodd" clip-rule="evenodd" d="M99.1486 99.8277L100.049 117.008L98.0514 117.112L97.1514 99.9323L99.1486 99.8277Z" fill="#1B1B1B"/>
<path fill-rule="evenodd" clip-rule="evenodd" d="M120.27 113.51V111.67H121.27V113.51H120.27Z" fill="#FFEE1A"/>
<path opacity="0.3" fill-rule="evenodd" clip-rule="evenodd" d="M121.989 92.2068C121.989 92.2067 121.989 92.2066 122.47 92.07L122.951 91.9334L122.956 91.953L122.973 92.0117C122.988 92.0633 123.01 92.1396 123.039 92.2375C123.095 92.4334 123.178 92.716 123.281 93.0623C123.488 93.755 123.777 94.7016 124.105 95.7177C124.767 97.7708 125.57 100.042 126.175 101.114L125.304 101.606C124.64 100.428 123.808 98.0542 123.153 96.0248C122.822 94.9997 122.531 94.0456 122.323 93.3481C122.219 92.9992 122.136 92.7142 122.078 92.5163C122.049 92.4174 122.027 92.3401 122.012 92.2876L121.995 92.2275L121.989 92.2068Z" fill="#B76646"/>
<path d="M122.89 46.47C124.15 46.25 129.62 45.33 134.61 45.28C144.94 45.18 155.89 47.35 155.89 58.71C155.89 70.07 145.05 70.91 127.28 70.91C109.51 70.91 109.29 56.44 109.29 56.44V43.93C109.29 43.93 105.24 43.93 105.24 40.84C105.24 37.75 109.29 37.85 109.29 37.85C109.29 37.85 108.57 32.06 116.32 32.06C121.79 32.06 122.61 37.41 122.83 40.02C122.95 41.36 122.93 44.28 122.89 46.47Z" fill="#FFDA00"/>
<g style="mix-blend-mode:multiply">
<path d="M129.23 45.89C129.23 45.89 128.1 48.49 131.48 51.48C134.86 54.47 125.73 56.03 125.73 56.03L136.13 57.23C136.13 57.23 143.34 58.37 145.93 60.71C148.52 63.06 150.05 66.75 146.82 69.48C146.82 69.48 154.86 67.59 155.63 61.52C157 52.5 149 47.5 149 47.5L139 45.5L129.22 45.88L129.23 45.89Z" fill="#E0B23F"/>
</g>
<path fill-rule="evenodd" clip-rule="evenodd" d="M116.32 31.06C112.156 31.06 110.019 32.6451 109.021 34.4765C108.545 35.3493 108.366 36.2119 108.303 36.8471C108.301 36.8706 108.299 36.8938 108.297 36.9168C107.903 36.9698 107.422 37.0655 106.93 37.2403C106.327 37.4546 105.655 37.8074 105.127 38.3993C104.58 39.012 104.24 39.8246 104.24 40.84C104.24 41.855 104.58 42.6697 105.119 43.2882C105.642 43.8869 106.309 44.2537 106.91 44.4822C107.407 44.6712 107.894 44.7789 108.29 44.8411V46.4473C108.29 49.8584 108.115 53.3504 108.298 56.6579C108.305 56.7783 108.317 56.9493 108.339 57.1635C108.383 57.5917 108.466 58.1949 108.624 58.9151C108.939 60.3524 109.557 62.2765 110.771 64.2074C113.238 68.1298 118.063 71.91 127.28 71.91C136.127 71.91 143.454 71.7123 148.566 70.0233C151.151 69.1693 153.258 67.9082 154.712 66.0237C156.172 64.131 156.89 61.7154 156.89 58.71C156.89 55.7004 156.163 53.2356 154.852 51.2499C153.544 49.2686 151.698 47.8282 149.559 46.7935C145.315 44.7407 139.803 44.2297 134.601 44.28C130.507 44.3129 126.121 44.9298 123.909 45.2848C123.936 43.3259 123.938 41.0949 123.826 39.9298C123.714 38.605 123.445 36.4369 122.424 34.5794C121.904 33.6349 121.177 32.7451 120.156 32.0937C119.129 31.4386 117.861 31.06 116.32 31.06ZM110.291 56.4472L110.29 56.4287V42.9275L109.29 42.93L109.288 42.93L109.268 42.9296C109.247 42.9291 109.213 42.9281 109.168 42.9257C109.078 42.921 108.944 42.9112 108.781 42.8909C108.451 42.8495 108.029 42.768 107.62 42.6128C107.209 42.4562 106.863 42.2444 106.626 41.973C106.407 41.7215 106.24 41.375 106.24 40.84C106.24 40.3054 106.406 39.9693 106.619 39.7307C106.85 39.4713 107.19 39.2704 107.6 39.1247C108.006 38.9804 108.427 38.9094 108.757 38.8762C108.919 38.8599 109.053 38.8534 109.143 38.8509C109.188 38.8497 109.222 38.8495 109.243 38.8495L109.264 38.8497L109.266 38.8497L110.426 38.8812L110.283 37.7312C110.283 37.7275 110.282 37.7188 110.281 37.7055C110.279 37.6787 110.276 37.6335 110.274 37.5725C110.27 37.4499 110.272 37.2667 110.294 37.0436C110.338 36.5931 110.464 36.0082 110.777 35.4335C111.356 34.3699 112.734 33.06 116.32 33.06C117.519 33.06 118.407 33.3501 119.08 33.7797C119.759 34.213 120.276 34.8238 120.671 35.5431C121.478 37.0102 121.725 38.8182 121.833 40.104L121.835 40.1166C121.958 41.3855 121.931 44.2369 121.89 46.4517C121.875 47.2248 121.86 47.9082 121.849 48.3984C121.843 48.6435 121.839 48.8403 121.835 48.9757L121.83 49.1848L123.83 49.2352L123.835 49.024C123.838 48.8878 123.843 48.6902 123.848 48.4441C123.856 48.136 123.864 47.7518 123.873 47.317C125.894 46.9839 130.434 46.3134 134.618 46.28L134.62 46.2799C139.748 46.2303 144.875 46.7494 148.688 48.594C150.578 49.508 152.115 50.7333 153.183 52.3516C154.248 53.9656 154.89 56.0346 154.89 58.71C154.89 61.3896 154.255 63.3415 153.128 64.8023C151.995 66.2711 150.284 67.3494 147.939 68.1242C143.191 69.6927 136.212 69.91 127.28 69.91C118.717 69.91 114.547 66.4552 112.464 63.1426C111.403 61.456 110.857 59.7625 110.577 58.4867C110.438 57.8504 110.366 57.3232 110.329 56.96C110.31 56.7786 110.3 56.6386 110.295 56.5471C110.293 56.5014 110.291 56.4678 110.291 56.4472Z" fill="#1B1B1B"/>
<path fill-rule="evenodd" clip-rule="evenodd" d="M145.436 55.6617C143.974 57.1254 140.849 58.28 134.4 58.28C127.943 58.28 124.783 57.1222 123.275 55.6772C122.494 54.9295 122.188 54.1338 122.106 53.4814C122.066 53.164 122.08 52.8938 122.108 52.6945C122.121 52.5946 122.138 52.5114 122.154 52.4475C122.161 52.4154 122.169 52.3881 122.175 52.3658C122.178 52.3546 122.181 52.3447 122.184 52.336L122.188 52.3239L122.19 52.3186L122.191 52.3161C122.191 52.3149 122.191 52.3138 123.14 52.63C124.089 52.9462 124.089 52.9451 124.089 52.944L124.09 52.9418L124.091 52.9378L124.094 52.9307L124.097 52.9209C124.098 52.9176 124.098 52.916 124.098 52.916C124.098 52.916 124.098 52.9163 124.098 52.917C124.097 52.9212 124.093 52.9379 124.089 52.9651C124.082 53.0201 124.075 53.1132 124.09 53.2317C124.118 53.4512 124.225 53.818 124.658 54.2328C125.577 55.1127 128.047 56.28 134.4 56.28C140.761 56.28 143.161 55.1096 144.021 54.2483C144.423 53.8463 144.511 53.4922 144.528 53.2762C144.538 53.1588 144.527 53.0653 144.517 53.0086C144.512 52.9806 144.507 52.963 144.505 52.9578C144.505 52.9568 144.505 52.9563 144.505 52.9563C144.505 52.9563 144.505 52.9576 144.506 52.9602L144.509 52.9693L144.512 52.9759L144.513 52.9798L144.514 52.9818C144.514 52.9829 144.515 52.984 145.45 52.63C146.385 52.276 146.386 52.2771 146.386 52.2783L146.387 52.2806L146.389 52.2858L146.393 52.2975C146.396 52.3059 146.399 52.3156 146.403 52.3265C146.41 52.3483 146.419 52.3751 146.428 52.4066C146.446 52.4696 146.466 52.5519 146.484 52.651C146.52 52.8486 146.547 53.1184 146.522 53.4369C146.469 54.0928 146.196 54.9012 145.436 55.6617Z" fill="#1B1B1B"/>
<path fill-rule="evenodd" clip-rule="evenodd" d="M112.43 40.13V37.08H114.43V40.13H112.43Z" fill="#1B1B1B"/>
<path fill-rule="evenodd" clip-rule="evenodd" d="M112.969 60.3728C112.969 60.3727 112.969 60.3725 113.43 60.18C113.892 59.9875 113.891 59.9873 113.891 59.9872L113.893 59.9918L113.902 60.0122C113.91 60.031 113.923 60.0601 113.941 60.0984C113.977 60.1751 114.031 60.2887 114.105 60.4315C114.252 60.7174 114.476 61.1187 114.78 61.5738C115.389 62.4875 116.306 63.5988 117.549 64.4352L116.991 65.2648C115.604 64.3312 114.601 63.1075 113.948 62.1287C113.62 61.6375 113.377 61.2032 113.216 60.89C113.135 60.7333 113.074 60.6065 113.033 60.5177C113.013 60.4733 112.997 60.4383 112.986 60.4138L112.974 60.385L112.97 60.3767L112.969 60.3741L112.969 60.3728Z" fill="white"/>
<path fill-rule="evenodd" clip-rule="evenodd" d="M118.573 66.7592L117.633 66.0992L118.207 65.2808L119.147 65.9408L118.573 66.7592Z" fill="white"/>
<path d="M143.97 38.75C143.97 38.75 137.06 34.4 134.79 34.91C132.52 35.42 128.8 35.12 128.38 39.66C127.96 44.2 131.06 49.99 136.18 52.99C141.3 55.99 142.91 58.98 148.51 60.74C154.11 62.5 164.24 61.57 162.79 55.16C161.34 48.75 154.22 45.45 154.22 45.45L143.98 38.75H143.97Z" fill="#F2B95F"/>
<path fill-rule="evenodd" clip-rule="evenodd" d="M142.2 37.701C143.251 38.2973 143.97 38.75 143.97 38.75H143.98L154.22 45.45C154.22 45.45 161.34 48.75 162.79 55.16C164.24 61.57 154.11 62.5 148.51 60.74C145.079 59.6616 143.145 58.1213 140.985 56.3999C140.572 56.0714 140.151 55.7362 139.711 55.3964C165.133 63.3424 152.23 49.28 152.23 49.28L150.67 48.9L135.99 35.24L142.2 37.701Z" fill="#D89D45"/>
<path fill-rule="evenodd" clip-rule="evenodd" d="M144.254 37.75C144.234 37.7374 144.212 37.7242 144.189 37.7103C143.992 37.5897 143.708 37.4186 143.36 37.2152C142.666 36.809 141.713 36.271 140.685 35.7475C139.661 35.2265 138.539 34.7077 137.51 34.3502C136.996 34.1715 136.484 34.0256 136.006 33.9431C135.541 33.8628 135.037 33.8295 134.571 33.9343C134.235 34.0098 133.892 34.0615 133.498 34.1208C133.261 34.1565 133.006 34.1949 132.723 34.243C132.024 34.3615 131.236 34.5299 130.489 34.8582C129.729 35.192 128.996 35.6975 128.427 36.4915C127.859 37.2831 127.502 38.2952 127.384 39.5679C126.922 44.5609 130.281 50.6928 135.675 53.8528C137.59 54.975 138.976 56.0791 140.333 57.1599C140.738 57.4828 141.141 57.8036 141.555 58.1221C143.351 59.5064 145.259 60.7665 148.21 61.694C151.173 62.6252 155.3 62.8472 158.552 61.98C160.178 61.5461 161.698 60.8097 162.714 59.6386C163.77 58.4201 164.193 56.8294 163.765 54.9393C162.971 51.4293 160.643 48.8256 158.6 47.1314C157.57 46.2777 156.59 45.6355 155.866 45.2058C155.503 44.9905 155.203 44.8276 154.99 44.7172C154.884 44.6619 154.8 44.6197 154.741 44.5907C154.73 44.5856 154.721 44.5809 154.712 44.5766L144.278 37.75H144.254ZM153.799 46.3569L153.733 46.3266L143.682 39.75L143.437 39.5963L143.434 39.5939L143.42 39.5855L143.365 39.551C143.316 39.5205 143.242 39.4754 143.148 39.4178C142.959 39.3026 142.686 39.1378 142.35 38.9413C141.677 38.5478 140.761 38.0302 139.778 37.5299C138.79 37.0272 137.759 36.5541 136.854 36.2394C136.401 36.0821 136.001 35.9717 135.666 35.914C135.319 35.854 135.11 35.863 135.009 35.8857C134.61 35.9753 134.138 36.047 133.691 36.1149C133.47 36.1486 133.255 36.1813 133.057 36.2148C132.406 36.3253 131.812 36.4613 131.294 36.6893C130.787 36.9117 130.37 37.2143 130.052 37.6569C129.733 38.1018 129.468 38.7548 129.376 39.7521C128.998 43.839 131.839 49.2871 136.686 52.1272C138.736 53.3287 140.263 54.5458 141.636 55.6396C142.025 55.95 142.402 56.2504 142.775 56.5378C144.464 57.8386 146.161 58.9535 148.81 59.786C151.447 60.6147 155.185 60.8078 158.036 60.0475C159.46 59.6676 160.551 59.0796 161.202 58.3285C161.813 57.6248 162.112 56.6956 161.815 55.3806C161.159 52.4806 159.202 50.2294 157.323 48.671C156.391 47.8985 155.501 47.3151 154.845 46.9257C154.517 46.7314 154.25 46.5865 154.067 46.4914C153.976 46.4439 153.906 46.4089 153.86 46.3865C153.837 46.3753 153.821 46.3673 153.81 46.3624L153.8 46.3575L153.799 46.3569Z" fill="#1B1B1B"/>
<path d="M140.37 42.67L145.23 37.4C145.23 37.4 147.61 35.54 151.02 38.12C154.43 40.7 154.22 43.29 154.22 43.29L152.23 49.28C152.23 49.28 148.53 50.11 144.71 47.83C140.89 45.56 140.37 42.66 140.37 42.66V42.67Z" fill="#D89C45"/>
<path fill-rule="evenodd" clip-rule="evenodd" d="M148.504 36.8759C149.249 37.0486 150.097 37.4217 151.02 38.12C153.424 39.939 154.029 41.763 154.177 42.6807C153.115 43.3397 151.407 43.6204 148.88 41.97C144.424 39.0601 146.121 36.8448 147.548 36.7528C147.659 36.7555 147.774 36.7624 147.892 36.7742C147.915 36.7788 147.937 36.7841 147.96 36.79C148.092 36.8252 148.277 36.8535 148.504 36.8759Z" fill="#FCBC5E"/>
<path fill-rule="evenodd" clip-rule="evenodd" d="M145.853 38.1836L141.37 42.1225V42.5465C141.385 42.6048 141.412 42.6965 141.454 42.8159C141.542 43.0661 141.699 43.4372 141.964 43.8778C142.492 44.754 143.461 45.9247 145.221 46.9703L145.223 46.9713C146.962 48.0094 148.675 48.3406 149.958 48.4115C150.59 48.4465 151.113 48.4177 151.475 48.3808L153.221 43.1265C153.219 43.0844 153.215 43.0294 153.207 42.9628C153.182 42.7545 153.12 42.4322 152.966 42.032C152.661 41.241 151.978 40.0984 150.417 38.9175C148.915 37.7811 147.732 37.6786 146.985 37.7829C146.595 37.8372 146.292 37.9525 146.092 38.0494C145.992 38.0978 145.92 38.1408 145.877 38.1679C145.868 38.174 145.86 38.1793 145.853 38.1836ZM154.22 43.29C155.217 43.3708 155.217 43.3701 155.217 43.3694L155.217 43.368L155.217 43.3649L155.218 43.358L155.219 43.3413C155.22 43.3288 155.22 43.3138 155.221 43.2962C155.222 43.2612 155.223 43.2161 155.222 43.1616C155.221 43.0526 155.214 42.906 155.193 42.7272C155.15 42.3692 155.052 41.8828 154.832 41.3129C154.389 40.164 153.473 38.7216 151.623 37.3225C149.715 35.8789 148.003 35.6214 146.708 35.8021C146.076 35.8902 145.572 36.0787 145.219 36.2499C145.042 36.3357 144.902 36.4178 144.801 36.4823C144.75 36.5147 144.709 36.5428 144.678 36.5649C144.662 36.576 144.649 36.5856 144.639 36.5935L144.625 36.6041L144.619 36.6084L144.617 36.6103L144.615 36.6112C144.615 36.6116 144.614 36.6121 145.23 37.4L144.614 36.6121L144.592 36.6298L139.37 41.2174V42.7489L139.386 42.8365L140.37 42.66C139.386 42.8365 139.386 42.837 139.386 42.8376L139.386 42.8388L139.387 42.8414L139.388 42.8474L139.391 42.8627C139.393 42.8742 139.396 42.8886 139.4 42.9057C139.407 42.9398 139.418 42.9848 139.432 43.0397C139.46 43.1494 139.504 43.2991 139.568 43.4813C139.697 43.8458 139.909 44.3415 140.251 44.9096C140.938 46.0509 142.139 47.4649 144.199 48.6892C146.279 49.9306 148.325 50.3243 149.847 50.4085C150.609 50.4506 151.245 50.4155 151.696 50.3687C151.921 50.3453 152.102 50.3188 152.229 50.2974C152.293 50.2867 152.344 50.2772 152.381 50.2699C152.399 50.2663 152.414 50.2632 152.426 50.2608L152.44 50.2577L152.445 50.2566L152.447 50.2561C152.448 50.256 152.449 50.2557 152.23 49.28L152.449 50.2557L153.001 50.1319L155.207 43.4909L155.217 43.3708L154.22 43.29ZM152.015 48.3035C152.015 48.3034 152.015 48.3034 152.015 48.3035V48.3035Z" fill="#1B1B1B"/>
</svg>
