<svg width="180" height="130" viewBox="0 0 180 130" fill="none" xmlns="http://www.w3.org/2000/svg">
<g clip-path="url(#clip0_2329_14294)">
<path d="M114 1H16C7.71573 1 1 7.71573 1 16V114C1 122.284 7.71573 129 16 129H114C122.284 129 129 122.284 129 114V16C129 7.71573 122.284 1 114 1Z" fill="#8FDFF3"/>
<path d="M36.73 80.7002C36.73 80.7002 37.04 83.7002 37.67 86.6902C36.12 85.2902 34.97 83.3302 33.9 81.4702L33.87 81.1302C34.81 81.0302 35.77 80.8902 36.73 80.7002Z" fill="#FAFAFA"/>
<path d="M50.2499 63.2001L50.8099 63.2201C50.5099 63.6101 50.2099 64.0301 49.9099 64.4701C46.2499 69.9401 42.2499 79.6001 36.7299 80.7001C35.7699 80.8901 34.8099 81.0301 33.8699 81.1301C27.8599 81.7501 22.5599 80.7001 22.5599 80.7001L29.5899 74.3801L29.1699 66.7201C29.1699 66.7201 32.1199 61.4101 36.7299 59.3001C41.3299 57.1901 46.5299 59.3001 46.5299 59.3001L50.2499 63.2001Z" fill="#1D8EFF"/>
<path d="M40.2599 88.2502C39.5599 88.1202 38.7899 88.0402 37.9699 88.0202C37.8699 87.5902 37.7699 87.1402 37.6699 86.6902C38.4299 87.3702 39.2799 87.9202 40.2599 88.2502Z" fill="#FAFAFA"/>
<path d="M51.08 86.0701L51.43 85.8601C51.32 85.9401 51.2 86.0101 51.08 86.0701Z" fill="#FAFAFA"/>
<path d="M36.73 80.7C42.25 79.6 46.25 69.94 49.91 64.47L50.07 64.57C52.7 66.16 54.24 69.03 55.25 72.73C55.35 73.12 55.45 73.52 55.55 73.93C56.62 78.57 55.05 83.56 51.43 85.86L51.08 86.07C51.2 86.01 51.32 85.94 51.43 85.86L52.66 85.13C55.28 91.05 51.48 99.79 51.48 99.79C51.16 96.84 41.75 94.22 39.74 92.25C39.02 91.55 38.43 89.88 37.97 88.02C38.79 88.04 39.56 88.12 40.26 88.25C39.28 87.92 38.43 87.37 37.67 86.69C37.04 83.7 36.73 80.7 36.73 80.7Z" fill="#FAFAFA"/>
<path d="M52.9699 61.13C57.5699 58.47 60.6199 60.85 60.5699 64.37C60.5299 67.89 55.4899 72.66 55.4899 72.66L55.2499 72.73C54.2399 69.03 52.6999 66.16 50.0699 64.57L49.9099 64.47C50.2099 64.03 50.5099 63.61 50.8099 63.22C51.5299 62.28 52.2499 61.55 52.9699 61.13Z" fill="#1379C4"/>
<path d="M52.98 104.22C52.98 106.07 52.28 106.98 51.43 106.98C50.58 106.98 49.88 106.07 49.88 104.22C49.88 102.37 51.43 100.26 51.43 100.26C51.43 100.26 52.98 102.36 52.98 104.22Z" fill="#FAFAFA"/>
<path d="M51.43 100.26C51.43 100.26 49.88 102.36 49.88 104.22C49.88 106.08 50.58 106.98 51.43 106.98C52.28 106.98 52.98 106.07 52.98 104.22C52.98 102.37 51.43 100.26 51.43 100.26ZM39.74 92.25C41.75 94.22 51.16 96.84 51.48 99.79C51.48 99.79 55.28 91.05 52.66 85.13L84.61 66.2C84.61 66.2 88.08 63.81 88.93 65.64C89.77 67.47 87.1 69.16 85.83 70.15C85.83 70.15 89.25 73.24 89.09 76.62C88.93 80 87.38 83.38 83.44 84.36C79.5 85.35 75.7 82.53 75.7 82.53L58.8 96.05L61.18 129.94L42.22 130.08C43.74 124.88 46.66 113.75 40.84 106.99C36.26 101.67 29.05 103 27.57 106.99C26.29 110.44 27.57 113.61 27.57 113.61C27.57 113.61 31.06 116.43 29.79 122.06C29.39 123.82 28.97 125.19 28.51 126.26L27.87 125.96C25.86 125.82 20.78 122.86 18.12 117.73C17.11 115.78 16.45 113.51 16.45 110.97C16.43 97.81 26.6 92.36 32.23 89.35C34.19 88.31 36.19 87.99 37.97 88.02C38.43 89.88 39.02 91.55 39.74 92.25Z" fill="#FAFAFA"/>
<path d="M18.12 117.73C20.78 122.86 25.86 125.82 27.87 125.96L28.51 126.26C28.97 125.19 29.39 123.82 29.79 122.06C31.06 116.43 27.57 113.61 27.57 113.61C27.57 113.61 26.29 110.44 27.57 106.99C29.05 103 36.26 101.67 40.84 106.99C46.66 113.75 43.74 124.88 42.22 130.08C42.14 130.33 42.08 130.57 42.01 130.79C40.59 135.61 36.4 141.77 31.48 142.19C26.55 142.62 17.26 143.6 15.85 132.2C14.73 123.16 18.12 117.73 18.12 117.73Z" fill="#75BDEF"/>
<path d="M50.07 64.5701C52.7 66.1601 54.24 69.0301 55.25 72.7301C55.35 73.1201 55.45 73.5201 55.55 73.9301C56.62 78.5701 55.05 83.5601 51.43 85.8601C51.32 85.9401 51.2 86.0101 51.08 86.0701C50.41 86.4601 49.68 86.7501 48.88 86.9401" stroke="#1B1B1B" stroke-width="2" stroke-miterlimit="10"/>
<path d="M41.03 88.46C40.76 88.41 40.51 88.34 40.26 88.25C39.28 87.92 38.43 87.37 37.67 86.69C36.12 85.29 34.97 83.33 33.9 81.47" stroke="#1B1B1B" stroke-width="2" stroke-miterlimit="10"/>
<path d="M51.08 86.07L51.43 85.86L52.66 85.13L84.61 66.2C84.61 66.2 88.08 63.81 88.93 65.64C89.77 67.47 87.1 69.16 85.83 70.15C85.83 70.15 89.25 73.24 89.09 76.62C88.93 80 87.38 83.38 83.44 84.36C79.5 85.35 75.7 82.53 75.7 82.53L58.8 96.05L61.18 129.94L42.22 130.08H42.01" stroke="#1B1B1B" stroke-width="2" stroke-miterlimit="10"/>
<path d="M18.12 117.73C20.78 122.86 25.86 125.82 27.87 125.96" stroke="#1B1B1B" stroke-width="2" stroke-miterlimit="10"/>
<path d="M37.97 88.02C36.19 87.99 34.19 88.31 32.23 89.35C26.6 92.36 16.43 97.81 16.45 110.97C16.45 113.51 17.11 115.78 18.12 117.73" stroke="#1B1B1B" stroke-width="2" stroke-linejoin="bevel"/>
<path d="M43.86 89.35C43.86 89.35 42.41 88.62 40.26 88.25C39.56 88.12 38.79 88.04 37.97 88.02" stroke="#1B1B1B" stroke-width="2" stroke-miterlimit="10"/>
<path d="M47.0399 72.8601L48.0399 75.7801" stroke="#1B1B1B" stroke-width="2" stroke-miterlimit="10"/>
<path d="M50.6799 71.6602L51.6899 74.5802" stroke="#1B1B1B" stroke-width="2" stroke-miterlimit="10"/>
<path d="M18.12 117.73C18.12 117.73 14.73 123.16 15.85 132.2C17.26 143.6 26.55 142.62 31.48 142.19C36.4 141.77 40.59 135.61 42.01 130.79C42.08 130.57 42.14 130.33 42.22 130.08C43.74 124.88 46.66 113.75 40.84 106.99C36.26 101.67 29.05 103 27.57 106.99C26.29 110.44 27.57 113.61 27.57 113.61C27.57 113.61 31.06 116.43 29.79 122.06C29.39 123.82 28.97 125.19 28.51 126.26C27.52 128.61 26.4 129.47 25.14 129.66" stroke="#1B1B1B" stroke-width="2" stroke-miterlimit="10"/>
<path d="M55.4899 72.6601C55.4899 72.6601 60.5299 67.8901 60.5699 64.3701C60.6199 60.8501 57.5699 58.4701 52.9699 61.1301C52.2499 61.5501 51.5299 62.2801 50.8099 63.2201C50.5099 63.6101 50.2099 64.0301 49.9099 64.4701C46.2499 69.9401 42.2499 79.6001 36.7299 80.7001C35.7699 80.8901 34.8099 81.0301 33.8699 81.1301C27.8599 81.7501 22.5599 80.7001 22.5599 80.7001L29.5899 74.3801L29.1699 66.7201C29.1699 66.7201 32.1199 61.4101 36.7299 59.3001C41.3299 57.1901 46.5299 59.3001 46.5299 59.3001L50.2499 63.2001" stroke="#1B1B1B" stroke-width="2" stroke-linejoin="bevel"/>
<path d="M36.73 80.7002C36.73 80.7002 37.04 83.7002 37.67 86.6902C37.77 87.1402 37.87 87.5902 37.97 88.0202C38.43 89.8802 39.02 91.5502 39.74 92.2502C41.75 94.2202 51.16 96.8402 51.48 99.7902C51.48 99.7902 55.28 91.0502 52.66 85.1302C52.65 85.1102 52.64 85.0802 52.63 85.0602" stroke="#1B1B1B" stroke-width="2" stroke-linejoin="bevel"/>
<path d="M52.98 104.22C52.98 106.07 52.28 106.98 51.43 106.98C50.58 106.98 49.88 106.07 49.88 104.22C49.88 102.37 51.43 100.26 51.43 100.26C51.43 100.26 52.98 102.36 52.98 104.22Z" stroke="#1B1B1B" stroke-width="2" stroke-linejoin="bevel"/>
<path d="M90.09 99.21C90.09 99.21 91.89 91.4 88.51 90.03C85.13 88.65 80.34 88.71 77.11 93.12C77.11 93.12 71.76 90.06 63.74 100.76C63.74 100.76 71.34 96.96 72.89 97.8L72.61 100.76L75.43 98.51C75.43 98.51 80.5 96.4 81.91 100.76C81.91 100.76 78.72 101.82 77.17 104.84C77.17 104.84 68.26 103.75 64.88 112.53C64.88 112.53 71.22 107.65 75.86 108.92L74.73 112.53C74.73 112.53 77.97 108.92 79.09 109.34C79.09 109.34 83.31 109.1 83.31 112.53L82.18 129.25H90.57L89.5 112.53C89.5 112.53 97.38 107.42 100.76 115.49C100.76 115.49 98.93 107.79 92.88 107.79C92.88 107.79 98.37 100.19 109.35 108.21C109.35 108.21 106.65 99.2 98.37 99.2C98.37 99.2 102.31 95.54 105.55 97.37C105.55 97.37 94.9 91.03 90.09 99.2V99.21Z" fill="#8AD953"/>
<path fill-rule="evenodd" clip-rule="evenodd" d="M83.2156 113.927L83.31 112.53C83.31 109.1 79.09 109.34 79.09 109.34C78.4034 109.082 76.9199 110.34 75.8748 111.351C77.0694 108.821 79.5799 105.327 84.6199 103.93C91.4799 102.03 91.2899 106.9 91.2899 106.9C91.2899 106.9 97.5137 98.7376 108.556 106.289C109.111 107.411 109.35 108.21 109.35 108.21C98.37 100.19 92.88 107.79 92.88 107.79C98.93 107.79 100.76 115.49 100.76 115.49C97.38 107.42 89.5 112.53 89.5 112.53L89.5832 113.83L83.2199 113.93L83.2156 113.927Z" fill="#57A620"/>
<path fill-rule="evenodd" clip-rule="evenodd" d="M73.9404 99.6985L73.73 99.4001C73.55 96.0901 76.63 93.9301 76.63 93.9301L79.52 91.8201C76.66 94.5601 76.33 97.1501 76.33 97.1501C76.51 96.7301 78.53 94.9901 78.53 94.9901C84.48 90.8701 86.54 98.0501 86.54 98.0501C87.12 100.34 86.24 101.92 86.24 101.92C80.23 100.28 77.51 104.76 77.51 104.76L77.3427 104.523C78.9445 101.745 81.91 100.76 81.91 100.76C80.5 96.4 75.43 98.51 75.43 98.51L73.9404 99.6985Z" fill="#57A620"/>
<path fill-rule="evenodd" clip-rule="evenodd" d="M103.796 96.8638C101.043 96.7169 98.37 99.1999 98.37 99.1999C100.131 99.1999 101.64 99.6076 102.924 100.249L102.71 101.08C102.71 101.08 98.17 97.14 91.52 105.23C91.52 105.23 97.5657 96.4633 102.702 96.0623C103.134 96.2212 103.53 96.3835 103.88 96.5373L103.796 96.8638Z" fill="#57A620"/>
<path d="M81.3101 130.29L83.2101 113.92L89.5801 113.82L91.6601 130L81.3101 130.29Z" fill="#B78B3B"/>
<path d="M82.1601 116.56L90.4901 115.72L90.2501 116.56L82.1601 118.18V119.59L90.1201 117.99L82.1601 120.51L82.0901 123.54L91 125.5V127L81.5 126L82.1601 116.56Z" fill="#A87D36"/>
<path d="M87.41 102.63C87.41 102.63 90.93 103.9 91.28 106.9L92.71 106.24C92.71 106.24 91.58 103.66 87.41 102.63Z" fill="#57A620"/>
<path d="M76.82 109.7C76.82 109.7 76.82 107.56 78.12 105.14L76.97 105.82C76.97 105.82 75.24 107.04 76.82 109.7Z" fill="#57A620"/>
<path d="M90.09 99.21C90.09 99.21 91.89 91.4 88.51 90.03C85.13 88.65 80.34 88.71 77.11 93.12C77.11 93.12 71.76 90.06 63.74 100.76C63.74 100.76 71.34 96.96 72.89 97.8L72.61 100.76L75.43 98.51C75.43 98.51 80.5 96.4 81.91 100.76C81.91 100.76 78.72 101.82 77.17 104.84C77.17 104.84 68.26 103.75 64.88 112.53C64.88 112.53 71.22 107.65 75.86 108.92L74.73 112.53C74.73 112.53 77.97 108.92 79.09 109.34C79.09 109.34 83.31 109.1 83.31 112.53L82.18 129.25H90.57L89.5 112.53C89.5 112.53 97.38 107.42 100.76 115.49C100.76 115.49 98.93 107.79 92.88 107.79C92.88 107.79 98.37 100.19 109.35 108.21C109.35 108.21 106.65 99.2 98.37 99.2C98.37 99.2 102.31 95.54 105.55 97.37C105.55 97.37 94.9 91.03 90.09 99.2V99.21Z" stroke="#1B1B1B" stroke-width="2" stroke-linejoin="bevel"/>
<path d="M95.73 120.78C95.73 120.78 101.61 115.59 104.89 119.74L103.91 129.25H110.54L109.56 120.61C109.56 120.61 114.57 118.66 115.96 123.69C115.96 123.69 115.79 118.01 112.85 117.49C112.85 117.49 117.86 114.9 119.94 119.39C119.94 119.39 116.01 110.95 109.05 114.55L107.84 111.27C107.84 111.27 104.21 110.75 102.83 112.31L104.9 114.9C104.9 114.9 95.91 113 95.74 120.78H95.73Z" fill="#8AD953"/>
<path d="M105.24 122.48L109.35 121.91L110.73 130.57L103.34 131.2L103.55 124.02L105.24 122.48Z" fill="#B78B3B"/>
<path d="M103.55 124.02L110.38 123.74L110.01 124.58L104.41 124.43L104.75 126.21L109.35 125.71L104.68 127.05L104.82 127.76L109.35 127.83L109.89 128.81L103.91 129.25L103.55 124.02Z" fill="#A87D36"/>
<path fill-rule="evenodd" clip-rule="evenodd" d="M104.633 122.238L104.89 119.74C102.773 117.061 99.5716 118.274 97.5685 119.471L96.8 119.17C96.8 119.17 98.7 115.51 105.25 117.2C105.25 117.2 107.46 116.36 108.25 118.26C108.25 118.26 111.86 117.49 114.82 120.23L113.586 120.611C111.712 119.772 109.56 120.61 109.56 120.61L109.696 121.813L109.35 121.92L105.25 122.48L104.633 122.238Z" fill="#57A620"/>
<path d="M104.06 115.77C104.06 115.77 106.15 116 107.03 117.16C107.03 117.16 106.19 114.38 105.48 114.17C104.77 113.96 104.05 115.77 104.05 115.77H104.06Z" fill="#57A620"/>
<path d="M112.41 116.76C112.41 116.76 112.45 115.6 108.83 116.59L107.65 117.24C107.65 117.24 111.32 113.91 115.83 115.81C120.33 117.71 112.42 116.76 112.42 116.76H112.41Z" fill="#57A620"/>
<path d="M107.32 117.58C107.32 117.58 108.38 116.14 109.85 116.66C111.32 117.18 112.42 118.45 112.42 118.45C112.42 118.45 109.65 117.36 107.83 118.84L107.32 117.57V117.58Z" fill="#57A620"/>
<path d="M95.74 121.5C95.74 121.5 101.61 115.59 104.89 119.74L103.91 129.25H110.54L109.56 120.61C109.56 120.61 114.57 118.66 115.96 123.69C115.96 123.69 115.79 118.01 112.85 117.49C112.85 117.49 117.86 114.9 119.94 119.39C119.94 119.39 116.01 110.95 109.05 114.55L107.84 111.27C107.84 111.27 104.21 110.75 102.83 112.31L104.9 114.9C104.9 114.9 95.91 113 95.74 120.78L95.74 121.5Z" stroke="#1B1B1B" stroke-width="2" stroke-linejoin="bevel"/>
<path d="M114 2C121.72 2 128 8.28 128 16V114C128 121.72 121.72 128 114 128H16C8.28 128 2 121.72 2 114V16C2 8.28 8.28 2 16 2H114ZM114 0H16C7.16 0 0 7.16 0 16V114C0 122.84 7.16 130 16 130H114C122.84 130 130 122.84 130 114V16C130 7.16 122.84 0 114 0Z" fill="#1B1B1B"/>
<path d="M37.5862 14.9992L10.9736 31.0339C9.84775 31.7123 9.48498 33.1749 10.1633 34.3008L15.7732 43.6113C16.4515 44.7372 17.9142 45.1 19.04 44.4216L45.6526 28.3868C46.7785 27.7085 47.1413 26.2459 46.4629 25.12L40.8531 15.8094C40.1747 14.6836 38.7121 14.3208 37.5862 14.9992Z" fill="#EEEAEF" stroke="#1B1B1B" stroke-width="2" stroke-miterlimit="10"/>
<path d="M15.25 35.54L14.7 34.63L16.55 33.51L17.1 34.42L15.25 35.54ZM18.15 38.48L15.53 34.13L16.62 33.48L19.24 37.83L18.15 38.48Z" fill="#1B1B1B"/>
<path d="M21.72 36.4301C21.36 36.6501 20.97 36.7501 20.57 36.7301C20.17 36.7101 19.78 36.5801 19.41 36.3401C19.04 36.1001 18.72 35.7601 18.46 35.3201C18.2 34.8801 18.04 34.4401 18 34.0101C17.96 33.5801 18.03 33.1801 18.2 32.8201C18.37 32.4601 18.64 32.1701 19 31.9501C19.36 31.7301 19.75 31.6301 20.16 31.6401C20.56 31.6601 20.95 31.7801 21.31 32.0201C21.67 32.2601 21.99 32.6001 22.26 33.0401C22.53 33.4801 22.68 33.9301 22.73 34.3601C22.77 34.7901 22.71 35.1901 22.53 35.5601C22.36 35.9201 22.09 36.2101 21.73 36.4301H21.72ZM21.14 35.4801C21.3 35.3801 21.42 35.2501 21.48 35.0801C21.54 34.9101 21.54 34.7101 21.48 34.4801C21.42 34.2501 21.31 33.9901 21.15 33.7101C20.99 33.4301 20.81 33.2201 20.63 33.0601C20.45 32.9001 20.27 32.8101 20.09 32.7901C19.91 32.7601 19.74 32.8001 19.57 32.9001C19.4 33.0001 19.29 33.1301 19.23 33.3001C19.17 33.4701 19.17 33.6701 19.22 33.9001C19.27 34.1301 19.38 34.3801 19.55 34.6601C19.72 34.9401 19.89 35.1601 20.07 35.3101C20.25 35.4701 20.43 35.5601 20.61 35.5901C20.79 35.6201 20.96 35.5801 21.13 35.4801H21.14Z" fill="#1B1B1B"/>
<path d="M25.84 33.9499C25.48 34.1699 25.09 34.2699 24.69 34.2499C24.29 34.2299 23.9 34.0999 23.53 33.8599C23.16 33.6199 22.84 33.2799 22.58 32.8399C22.32 32.3999 22.16 31.9599 22.12 31.5299C22.08 31.0999 22.15 30.6999 22.32 30.3399C22.49 29.9799 22.76 29.6899 23.12 29.4699C23.48 29.2499 23.87 29.1499 24.28 29.1599C24.68 29.1799 25.07 29.2999 25.43 29.5399C25.79 29.7799 26.11 30.1199 26.38 30.5599C26.65 30.9999 26.8 31.4499 26.85 31.8799C26.89 32.3099 26.83 32.7099 26.65 33.0799C26.48 33.4399 26.21 33.7299 25.85 33.9499H25.84ZM25.26 32.9999C25.42 32.8999 25.54 32.7699 25.6 32.5999C25.66 32.4299 25.66 32.2299 25.6 31.9999C25.54 31.7699 25.43 31.5099 25.27 31.2299C25.11 30.9499 24.93 30.7399 24.75 30.5799C24.57 30.4199 24.39 30.3299 24.21 30.3099C24.03 30.2799 23.86 30.3199 23.69 30.4199C23.52 30.5199 23.41 30.6499 23.35 30.8199C23.29 30.9899 23.29 31.1899 23.34 31.4199C23.39 31.6499 23.5 31.8999 23.67 32.1799C23.84 32.4599 24.01 32.6799 24.19 32.8299C24.37 32.9899 24.55 33.0799 24.73 33.1099C24.91 33.1399 25.08 33.0999 25.25 32.9999H25.26Z" fill="#1B1B1B"/>
<path d="M28.4999 33.2599L28.4399 32.1099L28.6999 31.8399C28.6999 31.9299 28.6999 32.0099 28.6699 32.0799C28.6499 32.1499 28.6099 32.1999 28.5499 32.2399C28.4199 32.3199 28.2699 32.3299 28.0999 32.2899C27.9299 32.2499 27.7999 32.1399 27.6999 31.9799C27.5899 31.7999 27.5599 31.6199 27.5999 31.4199C27.6399 31.2299 27.7499 31.0699 27.9299 30.9599C28.0899 30.8599 28.2699 30.8399 28.4699 30.8899C28.6699 30.9399 28.8199 31.0499 28.9299 31.2299C28.9699 31.2999 29.0099 31.3999 29.0399 31.5099C29.0699 31.6199 29.0899 31.7799 29.0999 31.9799L29.1499 33.2399L28.4799 33.2699L28.4999 33.2599Z" fill="#1B1B1B"/>
<path d="M31.5199 30.5199C31.1599 30.7399 30.7699 30.8399 30.3699 30.8199C29.9699 30.7999 29.5799 30.6699 29.2099 30.4299C28.8399 30.1899 28.5199 29.8499 28.2599 29.4099C27.9999 28.9699 27.8399 28.5299 27.7999 28.0999C27.7599 27.6699 27.8299 27.2699 27.9999 26.9099C28.1699 26.5499 28.4399 26.2599 28.7999 26.0399C29.1599 25.8199 29.5499 25.7199 29.9599 25.7299C30.3599 25.7499 30.7499 25.8699 31.1099 26.1099C31.4699 26.3499 31.7899 26.6899 32.0599 27.1299C32.3299 27.5699 32.4799 28.0199 32.5299 28.4499C32.5699 28.8799 32.5099 29.2799 32.3299 29.6499C32.1599 30.0099 31.8899 30.2999 31.5299 30.5199H31.5199ZM30.9399 29.5699C31.0999 29.4699 31.2199 29.3399 31.2799 29.1699C31.3399 28.9999 31.3399 28.7999 31.2799 28.5699C31.2199 28.3399 31.1099 28.0799 30.9499 27.7999C30.7899 27.5199 30.6099 27.3099 30.4299 27.1499C30.2499 26.9899 30.0699 26.8999 29.8899 26.8799C29.7099 26.8499 29.5399 26.8899 29.3699 26.9899C29.1999 27.0899 29.0899 27.2199 29.0299 27.3899C28.9699 27.5599 28.9699 27.7599 29.0199 27.9899C29.0699 28.2199 29.1799 28.4699 29.3499 28.7499C29.5199 29.0299 29.6899 29.2499 29.8699 29.3999C30.0499 29.5599 30.2299 29.6499 30.4099 29.6799C30.5899 29.7099 30.7599 29.6699 30.9299 29.5699H30.9399Z" fill="#1B1B1B"/>
<path d="M35.6399 28.0399C35.2799 28.2599 34.8899 28.3599 34.4899 28.3399C34.0899 28.3199 33.6999 28.1899 33.3299 27.9499C32.9599 27.7099 32.6399 27.3699 32.3799 26.9299C32.1199 26.4899 31.9599 26.0499 31.9199 25.6199C31.8799 25.1899 31.9499 24.7899 32.1199 24.4299C32.2899 24.0699 32.5599 23.7799 32.9199 23.5599C33.2799 23.3399 33.6699 23.2399 34.0799 23.2499C34.4799 23.2699 34.8699 23.3899 35.2299 23.6299C35.5899 23.8699 35.9099 24.2099 36.1799 24.6499C36.4499 25.0899 36.5999 25.5399 36.6499 25.9699C36.6899 26.3999 36.6299 26.7999 36.4499 27.1699C36.2799 27.5299 36.0099 27.8199 35.6499 28.0399H35.6399ZM35.0599 27.0899C35.2199 26.9899 35.3399 26.8599 35.3999 26.6899C35.4599 26.5199 35.4599 26.3199 35.3999 26.0899C35.3399 25.8599 35.2299 25.5999 35.0699 25.3199C34.9099 25.0399 34.7299 24.8299 34.5499 24.6699C34.3699 24.5099 34.1899 24.4199 34.0099 24.3999C33.8299 24.3699 33.6599 24.4099 33.4899 24.5099C33.3199 24.6099 33.2099 24.7399 33.1499 24.9099C33.0899 25.0799 33.0899 25.2799 33.1399 25.5099C33.1899 25.7399 33.2999 25.9899 33.4699 26.2699C33.6399 26.5499 33.8099 26.7699 33.9899 26.9199C34.1699 27.0799 34.3499 27.1699 34.5299 27.1999C34.7099 27.2299 34.8799 27.1899 35.0499 27.0899H35.0599Z" fill="#1B1B1B"/>
<path d="M39.7599 25.56C39.3999 25.78 39.0099 25.88 38.6099 25.86C38.2099 25.84 37.8199 25.71 37.4499 25.47C37.0799 25.23 36.7599 24.89 36.4999 24.45C36.2399 24.01 36.0799 23.57 36.0399 23.14C35.9999 22.71 36.0699 22.31 36.2399 21.95C36.4099 21.59 36.6799 21.3 37.0399 21.08C37.3999 20.86 37.7899 20.76 38.1999 20.77C38.5999 20.79 38.9899 20.91 39.3499 21.15C39.7099 21.39 40.0299 21.73 40.2999 22.17C40.5699 22.61 40.7199 23.06 40.7699 23.49C40.8099 23.92 40.7499 24.32 40.5699 24.69C40.3999 25.05 40.1299 25.34 39.7699 25.56H39.7599ZM39.1799 24.61C39.3399 24.51 39.4599 24.38 39.5199 24.21C39.5799 24.04 39.5799 23.84 39.5199 23.61C39.4599 23.38 39.3499 23.12 39.1899 22.84C39.0299 22.56 38.8499 22.35 38.6699 22.19C38.4899 22.03 38.3099 21.94 38.1299 21.92C37.9499 21.89 37.7799 21.93 37.6099 22.03C37.4399 22.13 37.3299 22.26 37.2699 22.43C37.2099 22.6 37.2099 22.8 37.2599 23.03C37.3099 23.26 37.4199 23.51 37.5899 23.79C37.7599 24.07 37.9299 24.29 38.1099 24.44C38.2899 24.6 38.4699 24.69 38.6499 24.72C38.8299 24.75 38.9999 24.71 39.1699 24.61H39.1799Z" fill="#1B1B1B"/>
<path d="M53.6608 14.9958L27.0482 31.0305C25.9223 31.7089 25.5596 33.1715 26.2379 34.2973L31.8478 43.6079C32.5261 44.7338 33.9887 45.0965 35.1146 44.4182L61.7272 28.3834C62.8531 27.7051 63.2159 26.2425 62.5375 25.1166L56.9277 15.806C56.2493 14.6802 54.7867 14.3174 53.6608 14.9958Z" fill="#EEEAEF" stroke="#1B1B1B" stroke-width="2" stroke-miterlimit="10"/>
<path d="M31.32 35.54L30.77 34.63L32.62 33.51L33.17 34.42L31.32 35.54ZM34.22 38.48L31.6 34.13L32.69 33.48L35.31 37.83L34.22 38.48Z" fill="#1B1B1B"/>
<path d="M37.7901 36.4301C37.4301 36.6501 37.0401 36.7501 36.6401 36.7301C36.2401 36.7101 35.8501 36.5801 35.4801 36.3401C35.1101 36.1001 34.7901 35.7601 34.5301 35.3201C34.2701 34.8801 34.1101 34.4401 34.0701 34.0101C34.0301 33.5801 34.1001 33.1801 34.2701 32.8201C34.4401 32.4601 34.7101 32.1701 35.0701 31.9501C35.4301 31.7301 35.8201 31.6301 36.2301 31.6401C36.6301 31.6601 37.0201 31.7801 37.3801 32.0201C37.7401 32.2601 38.0601 32.6001 38.3301 33.0401C38.6001 33.4801 38.7501 33.9301 38.8001 34.3601C38.8401 34.7901 38.7801 35.1901 38.6001 35.5601C38.4301 35.9201 38.1601 36.2101 37.8001 36.4301H37.7901ZM37.2101 35.4801C37.3701 35.3801 37.4901 35.2501 37.5501 35.0801C37.6101 34.9101 37.6101 34.7101 37.5501 34.4801C37.4901 34.2501 37.3801 33.9901 37.2201 33.7101C37.0601 33.4301 36.8801 33.2201 36.7001 33.0601C36.5201 32.9001 36.3401 32.8101 36.1601 32.7901C35.9801 32.7601 35.8101 32.8001 35.6401 32.9001C35.4701 33.0001 35.3601 33.1301 35.3001 33.3001C35.2401 33.4701 35.2401 33.6701 35.2901 33.9001C35.3401 34.1301 35.4501 34.3801 35.6201 34.6601C35.7901 34.9401 35.9601 35.1601 36.1401 35.3101C36.3201 35.4701 36.5001 35.5601 36.6801 35.5901C36.8601 35.6201 37.0301 35.5801 37.2001 35.4801H37.2101Z" fill="#1B1B1B"/>
<path d="M41.91 33.9499C41.55 34.1699 41.16 34.2699 40.76 34.2499C40.36 34.2299 39.97 34.0999 39.6 33.8599C39.23 33.6199 38.91 33.2799 38.65 32.8399C38.39 32.3999 38.23 31.9599 38.19 31.5299C38.15 31.0999 38.22 30.6999 38.39 30.3399C38.56 29.9799 38.83 29.6899 39.19 29.4699C39.55 29.2499 39.94 29.1499 40.35 29.1599C40.75 29.1799 41.14 29.2999 41.5 29.5399C41.86 29.7799 42.18 30.1199 42.45 30.5599C42.72 30.9999 42.87 31.4499 42.92 31.8799C42.96 32.3099 42.9 32.7099 42.72 33.0799C42.55 33.4399 42.28 33.7299 41.92 33.9499H41.91ZM41.3301 32.9999C41.4901 32.8999 41.61 32.7699 41.67 32.5999C41.73 32.4299 41.73 32.2299 41.67 31.9999C41.61 31.7699 41.5 31.5099 41.34 31.2299C41.18 30.9499 41 30.7399 40.82 30.5799C40.64 30.4199 40.46 30.3299 40.28 30.3099C40.1 30.2799 39.93 30.3199 39.76 30.4199C39.59 30.5199 39.48 30.6499 39.42 30.8199C39.36 30.9899 39.36 31.1899 39.41 31.4199C39.46 31.6499 39.5701 31.8999 39.7401 32.1799C39.9101 32.4599 40.08 32.6799 40.26 32.8299C40.44 32.9899 40.62 33.0799 40.8 33.1099C40.98 33.1399 41.15 33.0999 41.32 32.9999H41.3301Z" fill="#1B1B1B"/>
<path d="M44.57 33.2599L44.51 32.1099L44.77 31.8399C44.77 31.9299 44.77 32.0099 44.74 32.0799C44.72 32.1499 44.68 32.1999 44.62 32.2399C44.49 32.3199 44.34 32.3299 44.17 32.2899C44 32.2499 43.87 32.1399 43.77 31.9799C43.66 31.7999 43.63 31.6199 43.67 31.4199C43.71 31.2299 43.82 31.0699 44 30.9599C44.16 30.8599 44.34 30.8399 44.54 30.8899C44.74 30.9399 44.89 31.0499 45 31.2299C45.04 31.2999 45.08 31.3999 45.11 31.5099C45.14 31.6199 45.16 31.7799 45.17 31.9799L45.22 33.2399L44.55 33.2699L44.57 33.2599Z" fill="#1B1B1B"/>
<path d="M47.59 30.5199C47.23 30.7399 46.84 30.8399 46.44 30.8199C46.04 30.7999 45.65 30.6699 45.28 30.4299C44.91 30.1899 44.59 29.8499 44.33 29.4099C44.07 28.9699 43.91 28.5299 43.87 28.0999C43.83 27.6699 43.9 27.2699 44.07 26.9099C44.24 26.5499 44.51 26.2599 44.87 26.0399C45.23 25.8199 45.62 25.7199 46.03 25.7299C46.43 25.7499 46.82 25.8699 47.18 26.1099C47.54 26.3499 47.86 26.6899 48.13 27.1299C48.4 27.5699 48.55 28.0199 48.6 28.4499C48.64 28.8799 48.58 29.2799 48.4 29.6499C48.23 30.0099 47.96 30.2999 47.6 30.5199H47.59ZM47.01 29.5699C47.17 29.4699 47.29 29.3399 47.35 29.1699C47.41 28.9999 47.41 28.7999 47.35 28.5699C47.29 28.3399 47.18 28.0799 47.02 27.7999C46.86 27.5199 46.68 27.3099 46.5 27.1499C46.32 26.9899 46.14 26.8999 45.96 26.8799C45.78 26.8499 45.61 26.8899 45.44 26.9899C45.27 27.0899 45.16 27.2199 45.1 27.3899C45.04 27.5599 45.04 27.7599 45.09 27.9899C45.14 28.2199 45.25 28.4699 45.42 28.7499C45.59 29.0299 45.76 29.2499 45.94 29.3999C46.12 29.5599 46.3 29.6499 46.48 29.6799C46.66 29.7099 46.83 29.6699 47 29.5699H47.01Z" fill="#1B1B1B"/>
<path d="M51.71 28.0399C51.35 28.2599 50.96 28.3599 50.56 28.3399C50.16 28.3199 49.77 28.1899 49.4 27.9499C49.03 27.7099 48.71 27.3699 48.45 26.9299C48.19 26.4899 48.03 26.0499 47.99 25.6199C47.95 25.1899 48.02 24.7899 48.19 24.4299C48.36 24.0699 48.63 23.7799 48.99 23.5599C49.35 23.3399 49.74 23.2399 50.15 23.2499C50.55 23.2699 50.94 23.3899 51.3 23.6299C51.66 23.8699 51.98 24.2099 52.25 24.6499C52.52 25.0899 52.67 25.5399 52.72 25.9699C52.76 26.3999 52.7 26.7999 52.52 27.1699C52.35 27.5299 52.08 27.8199 51.72 28.0399H51.71ZM51.13 27.0899C51.29 26.9899 51.41 26.8599 51.47 26.6899C51.53 26.5199 51.53 26.3199 51.47 26.0899C51.41 25.8599 51.3 25.5999 51.14 25.3199C50.98 25.0399 50.8 24.8299 50.62 24.6699C50.44 24.5099 50.26 24.4199 50.08 24.3999C49.9 24.3699 49.73 24.4099 49.56 24.5099C49.39 24.6099 49.28 24.7399 49.22 24.9099C49.16 25.0799 49.16 25.2799 49.21 25.5099C49.26 25.7399 49.37 25.9899 49.54 26.2699C49.71 26.5499 49.88 26.7699 50.06 26.9199C50.24 27.0799 50.42 27.1699 50.6 27.1999C50.78 27.2299 50.95 27.1899 51.12 27.0899H51.13Z" fill="#1B1B1B"/>
<path d="M55.83 25.56C55.47 25.78 55.08 25.88 54.68 25.86C54.28 25.84 53.89 25.71 53.52 25.47C53.15 25.23 52.83 24.89 52.57 24.45C52.31 24.01 52.15 23.57 52.11 23.14C52.07 22.71 52.14 22.31 52.31 21.95C52.48 21.59 52.75 21.3 53.11 21.08C53.47 20.86 53.86 20.76 54.27 20.77C54.67 20.79 55.06 20.91 55.42 21.15C55.78 21.39 56.1 21.73 56.37 22.17C56.64 22.61 56.79 23.06 56.84 23.49C56.88 23.92 56.82 24.32 56.64 24.69C56.47 25.05 56.2 25.34 55.84 25.56H55.83ZM55.25 24.61C55.41 24.51 55.53 24.38 55.59 24.21C55.65 24.04 55.65 23.84 55.59 23.61C55.53 23.38 55.42 23.12 55.26 22.84C55.1 22.56 54.92 22.35 54.74 22.19C54.56 22.03 54.38 21.94 54.2 21.92C54.02 21.89 53.85 21.93 53.68 22.03C53.51 22.13 53.4 22.26 53.34 22.43C53.28 22.6 53.28 22.8 53.33 23.03C53.38 23.26 53.49 23.51 53.66 23.79C53.83 24.07 54 24.29 54.18 24.44C54.36 24.6 54.54 24.69 54.72 24.72C54.9 24.75 55.07 24.71 55.24 24.61H55.25Z" fill="#1B1B1B"/>
<path d="M71.5442 14.9928L44.9316 31.0276C43.8058 31.7059 43.443 33.1686 44.1213 34.2944L49.7312 43.605C50.4096 44.7308 51.8722 45.0936 52.998 44.4153L79.6106 28.3805C80.7365 27.7021 81.0993 26.2395 80.4209 25.1137L74.8111 15.8031C74.1327 14.6772 72.6701 14.3145 71.5442 14.9928Z" fill="#EEEAEF" stroke="#1B1B1B" stroke-width="2" stroke-miterlimit="10"/>
<path d="M49.2 35.54L48.65 34.63L50.5 33.51L51.05 34.42L49.2 35.54ZM52.1 38.48L49.48 34.13L50.57 33.48L53.19 37.83L52.1 38.48Z" fill="#1B1B1B"/>
<path d="M55.6801 36.4301C55.3201 36.6501 54.9301 36.7501 54.5301 36.7301C54.1301 36.7101 53.7401 36.5801 53.3701 36.3401C53.0001 36.1001 52.6801 35.7601 52.4201 35.3201C52.1601 34.8801 52.0001 34.4401 51.9601 34.0101C51.9201 33.5801 51.9901 33.1801 52.1601 32.8201C52.3301 32.4601 52.6001 32.1701 52.9601 31.9501C53.3201 31.7301 53.7101 31.6301 54.1201 31.6401C54.5201 31.6601 54.9101 31.7801 55.2701 32.0201C55.6301 32.2601 55.9501 32.6001 56.2201 33.0401C56.4901 33.4801 56.6401 33.9301 56.6901 34.3601C56.7301 34.7901 56.6701 35.1901 56.4901 35.5601C56.3201 35.9201 56.0501 36.2101 55.6901 36.4301H55.6801ZM55.1001 35.4801C55.2601 35.3801 55.3801 35.2501 55.4401 35.0801C55.5001 34.9101 55.5001 34.7101 55.4401 34.4801C55.3801 34.2501 55.2701 33.9901 55.1101 33.7101C54.9501 33.4301 54.7701 33.2201 54.5901 33.0601C54.4101 32.9001 54.2301 32.8101 54.0501 32.7901C53.8701 32.7601 53.7001 32.8001 53.5301 32.9001C53.3601 33.0001 53.2501 33.1301 53.1901 33.3001C53.1301 33.4701 53.1301 33.6701 53.1801 33.9001C53.2301 34.1301 53.3401 34.3801 53.5101 34.6601C53.6801 34.9401 53.8501 35.1601 54.0301 35.3101C54.2101 35.4701 54.3901 35.5601 54.5701 35.5901C54.7501 35.6201 54.9201 35.5801 55.0901 35.4801H55.1001Z" fill="#1B1B1B"/>
<path d="M59.7901 33.9499C59.4301 34.1699 59.0401 34.2699 58.6401 34.2499C58.2401 34.2299 57.8501 34.0999 57.4801 33.8599C57.1101 33.6199 56.7901 33.2799 56.5301 32.8399C56.2701 32.3999 56.1101 31.9599 56.0701 31.5299C56.0301 31.0999 56.1001 30.6999 56.2701 30.3399C56.4401 29.9799 56.7101 29.6899 57.0701 29.4699C57.4301 29.2499 57.8201 29.1499 58.2301 29.1599C58.6301 29.1799 59.0201 29.2999 59.3801 29.5399C59.7401 29.7799 60.0601 30.1199 60.3301 30.5599C60.6001 30.9999 60.7501 31.4499 60.8001 31.8799C60.8401 32.3099 60.7801 32.7099 60.6001 33.0799C60.4301 33.4399 60.1601 33.7299 59.8001 33.9499H59.7901ZM59.2101 32.9999C59.3701 32.8999 59.4901 32.7699 59.5501 32.5999C59.6101 32.4299 59.6101 32.2299 59.5501 31.9999C59.4901 31.7699 59.3801 31.5099 59.2201 31.2299C59.0601 30.9499 58.8801 30.7399 58.7001 30.5799C58.5201 30.4199 58.3401 30.3299 58.1601 30.3099C57.9801 30.2799 57.8101 30.3199 57.6401 30.4199C57.4701 30.5199 57.3601 30.6499 57.3001 30.8199C57.2401 30.9899 57.2401 31.1899 57.2901 31.4199C57.3401 31.6499 57.4501 31.8999 57.6201 32.1799C57.7901 32.4599 57.9601 32.6799 58.1401 32.8299C58.3201 32.9899 58.5001 33.0799 58.6801 33.1099C58.8601 33.1399 59.0301 33.0999 59.2001 32.9999H59.2101Z" fill="#1B1B1B"/>
<path d="M62.45 33.2599L62.39 32.1099L62.65 31.8399C62.65 31.9299 62.65 32.0099 62.62 32.0799C62.6 32.1499 62.56 32.1999 62.5 32.2399C62.37 32.3199 62.22 32.3299 62.05 32.2899C61.88 32.2499 61.75 32.1399 61.65 31.9799C61.54 31.7999 61.51 31.6199 61.55 31.4199C61.59 31.2299 61.7 31.0699 61.88 30.9599C62.04 30.8599 62.22 30.8399 62.42 30.8899C62.62 30.9399 62.77 31.0499 62.88 31.2299C62.92 31.2999 62.96 31.3999 62.99 31.5099C63.02 31.6199 63.04 31.7799 63.05 31.9799L63.1 33.2399L62.43 33.2699L62.45 33.2599Z" fill="#1B1B1B"/>
<path d="M65.47 30.5199C65.11 30.7399 64.72 30.8399 64.32 30.8199C63.92 30.7999 63.53 30.6699 63.16 30.4299C62.79 30.1899 62.47 29.8499 62.21 29.4099C61.95 28.9699 61.79 28.5299 61.75 28.0999C61.71 27.6699 61.78 27.2699 61.95 26.9099C62.12 26.5499 62.39 26.2599 62.75 26.0399C63.11 25.8199 63.5 25.7199 63.91 25.7299C64.31 25.7499 64.7 25.8699 65.06 26.1099C65.42 26.3499 65.74 26.6899 66.01 27.1299C66.28 27.5699 66.43 28.0199 66.48 28.4499C66.52 28.8799 66.46 29.2799 66.28 29.6499C66.11 30.0099 65.84 30.2999 65.48 30.5199H65.47ZM64.89 29.5699C65.05 29.4699 65.17 29.3399 65.23 29.1699C65.29 28.9999 65.29 28.7999 65.23 28.5699C65.17 28.3399 65.06 28.0799 64.9 27.7999C64.74 27.5199 64.56 27.3099 64.38 27.1499C64.2 26.9899 64.02 26.8999 63.84 26.8799C63.66 26.8499 63.49 26.8899 63.32 26.9899C63.15 27.0899 63.04 27.2199 62.98 27.3899C62.92 27.5599 62.92 27.7599 62.97 27.9899C63.02 28.2199 63.13 28.4699 63.3 28.7499C63.47 29.0299 63.64 29.2499 63.82 29.3999C64 29.5599 64.18 29.6499 64.36 29.6799C64.54 29.7099 64.71 29.6699 64.88 29.5699H64.89Z" fill="#1B1B1B"/>
<path d="M69.59 28.0399C69.23 28.2599 68.84 28.3599 68.44 28.3399C68.04 28.3199 67.65 28.1899 67.28 27.9499C66.91 27.7099 66.59 27.3699 66.33 26.9299C66.07 26.4899 65.91 26.0499 65.87 25.6199C65.83 25.1899 65.9 24.7899 66.07 24.4299C66.24 24.0699 66.51 23.7799 66.87 23.5599C67.23 23.3399 67.62 23.2399 68.03 23.2499C68.43 23.2699 68.82 23.3899 69.18 23.6299C69.54 23.8699 69.86 24.2099 70.13 24.6499C70.4 25.0899 70.55 25.5399 70.6 25.9699C70.64 26.3999 70.58 26.7999 70.4 27.1699C70.23 27.5299 69.96 27.8199 69.6 28.0399H69.59ZM69.01 27.0899C69.17 26.9899 69.29 26.8599 69.35 26.6899C69.41 26.5199 69.41 26.3199 69.35 26.0899C69.29 25.8599 69.18 25.5999 69.02 25.3199C68.86 25.0399 68.68 24.8299 68.5 24.6699C68.32 24.5099 68.14 24.4199 67.96 24.3999C67.78 24.3699 67.61 24.4099 67.44 24.5099C67.27 24.6099 67.16 24.7399 67.1 24.9099C67.04 25.0799 67.04 25.2799 67.09 25.5099C67.14 25.7399 67.25 25.9899 67.42 26.2699C67.59 26.5499 67.76 26.7699 67.94 26.9199C68.12 27.0799 68.3 27.1699 68.48 27.1999C68.66 27.2299 68.83 27.1899 69 27.0899H69.01Z" fill="#1B1B1B"/>
<path d="M73.71 25.56C73.35 25.78 72.96 25.88 72.56 25.86C72.16 25.84 71.77 25.71 71.4 25.47C71.03 25.23 70.71 24.89 70.45 24.45C70.19 24.01 70.03 23.57 69.99 23.14C69.95 22.71 70.02 22.31 70.19 21.95C70.36 21.59 70.63 21.3 70.99 21.08C71.35 20.86 71.74 20.76 72.15 20.77C72.55 20.79 72.94 20.91 73.3 21.15C73.66 21.39 73.98 21.73 74.25 22.17C74.52 22.61 74.67 23.06 74.72 23.49C74.76 23.92 74.7 24.32 74.52 24.69C74.35 25.05 74.08 25.34 73.72 25.56H73.71ZM73.13 24.61C73.29 24.51 73.41 24.38 73.47 24.21C73.53 24.04 73.53 23.84 73.47 23.61C73.41 23.38 73.3 23.12 73.14 22.84C72.98 22.56 72.8 22.35 72.62 22.19C72.44 22.03 72.26 21.94 72.08 21.92C71.9 21.89 71.73 21.93 71.56 22.03C71.39 22.13 71.28 22.26 71.22 22.43C71.16 22.6 71.16 22.8 71.21 23.03C71.26 23.26 71.37 23.51 71.54 23.79C71.71 24.07 71.88 24.29 72.06 24.44C72.24 24.6 72.42 24.69 72.6 24.72C72.78 24.75 72.95 24.71 73.12 24.61H73.13Z" fill="#1B1B1B"/>
<path d="M97.6899 39.6902L92.0699 42.6802L83.6899 39.7202L89.3099 36.7202L97.6899 39.6902Z" fill="white" stroke="#1B1B1B" stroke-width="2" stroke-linejoin="bevel"/>
<path d="M99.93 43.8801L94.31 46.8801L92.11 55.4901L97.72 52.4901L99.93 43.8801Z" fill="white" stroke="#1B1B1B" stroke-width="2" stroke-linejoin="bevel"/>
<path d="M133.76 26.6401L102.35 43.4001C100.77 44.2401 90.7999 47.9201 89.9599 46.3401C89.1199 44.7601 97.7299 38.5301 99.2999 37.6801L130.71 20.9201C132.29 20.0801 136.01 19.7301 136.86 21.3101C137.7 22.8901 135.34 25.7901 133.76 26.6301V26.6401Z" fill="white" stroke="#1B1B1B" stroke-width="2" stroke-miterlimit="10"/>
<path d="M122.44 25.3402L109.4 32.3002L94.7799 21.8902L100.76 18.6902L122.44 25.3402Z" fill="white" stroke="#1B1B1B" stroke-width="2" stroke-linejoin="bevel"/>
<path d="M125.61 31.27L112.56 38.22L113.07 56.17L119.06 52.98L125.61 31.27Z" fill="white" stroke="#1B1B1B" stroke-width="2" stroke-linejoin="bevel"/>
<path d="M113.539 21.8694L108.589 24.5101C107.829 24.9156 107.542 25.8606 107.947 26.6208L108.089 26.8854C108.494 27.6456 109.439 27.9331 110.199 27.5275L115.149 24.8869C115.909 24.4813 116.196 23.5364 115.791 22.7762L115.65 22.5115C115.244 21.7514 114.299 21.4639 113.539 21.8694Z" fill="white" stroke="#1B1B1B" stroke-width="2" stroke-linejoin="bevel"/>
<path d="M121.614 37.0142L116.665 39.6549C115.905 40.0604 115.617 41.0054 116.023 41.7655L116.164 42.0302C116.569 42.7904 117.514 43.0778 118.275 42.6723L123.224 40.0317C123.984 39.6261 124.272 38.6811 123.866 37.921L123.725 37.6563C123.319 36.8961 122.375 36.6087 121.614 37.0142Z" fill="white" stroke="#1B1B1B" stroke-width="2" stroke-linejoin="bevel"/>
<path d="M122.306 43.6583L119.448 45.1834C118.688 45.589 118.4 46.5339 118.806 47.2941L118.947 47.5588C119.352 48.3189 120.297 48.6064 121.057 48.2009L123.916 46.6758C124.676 46.2702 124.964 45.3253 124.558 44.5651L124.417 44.3004C124.011 43.5403 123.066 43.2528 122.306 43.6583Z" fill="white" stroke="#1B1B1B" stroke-width="2" stroke-linejoin="bevel"/>
<path d="M108.354 17.5116L105.496 19.0367C104.735 19.4422 104.448 20.3872 104.853 21.1474L104.995 21.4121C105.4 22.1722 106.345 22.4597 107.105 22.0541L109.964 20.5291C110.724 20.1235 111.012 19.1785 110.606 18.4184L110.465 18.1537C110.059 17.3935 109.114 17.1061 108.354 17.5116Z" fill="white" stroke="#1B1B1B" stroke-width="2" stroke-linejoin="bevel"/>
<path d="M139.44 82.72C139.44 79.57 136.8 76.86 132.99 75.56C133.03 75.29 133.05 75.02 133.05 74.74C133.05 70.34 128.18 66.77 122.17 66.77C116.16 66.77 111.29 70.34 111.29 74.74C111.29 74.77 111.29 74.79 111.29 74.82C110.79 74.77 110.29 74.74 109.77 74.74C103.42 74.74 98.27 78.31 98.27 82.71C98.27 83.99 98.72 85.2 99.49 86.28H138.2C138.98 85.21 139.42 84 139.42 82.71L139.44 82.72Z" fill="white" stroke="#1B1B1B" stroke-width="2" stroke-linejoin="bevel"/>
<path d="M171.64 55.32C171.64 50.5599 165.63 46.7 158.22 46.7C151.86 46.7 146.55 49.5399 145.16 53.3499C145.04 53.3499 144.92 53.34 144.8 53.34C140.19 53.34 136.45 56.0399 136.45 59.3699C136.45 60.0599 136.62 60.72 136.92 61.34H167.83C170.19 59.79 171.65 57.66 171.65 55.32H171.64Z" fill="white" stroke="#1B1B1B" stroke-width="2" stroke-linejoin="bevel"/>
</g>
<defs>
<clipPath id="clip0_2329_14294">
<rect width="180" height="130" fill="white"/>
</clipPath>
</defs>
</svg>
