<svg width="180" height="130" viewBox="0 0 180 130" fill="none" xmlns="http://www.w3.org/2000/svg">
<path d="M114 1H16C7.71573 1 1 7.71573 1 16V114C1 122.284 7.71573 129 16 129H114C122.284 129 129 122.284 129 114V16C129 7.71573 122.284 1 114 1Z" fill="#8FDFF3"/>
<path d="M114 2C121.72 2 128 8.28 128 16V114C128 121.72 121.72 128 114 128H16C8.28 128 2 121.72 2 114V16C2 8.28 8.28 2 16 2H114ZM114 0H16C7.16 0 0 7.16 0 16V114C0 122.84 7.16 130 16 130H114C122.84 130 130 122.84 130 114V16C130 7.16 122.84 0 114 0Z" fill="#1B1B1B"/>
<path d="M135.23 24.2001C135.23 24.2001 141.16 34.9901 143.69 37.2701C146.41 39.7201 155.22 44.0001 159.45 42.2701C163.68 40.5401 166.76 34.3901 173.29 34.7701C173.29 34.7701 159.83 28.0901 159.83 13.6201C159.83 13.6201 147.81 13.8101 135.22 24.1901L135.23 24.2001Z" fill="white" stroke="#1B1B1B" stroke-width="2" stroke-linejoin="bevel"/>
<path d="M157.25 42.75C153.4 41.06 154.81 34.16 154.81 34.16C148.15 36.79 141.39 34.02 141.39 34.02C141.39 34.02 143.9 38.63 150.01 40.95C156.12 43.27 157.25 42.75 157.25 42.75Z" fill="#EDEDED" stroke="#1B1B1B" stroke-width="2" stroke-linejoin="bevel"/>
<path d="M73.63 23.6499L97.56 59.5499C97.56 59.5499 101.64 62.7899 111.78 62.2199C121.92 61.6499 133.18 63.6299 136.7 72.9199C136.7 72.9199 138.53 47.5799 120.79 37.1599C103.05 26.7399 91.23 27.5899 87.71 27.0199C84.19 26.4599 77.86 26.5999 73.63 23.6399V23.6499Z" fill="#EDEDED" stroke="#1B1B1B" stroke-width="2" stroke-linejoin="bevel"/>
<path d="M133.05 51.6601C130.76 44.5901 112.34 47.7301 112.34 47.7301C120.51 34.9201 107.42 30.8201 107.42 30.8201C107.42 30.8201 119.25 35.1501 123.27 38.8101C127.29 42.4701 130.36 46.3701 131.42 48.2901C132.48 50.2101 133.06 51.6601 133.06 51.6601H133.05Z" fill="white" stroke="#1B1B1B" stroke-width="2" stroke-linejoin="bevel"/>
<path d="M25.76 60.25L41.25 121.07L96.43 115.72L78.83 60.25H25.76Z" fill="#C7E8EF" stroke="#1B1B1B" stroke-width="2" stroke-miterlimit="10"/>
<path d="M29.42 62.6399L42.96 115.01L97.72 110.09L81.53 62.6399H29.42Z" fill="white" stroke="#1B1B1B" stroke-width="2" stroke-linejoin="bevel"/>
<path d="M25.87 59.48L12.43 117.41L41.15 121.07L25.87 59.48Z" fill="#82C6D1" stroke="#1B1B1B" stroke-width="2" stroke-linejoin="bevel"/>
<path d="M43.26 74.33C42.92 73.9 42.5 73.55 41.99 73.3C41.48 73.04 40.89 72.92 40.23 72.92C39.97 72.92 39.75 72.94 39.57 72.98C39.52 72.99 39.48 73.02 39.43 73.03L39.24 71.84H42.52L42.07 70.05H36.94L37.69 74.09L38.76 74.86C38.9 74.73 39.08 74.63 39.29 74.55C39.5 74.47 39.75 74.43 40.02 74.43C40.33 74.43 40.6 74.48 40.85 74.59C41.1 74.69 41.3 74.84 41.47 75.02C41.64 75.2 41.75 75.42 41.82 75.67C41.89 75.92 41.88 76.12 41.82 76.31C41.75 76.5 41.63 76.64 41.46 76.74C41.28 76.84 41.06 76.88 40.78 76.88C40.47 76.88 40.16 76.81 39.84 76.68C39.52 76.55 39.26 76.38 39.06 76.17L38.09 77.51C38.55 77.89 39.07 78.18 39.65 78.39C40.23 78.6 40.8 78.7 41.36 78.7C42.05 78.7 42.61 78.57 43.04 78.32C43.47 78.07 43.77 77.72 43.93 77.27C44.1 76.82 44.12 76.31 43.98 75.75C43.85 75.24 43.62 74.77 43.29 74.33H43.26Z" fill="#1B1B1B"/>
<path d="M44.77 107.27L91.36 103.47" stroke="#C4C4C4" stroke-linejoin="bevel"/>
<path d="M43.42 100.66L90 97.28" stroke="#C4C4C4" stroke-linejoin="bevel"/>
<path d="M41.25 93.9L88.36 90.28" stroke="#C4C4C4" stroke-linejoin="bevel"/>
<path d="M39.35 86.58L86.23 83.55" stroke="#C4C4C4" stroke-linejoin="bevel"/>
<path d="M44.77 80.52L51.81 110.51" stroke="#C4C4C4" stroke-linejoin="bevel"/>
<path d="M51.81 80.52L58.7 109.1" stroke="#C4C4C4" stroke-linejoin="bevel"/>
<path d="M59 80.52L65.9 108.26" stroke="#C4C4C4" stroke-linejoin="bevel"/>
<path d="M66.31 80.52L73.21 107.27" stroke="#C4C4C4" stroke-linejoin="bevel"/>
<path d="M73.21 79.8201L80.55 107.27" stroke="#C4C4C4" stroke-linejoin="bevel"/>
<path d="M79.56 79.8201L87.02 106" stroke="#C4C4C4" stroke-linejoin="bevel"/>
<path d="M68.9 95.52C69.21 96.8 68.43 97.83 67.15 97.83C65.87 97.83 64.6 96.8 64.31 95.52C64.02 94.24 64.8 93.21 66.06 93.21C67.32 93.21 68.59 94.24 68.9 95.52Z" stroke="#FF2434" stroke-linejoin="bevel"/>
<path d="M29.45 59.81C29.45 56.47 31.06 53.76 33.04 53.76C35.02 53.76 36.63 56.47 36.63 59.81C36.63 62.32 35.73 64.47 34.44 65.39" stroke="#1B1B1B" stroke-width="2" stroke-linejoin="bevel"/>
<path d="M43.42 59.81C43.42 56.47 45.03 53.76 47.01 53.76C48.99 53.76 50.6 56.47 50.6 59.81C50.6 62.32 49.7 64.47 48.41 65.39" stroke="#1B1B1B" stroke-width="2" stroke-linejoin="bevel"/>
<path d="M83.06 57.0099C83.06 57.0099 81.27 56.16 78.32 54.68L78.51 55.4599L79.07 55.93C79.7 57.12 78.98 57.34 77.47 56.68C75.97 56.02 77.47 55.18 77.47 55.18L77.22 54.13C75.18 53.1 72.72 51.82 69.97 50.36L70.24 51.43L70.88 52.3699C71.52 53.3099 69.77 53.3099 68.46 52.3699C67.15 51.4299 68.46 50.68 68.46 50.68V49.5499C65.56 47.99 62.41 46.24 59.17 44.36L59.26 45.24C59.26 45.24 59.64 46.46 59.64 47.02C59.64 47.58 58.51 47.2099 57.28 45.7999C56.05 44.3899 57.69 44.02 57.69 44.02L57.58 43.43C54.18 41.43 50.71 39.2999 47.37 37.0999C47.38 37.5499 47.42 38.01 47.51 38.41C47.83 39.84 45.61 38.29 44.77 37.45C43.93 36.61 45.47 35.84 45.47 35.84C41.39 33.08 37.56 30.25 34.35 27.45C34.35 27.45 35.76 43.92 61.66 63.91C87.56 83.8999 95.6 82.07 107.42 90.8C107.42 90.8 86.58 69.2599 83.06 57.0099Z" fill="white" stroke="#1B1B1B" stroke-width="2" stroke-linejoin="bevel"/>
<path d="M52.2 45.7899L51.48 45.5299L51.3 44.4199L49.7 43.8599L49.68 44.8899L48.41 44.4399L50.28 41.8299L49 41.3799L46.06 43.9999L45.75 44.6699L49.65 46.0599L49.63 47.1899L51.89 47.9999L51.69 46.7799L52.49 47.0699L52.2 45.7899Z" fill="#1B1B1B"/>
<path d="M64.17 60.0998C63.8 60.6898 62.44 60.4798 61.27 59.6598C60.18 58.8698 59.85 57.8198 60.38 57.2798C60.83 56.7098 61.83 56.8198 62.75 57.5598C63.75 58.3298 64.45 59.4898 64.16 60.1098L64.17 60.0998Z" stroke="#FF2434" stroke-linejoin="bevel"/>
<path d="M48.14 51.6599C48.14 51.6599 75.17 69.5499 92.91 67.1499C92.91 67.1499 87.21 75.5899 99.07 85.7999C99.07 85.7999 68.97 74.1699 48.14 51.6599Z" fill="#EDEDED" stroke="#1B1B1B" stroke-width="2" stroke-linejoin="bevel"/>
</svg>
