<svg width="180" height="130" viewBox="0 0 180 130" fill="none" xmlns="http://www.w3.org/2000/svg">
<path d="M114 1H16C7.71573 1 1 7.71573 1 16V114C1 122.284 7.71573 129 16 129H114C122.284 129 129 122.284 129 114V16C129 7.71573 122.284 1 114 1Z" fill="#8FDFF3"/>
<path d="M114 2C121.72 2 128 8.28 128 16V114C128 121.72 121.72 128 114 128H16C8.28 128 2 121.72 2 114V16C2 8.28 8.28 2 16 2H114ZM114 0H16C7.16 0 0 7.16 0 16V114C0 122.84 7.16 130 16 130H114C122.84 130 130 122.84 130 114V16C130 7.16 122.84 0 114 0Z" fill="#1B1B1B"/>
<path d="M106.75 70.86V57.91L104.5 54.71H94.3601V52.46L90.8001 48.52H79.3501V66.54L81.0401 76.68H106.75V70.86Z" fill="#B5E4EA"/>
<path fill-rule="evenodd" clip-rule="evenodd" d="M78.3501 48.52L79.3501 47.52H90.8001L91.5421 47.8496L95.1021 51.7896L95.3601 52.46V53.71H104.5L105.318 54.1348L107.568 57.3348L107.75 57.91V76.68L106.75 77.68H81.0401L80.0537 76.8444L78.3637 66.7044L78.3501 66.54V48.52ZM80.3501 49.52V66.4572L81.8872 75.68H105.75V58.2264L103.981 55.71H94.3601L93.3601 54.71V52.8448L90.3559 49.52H80.3501Z" fill="#1B1B1B"/>
<path d="M76.72 62.6L78.6 76.68H29.04L38.62 62.6H76.72Z" fill="#B4E791"/>
<path fill-rule="evenodd" clip-rule="evenodd" d="M37.7934 62.0375L38.6202 61.6H76.7202L77.7114 62.4677L79.5914 76.5477L78.6002 77.68H29.0402L28.2134 76.1175L37.7934 62.0375ZM39.1493 63.6L30.9301 75.68H77.4578L75.8448 63.6H39.1493Z" fill="#1B1B1B"/>
<path d="M145.23 90.57L146.17 57.91L136.04 50.4H116.14V62.6L102.44 62.79V66.35L98.87 60.91H83.48V74.05L81.98 70.48H72.03V93.01H83.85L83.67 88.88L85.92 93.01H103.94V88.31L107.69 96.95H145.23V90.57Z" fill="#C7E8EF"/>
<path fill-rule="evenodd" clip-rule="evenodd" d="M115.14 50.4L116.14 49.4H136.04L136.636 49.5967L146.766 57.1067L147.17 57.9388L146.23 90.5844V96.95L145.23 97.95H107.69L106.773 97.3481L104.905 93.045L103.94 94.01H85.92L85.0418 93.4884L84.7907 93.0274L83.85 94.01H72.03L71.03 93.01V70.48L72.03 69.48H81.98L82.48 69.8123V60.91L83.48 59.91H98.87L99.706 60.3613L101.44 63.0035V62.79L102.426 61.7901L115.14 61.6138V50.4ZM117.14 51.4V62.6L116.154 63.5999L103.44 63.7762V66.35L101.604 66.8986L98.3301 61.91H84.48V74.05L82.558 74.4374L81.3155 71.48H73.03V92.01H82.8054L82.6709 88.9235L84.5481 88.4016L86.5139 92.01H102.94V88.31L104.857 87.9118L108.346 95.95H144.23V90.57L144.23 90.5412L145.155 58.4026L135.71 51.4H117.14Z" fill="#1B1B1B"/>
<path d="M14.96 64.86L20.6 59.78H34.49V82.12L29.79 90.19H14.96V64.86Z" fill="#C7E8EF"/>
<path fill-rule="evenodd" clip-rule="evenodd" d="M19.9307 59.037L20.6 58.78H34.49L35.49 59.78V82.12L35.3541 82.6233L30.6541 90.6933L29.79 91.19H14.96L13.96 90.19V64.86L14.2907 64.117L19.9307 59.037ZM20.9839 60.78L15.96 65.3051V89.19H29.2151L33.49 81.85V60.78H20.9839Z" fill="#1B1B1B"/>
<path d="M52.69 56.59L48.75 63.72V90.75H63.02L64.33 84.93V56.59H52.69Z" fill="#C7E8EF"/>
<path fill-rule="evenodd" clip-rule="evenodd" d="M51.8147 56.1063L52.69 55.59H64.33L65.33 56.59V84.93L65.3056 85.1496L63.9956 90.9696L63.02 91.75H48.75L47.75 90.75V63.72L47.8747 63.2363L51.8147 56.1063ZM53.2799 57.59L49.75 63.9779V89.75H62.22L63.33 84.8188V57.59H53.2799Z" fill="#1B1B1B"/>
<path d="M140.72 72.35V95.25L151.98 105.19H166.81L168.12 80.61L156.3 72.35H140.72Z" fill="#C7E8EF"/>
<path d="M168 81.1001H154.42L140.5 72.5001V84.5001L141 97.5001L151.5 105H166.5L168 81.1001Z" fill="#82C6D1"/>
<path fill-rule="evenodd" clip-rule="evenodd" d="M139.72 72.35L140.72 71.35H156.3L156.873 71.5303L168.693 79.7903L169.119 80.6632L167.809 105.243L166.81 106.19H151.98L151.318 105.94L140.058 95.9997L139.72 95.25V72.35ZM141.72 73.35V94.7989L152.358 104.19H165.862L167.092 81.1115L155.985 73.35H141.72Z" fill="#1B1B1B"/>
<path d="M2 57.15H22.27V100.51L11.39 116.09H2" fill="#C7E8EF"/>
<path d="M21.89 57.42L8.38001 70.48H1.99997V117L11.89 116.42L21.89 100.42V57.42Z" fill="#82C6D1"/>
<path fill-rule="evenodd" clip-rule="evenodd" d="M21.27 58.15H2V56.15H22.27L23.27 57.15V100.51L23.0899 101.083L12.2099 116.663L11.39 117.09H1V115.09H10.8686L21.27 100.195V58.15Z" fill="#1B1B1B"/>
<path d="M25.0901 84.75L32.6001 75.55H51.1801V80.15L54.7501 73.67H73.5201L75.3901 82.12V113.47L50.2401 114.03V104.46L47.6101 111.4H25.0901V84.75Z" fill="#C7E8EF"/>
<path d="M75.4999 82.12H51.1799V75.55L45.7399 84.37L25.1499 84.75L25.1499 111H47.4999L49.9999 106V114L75.4999 113.5V82.12Z" fill="#82C6D1"/>
<path fill-rule="evenodd" clip-rule="evenodd" d="M53.8742 73.1874L54.7501 72.67H73.5201L74.4965 73.4539L76.3665 81.9039L76.3901 82.12V113.47L75.4123 114.47L50.2624 115.03L49.2401 114.03V109.921L48.5452 111.754L47.6101 112.4H25.0901L24.0901 111.4V84.75L24.3154 84.1176L31.8254 74.9176L32.6001 74.55H51.1801L52.1801 75.55V76.2625L53.8742 73.1874ZM55.3409 74.67L52.056 80.6325L50.1801 80.15V76.55H33.0747L26.0901 85.1063V110.4H46.9197L49.305 104.106L51.2401 104.46V113.007L74.3901 112.492V82.2293L72.7172 74.67H55.3409Z" fill="#1B1B1B"/>
<path d="M111.43 80.81H130.39L138.65 89.44V92.63H142.4L148.22 97.32V114.03H116.31L111.43 105.21V80.81Z" fill="#C7E8EF"/>
<path d="M148.5 97.8002H137.69L137.75 89.44L117.99 89.47L111.43 80.81L111.43 105L116.5 114H148V107L148.5 97.8002Z" fill="#82C6D1"/>
<path fill-rule="evenodd" clip-rule="evenodd" d="M110.43 80.81L111.43 79.81H130.39L131.112 80.1185L139.372 88.7486L139.65 89.44V91.63H142.4L143.027 91.8514L148.847 96.5414L149.22 97.32V114.03L148.22 115.03H116.31L115.435 114.514L110.555 105.694L110.43 105.21V80.81ZM112.43 81.81V104.952L116.9 113.03H147.22V97.7984L142.047 93.63H138.65L137.65 92.63V89.8414L129.963 81.81H112.43Z" fill="#1B1B1B"/>
<path d="M75.5 98.64V113.65H107.97L102.34 98.64H75.5Z" fill="#8AD953"/>
<path fill-rule="evenodd" clip-rule="evenodd" d="M74.5 98.64L75.5 97.64H102.34L103.276 98.2888L108.906 113.299L107.97 114.65H75.5L74.5 113.65V98.64ZM76.5 99.64V112.65H106.527L101.647 99.64H76.5Z" fill="#1B1B1B"/>
<path d="M123.78 72.52C123.78 72.52 139.59 58.39 139.59 45.91C139.59 36.74 132.51 29.3 123.78 29.3C115.05 29.3 107.97 36.74 107.97 45.91C107.97 58.39 123.78 72.52 123.78 72.52Z" fill="#FF8E14"/>
<path fill-rule="evenodd" clip-rule="evenodd" d="M106.97 45.91C106.97 36.2349 114.452 28.3 123.78 28.3C133.108 28.3 140.59 36.2349 140.59 45.91C140.59 52.5098 136.444 59.3947 132.475 64.5081C130.47 67.0917 128.467 69.2767 126.966 70.8154C126.215 71.5853 125.589 72.195 125.148 72.6134C124.928 72.8227 124.754 72.9842 124.635 73.0942C124.575 73.1491 124.529 73.1912 124.497 73.22L124.46 73.253L124.451 73.2619L124.448 73.2644L124.447 73.2651C124.447 73.2654 124.446 73.2656 123.78 72.52C123.114 73.2656 123.113 73.2654 123.113 73.2651L123.109 73.2619L123.1 73.253L123.063 73.22C123.031 73.1912 122.985 73.1491 122.925 73.0942C122.806 72.9842 122.632 72.8227 122.412 72.6134C121.971 72.195 121.345 71.5853 120.594 70.8154C119.093 69.2767 117.09 67.0917 115.085 64.5081C111.116 59.3947 106.97 52.5098 106.97 45.91ZM123.78 72.52L123.113 73.2651L123.78 73.8612L124.447 73.2651L123.78 72.52ZM123.78 71.1545C124.204 70.7517 124.809 70.1631 125.534 69.419C126.998 67.9183 128.948 65.7908 130.895 63.2819C134.831 58.2103 138.59 51.7902 138.59 45.91C138.59 37.2451 131.912 30.3 123.78 30.3C115.648 30.3 108.97 37.2451 108.97 45.91C108.97 51.7902 112.729 58.2103 116.665 63.2819C118.612 65.7908 120.562 67.9183 122.026 69.419C122.751 70.1631 123.356 70.7517 123.78 71.1545Z" fill="#1B1B1B"/>
<path d="M123.78 53.67C128.635 53.67 132.57 49.7346 132.57 44.88C132.57 40.0254 128.635 36.09 123.78 36.09C118.925 36.09 114.99 40.0254 114.99 44.88C114.99 49.7346 118.925 53.67 123.78 53.67Z" fill="#FF2434"/>
<path fill-rule="evenodd" clip-rule="evenodd" d="M123.78 37.09C119.478 37.09 115.99 40.5777 115.99 44.88C115.99 49.1823 119.478 52.67 123.78 52.67C128.082 52.67 131.57 49.1823 131.57 44.88C131.57 40.5777 128.082 37.09 123.78 37.09ZM113.99 44.88C113.99 39.4731 118.373 35.09 123.78 35.09C129.187 35.09 133.57 39.4731 133.57 44.88C133.57 50.2869 129.187 54.67 123.78 54.67C118.373 54.67 113.99 50.2869 113.99 44.88Z" fill="#1B1B1B"/>
<path d="M57.1401 48.16C57.1401 48.16 65.2201 40.94 65.2201 34.55C65.2201 29.86 61.6001 26.06 57.1401 26.06C52.6801 26.06 49.0601 29.86 49.0601 34.55C49.0601 40.93 57.1401 48.16 57.1401 48.16Z" fill="#FF8E14"/>
<path fill-rule="evenodd" clip-rule="evenodd" d="M48.0601 34.55C48.0601 29.3546 52.082 25.06 57.1401 25.06C62.1981 25.06 66.2201 29.3546 66.2201 34.55C66.2201 38.1045 64.0067 41.7392 61.9702 44.3642C60.9312 45.7035 59.8946 46.8344 59.1185 47.6302C58.7298 48.0287 58.4051 48.3447 58.176 48.5623C58.0615 48.6711 57.9707 48.7554 57.9078 48.8133C57.8764 48.8423 57.8519 48.8646 57.8348 48.8801L57.8148 48.8981L57.8074 48.9048C57.8072 48.905 57.8064 48.9057 57.1401 48.16C56.4732 48.9052 56.473 48.905 56.4728 48.9048L56.4648 48.8976L56.4448 48.8796C56.4278 48.8641 56.4033 48.8417 56.3718 48.8128C56.3089 48.7548 56.2182 48.6704 56.1037 48.5614C55.8746 48.3436 55.5499 48.0273 55.1613 47.6285C54.3852 46.8319 53.3487 45.7001 52.3098 44.3603C50.2736 41.7344 48.0601 38.0996 48.0601 34.55ZM57.1401 48.16L56.4728 48.9048L57.1396 49.5015L57.8064 48.9057L57.1401 48.16ZM57.1405 46.7819C57.3003 46.6251 57.484 46.4416 57.6866 46.2338C58.4255 45.4762 59.409 44.4028 60.3899 43.1383C62.3935 40.5558 64.2201 37.3855 64.2201 34.55C64.2201 30.3654 61.002 27.06 57.1401 27.06C53.2781 27.06 50.0601 30.3654 50.0601 34.55C50.0601 37.3804 51.8865 40.5506 53.8903 43.1347C54.8714 44.3999 55.8549 45.4743 56.5938 46.2328C56.7966 46.441 56.9806 46.6249 57.1405 46.7819Z" fill="#1B1B1B"/>
<path d="M57.1399 37.74C59.1889 37.74 60.8499 36.079 60.8499 34.03C60.8499 31.981 59.1889 30.32 57.1399 30.32C55.091 30.32 53.4299 31.981 53.4299 34.03C53.4299 36.079 55.091 37.74 57.1399 37.74Z" fill="#FF2434"/>
<path fill-rule="evenodd" clip-rule="evenodd" d="M57.1399 31.32C55.6432 31.32 54.4299 32.5333 54.4299 34.03C54.4299 35.5267 55.6432 36.74 57.1399 36.74C58.6366 36.74 59.8499 35.5267 59.8499 34.03C59.8499 32.5333 58.6366 31.32 57.1399 31.32ZM52.4299 34.03C52.4299 31.4287 54.5387 29.32 57.1399 29.32C59.7412 29.32 61.8499 31.4287 61.8499 34.03C61.8499 36.6313 59.7412 38.74 57.1399 38.74C54.5387 38.74 52.4299 36.6313 52.4299 34.03Z" fill="#1B1B1B"/>
</svg>
