<svg width="180" height="130" viewBox="0 0 180 130" fill="none" xmlns="http://www.w3.org/2000/svg">
<path d="M114 1H16C7.71573 1 1 7.71573 1 16V114C1 122.284 7.71573 129 16 129H114C122.284 129 129 122.284 129 114V16C129 7.71573 122.284 1 114 1Z" fill="#8FDFF3"/>
<path d="M114 2C121.72 2 128 8.28 128 16V114C128 121.72 121.72 128 114 128H16C8.28 128 2 121.72 2 114V16C2 8.28 8.28 2 16 2H114ZM114 0H16C7.16 0 0 7.16 0 16V114C0 122.84 7.16 130 16 130H114C122.84 130 130 122.84 130 114V16C130 7.16 122.84 0 114 0Z" fill="#1B1B1B"/>
<path d="M135.23 24.2C135.23 24.2 141.16 34.99 143.69 37.27C146.41 39.72 155.22 44 159.45 42.27C163.68 40.54 166.76 34.39 173.29 34.77C173.29 34.77 159.83 28.09 159.83 13.62C159.83 13.62 147.81 13.81 135.22 24.19L135.23 24.2Z" fill="white"/>
<path fill-rule="evenodd" clip-rule="evenodd" d="M159.814 12.6201L160.83 13.62C160.83 20.5176 164.032 25.569 167.279 28.926C168.903 30.6046 170.528 31.8485 171.747 32.6715C172.355 33.0825 172.86 33.387 173.209 33.5871C173.383 33.6871 173.519 33.7608 173.609 33.8086C173.654 33.8325 173.687 33.8499 173.708 33.8609L173.731 33.8724L173.735 33.8742C173.735 33.8742 173.735 33.8745 173.734 33.8769L173.232 35.7683C170.336 35.5998 168.179 36.8584 166.135 38.507C165.623 38.9201 165.126 39.3517 164.624 39.7898C164.573 39.8339 164.523 39.8781 164.472 39.9224C164.024 40.3139 163.57 40.7105 163.116 41.0859C162.108 41.9179 161.029 42.7047 159.829 43.1956C158.541 43.7222 156.997 43.7614 155.453 43.5542C153.892 43.3449 152.233 42.8706 150.65 42.273C147.509 41.0866 144.504 39.3491 143.021 38.013C142.289 37.3537 141.384 36.1588 140.476 34.8307C139.549 33.4761 138.559 31.8954 137.655 30.3964C136.75 28.8957 135.925 27.4679 135.327 26.4159C135.028 25.8896 134.785 25.4568 134.616 25.1553C134.532 25.0045 134.467 24.8865 134.422 24.806L134.371 24.7139L134.354 24.6823C134.354 24.6822 134.354 24.6817 134.528 24.586L134.584 23.4184C140.999 18.1292 147.278 15.4297 151.964 14.053C154.307 13.3648 156.253 13.007 157.62 12.821C158.304 12.728 158.844 12.6779 159.217 12.651C159.404 12.6376 159.548 12.6299 159.649 12.6256C159.699 12.6234 159.738 12.6221 159.766 12.6213L159.799 12.6204L159.809 12.6202L159.812 12.6202L159.814 12.6201C159.815 12.6201 159.814 12.6201 159.83 13.62L159.814 12.6201ZM158.854 14.6893C158.583 14.7158 158.26 14.7524 157.89 14.8027C156.61 14.9768 154.764 15.3152 152.528 15.972C148.214 17.2392 142.452 19.691 136.505 24.4351C136.656 24.7042 136.845 25.04 137.065 25.4272C137.658 26.4696 138.474 27.8818 139.368 29.3635C140.262 30.8471 141.23 32.3914 142.126 33.7012C143.04 35.0373 143.826 36.0462 144.359 36.527C145.596 37.6409 148.356 39.2684 151.357 40.402C152.846 40.9644 154.353 41.3888 155.718 41.572C157.1 41.7573 158.244 41.6828 159.071 41.3444C159.986 40.9702 160.878 40.3396 161.842 39.5438C162.274 39.1873 162.706 38.8095 163.158 38.4151C163.208 38.3713 163.258 38.3274 163.308 38.2832C163.81 37.845 164.334 37.3905 164.88 36.9504C166.387 35.7347 168.113 34.5842 170.23 34.0559C168.98 33.1811 167.411 31.9397 165.841 30.3165C162.525 26.8876 159.166 21.7148 158.854 14.6893Z" fill="#1B1B1B"/>
<path d="M157.25 42.75C153.4 41.06 154.81 34.16 154.81 34.16C148.15 36.79 141.39 34.02 141.39 34.02C141.39 34.02 143.9 38.63 150.01 40.95C156.12 43.27 157.25 42.75 157.25 42.75Z" fill="#EDEDED"/>
<path fill-rule="evenodd" clip-rule="evenodd" d="M145.745 34.0865C148.164 34.4353 151.329 34.4595 154.443 33.2299L155.789 34.3596C155.79 34.3598 155.789 34.3596 155.789 34.3596L155.79 34.3607L155.788 34.3708L155.779 34.4191C155.77 34.4633 155.758 34.531 155.744 34.6194C155.716 34.7962 155.678 35.0544 155.644 35.3709C155.576 36.0074 155.525 36.8619 155.584 37.7549C155.709 39.6361 156.284 41.2341 157.652 41.8343L157.25 42.75C157.668 43.6584 157.666 43.6592 157.665 43.6599L157.661 43.6615L157.655 43.6645L157.641 43.6705C157.631 43.6744 157.622 43.6783 157.612 43.6822C157.593 43.6898 157.572 43.6972 157.551 43.7043C157.508 43.7185 157.461 43.7316 157.41 43.7432C157.308 43.7662 157.186 43.784 157.04 43.7931C156.749 43.8111 156.343 43.7961 155.77 43.7085C154.627 43.5337 152.744 43.0579 149.655 41.8849C146.435 40.662 144.16 38.8343 142.689 37.3092C141.953 36.5465 141.417 35.8575 141.061 35.3534C140.883 35.1011 140.749 34.8946 140.659 34.7477C140.613 34.6742 140.579 34.6155 140.554 34.5734C140.542 34.5523 140.532 34.5353 140.525 34.5227L140.517 34.5071L140.514 34.5018L140.513 34.4998C140.512 34.4994 140.512 34.4982 141.39 34.02L140.512 34.4982L141.768 33.0957C141.769 33.0945 141.769 33.0944 141.769 33.0944C141.769 33.0944 141.768 33.0941 141.769 33.0944L141.779 33.0985C141.788 33.1023 141.804 33.1085 141.826 33.117C141.87 33.1339 141.938 33.1595 142.03 33.192C142.212 33.2571 142.484 33.3492 142.834 33.4529C143.535 33.6605 144.54 33.9127 145.745 34.0865ZM144.025 35.8127C144.059 35.8485 144.094 35.8845 144.129 35.9208C145.44 37.2807 147.475 38.9179 150.365 40.0151C152.143 40.6904 153.477 41.1151 154.467 41.3799C153.883 40.2541 153.66 38.9671 153.588 37.8876C153.533 37.0547 153.56 36.2646 153.612 35.6186C150.606 36.4697 147.699 36.3889 145.46 36.066C144.947 35.992 144.466 35.905 144.025 35.8127Z" fill="#1B1B1B"/>
<path d="M73.6299 23.65L97.5599 59.55C97.5599 59.55 101.64 62.79 111.78 62.22C121.92 61.65 133.18 63.63 136.7 72.92C136.7 72.92 138.53 47.58 120.79 37.16C103.05 26.74 91.2299 27.59 87.7099 27.02C84.1899 26.46 77.8599 26.6 73.6299 23.64V23.65Z" fill="#EDEDED"/>
<path fill-rule="evenodd" clip-rule="evenodd" d="M72.6299 23.64L74.2032 22.8207C76.1321 24.1704 78.5929 24.8455 81.0929 25.2424C82.3357 25.4397 83.5624 25.5647 84.7162 25.6765C84.8226 25.6869 84.9287 25.6971 85.0343 25.7073C86.0579 25.8059 87.0348 25.9 87.867 26.0324L87.8697 26.0329C88.3815 26.1157 89.0635 26.1646 89.9681 26.2294C90.5379 26.2702 91.196 26.3173 91.9555 26.3833C93.8617 26.5488 96.2644 26.8262 99.12 27.417C104.835 28.5995 112.328 31.0302 121.296 36.2977C130.503 41.7056 134.582 50.9566 136.372 58.7229C137.269 62.6164 137.6 66.1732 137.708 68.7562C137.762 70.0489 137.759 71.1006 137.744 71.8324C137.736 72.1984 137.724 72.4845 137.715 72.681C137.71 72.7793 137.706 72.8552 137.703 72.9074L137.699 72.9679L137.698 72.9846L137.697 72.9895L137.697 72.991C137.697 72.9916 137.697 72.992 136.7 72.92L137.697 72.992L135.765 73.2743C134.138 68.9803 130.721 66.3336 126.392 64.8162C122.041 63.2916 116.838 62.9373 111.836 63.2184C106.65 63.5099 102.971 62.8291 100.56 62.0504C99.3556 61.6614 98.4715 61.2493 97.8772 60.9254C97.5802 60.7635 97.356 60.6239 97.2007 60.5204C97.1231 60.4687 97.0627 60.4261 97.0191 60.3943C96.9972 60.3784 96.9796 60.3652 96.9661 60.3549L96.949 60.3417L96.9427 60.3368L96.9402 60.3348L96.939 60.3339C96.9385 60.3335 96.938 60.3331 97.5599 59.55L96.938 60.3331L96.7278 60.1046L72.7978 24.2046L72.6299 23.65V23.64ZM98.2906 58.8433C98.2966 58.8473 98.3028 58.8515 98.3093 58.8558C98.4167 58.9273 98.5905 59.0363 98.8344 59.1693C99.322 59.4351 100.092 59.7974 101.175 60.1471C103.338 60.8459 106.77 61.5001 111.724 61.2216C116.862 60.9327 122.358 61.2834 127.053 62.9288C130.519 64.1433 133.583 66.0793 135.716 69.0035C135.714 68.9493 135.712 68.8946 135.709 68.8394C135.606 66.3455 135.286 62.9161 134.423 59.1721C132.693 51.6634 128.817 43.0344 120.283 38.0223C111.511 32.8698 104.225 30.5155 98.7148 29.3755C95.9579 28.8051 93.6369 28.5368 91.7824 28.3758C91.1376 28.3198 90.5295 28.2758 89.972 28.2355C88.9779 28.1636 88.1447 28.1033 87.5514 28.0074C86.7843 27.8854 85.8718 27.7974 84.8305 27.6969C84.7293 27.6871 84.6269 27.6773 84.5233 27.6672C83.368 27.5553 82.0879 27.4254 80.7794 27.2176C79.3863 26.9965 77.9311 26.6831 76.5266 26.1927L98.2906 58.8433ZM98.1777 58.7636C98.1764 58.7627 98.1761 58.7624 98.1768 58.763L98.1777 58.7636Z" fill="#1B1B1B"/>
<path d="M133.05 51.66C130.76 44.59 112.34 47.73 112.34 47.73C120.51 34.92 107.42 30.82 107.42 30.82C107.42 30.82 119.25 35.15 123.27 38.81C127.29 42.47 130.36 46.37 131.42 48.29C132.48 50.21 133.06 51.66 133.06 51.66H133.05Z" fill="white"/>
<path fill-rule="evenodd" clip-rule="evenodd" d="M107.719 29.8657L107.42 30.82C107.719 29.8657 107.719 29.8659 107.72 29.8661L107.721 29.8665L107.725 29.8677L107.736 29.8713L107.773 29.8832C107.803 29.8932 107.845 29.9075 107.898 29.9263C108.004 29.9637 108.154 30.0189 108.339 30.093C108.379 30.1092 108.421 30.1263 108.464 30.1443C108.784 30.2663 109.203 30.428 109.699 30.6238C110.88 31.0905 112.498 31.7517 114.244 32.5289C117.686 34.0609 121.796 36.1159 123.943 38.0706C128.012 41.7751 131.165 45.7591 132.295 47.8067C132.839 48.7918 133.26 49.6565 133.546 50.2767C133.593 50.3802 133.637 50.4769 133.677 50.5664C133.773 50.7544 133.858 50.9503 133.933 51.1544C133.942 51.1762 133.95 51.1955 133.957 51.2121L133.98 51.2667L133.986 51.2819L133.987 51.2863L133.988 51.2877C133.988 51.2877 133.988 51.2885 133.981 51.2913C133.981 51.2914 133.981 51.2913 133.981 51.2913L133.988 51.2877L133.983 51.2965C133.989 51.3149 133.995 51.3334 134.001 51.3519L133.93 51.375L133.06 52.66H133.05L132.166 52.0175C132.131 52.0315 132.131 52.0315 132.131 52.0315L132.131 52.0297L132.127 52.0198L132.109 51.9758C132.109 51.9757 132.109 51.9759 132.109 51.9758L132.099 51.9682C132.089 51.9386 132.079 51.9093 132.069 51.8801C132.058 51.8552 132.046 51.8273 132.033 51.7965C131.994 51.7054 131.944 51.5895 131.882 51.4517C131.327 50.382 130.187 49.5773 128.525 49.0096C126.618 48.3584 124.22 48.0921 121.816 48.0436C119.426 47.9953 117.096 48.1631 115.358 48.3445C114.49 48.4349 113.774 48.5284 113.276 48.599C113.027 48.6343 112.833 48.6638 112.702 48.6844C112.637 48.6946 112.587 48.7027 112.555 48.708L112.518 48.7141L112.51 48.7155L112.508 48.7158C112.508 48.7158 112.508 48.7161 112.508 48.7158L111.497 47.1923C113.463 44.1094 114.088 41.6493 114.019 39.7194C113.95 37.8001 113.191 36.2966 112.184 35.1221C111.167 33.9357 109.902 33.0933 108.868 32.5438C108.423 32.3071 108.028 32.1285 107.726 32.003C107.675 31.9837 107.627 31.9655 107.582 31.9483C107.418 31.8863 107.291 31.8387 107.205 31.8067L107.108 31.7707L107.084 31.7618L107.076 31.7592L107.719 29.8657ZM107.119 31.7738C107.119 31.7737 107.119 31.7737 107.119 31.7738V31.7738ZM114.463 34.8229C115.328 36.1238 115.948 37.7228 116.017 39.6478C116.088 41.6342 115.57 43.8949 114.234 46.4577C114.516 46.4239 114.823 46.3894 115.15 46.3552C116.937 46.1688 119.355 45.9935 121.856 46.044C124.344 46.0942 126.98 46.3685 129.171 47.117C129.305 47.1627 129.438 47.2105 129.57 47.2604C128.143 45.2534 125.664 42.3416 122.597 39.5495C120.908 38.0116 117.639 36.2829 114.463 34.8229Z" fill="#1B1B1B"/>
<path d="M25.76 60.25L41.25 121.07L96.43 115.72L78.83 60.25H25.76Z" fill="#C7E8EF"/>
<path fill-rule="evenodd" clip-rule="evenodd" d="M24.4734 59.25H79.5618L97.7571 116.596L40.4927 122.148L24.4734 59.25ZM27.0466 61.25L42.0073 119.992L95.1029 114.844L78.0982 61.25H27.0466Z" fill="#1B1B1B"/>
<path d="M29.4199 62.64L42.9599 115.01L97.7199 110.09L81.5299 62.64H29.4199Z" fill="white"/>
<path fill-rule="evenodd" clip-rule="evenodd" d="M28.4519 62.8903L29.4201 61.64H81.5301L82.4765 62.3171L98.6665 109.767L97.8096 111.086L43.0496 116.006L41.9919 115.26L28.4519 62.8903ZM30.7115 63.64L43.7158 113.938L96.3625 109.208L80.8147 63.64H30.7115Z" fill="#1B1B1B"/>
<path d="M25.8699 59.48L12.4299 117.41L41.1499 121.07L25.8699 59.48Z" fill="#82C6D1"/>
<path fill-rule="evenodd" clip-rule="evenodd" d="M24.8958 59.254L26.8405 59.2392L42.1205 120.829L41.0235 122.062L12.3035 118.402L11.4558 117.184L24.8958 59.254ZM25.9025 63.7643L13.6542 116.558L39.8277 119.893L25.9025 63.7643Z" fill="#1B1B1B"/>
<path d="M43.2599 74.33C42.9199 73.9 42.4999 73.55 41.9899 73.3C41.4799 73.04 40.8899 72.92 40.2299 72.92C39.9699 72.92 39.7499 72.94 39.5699 72.98C39.5199 72.99 39.4799 73.02 39.4299 73.03L39.2399 71.84H42.5199L42.0699 70.05H36.9399L37.6899 74.09L38.7599 74.86C38.8999 74.73 39.0799 74.63 39.2899 74.55C39.4999 74.47 39.7499 74.43 40.0199 74.43C40.3299 74.43 40.5999 74.48 40.8499 74.59C41.0999 74.69 41.2999 74.84 41.4699 75.02C41.6399 75.2 41.7499 75.42 41.8199 75.67C41.8899 75.92 41.8799 76.12 41.8199 76.31C41.7499 76.5 41.6299 76.64 41.4599 76.74C41.2799 76.84 41.0599 76.88 40.7799 76.88C40.4699 76.88 40.1599 76.81 39.8399 76.68C39.5199 76.55 39.2599 76.38 39.0599 76.17L38.0899 77.51C38.5499 77.89 39.0699 78.18 39.6499 78.39C40.2299 78.6 40.7999 78.7 41.3599 78.7C42.0499 78.7 42.6099 78.57 43.0399 78.32C43.4699 78.07 43.7699 77.72 43.9299 77.27C44.0999 76.82 44.1199 76.31 43.9799 75.75C43.8499 75.24 43.6199 74.77 43.2899 74.33H43.2599Z" fill="#1B1B1B"/>
<path fill-rule="evenodd" clip-rule="evenodd" d="M91.4005 103.968L44.8105 107.768L44.7292 106.772L91.3192 102.972L91.4005 103.968Z" fill="#C4C4C4"/>
<path fill-rule="evenodd" clip-rule="evenodd" d="M90.0362 97.7787L43.4562 101.159L43.3838 100.161L89.9638 96.7813L90.0362 97.7787Z" fill="#C4C4C4"/>
<path fill-rule="evenodd" clip-rule="evenodd" d="M88.3983 90.7785L41.2883 94.3985L41.2117 93.4015L88.3217 89.7815L88.3983 90.7785Z" fill="#C4C4C4"/>
<path fill-rule="evenodd" clip-rule="evenodd" d="M86.2624 84.0489L39.3824 87.0789L39.3179 86.081L86.1979 83.051L86.2624 84.0489Z" fill="#C4C4C4"/>
<path fill-rule="evenodd" clip-rule="evenodd" d="M51.3232 110.624L44.2832 80.6343L45.2567 80.4057L52.2967 110.396L51.3232 110.624Z" fill="#C4C4C4"/>
<path fill-rule="evenodd" clip-rule="evenodd" d="M58.214 109.217L51.324 80.6372L52.2961 80.4028L59.1861 108.983L58.214 109.217Z" fill="#C4C4C4"/>
<path fill-rule="evenodd" clip-rule="evenodd" d="M65.4149 108.381L58.5149 80.6407L59.4853 80.3993L66.3853 108.139L65.4149 108.381Z" fill="#C4C4C4"/>
<path fill-rule="evenodd" clip-rule="evenodd" d="M72.7259 107.395L65.8259 80.6449L66.7942 80.3951L73.6942 107.145L72.7259 107.395Z" fill="#C4C4C4"/>
<path fill-rule="evenodd" clip-rule="evenodd" d="M80.0671 107.399L72.7271 79.9492L73.6931 79.6909L81.0331 107.141L80.0671 107.399Z" fill="#C4C4C4"/>
<path fill-rule="evenodd" clip-rule="evenodd" d="M86.5391 106.137L79.0791 79.957L80.0408 79.683L87.5008 105.863L86.5391 106.137Z" fill="#C4C4C4"/>
<path fill-rule="evenodd" clip-rule="evenodd" d="M65.0022 94.1869C64.7866 94.4716 64.6807 94.8936 64.7975 95.4095C65.0375 96.4687 66.1106 97.33 67.1499 97.33C67.6504 97.33 68.0107 97.1329 68.2226 96.8531C68.4361 96.5713 68.5386 96.1525 68.414 95.6377C68.1551 94.5688 67.0758 93.71 66.0599 93.71C65.5725 93.71 65.2158 93.9049 65.0022 94.1869ZM64.2051 93.5831C64.624 93.0301 65.2873 92.71 66.0599 92.71C67.564 92.71 69.0247 93.9111 69.3859 95.4023C69.5712 96.1674 69.4388 96.9037 69.0197 97.4569C68.5991 98.0121 67.9295 98.33 67.1499 98.33C65.6292 98.33 64.1623 97.1312 63.8223 95.6305C63.6491 94.8663 63.7882 94.1334 64.2051 93.5831Z" fill="#FF2434"/>
<path fill-rule="evenodd" clip-rule="evenodd" d="M31.3624 56.043C30.8187 56.9588 30.45 58.2885 30.45 59.81H28.45C28.45 57.9915 28.8862 56.2963 29.6425 55.0221C30.3858 53.77 31.5548 52.76 33.04 52.76C34.5251 52.76 35.6941 53.77 36.4374 55.0221C37.1937 56.2963 37.63 57.9915 37.63 59.81C37.63 62.4872 36.6792 65.0213 35.0206 66.2042L33.8593 64.5759C34.7807 63.9188 35.63 62.1528 35.63 59.81C35.63 58.2885 35.2612 56.9588 34.7175 56.043C34.1608 55.1051 33.5348 54.76 33.04 54.76C32.5451 54.76 31.9191 55.1051 31.3624 56.043Z" fill="#1B1B1B"/>
<path fill-rule="evenodd" clip-rule="evenodd" d="M45.3323 56.043C44.7887 56.9588 44.4199 58.2885 44.4199 59.81H42.4199C42.4199 57.9915 42.8561 56.2963 43.6125 55.0221C44.3558 53.77 45.5247 52.76 47.0099 52.76C48.4951 52.76 49.6641 53.77 50.4073 55.0221C51.1637 56.2963 51.5999 57.9915 51.5999 59.81C51.5999 62.4872 50.6492 65.0213 48.9906 66.2042L47.8293 64.5759C48.7506 63.9188 49.5999 62.1528 49.5999 59.81C49.5999 58.2885 49.2311 56.9588 48.6875 56.043C48.1308 55.1051 47.5047 54.76 47.0099 54.76C46.5151 54.76 45.8891 55.1051 45.3323 56.043Z" fill="#1B1B1B"/>
<path d="M83.0601 57.01C83.0601 57.01 81.2701 56.16 78.3201 54.68L78.5101 55.46L79.0701 55.93C79.7001 57.12 78.9801 57.34 77.4701 56.68C75.9701 56.02 77.4701 55.18 77.4701 55.18L77.2201 54.13C75.1801 53.1 72.7201 51.82 69.9701 50.36L70.2401 51.43L70.8801 52.37C71.5201 53.31 69.7701 53.31 68.4601 52.37C67.1501 51.43 68.4601 50.68 68.4601 50.68V49.55C65.5601 47.99 62.4101 46.24 59.1701 44.36L59.2601 45.24C59.2601 45.24 59.6401 46.46 59.6401 47.02C59.6401 47.58 58.5101 47.21 57.2801 45.8C56.0501 44.39 57.6901 44.02 57.6901 44.02L57.5801 43.43C54.1801 41.43 50.7101 39.3 47.3701 37.1C47.3801 37.55 47.4201 38.01 47.5101 38.41C47.8301 39.84 45.6101 38.29 44.7701 37.45C43.9301 36.61 45.4701 35.84 45.4701 35.84C41.3901 33.08 37.5601 30.25 34.3501 27.45C34.3501 27.45 35.7601 43.92 61.6601 63.91C87.5601 83.9 95.6001 82.07 107.42 90.8C107.42 90.8 86.5801 69.26 83.0601 57.01Z" fill="white"/>
<path fill-rule="evenodd" clip-rule="evenodd" d="M33.3538 27.5353L35.0075 26.6964C38.1756 29.4599 41.9694 32.2646 46.0304 35.0117L45.9174 36.7334C45.9178 36.7342 45.9174 36.7334 45.9174 36.7334L45.9184 36.7339L45.9194 36.7334C45.9152 36.7356 45.907 36.7401 45.8947 36.7469C45.8699 36.7609 45.832 36.783 45.7876 36.8119C45.741 36.8422 45.6948 36.875 45.6522 36.9085C45.8593 37.0955 46.1202 37.3048 46.385 37.4921C46.3777 37.3669 46.373 37.2431 46.3704 37.1222L47.9202 36.2649C51.2427 38.4534 54.6978 40.5743 58.0871 42.5681L58.5632 43.2467L58.6732 43.8367L58.3255 44.3647L59.672 43.4951C62.9018 45.3692 66.0424 47.1139 68.9339 48.6693L69.4601 49.55V50.2443L70.439 49.4768C73.1853 50.9348 75.6389 52.2114 77.6708 53.2373L78.1929 53.8984L78.2622 54.1893L78.7685 53.7862C80.2397 54.5243 81.4211 55.105 82.2342 55.5009C82.6407 55.6989 82.9551 55.8507 83.1675 55.9528C83.2406 55.9879 83.3016 56.0171 83.3502 56.0404C83.3722 56.0509 83.3916 56.0602 83.4085 56.0683L83.488 56.1062L83.4891 56.1067L83.0601 57.01L84.0212 56.7338C84.8591 59.6498 86.7553 63.1923 89.1881 66.9101C91.6107 70.6121 94.522 74.4233 97.3346 77.8661C100.145 81.307 102.848 84.3687 104.849 86.5705C105.849 87.6711 106.673 88.5561 107.246 89.1653C107.533 89.4698 107.757 89.7054 107.908 89.8645C107.984 89.9441 108.042 90.0045 108.081 90.0448L108.125 90.0902L108.138 90.104C108.138 90.1041 108.139 90.1047 107.42 90.8L108.138 90.104L106.826 91.6044C102.307 88.267 98.3881 86.5206 93.66 84.4137C92.3155 83.8146 90.9056 83.1863 89.3979 82.484C82.6081 79.3213 74.0595 74.7432 61.0491 64.7016C47.9985 54.629 41.0757 45.4096 37.4137 38.6607C35.5834 35.2876 34.5708 32.5373 34.0145 30.6136C33.7364 29.652 33.5725 28.8976 33.4775 28.3759C33.43 28.1151 33.3997 27.9125 33.381 27.7714C33.3716 27.7008 33.3651 27.6455 33.3608 27.6061C33.3587 27.5863 33.3571 27.5705 33.3559 27.5587L33.3545 27.544L33.3541 27.5389L33.3539 27.5369C33.3538 27.5361 33.3538 27.5353 34.3501 27.45L33.3538 27.5353ZM35.9467 30.0956C36.4666 31.8837 37.4241 34.4863 39.1716 37.7068C42.6896 44.1904 49.4217 53.201 62.2711 63.1184C75.1608 73.0668 83.5821 77.5687 90.2424 80.671C91.6854 81.3432 93.0564 81.9537 94.3803 82.5433C96.9099 83.6697 99.2674 84.7196 101.627 85.9763C99.8984 84.0312 97.8723 81.6857 95.7857 79.1314C92.9482 75.658 89.9895 71.7873 87.5146 68.0052C85.1605 64.4078 83.2039 60.8309 82.2296 57.721C82.0178 57.619 81.7251 57.4776 81.3585 57.2991C81.0529 57.1502 80.696 56.9757 80.2918 56.7768C80.2734 56.978 80.2134 57.1964 80.0814 57.4029C79.9193 57.6564 79.6923 57.8236 79.4584 57.9214C79.0361 58.0979 78.5838 58.0555 78.251 57.9895C77.8859 57.917 77.4856 57.7781 77.0696 57.5963L77.0674 57.5953C76.6022 57.3907 76.128 57.0735 75.912 56.5464C75.6725 55.9621 75.8729 55.4437 76.0657 55.1428C76.1487 55.0135 76.2437 54.9002 76.3373 54.804C75.0394 54.1454 73.5858 53.3939 72.0074 52.5661C72.0471 52.8683 71.9926 53.2059 71.7354 53.5256C71.5239 53.7884 71.2511 53.9195 71.0384 53.9857C70.821 54.0534 70.5999 54.075 70.4014 54.075C69.6398 54.075 68.6748 53.7549 67.8771 53.1825C67.4453 52.8726 67.098 52.486 66.9505 51.9996C66.7951 51.4872 66.9105 51.0297 67.0878 50.6995C67.1979 50.4945 67.3352 50.3293 67.4601 50.2039V50.147C65.2726 48.9652 62.9514 47.6798 60.5625 46.3154C60.6071 46.5565 60.6401 46.806 60.6401 47.02C60.6401 47.257 60.5785 47.556 60.3633 47.8192C60.1455 48.0855 59.8596 48.2062 59.6177 48.2488C59.1901 48.324 58.7818 48.184 58.5068 48.0588C57.8992 47.782 57.1996 47.2289 56.5265 46.4574C56.1454 46.0204 55.8722 45.5376 55.8287 45.0093C55.7862 44.4948 55.9717 44.0806 56.216 43.7858C53.647 42.2632 51.0457 40.6685 48.4974 39.0274C48.4882 39.0639 48.4775 39.1005 48.465 39.1371C48.3178 39.5678 47.9758 39.8552 47.5703 39.9533C47.2408 40.0331 46.9345 39.9741 46.7385 39.9199C46.5233 39.8604 46.3128 39.7693 46.1236 39.6735C45.3899 39.3022 44.5409 38.635 44.063 38.1571C43.6717 37.7658 43.4583 37.2599 43.5345 36.7074C43.577 36.3991 43.7019 36.1414 43.8396 35.9387C41.0399 34.015 38.3671 32.0562 35.9467 30.0956ZM57.9155 44.9946C57.9452 45.0361 57.9837 45.0853 58.0337 45.1426C58.1175 45.2387 58.1995 45.3279 58.2794 45.4106L58.2653 45.3417L58.1869 44.5752L57.913 44.9911C57.9138 44.9922 57.9148 44.9936 57.9155 44.9946L57.9166 44.994L57.921 44.993C57.9228 44.9925 57.9238 44.9923 57.9242 44.9922C57.9238 44.9923 57.9208 44.9931 57.9155 44.9946ZM68.9793 51.5094C68.9979 51.5243 69.0191 51.5403 69.0431 51.5575C69.1242 51.6157 69.2067 51.6685 69.2891 51.716L69.2705 51.6747L69.1531 51.2095L68.9793 51.5094ZM45.9194 36.7334L45.9209 36.7327L45.9224 36.7319C45.9228 36.7317 45.9214 36.7323 45.9194 36.7334Z" fill="#1B1B1B"/>
<path d="M52.2 45.79L51.48 45.53L51.3 44.42L49.7 43.86L49.68 44.89L48.41 44.44L50.28 41.83L49 41.38L46.06 44L45.75 44.67L49.65 46.06L49.63 47.19L51.89 48L51.69 46.78L52.49 47.07L52.2 45.79Z" fill="#1B1B1B"/>
<path fill-rule="evenodd" clip-rule="evenodd" d="M61.3313 57.4254C61.0294 57.3905 60.8607 57.478 60.7725 57.5898L60.7369 57.6302C60.6451 57.7238 60.579 57.9006 60.6886 58.2087C60.799 58.519 61.0773 58.902 61.5603 59.2528C62.0919 59.6247 62.6518 59.8468 63.0954 59.9145C63.4884 59.9744 63.6587 59.9028 63.7193 59.8596C63.7279 59.8191 63.7313 59.7533 63.7119 59.6538C63.6846 59.5137 63.6177 59.3381 63.5041 59.1384C63.2769 58.7389 62.8985 58.3054 62.445 57.9562L62.4366 57.9497L62.4366 57.9496C62.031 57.6234 61.6372 57.4608 61.3313 57.4254ZM64.4329 60.2376L64.5936 60.3656C64.2373 60.9338 63.5138 60.9899 62.9446 60.903C62.3241 60.8084 61.6205 60.5162 60.9831 60.0695L60.9766 60.0649L60.9766 60.0649C60.3715 59.6263 59.9408 59.0903 59.7464 58.5438C59.5538 58.0023 59.584 57.3941 60.0044 56.9492C60.3664 56.5076 60.914 56.3705 61.4463 56.4321C61.9814 56.494 62.546 56.7552 63.0592 57.1671C63.6039 57.5873 64.0739 58.1174 64.3734 58.6441C64.5236 58.9082 64.6398 59.187 64.6935 59.4628C64.7468 59.7369 64.7442 60.0412 64.6129 60.3218L64.4329 60.2376Z" fill="#FF2434"/>
<path d="M48.1399 51.66C48.1399 51.66 75.1699 69.55 92.9099 67.15C92.9099 67.15 87.2099 75.59 99.0699 85.8C99.0699 85.8 68.9699 74.17 48.1399 51.66Z" fill="#EDEDED"/>
<path fill-rule="evenodd" clip-rule="evenodd" d="M63.4509 61.2118C60.1006 59.6542 57.0584 58.056 54.5558 56.661C63.5941 65.0503 73.6158 71.6166 81.908 76.3006C86.9438 79.145 91.3315 81.2896 94.4579 82.722C94.5583 82.768 94.6574 82.8132 94.7551 82.8578C91.5883 79.0166 90.5906 75.492 90.5426 72.6632C90.5117 70.8444 90.8748 69.3593 91.2539 68.3165C82.4086 68.8709 71.8597 65.1211 63.4509 61.2118ZM93.7373 67.7074L92.7759 66.159C84.2181 67.3168 73.26 63.5665 64.294 59.3982C59.8417 57.3283 55.9367 55.1827 53.1444 53.554C51.7489 52.74 50.6327 52.0561 49.8668 51.5765C49.4838 51.3367 49.1886 51.1481 48.9898 51.0199C48.8904 50.9558 48.8151 50.9068 48.7651 50.8742L48.7091 50.8375L48.6956 50.8286L48.6925 50.8265L48.14 51.66L47.406 52.3392C57.9177 63.6987 70.7471 72.2933 80.9244 78.042C86.0174 80.9188 90.4565 83.0886 93.6248 84.5402C95.2092 85.2661 96.4764 85.8128 97.3494 86.1786C97.7859 86.3615 98.1239 86.4993 98.3538 86.5917C98.4688 86.6379 98.5567 86.6728 98.6164 86.6963L98.6846 86.7231L98.7025 86.7301L98.7074 86.732L98.7088 86.7325C98.7093 86.7327 98.7096 86.7328 99.07 85.8L98.7088 86.7325L99.7224 85.0422C93.9715 80.0914 92.5942 75.6849 92.5423 72.6293C92.516 71.081 92.8287 69.8301 93.1434 68.9729C93.3007 68.5445 93.458 68.216 93.5721 68.0004C93.6291 67.8927 93.6751 67.8135 93.7048 67.7644C93.7196 67.7399 93.7303 67.7229 93.7362 67.7137L93.7395 67.7085C93.7394 67.7086 93.7394 67.7087 93.7373 67.7074Z" fill="#1B1B1B"/>
</svg>
