<svg width="180" height="130" viewBox="0 0 180 130" fill="none" xmlns="http://www.w3.org/2000/svg">
<g clip-path="url(#clip0_3204_222)">
<path d="M114 1H16C7.71573 1 1 7.71573 1 16V114C1 122.284 7.71573 129 16 129H114C122.284 129 129 122.284 129 114V16C129 7.71573 122.284 1 114 1Z" fill="#8FDFF3"/>
<path d="M36.73 80.7001C36.73 80.7001 37.04 83.7001 37.67 86.6901C36.12 85.2901 34.97 83.3301 33.9 81.4701L33.87 81.1301C34.81 81.0301 35.77 80.8901 36.73 80.7001Z" fill="#FAFAFA"/>
<path d="M50.2499 63.2001L50.8099 63.2201C50.5099 63.6101 50.2099 64.0301 49.9099 64.4701C46.2499 69.9401 42.2499 79.6001 36.7299 80.7001C35.7699 80.8901 34.8099 81.0301 33.8699 81.1301C27.8599 81.7501 22.5599 80.7001 22.5599 80.7001L29.5899 74.3801L29.1699 66.7201C29.1699 66.7201 32.1199 61.4101 36.7299 59.3001C41.3299 57.1901 46.5299 59.3001 46.5299 59.3001L50.2499 63.2001Z" fill="#1D8EFF"/>
<path d="M40.26 88.2501C39.56 88.1201 38.79 88.0401 37.97 88.0201C37.87 87.5901 37.77 87.1401 37.67 86.6901C38.43 87.3701 39.28 87.9201 40.26 88.2501Z" fill="#FAFAFA"/>
<path d="M51.08 86.07L51.43 85.86C51.32 85.94 51.2 86.01 51.08 86.07Z" fill="#FAFAFA"/>
<path d="M36.73 80.7C42.25 79.6 46.25 69.94 49.91 64.47L50.07 64.57C52.7 66.16 54.24 69.03 55.25 72.73C55.35 73.12 55.45 73.52 55.55 73.93C56.62 78.57 55.05 83.56 51.43 85.86L51.08 86.07C51.2 86.01 51.32 85.94 51.43 85.86L52.66 85.13C55.28 91.05 51.48 99.79 51.48 99.79C51.16 96.84 41.75 94.22 39.74 92.25C39.02 91.55 38.43 89.88 37.97 88.02C38.79 88.04 39.56 88.12 40.26 88.25C39.28 87.92 38.43 87.37 37.67 86.69C37.04 83.7 36.73 80.7 36.73 80.7Z" fill="#FAFAFA"/>
<path d="M52.97 61.13C57.57 58.47 60.62 60.85 60.57 64.37C60.53 67.89 55.49 72.6601 55.49 72.6601L55.25 72.7301C54.24 69.0301 52.7 66.16 50.07 64.57L49.91 64.47C50.21 64.03 50.51 63.61 50.81 63.22C51.53 62.28 52.25 61.55 52.97 61.13Z" fill="#1379C4"/>
<path d="M52.9799 104.22C52.9799 106.07 52.2799 106.98 51.4299 106.98C50.5799 106.98 49.8799 106.07 49.8799 104.22C49.8799 102.37 51.4299 100.26 51.4299 100.26C51.4299 100.26 52.9799 102.36 52.9799 104.22Z" fill="#FAFAFA"/>
<path d="M51.43 100.26C51.43 100.26 49.88 102.36 49.88 104.22C49.88 106.08 50.58 106.98 51.43 106.98C52.28 106.98 52.98 106.07 52.98 104.22C52.98 102.37 51.43 100.26 51.43 100.26ZM39.74 92.25C41.75 94.22 51.16 96.84 51.48 99.79C51.48 99.79 55.28 91.05 52.66 85.13L84.61 66.2C84.61 66.2 88.08 63.81 88.93 65.64C89.77 67.47 87.1 69.16 85.83 70.15C85.83 70.15 89.25 73.24 89.09 76.62C88.93 80 87.38 83.38 83.44 84.36C79.5 85.35 75.7 82.53 75.7 82.53L58.8 96.05L61.18 129.94L42.22 130.08C43.74 124.88 46.66 113.75 40.84 106.99C36.26 101.67 29.05 103 27.57 106.99C26.29 110.44 27.57 113.61 27.57 113.61C27.57 113.61 31.06 116.43 29.79 122.06C29.39 123.82 28.97 125.19 28.51 126.26L27.87 125.96C25.86 125.82 20.78 122.86 18.12 117.73C17.11 115.78 16.45 113.51 16.45 110.97C16.43 97.81 26.6 92.36 32.23 89.35C34.19 88.31 36.19 87.99 37.97 88.02C38.43 89.88 39.02 91.55 39.74 92.25Z" fill="#FAFAFA"/>
<path d="M18.12 117.73C20.78 122.86 25.86 125.82 27.87 125.96L28.51 126.26C28.97 125.19 29.39 123.82 29.79 122.06C31.06 116.43 27.57 113.61 27.57 113.61C27.57 113.61 26.29 110.44 27.57 106.99C29.05 103 36.26 101.67 40.84 106.99C46.66 113.75 43.74 124.88 42.22 130.08C42.14 130.33 42.08 130.57 42.01 130.79C40.59 135.61 36.4 141.77 31.48 142.19C26.55 142.62 17.26 143.6 15.85 132.2C14.73 123.16 18.12 117.73 18.12 117.73Z" fill="#75BDEF"/>
<path fill-rule="evenodd" clip-rule="evenodd" d="M47.0939 76.1041L46.0939 73.1841L47.9861 72.5361L48.9861 75.4561L47.0939 76.1041Z" fill="#1B1B1B"/>
<path fill-rule="evenodd" clip-rule="evenodd" d="M50.7449 74.907L49.7349 71.987L51.6251 71.3332L52.635 74.2532L50.7449 74.907Z" fill="#1B1B1B"/>
<path fill-rule="evenodd" clip-rule="evenodd" d="M43.2157 59.4991C41.4422 59.2496 39.207 59.2641 37.147 60.209C35.0394 61.1736 33.2634 62.8985 31.9924 64.438C31.3633 65.2 30.8718 65.8993 30.5389 66.4064C30.3866 66.6382 30.268 66.829 30.185 66.9662L30.5885 74.3253L30.2586 75.1237L24.8089 80.023C25.1816 80.0671 25.5974 80.1112 26.05 80.1515C28.0843 80.3328 30.8438 80.4368 33.7658 80.1355C34.6792 80.0383 35.6089 79.9025 36.5359 79.7191C37.6629 79.4941 38.7838 78.8166 39.9154 77.7436C41.0452 76.6724 42.1289 75.2613 43.1843 73.6709C44.238 72.083 45.2385 70.3552 46.2166 68.6593L46.3033 68.509C47.244 66.8779 48.1694 65.2733 49.0789 63.914L49.0838 63.9067C49.1477 63.813 49.2117 63.72 49.2759 63.6277L45.9651 60.1566L45.9636 60.1561C45.8277 60.1079 45.6238 60.0394 45.363 59.9626C44.8403 59.8085 44.0952 59.6228 43.2157 59.4991ZM46.906 58.3734L46.9046 58.3729L46.9027 58.3721L46.8974 58.37L46.8812 58.3636C46.8679 58.3583 46.8496 58.3512 46.8266 58.3424C46.7804 58.3248 46.7149 58.3005 46.6316 58.2709C46.4652 58.2119 46.2269 58.1321 45.9283 58.0441C45.3323 57.8685 44.4899 57.6586 43.4943 57.5186C41.5181 57.2406 38.8536 57.226 36.3139 58.3908C33.8114 59.5361 31.8067 61.5216 30.4501 63.1646C29.7656 63.9938 29.2313 64.7539 28.8671 65.3084C28.6848 65.5861 28.5444 65.8132 28.4485 65.9729C28.4005 66.0528 28.3636 66.116 28.3381 66.1602L28.3083 66.2122L28.2999 66.2271L28.2974 66.2317L28.2959 66.2344L28.1715 66.7748L28.5653 73.9566L21.8915 79.9564L22.3666 81.6811L22.3721 81.6822L22.3862 81.685L22.4371 81.6946C22.4809 81.7028 22.5445 81.7145 22.6266 81.7289C22.7909 81.7577 23.0295 81.7977 23.3335 81.8433C23.9413 81.9346 24.8118 82.0491 25.8725 82.1436C27.8047 82.3158 30.3837 82.4232 33.1656 82.1989C34.1082 83.8337 35.1894 85.6477 36.6119 87.0641C35.0637 87.1911 33.4021 87.5961 31.7614 88.4667L31.7586 88.4682L31.7125 88.4928C26.1078 91.4892 15.4296 97.198 15.4501 110.971C15.4502 113.48 16.0529 115.74 16.991 117.705C16.9075 117.866 16.809 118.065 16.7003 118.3C16.3806 118.993 15.9729 120.003 15.6035 121.301C15.6035 121.301 13.2343 129.652 15 134.5C17.7315 142 22.0054 142.572 22.0054 142.572C25.8107 143.8 28.158 143.545 30.2813 143.314C30.626 143.276 30.9651 143.239 31.3033 143.209L31.5672 143.186C34.4096 142.943 36.9088 141.067 38.8242 138.782C40.7538 136.481 42.2186 133.616 42.9666 131.083L42.9692 131.075L62.2518 130.932L59.8339 96.5032L75.7586 83.7635L75.8009 83.789L75.8432 83.8143C76.2947 84.0833 76.9394 84.4299 77.7184 84.7438C79.2589 85.3646 81.4245 85.8971 83.6822 85.3302C88.2175 84.2015 89.9171 80.2877 90.0885 76.6673C90.1842 74.6464 89.2186 72.803 88.3394 71.5448C87.9874 71.0411 87.6333 70.6084 87.3324 70.268C87.8455 69.8749 88.4299 69.3996 88.9029 68.8913C89.679 68.0574 90.5308 66.7312 89.8385 65.2229L89.8366 65.2188C89.4414 64.3679 88.6995 64.0128 87.9707 63.9583C87.309 63.9088 86.6326 64.0957 86.0967 64.2986C85.5412 64.509 85.0297 64.7787 84.6651 64.9892C84.4807 65.0957 84.3287 65.19 84.2214 65.2586C84.1677 65.293 84.1249 65.3211 84.0947 65.3412L84.0746 65.3547L55.8062 82.1044C56.9182 79.5632 57.1797 76.5474 56.5243 73.7054L56.5214 73.6931C56.4789 73.5187 56.4363 73.3461 56.3938 73.1752L56.4123 73.1568C56.5568 73.013 56.7613 72.8052 57.006 72.5455C57.4944 72.0271 58.148 71.296 58.8055 70.4476C59.4606 69.6021 60.1345 68.6209 60.6512 67.6029C61.1613 66.5976 61.5572 65.4809 61.57 64.3828C61.5985 62.341 60.7192 60.4657 58.9805 59.5481C57.2415 58.6305 54.9493 58.8304 52.4694 60.2644L52.4662 60.2663C51.7672 60.674 51.1126 61.2893 50.4989 62.0121L47.2536 58.6098L46.906 58.3734ZM46.861 58.4848C46.9048 58.3769 46.906 58.3734 46.906 58.3734L46.861 58.4848ZM28.4037 66.2944L28.2959 66.2344C28.2959 66.2344 28.2992 66.2364 28.4037 66.2944ZM17.5272 121.849C17.753 121.055 17.9929 120.384 18.211 119.845C19.5081 121.788 21.1016 123.356 22.6365 124.515C23.6126 125.251 24.5777 125.832 25.4463 126.241C26.0287 126.516 26.599 126.728 27.1193 126.85C26.3662 128.212 25.6377 128.574 24.9911 128.671L25.2893 130.649C27.0276 130.387 28.3674 129.171 29.4289 126.655C29.9218 125.509 30.358 124.074 30.7655 122.282L30.7658 122.28C31.457 119.216 30.8569 116.867 30.0486 115.272C29.6482 114.481 29.2015 113.885 28.8494 113.481C28.6846 113.292 28.5397 113.145 28.4286 113.038C28.4064 112.97 28.3803 112.886 28.3521 112.787C28.2632 112.475 28.1545 112.019 28.0819 111.464C27.9361 110.349 27.9404 108.867 28.5079 107.338C29.0704 105.821 30.8111 104.646 33.1077 104.497C35.3572 104.351 37.9991 105.222 40.0825 107.642C42.7538 110.745 43.4711 114.914 43.2839 119.075C43.0974 123.219 42.0206 127.199 41.264 129.788C41.22 129.926 41.1823 130.058 41.1497 130.173L41.1472 130.182C41.1133 130.301 41.086 130.397 41.0574 130.487L41.0542 130.497L41.0511 130.507C40.3783 132.791 39.0394 135.413 37.2915 137.498C35.5274 139.602 33.4722 141.016 31.3953 141.194L31.3935 141.194L31.2489 141.206C28.7525 141.425 25.5011 141.709 22.6854 140.691C21.2804 140.183 20.0023 139.354 18.9896 138.025C17.9731 136.691 17.1787 134.793 16.8428 132.077C16.3014 127.707 16.8514 124.225 17.5272 121.849ZM28.8151 121.839C28.5304 123.091 28.2399 124.122 27.9388 124.973L27.9395 124.962C27.6151 124.94 27.0503 124.786 26.2991 124.432C25.5668 124.087 24.7187 123.58 23.8411 122.918C22.083 121.591 20.2569 119.678 19.008 117.27C18.0628 115.445 17.4501 113.332 17.4501 110.97L17.4501 110.969C17.4311 98.4607 27.0322 93.263 32.7003 90.2326C34.2137 89.4299 35.7592 89.0956 37.2003 89.0304C37.3879 89.71 37.5969 90.3614 37.8289 90.9414C38.1365 91.7102 38.5265 92.4644 39.0415 92.9657C39.6796 93.5904 40.7959 94.1875 41.94 94.7438C42.536 95.0335 43.1818 95.3312 43.8353 95.632L43.8972 95.6605C44.5341 95.9537 45.179 96.2505 45.8107 96.5539C47.1254 97.1855 48.3262 97.8195 49.2083 98.4555C49.6481 98.7727 49.9746 99.0665 50.1911 99.332C50.3925 99.5788 50.463 99.7568 50.4821 99.8714C50.4429 99.9295 50.3969 99.9992 50.3457 100.079C50.1871 100.326 49.976 100.677 49.7642 101.092C49.3557 101.891 48.8798 103.054 48.8798 104.22C48.8798 105.253 49.0726 106.146 49.4835 106.817C49.9115 107.515 50.5947 107.98 51.4298 107.98C52.2648 107.98 52.9481 107.515 53.376 106.817C53.787 106.146 53.9798 105.253 53.9798 104.22C53.9798 103.049 53.5042 101.887 53.095 101.087C52.883 100.673 52.6717 100.323 52.513 100.076L52.4712 100.012C52.4975 99.9475 52.5303 99.8664 52.5684 99.7698C52.6718 99.5075 52.815 99.1295 52.9778 98.6587C53.3029 97.7185 53.7087 96.4005 54.0305 94.8882C54.6115 92.1584 54.955 88.6348 53.9003 85.5585L85.1488 67.043L85.1765 67.0238L85.1806 67.0211L85.203 67.0061C85.224 66.9921 85.2566 66.9706 85.2994 66.9432C85.3852 66.8883 85.511 66.8102 85.6651 66.7212C85.9777 66.5408 86.3868 66.3274 86.805 66.169C87.243 66.0032 87.5934 65.9357 87.8214 65.9527C87.9779 65.9644 87.9922 65.9954 88.0203 66.0561L88.0212 66.0581C88.1683 66.3797 88.1047 66.8133 87.4389 67.5288C86.9462 68.0581 86.3302 68.52 85.7504 68.9547L85.7493 68.9555C85.5659 69.093 85.3859 69.228 85.2148 69.3614L84.2755 70.0936L85.1592 70.892L85.1623 70.8949L85.1839 70.915C85.2042 70.934 85.2359 70.9641 85.2773 71.0046C85.3603 71.0857 85.4819 71.208 85.6288 71.3662C85.9238 71.6838 86.3151 72.1396 86.6999 72.6903C87.4907 73.8221 88.1551 75.2137 88.0908 76.5728C87.9422 79.7121 86.5421 82.5579 83.1983 83.3896L83.196 83.3902C81.514 83.8128 79.8101 83.4304 78.4659 82.8888C77.8024 82.6214 77.2508 82.3249 76.8668 82.0961C76.6753 81.9821 76.5271 81.8858 76.4293 81.8199C76.3804 81.787 76.3442 81.7617 76.3216 81.7457L76.298 81.7288L76.2951 81.7267L75.6767 81.2678L57.7654 95.5969L60.1075 128.948L43.5486 129.07C44.2674 126.478 45.1137 122.902 45.2819 119.165C45.4796 114.771 44.747 109.995 41.5982 106.338C41.5982 106.338 37.5001 100.741 31.0001 103C24.5001 105.259 26.0988 111.723 26.0988 111.723C26.1862 112.392 26.3175 112.945 26.4286 113.335C26.5153 113.639 26.6219 113.932 26.7402 114.225L26.9376 114.384L26.9519 114.397C26.9672 114.41 26.9939 114.434 27.0299 114.468C27.102 114.536 27.2112 114.646 27.3422 114.796C27.6048 115.097 27.9513 115.557 28.2646 116.176C28.8838 117.398 29.3936 119.273 28.8151 121.839ZM52.1345 86.6047L51.9775 86.6978C51.8367 86.7966 51.6929 86.88 51.5566 86.9496C50.8054 87.3833 49.9919 87.7038 49.1109 87.913L48.6488 85.9671C49.3528 85.7999 49.9868 85.5477 50.5652 85.2126L50.9079 85.0069C54.0738 82.9848 55.5721 78.4869 54.5768 74.1608C54.4789 73.7593 54.381 73.3677 54.2831 72.986C53.3939 69.7319 52.13 67.3245 50.1981 65.8635C49.497 66.9747 48.776 68.2249 48.0175 69.54L47.9491 69.6586C46.9754 71.3468 45.9446 73.1283 44.8508 74.7767C43.7586 76.4226 42.5786 77.9746 41.2915 79.1949C40.247 80.1853 39.0942 80.9933 37.8223 81.4357C37.857 81.7148 37.9009 82.0534 37.9541 82.4361C38.097 83.4636 38.3057 84.801 38.5804 86.1549C38.7134 86.4371 38.8054 86.6817 38.8665 86.8948C39.4852 86.9926 40.0728 87.1214 40.621 87.2772C41.7395 87.5801 42.6636 87.9602 43.3112 88.2661C43.6362 88.4197 43.8932 88.5553 44.0721 88.6545C44.1616 88.7042 44.2317 88.7447 44.2811 88.774C44.2958 88.7827 44.3086 88.7904 44.3196 88.797C44.3272 88.8015 44.3338 88.8056 44.3396 88.8091L44.3569 88.8197L44.3626 88.8232L44.3646 88.8245L44.3659 88.8253C44.3659 88.8253 44.3662 88.8255 43.8349 89.6727C43.3037 90.5199 43.3047 90.5206 43.3047 90.5206L43.2984 90.5167L43.2849 90.5086L43.2624 90.4951C43.2283 90.4749 43.1745 90.4437 43.1022 90.4036C42.9574 90.3233 42.739 90.2077 42.4569 90.0745C41.8915 89.8074 41.0772 89.4724 40.0926 89.2061L40.0799 89.2026C39.8235 89.1296 39.5544 89.0628 39.2738 89.0032C39.4047 89.437 39.5423 89.8396 39.6859 90.1987C39.9681 90.9042 40.2327 91.3344 40.437 91.5331L40.4399 91.5359C40.807 91.8957 41.6198 92.3643 42.8145 92.9451C43.3883 93.2241 44.0148 93.5129 44.6716 93.8153L44.7386 93.8461C45.3715 94.1374 46.0298 94.4404 46.6767 94.7512C48.0057 95.3896 49.343 96.0869 50.3781 96.8333C50.6864 97.0556 50.9799 97.2907 51.2444 97.5394C51.5166 96.7083 51.8233 95.6514 52.0743 94.4719C52.606 91.9737 52.8558 89.071 52.1345 86.6047ZM36.0245 83.0741C36.0066 82.9495 35.9895 82.8285 35.9732 82.7115C35.93 82.4012 35.8928 82.1189 35.8614 81.8722C35.6865 81.9006 35.5118 81.9275 35.3376 81.953C35.5633 82.3345 35.7912 82.7096 36.0245 83.0741ZM55.7562 70.9531C54.8133 68.1455 53.4479 65.7764 51.3207 64.2053C51.415 64.0768 51.509 63.9515 51.6027 63.8298L51.6039 63.8281C52.2931 62.9284 52.9184 62.3183 53.4724 61.9947C55.5916 60.7698 57.1238 60.8298 58.0471 61.317C58.9704 61.8042 59.5911 62.8783 59.5701 64.3558L59.5701 64.3587C59.5626 65.0201 59.3135 65.8192 58.8677 66.6978C58.428 67.5642 57.8345 68.4355 57.2246 69.2225C56.7042 69.8941 56.1828 70.4904 55.7562 70.9531ZM51.9798 104.22C51.9798 103.606 51.7417 102.889 51.4307 102.234C51.1185 102.892 50.8798 103.609 50.8798 104.22C50.8798 105.037 51.037 105.524 51.1885 105.771C51.3181 105.983 51.408 105.981 51.4278 105.98L51.4298 105.98L51.4317 105.98C51.4515 105.981 51.5414 105.983 51.671 105.771C51.8226 105.524 51.9798 105.037 51.9798 104.22Z" fill="#1B1B1B"/>
<path d="M90.09 99.21C90.09 99.21 91.89 91.4 88.51 90.03C85.13 88.65 80.34 88.71 77.11 93.12C77.11 93.12 71.76 90.06 63.74 100.76C63.74 100.76 71.34 96.96 72.89 97.8L72.61 100.76L75.43 98.51C75.43 98.51 80.5 96.4 81.91 100.76C81.91 100.76 78.72 101.82 77.17 104.84C77.17 104.84 68.26 103.75 64.88 112.53C64.88 112.53 71.22 107.65 75.86 108.92L74.73 112.53C74.73 112.53 77.97 108.92 79.09 109.34C79.09 109.34 83.31 109.1 83.31 112.53L82.18 129.25H90.57L89.5 112.53C89.5 112.53 97.38 107.42 100.76 115.49C100.76 115.49 98.93 107.79 92.88 107.79C92.88 107.79 98.37 100.19 109.35 108.21C109.35 108.21 106.65 99.2 98.37 99.2C98.37 99.2 102.31 95.54 105.55 97.37C105.55 97.37 94.9 91.03 90.09 99.2V99.21Z" fill="#8AD953"/>
<path fill-rule="evenodd" clip-rule="evenodd" d="M83.2156 113.927L83.31 112.53C83.31 109.1 79.09 109.34 79.09 109.34C78.4034 109.082 76.9199 110.34 75.8748 111.351C77.0694 108.821 79.5799 105.327 84.6199 103.93C91.4799 102.03 91.2899 106.9 91.2899 106.9C91.2899 106.9 97.5137 98.7375 108.556 106.289C109.111 107.411 109.35 108.21 109.35 108.21C98.37 100.19 92.88 107.79 92.88 107.79C98.93 107.79 100.76 115.49 100.76 115.49C97.38 107.42 89.5 112.53 89.5 112.53L89.5832 113.83L83.2199 113.93L83.2156 113.927Z" fill="#57A620"/>
<path fill-rule="evenodd" clip-rule="evenodd" d="M73.9404 99.6984L73.73 99.4C73.55 96.09 76.63 93.93 76.63 93.93L79.52 91.82C76.66 94.56 76.33 97.15 76.33 97.15C76.51 96.73 78.53 94.99 78.53 94.99C84.48 90.87 86.54 98.05 86.54 98.05C87.12 100.34 86.24 101.92 86.24 101.92C80.23 100.28 77.51 104.76 77.51 104.76L77.3427 104.523C78.9445 101.745 81.91 100.76 81.91 100.76C80.5 96.3999 75.43 98.5099 75.43 98.5099L73.9404 99.6984Z" fill="#57A620"/>
<path fill-rule="evenodd" clip-rule="evenodd" d="M103.796 96.8637C101.043 96.7169 98.37 99.1999 98.37 99.1999C100.131 99.1999 101.64 99.6075 102.924 100.249L102.71 101.08C102.71 101.08 98.17 97.1399 91.52 105.23C91.52 105.23 97.5657 96.4632 102.702 96.0622C103.134 96.2212 103.53 96.3835 103.88 96.5373L103.796 96.8637Z" fill="#57A620"/>
<path d="M81.31 130.29L83.21 113.92L89.58 113.82L91.66 130L81.31 130.29Z" fill="#B78B3B"/>
<path d="M82.16 116.56L90.49 115.72L90.25 116.56L82.16 118.18V119.59L90.12 117.99L82.16 120.51L82.09 123.54L90.9999 125.5V127L81.4999 126L82.16 116.56Z" fill="#A87D36"/>
<path d="M87.41 102.63C87.41 102.63 90.93 103.9 91.28 106.9L92.71 106.24C92.71 106.24 91.58 103.66 87.41 102.63Z" fill="#57A620"/>
<path d="M76.82 109.7C76.82 109.7 76.82 107.56 78.12 105.14L76.97 105.82C76.97 105.82 75.24 107.04 76.82 109.7Z" fill="#57A620"/>
<path fill-rule="evenodd" clip-rule="evenodd" d="M76.7723 91.928C80.3367 87.6415 85.3763 87.6708 88.887 89.1038C90.103 89.5972 90.7739 90.6473 91.132 91.7277C91.4887 92.8038 91.5818 94.0349 91.5674 95.1467C91.5638 95.4268 91.5532 95.7034 91.5376 95.973C92.373 95.303 93.279 94.8297 94.2205 94.518C96.1021 93.8951 98.0623 93.9367 99.794 94.2358C101.529 94.5356 103.09 95.1034 104.209 95.5899C104.772 95.8343 105.228 96.0608 105.547 96.2276C105.706 96.3111 105.832 96.3799 105.919 96.4288C105.962 96.4532 105.996 96.4727 106.02 96.4866L106.049 96.5031L106.057 96.5081L106.061 96.5103C106.061 96.5105 106.062 96.5107 105.55 97.37L106.061 96.5103L105.058 98.2407C103.877 97.5735 102.48 97.8573 101.188 98.4954C101.167 98.5058 101.146 98.5163 101.125 98.5269C104.179 99.2803 106.333 101.219 107.761 103.1C108.673 104.301 109.305 105.497 109.71 106.39C109.912 106.838 110.06 107.213 110.157 107.48C110.206 107.613 110.242 107.72 110.267 107.795C110.28 107.833 110.289 107.863 110.296 107.884L110.304 107.91L110.306 107.918L110.308 107.922C110.308 107.923 110.308 107.923 109.35 108.21L110.308 107.922L108.76 109.018C103.478 105.159 99.6907 105.164 97.3083 105.943C96.3789 106.247 95.6258 106.68 95.0496 107.1C97.3518 107.788 98.9263 109.507 99.9346 111.107C100.589 112.145 101.035 113.175 101.318 113.941C101.46 114.326 101.562 114.648 101.629 114.877C101.663 114.992 101.688 115.084 101.705 115.148C101.713 115.181 101.72 115.207 101.725 115.225L101.73 115.247L101.732 115.255L101.732 115.257L101.733 115.258C101.733 115.258 101.733 115.259 100.76 115.49L101.733 115.258L99.8376 115.876C99.0636 114.028 98.0762 113.03 97.0994 112.503C96.1128 111.97 95.0297 111.859 93.9741 111.978C92.9141 112.097 91.9266 112.443 91.1913 112.771C90.9364 112.885 90.7159 112.994 90.5378 113.088L91.568 129.186L90.57 130.25H82.18L81.1823 129.183L82.3098 112.499C82.3037 111.883 82.1184 111.499 81.8926 111.237C81.6471 110.951 81.2921 110.74 80.87 110.593C80.4499 110.446 80.0136 110.38 79.671 110.353C79.5026 110.34 79.3638 110.337 79.2701 110.336C79.2235 110.336 79.1885 110.337 79.1672 110.338L79.146 110.338C79.1461 110.338 79.146 110.339 79.146 110.338L78.7389 110.276C78.8231 110.308 78.8835 110.307 78.9036 110.305C78.8967 110.307 78.8849 110.309 78.8675 110.315C78.7842 110.339 78.6469 110.4 78.4543 110.517C78.0715 110.748 77.6152 111.113 77.1568 111.523C76.7056 111.926 76.2836 112.346 75.9723 112.668C75.8173 112.828 75.6913 112.962 75.6046 113.056C75.5613 113.102 75.5279 113.139 75.5058 113.163L75.4811 113.19L75.4754 113.197L75.4742 113.198C75.4742 113.198 75.4747 113.198 75.4742 113.198L73.7757 112.231L74.5619 109.719C72.8276 109.617 70.8396 110.279 69.0701 111.147C68.0348 111.654 67.1342 112.202 66.4918 112.623C66.1714 112.834 65.9171 113.011 65.7447 113.135C65.6585 113.197 65.5928 113.245 65.5497 113.277L65.5022 113.313L65.4916 113.321L65.49 113.322C65.49 113.322 65.4897 113.323 65.489 113.322L63.9468 112.171C65.767 107.443 69.1122 105.335 71.9952 104.438C73.4235 103.993 74.7332 103.845 75.6856 103.808C76.0464 103.793 76.3581 103.795 76.6082 103.803C77.4704 102.407 78.6214 101.448 79.5773 100.828C79.9468 100.589 80.2922 100.397 80.5885 100.247C80.3474 99.8562 80.0651 99.5974 79.7778 99.4203C79.3053 99.1289 78.734 99.0073 78.1291 98.9999C77.5253 98.9926 76.9408 99.1002 76.4965 99.2161C76.2773 99.2732 76.0994 99.3305 75.9791 99.3724C75.962 99.3783 75.9461 99.3839 75.9315 99.3892L73.2337 101.542L71.6144 100.666L71.7985 98.7201C71.5846 98.7528 71.3356 98.8049 71.0543 98.8769C70.1874 99.0988 69.1397 99.476 68.108 99.8923C67.0826 100.306 66.1011 100.747 65.3739 101.086C65.011 101.255 64.7128 101.398 64.506 101.498C64.4026 101.548 64.3221 101.588 64.2679 101.614L64.2066 101.645L64.188 101.654L62.9398 100.16C67.0354 94.6961 70.5566 92.6016 73.1949 91.9562C74.5124 91.6338 75.5771 91.6819 76.3363 91.8268C76.4959 91.8573 76.6414 91.8919 76.7723 91.928ZM76.6157 93.9876C76.6151 93.9889 76.6152 93.989 76.6153 93.9891L76.6169 93.99L76.6199 93.9917L76.6245 93.9942L76.6282 93.9962C76.6283 93.9963 76.6237 93.9938 76.6143 93.9893C76.5956 93.9803 76.5583 93.9633 76.5031 93.9418C76.3925 93.899 76.2103 93.8389 75.9612 93.7913C75.4666 93.6969 74.6926 93.6487 73.6701 93.8989C72.1413 94.2729 69.9833 95.3344 67.3479 98.0424C67.3518 98.0408 67.3556 98.0392 67.3595 98.0377C68.4216 97.609 69.5645 97.1937 70.5585 96.9394C71.0538 96.8126 71.544 96.7174 71.9859 96.6882C72.3937 96.6613 72.9175 96.6775 73.3665 96.9208L73.8856 97.8942L73.8274 98.5094L74.8063 97.7283L75.0458 97.5868L75.43 98.51C75.0458 97.5868 75.0454 97.5869 75.0458 97.5868L75.0497 97.5851L75.0556 97.5827L75.0728 97.5758C75.0867 97.5702 75.1055 97.5628 75.1288 97.5538C75.1755 97.5359 75.2407 97.5117 75.3221 97.4834C75.4846 97.4268 75.7138 97.3533 75.9919 97.2808C76.5423 97.1373 77.3135 96.9899 78.1534 97.0001C78.9923 97.0102 79.9529 97.1786 80.8275 97.7179C81.7213 98.2689 82.4426 99.1571 82.8615 100.452L82.2257 101.708C82.2259 101.709 82.2257 101.708 82.2257 101.708L82.2109 101.714C82.1947 101.72 82.1674 101.73 82.1304 101.744C82.0563 101.773 81.9432 101.819 81.8003 101.884C81.5136 102.014 81.1116 102.217 80.6652 102.507C79.7659 103.09 78.7296 103.991 78.0597 105.297L77.0494 105.832C77.0494 105.833 77.0494 105.832 77.0494 105.832L77.0391 105.832C77.0277 105.83 77.0082 105.828 76.9811 105.826C76.9268 105.821 76.8419 105.815 76.73 105.809C76.506 105.798 76.175 105.79 75.7644 105.806C74.9406 105.839 73.8115 105.967 72.5897 106.347C70.9653 106.853 69.1679 107.804 67.6903 109.603C67.853 109.519 68.0197 109.434 68.1899 109.351C70.3863 108.274 73.4253 107.217 76.124 107.955L76.813 109.216C77.0148 109.066 77.2181 108.927 77.4182 108.806C77.6869 108.643 77.9864 108.491 78.2947 108.398C78.5355 108.326 78.8603 108.268 79.2059 108.337C79.2264 108.336 79.2487 108.336 79.2725 108.336C79.4096 108.337 79.6005 108.341 79.8277 108.359C80.2764 108.394 80.8951 108.483 81.5299 108.705C82.1629 108.926 82.8629 109.298 83.4087 109.932C83.9703 110.585 84.31 111.449 84.31 112.53L84.3077 112.597L83.2499 128.25H89.504L88.502 112.594L88.9559 111.691L89.5 112.53C88.9559 111.691 88.9563 111.691 88.9568 111.69L88.9578 111.69L88.9604 111.688L88.9678 111.683L88.9911 111.669C89.0042 111.66 89.0207 111.65 89.0406 111.638C89.0501 111.632 89.0603 111.626 89.0713 111.619C89.1391 111.578 89.2357 111.521 89.3578 111.453C89.6016 111.317 89.9495 111.135 90.3768 110.944C91.2247 110.566 92.4184 110.14 93.7509 109.99C94.6235 109.892 95.5743 109.911 96.5304 110.153C95.5641 109.338 94.3644 108.79 92.88 108.79L92.0694 107.204L92.88 107.79C92.0694 107.204 92.0698 107.204 92.0703 107.203L92.0737 107.198L92.0802 107.19L92.0994 107.164C92.115 107.144 92.1361 107.116 92.1629 107.083C92.2165 107.016 92.2926 106.924 92.3914 106.813C92.5887 106.592 92.8778 106.294 93.2592 105.968C94.0209 105.316 95.1627 104.54 96.6867 104.042C99.2375 103.208 102.692 103.203 106.998 105.53C106.757 105.133 106.481 104.721 106.169 104.31C104.573 102.208 102.092 100.2 98.37 100.2L97.6894 98.4673L98.37 99.2C97.6894 98.4673 97.6891 98.4676 97.6894 98.4673L97.692 98.4649L97.6961 98.4611L97.7086 98.4497C97.7189 98.4404 97.7329 98.4277 97.7506 98.412C97.786 98.3805 97.8361 98.3367 97.8997 98.2829C98.0269 98.1753 98.209 98.0269 98.4368 97.8563C98.89 97.5169 99.5368 97.08 100.302 96.7021C100.447 96.6308 100.598 96.5605 100.755 96.4927C100.336 96.3816 99.9001 96.2838 99.4535 96.2067C97.9214 95.942 96.3173 95.9306 94.8492 96.4167C93.4062 96.8944 92.0324 97.8719 90.9517 99.7073L90.3505 99.3534L89.09 99.21V99.2L89.1465 98.9927C89.1155 98.9857 89.1155 98.9857 89.1155 98.9858L89.116 98.9832L89.119 98.97L89.1317 98.912C89.1429 98.8596 89.1595 98.7806 89.1796 98.6784C89.2199 98.4738 89.2745 98.1773 89.3301 97.8162C89.4417 97.0907 89.5546 96.1209 89.5676 95.1208C89.5807 94.1089 89.49 93.1305 89.2336 92.357C88.9787 91.5881 88.6075 91.1485 88.1344 90.9568L88.132 90.9558C85.0396 89.6932 80.7967 89.7788 77.9168 93.7109L76.6157 93.9876Z" fill="#1B1B1B"/>
<path d="M95.73 120.78C95.73 120.78 101.61 115.59 104.89 119.74L103.91 129.25H110.54L109.56 120.61C109.56 120.61 114.57 118.66 115.96 123.69C115.96 123.69 115.79 118.01 112.85 117.49C112.85 117.49 117.86 114.9 119.94 119.39C119.94 119.39 116.01 110.95 109.05 114.55L107.84 111.27C107.84 111.27 104.21 110.75 102.83 112.31L104.9 114.9C104.9 114.9 95.91 113 95.74 120.78H95.73Z" fill="#8AD953"/>
<path d="M105.24 122.48L109.35 121.91L110.73 130.57L103.34 131.2L103.55 124.02L105.24 122.48Z" fill="#B78B3B"/>
<path d="M103.55 124.02L110.38 123.74L110.01 124.58L104.41 124.43L104.75 126.21L109.35 125.71L104.68 127.05L104.82 127.76L109.35 127.83L109.89 128.81L103.91 129.25L103.55 124.02Z" fill="#A87D36"/>
<path fill-rule="evenodd" clip-rule="evenodd" d="M104.633 122.238L104.89 119.74C102.773 117.061 99.5716 118.274 97.5685 119.471L96.8 119.17C96.8 119.17 98.7 115.51 105.25 117.2C105.25 117.2 107.46 116.36 108.25 118.26C108.25 118.26 111.86 117.49 114.82 120.23L113.586 120.611C111.712 119.772 109.56 120.61 109.56 120.61L109.696 121.813L109.35 121.92L105.25 122.48L104.633 122.238Z" fill="#57A620"/>
<path d="M104.06 115.77C104.06 115.77 106.15 116 107.03 117.16C107.03 117.16 106.19 114.38 105.48 114.17C104.77 113.96 104.05 115.77 104.05 115.77H104.06Z" fill="#57A620"/>
<path d="M112.41 116.76C112.41 116.76 112.45 115.6 108.83 116.59L107.65 117.24C107.65 117.24 111.32 113.91 115.83 115.81C120.33 117.71 112.42 116.76 112.42 116.76H112.41Z" fill="#57A620"/>
<path d="M107.32 117.58C107.32 117.58 108.38 116.14 109.85 116.66C111.32 117.18 112.42 118.45 112.42 118.45C112.42 118.45 109.65 117.36 107.83 118.84L107.32 117.57V117.58Z" fill="#57A620"/>
<path fill-rule="evenodd" clip-rule="evenodd" d="M107.981 110.28C107.982 110.28 107.982 110.28 107.84 111.27L107.981 110.28L108.778 110.924L109.618 113.2C111.157 112.612 112.592 112.533 113.895 112.809C115.463 113.141 116.76 113.968 117.772 114.875C118.785 115.783 119.549 116.802 120.056 117.583C120.236 117.861 120.386 118.111 120.505 118.32C120.626 118.522 120.74 118.738 120.846 118.967C120.847 118.968 120.847 118.969 120.847 118.97L119.198 119.736C119.034 119.812 119.034 119.813 119.034 119.813L119.033 119.81L119.028 119.8C119.022 119.789 119.013 119.769 119 119.743C118.974 119.691 118.933 119.612 118.878 119.51C118.848 119.455 118.814 119.394 118.776 119.327C118.391 118.691 117.943 118.316 117.5 118.09C116.94 117.804 116.307 117.718 115.672 117.755C115.5 117.764 115.332 117.783 115.168 117.808C115.247 117.903 115.322 118 115.392 118.1C115.915 118.838 116.251 119.72 116.471 120.519C116.695 121.327 116.815 122.108 116.881 122.681C116.914 122.969 116.933 123.209 116.945 123.379C116.95 123.464 116.954 123.531 116.956 123.579L116.959 123.635L116.959 123.652L116.959 123.657L116.959 123.659C116.959 123.659 116.96 123.66 115.96 123.69L116.96 123.66L114.996 123.956C114.696 122.871 114.227 122.245 113.754 121.872C113.275 121.494 112.714 121.316 112.14 121.259C111.596 121.205 111.067 121.263 110.65 121.346L111.534 129.137L110.54 130.25H103.91L102.915 129.147L103.851 120.069C103.287 119.492 102.675 119.282 102.047 119.264C101.272 119.241 100.405 119.512 99.5397 119.954C98.6853 120.391 97.9093 120.954 97.3393 121.417C97.0566 121.647 96.8299 121.848 96.6755 121.99C96.5984 122.061 96.5396 122.117 96.5012 122.154C96.482 122.173 96.4679 122.186 96.4592 122.195L96.4494 122.205C96.4495 122.205 96.4491 122.205 96.4484 122.204L94.7399 121.5L94.74 120.78L94.7402 120.758C94.7872 118.607 95.4528 117.016 96.5166 115.892C97.5646 114.784 98.9117 114.221 100.17 113.946C101.046 113.753 101.909 113.694 102.657 113.695L102.049 112.934L102.081 111.647C102.587 111.076 103.255 110.74 103.891 110.537C104.531 110.332 105.203 110.242 105.792 110.207C106.386 110.171 106.927 110.189 107.318 110.215C107.515 110.229 107.676 110.244 107.79 110.257C107.847 110.263 107.893 110.268 107.925 110.273L107.964 110.278L107.975 110.279L107.979 110.28L107.981 110.28ZM104.693 115.878L104.681 115.876C104.668 115.873 104.648 115.869 104.62 115.864C104.563 115.854 104.477 115.839 104.366 115.823C104.142 115.789 103.817 115.749 103.426 115.722C102.636 115.67 101.608 115.678 100.598 115.899C99.587 116.121 98.6547 116.542 97.9693 117.266C97.5335 117.727 97.1602 118.349 96.9422 119.207C97.4383 118.854 98.011 118.489 98.6302 118.173C99.6422 117.656 100.857 117.228 102.106 117.265C103.406 117.303 104.667 117.845 105.675 119.12L105.885 119.842L105.018 128.25H109.42L108.566 120.723L109.197 119.678L109.56 120.61C109.197 119.678 109.198 119.678 109.198 119.678L109.199 119.677L109.202 119.676L109.208 119.674L109.226 119.667C109.241 119.662 109.26 119.655 109.284 119.646C109.332 119.629 109.398 119.607 109.481 119.581C109.645 119.53 109.877 119.465 110.157 119.406C110.712 119.288 111.49 119.185 112.337 119.269C112.881 119.322 113.466 119.455 114.039 119.718C113.953 119.552 113.86 119.397 113.76 119.256C113.432 118.793 113.076 118.545 112.676 118.475L112.391 116.602L112.85 117.49C112.391 116.602 112.39 116.602 112.391 116.602L112.392 116.601L112.395 116.6L112.401 116.597L112.418 116.588C112.432 116.581 112.45 116.572 112.474 116.561C112.52 116.538 112.585 116.508 112.667 116.472C112.829 116.401 113.059 116.306 113.34 116.21C113.897 116.018 114.682 115.808 115.558 115.758C115.595 115.756 115.632 115.754 115.67 115.752C115.012 115.291 114.28 114.935 113.481 114.766C112.375 114.532 111.059 114.637 109.509 115.438L108.112 114.896L107.12 112.207C106.794 112.187 106.368 112.176 105.913 112.203C105.422 112.233 104.928 112.305 104.499 112.442C104.421 112.467 104.348 112.493 104.279 112.521L105.681 114.276L104.694 115.877C104.694 115.878 104.693 115.878 104.693 115.878Z" fill="#1B1B1B"/>
<path d="M114 2C121.72 2 128 8.28 128 16V114C128 121.72 121.72 128 114 128H16C8.28 128 2 121.72 2 114V16C2 8.28 8.28 2 16 2H114ZM114 0H16C7.16 0 0 7.16 0 16V114C0 122.84 7.16 130 16 130H114C122.84 130 130 122.84 130 114V16C130 7.16 122.84 0 114 0Z" fill="#1B1B1B"/>
<path d="M37.5862 14.9993L10.9736 31.034C9.84775 31.7124 9.48498 33.175 10.1633 34.3009L15.7732 43.6114C16.4515 44.7373 17.9142 45.1001 19.04 44.4217L45.6526 28.387C46.7785 27.7086 47.1413 26.246 46.4629 25.1201L40.8531 15.8096C40.1747 14.6837 38.7121 14.3209 37.5862 14.9993Z" fill="#EEEAEF"/>
<path fill-rule="evenodd" clip-rule="evenodd" d="M11.4897 31.8906C10.8369 32.2839 10.6265 33.132 11.0199 33.7848L16.6297 43.0954C17.0231 43.7482 17.8711 43.9585 18.5239 43.5652L45.1366 27.5304C45.7894 27.1371 45.9997 26.289 45.6064 25.6362L39.9965 16.3256C39.6032 15.6728 38.7551 15.4625 38.1023 15.8558L11.4897 31.8906ZM9.30681 34.817C8.34342 33.2181 8.85862 31.1409 10.4575 30.1775L37.0701 14.1428C38.6691 13.1794 40.7462 13.6946 41.7096 15.2935L47.3195 24.604C48.2828 26.203 47.7676 28.2801 46.1687 29.2435L19.5561 45.2783C17.9572 46.2417 15.88 45.7265 14.9166 44.1275L9.30681 34.817Z" fill="#1B1B1B"/>
<path d="M15.25 35.54L14.7 34.63L16.55 33.51L17.1 34.42L15.25 35.54ZM18.15 38.48L15.53 34.13L16.62 33.48L19.24 37.83L18.15 38.48Z" fill="#1B1B1B"/>
<path d="M21.72 36.43C21.36 36.65 20.97 36.75 20.57 36.73C20.17 36.71 19.78 36.58 19.41 36.34C19.04 36.1 18.72 35.76 18.46 35.32C18.2 34.88 18.04 34.44 18 34.01C17.96 33.58 18.03 33.18 18.2 32.82C18.37 32.46 18.64 32.17 19 31.95C19.36 31.73 19.75 31.63 20.16 31.64C20.56 31.66 20.95 31.78 21.31 32.02C21.67 32.26 21.99 32.6 22.26 33.04C22.53 33.48 22.68 33.93 22.73 34.36C22.77 34.79 22.71 35.19 22.53 35.56C22.36 35.92 22.09 36.21 21.73 36.43H21.72ZM21.14 35.48C21.3 35.38 21.42 35.25 21.48 35.08C21.54 34.91 21.54 34.71 21.48 34.48C21.42 34.25 21.31 33.99 21.15 33.71C20.99 33.43 20.81 33.22 20.63 33.06C20.45 32.9 20.27 32.81 20.09 32.79C19.91 32.76 19.74 32.8 19.57 32.9C19.4 33 19.29 33.13 19.23 33.3C19.17 33.47 19.17 33.67 19.22 33.9C19.27 34.13 19.38 34.38 19.55 34.66C19.72 34.94 19.89 35.16 20.07 35.31C20.25 35.47 20.43 35.56 20.61 35.59C20.79 35.62 20.96 35.58 21.13 35.48H21.14Z" fill="#1B1B1B"/>
<path d="M25.84 33.95C25.48 34.17 25.09 34.27 24.69 34.25C24.29 34.23 23.9 34.1 23.53 33.86C23.16 33.62 22.84 33.28 22.58 32.84C22.32 32.4 22.16 31.96 22.12 31.53C22.08 31.1 22.15 30.7 22.32 30.34C22.49 29.98 22.76 29.69 23.12 29.47C23.48 29.25 23.87 29.15 24.28 29.16C24.68 29.18 25.07 29.3 25.43 29.54C25.79 29.78 26.11 30.12 26.38 30.56C26.65 31 26.8 31.45 26.85 31.88C26.89 32.31 26.83 32.71 26.65 33.08C26.48 33.44 26.21 33.73 25.85 33.95H25.84ZM25.26 33C25.42 32.9 25.54 32.77 25.6 32.6C25.66 32.43 25.66 32.23 25.6 32C25.54 31.77 25.43 31.51 25.27 31.23C25.11 30.95 24.93 30.74 24.75 30.58C24.57 30.42 24.39 30.33 24.21 30.31C24.03 30.28 23.86 30.32 23.69 30.42C23.52 30.52 23.41 30.65 23.35 30.82C23.29 30.99 23.29 31.19 23.34 31.42C23.39 31.65 23.5 31.9 23.67 32.18C23.84 32.46 24.01 32.68 24.19 32.83C24.37 32.99 24.55 33.08 24.73 33.11C24.91 33.14 25.08 33.1 25.25 33H25.26Z" fill="#1B1B1B"/>
<path d="M28.5 33.26L28.44 32.11L28.7 31.84C28.7 31.93 28.7 32.01 28.67 32.08C28.65 32.15 28.61 32.2 28.55 32.24C28.42 32.32 28.27 32.33 28.1 32.29C27.93 32.25 27.8 32.14 27.7 31.98C27.59 31.8 27.56 31.62 27.6 31.42C27.64 31.23 27.75 31.07 27.93 30.96C28.09 30.86 28.27 30.84 28.47 30.89C28.67 30.94 28.82 31.05 28.93 31.23C28.97 31.3 29.01 31.4 29.04 31.51C29.07 31.62 29.09 31.78 29.1 31.98L29.15 33.24L28.48 33.27L28.5 33.26Z" fill="#1B1B1B"/>
<path d="M31.52 30.52C31.16 30.74 30.77 30.84 30.37 30.82C29.97 30.8 29.58 30.67 29.21 30.43C28.84 30.19 28.52 29.85 28.26 29.41C28 28.97 27.84 28.53 27.8 28.1C27.76 27.67 27.83 27.27 28 26.91C28.17 26.55 28.44 26.26 28.8 26.04C29.16 25.82 29.55 25.72 29.96 25.73C30.36 25.75 30.75 25.87 31.11 26.11C31.47 26.35 31.79 26.69 32.06 27.13C32.33 27.57 32.48 28.02 32.53 28.45C32.57 28.88 32.51 29.28 32.33 29.65C32.16 30.01 31.89 30.3 31.53 30.52H31.52ZM30.94 29.57C31.1 29.47 31.22 29.34 31.28 29.17C31.34 29 31.34 28.8 31.28 28.57C31.22 28.34 31.11 28.08 30.95 27.8C30.79 27.52 30.61 27.31 30.43 27.15C30.25 26.99 30.07 26.9 29.89 26.88C29.71 26.85 29.54 26.89 29.37 26.99C29.2 27.09 29.09 27.22 29.03 27.39C28.97 27.56 28.97 27.76 29.02 27.99C29.07 28.22 29.18 28.47 29.35 28.75C29.52 29.03 29.69 29.25 29.87 29.4C30.05 29.56 30.23 29.65 30.41 29.68C30.59 29.71 30.76 29.67 30.93 29.57H30.94Z" fill="#1B1B1B"/>
<path d="M35.64 28.04C35.28 28.26 34.89 28.36 34.49 28.34C34.09 28.32 33.7 28.19 33.33 27.95C32.96 27.71 32.64 27.37 32.38 26.93C32.12 26.49 31.96 26.05 31.92 25.62C31.88 25.19 31.95 24.79 32.12 24.43C32.29 24.07 32.56 23.78 32.92 23.56C33.28 23.34 33.67 23.24 34.08 23.25C34.48 23.27 34.87 23.39 35.23 23.63C35.59 23.87 35.91 24.21 36.18 24.65C36.45 25.09 36.6 25.54 36.65 25.97C36.69 26.4 36.63 26.8 36.45 27.17C36.28 27.53 36.01 27.82 35.65 28.04H35.64ZM35.06 27.09C35.22 26.99 35.34 26.86 35.4 26.69C35.46 26.52 35.46 26.32 35.4 26.09C35.34 25.86 35.23 25.6 35.07 25.32C34.91 25.04 34.73 24.83 34.55 24.67C34.37 24.51 34.19 24.42 34.01 24.4C33.83 24.37 33.66 24.41 33.49 24.51C33.32 24.61 33.21 24.74 33.15 24.91C33.09 25.08 33.09 25.28 33.14 25.51C33.19 25.74 33.3 25.99 33.47 26.27C33.64 26.55 33.81 26.77 33.99 26.92C34.17 27.08 34.35 27.17 34.53 27.2C34.71 27.23 34.88 27.19 35.05 27.09H35.06Z" fill="#1B1B1B"/>
<path d="M39.76 25.56C39.4 25.78 39.01 25.88 38.61 25.86C38.21 25.84 37.82 25.71 37.45 25.47C37.08 25.23 36.76 24.89 36.5 24.45C36.24 24.01 36.08 23.57 36.04 23.14C36 22.71 36.07 22.31 36.24 21.95C36.41 21.59 36.68 21.3 37.04 21.08C37.4 20.86 37.79 20.76 38.2 20.77C38.6 20.79 38.99 20.91 39.35 21.15C39.71 21.39 40.03 21.73 40.3 22.17C40.57 22.61 40.72 23.06 40.77 23.49C40.81 23.92 40.75 24.32 40.57 24.69C40.4 25.05 40.13 25.34 39.77 25.56H39.76ZM39.18 24.61C39.34 24.51 39.46 24.38 39.52 24.21C39.58 24.04 39.58 23.84 39.52 23.61C39.46 23.38 39.35 23.12 39.19 22.84C39.03 22.56 38.85 22.35 38.67 22.19C38.49 22.03 38.31 21.94 38.13 21.92C37.95 21.89 37.78 21.93 37.61 22.03C37.44 22.13 37.33 22.26 37.27 22.43C37.21 22.6 37.21 22.8 37.26 23.03C37.31 23.26 37.42 23.51 37.59 23.79C37.76 24.07 37.93 24.29 38.11 24.44C38.29 24.6 38.47 24.69 38.65 24.72C38.83 24.75 39 24.71 39.17 24.61H39.18Z" fill="#1B1B1B"/>
<path d="M53.6608 14.9958L27.0482 31.0306C25.9223 31.7089 25.5596 33.1715 26.2379 34.2974L31.8478 43.608C32.5261 44.7338 33.9887 45.0966 35.1146 44.4182L61.7272 28.3835C62.8531 27.7051 63.2159 26.2425 62.5375 25.1166L56.9277 15.8061C56.2493 14.6802 54.7867 14.3174 53.6608 14.9958Z" fill="#EEEAEF"/>
<path fill-rule="evenodd" clip-rule="evenodd" d="M27.5643 31.8871C26.9115 32.2804 26.7011 33.1285 27.0945 33.7813L32.7043 43.0919C33.0976 43.7447 33.9457 43.955 34.5985 43.5617L61.2111 27.527C61.864 27.1336 62.0743 26.2855 61.681 25.6327L56.0711 16.3222C55.6778 15.6694 54.8297 15.459 54.1769 15.8523L27.5643 31.8871ZM25.3814 34.8135C24.418 33.2146 24.9332 31.1374 26.5321 30.174L53.1447 14.1393C54.7437 13.1759 56.8208 13.6911 57.7842 15.29L63.394 24.6006C64.3574 26.1995 63.8422 28.2766 62.2433 29.24L35.6307 45.2748C34.0318 46.2382 31.9546 45.723 30.9912 44.1241L25.3814 34.8135Z" fill="#1B1B1B"/>
<path d="M31.32 35.54L30.77 34.63L32.62 33.51L33.17 34.42L31.32 35.54ZM34.22 38.48L31.6 34.13L32.69 33.48L35.31 37.83L34.22 38.48Z" fill="#1B1B1B"/>
<path d="M37.79 36.43C37.43 36.65 37.04 36.75 36.64 36.73C36.24 36.71 35.85 36.58 35.48 36.34C35.11 36.1 34.79 35.76 34.53 35.32C34.27 34.88 34.11 34.44 34.07 34.01C34.03 33.58 34.1 33.18 34.27 32.82C34.44 32.46 34.71 32.17 35.07 31.95C35.43 31.73 35.82 31.63 36.23 31.64C36.63 31.66 37.02 31.78 37.38 32.02C37.74 32.26 38.06 32.6 38.33 33.04C38.6 33.48 38.75 33.93 38.8 34.36C38.84 34.79 38.78 35.19 38.6 35.56C38.43 35.92 38.16 36.21 37.8 36.43H37.79ZM37.21 35.48C37.37 35.38 37.49 35.25 37.55 35.08C37.61 34.91 37.61 34.71 37.55 34.48C37.49 34.25 37.38 33.99 37.22 33.71C37.06 33.43 36.88 33.22 36.7 33.06C36.52 32.9 36.34 32.81 36.16 32.79C35.98 32.76 35.81 32.8 35.64 32.9C35.47 33 35.36 33.13 35.3 33.3C35.24 33.47 35.24 33.67 35.29 33.9C35.34 34.13 35.45 34.38 35.62 34.66C35.79 34.94 35.96 35.16 36.14 35.31C36.32 35.47 36.5 35.56 36.68 35.59C36.86 35.62 37.03 35.58 37.2 35.48H37.21Z" fill="#1B1B1B"/>
<path d="M41.91 33.95C41.55 34.17 41.16 34.27 40.76 34.25C40.36 34.23 39.97 34.1 39.6 33.86C39.23 33.62 38.91 33.28 38.65 32.84C38.39 32.4 38.23 31.96 38.19 31.53C38.15 31.1 38.22 30.7 38.39 30.34C38.56 29.98 38.83 29.69 39.19 29.47C39.55 29.25 39.94 29.15 40.35 29.16C40.75 29.18 41.14 29.3 41.5 29.54C41.86 29.78 42.18 30.12 42.45 30.56C42.72 31 42.87 31.45 42.92 31.88C42.96 32.31 42.9 32.71 42.72 33.08C42.55 33.44 42.28 33.73 41.92 33.95H41.91ZM41.33 33C41.49 32.9 41.61 32.77 41.67 32.6C41.73 32.43 41.73 32.23 41.67 32C41.61 31.77 41.5 31.51 41.34 31.23C41.18 30.95 41 30.74 40.82 30.58C40.64 30.42 40.46 30.33 40.28 30.31C40.1 30.28 39.93 30.32 39.76 30.42C39.59 30.52 39.48 30.65 39.42 30.82C39.36 30.99 39.36 31.19 39.41 31.42C39.46 31.65 39.57 31.9 39.74 32.18C39.91 32.46 40.08 32.68 40.26 32.83C40.44 32.99 40.62 33.08 40.8 33.11C40.98 33.14 41.15 33.1 41.32 33H41.33Z" fill="#1B1B1B"/>
<path d="M44.57 33.26L44.51 32.11L44.77 31.84C44.77 31.93 44.77 32.01 44.74 32.08C44.72 32.15 44.68 32.2 44.62 32.24C44.49 32.32 44.34 32.33 44.17 32.29C44 32.25 43.87 32.14 43.77 31.98C43.66 31.8 43.63 31.62 43.67 31.42C43.71 31.23 43.82 31.07 44 30.96C44.16 30.86 44.34 30.84 44.54 30.89C44.74 30.94 44.89 31.05 45 31.23C45.04 31.3 45.08 31.4 45.11 31.51C45.14 31.62 45.16 31.78 45.17 31.98L45.22 33.24L44.55 33.27L44.57 33.26Z" fill="#1B1B1B"/>
<path d="M47.59 30.52C47.23 30.74 46.84 30.84 46.44 30.82C46.04 30.8 45.65 30.67 45.28 30.43C44.91 30.19 44.59 29.85 44.33 29.41C44.07 28.97 43.91 28.53 43.87 28.1C43.83 27.67 43.9 27.27 44.07 26.91C44.24 26.55 44.51 26.26 44.87 26.04C45.23 25.82 45.62 25.72 46.03 25.73C46.43 25.75 46.82 25.87 47.18 26.11C47.54 26.35 47.86 26.69 48.13 27.13C48.4 27.57 48.55 28.02 48.6 28.45C48.64 28.88 48.58 29.28 48.4 29.65C48.23 30.01 47.96 30.3 47.6 30.52H47.59ZM47.01 29.57C47.17 29.47 47.29 29.34 47.35 29.17C47.41 29 47.41 28.8 47.35 28.57C47.29 28.34 47.18 28.08 47.02 27.8C46.86 27.52 46.68 27.31 46.5 27.15C46.32 26.99 46.14 26.9 45.96 26.88C45.78 26.85 45.61 26.89 45.44 26.99C45.27 27.09 45.16 27.22 45.1 27.39C45.04 27.56 45.04 27.76 45.09 27.99C45.14 28.22 45.25 28.47 45.42 28.75C45.59 29.03 45.76 29.25 45.94 29.4C46.12 29.56 46.3 29.65 46.48 29.68C46.66 29.71 46.83 29.67 47 29.57H47.01Z" fill="#1B1B1B"/>
<path d="M51.71 28.04C51.35 28.26 50.96 28.36 50.56 28.34C50.16 28.32 49.77 28.19 49.4 27.95C49.03 27.71 48.71 27.37 48.45 26.93C48.19 26.49 48.03 26.05 47.99 25.62C47.95 25.19 48.02 24.79 48.19 24.43C48.36 24.07 48.63 23.78 48.99 23.56C49.35 23.34 49.74 23.24 50.15 23.25C50.55 23.27 50.94 23.39 51.3 23.63C51.66 23.87 51.98 24.21 52.25 24.65C52.52 25.09 52.67 25.54 52.72 25.97C52.76 26.4 52.7 26.8 52.52 27.17C52.35 27.53 52.08 27.82 51.72 28.04H51.71ZM51.13 27.09C51.29 26.99 51.41 26.86 51.47 26.69C51.53 26.52 51.53 26.32 51.47 26.09C51.41 25.86 51.3 25.6 51.14 25.32C50.98 25.04 50.8 24.83 50.62 24.67C50.44 24.51 50.26 24.42 50.08 24.4C49.9 24.37 49.73 24.41 49.56 24.51C49.39 24.61 49.28 24.74 49.22 24.91C49.16 25.08 49.16 25.28 49.21 25.51C49.26 25.74 49.37 25.99 49.54 26.27C49.71 26.55 49.88 26.77 50.06 26.92C50.24 27.08 50.42 27.17 50.6 27.2C50.78 27.23 50.95 27.19 51.12 27.09H51.13Z" fill="#1B1B1B"/>
<path d="M55.83 25.56C55.47 25.78 55.08 25.88 54.68 25.86C54.28 25.84 53.89 25.71 53.52 25.47C53.15 25.23 52.83 24.89 52.57 24.45C52.31 24.01 52.15 23.57 52.11 23.14C52.07 22.71 52.14 22.31 52.31 21.95C52.48 21.59 52.75 21.3 53.11 21.08C53.47 20.86 53.86 20.76 54.27 20.77C54.67 20.79 55.06 20.91 55.42 21.15C55.78 21.39 56.1 21.73 56.37 22.17C56.64 22.61 56.79 23.06 56.84 23.49C56.88 23.92 56.82 24.32 56.64 24.69C56.47 25.05 56.2 25.34 55.84 25.56H55.83ZM55.25 24.61C55.41 24.51 55.53 24.38 55.59 24.21C55.65 24.04 55.65 23.84 55.59 23.61C55.53 23.38 55.42 23.12 55.26 22.84C55.1 22.56 54.92 22.35 54.74 22.19C54.56 22.03 54.38 21.94 54.2 21.92C54.02 21.89 53.85 21.93 53.68 22.03C53.51 22.13 53.4 22.26 53.34 22.43C53.28 22.6 53.28 22.8 53.33 23.03C53.38 23.26 53.49 23.51 53.66 23.79C53.83 24.07 54 24.29 54.18 24.44C54.36 24.6 54.54 24.69 54.72 24.72C54.9 24.75 55.07 24.71 55.24 24.61H55.25Z" fill="#1B1B1B"/>
<path d="M71.5442 14.993L44.9316 31.0278C43.8058 31.7062 43.443 33.1688 44.1213 34.2946L49.7312 43.6052C50.4096 44.7311 51.8722 45.0938 52.998 44.4155L79.6106 28.3807C80.7365 27.7024 81.0993 26.2397 80.4209 25.1139L74.8111 15.8033C74.1327 14.6774 72.6701 14.3147 71.5442 14.993Z" fill="#EEEAEF"/>
<path fill-rule="evenodd" clip-rule="evenodd" d="M45.4478 31.8843C44.795 32.2777 44.5846 33.1257 44.978 33.7785L50.5878 43.0891C50.9811 43.7419 51.8292 43.9523 52.482 43.5589L79.0946 27.5242C79.7474 27.1308 79.9578 26.2828 79.5645 25.63L73.9546 16.3194C73.5613 15.6666 72.7132 15.4562 72.0604 15.8496L45.4478 31.8843ZM43.2649 34.8107C42.3015 33.2118 42.8167 31.1346 44.4156 30.1713L71.0282 14.1365C72.6271 13.1731 74.7043 13.6883 75.6677 15.2872L81.2775 24.5978C82.2409 26.1967 81.7257 28.2739 80.1268 29.2373L53.5142 45.272C51.9153 46.2354 49.8381 45.7202 48.8747 44.1213L43.2649 34.8107Z" fill="#1B1B1B"/>
<path d="M49.1999 35.54L48.6499 34.63L50.4999 33.51L51.0499 34.42L49.1999 35.54ZM52.0999 38.48L49.4799 34.13L50.5699 33.48L53.1899 37.83L52.0999 38.48Z" fill="#1B1B1B"/>
<path d="M55.6802 36.43C55.3202 36.65 54.9302 36.75 54.5302 36.73C54.1302 36.71 53.7402 36.58 53.3702 36.34C53.0002 36.1 52.6802 35.76 52.4202 35.32C52.1602 34.88 52.0002 34.44 51.9602 34.01C51.9202 33.58 51.9902 33.18 52.1602 32.82C52.3302 32.46 52.6002 32.17 52.9602 31.95C53.3202 31.73 53.7102 31.63 54.1202 31.64C54.5202 31.66 54.9102 31.78 55.2702 32.02C55.6302 32.26 55.9502 32.6 56.2202 33.04C56.4902 33.48 56.6402 33.93 56.6902 34.36C56.7302 34.79 56.6702 35.19 56.4902 35.56C56.3202 35.92 56.0502 36.21 55.6902 36.43H55.6802ZM55.1002 35.48C55.2602 35.38 55.3802 35.25 55.4402 35.08C55.5002 34.91 55.5002 34.71 55.4402 34.48C55.3802 34.25 55.2702 33.99 55.1102 33.71C54.9502 33.43 54.7702 33.22 54.5902 33.06C54.4102 32.9 54.2302 32.81 54.0502 32.79C53.8702 32.76 53.7002 32.8 53.5302 32.9C53.3602 33 53.2502 33.13 53.1902 33.3C53.1302 33.47 53.1302 33.67 53.1802 33.9C53.2302 34.13 53.3402 34.38 53.5102 34.66C53.6802 34.94 53.8502 35.16 54.0302 35.31C54.2102 35.47 54.3902 35.56 54.5702 35.59C54.7502 35.62 54.9202 35.58 55.0902 35.48H55.1002Z" fill="#1B1B1B"/>
<path d="M59.7901 33.95C59.4301 34.17 59.0401 34.27 58.6401 34.25C58.2401 34.23 57.8501 34.1 57.4801 33.86C57.1101 33.62 56.7901 33.28 56.5301 32.84C56.2701 32.4 56.1101 31.96 56.0701 31.53C56.0301 31.1 56.1001 30.7 56.2701 30.34C56.4401 29.98 56.7101 29.69 57.0701 29.47C57.4301 29.25 57.8201 29.15 58.2301 29.16C58.6301 29.18 59.0201 29.3 59.3801 29.54C59.7401 29.78 60.0601 30.12 60.3301 30.56C60.6001 31 60.7501 31.45 60.8001 31.88C60.8401 32.31 60.7801 32.71 60.6001 33.08C60.4301 33.44 60.1601 33.73 59.8001 33.95H59.7901ZM59.2101 33C59.3701 32.9 59.4901 32.77 59.5501 32.6C59.6101 32.43 59.6101 32.23 59.5501 32C59.4901 31.77 59.3801 31.51 59.2201 31.23C59.0601 30.95 58.8801 30.74 58.7001 30.58C58.5201 30.42 58.3401 30.33 58.1601 30.31C57.9801 30.28 57.8101 30.32 57.6401 30.42C57.4701 30.52 57.3601 30.65 57.3001 30.82C57.2401 30.99 57.2401 31.19 57.2901 31.42C57.3401 31.65 57.4501 31.9 57.6201 32.18C57.7901 32.46 57.9601 32.68 58.1401 32.83C58.3201 32.99 58.5001 33.08 58.6801 33.11C58.8601 33.14 59.0301 33.1 59.2001 33H59.2101Z" fill="#1B1B1B"/>
<path d="M62.4501 33.26L62.3901 32.11L62.6501 31.84C62.6501 31.93 62.6501 32.01 62.6201 32.08C62.6001 32.15 62.5601 32.2 62.5001 32.24C62.3701 32.32 62.2201 32.33 62.0501 32.29C61.8801 32.25 61.7501 32.14 61.6501 31.98C61.5401 31.8 61.5101 31.62 61.5501 31.42C61.5901 31.23 61.7001 31.07 61.8801 30.96C62.0401 30.86 62.2201 30.84 62.4201 30.89C62.6201 30.94 62.7701 31.05 62.8801 31.23C62.9201 31.3 62.9601 31.4 62.9901 31.51C63.0201 31.62 63.0401 31.78 63.0501 31.98L63.1001 33.24L62.4301 33.27L62.4501 33.26Z" fill="#1B1B1B"/>
<path d="M65.4702 30.52C65.1102 30.74 64.7202 30.84 64.3202 30.82C63.9202 30.8 63.5302 30.67 63.1602 30.43C62.7902 30.19 62.4702 29.85 62.2102 29.41C61.9502 28.97 61.7902 28.53 61.7502 28.1C61.7102 27.67 61.7802 27.27 61.9502 26.91C62.1202 26.55 62.3902 26.26 62.7502 26.04C63.1102 25.82 63.5002 25.72 63.9102 25.73C64.3102 25.75 64.7002 25.87 65.0602 26.11C65.4202 26.35 65.7402 26.69 66.0102 27.13C66.2802 27.57 66.4302 28.02 66.4802 28.45C66.5202 28.88 66.4602 29.28 66.2802 29.65C66.1102 30.01 65.8402 30.3 65.4802 30.52H65.4702ZM64.8902 29.57C65.0502 29.47 65.1702 29.34 65.2302 29.17C65.2902 29 65.2902 28.8 65.2302 28.57C65.1702 28.34 65.0602 28.08 64.9002 27.8C64.7402 27.52 64.5602 27.31 64.3802 27.15C64.2002 26.99 64.0202 26.9 63.8402 26.88C63.6602 26.85 63.4902 26.89 63.3202 26.99C63.1502 27.09 63.0402 27.22 62.9802 27.39C62.9202 27.56 62.9202 27.76 62.9702 27.99C63.0202 28.22 63.1302 28.47 63.3002 28.75C63.4702 29.03 63.6402 29.25 63.8202 29.4C64.0002 29.56 64.1802 29.65 64.3602 29.68C64.5402 29.71 64.7102 29.67 64.8802 29.57H64.8902Z" fill="#1B1B1B"/>
<path d="M69.5899 28.04C69.2299 28.26 68.8399 28.36 68.4399 28.34C68.0399 28.32 67.6499 28.19 67.2799 27.95C66.9099 27.71 66.5899 27.37 66.3299 26.93C66.0699 26.49 65.9099 26.05 65.8699 25.62C65.8299 25.19 65.8999 24.79 66.0699 24.43C66.2399 24.07 66.5099 23.78 66.8699 23.56C67.2299 23.34 67.6199 23.24 68.0299 23.25C68.4299 23.27 68.8199 23.39 69.1799 23.63C69.5399 23.87 69.8599 24.21 70.1299 24.65C70.3999 25.09 70.5499 25.54 70.5999 25.97C70.6399 26.4 70.5799 26.8 70.3999 27.17C70.2299 27.53 69.9599 27.82 69.5999 28.04H69.5899ZM69.0099 27.09C69.1699 26.99 69.2899 26.86 69.3499 26.69C69.4099 26.52 69.4099 26.32 69.3499 26.09C69.2899 25.86 69.1799 25.6 69.0199 25.32C68.8599 25.04 68.6799 24.83 68.4999 24.67C68.3199 24.51 68.1399 24.42 67.9599 24.4C67.7799 24.37 67.6099 24.41 67.4399 24.51C67.2699 24.61 67.1599 24.74 67.0999 24.91C67.0399 25.08 67.0399 25.28 67.0899 25.51C67.1399 25.74 67.2499 25.99 67.4199 26.27C67.5899 26.55 67.7599 26.77 67.9399 26.92C68.1199 27.08 68.2999 27.17 68.4799 27.2C68.6599 27.23 68.8299 27.19 68.9999 27.09H69.0099Z" fill="#1B1B1B"/>
<path d="M73.71 25.56C73.35 25.78 72.96 25.88 72.56 25.86C72.16 25.84 71.77 25.71 71.4 25.47C71.03 25.23 70.71 24.89 70.45 24.45C70.19 24.01 70.03 23.57 69.99 23.14C69.95 22.71 70.02 22.31 70.19 21.95C70.36 21.59 70.63 21.3 70.99 21.08C71.35 20.86 71.74 20.76 72.15 20.77C72.55 20.79 72.94 20.91 73.3 21.15C73.66 21.39 73.98 21.73 74.25 22.17C74.52 22.61 74.67 23.06 74.72 23.49C74.76 23.92 74.7 24.32 74.52 24.69C74.35 25.05 74.08 25.34 73.72 25.56H73.71ZM73.13 24.61C73.29 24.51 73.41 24.38 73.47 24.21C73.53 24.04 73.53 23.84 73.47 23.61C73.41 23.38 73.3 23.12 73.14 22.84C72.98 22.56 72.8 22.35 72.62 22.19C72.44 22.03 72.26 21.94 72.08 21.92C71.9 21.89 71.73 21.93 71.56 22.03C71.39 22.13 71.28 22.26 71.22 22.43C71.16 22.6 71.16 22.8 71.21 23.03C71.26 23.26 71.37 23.51 71.54 23.79C71.71 24.07 71.88 24.29 72.06 24.44C72.24 24.6 72.42 24.69 72.6 24.72C72.78 24.75 72.95 24.71 73.12 24.61H73.13Z" fill="#1B1B1B"/>
<path d="M97.6899 39.69L92.0699 42.68L83.6899 39.72L89.3099 36.72L97.6899 39.69Z" fill="white"/>
<path fill-rule="evenodd" clip-rule="evenodd" d="M88.8392 35.8378L89.6442 35.7774L98.0242 38.7474L98.1598 40.5728L92.5398 43.5628L91.7371 43.6229L83.3571 40.6629L83.2192 38.8378L88.8392 35.8378ZM89.3919 37.8099L86.1637 39.5331L91.9886 41.5906L95.2155 39.8738L89.3919 37.8099Z" fill="#1B1B1B"/>
<path d="M99.9299 43.88L94.3099 46.88L92.1099 55.49L97.7199 52.49L99.9299 43.88Z" fill="white"/>
<path fill-rule="evenodd" clip-rule="evenodd" d="M93.8391 45.9978L99.4591 42.9978L100.899 44.1286L98.6886 52.7386L98.1916 53.3718L92.5816 56.3718L91.1411 55.2424L93.3411 46.6324L93.8391 45.9978ZM95.1697 47.5546L93.6411 53.5372L96.8607 51.8155L98.3965 45.8321L95.1697 47.5546Z" fill="#1B1B1B"/>
<path d="M133.76 26.64L102.35 43.4C100.77 44.24 90.7999 47.92 89.9599 46.34C89.1199 44.76 97.7299 38.53 99.2999 37.68L130.71 20.92C132.29 20.08 136.01 19.73 136.86 21.31C137.7 22.89 135.34 25.79 133.76 26.63V26.64Z" fill="white"/>
<path fill-rule="evenodd" clip-rule="evenodd" d="M131.18 21.803C131.179 21.8031 131.18 21.8029 131.18 21.803L99.7762 38.5594C99.7754 38.5598 99.7745 38.5603 99.7737 38.5608C99.0712 38.942 96.5886 40.6612 94.3648 42.5059C93.2564 43.4254 92.2588 44.3382 91.5985 45.0965C91.3839 45.3429 91.2214 45.5546 91.1056 45.7296C91.3148 45.7309 91.5801 45.7139 91.9031 45.6732C92.8998 45.5474 94.2131 45.2274 95.5937 44.8186C98.3674 43.9975 101.178 42.8904 101.88 42.5174C101.88 42.5173 101.88 42.5175 101.88 42.5174L132.76 26.0401V26.0291L133.291 25.747C133.899 25.4234 134.77 24.6202 135.385 23.6942C135.687 23.2396 135.891 22.8078 135.983 22.4453C136.074 22.082 136.031 21.8822 135.978 21.7815C135.923 21.6797 135.779 21.5322 135.426 21.406C135.074 21.28 134.601 21.2097 134.055 21.2075C132.944 21.203 131.79 21.4785 131.18 21.803ZM90.6562 45.6778C90.6566 45.6775 90.662 45.6793 90.6711 45.6839C90.6602 45.6803 90.6557 45.6781 90.6562 45.6778ZM90.9016 46.116C90.9004 46.126 90.8988 46.1314 90.8984 46.1317C90.8979 46.1319 90.8985 46.1269 90.9016 46.116ZM136.099 19.5227C136.73 19.7481 137.371 20.1481 137.741 20.8362L137.743 20.8406C138.11 21.5305 138.085 22.2855 137.922 22.934C137.758 23.586 137.431 24.2279 137.051 24.8008C136.435 25.728 135.583 26.6131 134.76 27.186V27.2399L102.82 44.283C101.94 44.7503 98.9769 45.9028 96.1615 46.7363C94.7471 47.1551 93.3116 47.5113 92.1534 47.6574C91.5809 47.7297 91.016 47.7589 90.5327 47.6924C90.1064 47.6338 89.4209 47.456 89.0771 46.8094C88.7338 46.1637 88.9685 45.4962 89.1576 45.1097C89.3719 44.6715 89.711 44.2186 90.0902 43.7832C90.8571 42.9024 91.9526 41.9083 93.0879 40.9666C95.3489 39.091 97.953 37.2721 98.824 36.8006L98.8293 36.7977L130.241 20.037C131.21 19.5216 132.707 19.202 134.063 19.2075C134.751 19.2103 135.466 19.2963 136.099 19.5227Z" fill="#1B1B1B"/>
<path d="M122.44 25.34L109.4 32.3L94.7798 21.89L100.76 18.69L122.44 25.34Z" fill="white"/>
<path fill-rule="evenodd" clip-rule="evenodd" d="M100.288 17.8083L101.053 17.734L122.733 24.384L122.911 26.2222L109.871 33.1822L108.82 33.1146L94.2002 22.7046L94.3084 21.0083L100.288 17.8083ZM100.865 19.7681L96.6739 22.0108L109.476 31.1262L119.847 25.5906L100.865 19.7681Z" fill="#1B1B1B"/>
<path d="M125.61 31.27L112.56 38.22L113.07 56.17L119.06 52.98L125.61 31.27Z" fill="white"/>
<path fill-rule="evenodd" clip-rule="evenodd" d="M112.09 37.3374L125.14 30.3874L126.568 31.5588L120.018 53.2688L119.53 53.8626L113.54 57.0526L112.071 56.1984L111.561 38.2484L112.09 37.3374ZM113.577 38.8112L114.024 54.5291L118.223 52.2929L123.958 33.2826L113.577 38.8112Z" fill="#1B1B1B"/>
<path d="M113.539 21.8694L108.589 24.5101C107.829 24.9156 107.542 25.8606 107.947 26.6208L108.088 26.8854C108.494 27.6456 109.439 27.9331 110.199 27.5275L115.149 24.8869C115.909 24.4813 116.196 23.5364 115.791 22.7762L115.65 22.5115C115.244 21.7514 114.299 21.4639 113.539 21.8694Z" fill="white"/>
<path fill-rule="evenodd" clip-rule="evenodd" d="M109.06 25.3924C108.787 25.538 108.684 25.8772 108.829 26.1501L108.971 26.4147C109.116 26.6876 109.455 26.7908 109.728 26.6452L114.678 24.0046C114.951 23.859 115.054 23.5198 114.908 23.2469L114.767 22.9822C114.622 22.7093 114.282 22.6061 114.01 22.7517L109.06 25.3924ZM107.065 27.0915C106.399 25.844 106.871 24.2933 108.119 23.6278L113.068 20.9871C114.316 20.3216 115.866 20.7934 116.532 22.0408L116.673 22.3055C117.339 23.5529 116.867 25.1037 115.619 25.7692L110.67 28.4098C109.422 29.0753 107.872 28.6036 107.206 27.3561L107.065 27.0915Z" fill="#1B1B1B"/>
<path d="M121.615 37.014L116.665 39.6547C115.905 40.0602 115.617 41.0052 116.023 41.7654L116.164 42.03C116.57 42.7902 117.515 43.0777 118.275 42.6721L123.224 40.0315C123.985 39.6259 124.272 38.6809 123.866 37.9208L123.725 37.6561C123.32 36.896 122.375 36.6085 121.615 37.014Z" fill="white"/>
<path fill-rule="evenodd" clip-rule="evenodd" d="M117.136 40.5369C116.863 40.6825 116.76 41.0217 116.905 41.2946L117.046 41.5593C117.192 41.8322 117.531 41.9354 117.804 41.7898L122.754 39.1491C123.027 39.0036 123.13 38.6643 122.984 38.3915L122.843 38.1268C122.697 37.8539 122.358 37.7507 122.085 37.8963L117.136 40.5369ZM115.141 42.236C114.475 40.9886 114.947 39.4379 116.194 38.7724L121.144 36.1317C122.391 35.4662 123.942 35.9379 124.608 37.1854L124.749 37.4501C125.414 38.6975 124.943 40.2482 123.695 40.9137L118.745 43.5544C117.498 44.2199 115.947 43.7481 115.282 42.5007L115.141 42.236Z" fill="#1B1B1B"/>
<path d="M122.306 43.6583L119.448 45.1834C118.688 45.5889 118.4 46.5339 118.806 47.294L118.947 47.5587C119.352 48.3189 120.297 48.6063 121.057 48.2008L123.916 46.6757C124.676 46.2702 124.964 45.3252 124.558 44.565L124.417 44.3004C124.011 43.5402 123.066 43.2527 122.306 43.6583Z" fill="white"/>
<path fill-rule="evenodd" clip-rule="evenodd" d="M119.918 46.0657C119.645 46.2113 119.542 46.5505 119.688 46.8234L119.829 47.088C119.975 47.3609 120.314 47.4641 120.587 47.3185L123.445 45.7935C123.718 45.6479 123.821 45.3087 123.676 45.0358L123.535 44.7711C123.389 44.4982 123.05 44.395 122.777 44.5406L119.918 46.0657ZM117.923 47.7648C117.258 46.5173 117.729 44.9666 118.977 44.3011L121.836 42.776C123.083 42.1105 124.634 42.5823 125.299 43.8297L125.44 44.0944C126.106 45.3418 125.634 46.8925 124.387 47.558L121.528 49.0831C120.281 49.7486 118.73 49.2769 118.064 48.0295L117.923 47.7648Z" fill="#1B1B1B"/>
<path d="M108.354 17.5115L105.496 19.0366C104.735 19.4421 104.448 20.3871 104.853 21.1473L104.995 21.412C105.4 22.1721 106.345 22.4596 107.105 22.054L109.964 20.529C110.724 20.1234 111.012 19.1784 110.606 18.4183L110.465 18.1536C110.059 17.3935 109.114 17.106 108.354 17.5115Z" fill="white"/>
<path fill-rule="evenodd" clip-rule="evenodd" d="M105.966 19.9189C105.693 20.0645 105.59 20.4037 105.736 20.6766L105.877 20.9413C106.022 21.2141 106.362 21.3173 106.635 21.1717L109.493 19.6467C109.766 19.5011 109.869 19.1619 109.724 18.889L109.582 18.6243C109.437 18.3514 109.098 18.2482 108.825 18.3938L105.966 19.9189ZM103.971 21.618C103.306 20.3706 103.777 18.8198 105.025 18.1543L107.883 16.6292C109.131 15.9637 110.682 16.4355 111.347 17.6829L111.488 17.9476C112.154 19.195 111.682 20.7457 110.435 21.4113L107.576 22.9363C106.329 23.6018 104.778 23.1301 104.112 21.8827L103.971 21.618Z" fill="#1B1B1B"/>
<path d="M139.44 82.72C139.44 79.57 136.8 76.86 132.99 75.56C133.03 75.29 133.05 75.02 133.05 74.74C133.05 70.34 128.18 66.77 122.17 66.77C116.16 66.77 111.29 70.34 111.29 74.74C111.29 74.77 111.29 74.79 111.29 74.82C110.79 74.77 110.29 74.74 109.77 74.74C103.42 74.74 98.27 78.31 98.27 82.71C98.27 83.99 98.72 85.2 99.49 86.28H138.2C138.98 85.21 139.42 84 139.42 82.71L139.44 82.72Z" fill="white"/>
<path fill-rule="evenodd" clip-rule="evenodd" d="M113.885 68.2984C116.043 66.7176 118.975 65.77 122.17 65.77C125.365 65.77 128.297 66.7176 130.455 68.2984C132.612 69.8786 134.05 72.1445 134.05 74.74C134.05 74.7891 134.049 74.838 134.048 74.8866C137.696 76.3536 140.44 79.1915 140.44 82.72L140.42 82.7324C140.415 84.2518 139.892 85.6565 139.008 86.8691L138.2 87.28H99.49L98.6758 86.8605C97.8073 85.6425 97.27 84.2336 97.27 82.71C97.27 80.0894 98.8047 77.8226 101.069 76.2531C103.338 74.6809 106.417 73.74 109.77 73.74C109.97 73.74 110.166 73.7441 110.36 73.7518C110.673 71.5707 112.007 69.6746 113.885 68.2984ZM138.44 82.6977C138.427 80.1678 136.269 77.7354 132.667 76.5064L132.001 75.4135C132.034 75.1924 132.05 74.9713 132.05 74.74C132.05 72.9356 131.053 71.2164 129.273 69.9117C127.493 68.6074 124.985 67.77 122.17 67.77C119.355 67.77 116.847 68.6074 115.067 69.9117C113.287 71.2164 112.29 72.9356 112.29 74.74V74.8198L111.191 75.8151C110.717 75.7677 110.251 75.74 109.77 75.74C106.773 75.74 104.102 76.5841 102.208 77.8969C100.31 79.2124 99.27 80.9306 99.27 82.71C99.27 83.5942 99.534 84.4599 100.028 85.28H137.667C138.161 84.473 138.42 83.6077 138.42 82.71L138.44 82.6977Z" fill="#1B1B1B"/>
<path d="M171.64 55.32C171.64 50.56 165.63 46.7 158.22 46.7C151.86 46.7 146.55 49.54 145.16 53.35C145.04 53.35 144.92 53.34 144.8 53.34C140.19 53.34 136.45 56.04 136.45 59.37C136.45 60.06 136.62 60.72 136.92 61.34H167.83C170.19 59.79 171.65 57.66 171.65 55.32H171.64Z" fill="white"/>
<path fill-rule="evenodd" clip-rule="evenodd" d="M149.367 47.7078C151.82 46.4409 154.897 45.7 158.22 45.7C162.088 45.7 165.637 46.7055 168.249 48.3836C170.848 50.0528 172.636 52.4782 172.64 55.31L172.65 55.32C172.65 58.1089 170.912 60.5124 168.379 62.1759L167.83 62.34H136.92L136.02 61.7756C135.663 61.0367 135.45 60.2286 135.45 59.37C135.45 57.303 136.613 55.5218 138.311 54.2955C139.942 53.1176 142.125 52.3993 144.501 52.3435C145.42 50.4287 147.175 48.8402 149.367 47.7078ZM170.65 55.33L170.64 55.32C170.64 53.3961 169.424 51.5152 167.169 50.0664C164.924 48.6246 161.763 47.7 158.22 47.7C155.183 47.7 152.426 48.3791 150.285 49.4847C148.133 50.5964 146.682 52.0952 146.1 53.6927L145.16 54.35C145.079 54.35 145.001 54.3468 144.945 54.3444L144.939 54.3441C144.875 54.3415 144.836 54.34 144.8 54.34C142.682 54.34 140.805 54.9618 139.482 55.917C138.158 56.8732 137.45 58.1071 137.45 59.37C137.45 59.6972 137.5 60.0206 137.598 60.34H167.524C169.552 58.9303 170.646 57.1464 170.65 55.33Z" fill="#1B1B1B"/>
</g>
<defs>
<clipPath id="clip0_3204_222">
<rect width="180" height="130" fill="white"/>
</clipPath>
</defs>
</svg>
