<svg width="180" height="130" viewBox="0 0 180 130" fill="none" xmlns="http://www.w3.org/2000/svg">
<path d="M114 1H16C7.71573 1 1 7.71573 1 16V114C1 122.284 7.71573 129 16 129H114C122.284 129 129 122.284 129 114V16C129 7.71573 122.284 1 114 1Z" fill="#8FDFF3"/>
<path d="M114 2C121.72 2 128 8.28 128 16V114C128 121.72 121.72 128 114 128H16C8.28 128 2 121.72 2 114V16C2 8.28 8.28 2 16 2H114ZM114 0H16C7.16 0 0 7.16 0 16V114C0 122.84 7.16 130 16 130H114C122.84 130 130 122.84 130 114V16C130 7.16 122.84 0 114 0Z" fill="black"/>
<path d="M65.5499 17.79C65.5499 17.79 66.7999 38.02 53.0799 38.02H50.6999C36.9799 38.02 38.2299 17.79 38.2299 17.79" fill="#E5D6E2"/>
<path fill-rule="evenodd" clip-rule="evenodd" d="M64.5518 17.8513C64.5518 17.8514 64.5518 17.8517 65.5499 17.79C66.548 17.7283 66.548 17.7288 66.5481 17.7292L66.5484 17.7347L66.5492 17.7484L66.5518 17.7973C66.5539 17.8393 66.5568 17.9 66.5598 17.9781C66.566 18.1342 66.5729 18.3602 66.5767 18.6459C66.5844 19.2172 66.5794 20.0292 66.5295 21.0021C66.4301 22.9424 66.1509 25.5493 65.4235 28.1722C64.6985 30.7867 63.5085 33.4892 61.5395 35.5499C59.5428 37.6396 56.789 39.02 53.0799 39.02H50.6999C46.9908 39.02 44.237 37.6396 42.2403 35.5499C40.2713 33.4892 39.0813 30.7867 38.3563 28.1722C37.6289 25.5493 37.3497 22.9424 37.2503 21.0021C37.2004 20.0292 37.1955 19.2172 37.2031 18.6459C37.2069 18.3602 37.2139 18.1342 37.22 17.9781C37.223 17.9 37.2259 17.8393 37.228 17.7973L37.2306 17.7484L37.2314 17.7347L37.2317 17.7306L37.2318 17.7292C37.2318 17.7288 37.2318 17.7283 38.2299 17.79C39.228 17.8517 39.228 17.8514 39.228 17.8513L39.2279 17.8527L39.2275 17.861L39.2254 17.8988C39.2237 17.9334 39.2212 17.9863 39.2185 18.0564C39.213 18.1965 39.2065 18.4052 39.2029 18.6726C39.1958 19.2077 39.2003 19.9761 39.2477 20.8998C39.3426 22.7527 39.6084 25.2032 40.2835 27.6378C40.961 30.0808 42.031 32.4358 43.6864 34.1682C45.3141 35.8717 47.549 37.02 50.6999 37.02H53.0799C56.2308 37.02 58.4658 35.8717 60.0935 34.1682C61.7488 32.4358 62.8188 30.0808 63.4963 27.6378C64.1714 25.2032 64.4372 22.7527 64.5322 20.8998C64.5795 19.9761 64.5841 19.2077 64.5769 18.6726C64.5733 18.4052 64.5669 18.1965 64.5614 18.0564C64.5586 17.9863 64.5561 17.9334 64.5544 17.8988L64.5524 17.861L64.5519 17.8527L64.5518 17.8513Z" fill="#1B1B1B"/>
<path d="M51.88 22.79C59.4242 22.79 65.54 20.5514 65.54 17.79C65.54 15.0286 59.4242 12.79 51.88 12.79C44.3358 12.79 38.22 15.0286 38.22 17.79C38.22 20.5514 44.3358 22.79 51.88 22.79Z" fill="#D1C1CE"/>
<path fill-rule="evenodd" clip-rule="evenodd" d="M62.7959 20.7964C60.303 22.0072 56.3412 22.79 51.88 22.79C47.4388 22.79 43.4926 22.0142 40.9977 20.8126C42.8135 19.6761 47.0158 18.8801 51.9099 18.8801C56.7807 18.8801 60.9662 19.6685 62.7959 20.7964Z" fill="#E5A43C"/>
<path fill-rule="evenodd" clip-rule="evenodd" d="M39.9478 16.5999C39.3784 17.0927 39.22 17.4981 39.22 17.79C39.22 18.0819 39.3784 18.4873 39.9478 18.9801C40.5145 19.4705 41.3927 19.9575 42.5646 20.3865C44.9004 21.2415 48.1937 21.79 51.88 21.79C55.5662 21.79 58.8595 21.2415 61.1953 20.3865C62.3673 19.9575 63.2455 19.4705 63.8121 18.9801C64.3816 18.4873 64.54 18.0819 64.54 17.79C64.54 17.4981 64.3816 17.0927 63.8121 16.5999C63.2455 16.1095 62.3673 15.6225 61.1953 15.1935C58.8595 14.3386 55.5662 13.79 51.88 13.79C48.1937 13.79 44.9004 14.3386 42.5646 15.1935C41.3927 15.6225 40.5145 16.1095 39.9478 16.5999ZM41.8772 13.3154C44.4853 12.3607 48.022 11.79 51.88 11.79C55.738 11.79 59.2746 12.3607 61.8828 13.3154C63.1828 13.7913 64.3051 14.3816 65.1209 15.0876C65.9339 15.7912 66.54 16.7012 66.54 17.79C66.54 18.8788 65.9339 19.7888 65.1209 20.4924C64.3051 21.1984 63.1828 21.7888 61.8828 22.2646C59.2746 23.2193 55.738 23.79 51.88 23.79C48.022 23.79 44.4853 23.2193 41.8772 22.2646C40.5771 21.7888 39.4549 21.1984 38.6391 20.4924C37.8261 19.7888 37.22 18.8788 37.22 17.79C37.22 16.7012 37.8261 15.7912 38.6391 15.0876C39.4549 14.3816 40.5771 13.7913 41.8772 13.3154Z" fill="#1B1B1B"/>
<path d="M38.0798 65.48C54.5987 65.48 67.9898 58.7687 67.9898 50.49C67.9898 42.2113 54.5987 35.5 38.0798 35.5C21.561 35.5 8.16983 42.2113 8.16983 50.49C8.16983 58.7687 21.561 65.48 38.0798 65.48Z" fill="#D8CFE2"/>
<path fill-rule="evenodd" clip-rule="evenodd" d="M17.3783 40.7845C12.0728 43.4434 9.16983 46.9322 9.16983 50.49C9.16983 54.0478 12.0728 57.5366 17.3783 60.1955C22.6246 62.8248 29.9423 64.48 38.0798 64.48C46.2173 64.48 53.535 62.8248 58.7813 60.1955C64.0868 57.5366 66.9898 54.0478 66.9898 50.49C66.9898 46.9322 64.0868 43.4434 58.7813 40.7845C53.535 38.1552 46.2173 36.5 38.0798 36.5C29.9423 36.5 22.6246 38.1552 17.3783 40.7845ZM16.4822 38.9965C22.0612 36.2004 29.6985 34.5 38.0798 34.5C46.4612 34.5 54.0985 36.2004 59.6774 38.9965C65.1973 41.7628 68.9898 45.769 68.9898 50.49C68.9898 55.211 65.1973 59.2172 59.6774 61.9835C54.0985 64.7796 46.4612 66.48 38.0798 66.48C29.6985 66.48 22.0612 64.7796 16.4822 61.9835C10.9624 59.2172 7.16983 55.211 7.16983 50.49C7.16983 45.769 10.9624 41.7628 16.4822 38.9965Z" fill="#1B1B1B"/>
<path d="M23.94 38.43C23.94 38.43 21.3 38.34 20.72 40.44C20.72 40.44 18.11 39.24 17.76 41.5C17.76 41.5 15.83 42.93 15.42 44.41C15.02 45.89 12.81 46.05 13.2 48.66C13.2 48.66 11.77 49.79 12.77 50.59C13.77 51.39 12.64 53.32 15.41 53.81C15.41 53.81 15.67 56.22 21.6 57.72C27.53 59.22 36.82 63.63 53.37 58.58C55.35 57.98 58.36 55.79 59.67 53.23C60.98 50.67 59.63 50.19 61.23 50.23C62.84 50.27 64.84 47.45 63.35 45.91C63.35 45.91 64.36 43.49 61.14 42.75C61.14 42.75 61.14 39.34 57.12 39.91" fill="#FFB36E"/>
<path d="M19.56 53.26C20.1565 53.26 20.64 52.9869 20.64 52.65C20.64 52.3131 20.1565 52.04 19.56 52.04C18.9635 52.04 18.48 52.3131 18.48 52.65C18.48 52.9869 18.9635 53.26 19.56 53.26Z" fill="#F9A662"/>
<path fill-rule="evenodd" clip-rule="evenodd" d="M26.0946 59.0156C26.1997 58.8575 26.2915 58.6956 26.37 58.5299H26.41C27.32 58.5299 28.09 58.2399 28.52 57.8199C28.91 57.9599 29.35 58.0699 29.84 58.0699C31.2 58.0699 32.31 57.4399 32.31 56.6699C32.31 55.8999 31.2 55.2699 29.84 55.2699C29.32 55.2699 28.86 55.3799 28.46 55.5399C28.4708 55.5076 28.4868 55.4765 28.5028 55.4453C28.5313 55.3898 28.56 55.334 28.56 55.2699C28.56 54.4999 27.45 53.8699 26.09 53.8699C25.69 53.8699 25.33 53.9399 24.99 54.0299C24.51 53.6399 23.93 53.3099 23.29 52.9999C24.39 52.8599 25.23 52.3299 25.23 51.6599C25.23 50.8899 24.12 50.2599 22.76 50.2599C22.6676 50.2599 22.5819 50.2733 22.4971 50.2865C22.435 50.2961 22.3734 50.3057 22.31 50.3099C22.28 49.5499 21.2 48.9399 19.85 48.9399C18.5 48.9399 17.38 49.5699 17.38 50.3399C17.38 50.4051 17.4097 50.4661 17.4388 50.5255C17.4543 50.5573 17.4696 50.5886 17.48 50.6199C17.2 50.6399 16.93 50.6799 16.69 50.7599C16.35 50.2199 15.46 49.8299 14.39 49.8299C13.6458 49.8299 12.9764 50.0186 12.5228 50.3156C12.5792 50.4098 12.6598 50.5019 12.77 50.59C13.1298 50.8779 13.2138 51.312 13.303 51.7728C13.4617 52.5925 13.6367 53.4963 15.41 53.81C15.41 53.81 15.67 56.22 21.6 57.72C22.4359 57.9315 23.3386 58.2007 24.3189 58.4932C24.8843 58.6618 25.4755 58.8382 26.0946 59.0156ZM20.29 51.9999C20.29 52.0199 20.27 52.0499 20.27 52.0499C20.295 52.0549 20.3225 52.0599 20.35 52.0649C20.3775 52.0699 20.405 52.0749 20.43 52.0799C20.4229 52.0658 20.4158 52.0517 20.4086 52.0376C20.3545 51.9316 20.3 51.8247 20.3 51.7099C20.26 51.7199 20.23 51.7199 20.19 51.7199C20.2004 51.7513 20.2157 51.7826 20.2312 51.8144C20.2603 51.8738 20.29 51.9348 20.29 51.9999Z" fill="#E58F4E"/>
<path fill-rule="evenodd" clip-rule="evenodd" d="M60.138 40.5403C58.8028 40.5556 57.7596 41.1597 57.73 41.91C57.6912 41.9048 57.6531 41.899 57.6151 41.8932C57.5062 41.8765 57.3986 41.86 57.28 41.86C55.92 41.86 54.81 42.49 54.81 43.26C54.81 43.92 55.65 44.46 56.75 44.6C56.11 44.9 55.53 45.24 55.05 45.63C54.72 45.53 54.35 45.47 53.95 45.47C52.59 45.47 51.48 46.1 51.48 46.87C51.48 46.9436 51.5125 47.0064 51.5457 47.0704C51.5575 47.0932 51.5694 47.1163 51.58 47.14C51.18 46.98 50.72 46.87 50.2 46.87C48.84 46.87 47.73 47.5 47.73 48.27C47.73 49.04 48.84 49.67 50.2 49.67C50.7 49.67 51.14 49.57 51.52 49.42C51.95 49.84 52.71 50.13 53.63 50.13H53.67C53.85 50.51 54.1 50.87 54.42 51.21C53.71 51.46 53.22 51.88 53.22 52.38C53.22 52.88 53.68 53.27 54.33 53.52C53.42 53.73 52.78 54.23 52.78 54.81C52.78 54.825 52.7875 54.8375 52.795 54.85C52.8025 54.8625 52.81 54.875 52.81 54.89C52.7512 54.89 52.6972 54.8804 52.6421 54.8706C52.5848 54.8604 52.5263 54.85 52.46 54.85C52.16 54.85 51.89 54.89 51.62 54.95C51.8 54.76 51.92 54.55 51.92 54.32C51.92 53.55 50.81 52.92 49.45 52.92C48.09 52.92 46.98 53.55 46.98 54.32C46.98 55.09 48.09 55.72 49.45 55.72L49.43 55.71C49.73 55.71 50 55.67 50.27 55.61C50.09 55.8 49.97 56.01 49.97 56.24C49.97 56.43 50.04 56.61 50.16 56.77C49.37 57 48.82 57.46 48.82 57.99C48.82 58.32 49.05 58.61 49.4 58.85C49.0791 59.1424 48.8497 59.4601 48.7445 59.7961C50.2201 59.4726 51.7607 59.071 53.37 58.58C55.35 57.9799 58.36 55.7899 59.67 53.2299C60.2749 52.0478 60.3126 51.3092 60.3355 50.8605C60.3622 50.3375 60.3688 50.2084 61.23 50.2299C62.84 50.2699 64.84 47.4499 63.35 45.9099C63.35 45.9099 64.36 43.4899 61.14 42.7499C61.14 42.7499 61.14 41.3994 60.138 40.5403ZM56.99 53.83C57.37 53.68 57.78 53.54 58.22 53.43L58.21 53.42C58.1221 53.3907 58.0307 53.3649 57.9388 53.339C57.811 53.3029 57.6821 53.2665 57.56 53.22C57.3 53.41 56.98 53.57 56.58 53.66C56.6312 53.6819 56.6838 53.7012 56.7357 53.7203C56.8258 53.7533 56.9139 53.7856 56.99 53.83ZM59.6114 43.6177C59.6042 43.6318 59.597 43.6459 59.59 43.66C59.615 43.655 59.6425 43.65 59.67 43.645C59.6975 43.64 59.725 43.635 59.75 43.63C59.75 43.62 59.745 43.6125 59.74 43.605C59.735 43.5975 59.73 43.59 59.73 43.58C59.73 43.5035 59.7651 43.4329 59.7995 43.3637C59.81 43.3424 59.8206 43.3212 59.83 43.3C59.79 43.29 59.76 43.29 59.72 43.29H59.72C59.72 43.4047 59.6655 43.5116 59.6114 43.6177ZM53.9872 57.3081C54.2675 57.2888 54.5394 57.27 54.83 57.27C54.9915 57.27 55.1485 57.279 55.304 57.288C55.3795 57.2924 55.4548 57.2967 55.53 57.3C55.18 56.95 54.97 56.57 54.93 56.16H54.88C54.88 56.175 54.8875 56.1875 54.895 56.2C54.9025 56.2125 54.91 56.225 54.91 56.24C54.91 56.68 54.52 57.05 53.96 57.31L53.9872 57.3081Z" fill="#E58F4E"/>
<path fill-rule="evenodd" clip-rule="evenodd" d="M23.9733 37.4306C23.9737 37.4306 23.9741 37.4306 23.94 38.43C23.9059 39.4294 23.9063 39.4294 23.9067 39.4294L23.9086 39.4295L23.9104 39.4296L23.9027 39.4295C23.8926 39.4294 23.8739 39.4294 23.8478 39.43C23.7954 39.4312 23.7143 39.4347 23.613 39.4443C23.4071 39.4638 23.1357 39.5071 22.8589 39.5978C22.3014 39.7805 21.8509 40.1016 21.6839 40.7062L20.3031 41.3482C20.3029 41.3488 20.3031 41.3482 20.3031 41.3482L20.3045 41.3496L20.3059 41.3502L20.2964 41.3461C20.2856 41.3415 20.2666 41.3335 20.2405 41.3232C20.1879 41.3025 20.1088 41.2733 20.0119 41.2434C19.8099 41.181 19.5692 41.1278 19.3461 41.1222C19.1178 41.1164 18.9981 41.1621 18.9428 41.2007C18.9159 41.2196 18.8028 41.3006 18.7482 41.653L18.3555 42.3032C18.3556 42.3033 18.3555 42.3032 18.3555 42.3032L18.3439 42.3122C18.3332 42.3203 18.316 42.3335 18.2932 42.3514C18.2474 42.3873 18.1791 42.4419 18.0948 42.5126C17.9253 42.6548 17.6959 42.8581 17.4566 43.1013C16.9472 43.6191 16.5186 44.1932 16.3843 44.6747C16.2213 45.2745 15.8808 45.7062 15.5655 46.0296C15.4101 46.1889 15.2463 46.3361 15.1067 46.4614L15.0934 46.4732C14.9519 46.6002 14.8321 46.7076 14.7193 46.82C14.493 47.0452 14.3455 47.2421 14.2573 47.4675C14.172 47.6854 14.1132 48.0047 14.189 48.5122L13.8202 49.444C13.8205 49.4442 13.8202 49.444 13.8202 49.444L13.8219 49.4431C13.8179 49.4464 13.8099 49.4531 13.7985 49.4631C13.7754 49.4834 13.7402 49.5153 13.6993 49.5562C13.6123 49.6431 13.5243 49.7461 13.4645 49.8444C13.4613 49.8497 13.4583 49.8548 13.4555 49.8596C13.9068 50.2492 14.0867 50.7395 14.1829 51.111C14.2256 51.2759 14.2587 51.4473 14.2853 51.5848C14.2889 51.6039 14.2925 51.6224 14.2959 51.64C14.327 51.7994 14.3529 51.9226 14.3858 52.0349C14.4469 52.243 14.5178 52.3635 14.6288 52.4607C14.7498 52.5668 15.0093 52.7236 15.5842 52.8253L16.4026 53.701C16.404 53.7007 16.404 53.7006 16.404 53.7005L16.4037 53.6982L16.4032 53.694L16.4023 53.686L16.4004 53.6724C16.3992 53.6644 16.3982 53.6585 16.3975 53.6545C16.4015 53.6695 16.4155 53.7147 16.4485 53.7852C16.5137 53.9239 16.6611 54.1746 16.9811 54.4882C17.624 55.1181 18.9932 56.0291 21.8452 56.7505C22.7418 56.9773 23.6807 57.2575 24.6844 57.5571C27.1603 58.2959 30.03 59.1524 33.6298 59.6144C38.6236 60.2553 44.9406 60.1066 53.0781 57.6235L53.08 57.623C53.9119 57.3709 55.0462 56.7503 56.1419 55.8629C57.2335 54.9788 58.2066 53.8945 58.7798 52.7745C59.2896 51.7782 59.3179 51.1998 59.3374 50.8028C59.3392 50.7653 59.341 50.7293 59.3431 50.6948C59.3435 50.6877 59.3439 50.6792 59.3443 50.6692C59.3526 50.4915 59.3819 49.8629 59.9403 49.4902C60.1895 49.3238 60.454 49.2717 60.6378 49.2496C60.8298 49.2265 61.0415 49.225 61.2548 49.2303C61.3684 49.2331 61.584 49.1809 61.8636 48.9784C62.1337 48.7829 62.3951 48.4941 62.5863 48.1627C62.9951 47.4544 62.9291 46.9131 62.6313 46.6053L62.4274 45.5261C62.4267 45.5258 62.4274 45.526 62.4274 45.5261L62.4263 45.527L62.4255 45.5289L62.4241 45.5322L62.4225 45.5363C62.4239 45.5323 62.4279 45.5211 62.4334 45.5038C62.4445 45.4685 62.4607 45.4107 62.4744 45.3373C62.5027 45.1851 62.5139 44.9996 62.4748 44.8178C62.4387 44.6498 62.3572 44.4679 62.1651 44.2904C61.9652 44.1057 61.5962 43.8809 60.916 43.7246L60.1408 42.751C60.14 42.751 60.1408 42.7509 60.1408 42.751L60.14 42.7522L60.14 42.754L60.14 42.7569C60.14 42.7556 60.1401 42.7546 60.14 42.7522C60.1396 42.7414 60.1383 42.7194 60.1358 42.6895C60.1306 42.6293 60.1197 42.5367 60.097 42.4242C60.0504 42.1937 59.9607 41.9126 59.7964 41.6572C59.6388 41.4121 59.41 41.1849 59.0539 41.034C58.6917 40.8806 58.1284 40.777 57.2604 40.9001L56.9796 38.9199C58.1216 38.758 59.0658 38.8669 59.8342 39.1925C60.6088 39.5207 61.1337 40.0392 61.4785 40.5753C61.8005 41.0758 61.9623 41.5852 62.0453 41.9704C62.6508 42.182 63.1403 42.4684 63.5224 42.8215C64.0465 43.3058 64.3163 43.8677 64.4301 44.3973C64.5393 44.9049 64.5022 45.3641 64.4434 45.688C65.177 46.8431 64.8632 48.2186 64.3186 49.1623C63.9949 49.7234 63.5475 50.2284 63.0364 50.5984C62.5611 50.9426 61.9632 51.2167 61.3137 51.2299C61.269 51.7587 61.1334 52.5654 60.5602 53.6855C59.8234 55.1255 58.6365 56.4162 57.4006 57.4171C56.1691 58.4145 54.8089 59.1887 53.6609 59.5368C45.2489 62.1034 38.6462 62.2747 33.3752 61.5981C29.6027 61.1139 26.4672 60.1789 23.9529 59.4291C22.9975 59.1442 22.1317 58.886 21.3548 58.6895C18.2768 57.9109 16.551 56.8669 15.5814 55.9168C15.1067 55.4516 14.8207 55.0159 14.6502 54.6605C14.1112 54.505 13.6661 54.2766 13.3103 53.9646C12.8228 53.5372 12.5944 53.0333 12.4666 52.5976C12.4052 52.388 12.3644 52.1845 12.3328 52.0224C12.3288 52.0019 12.325 51.9822 12.3213 51.9632C12.2932 51.8181 12.2727 51.7126 12.2468 51.6124C12.1933 51.406 12.1522 51.3759 12.1459 51.3713C12.1456 51.3711 12.146 51.3714 12.1459 51.3713C11.6924 51.0085 11.4321 50.5237 11.4158 49.981C11.4011 49.4915 11.5887 49.08 11.7555 48.8056C11.8834 48.5951 12.0301 48.4146 12.1585 48.2742C12.1332 47.7014 12.2165 47.1941 12.3949 46.7385C12.6238 46.1536 12.9807 45.7286 13.3082 45.4025C13.4592 45.2523 13.6145 45.113 13.7465 44.9947C13.7548 44.9873 13.7631 44.9798 13.7712 44.9725C13.9159 44.8427 14.0316 44.7378 14.1336 44.6333C14.3323 44.4294 14.4173 44.2873 14.4546 44.1491L14.4563 44.143C14.7328 43.145 15.4736 42.2651 16.0309 41.6987C16.3253 41.3994 16.604 41.1527 16.8093 40.9805C16.8266 40.9659 16.8435 40.9518 16.8599 40.9383C17.0249 40.3522 17.3388 39.8816 17.7975 39.5612C18.33 39.1892 18.9284 39.1111 19.3964 39.1228C19.6767 39.1299 19.9431 39.1698 20.1758 39.2202C20.7184 38.3685 21.5494 37.9222 22.2361 37.6972C22.6918 37.5479 23.1166 37.4824 23.4239 37.4532C23.5792 37.4385 23.7088 37.4326 23.8031 37.4305C23.8503 37.4294 23.8889 37.4293 23.9177 37.4295L23.9536 37.43L23.9658 37.4303L23.9704 37.4305L23.9733 37.4306ZM61.3517 50.7072C61.3522 50.7083 61.3507 50.7209 61.3456 50.7416C61.3486 50.7165 61.3511 50.7061 61.3517 50.7072ZM62.4225 45.5363C62.4217 45.5381 62.4217 45.5382 62.4225 45.5363V45.5363ZM13.8219 49.4431L13.8232 49.442L13.824 49.4414C13.8236 49.4418 13.8228 49.4424 13.8219 49.4431ZM20.3059 41.3502C20.3065 41.3505 20.3064 41.3505 20.3059 41.3502V41.3502Z" fill="#1B1B1B"/>
<path d="M29.71 35.18C29.71 35.18 23.25 36.63 24.22 41.13C25.19 45.63 27.88 46.1 33.37 46.79C38.86 47.48 40.29 46.82 41.1 48.45C41.91 50.08 44.66 52.08 48.52 51.59C52.38 51.09 52.14 46.75 49.82 45.07C47.5 43.39 52.12 43.57 55.49 43.19C58.86 42.81 57.37 38.62 51.77 36.69C46.17 34.76 34.97 31.62 29.71 35.18Z" fill="white"/>
<path d="M53.6585 37.4987C53.4696 37.6531 53.2767 37.8265 53.0799 38.02C53.0799 38.02 55.8599 40.54 51.8799 40.64C47.8999 40.74 46.3099 41.77 47.3399 43.46C48.1622 44.8093 49.7621 46.5154 51.3814 47.4336C51.1504 46.5092 50.604 45.6377 49.82 45.0699C48.0013 43.753 50.4472 43.579 53.2125 43.3823C53.9749 43.328 54.7616 43.2721 55.49 43.1899C58.443 42.857 57.6643 39.5985 53.6585 37.4987Z" fill="#F4F4F4"/>
<path d="M47.5868 51.662L50.0099 51.09C50.0099 51.09 51.4999 49.4 47.5299 49.67C43.8284 49.9218 42.2133 46.9832 41.7848 46.2036C41.7537 46.147 41.7289 46.1018 41.7099 46.07C41.4299 45.6 38.7099 44.01 32.6099 44.29C28.9227 44.4653 26.0247 42.832 24.309 41.5125C24.5824 42.6022 24.9699 43.4375 25.4894 44.0888L28.5867 45.9636C29.8687 46.3337 31.4477 46.5484 33.37 46.7899C35.133 47.0115 36.4774 47.0939 37.5169 47.1576C39.7145 47.2922 40.5501 47.3434 41.1 48.4499C41.8431 49.9453 44.219 51.7521 47.5868 51.662Z" fill="#F4F4F4"/>
<path fill-rule="evenodd" clip-rule="evenodd" d="M40.7509 32.8859C45.0003 33.48 49.2696 34.7706 52.0957 35.7446C55.0418 36.7599 57.0842 38.4246 57.8926 40.0831C58.2979 40.9148 58.4503 41.8872 58.0058 42.7453C57.5522 43.6213 56.6406 44.0666 55.6019 44.1837C54.8514 44.2683 54.0415 44.3259 53.2809 44.38C53.1619 44.3885 53.0441 44.3968 52.9279 44.4052C52.1201 44.4635 51.3999 44.5215 50.8303 44.6062C52.0123 45.6904 52.6318 47.3417 52.4827 48.8696C52.3977 49.7397 52.0598 50.602 51.3985 51.2897C50.7337 51.9811 49.8037 52.4321 48.6484 52.5817L48.6458 52.582C44.4027 53.1207 41.2207 50.9403 40.2044 48.895C40.0747 48.6342 39.9661 48.5433 39.8515 48.4822C39.6932 48.3977 39.4254 48.321 38.8814 48.2616C38.4968 48.2196 38.0483 48.1921 37.4827 48.1575C37.2479 48.1431 36.993 48.1275 36.714 48.1091C35.7833 48.0477 34.6436 47.958 33.2452 47.7822C30.5566 47.4443 28.3115 47.1421 26.6401 46.2768C24.8346 45.342 23.7743 43.8085 23.2423 41.3407C22.6234 38.4693 24.4441 36.6271 26.0747 35.6173C26.9034 35.1041 27.753 34.7539 28.3859 34.5328C28.7048 34.4214 28.9745 34.3408 29.1671 34.2874C29.2175 34.2735 29.2627 34.2613 29.3022 34.251C30.7783 33.3011 32.5876 32.826 34.4949 32.647C36.4747 32.4613 38.6255 32.5887 40.7509 32.8859ZM29.9295 36.1556L29.9213 36.1575C29.9129 36.1595 29.8987 36.1629 29.8791 36.1678C29.84 36.1775 29.7796 36.1931 29.7013 36.2148C29.5444 36.2583 29.3171 36.3261 29.0454 36.4209C28.4974 36.6124 27.7926 36.9059 27.1276 37.3177C25.7707 38.1579 24.8464 39.2907 25.1974 40.9193C25.6355 42.9515 26.4052 43.903 27.5597 44.5007C28.8483 45.1679 30.6932 45.4457 33.4946 45.7978C34.8411 45.967 35.939 46.0536 36.8457 46.1134C37.0907 46.1296 37.3263 46.144 37.5518 46.1578C38.1426 46.194 38.6635 46.2259 39.0984 46.2734C39.6993 46.339 40.2841 46.446 40.7932 46.7178C41.3462 47.0129 41.72 47.4509 41.9954 48.005C42.599 49.2196 44.9165 51.0389 48.3927 50.5981C49.1666 50.4976 49.6537 50.2187 49.9569 49.9035C50.2638 49.5843 50.4445 49.1628 50.4921 48.6754C50.5911 47.6617 50.0979 46.506 49.2334 45.8799C48.9089 45.645 48.5866 45.3624 48.3901 45.0171C48.2847 44.8319 48.1943 44.5917 48.1929 44.3103C48.1914 44.0164 48.2877 43.754 48.437 43.5431C48.7006 43.1709 49.1031 42.9914 49.3665 42.8964C49.6659 42.7884 50.011 42.7132 50.3581 42.6559C51.0541 42.5409 51.921 42.4727 52.784 42.4104C52.9039 42.4018 53.024 42.3932 53.144 42.3847C53.9082 42.3303 54.6718 42.2759 55.3778 42.1963C56.0241 42.1234 56.1901 41.9024 56.2299 41.8256C56.2789 41.7309 56.3406 41.4639 56.0947 40.9594C55.6005 39.9454 54.098 38.5501 51.4441 37.6354C48.6702 36.6794 44.5394 35.435 40.4739 34.8666C38.4418 34.5825 36.4563 34.4718 34.6817 34.6383C32.901 34.8053 31.3973 35.2455 30.2704 36.0082L30.1136 36.1143L29.9304 36.1554L29.9299 36.1555L29.9296 36.1556L29.9295 36.1556ZM49.9503 44.8188C49.9502 44.8187 49.952 44.8175 49.9562 44.8153C49.9525 44.8177 49.9504 44.8188 49.9503 44.8188Z" fill="#1B1B1B"/>
<path d="M34.1299 32.41C34.1299 32.41 30.2799 34.1 31.0299 36.63C31.7799 39.16 34.8799 39.91 38.4399 39.91C42.0099 39.91 44.8199 39.07 45.8499 37.85C46.8799 36.63 47.5399 33.72 43.8799 32.41C40.2199 31.1 36.0199 31.19 34.1199 32.41H34.1299Z" fill="#FFDA00"/>
<path fill-rule="evenodd" clip-rule="evenodd" d="M45.58 33.3538C45.5824 33.4801 45.6172 36.6882 42.99 36.6C40.31 36.51 32.14 36.69 35.05 39.13C35.3713 39.3995 35.7729 39.6191 36.2329 39.7965C36.9351 39.8756 37.6769 39.91 38.4399 39.91C42.0099 39.91 44.8199 39.07 45.8499 37.85C46.6754 36.8723 47.2632 34.809 45.58 33.3538Z" fill="#FFC200"/>
<path fill-rule="evenodd" clip-rule="evenodd" d="M38.3335 30.4613C40.1913 30.4493 42.2729 30.7727 44.217 31.4685C46.314 32.2191 47.3795 33.5288 47.6116 35.0088C47.8287 36.3924 47.2783 37.7084 46.6141 38.4951C45.9092 39.33 44.721 39.9163 43.3705 40.2995C41.9872 40.692 40.2979 40.91 38.44 40.91C36.6096 40.91 34.8033 40.72 33.3232 40.1525C31.8202 39.5762 30.5614 38.5677 30.0712 36.9142C29.6359 35.4457 30.2809 34.2437 31.0307 33.41L31.6628 32.7994C32.1565 32.3813 32.6663 32.0595 33.047 31.8437C33.2407 31.7339 33.4054 31.649 33.524 31.5906C33.5571 31.5742 33.5867 31.5599 33.6125 31.5477C34.7931 30.8039 36.5248 30.4729 38.3335 30.4613ZM35.7692 32.7826L34.5336 33.3249L34.5301 33.3265L34.5077 33.3368C34.4864 33.3467 34.4524 33.3627 34.408 33.3846C34.319 33.4285 34.1888 33.4954 34.0333 33.5836C33.7186 33.7619 33.3179 34.0173 32.9465 34.3331C32.1442 35.0154 31.7934 35.687 31.9887 36.3458C32.2486 37.2223 32.9147 37.8539 34.0393 38.2851C35.1867 38.725 36.7104 38.91 38.44 38.91C40.1521 38.91 41.6527 38.708 42.8245 38.3755C44.0289 38.0337 44.7608 37.59 45.0859 37.2049C45.4517 36.7717 45.7462 36.0226 45.6358 35.3188C45.5405 34.7112 45.106 33.911 43.543 33.3515C41.8271 32.7374 39.9787 32.4507 38.3464 32.4612C37.3382 32.4677 36.4626 32.587 35.7692 32.7826Z" fill="#1B1B1B"/>
<path d="M35.4599 34.64L37.3399 33.77" stroke="white" stroke-miterlimit="10"/>
<path d="M19.2699 51.59L21.1499 50.72" stroke="#7C4400" stroke-miterlimit="10"/>
<path d="M19.2699 47.24L21.1499 46.36" stroke="#7C4400" stroke-miterlimit="10"/>
<path d="M15.9899 50.12L17.8699 49.24" stroke="#7C4400" stroke-miterlimit="10"/>
<path d="M34.6898 55.71L36.5699 54.83" stroke="#7C4400" stroke-miterlimit="10"/>
<path d="M36.2699 53.17L38.1499 52.3" stroke="#7C4400" stroke-miterlimit="10"/>
<path d="M48.75 66.86C48.75 66.86 47.62 65.73 50.16 63.48C52.69 61.23 59.17 55.88 62.13 58.41C65.09 60.94 65.23 64.75 58.89 68.55C52.55 72.35 49.46 69.54 49.46 69.54L10.6 80.38C10.6 80.38 6.52001 79.96 8.91001 78.27C11.3 76.58 48.75 66.87 48.75 66.87V66.86Z" fill="#EAEAEA"/>
<path fill-rule="evenodd" clip-rule="evenodd" d="M56.4755 60.0232C54.2663 61.2709 52.0791 63.1115 50.8245 64.2272L50.8231 64.2285C49.653 65.265 49.5125 65.8832 49.5006 66.0757C49.4946 66.1727 49.5157 66.2176 49.5183 66.2232C49.5206 66.2282 49.5201 66.2256 49.5122 66.2148C49.5082 66.2094 49.5021 66.2016 49.4933 66.1915C49.4889 66.1864 49.4837 66.1806 49.4777 66.1742L49.4681 66.1641L49.4628 66.1586L49.46 66.1558L49.4586 66.1543C49.4585 66.1543 49.4591 66.1539 49.4586 66.1543L49.75 66.86V66.87L49.001 67.838L48.75 66.87C49.001 67.838 49.0013 67.8379 49.001 67.838L48.5807 67.9472C48.3061 68.0187 47.903 68.1237 47.389 68.258C46.361 68.5267 44.8896 68.9123 43.1163 69.3805C39.5697 70.3168 34.8167 71.5825 29.9897 72.9009C25.1614 74.2197 20.2649 75.5894 16.4292 76.734C14.5102 77.3066 12.8656 77.8203 11.6309 78.2414C11.0127 78.4522 10.5073 78.6364 10.1261 78.7906C9.93538 78.8677 9.78373 78.934 9.66874 78.9894C9.61159 79.017 9.56758 79.0399 9.53493 79.0581C9.50103 79.077 9.48728 79.0865 9.48735 79.0865C9.47337 79.0964 9.4599 79.106 9.4469 79.1155C9.67408 79.1946 9.93955 79.2585 10.1871 79.3056C10.3191 79.3308 10.4363 79.3494 10.5262 79.3624L49.1913 68.5768L50.1312 68.7998C50.1317 68.7992 50.1313 68.7998 50.1312 68.7998L50.1305 68.7981L50.1284 68.7962L50.1251 68.7932L50.1216 68.7901C50.1206 68.7893 50.1224 68.7909 50.127 68.7946C50.1362 68.8021 50.1564 68.8181 50.1876 68.8404C50.2501 68.8853 50.3564 68.9554 50.5067 69.0343C50.8061 69.1914 51.2826 69.3846 51.9414 69.4804C53.2412 69.6693 55.3686 69.4947 58.3759 67.6923C61.4563 65.846 62.7222 64.1327 63.0213 62.7868C63.3029 61.5195 62.7822 60.283 61.4803 59.1702C61.0432 58.7966 60.4233 58.653 59.5345 58.8043C58.6345 58.9574 57.5839 59.3973 56.4755 60.0232ZM49.2709 70.6309C49.3606 70.6862 49.4627 70.745 49.5771 70.8051C50.0551 71.056 50.7474 71.3278 51.6536 71.4596C53.4838 71.7256 56.0714 71.4052 59.4041 69.4077C62.6637 67.454 64.4978 65.3623 64.9737 63.2207C65.4671 61.0004 64.4378 59.067 62.7797 57.6498C61.7368 56.7584 60.4367 56.622 59.199 56.8326C57.9723 57.0413 56.6899 57.6052 55.492 58.2818C53.0892 59.6388 50.7718 61.5977 49.4962 62.7321C48.1268 63.9454 47.5625 65.0169 47.5044 65.9518C47.4999 66.024 47.4986 66.0941 47.5 66.162C47.3172 66.2097 47.1111 66.2635 46.8833 66.323C45.854 66.592 44.3809 66.9781 42.6058 67.4467C39.056 68.3839 34.2971 69.6512 29.4628 70.9716C24.6299 72.2916 19.7157 73.6662 15.8573 74.8175C13.9293 75.3929 12.2561 75.9151 10.9853 76.3485C10.3507 76.5649 9.80639 76.7626 9.3765 76.9363C8.97617 77.0982 8.58846 77.2726 8.33264 77.4535C7.9822 77.7013 7.67878 77.9741 7.46811 78.2856C7.24851 78.6103 7.10311 79.0217 7.17952 79.4779C7.25334 79.9185 7.50659 80.2321 7.73571 80.4327C7.96362 80.6322 8.22615 80.7733 8.45718 80.8746C8.92011 81.0776 9.44158 81.1996 9.81263 81.2703C10.0051 81.307 10.1723 81.3326 10.2923 81.3492C10.3526 81.3575 10.4015 81.3637 10.4365 81.3678L10.4784 81.3727L10.4909 81.374L10.495 81.3745L10.4965 81.3746C10.4968 81.3746 10.4976 81.3747 10.6 80.38L10.4976 81.3747L10.8687 81.3432L49.2709 70.6309Z" fill="#1B1B1B"/>
<path d="M12.42 83.2C12.42 83.2 11.16 85.03 14.11 85.45L73.52 68.27C73.52 68.27 75.07 65.88 71.13 66.72C67.19 67.56 12.42 83.19 12.42 83.19V83.2Z" fill="#EAEAEA"/>
<path fill-rule="evenodd" clip-rule="evenodd" d="M74.3596 68.8133C74.3593 68.8137 74.359 68.8141 73.52 68.27L74.359 68.8141L73.7978 69.2307L14.3878 86.4107L13.9691 86.44C13.1371 86.3216 12.4729 86.0879 11.9878 85.7108C11.4706 85.3089 11.2189 84.7907 11.1643 84.2723C11.1138 83.7931 11.2369 83.378 11.3422 83.1176C11.3974 82.9811 11.4551 82.8689 11.5007 82.7881C11.5237 82.7474 11.5442 82.7136 11.5605 82.6877C11.5687 82.6746 11.5759 82.6635 11.5819 82.6544L11.5901 82.6422L11.5935 82.6372L11.595 82.6349L11.5957 82.6339C11.5959 82.6336 11.5961 82.6333 11.7568 82.7437L12.1456 82.2284L12.42 83.19C12.1456 82.2284 12.1452 82.2285 12.1456 82.2284L14.507 81.5551C16.0125 81.126 18.1675 80.5121 20.7658 79.7729C25.9623 78.2944 32.9322 76.3142 40.0253 74.3078C54.1787 70.3042 68.9091 66.171 70.9215 65.742C71.9565 65.5213 72.7816 65.4753 73.4165 65.6398C73.7493 65.7261 74.063 65.8788 74.3158 66.1253C74.574 66.377 74.7178 66.6772 74.7806 66.9715C74.8957 67.5117 74.7359 68.0121 74.6301 68.2787C74.57 68.4302 74.5061 68.5573 74.4572 68.6471C74.4324 68.6927 74.4106 68.7302 74.3937 68.7583C74.3853 68.7723 74.378 68.7841 74.3722 68.7935L74.3645 68.8057L74.3615 68.8104L74.3602 68.8124L74.3596 68.8133ZM13.1543 84.0205C13.1523 84.0384 13.1522 84.0526 13.1533 84.0627C13.1542 84.0712 13.1552 84.0717 13.1553 84.0718C13.1559 84.073 13.1589 84.0782 13.1668 84.0874C13.1748 84.0967 13.1897 84.112 13.2151 84.1317C13.3112 84.2064 13.5463 84.3351 14.0478 84.427L72.4329 67.5434C72.1766 67.5533 71.821 67.5952 71.3386 67.698C69.411 68.109 54.7864 72.2108 40.5697 76.2323C33.4779 78.2383 26.509 80.2182 21.3131 81.6965C18.7151 82.4357 16.5604 83.0495 15.0552 83.4785L13.1543 84.0205Z" fill="#1B1B1B"/>
<path d="M15.3 86.89C15.3 86.89 14.1 88.76 17.07 89.08L75.82 69.77C75.82 69.77 77.28 67.32 73.37 68.31C69.46 69.3 15.3 86.89 15.3 86.89Z" fill="#EAEAEA"/>
<path fill-rule="evenodd" clip-rule="evenodd" d="M76.6796 70.281C76.6793 70.2815 76.6791 70.2819 75.82 69.77L76.6791 70.2819L76.1323 70.72L17.3823 90.03L16.9629 90.0742C16.1259 89.9841 15.4534 89.7733 14.9551 89.4136C14.4239 89.0301 14.1536 88.521 14.081 88.004C14.0139 87.5262 14.1233 87.1068 14.22 86.843C14.2707 86.7047 14.3248 86.5905 14.3677 86.5083C14.3894 86.4668 14.4088 86.4323 14.4243 86.4058C14.4321 86.3926 14.4389 86.3812 14.4446 86.3719L14.4524 86.3594L14.4556 86.3543L14.4571 86.352L14.4578 86.3509C14.4581 86.3504 14.4584 86.3499 15.3 86.89C14.9911 85.9389 14.9913 85.9388 14.9918 85.9387L17.3263 85.181C18.815 84.6981 20.946 84.0071 23.5155 83.1747C28.6543 81.5101 35.547 79.2803 42.562 77.0194C56.5603 72.508 71.1287 67.8459 73.1246 67.3406C74.1516 67.0805 74.9752 67.0032 75.6164 67.1436C75.9524 67.2172 76.2719 67.3581 76.5339 67.5949C76.8016 67.8368 76.9568 68.1315 77.0307 68.4233C77.1663 68.959 77.0256 69.4655 76.9298 69.7361C76.8754 69.8899 76.8164 70.0195 76.7709 70.1112C76.7478 70.1576 76.7274 70.196 76.7116 70.2247C76.7037 70.2391 76.6969 70.2512 76.6914 70.2608L76.6842 70.2732L76.6813 70.2781L76.6801 70.2801L76.6796 70.281ZM15.3 86.89L14.9918 85.9387L14.4584 86.3499L15.3 86.89ZM16.0606 87.6944C16.06 87.7075 16.0605 87.7181 16.0616 87.726C16.0623 87.7309 16.063 87.7329 16.063 87.733L16.0635 87.734C16.0642 87.7351 16.0673 87.7402 16.0756 87.7491C16.0841 87.7582 16.0996 87.773 16.1259 87.792C16.2253 87.8638 16.4659 87.9845 16.9719 88.0596L74.7079 69.0829C74.4515 69.1023 74.0963 69.1576 73.6155 69.2794C71.7014 69.764 57.2347 74.392 43.1755 78.923C36.1618 81.1834 29.2701 83.413 24.1318 85.0774C21.5626 85.9096 19.4319 86.6006 17.9434 87.0834L16.0606 87.6944Z" fill="#1B1B1B"/>
<path d="M170.35 29.4C170.16 31.24 163.95 32.72 156.31 32.72C148.67 32.72 142.89 31.34 142.31 29.59C142.28 29.5 142.26 29.4 142.26 29.31C142.26 27.42 148.55 25.9 156.31 25.9C164.07 25.9 170.36 27.42 170.36 29.31C170.36 29.34 170.36 29.37 170.35 29.4Z" fill="white"/>
<path d="M160.56 55.48H160.58C166.25 55.93 170.36 57.22 170.36 58.74C170.36 60.62 164.07 62.15 156.31 62.15C148.55 62.15 142.26 60.62 142.26 58.74C142.26 57.21 146.4 55.92 152.11 55.49C151.82 54.27 150.83 52.69 148.06 51.34C142.66 48.71 142.31 43.16 142.31 43.16V40.08H145.03C145.03 43.51 146.31 50.19 156.31 50.19H156.37C166.37 50.19 167.65 43.49 167.65 40.07H170.35V43.16C170.35 43.16 170 48.71 164.61 51.34C161.84 52.69 160.86 54.26 160.56 55.48Z" fill="white"/>
<path d="M170.35 29.4V40.07H167.65C167.65 38.89 167.5 38.1 167.5 38.1H167.44C167.44 36.61 162.45 35.4 156.31 35.4V32.72C163.95 32.72 170.16 31.24 170.35 29.4Z" fill="white"/>
<path d="M167.5 38.1C167.5 38.1 167.65 38.89 167.65 40.07C167.65 43.49 166.37 50.19 156.37 50.19H156.31C146.31 50.19 145.03 43.51 145.03 40.08C145.03 38.9 145.18 38.1 145.18 38.1C145.18 39.59 150.16 40.8 156.31 40.8C162.46 40.8 167.44 39.59 167.44 38.1H167.5Z" fill="#A4E0DD"/>
<path d="M167.44 38.1H145.18C145.18 36.61 150.16 35.4 156.31 35.4C162.46 35.4 167.44 36.61 167.44 38.1Z" fill="#B1E8E5"/>
<path d="M145.18 38.1H167.44C167.44 39.59 162.45 40.8 156.31 40.8C150.17 40.8 145.18 39.59 145.18 38.1Z" fill="#B1E8E5"/>
<path d="M156.31 32.72V35.4C150.16 35.4 145.18 36.61 145.18 38.1C145.18 38.1 145.03 38.9 145.03 40.08H142.31V29.59C142.89 31.34 148.94 32.72 156.31 32.72Z" fill="white"/>
<path fill-rule="evenodd" clip-rule="evenodd" d="M143.862 28.847C143.454 29.0813 143.32 29.2442 143.277 29.3098C143.333 29.3985 143.533 29.6285 144.119 29.9249C144.761 30.2497 145.691 30.564 146.885 30.8363C149.265 31.379 152.542 31.72 156.31 31.72C160.075 31.72 163.457 31.3545 165.893 30.777C167.118 30.4866 168.054 30.1542 168.671 29.8172C169.151 29.5553 169.298 29.3702 169.341 29.3066C169.296 29.239 169.159 29.0775 168.758 28.847C168.165 28.5063 167.24 28.1663 166.009 27.8681C163.565 27.2755 160.135 26.9 156.31 26.9C152.485 26.9 149.055 27.2755 146.611 27.8681C145.38 28.1663 144.455 28.5063 143.862 28.847ZM169.401 29.0838L169.363 29.2603C169.367 29.2196 169.377 29.1571 169.401 29.0838ZM143.258 29.2757C143.258 29.2751 143.258 29.2745 143.258 29.274L142.31 29.59L143.258 29.2757ZM146.139 25.9244C148.78 25.2845 152.375 24.9 156.31 24.9C160.245 24.9 163.84 25.2845 166.481 25.9244C167.793 26.2424 168.925 26.6368 169.754 27.1127C170.508 27.5458 171.36 28.2521 171.36 29.31C171.36 29.3103 171.36 29.311 171.36 29.3121C171.36 29.329 171.363 29.4366 171.336 29.573C171.202 30.5295 170.376 31.1654 169.63 31.5728C168.79 32.0308 167.661 32.4133 166.354 32.723C163.728 33.3455 160.185 33.72 156.31 33.72C152.438 33.72 149.005 33.371 146.44 32.7862C145.162 32.4948 144.06 32.136 143.217 31.7098C142.427 31.3107 141.638 30.7402 141.361 29.9046L142.31 29.59L141.361 29.9062C141.307 29.7434 141.26 29.5344 141.26 29.31C141.26 28.2521 142.112 27.5458 142.866 27.1127C143.695 26.6368 144.827 26.2424 146.139 25.9244Z" fill="#1B1B1B"/>
<path fill-rule="evenodd" clip-rule="evenodd" d="M143.278 58.7384C143.311 58.689 143.391 58.5944 143.579 58.4594C143.937 58.2024 144.523 57.9227 145.352 57.6536C146.998 57.1196 149.375 56.6988 152.185 56.4872L152.035 54.4928C149.135 54.7111 146.587 55.1503 144.735 55.7513C143.816 56.0497 143.01 56.4063 142.413 56.8349C141.843 57.2443 141.26 57.8725 141.26 58.74C141.26 59.7969 142.114 60.5019 142.866 60.9333C143.695 61.4084 144.827 61.803 146.139 62.1217C148.779 62.7629 152.374 63.15 156.31 63.15C160.246 63.15 163.841 62.7629 166.481 62.1217C167.793 61.803 168.925 61.4084 169.754 60.9333C170.506 60.5019 171.36 59.7969 171.36 58.74C171.36 57.8758 170.78 57.2497 170.214 56.8415C169.621 56.4141 168.82 56.058 167.907 55.7595C166.068 55.1583 163.537 54.7164 160.657 54.493L160.503 56.487C163.293 56.7035 165.652 57.1266 167.286 57.6605C168.109 57.9295 168.69 58.2084 169.045 58.464C169.229 58.5967 169.309 58.6899 169.342 58.739C169.298 58.805 169.163 58.9666 168.758 59.1985C168.165 59.539 167.239 59.8794 166.009 60.1782C163.564 60.772 160.134 61.15 156.31 61.15C152.486 61.15 149.056 60.772 146.611 60.1782C145.381 59.8794 144.455 59.539 143.862 59.1985C143.456 58.9659 143.321 58.804 143.278 58.7384Z" fill="#1B1B1B"/>
<path d="M141.31 29.31H143.31V43.1201L143.311 43.1294C143.314 43.16 143.319 43.2097 143.327 43.2764C143.345 43.4101 143.375 43.6112 143.428 43.8639C143.534 44.3707 143.727 45.0767 144.074 45.8577C144.765 47.4143 146.059 49.2529 148.498 50.441C151.471 51.8902 152.707 53.6825 153.082 55.2562C153.256 55.9694 153.245 56.5867 153.187 57.0342C153.158 57.2583 153.117 57.4412 153.081 57.5747C153.063 57.6416 153.046 57.6964 153.032 57.7381C153.025 57.7589 153.019 57.7766 153.014 57.7908L153.007 57.8097L153.004 57.8173L153.003 57.8206L153.002 57.8221C153.002 57.8221 153.002 57.8235 152.07 57.46C151.138 57.0965 151.138 57.0972 151.138 57.0972L151.137 57.0991L151.136 57.1015L151.135 57.1055L151.133 57.1101C151.133 57.1103 151.133 57.1102 151.133 57.1102L151.133 57.1101C151.133 57.1099 151.134 57.1091 151.134 57.107C151.137 57.0993 151.143 57.0811 151.15 57.0531C151.165 56.9969 151.187 56.903 151.203 56.7783C151.235 56.5288 151.244 56.1622 151.138 55.7266L151.137 55.7213C150.931 54.8556 150.187 53.489 147.622 52.239C144.662 50.7971 143.08 48.5457 142.246 46.6698C141.831 45.7345 141.599 44.8887 141.47 44.2726C141.406 43.9639 141.367 43.711 141.344 43.5308C141.332 43.4406 141.325 43.3685 141.32 43.3166L141.31 29.31Z" fill="#1B1B1B"/>
<path fill-rule="evenodd" clip-rule="evenodd" d="M169.35 43.1201V29.31H171.35V43.16L171.348 43.2229L170.35 43.16C171.348 43.2229 171.348 43.2234 171.348 43.2239L171.348 43.225L171.348 43.2276L171.347 43.2344L171.346 43.2539C171.345 43.2696 171.343 43.2905 171.34 43.3165C171.335 43.3685 171.328 43.4405 171.316 43.5307C171.293 43.7108 171.254 43.9637 171.19 44.2724C171.062 44.8884 170.83 45.7341 170.415 46.6692C169.583 48.5449 168.004 50.7965 165.049 52.2387L165.048 52.2389C162.485 53.4879 161.746 54.8456 161.531 55.7188L161.53 55.7245L161.53 55.7245C161.421 56.1556 161.43 56.5209 161.463 56.7707C161.479 56.8956 161.501 56.9899 161.517 57.0466C161.525 57.0748 161.531 57.0932 161.533 57.101C161.535 57.1048 161.535 57.106 161.535 57.1043L161.533 57.0996L161.531 57.0956L161.53 57.0932L161.53 57.0919L161.53 57.0912C161.529 57.0909 161.529 57.0905 160.6 57.46C159.671 57.8295 159.671 57.8291 159.67 57.8287L159.67 57.828L159.67 57.8265L159.668 57.8232L159.665 57.8156L159.658 57.7965C159.653 57.7821 159.646 57.7643 159.639 57.7432C159.625 57.7011 159.608 57.6457 159.589 57.5781C159.552 57.4432 159.51 57.2582 159.48 57.0318C159.42 56.5798 159.409 55.956 159.59 55.2384C159.976 53.6723 161.196 51.8913 164.172 50.4411C166.606 49.2533 167.897 47.415 168.587 45.8583C168.934 45.0772 169.126 44.371 169.232 43.8642C169.285 43.6114 169.315 43.4102 169.333 43.2766C169.341 43.2098 169.346 43.1601 169.349 43.1294C169.349 43.1261 169.35 43.123 169.35 43.1201ZM169.352 43.0962L169.352 43.0944L169.352 43.0955L169.352 43.0962Z" fill="#1B1B1B"/>
<path d="M154.29 85.26L140.88 105.33C140.88 105.33 132.81 114.73 116.8 114.73H108.24C92.23 114.73 84.16 105.33 84.16 105.33L70.75 85.26" fill="#CEEAE4"/>
<path fill-rule="evenodd" clip-rule="evenodd" d="M84.1599 105.33L83.4012 105.981L83.3285 105.886L69.9185 85.8156L71.5814 84.7045L84.9538 104.718C84.9643 104.73 84.9771 104.744 84.9921 104.76C85.0477 104.821 85.1344 104.914 85.2521 105.034C85.4876 105.274 85.8469 105.624 86.3297 106.046C87.2957 106.892 88.7537 108.028 90.701 109.167C94.5918 111.442 100.439 113.73 108.24 113.73H116.8C124.6 113.73 130.448 111.442 134.339 109.167C136.286 108.028 137.744 106.892 138.71 106.046C139.193 105.624 139.552 105.274 139.788 105.034C139.905 104.914 139.992 104.821 140.048 104.76C140.063 104.744 140.076 104.73 140.086 104.718L153.458 84.7045L155.121 85.8156L141.711 105.886L141.639 105.981L140.88 105.33C141.639 105.981 141.638 105.982 141.638 105.982L141.637 105.983L141.635 105.986L141.628 105.994L141.605 106.02C141.586 106.042 141.558 106.072 141.523 106.111C141.453 106.188 141.35 106.297 141.216 106.434C140.948 106.708 140.551 107.093 140.028 107.551C138.98 108.468 137.42 109.682 135.348 110.893C131.202 113.318 125.01 115.73 116.8 115.73H108.24C100.03 115.73 93.838 113.318 89.6914 110.893C87.6199 109.682 86.0598 108.468 85.0124 107.551C84.4885 107.093 84.0922 106.708 83.8238 106.434C83.6896 106.297 83.5872 106.188 83.5168 106.111C83.4816 106.072 83.4544 106.042 83.4351 106.02L83.4122 105.994L83.4052 105.986L83.4028 105.983L83.4019 105.982C83.4015 105.982 83.4012 105.981 84.1599 105.33Z" fill="#1B1B1B"/>
<path d="M112.69 99.83C137.885 99.83 158.31 88.5431 158.31 74.62C158.31 60.6969 137.885 49.41 112.69 49.41C87.4948 49.41 67.0701 60.6969 67.0701 74.62C67.0701 88.5431 87.4948 99.83 112.69 99.83Z" fill="#CEEAE4"/>
<path fill-rule="evenodd" clip-rule="evenodd" d="M80.9155 57.6691C72.7993 62.1542 68.0701 68.1893 68.0701 74.62C68.0701 81.0508 72.7993 87.0858 80.9155 91.5709C88.9968 96.0367 100.229 98.83 112.69 98.83C125.151 98.83 136.383 96.0367 144.465 91.5709C152.581 87.0858 157.31 81.0508 157.31 74.62C157.31 68.1893 152.581 62.1542 144.465 57.6691C136.383 53.2034 125.151 50.41 112.69 50.41C100.229 50.41 88.9968 53.2034 80.9155 57.6691ZM79.9482 55.9186C88.3781 51.2602 99.9561 48.41 112.69 48.41C125.424 48.41 137.002 51.2602 145.432 55.9186C153.827 60.5577 159.31 67.1277 159.31 74.62C159.31 82.1124 153.827 88.6823 145.432 93.3214C137.002 97.9799 125.424 100.83 112.69 100.83C99.9561 100.83 88.3781 97.9799 79.9482 93.3214C71.5532 88.6823 66.0701 82.1124 66.0701 74.62C66.0701 67.1277 71.5532 60.5577 79.9482 55.9186Z" fill="#1B1B1B"/>
<path d="M98.8099 57.16C98.8099 57.16 98.9099 53.13 104.24 54.56C104.24 54.56 107.92 53.23 110.09 55.84H115.22C115.22 55.84 118.35 54.84 121.37 55.52C124.39 56.2 125.41 52.92 130.14 54.56C134.87 56.2 132.4 54.86 137.75 57.89C137.75 57.89 141.39 57.47 141.45 61.54L140.87 64.21L141.45 61.54C141.45 61.54 144.53 61.01 146.59 62.51C148.65 64.01 147.82 66 147.82 66C147.82 66 150.49 65.25 150.7 67.92C150.91 70.59 150.7 71.86 150.7 71.86C150.7 71.86 152.76 71.32 152.76 72.6C152.76 73.88 155.95 79.57 147.17 86.45L144.38 88.76C144.38 88.76 137.59 93.48 132.89 94.03L125.83 94.85C125.83 94.85 116.07 98.34 97.4099 94.92" fill="#8AD953"/>
<path d="M95.6199 61.93C95.6199 61.93 105.18 57.64 109.78 60.2L106.67 61.65C106.67 61.65 109.34 63.89 112.14 63.05C114.94 62.21 113.82 60.16 117.74 60.2C121.66 60.24 112.14 58.01 112.14 58.01C112.14 58.01 118.3 54.98 122.08 57.48C125.86 59.97 129.78 58.74 129.78 58.74L121.33 61.51L125.72 61.93C125.72 61.93 120.96 62.35 119.84 62.91C118.72 63.47 114.24 65.34 114.24 65.34L122.08 64.73C122.08 64.73 118.02 66.01 117.04 66.14C116.06 66.27 109.78 67.3 109.78 67.3L112.14 64.73H108.08L105.29 67.3L95.6299 61.93H95.6199Z" fill="#57A620"/>
<path d="M110.1 79.98C110.1 79.98 112.45 75.55 117.8 75.55C117.8 75.55 114.16 74.94 110.94 76.2C110.94 76.2 116.96 73.23 118.36 73.6L119.76 73.97C119.76 73.97 124.1 75.47 128.16 75.56C132.22 75.65 137 72.02 143.29 72.02C143.29 72.02 133.9 75.37 133.76 77.05C133.62 78.73 123.96 79.99 123.96 79.99C123.96 79.99 118.5 76.07 110.1 79.99V79.98Z" fill="#57A620"/>
<path d="M101.53 85.53C101.53 85.53 103.89 83.99 110.32 85.53C110.32 85.53 115.08 86.09 119.56 85.67C119.56 85.67 116.62 87.07 111.44 86.93C106.26 86.79 116.9 88.61 123.06 86.65C129.22 84.69 123.34 82.45 133.14 80.77C133.14 80.77 129.29 82.17 129.33 83.01C129.37 83.85 133.73 81.05 138.05 81.05C138.05 81.05 131.04 84.39 124.74 89.65C124.74 89.65 121.24 92.01 117.88 91.71C117.88 91.71 119.98 90.69 121.1 89.65C122.22 88.61 114.64 91.87 110.52 91.71C106.4 91.55 97.0299 91.71 97.0299 91.71L105.33 89.65H92.4099C92.4099 89.65 98.7499 85.25 101.53 85.53Z" fill="#57A620"/>
<path fill-rule="evenodd" clip-rule="evenodd" d="M125.038 55.8137C124.043 56.2784 122.789 56.8645 121.15 56.4956C119.803 56.1923 118.399 56.2593 117.303 56.4151C116.761 56.4922 116.308 56.5891 115.993 56.6659C115.836 56.7042 115.714 56.7374 115.634 56.7603C115.594 56.7717 115.564 56.7805 115.545 56.7861L115.526 56.792L115.524 56.7926C115.524 56.7926 115.524 56.7927 115.524 56.7926L115.22 56.84H110.09L109.321 56.4794C108.495 55.4864 107.375 55.2159 106.356 55.2213C105.849 55.2239 105.394 55.2965 105.065 55.3694C104.902 55.4055 104.773 55.441 104.688 55.4663C104.646 55.4789 104.615 55.4889 104.596 55.495L104.578 55.5011L104.579 55.5008C104.579 55.5008 104.579 55.501 104.579 55.5008L103.981 55.5259C102.757 55.1976 101.925 55.2077 101.37 55.337C100.831 55.4623 100.506 55.71 100.294 55.9643C100.07 56.2324 99.9447 56.5433 99.8765 56.8049C99.8431 56.9329 99.8259 57.0403 99.8172 57.1111C99.8129 57.1463 99.8108 57.1715 99.8099 57.1847L99.8093 57.1949C99.8093 57.1949 99.8093 57.1942 99.8094 57.1925L99.8095 57.1894L99.8095 57.1873L99.8096 57.1861C99.8096 57.1855 99.8096 57.1848 98.8099 57.16C97.8102 57.1352 97.8102 57.1346 97.8102 57.1339L97.8103 57.1324L97.8104 57.1293L97.8106 57.1217L97.8114 57.1022C97.8121 57.0871 97.8132 57.0682 97.8147 57.0456C97.8179 57.0004 97.8232 56.9405 97.832 56.8682C97.8496 56.7242 97.8818 56.5279 97.9411 56.3005C98.0583 55.8512 98.2906 55.2439 98.7582 54.6833C99.2374 54.1088 99.9367 53.6171 100.916 53.3891C101.815 53.1798 102.902 53.203 104.214 53.5214C104.327 53.4896 104.468 53.453 104.633 53.4167C105.061 53.3218 105.662 53.2249 106.346 53.2213C107.602 53.2147 109.232 53.5276 110.532 54.84H115.074C115.078 54.8389 115.083 54.8377 115.087 54.8365C115.189 54.8074 115.336 54.7677 115.519 54.7229C115.886 54.6335 116.404 54.5229 117.022 54.435C118.246 54.2608 119.917 54.1678 121.59 54.5445C122.52 54.7539 123.114 54.4844 124.097 54.0388C124.287 53.9526 124.492 53.8597 124.716 53.7624C125.375 53.4769 126.155 53.196 127.117 53.1171C128.082 53.038 129.172 53.1662 130.467 53.6152C131.634 54.0195 132.351 54.2385 132.855 54.3869C132.942 54.4125 133.025 54.4367 133.104 54.4599C133.47 54.5663 133.768 54.6531 134.073 54.7712C134.718 55.0209 135.429 55.4242 137.383 56.5323C137.574 56.6406 137.776 56.7556 137.992 56.8779C138.104 56.877 138.238 56.8798 138.39 56.8905C138.808 56.92 139.385 57.0117 139.98 57.2735C140.583 57.539 141.209 57.9825 141.683 58.7041C142.001 59.1898 142.231 59.771 142.352 60.4563C142.631 60.4461 142.952 60.4453 143.301 60.464C144.414 60.5235 145.923 60.7876 147.179 61.7016C148.467 62.6396 148.905 63.7924 148.975 64.7447C148.979 64.8042 148.982 64.8625 148.984 64.9197C149.114 64.9318 149.25 64.9512 149.387 64.9803C149.88 65.0842 150.442 65.3202 150.898 65.8178C151.359 66.3202 151.631 67.0004 151.697 67.8416C151.796 69.1005 151.805 70.0663 151.784 70.7515C152.116 70.7681 152.583 70.8382 152.995 71.1136C153.475 71.4357 153.76 71.9595 153.76 72.6C153.76 72.5984 153.76 72.5975 153.76 72.5975C153.76 72.5975 153.762 72.6284 153.777 72.7074C153.793 72.7939 153.817 72.9025 153.852 73.0467C153.864 73.0945 153.876 73.1454 153.889 73.1992C153.952 73.4573 154.031 73.7818 154.102 74.1431C154.277 75.0296 154.417 76.1878 154.25 77.5469C153.912 80.301 152.343 83.6633 147.797 87.2288L145.018 89.5303L144.951 89.5811L144.38 88.76C144.951 89.5811 144.951 89.581 144.951 89.5811L144.944 89.5858L144.928 89.5972L144.866 89.6393C144.813 89.6757 144.735 89.7285 144.634 89.7955C144.434 89.9294 144.144 90.1201 143.782 90.3502C143.058 90.8099 142.043 91.4289 140.877 92.0663C138.582 93.3204 135.563 94.724 133.006 95.0233L126.05 95.8312C126.042 95.8338 126.034 95.8365 126.025 95.8394C125.94 95.8671 125.816 95.9059 125.655 95.9531C125.332 96.0475 124.858 96.1756 124.235 96.3171C122.987 96.6002 121.141 96.9366 118.71 97.1632C113.848 97.6166 106.651 97.6303 97.2296 95.9037L97.5902 93.9364C106.829 95.6297 113.842 95.6084 118.525 95.1719C120.866 94.9535 122.626 94.6312 123.792 94.3667C124.375 94.2345 124.809 94.1167 125.093 94.0336C125.235 93.992 125.34 93.9591 125.406 93.9374C125.44 93.9266 125.464 93.9185 125.478 93.9136L125.493 93.9085L125.494 93.9082C125.494 93.9082 125.494 93.9081 125.494 93.9082L125.715 93.8567L132.774 93.0368C134.916 92.7858 137.643 91.5546 139.918 90.3113C141.036 89.6999 142.013 89.1046 142.709 88.6621C143.057 88.4411 143.334 88.2587 143.524 88.1324C143.618 88.0692 143.691 88.02 143.739 87.9871L143.776 87.9615L146.532 85.6798L146.553 85.6629C150.779 82.3515 152.003 79.4319 152.265 77.3031C152.398 76.2197 152.289 75.2855 152.14 74.5301C152.078 74.2162 152.011 73.9416 151.949 73.6847C151.935 73.627 151.921 73.5703 151.908 73.5142L151.906 73.5069C151.855 73.2941 151.788 73.0159 151.767 72.7557C151.742 72.7529 151.714 72.7504 151.681 72.7489C151.518 72.7409 151.335 72.7585 151.178 72.7833C151.104 72.7952 151.042 72.8075 151.001 72.8164C150.981 72.8209 150.966 72.8243 150.958 72.8264L150.953 72.8274C150.953 72.8274 150.954 72.8281 150.953 72.8274L149.714 71.6974C149.713 71.6973 149.714 71.6974 149.714 71.6974L149.717 71.6679C149.721 71.6383 149.727 71.5885 149.735 71.5184C149.749 71.3781 149.767 71.1564 149.779 70.851C149.804 70.2404 149.805 69.295 149.703 67.9984C149.664 67.5047 149.523 67.2773 149.424 67.1695C149.321 67.0567 149.176 66.9796 148.975 66.9373C148.768 66.8936 148.542 66.8969 148.352 66.9183C148.261 66.9286 148.187 66.942 148.139 66.952C148.115 66.957 148.098 66.961 148.09 66.9631C148.085 66.9642 148.083 66.9648 148.083 66.9647L148.085 66.9643L148.087 66.9636L148.09 66.9631C148.09 66.9631 148.09 66.963 148.089 66.9615L146.898 65.6166C146.897 65.616 146.897 65.6161 146.897 65.6161L146.896 65.6171L146.895 65.6189L146.894 65.6221L146.892 65.6277C146.893 65.6252 146.896 65.6165 146.901 65.602C146.91 65.5728 146.925 65.5218 146.94 65.4534C146.97 65.3145 146.997 65.1169 146.98 64.8903C146.95 64.4727 146.773 63.8805 146.001 63.3184C145.196 62.7324 144.136 62.5115 143.194 62.4611C142.846 62.4425 142.53 62.4479 142.273 62.4619L141.847 64.4223L139.893 63.9978L140.447 61.4445C140.42 60.6428 140.227 60.1316 140.01 59.8013C139.784 59.457 139.489 59.2423 139.175 59.1041C138.852 58.9621 138.516 58.9044 138.249 58.8855C138.118 58.8763 138.012 58.8768 137.942 58.8793C137.907 58.8805 137.882 58.8822 137.869 58.8833L137.858 58.8841L137.861 58.8839L137.863 58.8837C137.863 58.8837 137.864 58.8836 137.864 58.8833L137.257 58.7602C136.992 58.6102 136.747 58.4713 136.52 58.3426C134.407 57.1452 133.851 56.8297 133.351 56.6363C133.133 56.5519 132.934 56.4937 132.577 56.3897C132.491 56.3646 132.396 56.3368 132.29 56.3054C131.759 56.1491 131.011 55.9205 129.812 55.5049C128.742 55.1339 127.931 55.0571 127.281 55.1104C126.627 55.164 126.076 55.3532 125.511 55.5977C125.36 55.6631 125.202 55.7367 125.038 55.8137ZM104.576 55.5017C104.576 55.5018 104.577 55.5016 104.578 55.5011L104.576 55.5017ZM149.714 71.6974L149.713 71.6986L149.713 71.6998C149.713 71.6994 149.714 71.6993 149.714 71.6974Z" fill="#1B1B1B"/>
<path d="M134.64 83.95C134.64 83.95 142.04 73.76 147.38 73.82V87.29C147.38 87.29 139.57 93.2 134.64 83.95Z" fill="#FF6950"/>
<path fill-rule="evenodd" clip-rule="evenodd" d="M146.96 87.5736C145.318 88.6076 139.215 91.7516 134.974 84.547L135.66 83.75L142.89 82.31L146.96 87.5736Z" fill="#FF4E36"/>
<path fill-rule="evenodd" clip-rule="evenodd" d="M135.831 84.0309C136.906 85.861 138.069 86.9097 139.174 87.4884C140.385 88.1224 141.61 88.2371 142.734 88.0965C143.869 87.9546 144.886 87.5535 145.631 87.1767C145.935 87.0227 146.189 86.8754 146.38 86.7568V74.9435C145.565 75.1426 144.656 75.5775 143.685 76.2139C142.321 77.1075 140.951 78.3221 139.718 79.5665C138.488 80.8066 137.419 82.0524 136.655 82.9902C136.313 83.4097 136.034 83.7661 135.831 84.0309ZM147.38 87.29L147.983 88.0874L148.38 87.29V73.82L147.391 72.8201C145.76 72.8018 144.092 73.5554 142.588 74.5412C141.062 75.5413 139.581 76.8629 138.297 78.1586C137.009 79.4584 135.895 80.7564 135.104 81.7273C134.708 82.2135 134.392 82.6196 134.174 82.9052C134.064 83.0481 133.98 83.1609 133.922 83.2388C133.893 83.2777 133.871 83.3079 133.855 83.3287L133.838 83.3528L133.833 83.3595L133.831 83.3614C133.831 83.3616 133.831 83.3624 134.64 83.95L133.831 83.3624L133.757 84.4204C135.063 86.8706 136.607 88.4012 138.246 89.2601C139.887 90.1195 141.538 90.2617 142.983 90.081C144.417 89.9017 145.66 89.4034 146.534 88.9612C146.974 88.7386 147.328 88.5261 147.576 88.367C147.699 88.2873 147.797 88.2207 147.866 88.1724C147.9 88.1483 147.927 88.1287 147.947 88.1143L147.971 88.0967L147.978 88.091L147.981 88.089L147.982 88.0881C147.983 88.0878 147.983 88.0874 147.38 87.29Z" fill="#1B1B1B"/>
<path d="M104.25 60.27C104.25 60.27 107.71 54.05 115.23 55.85V60.12L104.25 60.28V60.27Z" fill="#FF4E36"/>
<path fill-rule="evenodd" clip-rule="evenodd" d="M104.25 60.2699L103.376 59.7839L103.25 60.27V60.28L104.265 61.2799L115.245 61.1199L116.23 60.12V55.85L115.463 54.8775C111.369 53.8976 108.327 55.1062 106.327 56.5799C105.338 57.3088 104.609 58.0969 104.126 58.7034C103.884 59.0075 103.701 59.2686 103.577 59.4576C103.515 59.5522 103.468 59.6291 103.434 59.6846C103.417 59.7124 103.404 59.7348 103.395 59.7515L103.383 59.7722L103.379 59.7792L103.377 59.7818L103.377 59.7829C103.376 59.7834 103.376 59.7839 104.25 60.2699ZM106.304 59.25L114.23 59.1345V56.6659C111.202 56.1563 109 57.0943 107.513 58.1901C107.04 58.5387 106.637 58.9053 106.304 59.25Z" fill="#1B1B1B"/>
<path d="M116.86 69.0801V79.5601L132.89 76.0101C132.89 76.0101 132.07 67.6401 116.86 69.0801Z" fill="#FF6950"/>
<path fill-rule="evenodd" clip-rule="evenodd" d="M132.79 75.511C132.324 73.7296 129.799 67.8551 116.86 69.0801V69.1437C117.46 69.5303 120.585 71.6027 121.28 73.3C121.28 73.3 130.49 73.84 132.79 76.01V75.511Z" fill="#FF4E36"/>
<path fill-rule="evenodd" clip-rule="evenodd" d="M133.885 75.9108C133.885 75.9118 133.885 75.9127 132.89 76.0102L133.885 75.9127L133.106 76.9865L117.076 80.5365L115.86 79.5602V69.0802L116.766 68.0846C124.55 67.3476 128.872 69.1047 131.251 71.2648C132.43 72.3352 133.086 73.4661 133.448 74.3434C133.629 74.7811 133.736 75.1556 133.799 75.4286C133.831 75.5653 133.851 75.677 133.864 75.7591C133.871 75.8001 133.876 75.8338 133.879 75.8596L133.883 75.8923L133.884 75.904L133.885 75.9087L133.885 75.9108ZM131.66 75.2583C131.641 75.2092 131.621 75.1585 131.6 75.1063C131.333 74.4592 130.834 73.5876 129.906 72.7455C128.149 71.1497 124.683 69.5145 117.86 70.0004V78.3145L131.66 75.2583Z" fill="#1B1B1B"/>
<path d="M128.16 64.2201L134.53 57.9001C134.53 57.9001 125.28 54.4401 121.37 62.5101L128.15 64.2201H128.16Z" fill="#FF6950"/>
<path fill-rule="evenodd" clip-rule="evenodd" d="M131.985 57.3016C128.954 56.8747 123.976 57.1317 121.37 62.5101L125.708 63.6042C126.938 62.0178 130.439 57.9372 133.7 58.2601L131.985 57.3016Z" fill="#FF4E36"/>
<path fill-rule="evenodd" clip-rule="evenodd" d="M134.88 56.9631C134.88 56.9633 134.88 56.9635 134.53 57.9001L134.88 56.9635L135.234 58.61L128.864 64.93L128.16 65.2201H128.15L127.906 65.1897L121.126 63.4797L120.47 62.0741C122.626 57.624 126.307 56.3371 129.365 56.1802C130.878 56.1025 132.247 56.2971 133.233 56.5076C133.728 56.6133 134.131 56.7243 134.415 56.81C134.557 56.853 134.669 56.8897 134.747 56.9165C134.787 56.9299 134.818 56.9408 134.84 56.9488L134.867 56.9585L134.875 56.9616L134.878 56.9627L134.88 56.9631ZM132.589 58.4172C131.744 58.2513 130.648 58.1169 129.468 58.1775C127.199 58.294 124.648 59.116 122.878 61.8592L127.855 63.1143L132.589 58.4172Z" fill="black"/>
<path d="M132.35 63.9301L135.09 60.6401L141.19 58.9401L145.09 67.4001L141.6 70.6601L137.28 70.2401L132.35 63.9301Z" fill="#FFF24A"/>
<path fill-rule="evenodd" clip-rule="evenodd" d="M135.09 60.64L132.35 63.93L137.28 70.24L141.6 70.66L145.09 67.4L144.99 67.1831L139.83 66.88L135.09 60.64L135.09 60.64Z" fill="#FFDA00"/>
<path fill-rule="evenodd" clip-rule="evenodd" d="M135.659 61.5196L133.635 63.9501L137.804 69.2863L141.247 69.621L143.879 67.1625L140.638 60.1319L135.659 61.5196ZM134.822 59.6767L140.922 57.9767L142.098 58.5214L145.998 66.9814L145.773 68.1308L142.283 71.3908L141.503 71.6553L137.183 71.2353L136.492 70.8557L131.562 64.5457L131.582 63.2901L134.322 60.0001L134.822 59.6767Z" fill="#1B1B1B"/>
<path d="M120.49 89.15L125.83 94.85L132.89 94.02V88.06L127.96 83.75H122.13L120.49 89.15Z" fill="#FFF24A"/>
<path fill-rule="evenodd" clip-rule="evenodd" d="M122.019 84.1147L127.96 89.3L132.89 88.6587V94.02L125.83 94.85L120.49 89.15L122.019 84.1147Z" fill="#FFDA00"/>
<path fill-rule="evenodd" clip-rule="evenodd" d="M121.173 83.4594L122.13 82.75H127.96L128.618 82.9971L133.548 87.3071L133.89 88.06V94.02L133.007 95.0132L125.947 95.8432L125.1 95.5337L119.76 89.8337L119.533 88.8594L121.173 83.4594ZM122.871 84.75L121.615 88.8879L126.215 93.7979L131.89 93.1307V88.514L127.585 84.75H122.871Z" fill="#1B1B1B"/>
<path d="M103.45 69.68L105.91 72.6H111.67L113.4 67.9L109.61 65.23H104.68L103.45 69.68Z" fill="#FFF24A"/>
<path fill-rule="evenodd" clip-rule="evenodd" d="M104.68 65.23L107.88 68.91L113.4 67.9L111.67 72.6H105.91L103.45 69.68L104.68 65.23Z" fill="#FFDA00"/>
<path fill-rule="evenodd" clip-rule="evenodd" d="M103.716 64.9636L104.68 64.23H109.61L110.186 64.4125L113.976 67.0825L114.338 68.2455L112.608 72.9455L111.67 73.6H105.91L105.145 73.2443L102.685 70.3243L102.486 69.4136L103.716 64.9636ZM105.441 66.23L104.554 69.4387L106.375 71.6H110.972L112.196 68.2753L109.293 66.23H105.441Z" fill="#1B1B1B"/>
<path d="M79.3401 68.5101C79.3401 68.5101 79.6301 64.6901 77.1601 63.5101C74.6901 62.3301 75.1001 59.3701 75.1001 56.8501C75.1001 54.3301 70.3001 50.3301 69.7201 56.8501C69.1401 63.3701 67.9801 69.2801 71.4401 71.9801C74.9001 74.6801 65.2401 74.6601 72.4301 78.9801C79.6201 83.3101 85.3801 82.9601 87.0201 80.5601C88.6601 78.1601 89.0401 58.7101 83.7101 54.8601C81.5501 53.3001 75.5501 52.3601 75.3401 61.2701" fill="#8AD953"/>
<path fill-rule="evenodd" clip-rule="evenodd" d="M75.7904 55.4118C75.6221 55.0051 75.3974 54.6206 75.148 54.2796C74.6101 53.5443 73.8515 52.8666 72.9932 52.5293C72.0949 52.1763 71.0013 52.1837 70.1183 53.0184C69.3196 53.7735 68.8763 55.0485 68.7239 56.7615C68.6517 57.5739 68.5686 58.3893 68.4863 59.1982C68.2462 61.5559 68.0117 63.8587 68.0654 65.8742C68.1377 68.5941 68.7334 71.1364 70.8248 72.7684C71.0188 72.9198 71.1213 73.0296 71.1738 73.0962C71.1029 73.1768 70.9787 73.2891 70.7712 73.4475C70.7003 73.5016 70.604 73.5722 70.4971 73.6504C70.3059 73.7905 70.0812 73.9551 69.9091 74.0936C69.3703 74.5275 68.4384 75.3864 68.7576 76.6826C68.8997 77.2595 69.2677 77.781 69.7685 78.2672C70.2749 78.7589 70.981 79.2761 71.9145 79.837C71.9144 79.8369 71.9142 79.8368 71.9141 79.8367L72.43 78.9801L71.915 79.8372C71.9148 79.8372 71.9147 79.8371 71.9145 79.837C75.6128 82.0641 79.0051 83.1263 81.7459 83.292C84.4285 83.4541 86.7311 82.7553 87.8456 81.1243C88.1746 80.6429 88.3892 79.8979 88.547 79.1246C88.7144 78.3043 88.8473 77.2907 88.9408 76.1554C89.1281 73.8827 89.1628 71.0569 88.9766 68.1891C88.7908 65.3257 88.3825 62.3818 87.6677 59.887C86.9673 57.4424 85.9156 55.2196 84.2955 54.0494L84.2955 54.0494C83.0207 53.1287 80.6294 52.3701 78.438 53.2042C77.394 53.6016 76.4854 54.3204 75.7904 55.4118ZM76.3436 61.1526C76.5615 61.8179 76.9394 62.2964 77.5911 62.6077C79.2465 63.3986 79.8945 65.032 80.154 66.243C80.2882 66.8691 80.3336 67.4464 80.3463 67.8645C80.3526 68.0749 80.3508 68.2487 80.3472 68.3727C80.3454 68.4348 80.3431 68.4846 80.3412 68.5206L80.3386 68.5641L80.3377 68.5777L80.3374 68.5825L80.3372 68.5843L80.3372 68.5851C80.3371 68.5854 80.3371 68.5858 79.34 68.5101C78.3429 68.4344 78.3428 68.4347 78.3428 68.435L78.3429 68.434L78.3441 68.4131C78.3452 68.3926 78.3468 68.3592 78.3481 68.3145C78.3507 68.225 78.3522 68.0911 78.3472 67.925C78.337 67.59 78.3005 67.1385 78.1984 66.6621C77.9855 65.6682 77.5435 64.8015 76.7289 64.4124C75.1031 63.6357 74.4579 62.2495 74.2181 60.8516C74.0451 59.8427 74.0681 58.7009 74.0881 57.7059C74.0942 57.4046 74.1 57.1167 74.1 56.8501C74.1 56.5061 73.9195 55.9877 73.5339 55.4605C73.1537 54.9408 72.676 54.5535 72.2618 54.3908C71.8876 54.2438 71.6725 54.3014 71.4923 54.4718C71.2279 54.7216 70.8537 55.3917 70.7161 56.9387C70.6373 57.8239 70.5498 58.6846 70.4649 59.519C70.2296 61.8325 70.0147 63.9447 70.0646 65.821C70.1323 68.3611 70.6866 70.1237 72.0552 71.1917C72.551 71.5786 72.9684 72.0313 73.1377 72.5877C73.3293 73.2174 73.1453 73.7683 72.8668 74.1726C72.6165 74.536 72.2631 74.8248 71.9847 75.0373C71.8354 75.1512 71.7126 75.2404 71.5988 75.323C71.4507 75.4306 71.3182 75.5268 71.1634 75.6515C70.9192 75.8481 70.7889 75.9897 70.7272 76.0927C70.688 76.1581 70.6922 76.1748 70.6986 76.2007C70.699 76.2019 70.6993 76.2031 70.6996 76.2044C70.717 76.2753 70.801 76.4821 71.1616 76.8322C71.5165 77.1768 72.0812 77.6039 72.945 78.1229L72.9459 78.1234C76.4374 80.2261 79.52 81.1538 81.8666 81.2956C84.2715 81.441 85.6689 80.7648 86.1943 79.9959C86.2754 79.8772 86.4314 79.4894 86.5874 78.7247C86.7339 78.0068 86.8581 77.0771 86.9476 75.9912C87.1263 73.8218 87.161 71.0945 86.9808 68.3186C86.8004 65.5381 86.4069 62.7477 85.7451 60.4378C85.0689 58.0778 84.1694 56.4255 83.1244 55.6707C82.2392 55.0314 80.5506 54.5401 79.1495 55.0734C77.9028 55.548 76.4721 57.0145 76.3436 61.1526Z" fill="#1B1B1B"/>
<path d="M84.0401 80.5601C84.0401 80.5601 77.7701 76.9901 76.1301 80.5601C76.1301 80.5601 69.1401 76.7301 69.7601 82.4801C70.3801 88.2301 75.9301 89.6701 79.4201 89.2601C82.9101 88.8501 81.6301 98.3001 88.9501 90.2901" fill="#8AD953"/>
<path fill-rule="evenodd" clip-rule="evenodd" d="M84.5343 79.6907C84.5346 79.6909 84.5348 79.691 84.04 80.56C83.5452 81.429 83.5454 81.4291 83.5456 81.4292L83.5444 81.4286L83.5348 81.4232L83.4902 81.3986C83.4495 81.3764 83.3875 81.3431 83.3067 81.3012C83.145 81.2172 82.9094 81.0995 82.6208 80.9683C82.0389 80.7038 81.2635 80.3943 80.4559 80.191C79.633 79.9838 78.8645 79.9097 78.2582 80.0337C77.7039 80.147 77.2964 80.4164 77.0387 80.9775L75.6501 81.4368C75.6499 81.4372 75.6501 81.4368 75.6501 81.4368L75.638 81.4308C75.6277 81.4253 75.6112 81.4165 75.5889 81.4049C75.5442 81.3816 75.4765 81.3468 75.3892 81.3039C75.2142 81.2177 74.9628 81.0995 74.6626 80.9744C74.0511 80.7194 73.2857 80.4559 72.571 80.3537C71.8183 80.2461 71.3533 80.3493 71.1143 80.5384C70.9331 80.6818 70.6165 81.0952 70.7543 82.3728C71.0252 84.886 72.3454 86.4119 73.9892 87.3003C75.6778 88.2128 77.7237 88.4524 79.3033 88.2669C80.7471 88.0972 81.6295 89.0156 82.1751 89.8065C82.4136 90.1521 82.632 90.5368 82.8246 90.8762C82.8528 90.926 82.8805 90.9748 82.9076 91.0223C83.1331 91.4176 83.3282 91.7444 83.5345 92.0065C83.7392 92.2665 83.908 92.4006 84.05 92.4648C84.1679 92.5181 84.3329 92.5543 84.6155 92.4819C85.2725 92.3137 86.3943 91.6043 88.2118 89.6154L89.6882 90.9646C87.8457 92.9808 86.3826 94.0939 85.1117 94.4194C84.4304 94.5939 83.7958 94.5447 83.2262 94.2873C82.6806 94.0406 82.274 93.6386 81.963 93.2436C81.6537 92.8507 81.3931 92.4037 81.1703 92.0132C81.1403 91.9605 81.111 91.9089 81.0822 91.8583C80.8847 91.5109 80.7137 91.2101 80.529 90.9423C80.1043 90.3269 79.8379 90.2178 79.5367 90.2532C77.6263 90.4776 75.1523 90.2022 73.0383 89.0598C70.8796 87.8931 69.1148 85.824 68.7658 82.5872C68.5935 80.9898 68.9182 79.7257 69.8733 78.97C70.7705 78.2601 71.9367 78.2427 72.854 78.3738C73.8094 78.5104 74.7527 78.845 75.4324 79.1285C75.5514 79.1781 75.6638 79.2268 75.7684 79.2734C76.3295 78.6095 77.0693 78.2354 77.8575 78.0742C78.888 77.8635 79.9945 78.0124 80.9442 78.2515C81.909 78.4944 82.8036 78.8544 83.4486 79.1477C83.7735 79.2954 84.0405 79.4287 84.2281 79.526C84.3219 79.5747 84.3962 79.6146 84.4482 79.643C84.4742 79.6571 84.4946 79.6685 84.5091 79.6766L84.5265 79.6863L84.5318 79.6893L84.5343 79.6907Z" fill="#1B1B1B"/>
<path d="M106.51 95.05C106.51 95.05 106.3 88.37 111.03 87.29L123.94 95.05C123.94 95.05 113.08 97.11 106.5 95.05H106.51Z" fill="#FF4E36"/>
<path fill-rule="evenodd" clip-rule="evenodd" d="M106.346 95.0552C105.51 95.0814 105.51 95.0811 105.51 95.0807L105.51 95.0774L105.51 95.071L105.51 95.0508C105.509 95.0342 105.509 95.0113 105.509 94.9825C105.508 94.925 105.508 94.8438 105.51 94.742C105.514 94.5385 105.525 94.2515 105.555 93.9054C105.613 93.2171 105.743 92.2765 106.038 91.289C106.618 89.344 107.923 86.9738 110.807 86.3151L111.545 86.433L124.455 94.193L124.126 96.0325L123.94 95.05C124.126 96.0325 124.127 96.0325 124.126 96.0325L124.116 96.0344L124.09 96.0392L123.993 96.0569C123.909 96.0721 123.785 96.0938 123.627 96.1206C123.31 96.1741 122.852 96.2478 122.282 96.3296C121.144 96.493 119.557 96.6891 117.76 96.8199C114.201 97.0789 109.682 97.094 106.201 96.0044L106.346 95.0552ZM107.53 94.3024C110.539 95.0668 114.368 95.0615 117.615 94.8252C118.901 94.7316 120.077 94.6033 121.049 94.4788L110.882 88.3678C109.277 88.8961 108.417 90.3113 107.954 91.861C107.71 92.6786 107.598 93.4755 107.548 94.0734C107.541 94.1539 107.535 94.2303 107.53 94.3024Z" fill="#1B1B1B"/>
<path d="M80.7401 55.78C80.7401 55.78 85.4701 51.16 88.9901 53.25C88.9901 53.25 91.5201 55.03 92.1801 57.11C92.1801 57.11 97.4601 53.47 99.6601 59.63C99.6601 59.63 101.42 64.36 100.65 66.23C100.65 66.23 102.19 66.34 102.3 69.09C102.3 69.09 104.17 72.38 101.53 75.3C101.53 75.3 105.54 80 103.94 83.45C102.28 87 95.4801 88.68 91.0801 90.33C91.0801 90.33 103.34 84.99 104.72 88.13C105.92 90.85 101.86 94.29 99.5501 95.28L90.2001 93.63C90.2001 93.63 88.9901 91.98 91.0801 90.33C91.0801 90.33 87.3401 91.21 85.8001 87.91C84.2601 84.61 85.8001 81.86 85.8001 81.86C85.8001 81.86 82.9401 82.3 83.1601 77.68C83.3801 73.06 84.7001 72.07 84.7001 72.07C84.7001 72.07 81.9501 71.52 81.9501 66.9V62.28C81.9501 62.28 77.7701 58.65 80.7401 55.79V55.78Z" fill="#EFAC5B"/>
<path d="M92.2001 58.53C92.2001 58.53 89.2601 60.62 87.6101 60.73C85.9601 60.84 81.9601 62.27 81.9601 62.27C81.9601 62.27 80.6201 59.29 86.4001 58.2C86.4001 58.2 90.1701 55.89 91.1901 57.21L92.2101 58.53H92.2001Z" fill="#D68F32"/>
<path d="M86.7301 71.67C86.7301 71.67 99.1101 67.27 99.3801 67.1C99.6501 66.93 100.65 64.14 100.1 63.97C99.5501 63.8 98.8901 63.09 97.1801 63.97C95.4701 64.85 90.4701 66.99 87.4401 67.82C84.4101 68.65 83.2601 70.23 85.1301 71.23C87.0001 72.23 86.7301 71.67 86.7301 71.67Z" fill="#D68F32"/>
<path d="M87.5501 80.86C87.5501 80.86 88.1601 78.71 100.26 75.25C100.26 75.25 102.63 72.99 102.46 72.44C102.29 71.89 100.53 70.57 96.1901 73.71C91.8501 76.85 85.3801 75.84 84.7501 78.55C84.1201 81.26 85.5201 81.03 85.5201 81.03L87.5601 80.86H87.5501Z" fill="#D68F32"/>
<path d="M95.3101 88.35C95.3101 88.35 97.7901 86.77 100.37 85.87C102.95 84.97 103.29 81.47 103.18 81.14C103.07 80.81 100.87 80.81 96.9601 84.06C93.0501 87.31 85.4601 86.37 88.6501 89.23C91.8401 92.09 92.6701 89.34 92.6701 89.34L95.3101 88.35Z" fill="#D68F32"/>
<path d="M87.3301 69.58C87.3301 69.58 86.1701 70.79 87.8301 70.19C89.4901 69.59 91.5701 69.53 93.0001 68.98C94.4301 68.43 97.8401 66.89 97.7901 66.61C97.7401 66.33 99.5001 64.4 96.9601 65.29C94.4301 66.17 90.0301 68.65 88.9301 68.76C87.8301 68.87 87.3301 69.59 87.3301 69.59V69.58Z" fill="#EFC3AC"/>
<path d="M84.8001 59.74C84.8001 59.74 83.0401 59.91 83.3701 60.73C83.7001 61.55 87.0601 59.9 88.1001 59.68C89.1401 59.46 91.3501 58.58 90.5201 58.36C89.6901 58.14 86.5601 59.24 84.8001 59.74Z" fill="#EFC3AC"/>
<path d="M86.6201 79.3C86.6201 79.3 86.1801 78.33 89.1501 77.67C92.1201 77.01 95.8601 75.14 96.9601 74.75C98.0601 74.36 100.26 72.89 99.7101 73.98C99.1601 75.07 94.3201 76.78 93.3301 77C92.3401 77.22 89.3201 79.46 86.6201 79.29V79.3Z" fill="#EFC3AC"/>
<path d="M100.98 83.45C100.98 83.45 100.1 82.9 99.1101 83.84C98.1201 84.78 91.5701 86.76 91.5701 87.36C91.5701 87.96 89.3101 88.24 90.6301 88.52C91.9501 88.8 99.2701 85.33 99.7101 85.05C100.15 84.77 101.75 84.17 100.98 83.45Z" fill="#EFC3AC"/>
<path fill-rule="evenodd" clip-rule="evenodd" d="M81.6602 56.2922L81.4337 56.5104C80.8699 57.0533 80.692 57.5739 80.6756 58.0454C80.658 58.5509 80.825 59.095 81.114 59.6374C81.4002 60.1749 81.7745 60.6513 82.0877 61.0003C82.2422 61.1725 82.377 61.3084 82.4712 61.3994C82.5182 61.4447 82.5547 61.4787 82.5781 61.5L82.6029 61.5224L82.6063 61.5254L82.6072 61.5262L82.9501 61.824V66.9C82.9501 68.9972 83.5669 70.0262 84.0459 70.5244C84.2952 70.7837 84.5368 70.9305 84.7031 71.0104C84.7866 71.0504 84.8508 71.0735 84.8867 71.085C84.8988 71.0888 84.9075 71.0913 84.9125 71.0927L87.0894 71.5281L85.3361 72.843C85.3255 72.8545 85.3071 72.8753 85.2824 72.9074C85.2095 73.002 85.0786 73.1976 84.9302 73.5401C84.6322 74.2277 84.2648 75.5054 84.159 77.7276C84.0584 79.8405 84.666 80.4758 84.9599 80.6756C85.1382 80.7969 85.3242 80.846 85.4728 80.8634C85.5461 80.8719 85.6045 80.872 85.639 80.8707C85.6506 80.8702 85.659 80.8696 85.6638 80.8692L87.6743 80.5599L86.6754 82.3435L86.6702 82.3534C86.6642 82.365 86.6534 82.3862 86.6388 82.4166C86.6097 82.4775 86.5658 82.5746 86.5155 82.7037C86.4148 82.9628 86.2906 83.3457 86.2076 83.8199C86.0423 84.7644 86.0409 86.0613 86.7063 87.4872C87.3019 88.7634 88.2886 89.2186 89.1859 89.3718C89.6457 89.4503 90.0738 89.4454 90.3894 89.4194C90.5456 89.4065 90.6699 89.3887 90.7513 89.3751C90.7621 89.3733 90.7722 89.3716 90.7814 89.3699C90.7951 89.3641 90.8102 89.3576 90.8266 89.3506C90.9196 89.3111 91.0549 89.254 91.2271 89.1827C91.5714 89.0402 92.0633 88.8408 92.6575 88.6117C93.8434 88.1544 95.4476 87.5743 97.1031 87.0924C97.1724 87.0722 97.242 87.0522 97.3117 87.0323C97.5895 86.9199 97.8653 86.8046 98.1384 86.6857C99.3336 86.1653 100.404 85.6045 101.262 84.9815C102.121 84.3569 102.715 83.7076 103.034 83.0279C103.627 81.7458 103.218 80.0853 102.441 78.5282C102.069 77.7837 101.647 77.1332 101.316 76.667C101.151 76.435 101.011 76.2513 100.914 76.1275C100.865 76.0656 100.827 76.0188 100.802 75.9885L100.775 75.9558L100.769 75.9491L100.769 75.9483L100.199 75.2809L100.788 74.6294C101.874 73.4282 102.024 72.1835 101.912 71.2151C101.855 70.7214 101.728 70.3003 101.616 70.0038C101.56 69.8566 101.509 69.7431 101.474 69.6703C101.457 69.6339 101.443 69.608 101.435 69.5933L101.429 69.5803C101.428 69.5795 101.428 69.5796 101.429 69.5803L101.311 69.3729L101.301 69.13C101.254 67.9457 100.911 67.508 100.752 67.3607C100.664 67.2782 100.588 67.2436 100.55 67.2297C100.543 67.2274 100.538 67.2256 100.534 67.2243L99.1985 67.1289L99.7254 65.8493C99.8258 65.6055 99.8767 65.1532 99.8235 64.4899C99.7726 63.8561 99.6374 63.1459 99.4721 62.4647C99.3078 61.7877 99.1195 61.163 98.9717 60.7062C98.898 60.4785 98.8348 60.2941 98.7905 60.1678C98.7684 60.1046 98.751 60.056 98.7394 60.0239L98.7264 59.9883L98.7234 59.9802L98.7229 59.9788L98.7183 59.9664C98.2212 58.5746 97.5929 57.851 97.0167 57.475C96.4427 57.1004 95.8139 57.0008 95.1825 57.0562C94.5399 57.1126 93.9276 57.3284 93.4595 57.5451C93.2294 57.6515 93.0438 57.7537 92.9185 57.8275C92.856 57.8642 92.8092 57.8935 92.7799 57.9123C92.7653 57.9217 92.7552 57.9284 92.7497 57.932L92.7463 57.9343L92.7455 57.9349L91.6355 58.7001L91.2269 57.4125C90.9719 56.6089 90.3167 55.7838 89.6355 55.1121C89.3071 54.7883 88.9963 54.523 88.7684 54.3394C88.6548 54.2479 88.5629 54.1776 88.5009 54.1312C88.4776 54.1137 88.4585 54.0997 88.4443 54.0893C87.1786 53.3625 85.5755 53.7545 84.0276 54.6072C83.282 55.0179 82.6295 55.4935 82.1605 55.8704C81.9523 56.0376 81.7828 56.1834 81.6602 56.2922ZM88.9901 53.25L89.5655 52.4322L89.5339 52.4099L89.5006 52.3902C87.2517 51.0549 84.7453 51.9285 83.0626 52.8554C82.1857 53.3384 81.4357 53.8872 80.9078 54.3113C80.6426 54.5244 80.4301 54.7087 80.2823 54.8414C80.2083 54.9078 80.1503 54.9615 80.1097 54.9996C80.0894 55.0186 80.0734 55.0338 80.0619 55.0448L80.0482 55.058L80.0439 55.0622L80.0424 55.0636C80.0422 55.0639 80.0414 55.0647 80.7401 55.78L80.0574 55.0811L80.0465 55.0697C80.0465 55.0697 80.0464 55.0697 80.0465 55.0697L80.0414 55.0647L79.7401 55.3589V55.3899C79.0326 56.1953 78.7078 57.0826 78.6768 57.976C78.6428 58.9554 78.9639 59.8551 79.3487 60.5776C79.7362 61.3052 80.2213 61.915 80.5991 62.336C80.7289 62.4807 80.8483 62.6056 80.9501 62.708V66.9C80.9501 69.4228 81.7083 70.9789 82.6043 71.9106C82.815 72.1298 83.0275 72.3081 83.2301 72.4529C83.1852 72.5439 83.14 72.6411 83.095 72.7449C82.678 73.7074 82.2754 75.2347 82.1612 77.6325C82.0419 80.1395 82.7542 81.5943 83.8353 82.3295C84.0348 82.4651 84.2353 82.5675 84.4282 82.6446C84.3577 82.8912 84.2911 83.1695 84.2376 83.4752C84.0179 84.7306 84.0193 86.4588 84.8939 88.3329C85.8383 90.3567 87.4916 91.1115 88.8493 91.3433C88.9162 91.3547 88.9825 91.3649 89.048 91.3739C88.8835 91.8185 88.8313 92.2559 88.8586 92.6653C88.8889 93.1203 89.0145 93.4949 89.131 93.755C89.1897 93.8862 89.248 93.9925 89.2947 94.0704C89.3181 94.1095 89.3389 94.1418 89.3558 94.167C89.3642 94.1796 89.3717 94.1905 89.3781 94.1996L89.3868 94.2118L89.3905 94.217L89.3921 94.2193L89.3929 94.2203C89.3933 94.2209 89.3937 94.2214 90.2001 93.63L89.3937 94.2214L89.631 94.5451L99.67 96.3166L99.944 96.1992C101.242 95.6429 102.956 94.4438 104.205 93.0108C105.4 91.6396 106.489 89.665 105.636 87.7277C105.316 87.0011 104.699 86.5877 104.052 86.3736C103.721 86.2644 103.364 86.1995 102.994 86.167C103.772 85.5182 104.43 84.763 104.846 83.8736L104.847 83.8708C105.853 81.703 105.056 79.2892 104.23 77.6343C103.799 76.7726 103.318 76.0325 102.947 75.5096C102.897 75.4389 102.849 75.3721 102.803 75.3092C103.879 73.786 104.041 72.2126 103.898 70.985C103.818 70.2912 103.642 69.7073 103.486 69.2956C103.413 69.1014 103.343 68.9429 103.287 68.8262C103.19 67.389 102.724 66.4632 102.115 65.8969C102.013 65.8018 101.91 65.7202 101.81 65.6502C101.86 65.2101 101.851 64.7554 101.817 64.3298C101.754 63.5508 101.594 62.728 101.416 61.9929C101.236 61.2536 101.033 60.5789 100.874 60.0904C100.795 59.8455 100.727 59.6457 100.678 59.5061C100.653 59.4363 100.634 59.3814 100.62 59.3433L100.604 59.299L100.6 59.2884C99.9971 57.6031 99.1413 56.4733 98.1098 55.8001C97.075 55.1247 95.9713 54.9793 95.0077 55.0639C94.0704 55.1461 93.2369 55.4469 92.6477 55.717C92.1849 54.905 91.5653 54.2062 91.0397 53.688C90.6531 53.3068 90.2901 52.997 90.0231 52.7819C89.8891 52.674 89.7782 52.5891 89.6992 52.5299C89.6597 52.5004 89.6281 52.4772 89.6055 52.4608L89.5784 52.4413L89.5701 52.4354L89.5673 52.4335L89.5655 52.4322C89.5653 52.432 89.5655 52.4322 88.9901 53.25ZM91.5847 91.2092C92.2807 90.9515 93.0638 90.6828 93.8883 90.3999C95.2 89.9498 96.6163 89.4639 97.9532 88.9292C99.4485 88.5068 100.903 88.1986 102.051 88.1481C102.664 88.1211 103.12 88.1719 103.424 88.2725C103.711 88.3674 103.779 88.4739 103.805 88.5324L103.805 88.5337C104.15 89.316 103.81 90.4207 102.697 91.6967C101.727 92.8105 100.409 93.7572 99.4171 94.2411L90.8865 92.7357C90.8708 92.6734 90.859 92.6051 90.8541 92.5323C90.8375 92.2829 90.8857 91.8042 91.5847 91.2092Z" fill="#1B1B1B"/>
</svg>
