<svg width="180" height="130" viewBox="0 0 180 130" fill="none" xmlns="http://www.w3.org/2000/svg">
<path d="M114 1H16C7.71573 1 1 7.71573 1 16V114C1 122.284 7.71573 129 16 129H114C122.284 129 129 122.284 129 114V16C129 7.71573 122.284 1 114 1Z" fill="#8FDFF3"/>
<path d="M114 2C121.72 2 128 8.28 128 16V114C128 121.72 121.72 128 114 128H16C8.28 128 2 121.72 2 114V16C2 8.28 8.28 2 16 2H114ZM114 0H16C7.16 0 0 7.16 0 16V114C0 122.84 7.16 130 16 130H114C122.84 130 130 122.84 130 114V16C130 7.16 122.84 0 114 0Z" fill="#1B1B1B"/>
<path d="M65.64 92.64L62.93 88.16C62.8 87.95 62.73 87.72 62.71 87.47L61.98 77.42C61.92 76.61 61.25 75.99 60.44 75.99H45.22C44.41 75.99 43.74 76.61 43.68 77.42L42.95 87.4C42.93 87.69 42.83 87.96 42.66 88.19L39.51 92.53C38.77 93.55 39.5 94.98 40.76 94.98H64.32C65.52 94.98 66.26 93.67 65.64 92.64ZM52.54 84.25C51.03 84.25 49.8 83.02 49.8 81.51C49.8 80 51.03 78.77 52.54 78.77C54.05 78.77 55.28 80 55.28 81.51C55.28 83.02 54.05 84.25 52.54 84.25Z" fill="white"/>
<path fill-rule="evenodd" clip-rule="evenodd" d="M62.4133 83.3851L61.98 77.4199C61.92 76.6099 61.25 75.9899 60.44 75.9899H45.22C44.41 75.9899 43.74 76.6099 43.68 77.4199L43.0303 86.302L62.4133 83.3851ZM49.8 81.5099C49.8 83.0199 51.03 84.2499 52.54 84.2499C54.05 84.2499 55.28 83.0199 55.28 81.5099C55.28 79.9999 54.05 78.7699 52.54 78.7699C51.03 78.7699 49.8 79.9999 49.8 81.5099Z" fill="#E5E5E5"/>
<path fill-rule="evenodd" clip-rule="evenodd" d="M42.6827 77.3461C42.7815 76.0129 43.8874 74.99 45.22 74.99H60.44C61.7726 74.99 62.8785 76.0129 62.9773 77.3461L63.7068 87.3902C63.7069 87.3912 63.707 87.3922 63.7071 87.3932C63.716 87.4996 63.7425 87.5726 63.7803 87.6336L63.7857 87.6424L66.4956 92.1224L65.64 92.64L66.4968 92.1243C67.517 93.8192 66.2997 95.98 64.32 95.98H40.76C38.6841 95.98 37.4805 93.6245 38.7006 91.9428L41.8558 87.5956C41.9125 87.5189 41.9455 87.4313 41.9524 87.3312L41.9527 87.327L42.6827 77.3461ZM64.7833 93.1557C64.7831 93.1555 64.7834 93.1559 64.7833 93.1557L62.0768 88.6815C61.8568 88.3245 61.7444 87.94 61.7132 87.5497L61.7126 87.5424L60.9827 77.4939C60.9615 77.2071 60.7274 76.99 60.44 76.99H45.22C44.9327 76.99 44.6987 77.2069 44.6773 77.4935C44.6773 77.4936 44.6773 77.4934 44.6773 77.4935L43.9476 87.4688C43.9476 87.4696 43.9475 87.4704 43.9475 87.4712C43.9141 87.9485 43.7482 88.3986 43.4671 88.7805L40.3194 93.1172C40.3194 93.1173 40.3195 93.1172 40.3194 93.1172C40.0597 93.4755 40.316 93.98 40.76 93.98H64.32C64.7401 93.98 65.0024 93.5207 64.7833 93.1557ZM52.54 79.77C51.5823 79.77 50.8 80.5523 50.8 81.51C50.8 82.4677 51.5823 83.25 52.54 83.25C53.4977 83.25 54.28 82.4677 54.28 81.51C54.28 80.5523 53.4977 79.77 52.54 79.77ZM48.8 81.51C48.8 79.4477 50.4777 77.77 52.54 77.77C54.6023 77.77 56.28 79.4477 56.28 81.51C56.28 83.5723 54.6023 85.25 52.54 85.25C50.4777 85.25 48.8 83.5723 48.8 81.51Z" fill="#1B1B1B"/>
<path d="M86.11 27.45H18.96C16.7951 27.45 15.04 29.2051 15.04 31.37V76.77C15.04 78.935 16.7951 80.69 18.96 80.69H86.11C88.275 80.69 90.03 78.935 90.03 76.77V31.37C90.03 29.2051 88.275 27.45 86.11 27.45Z" fill="white"/>
<path fill-rule="evenodd" clip-rule="evenodd" d="M18.96 28.45C17.3473 28.45 16.04 29.7573 16.04 31.37V76.77C16.04 78.3827 17.3473 79.69 18.96 79.69H86.11C87.7227 79.69 89.03 78.3827 89.03 76.77V31.37C89.03 29.7573 87.7227 28.45 86.11 28.45H18.96ZM14.04 31.37C14.04 28.6528 16.2428 26.45 18.96 26.45H86.11C88.8272 26.45 91.03 28.6528 91.03 31.37V76.77C91.03 79.4872 88.8272 81.69 86.11 81.69H18.96C16.2428 81.69 14.04 79.4872 14.04 76.77V31.37Z" fill="#1B1B1B"/>
<path d="M20.69 27.45H84.38C87.5 27.45 90.03 29.98 90.03 33.1V73.14H15.04V33.1C15.04 29.98 17.57 27.45 20.69 27.45Z" fill="#1B1B1B"/>
<path d="M70.89 111.56H19.18L26.1 99.39H66.97L70.89 111.56Z" fill="white"/>
<path fill-rule="evenodd" clip-rule="evenodd" d="M25.2307 98.8957L26.1 98.39H66.97L67.9218 99.0834L71.8418 111.253L70.89 112.56H19.18L18.3107 111.066L25.2307 98.8957ZM26.6817 100.39L20.899 110.56H69.5173L66.2415 100.39H26.6817Z" fill="#1B1B1B"/>
<path d="M156.42 98.28H114.89L115.89 71H155.42L156.42 98.28Z" fill="white"/>
<path fill-rule="evenodd" clip-rule="evenodd" d="M114.891 70.9634L115.89 70H155.42L156.419 70.9634L157.419 98.2434L156.42 99.28H114.89L113.891 98.2434L114.891 70.9634ZM116.854 72L115.927 97.28H155.383L154.456 72H116.854Z" fill="#1B1B1B"/>
<path d="M163.58 111.24H107.73L114.89 98.28H156.42L163.58 111.24Z" fill="white"/>
<path fill-rule="evenodd" clip-rule="evenodd" d="M114.015 97.7965L114.89 97.28H156.42L157.295 97.7965L164.455 110.756L163.58 112.24H107.73L106.855 110.756L114.015 97.7965ZM115.48 99.28L109.425 110.24H161.885L155.83 99.28H115.48Z" fill="#1B1B1B"/>
<path d="M156.42 94.94H114.89L115.89 71H155.42L156.42 94.94Z" fill="#1B1B1B"/>
<path fill-rule="evenodd" clip-rule="evenodd" d="M65 103.29H27.83V102.29H65V103.29Z" fill="#C6C6C6"/>
<path fill-rule="evenodd" clip-rule="evenodd" d="M65.37 105.1H26.76V104.1H65.37V105.1Z" fill="#C6C6C6"/>
<path fill-rule="evenodd" clip-rule="evenodd" d="M65.66 106.92H25.57V105.92H65.66V106.92Z" fill="#C6C6C6"/>
<path fill-rule="evenodd" clip-rule="evenodd" d="M66.35 108.74H24.08V107.74H66.35V108.74Z" fill="#C6C6C6"/>
<path fill-rule="evenodd" clip-rule="evenodd" d="M154.05 101.67H116.88V100.67H154.05V101.67Z" fill="#C6C6C6"/>
<path fill-rule="evenodd" clip-rule="evenodd" d="M155.12 103.49H115.81V102.49H155.12V103.49Z" fill="#C6C6C6"/>
<path fill-rule="evenodd" clip-rule="evenodd" d="M156.32 105.3H114.62V104.3H156.32V105.3Z" fill="#C6C6C6"/>
<path d="M91.91 108.2H74.16L71.16 99.45H84.91L91.91 108.2Z" fill="white"/>
<path fill-rule="evenodd" clip-rule="evenodd" d="M70.2141 99.7743L71.16 98.45H84.91L85.6909 98.8253L92.6909 107.575L91.91 109.2H74.16L73.2141 108.524L70.2141 99.7743ZM72.56 100.45L74.8743 107.2H89.8294L84.4294 100.45H72.56Z" fill="#1B1B1B"/>
<path fill-rule="evenodd" clip-rule="evenodd" d="M57.2516 71.8921L79.0916 35.6221L79.9483 36.1379L58.1083 72.4079L57.2516 71.8921Z" fill="#565656"/>
<path fill-rule="evenodd" clip-rule="evenodd" d="M18.4938 52.0356L31.7638 28.3556L32.6362 28.8444L19.3662 52.5244L18.4938 52.0356Z" fill="#565656"/>
<path fill-rule="evenodd" clip-rule="evenodd" d="M63.1516 71.8922L84.9816 35.6222L85.8384 36.1379L64.0084 72.4079L63.1516 71.8922Z" fill="#565656"/>
<path fill-rule="evenodd" clip-rule="evenodd" d="M134.435 72.7173L128.245 83.5973L127.375 83.1028L133.565 72.2228L134.435 72.7173Z" fill="#565656"/>
<path fill-rule="evenodd" clip-rule="evenodd" d="M148.744 83.7777L142.544 94.6477L141.676 94.1523L147.876 83.2823L148.744 83.7777Z" fill="#565656"/>
<path fill-rule="evenodd" clip-rule="evenodd" d="M151.834 83.7774L145.644 94.6474L144.776 94.1526L150.965 83.2826L151.834 83.7774Z" fill="#565656"/>
<path d="M118.19 50.63C117.47 50.63 116.86 50.14 116.7 49.43L114.76 40.6L105.93 38.66C105.22 38.51 104.73 37.89 104.73 37.17C104.73 36.45 105.22 35.84 105.93 35.68L114.76 33.74L116.7 24.91C116.85 24.2 117.47 23.71 118.19 23.71C118.91 23.71 119.52 24.2 119.68 24.91L121.62 33.74L130.45 35.68C131.16 35.83 131.65 36.45 131.65 37.17C131.65 37.89 131.16 38.5 130.45 38.66L121.62 40.6L119.68 49.43C119.53 50.14 118.91 50.63 118.19 50.63Z" fill="#FFE108"/>
<path d="M118.19 24.74C118.42 24.74 118.64 24.88 118.7 25.15L120.7 34.28C120.74 34.48 120.9 34.63 121.1 34.68L130.23 36.68C130.78 36.8 130.78 37.58 130.23 37.7L121.1 39.7C120.9 39.74 120.75 39.9 120.7 40.1L118.7 49.23C118.64 49.5 118.41 49.64 118.19 49.64C117.97 49.64 117.74 49.5 117.68 49.23L115.68 40.1C115.64 39.9 115.48 39.75 115.28 39.7L106.15 37.7C105.6 37.58 105.6 36.8 106.15 36.68L115.28 34.68C115.48 34.64 115.63 34.48 115.68 34.28L117.68 25.15C117.74 24.88 117.97 24.74 118.19 24.74ZM118.19 22.74C117 22.74 115.98 23.56 115.73 24.72L113.93 32.92L105.73 34.72C104.56 34.98 103.75 35.99 103.75 37.18C103.75 38.37 104.57 39.39 105.73 39.64L113.93 41.44L115.73 49.64C115.99 50.81 117 51.62 118.19 51.62C119.38 51.62 120.4 50.8 120.65 49.64L122.45 41.44L130.65 39.64C131.82 39.38 132.63 38.37 132.63 37.18C132.63 35.99 131.81 34.97 130.65 34.72L122.45 32.92L120.65 24.72C120.39 23.55 119.38 22.74 118.19 22.74Z" fill="#1B1B1B"/>
<path d="M135.01 62.66C134.4 62.66 133.87 62.24 133.74 61.64L132.69 56.87L127.92 55.82C127.32 55.69 126.9 55.17 126.9 54.55C126.9 53.93 127.32 53.41 127.92 53.28L132.69 52.23L133.74 47.46C133.87 46.86 134.39 46.44 135.01 46.44C135.63 46.44 136.15 46.86 136.28 47.46L137.33 52.23L142.1 53.28C142.7 53.41 143.12 53.93 143.12 54.55C143.12 55.17 142.7 55.69 142.1 55.82L137.33 56.87L136.28 61.64C136.15 62.24 135.63 62.66 135.01 62.66Z" fill="#FFE108"/>
<path d="M135.01 47.44C135.14 47.44 135.27 47.52 135.3 47.67L136.44 52.88C136.46 52.99 136.55 53.08 136.67 53.11L141.88 54.25C142.19 54.32 142.19 54.76 141.88 54.83L136.67 55.97C136.56 55.99 136.47 56.08 136.44 56.2L135.3 61.41C135.27 61.57 135.14 61.64 135.01 61.64C134.88 61.64 134.75 61.56 134.72 61.41L133.58 56.2C133.56 56.09 133.47 56 133.35 55.97L128.14 54.83C127.83 54.76 127.83 54.32 128.14 54.25L133.35 53.11C133.46 53.09 133.55 53 133.58 52.88L134.72 47.67C134.75 47.51 134.88 47.44 135.01 47.44ZM135.01 45.44C133.92 45.44 133 46.18 132.77 47.25L131.86 51.4L127.71 52.31C126.65 52.54 125.9 53.47 125.9 54.55C125.9 55.63 126.64 56.56 127.71 56.79L131.86 57.7L132.77 61.85C133 62.91 133.93 63.66 135.01 63.66C136.09 63.66 137.02 62.92 137.25 61.85L138.16 57.7L142.31 56.79C143.37 56.56 144.12 55.63 144.12 54.55C144.12 53.47 143.38 52.54 142.31 52.31L138.16 51.4L137.25 47.25C137.02 46.19 136.09 45.44 135.01 45.44Z" fill="#1B1B1B"/>
</svg>
