<svg width="180" height="130" viewBox="0 0 180 130" fill="none" xmlns="http://www.w3.org/2000/svg">
<path d="M114 1H16C7.71573 1 1 7.71573 1 16V114C1 122.284 7.71573 129 16 129H114C122.284 129 129 122.284 129 114V16C129 7.71573 122.284 1 114 1Z" fill="#8FDFF3"/>
<path d="M114 2C121.72 2 128 8.28 128 16V114C128 121.72 121.72 128 114 128H16C8.28 128 2 121.72 2 114V16C2 8.28 8.28 2 16 2H114ZM114 0H16C7.16 0 0 7.16 0 16V114C0 122.84 7.16 130 16 130H114C122.84 130 130 122.84 130 114V16C130 7.16 122.84 0 114 0Z" fill="black"/>
<path d="M114 2C121.72 2 128 8.28 128 16V114C128 121.72 121.72 128 114 128H16C8.28 128 2 121.72 2 114V16C2 8.28 8.28 2 16 2H114ZM114 0H16C7.16 0 0 7.16 0 16V114C0 122.84 7.16 130 16 130H114C122.84 130 130 122.84 130 114V16C130 7.16 122.84 0 114 0Z" fill="#1B1B1B"/>
<path d="M65.55 17.79C65.55 17.79 66.8 38.02 53.08 38.02H50.7C36.98 38.02 38.23 17.79 38.23 17.79" fill="#E5D6E2"/>
<path d="M65.55 17.79C65.55 17.79 66.8 38.02 53.08 38.02H50.7C36.98 38.02 38.23 17.79 38.23 17.79" stroke="#1B1B1B" stroke-width="2" stroke-linejoin="bevel"/>
<path d="M38.08 65.48C54.5988 65.48 67.99 58.7687 67.99 50.49C67.99 42.2113 54.5988 35.5 38.08 35.5C21.5611 35.5 8.16998 42.2113 8.16998 50.49C8.16998 58.7687 21.5611 65.48 38.08 65.48Z" fill="#D8CFE2" stroke="#1B1B1B" stroke-width="2" stroke-miterlimit="10"/>
<path d="M23.94 38.43C23.94 38.43 21.3 38.34 20.72 40.44C20.72 40.44 18.11 39.24 17.76 41.5C17.76 41.5 15.83 42.93 15.42 44.41C15.02 45.89 12.81 46.05 13.2 48.66C13.2 48.66 11.77 49.79 12.77 50.59C13.77 51.39 12.64 53.32 15.41 53.81C15.41 53.81 15.67 56.22 21.6 57.72C27.53 59.22 36.82 63.63 53.37 58.58C55.35 57.98 58.36 55.79 59.67 53.23C60.98 50.67 59.63 50.19 61.23 50.23C62.84 50.27 64.84 47.45 63.35 45.91C63.35 45.91 64.36 43.49 61.14 42.75C61.14 42.75 61.14 39.34 57.12 39.91" fill="#FFB36E"/>
<path d="M19.56 53.26C20.1564 53.26 20.64 52.9869 20.64 52.65C20.64 52.3131 20.1564 52.04 19.56 52.04C18.9635 52.04 18.48 52.3131 18.48 52.65C18.48 52.9869 18.9635 53.26 19.56 53.26Z" fill="#F9A662"/>
<path fill-rule="evenodd" clip-rule="evenodd" d="M26.0946 59.0156C26.1997 58.8575 26.2915 58.6956 26.37 58.5299H26.41C27.32 58.5299 28.09 58.2399 28.52 57.8199C28.91 57.9599 29.35 58.0699 29.84 58.0699C31.2 58.0699 32.31 57.4399 32.31 56.6699C32.31 55.8999 31.2 55.2699 29.84 55.2699C29.32 55.2699 28.86 55.3799 28.46 55.5399C28.4708 55.5076 28.4868 55.4765 28.5028 55.4453C28.5313 55.3898 28.56 55.334 28.56 55.2699C28.56 54.4999 27.45 53.8699 26.09 53.8699C25.69 53.8699 25.33 53.9399 24.99 54.0299C24.51 53.6399 23.93 53.3099 23.29 52.9999C24.39 52.8599 25.23 52.3299 25.23 51.6599C25.23 50.8899 24.12 50.2599 22.76 50.2599C22.6676 50.2599 22.5819 50.2733 22.4971 50.2865C22.435 50.2961 22.3734 50.3057 22.31 50.3099C22.28 49.5499 21.2 48.9399 19.85 48.9399C18.5 48.9399 17.38 49.5699 17.38 50.3399C17.38 50.4051 17.4097 50.4661 17.4388 50.5255C17.4543 50.5573 17.4695 50.5886 17.48 50.6199C17.2 50.6399 16.93 50.6799 16.69 50.7599C16.35 50.2199 15.46 49.8299 14.39 49.8299C13.6458 49.8299 12.9764 50.0186 12.5228 50.3156C12.5792 50.4098 12.6598 50.5019 12.77 50.59C13.1298 50.8779 13.2138 51.312 13.303 51.7728C13.4617 52.5925 13.6367 53.4963 15.41 53.81C15.41 53.81 15.67 56.22 21.6 57.72C22.4359 57.9314 23.3386 58.2007 24.3189 58.4932C24.8843 58.6618 25.4755 58.8382 26.0946 59.0156ZM20.29 51.9999C20.29 52.0199 20.27 52.0499 20.27 52.0499C20.295 52.0549 20.3225 52.0599 20.35 52.0649C20.3775 52.0699 20.405 52.0749 20.43 52.0799C20.4229 52.0658 20.4158 52.0517 20.4086 52.0376C20.3545 51.9316 20.3 51.8247 20.3 51.7099C20.26 51.7199 20.23 51.7199 20.19 51.7199C20.2004 51.7513 20.2157 51.7826 20.2312 51.8144C20.2603 51.8738 20.29 51.9348 20.29 51.9999Z" fill="#E58F4E"/>
<path fill-rule="evenodd" clip-rule="evenodd" d="M60.138 40.5403C58.8028 40.5556 57.7596 41.1597 57.73 41.91C57.6912 41.9048 57.6531 41.899 57.6151 41.8932C57.5062 41.8765 57.3986 41.86 57.28 41.86C55.92 41.86 54.81 42.49 54.81 43.26C54.81 43.92 55.65 44.46 56.75 44.6C56.11 44.9 55.53 45.24 55.05 45.63C54.72 45.53 54.35 45.47 53.95 45.47C52.59 45.47 51.48 46.1 51.48 46.87C51.48 46.9436 51.5125 47.0064 51.5457 47.0704C51.5575 47.0932 51.5694 47.1163 51.58 47.14C51.18 46.98 50.72 46.87 50.2 46.87C48.84 46.87 47.73 47.5 47.73 48.27C47.73 49.04 48.84 49.67 50.2 49.67C50.7 49.67 51.14 49.57 51.52 49.42C51.95 49.84 52.71 50.13 53.63 50.13H53.67C53.85 50.51 54.1 50.87 54.42 51.21C53.71 51.46 53.22 51.88 53.22 52.38C53.22 52.88 53.68 53.27 54.33 53.52C53.42 53.73 52.78 54.23 52.78 54.81C52.78 54.825 52.7875 54.8375 52.795 54.85C52.8025 54.8625 52.81 54.875 52.81 54.89C52.7512 54.89 52.6972 54.8804 52.6421 54.8706C52.5848 54.8604 52.5263 54.85 52.46 54.85C52.16 54.85 51.89 54.89 51.62 54.95C51.8 54.76 51.92 54.55 51.92 54.32C51.92 53.55 50.81 52.92 49.45 52.92C48.09 52.92 46.98 53.55 46.98 54.32C46.98 55.09 48.09 55.72 49.45 55.72L49.43 55.71C49.73 55.71 50 55.67 50.27 55.61C50.09 55.8 49.97 56.01 49.97 56.24C49.97 56.43 50.04 56.61 50.16 56.77C49.37 57 48.82 57.46 48.82 57.99C48.82 58.32 49.05 58.61 49.4 58.85C49.0791 59.1424 48.8497 59.4601 48.7445 59.7961C50.2201 59.4726 51.7607 59.071 53.37 58.58C55.35 57.9799 58.36 55.7899 59.67 53.2299C60.2749 52.0478 60.3126 51.3092 60.3355 50.8605C60.3622 50.3375 60.3688 50.2084 61.23 50.2299C62.84 50.2699 64.84 47.4499 63.35 45.9099C63.35 45.9099 64.36 43.4899 61.14 42.7499C61.14 42.7499 61.14 41.3994 60.138 40.5403ZM56.99 53.83C57.37 53.68 57.78 53.54 58.22 53.43L58.21 53.42C58.1221 53.3907 58.0307 53.3649 57.9388 53.339C57.811 53.3029 57.6821 53.2665 57.56 53.22C57.3 53.41 56.98 53.57 56.58 53.66C56.6312 53.6819 56.6838 53.7012 56.7358 53.7203C56.8258 53.7533 56.9139 53.7856 56.99 53.83ZM59.6114 43.6177C59.6042 43.6318 59.597 43.6459 59.59 43.66C59.615 43.655 59.6425 43.65 59.67 43.645C59.6975 43.64 59.725 43.635 59.75 43.63C59.75 43.62 59.745 43.6125 59.74 43.605C59.735 43.5975 59.73 43.59 59.73 43.58C59.73 43.5035 59.7651 43.4329 59.7995 43.3637C59.81 43.3424 59.8206 43.3212 59.83 43.3C59.79 43.29 59.76 43.29 59.72 43.29C59.72 43.4047 59.6655 43.5116 59.6114 43.6177ZM53.9872 57.3081C54.2675 57.2888 54.5394 57.27 54.83 57.27C54.9915 57.27 55.1485 57.279 55.304 57.288C55.3796 57.2924 55.4548 57.2967 55.53 57.3C55.18 56.95 54.97 56.57 54.93 56.16H54.88C54.88 56.175 54.8875 56.1875 54.895 56.2C54.9025 56.2125 54.91 56.225 54.91 56.24C54.91 56.68 54.52 57.05 53.96 57.31L53.9872 57.3081Z" fill="#E58F4E"/>
<path d="M23.94 38.43C23.94 38.43 21.3 38.34 20.72 40.44C20.72 40.44 18.11 39.24 17.76 41.5C17.76 41.5 15.83 42.93 15.42 44.41C15.02 45.89 12.81 46.05 13.2 48.66C13.2 48.66 11.77 49.79 12.77 50.59C13.77 51.39 12.64 53.32 15.41 53.81C15.41 53.81 15.67 56.22 21.6 57.72C27.53 59.22 36.82 63.63 53.37 58.58C55.35 57.98 58.36 55.79 59.67 53.23C60.98 50.67 59.63 50.19 61.23 50.23C62.84 50.27 64.84 47.45 63.35 45.91C63.35 45.91 64.36 43.49 61.14 42.75C61.14 42.75 61.14 39.34 57.12 39.91" stroke="#1B1B1B" stroke-width="2" stroke-linejoin="bevel"/>
<path d="M29.71 35.1801C29.71 35.1801 23.25 36.6301 24.22 41.1301C25.19 45.6301 27.88 46.1001 33.37 46.7901C38.86 47.4801 40.29 46.8201 41.1 48.4501C41.91 50.0801 44.66 52.0801 48.52 51.5901C52.38 51.0901 52.14 46.7501 49.82 45.0701C47.5 43.3901 52.12 43.5701 55.49 43.1901C58.86 42.8101 57.37 38.6201 51.77 36.6901C46.17 34.7601 34.97 31.6201 29.71 35.1801Z" fill="white"/>
<path fill-rule="evenodd" clip-rule="evenodd" d="M53.6585 37.4988C53.4696 37.6532 53.2767 37.8267 53.0799 38.0202C53.0799 38.0202 55.8599 40.5402 51.8799 40.6402C47.8999 40.7402 46.3099 41.7702 47.3399 43.4602C48.1622 44.8094 49.7621 46.5155 51.3814 47.4337C51.1504 46.5093 50.604 45.6378 49.82 45.0701C48.0014 43.7531 50.4472 43.5791 53.2125 43.3824C53.975 43.3282 54.7617 43.2722 55.49 43.1901C58.443 42.8571 57.6643 39.5986 53.6585 37.4988Z" fill="#F4F4F4"/>
<path fill-rule="evenodd" clip-rule="evenodd" d="M47.5868 51.6622L50.0099 51.0902C50.0099 51.0902 51.4999 49.4002 47.5299 49.6702C43.8285 49.922 42.2133 46.9834 41.7848 46.2038C41.7537 46.1472 41.7289 46.102 41.7099 46.0702C41.4299 45.6002 38.71 44.0102 32.61 44.2902C28.9227 44.4655 26.0247 42.8322 24.309 41.5127C24.5824 42.6024 24.9699 43.4377 25.4895 44.089L28.5867 45.9638C29.8688 46.3339 31.4477 46.5486 33.37 46.7901C35.133 47.0117 36.4774 47.0941 37.517 47.1578C39.7145 47.2924 40.5501 47.3436 41.1 48.4501C41.8431 49.9455 44.219 51.7523 47.5868 51.6622Z" fill="#F4F4F4"/>
<path d="M29.71 35.1801C29.71 35.1801 23.25 36.6301 24.22 41.1301C25.19 45.6301 27.88 46.1001 33.37 46.7901C38.86 47.4801 40.29 46.8201 41.1 48.4501C41.91 50.0801 44.66 52.0801 48.52 51.5901C52.38 51.0901 52.14 46.7501 49.82 45.0701C47.5 43.3901 52.12 43.5701 55.49 43.1901C58.86 42.8101 57.37 38.6201 51.77 36.6901C46.17 34.7601 34.97 31.6201 29.71 35.1801V35.1801Z" stroke="#1B1B1B" stroke-width="2" stroke-miterlimit="10"/>
<path d="M34.13 32.41C34.13 32.41 30.28 34.1 31.03 36.63C31.78 39.16 34.88 39.91 38.44 39.91C42.01 39.91 44.82 39.07 45.85 37.85C46.88 36.63 47.54 33.72 43.88 32.41C40.22 31.1 36.02 31.19 34.12 32.41H34.13Z" fill="#FFDA00"/>
<path d="M45.58 33.3499C45.58 33.3499 45.67 36.6899 42.99 36.5999C40.31 36.5099 32.14 36.6899 35.05 39.1299C37.96 41.5699 47.44 39.9199 47.44 39.9199V32.6599L45.58 33.3499Z" fill="#FFC200"/>
<path d="M34.13 32.41C34.13 32.41 30.28 34.1 31.03 36.63C31.78 39.16 34.88 39.91 38.44 39.91C42.01 39.91 44.82 39.07 45.85 37.85C46.88 36.63 47.54 33.72 43.88 32.41C40.22 31.1 36.02 31.19 34.12 32.41H34.13Z" stroke="#1B1B1B" stroke-width="2" stroke-miterlimit="10"/>
<path d="M51.88 22.79C59.4242 22.79 65.54 20.5515 65.54 17.79C65.54 15.0286 59.4242 12.79 51.88 12.79C44.3358 12.79 38.22 15.0286 38.22 17.79C38.22 20.5515 44.3358 22.79 51.88 22.79Z" fill="#D1C1CE"/>
<path fill-rule="evenodd" clip-rule="evenodd" d="M62.7959 20.7964C60.3029 22.0072 56.3412 22.79 51.8799 22.79C47.4387 22.79 43.4925 22.0142 40.9977 20.8127C42.8134 19.6761 47.0158 18.8801 51.9099 18.8801C56.7806 18.8801 60.9661 19.6685 62.7959 20.7964Z" fill="#E5A43C"/>
<path d="M51.88 22.79C59.4242 22.79 65.54 20.5515 65.54 17.79C65.54 15.0286 59.4242 12.79 51.88 12.79C44.3358 12.79 38.22 15.0286 38.22 17.79C38.22 20.5515 44.3358 22.79 51.88 22.79Z" stroke="#1B1B1B" stroke-width="2" stroke-linejoin="bevel"/>
<path d="M48.75 66.86C48.75 66.86 47.62 65.73 50.16 63.48C52.69 61.23 59.17 55.88 62.13 58.41C65.09 60.94 65.23 64.75 58.89 68.55C52.55 72.35 49.46 69.54 49.46 69.54L10.6 80.38C10.6 80.38 6.52 79.96 8.91 78.27C11.3 76.58 48.75 66.87 48.75 66.87V66.86Z" fill="#EAEAEA" stroke="#1B1B1B" stroke-width="2" stroke-linejoin="bevel"/>
<path d="M12.42 83.2C12.42 83.2 11.16 85.03 14.11 85.45L73.52 68.27C73.52 68.27 75.07 65.88 71.13 66.72C67.19 67.56 12.42 83.19 12.42 83.19V83.2Z" fill="#EAEAEA" stroke="#1B1B1B" stroke-width="2" stroke-linejoin="bevel"/>
<path d="M15.3 86.8901C15.3 86.8901 14.1 88.7601 17.07 89.0801L75.82 69.7701C75.82 69.7701 77.28 67.3201 73.37 68.3101C69.46 69.3001 15.3 86.8901 15.3 86.8901Z" fill="#EAEAEA" stroke="#1B1B1B" stroke-width="2" stroke-linejoin="bevel"/>
<path d="M35.46 34.64L37.34 33.77" stroke="white" stroke-miterlimit="10"/>
<path d="M19.27 51.59L21.15 50.72" stroke="#7C4400" stroke-miterlimit="10"/>
<path d="M19.27 47.2401L21.15 46.3601" stroke="#7C4400" stroke-miterlimit="10"/>
<path d="M15.99 50.12L17.87 49.24" stroke="#7C4400" stroke-miterlimit="10"/>
<path d="M34.69 55.7101L36.57 54.8301" stroke="#7C4400" stroke-miterlimit="10"/>
<path d="M36.27 53.17L38.15 52.3" stroke="#7C4400" stroke-miterlimit="10"/>
<path d="M170.35 29.3999C170.16 31.2399 163.95 32.7199 156.31 32.7199C148.67 32.7199 142.89 31.3399 142.31 29.5899C142.28 29.4999 142.26 29.3999 142.26 29.3099C142.26 27.4199 148.55 25.8999 156.31 25.8999C164.07 25.8999 170.36 27.4199 170.36 29.3099C170.36 29.3399 170.36 29.3699 170.35 29.3999Z" fill="white"/>
<path d="M160.56 55.4798H160.58C166.25 55.9298 170.36 57.2198 170.36 58.7398C170.36 60.6198 164.07 62.1498 156.31 62.1498C148.55 62.1498 142.26 60.6198 142.26 58.7398C142.26 57.2098 146.4 55.9198 152.11 55.4898C151.82 54.2698 150.83 52.6898 148.06 51.3398C142.66 48.7098 142.31 43.1598 142.31 43.1598V40.0798H145.03C145.03 43.5098 146.31 50.1898 156.31 50.1898H156.37C166.37 50.1898 167.65 43.4898 167.65 40.0698H170.35V43.1598C170.35 43.1598 170 48.7098 164.61 51.3398C161.84 52.6898 160.86 54.2598 160.56 55.4798Z" fill="white"/>
<path d="M170.35 29.3999V40.0699H167.65C167.65 38.8899 167.5 38.0999 167.5 38.0999H167.44C167.44 36.6099 162.45 35.3999 156.31 35.3999V32.7199C163.95 32.7199 170.16 31.2399 170.35 29.3999Z" fill="white"/>
<path d="M167.5 38.0999C167.5 38.0999 167.65 38.8899 167.65 40.0699C167.65 43.4899 166.37 50.1899 156.37 50.1899H156.31C146.31 50.1899 145.03 43.5099 145.03 40.0799C145.03 38.8999 145.18 38.0999 145.18 38.0999C145.18 39.5899 150.16 40.7999 156.31 40.7999C162.46 40.7999 167.44 39.5899 167.44 38.0999H167.5Z" fill="#A4E0DD"/>
<path d="M167.44 38.0999H145.18C145.18 36.6099 150.16 35.3999 156.31 35.3999C162.46 35.3999 167.44 36.6099 167.44 38.0999Z" fill="#B1E8E5"/>
<path d="M145.18 38.0999H167.44C167.44 39.5899 162.45 40.7999 156.31 40.7999C150.17 40.7999 145.18 39.5899 145.18 38.0999Z" fill="#B1E8E5"/>
<path d="M156.31 32.7198V35.3998C150.16 35.3998 145.18 36.6098 145.18 38.0998C145.18 38.0998 145.03 38.8998 145.03 40.0798H142.31V29.5898C142.89 31.3398 148.94 32.7198 156.31 32.7198Z" fill="white"/>
<path d="M142.31 29.5899C142.28 29.4999 142.26 29.3999 142.26 29.3099C142.26 27.4199 148.55 25.8999 156.31 25.8999C164.07 25.8999 170.36 27.4199 170.36 29.3099C170.36 29.3399 170.36 29.3699 170.35 29.3999C170.16 31.2399 163.95 32.7199 156.31 32.7199C148.67 32.7199 142.89 31.3399 142.31 29.5899V29.5899Z" stroke="#1B1B1B" stroke-width="2" stroke-linejoin="bevel"/>
<path d="M160.58 55.49C166.25 55.93 170.36 57.22 170.36 58.74C170.36 60.62 164.07 62.15 156.31 62.15C148.55 62.15 142.26 60.62 142.26 58.74C142.26 57.21 146.4 55.92 152.11 55.49" stroke="#1B1B1B" stroke-width="2" stroke-linejoin="bevel"/>
<path d="M142.31 29.3098V43.1598C142.31 43.1598 142.66 48.7098 148.06 51.3398C150.83 52.6898 151.82 54.2698 152.11 55.4898C152.39 56.6398 152.07 57.4598 152.07 57.4598" stroke="#1B1B1B" stroke-width="2" stroke-linejoin="bevel"/>
<path d="M170.35 29.3098V43.1598C170.35 43.1598 170 48.7098 164.61 51.3398C161.84 52.6898 160.86 54.2598 160.56 55.4798C160.27 56.6298 160.6 57.4598 160.6 57.4598" stroke="#1B1B1B" stroke-width="2" stroke-linejoin="bevel"/>
<path d="M154.29 85.26L140.88 105.33C140.88 105.33 132.81 114.73 116.8 114.73H108.24C92.23 114.73 84.16 105.33 84.16 105.33L70.75 85.26" fill="#CEEAE4"/>
<path d="M154.29 85.26L140.88 105.33C140.88 105.33 132.81 114.73 116.8 114.73H108.24C92.23 114.73 84.16 105.33 84.16 105.33L70.75 85.26" stroke="#1B1B1B" stroke-width="2" stroke-linejoin="bevel"/>
<path d="M112.69 99.8299C137.885 99.8299 158.31 88.543 158.31 74.6199C158.31 60.6968 137.885 49.4099 112.69 49.4099C87.4948 49.4099 67.07 60.6968 67.07 74.6199C67.07 88.543 87.4948 99.8299 112.69 99.8299Z" fill="#CEEAE4" stroke="#1B1B1B" stroke-width="2" stroke-linejoin="bevel"/>
<path d="M98.81 57.16C98.81 57.16 98.91 53.13 104.24 54.56C104.24 54.56 107.92 53.23 110.09 55.84H115.22C115.22 55.84 118.35 54.84 121.37 55.52C124.39 56.2 125.41 52.92 130.14 54.56C134.87 56.2 132.4 54.86 137.75 57.89C137.75 57.89 141.39 57.47 141.45 61.54L140.87 64.21L141.45 61.54C141.45 61.54 144.53 61.01 146.59 62.51C148.65 64.01 147.82 66 147.82 66C147.82 66 150.49 65.25 150.7 67.92C150.91 70.59 150.7 71.86 150.7 71.86C150.7 71.86 152.76 71.32 152.76 72.6C152.76 73.88 155.95 79.57 147.17 86.45L144.38 88.76C144.38 88.76 137.59 93.48 132.89 94.03L125.83 94.85C125.83 94.85 116.07 98.34 97.41 94.92" fill="#8AD953"/>
<path d="M95.6201 61.93C95.6201 61.93 105.18 57.64 109.78 60.2L106.67 61.65C106.67 61.65 109.34 63.89 112.14 63.05C114.94 62.21 113.82 60.16 117.74 60.2C121.66 60.24 112.14 58.01 112.14 58.01C112.14 58.01 118.3 54.98 122.08 57.48C125.86 59.97 129.78 58.74 129.78 58.74L121.33 61.51L125.72 61.93C125.72 61.93 120.96 62.35 119.84 62.91C118.72 63.47 114.24 65.34 114.24 65.34L122.08 64.73C122.08 64.73 118.02 66.01 117.04 66.14C116.06 66.27 109.78 67.3 109.78 67.3L112.14 64.73H108.08L105.29 67.3L95.6301 61.93H95.6201Z" fill="#57A620"/>
<path d="M110.1 79.98C110.1 79.98 112.45 75.55 117.8 75.55C117.8 75.55 114.16 74.94 110.94 76.2C110.94 76.2 116.96 73.23 118.36 73.6L119.76 73.97C119.76 73.97 124.1 75.47 128.16 75.56C132.22 75.65 137 72.02 143.29 72.02C143.29 72.02 133.9 75.37 133.76 77.05C133.62 78.73 123.96 79.99 123.96 79.99C123.96 79.99 118.5 76.07 110.1 79.99V79.98Z" fill="#57A620"/>
<path d="M101.53 85.53C101.53 85.53 103.89 83.99 110.32 85.53C110.32 85.53 115.08 86.09 119.56 85.67C119.56 85.67 116.62 87.07 111.44 86.93C106.26 86.79 116.9 88.61 123.06 86.65C129.22 84.69 123.34 82.45 133.14 80.77C133.14 80.77 129.29 82.17 129.33 83.01C129.37 83.85 133.73 81.05 138.05 81.05C138.05 81.05 131.04 84.39 124.74 89.65C124.74 89.65 121.24 92.01 117.88 91.71C117.88 91.71 119.98 90.69 121.1 89.65C122.22 88.61 114.64 91.87 110.52 91.71C106.4 91.55 97.03 91.71 97.03 91.71L105.33 89.65H92.41C92.41 89.65 98.75 85.25 101.53 85.53Z" fill="#57A620"/>
<path d="M98.81 57.16C98.81 57.16 98.91 53.13 104.24 54.56C104.24 54.56 107.92 53.23 110.09 55.84H115.22C115.22 55.84 118.35 54.84 121.37 55.52C124.39 56.2 125.41 52.92 130.14 54.56C134.87 56.2 132.4 54.86 137.75 57.89C137.75 57.89 141.39 57.47 141.45 61.54L140.87 64.21L141.45 61.54C141.45 61.54 144.53 61.01 146.59 62.51C148.65 64.01 147.82 66 147.82 66C147.82 66 150.49 65.25 150.7 67.92C150.91 70.59 150.7 71.86 150.7 71.86C150.7 71.86 152.76 71.32 152.76 72.6C152.76 73.88 155.95 79.57 147.17 86.45L144.38 88.76C144.38 88.76 137.59 93.48 132.89 94.03L125.83 94.85C125.83 94.85 116.07 98.34 97.41 94.92" stroke="#1B1B1B" stroke-width="2" stroke-linejoin="bevel"/>
<path d="M134.64 83.9501C134.64 83.9501 142.04 73.7601 147.38 73.8201V87.2901C147.38 87.2901 139.57 93.2001 134.64 83.9501Z" fill="#FF6950"/>
<path fill-rule="evenodd" clip-rule="evenodd" d="M146.96 87.5736C145.318 88.6077 139.216 91.7517 134.974 84.547L135.66 83.7501L142.89 82.3101L146.96 87.5736Z" fill="#FF4E36"/>
<path d="M134.64 83.9501C134.64 83.9501 142.04 73.7601 147.38 73.8201V87.2901C147.38 87.2901 139.57 93.2001 134.64 83.9501Z" stroke="#1B1B1B" stroke-width="2" stroke-linejoin="bevel"/>
<path d="M104.25 60.2701C104.25 60.2701 107.71 54.0501 115.23 55.8501V60.1201L104.25 60.2801V60.2701Z" fill="#FF4E36" stroke="#1B1B1B" stroke-width="2" stroke-linejoin="bevel"/>
<path d="M116.86 69.0799V79.5599L132.89 76.0099C132.89 76.0099 132.07 67.6399 116.86 69.0799Z" fill="#FF6950"/>
<path fill-rule="evenodd" clip-rule="evenodd" d="M132.79 75.5107C132.324 73.7293 129.799 67.8549 116.86 69.0799V69.1435C117.46 69.5301 120.585 71.6024 121.28 73.2998C121.28 73.2998 130.49 73.8398 132.79 76.0098V75.5107Z" fill="#FF4E36"/>
<path d="M116.86 69.0799V79.5599L132.89 76.0099C132.89 76.0099 132.07 67.6399 116.86 69.0799Z" stroke="#1B1B1B" stroke-width="2" stroke-linejoin="bevel"/>
<path d="M128.16 64.22L134.53 57.9C134.53 57.9 125.28 54.44 121.37 62.51L128.15 64.22H128.16Z" fill="#FF6950"/>
<path fill-rule="evenodd" clip-rule="evenodd" d="M131.984 57.3014C128.954 56.8746 123.976 57.1315 121.37 62.51L125.708 63.6041C126.938 62.0177 130.439 57.9371 133.7 58.2599L131.984 57.3014Z" fill="#FF4E36"/>
<path d="M128.16 64.22L134.53 57.9C134.53 57.9 125.28 54.44 121.37 62.51L128.15 64.22H128.16Z" stroke="black" stroke-width="2" stroke-linejoin="bevel"/>
<path d="M132.35 63.9299L135.09 60.6399L141.19 58.9399L145.09 67.3999L141.6 70.6599L137.28 70.2399L132.35 63.9299Z" fill="#FFF24A"/>
<path fill-rule="evenodd" clip-rule="evenodd" d="M135.09 60.6399L132.35 63.9299L137.28 70.2399L141.6 70.6599L145.09 67.3999L144.99 67.183L139.83 66.8799L135.09 60.6399L135.09 60.6399Z" fill="#FFDA00"/>
<path d="M132.35 63.9299L135.09 60.6399L141.19 58.9399L145.09 67.3999L141.6 70.6599L137.28 70.2399L132.35 63.9299Z" stroke="#1B1B1B" stroke-width="2" stroke-linejoin="bevel"/>
<path d="M120.49 89.15L125.83 94.85L132.89 94.02V88.06L127.96 83.75H122.13L120.49 89.15Z" fill="#FFF24A"/>
<path fill-rule="evenodd" clip-rule="evenodd" d="M122.019 84.1147L127.96 89.3L132.89 88.6587V94.02L125.83 94.85L120.49 89.15L122.019 84.1147Z" fill="#FFDA00"/>
<path d="M120.49 89.15L125.83 94.85L132.89 94.02V88.06L127.96 83.75H122.13L120.49 89.15Z" stroke="#1B1B1B" stroke-width="2" stroke-linejoin="bevel"/>
<path d="M103.45 69.68L105.91 72.6H111.67L113.4 67.9L109.61 65.23H104.68L103.45 69.68Z" fill="#FFF24A"/>
<path fill-rule="evenodd" clip-rule="evenodd" d="M104.68 65.23L107.88 68.91L113.4 67.9L111.67 72.6H105.91L103.45 69.68L104.68 65.23Z" fill="#FFDA00"/>
<path d="M103.45 69.68L105.91 72.6H111.67L113.4 67.9L109.61 65.23H104.68L103.45 69.68Z" stroke="#1B1B1B" stroke-width="2" stroke-linejoin="bevel"/>
<path d="M79.34 68.5101C79.34 68.5101 79.63 64.6901 77.16 63.5101C74.69 62.3301 75.1 59.3701 75.1 56.8501C75.1 54.3301 70.3 50.3301 69.72 56.8501C69.14 63.3701 67.98 69.2801 71.44 71.9801C74.9 74.6801 65.24 74.6601 72.43 78.9801C79.62 83.3101 85.38 82.9601 87.02 80.5601C88.66 78.1601 89.04 58.7101 83.71 54.8601C81.55 53.3001 75.55 52.3601 75.34 61.2701" fill="#8AD953"/>
<path d="M79.34 68.5101C79.34 68.5101 79.63 64.6901 77.16 63.5101C74.69 62.3301 75.1 59.3701 75.1 56.8501C75.1 54.3301 70.3 50.3301 69.72 56.8501C69.14 63.3701 67.98 69.2801 71.44 71.9801C74.9 74.6801 65.24 74.6601 72.43 78.9801C79.62 83.3101 85.38 82.9601 87.02 80.5601C88.66 78.1601 89.04 58.7101 83.71 54.8601C81.55 53.3001 75.55 52.3601 75.34 61.2701" stroke="#1B1B1B" stroke-width="2" stroke-linejoin="bevel"/>
<path d="M84.04 80.5601C84.04 80.5601 77.77 76.9901 76.13 80.5601C76.13 80.5601 69.14 76.7301 69.76 82.4801C70.38 88.2301 75.93 89.6701 79.42 89.2601C82.91 88.8501 81.63 98.3001 88.95 90.2901" fill="#8AD953"/>
<path d="M84.04 80.5601C84.04 80.5601 77.77 76.9901 76.13 80.5601C76.13 80.5601 69.14 76.7301 69.76 82.4801C70.38 88.2301 75.93 89.6701 79.42 89.2601C82.91 88.8501 81.63 98.3001 88.95 90.2901" stroke="#1B1B1B" stroke-width="2" stroke-linejoin="bevel"/>
<path d="M106.51 95.05C106.51 95.05 106.3 88.37 111.03 87.29L123.94 95.05C123.94 95.05 113.08 97.11 106.5 95.05H106.51Z" fill="#FF4E36" stroke="#1B1B1B" stroke-width="2" stroke-linejoin="bevel"/>
<path d="M80.74 55.78C80.74 55.78 85.47 51.16 88.99 53.25C88.99 53.25 91.52 55.03 92.18 57.11C92.18 57.11 97.46 53.47 99.66 59.63C99.66 59.63 101.42 64.36 100.65 66.23C100.65 66.23 102.19 66.34 102.3 69.09C102.3 69.09 104.17 72.38 101.53 75.3C101.53 75.3 105.54 80 103.94 83.45C102.28 87 95.48 88.68 91.08 90.33C91.08 90.33 103.34 84.99 104.72 88.13C105.92 90.85 101.86 94.29 99.55 95.28L90.2 93.63C90.2 93.63 88.99 91.98 91.08 90.33C91.08 90.33 87.34 91.21 85.8 87.91C84.26 84.61 85.8 81.86 85.8 81.86C85.8 81.86 82.94 82.3 83.16 77.68C83.38 73.06 84.7 72.07 84.7 72.07C84.7 72.07 81.95 71.52 81.95 66.9V62.28C81.95 62.28 77.77 58.65 80.74 55.79V55.78Z" fill="#EFAC5B"/>
<path d="M92.2 58.5301C92.2 58.5301 89.26 60.6201 87.61 60.7301C85.96 60.8401 81.96 62.2701 81.96 62.2701C81.96 62.2701 80.62 59.2901 86.4 58.2001C86.4 58.2001 90.17 55.8901 91.19 57.2101L92.21 58.5301H92.2Z" fill="#D68F32"/>
<path d="M86.73 71.67C86.73 71.67 99.11 67.27 99.38 67.1C99.65 66.93 100.65 64.14 100.1 63.97C99.55 63.8 98.89 63.09 97.18 63.97C95.47 64.85 90.47 66.99 87.44 67.82C84.41 68.65 83.26 70.23 85.13 71.23C87 72.23 86.73 71.67 86.73 71.67Z" fill="#D68F32"/>
<path d="M87.55 80.8602C87.55 80.8602 88.16 78.7102 100.26 75.2502C100.26 75.2502 102.63 72.9902 102.46 72.4402C102.29 71.8902 100.53 70.5702 96.19 73.7102C91.85 76.8502 85.38 75.8402 84.75 78.5502C84.12 81.2602 85.52 81.0302 85.52 81.0302L87.56 80.8602H87.55Z" fill="#D68F32"/>
<path d="M95.31 88.3502C95.31 88.3502 97.79 86.7702 100.37 85.8702C102.95 84.9702 103.29 81.4702 103.18 81.1402C103.07 80.8102 100.87 80.8102 96.96 84.0602C93.05 87.3102 85.46 86.3702 88.65 89.2302C91.84 92.0902 92.67 89.3402 92.67 89.3402L95.31 88.3502Z" fill="#D68F32"/>
<path d="M87.3299 69.5801C87.3299 69.5801 86.1699 70.7901 87.8299 70.1901C89.4899 69.5901 91.5699 69.5301 92.9999 68.9801C94.4299 68.4301 97.8399 66.8901 97.7899 66.6101C97.7399 66.3301 99.4999 64.4001 96.9599 65.2901C94.4299 66.1701 90.0299 68.6501 88.9299 68.7601C87.8299 68.8701 87.3299 69.5901 87.3299 69.5901V69.5801Z" fill="#EFC3AC"/>
<path d="M84.8 59.74C84.8 59.74 83.04 59.91 83.37 60.73C83.7 61.55 87.0599 59.9 88.0999 59.68C89.1399 59.46 91.3499 58.58 90.5199 58.36C89.6899 58.14 86.56 59.24 84.8 59.74Z" fill="#EFC3AC"/>
<path d="M86.62 79.3002C86.62 79.3002 86.18 78.3302 89.15 77.6702C92.12 77.0102 95.86 75.1402 96.96 74.7502C98.06 74.3602 100.26 72.8902 99.71 73.9802C99.16 75.0702 94.32 76.7802 93.33 77.0002C92.34 77.2202 89.32 79.4602 86.62 79.2902V79.3002Z" fill="#EFC3AC"/>
<path d="M100.98 83.4502C100.98 83.4502 100.1 82.9002 99.11 83.8402C98.12 84.7802 91.57 86.7602 91.57 87.3602C91.57 87.9602 89.31 88.2402 90.63 88.5202C91.95 88.8002 99.27 85.3302 99.71 85.0502C100.15 84.7702 101.75 84.1702 100.98 83.4502Z" fill="#EFC3AC"/>
<path d="M80.74 55.78C80.74 55.78 85.47 51.16 88.99 53.25C88.99 53.25 91.52 55.03 92.18 57.11C92.18 57.11 97.46 53.47 99.66 59.63C99.66 59.63 101.42 64.36 100.65 66.23C100.65 66.23 102.19 66.34 102.3 69.09C102.3 69.09 104.17 72.38 101.53 75.3C101.53 75.3 105.54 80 103.94 83.45C102.28 87 95.48 88.68 91.08 90.33C91.08 90.33 103.34 84.99 104.72 88.13C105.92 90.85 101.86 94.29 99.55 95.28L90.2 93.63C90.2 93.63 88.99 91.98 91.08 90.33C91.08 90.33 87.34 91.21 85.8 87.91C84.26 84.61 85.8 81.86 85.8 81.86C85.8 81.86 82.94 82.3 83.16 77.68C83.38 73.06 84.7 72.07 84.7 72.07C84.7 72.07 81.95 71.52 81.95 66.9V62.28C81.95 62.28 77.77 58.65 80.74 55.79V55.78Z" stroke="#1B1B1B" stroke-width="2" stroke-miterlimit="10"/>
</svg>
