<svg width="180" height="130" viewBox="0 0 180 130" fill="none" xmlns="http://www.w3.org/2000/svg">
<g clip-path="url(#clip0_3204_224)">
<path d="M114 1H16C7.71573 1 1 7.71573 1 16V114C1 122.284 7.71573 129 16 129H114C122.284 129 129 122.284 129 114V16C129 7.71573 122.284 1 114 1Z" fill="#8FDFF3"/>
<path d="M114 2C121.72 2 128 8.28 128 16V114C128 121.72 121.72 128 114 128H16C8.28 128 2 121.72 2 114V16C2 8.28 8.28 2 16 2H114ZM114 0H16C7.16 0 0 7.16 0 16V114C0 122.84 7.16 130 16 130H114C122.84 130 130 122.84 130 114V16C130 7.16 122.84 0 114 0Z" fill="#1B1B1B"/>
<path d="M14.0287 20L24.8687 50.56L15.1287 66.98C15.1287 66.98 8.36865 70.67 7.55865 67.6L-3.88135 38.93C-3.07135 40.18 2.40865 37.47 2.40865 37.47L12.6087 22.14L14.0287 20Z" fill="#8AD953"/>
<path d="M12.6085 22.14L2.40848 37.47C2.40848 37.47 -3.07152 40.18 -3.88152 38.93C-4.10152 38.59 -3.97152 37.96 -3.30152 36.91C-0.0315175 31.78 7.90848 20.39 7.90848 20.39L8.87848 22.46L12.5385 22.09L12.6085 22.14Z" fill="white"/>
<path fill-rule="evenodd" clip-rule="evenodd" d="M13.1953 19.4471L14.8618 20.5529L13.4411 22.6939L3.24106 38.0239L2.85179 38.3664L2.40851 37.47C2.85179 38.3664 2.85194 38.3663 2.85179 38.3664L2.84994 38.3673L2.84609 38.3692L2.83254 38.3758L2.78281 38.4C2.73991 38.4208 2.67788 38.4507 2.59921 38.4879C2.44197 38.5623 2.21775 38.6665 1.94657 38.7873C1.40633 39.028 0.670154 39.3389 -0.0987921 39.6113C-0.855407 39.8794 -1.6972 40.1297 -2.4332 40.2215C-2.79843 40.2671 -3.19885 40.282 -3.575 40.2067C-3.95344 40.1309 -4.42004 39.9378 -4.7207 39.4738L-3.04228 38.3862C-3.11844 38.2687 -3.20664 38.2397 -3.20673 38.2397C-3.20675 38.2397 -3.19942 38.2422 -3.18232 38.2456C-3.10374 38.2613 -2.94315 38.2696 -2.68072 38.2369C-2.16141 38.1721 -1.48133 37.9793 -0.766695 37.7261C-0.0643902 37.4773 0.620053 37.1888 1.13263 36.9604C1.37883 36.8508 1.58316 36.7559 1.72801 36.6875L13.1953 19.4471Z" fill="#1B1B1B"/>
<path fill-rule="evenodd" clip-rule="evenodd" d="M12.0419 21.1849L9.48778 21.404L8.81377 19.9657L7.08791 19.8181L7.90825 20.39C7.08791 19.8181 7.08797 19.8181 7.08791 19.8181L6.73963 20.3186C6.51587 20.6405 6.19265 21.1058 5.79458 21.6803C4.9985 22.8292 3.9029 24.4145 2.70494 26.1605C0.312362 29.6475 -2.49927 33.7907 -4.14475 36.3721M12.0419 21.1849L13.195 19.4471L14.9707 19.6657L25.8107 50.2257L25.7283 51.0702L15.9883 67.4902L15.6074 67.8578L15.1283 66.98C15.6074 67.8578 15.6076 67.8576 15.6074 67.8578L15.6064 67.8583L15.6048 67.8592L15.5997 67.8619L15.5823 67.8713L15.5195 67.9048C15.4656 67.9333 15.388 67.9738 15.2899 68.0237C15.0938 68.1236 14.8148 68.2615 14.478 68.4168C13.8086 68.7253 12.8919 69.1111 11.935 69.3989C11.0023 69.6794 9.92277 69.9012 8.9688 69.7918C8.47985 69.7357 7.96698 69.5864 7.5237 69.2605C7.08148 68.9353 6.77035 68.4791 6.60919 67.9198L-4.78317 39.3692C-5.04367 38.8901 -5.00786 38.3621 -4.89143 37.9275C-4.76482 37.4549 -4.50436 36.9357 -4.14475 36.3721M14.4129 66.2259L23.7692 50.4528L13.7549 22.2206L13.4415 22.6929L12.6937 23.1364L8.96373 23.4564L7.97274 22.8843L7.73912 22.3858C7.6445 22.5222 7.54413 22.667 7.43849 22.8194C6.64363 23.9665 5.54985 25.5492 4.35407 27.292C1.95927 30.7823 -0.833933 34.8989 -2.45849 37.4475C-2.76874 37.9337 -2.9087 38.2552 -2.95956 38.4451C-2.96755 38.4749 -2.97255 38.4981 -2.97565 38.5155L-2.95296 38.5594L8.48704 67.2294L8.52516 67.3449C8.57229 67.5235 8.64289 67.6009 8.70847 67.6491C8.78992 67.709 8.93807 67.7751 9.19677 67.8048C9.73811 67.8669 10.5005 67.7419 11.359 67.4836C12.1933 67.2327 13.0172 66.8879 13.6407 66.6005C13.9503 66.4577 14.2057 66.3314 14.3825 66.2414C14.3929 66.2361 14.403 66.231 14.4129 66.2259ZM-3.04218 38.3868C-3.02278 38.4167 -3.00942 38.4442 -3.00024 38.4679L-3.04218 38.3868Z" fill="#1B1B1B"/>
<path d="M53.3401 61.45L34.7301 54.34C32.1401 53.76 28.0601 54.65 28.7801 57.84C28.1501 56.98 28.0701 56.06 28.0601 55.82V25.08C28.0601 25.08 28.3301 20.85 35.2301 22.4L53.5701 31.86L54.2701 61.8L53.3401 61.45Z" fill="#8AD953"/>
<path d="M34.73 54.34L53.34 61.45L49 63.8V65.52C49 65.52 32.76 60.04 30.41 59.1C29.64 58.79 29.12 58.33 28.78 57.84C28.06 54.65 32.14 53.76 34.73 54.34Z" fill="white"/>
<path fill-rule="evenodd" clip-rule="evenodd" d="M29.0601 25.1339V54.3801C29.3848 54.1257 29.7442 53.9215 30.1128 53.7602C31.5935 53.1121 33.4829 53.036 34.9486 53.3642L35.0869 53.4059L53.2356 60.3396L52.5842 32.4767L34.8873 23.3484C31.7098 22.6597 30.3316 23.3403 29.7381 23.8915C29.4161 24.1906 29.2438 24.5222 29.1517 24.78C29.1057 24.9086 29.081 25.0152 29.0684 25.0834C29.0645 25.1043 29.0619 25.1213 29.0601 25.1339ZM27.9677 55.77H27.0601V25.08L27.0621 25.0163L28.0601 25.08C27.0621 25.0163 27.0621 25.0155 27.0622 25.0147L27.0623 25.0129L27.0626 25.0091L27.0632 25.0002L27.0651 24.9776C27.0667 24.9605 27.0689 24.9392 27.0719 24.9141C27.0779 24.8639 27.0873 24.798 27.1019 24.7192C27.131 24.5621 27.1813 24.3503 27.2684 24.1066C27.4425 23.6197 27.7691 22.9907 28.377 22.426C29.6359 21.2569 31.8147 20.6079 35.4492 21.4243L35.6885 21.5113L54.0285 30.9713L54.5698 31.8366L55.2698 61.7766L53.9178 62.7359L52.9878 62.3859L52.9832 62.3842L34.4439 55.3012C33.3297 55.0674 31.9211 55.1519 30.9148 55.5924C30.4119 55.8125 30.0775 56.0908 29.8935 56.3898C29.7237 56.6658 29.6263 57.0475 29.7555 57.6199L27.8046 58.0602C27.6151 57.2206 27.6773 56.4463 27.9677 55.77Z" fill="#1B1B1B"/>
<path fill-rule="evenodd" clip-rule="evenodd" d="M27.0601 55.82V55.77H29.0601V55.7961C29.0702 55.9786 29.1417 56.6415 29.5868 57.2491L29.6016 57.2699C29.8313 57.6009 30.1958 57.9356 30.7826 58.172C31.9287 58.6303 36.5397 60.2232 40.9096 61.7162C43.0855 62.4596 45.1881 63.1737 46.7468 63.702C47.2188 63.862 47.6409 64.0049 48.0001 64.1264V63.8L48.5239 62.9207L52.8592 60.5732L52.9444 60.5259L53.9157 62.2742L53.8162 62.3294L50.0001 64.3957V65.52L48.6803 66.4675L49.0001 65.52C48.6803 66.4675 48.6805 66.4676 48.6803 66.4675L47.9774 66.23C47.5285 66.0783 46.8847 65.8605 46.1049 65.5962C44.5452 65.0676 42.4409 64.3529 40.263 63.6088C35.9269 62.1273 31.2445 60.5108 30.0387 60.0285L30.0366 60.0277C29.0891 59.6462 28.4161 59.0654 27.9658 58.4207C27.1738 57.3331 27.0745 56.188 27.0609 55.8616L27.0601 55.82Z" fill="#1B1B1B"/>
<path d="M135.7 37.2201V66.8801C135.7 66.8801 135.61 67.6801 134.95 68.5401L134.92 68.5201C135.67 67.2101 132.39 65.8101 132.39 65.8101L113.67 57.7801L114.18 26.6401L114.21 26.6201V24.8401L134.01 33.9401C134.01 33.9401 135.7 35.1601 135.7 37.2201Z" fill="#8AD953"/>
<path d="M132.39 65.8101C132.39 65.8101 135.67 67.2101 134.92 68.5201L134.95 68.5401C134.41 69.2401 133.49 69.9701 131.93 70.3101L108.48 60.6901L109.23 27.2801L110.83 28.5901L114.18 26.6401L113.67 57.7801L132.39 65.8101Z" fill="white"/>
<path fill-rule="evenodd" clip-rule="evenodd" d="M113.21 24.8401L114.628 23.9315L134.428 33.0315L134.595 33.1293L134.01 33.9401C134.595 33.1293 134.595 33.129 134.595 33.1293L134.597 33.1303L134.598 33.1314L134.602 33.1339L134.61 33.1404L134.635 33.1591C134.655 33.1741 134.681 33.1941 134.712 33.2191C134.773 33.269 134.856 33.3391 134.953 33.4288C135.146 33.6074 135.4 33.8684 135.655 34.207C136.16 34.8803 136.7 35.9066 136.7 37.2201V66.8801L136.694 66.9919L135.7 66.8801C136.694 66.9919 136.694 66.9915 136.694 66.9919L136.693 66.9947L136.693 66.9979L136.692 67.0051L136.69 67.0232C136.688 67.0369 136.686 67.0536 136.682 67.0734C136.676 67.1128 136.667 67.1642 136.654 67.2259C136.628 67.3492 136.586 67.5151 136.519 67.7107C136.385 68.1013 136.151 68.6174 135.743 69.1489L135.742 69.1509C135.059 70.0359 133.935 70.8966 132.143 71.2871L131.55 71.2353L108.1 61.6153L107.48 60.6676L108.23 27.2576L109.863 26.5063L110.927 27.3768L113.21 26.0476V24.8401ZM134.7 66.7984V37.2201C134.7 36.4736 134.395 35.8599 134.055 35.4082C133.887 35.1843 133.719 35.0115 133.595 34.897C133.551 34.8561 133.513 34.8233 133.484 34.7988L115.21 26.4002V26.6201L114.765 27.4521L114.735 27.4721L114.683 27.5043L111.333 29.4543L110.196 29.3638L110.184 29.3534L109.495 60.0257L132.009 69.2618C133.151 68.9532 133.79 68.4061 134.157 67.9306C134.409 67.6023 134.55 67.2887 134.626 67.0644C134.664 66.9526 134.686 66.8647 134.697 66.8111C134.698 66.8066 134.699 66.8024 134.7 66.7984Z" fill="#1B1B1B"/>
<path fill-rule="evenodd" clip-rule="evenodd" d="M112.67 57.7637L113.18 26.6237L115.18 26.6565L114.681 57.1256L132.783 64.8905L132.784 64.8911L132.788 64.8927L132.798 64.8971L132.832 64.912C132.86 64.9246 132.9 64.9425 132.95 64.9653C133.048 65.0109 133.185 65.0766 133.347 65.1595C133.667 65.3234 134.098 65.5635 134.514 65.8575C134.913 66.1398 135.377 66.5268 135.683 67.0047C136.01 67.5157 136.221 68.2604 135.788 69.0169L134.052 68.0232C134.015 68.0881 134.035 68.1436 134.034 68.1439C134.034 68.144 134.027 68.1266 133.999 68.0833C133.901 67.9302 133.686 67.7216 133.359 67.4902C133.048 67.2704 132.706 67.0787 132.434 66.9391C132.3 66.8703 132.187 66.8164 132.109 66.7803C132.07 66.7623 132.04 66.7488 132.021 66.7403L132.001 66.7312L131.997 66.7298L131.996 66.7294L113.276 58.6991L112.67 57.7637Z" fill="#1B1B1B"/>
<path d="M170.6 28.4199H172.01L169.58 62.3099H143.76C143.76 62.3099 139.53 61.5799 139.35 58.6599L140.77 26.5699H140.81C140.81 27.8899 144.76 28.6899 144.76 28.6899L170.6 28.4199Z" fill="#8AD953"/>
<path d="M170.6 28.42L144.76 28.69C144.76 28.69 140.81 27.89 140.81 26.57C140.81 26.21 141.11 25.8099 141.86 25.3799L167.7 24.7L167.6 26.1L170.6 28.42Z" fill="white"/>
<path fill-rule="evenodd" clip-rule="evenodd" d="M141.834 24.3803L167.674 23.7003L168.697 24.7712L168.636 25.6367L170.942 27.4199H172.01L173.007 28.4915L170.577 62.3815L169.58 63.3099H143.76L143.59 63.2954L143.76 62.3099C143.59 63.2954 143.59 63.2954 143.59 63.2954L143.587 63.2948L143.582 63.2939L143.567 63.2913C143.556 63.2892 143.54 63.2863 143.521 63.2825C143.482 63.2749 143.428 63.264 143.362 63.2493C143.229 63.2199 143.043 63.1751 142.822 63.1118C142.382 62.9862 141.784 62.7828 141.17 62.4719C139.989 61.8732 138.475 60.7238 138.352 58.7215L138.351 58.6157L139.77 26.5478V26.4699H139.813C139.864 25.5736 140.604 24.9472 141.363 24.5124L141.834 24.3803ZM141.675 28.745C141.931 28.8661 142.192 28.9718 142.438 29.0629C142.974 29.2611 143.503 29.4119 143.893 29.5126C144.089 29.5632 144.253 29.602 144.369 29.6283C144.428 29.6415 144.474 29.6516 144.507 29.6586L144.545 29.6667L144.556 29.6689L144.56 29.6696L144.561 29.6699C144.561 29.6699 144.561 29.67 144.76 28.6899L144.561 29.6699L144.77 29.6899L170.605 29.4199H170.936L168.649 61.3099H143.856C143.839 61.3062 143.818 61.3017 143.794 61.2965C143.695 61.2746 143.549 61.2395 143.371 61.1887C143.012 61.0862 142.541 60.9246 142.075 60.688C141.113 60.2003 140.429 59.5394 140.352 58.6458L141.675 28.745ZM167.711 27.4501L166.988 26.891L166.603 26.0287L166.624 25.7286L142.153 26.3726C142.04 26.4468 141.959 26.5109 141.901 26.5631C141.928 26.5856 141.962 26.6114 142.003 26.6403C142.269 26.8275 142.669 27.0158 143.132 27.187C143.583 27.3538 144.042 27.4855 144.393 27.5761C144.567 27.621 144.711 27.6551 144.811 27.6777C144.829 27.6818 144.846 27.6855 144.861 27.6888L167.711 27.4501Z" fill="#1B1B1B"/>
<path d="M51.8201 39.6876L64.3601 62.77L83.9301 58.83C83.9301 58.83 86.0401 59.96 88.4301 59.96C90.8201 59.96 92.52 59.0001 93.0701 58.24L110.83 58.96L92.6401 34.67C92.6401 34.67 79.4101 31.38 77.5801 36.31C77.5801 36.31 66.0401 28.85 51.8201 39.55V39.6876Z" fill="#8AD953"/>
<path fill-rule="evenodd" clip-rule="evenodd" d="M92.8809 33.6995C92.8812 33.6995 92.8814 33.6996 92.6401 34.67L92.8814 33.6996L93.4405 34.0706L111.631 58.3606L110.79 59.9592L93.4985 59.2582C93.0729 59.6634 92.4934 60.0255 91.8294 60.3062C90.913 60.6935 89.7581 60.96 88.4301 60.96C87.0869 60.96 85.8471 60.6445 84.9603 60.3413C84.5129 60.1883 84.1451 60.0349 83.8864 59.9184C83.8546 59.9041 83.8244 59.8903 83.7959 59.8771L64.5574 63.7504L63.4814 63.2474L50.9414 40.165L50.8201 39.6876V39.55L51.2188 38.751C58.5451 33.2383 65.2438 32.3694 70.145 32.9239C72.5835 33.1998 74.56 33.8256 75.9326 34.3857C76.434 34.5904 76.8557 34.7866 77.1909 34.9545C77.9671 33.9187 79.1908 33.3306 80.4563 33.0054C82.101 32.5828 84.046 32.5375 85.8545 32.643C87.6771 32.7493 89.431 33.0135 90.7237 33.2492C91.3717 33.3674 91.9075 33.4791 92.2828 33.5616C92.4705 33.6029 92.6182 33.6369 92.72 33.6609C92.7708 33.6728 92.8102 33.6823 92.8374 33.6888L92.8689 33.6965L92.8775 33.6986L92.8801 33.6993L92.8809 33.6995ZM77.0372 37.1499L77.0369 37.1497L77.0201 37.1392C77.0035 37.1289 76.976 37.1121 76.938 37.0897C76.8621 37.0447 76.7439 36.9771 76.5859 36.8928C76.2696 36.7241 75.7942 36.4894 75.1769 36.2375C73.9414 35.7333 72.1441 35.1628 69.9201 34.9112C65.6338 34.4263 59.6975 35.1164 53.0618 39.8784L64.8864 61.644L83.7327 57.8497L84.4018 57.9484C84.4018 57.9483 84.4018 57.9483 84.4018 57.9483L84.4022 57.9485L84.4129 57.9541C84.4243 57.96 84.4433 57.9696 84.4694 57.9826C84.5216 58.0084 84.6023 58.0473 84.7078 58.0949C84.9194 58.1902 85.2285 58.3193 85.6073 58.4488C86.373 58.7106 87.3833 58.96 88.4301 58.96C89.4921 58.96 90.3821 58.7466 91.0507 58.464C91.7432 58.1712 92.1284 57.8356 92.26 57.6538L93.1106 57.2409L108.769 57.8757L92.0576 35.5606C91.9969 35.5468 91.9286 35.5315 91.8533 35.515C91.4979 35.4368 90.9858 35.33 90.3649 35.2168C89.1197 34.9897 87.4518 34.7396 85.7381 34.6396C84.0104 34.5388 82.3048 34.5954 80.9541 34.9425C79.5878 35.2936 78.8075 35.877 78.5176 36.658L77.0385 37.1494C77.038 37.1504 77.038 37.1504 77.038 37.1504L77.0372 37.1499Z" fill="#1B1B1B"/>
<path d="M77.6001 36.31L88.6801 57.55C88.6801 57.55 90.3801 57.6 91.8601 56.41C95.0901 53.8 109.06 56.55 109.06 56.55L108.13 54.35L93.7701 33.7C93.7701 33.7 77.6001 28.99 77.6001 36.31Z" fill="white"/>
<path fill-rule="evenodd" clip-rule="evenodd" d="M79.234 33.2573L90.9201 54.21C90.9201 54.21 97.6742 50.8906 108.192 54.4964L109.06 56.5499C109.06 56.5499 95.09 53.7999 91.86 56.4099C90.38 57.5999 88.68 57.5499 88.68 57.5499L77.6 36.3099C77.6 34.8686 78.227 33.8936 79.234 33.2573Z" fill="#DAEDF2"/>
<path fill-rule="evenodd" clip-rule="evenodd" d="M94.0491 32.7397C94.0494 32.7398 94.0497 32.7399 93.77 33.7L94.0491 32.7397L94.591 33.129L108.951 53.779L109.051 53.9606L109.981 56.1606L108.867 57.531L108.865 57.5308L108.858 57.5295L108.83 57.524L108.716 57.5023C108.616 57.4833 108.467 57.4555 108.276 57.421C107.893 57.3519 107.342 57.2559 106.669 57.1486C105.323 56.9337 103.498 56.6749 101.579 56.4969C99.6533 56.3184 97.6621 56.2242 95.972 56.3288C95.1271 56.3812 94.3824 56.4818 93.7714 56.6362C93.1491 56.7934 92.7339 56.9895 92.4885 57.1878L92.4867 57.1893C91.5957 57.9057 90.6471 58.2427 89.933 58.4022C89.5741 58.4823 89.2672 58.5193 89.0448 58.5363C88.9333 58.5448 88.8421 58.5483 88.7754 58.5496C88.7419 58.5503 88.7145 58.5503 88.6936 58.5502L88.6671 58.5499L88.6576 58.5497L88.6538 58.5496L88.6521 58.5496C88.6518 58.5496 88.6506 58.5495 88.68 57.55L88.6506 58.5495L87.7934 58.0125L76.7134 36.7725L77.6 36.31H76.6C76.6 35.1988 76.9115 34.2503 77.5038 33.4844C78.0869 32.7304 78.8891 32.2213 79.7651 31.8817C81.4888 31.2133 83.6881 31.1282 85.7498 31.2621C87.8388 31.3977 89.9128 31.7682 91.4544 32.1009C92.2278 32.2678 92.8728 32.4265 93.3259 32.5438C93.5525 32.6025 93.7314 32.6509 93.8547 32.6849C93.9163 32.702 93.964 32.7154 93.9968 32.7247L94.0348 32.7356L94.0452 32.7386L94.0491 32.7397ZM78.6071 36.0783L89.2586 56.4969C89.3328 56.4844 89.4126 56.4691 89.497 56.4503C90.0029 56.3373 90.6444 56.1043 91.2334 55.6306L91.86 56.41L91.2315 55.6322C91.7936 55.1779 92.5216 54.8891 93.2815 54.6971C94.0527 54.5023 94.9294 54.3896 95.8484 54.3327C97.6861 54.2189 99.793 54.3228 101.764 54.5055C103.74 54.6888 105.61 54.9543 106.984 55.1736C107.137 55.1978 107.283 55.2216 107.423 55.2446L107.25 54.8353L93.1551 34.5672C93.0623 34.5422 92.9516 34.5129 92.8246 34.48C92.3933 34.3683 91.7751 34.2162 91.0325 34.0559C89.5423 33.7343 87.5738 33.3847 85.6202 33.2579C83.6395 33.1292 81.7963 33.2391 80.4881 33.7464C79.8481 33.9945 79.3871 34.3185 79.0859 34.7079C78.8263 35.0436 78.6443 35.4805 78.6071 36.0783Z" fill="#1B1B1B"/>
<path d="M89.2801 57.44C89.2801 57.44 86.8901 57.79 85.0601 56.74C80.6501 54.2 66.3701 60.04 66.3701 60.04L54.1201 37.93L56.5101 35.44C56.5101 35.44 72.5701 28.7 77.5901 34.9C79.0401 36.68 89.3501 55.53 89.3501 55.53L89.2801 57.45V57.44Z" fill="white"/>
<path fill-rule="evenodd" clip-rule="evenodd" d="M85.0601 56.74C86.8901 57.79 89.2801 57.44 89.2801 57.44V57.45L89.3092 56.6512C83.2324 49.4516 68.2101 56.47 68.2101 56.47L56.7688 35.3349C56.6001 35.4022 56.5101 35.44 56.5101 35.44L54.1201 37.93L66.3701 60.04C66.3701 60.04 80.6501 54.2 85.0601 56.74Z" fill="#DAEDF2"/>
<path fill-rule="evenodd" clip-rule="evenodd" d="M57.0845 36.2857L55.3522 38.0905L66.82 58.7887C67.2094 58.639 67.7229 58.4459 68.3309 58.2266C69.7537 57.7133 71.7018 57.0539 73.7942 56.4739C75.8805 55.8955 78.1416 55.3871 80.1826 55.1888C82.1677 54.9959 84.1645 55.0708 85.558 55.8728C86.2813 56.2877 87.1594 56.4455 87.9092 56.4852C88.0528 56.4928 88.1887 56.4959 88.3142 56.496L88.3407 55.7688L88.0276 55.1977C87.7431 54.6792 87.335 53.9365 86.8407 53.0396C85.852 51.2456 84.519 48.8356 83.141 46.3705C81.7625 43.9045 80.3408 41.3868 79.1743 39.3762C78.5908 38.3705 78.0738 37.4961 77.6593 36.8204C77.231 36.1223 76.9461 35.6929 76.8148 35.5316L76.8129 35.5293C75.79 34.2659 74.1464 33.5882 72.0706 33.3629C70.0006 33.1383 67.6337 33.3807 65.3599 33.8264C63.0955 34.2702 60.9758 34.905 59.4179 35.4312C58.6404 35.6938 58.0062 35.9282 57.5681 36.0962C57.3611 36.1756 57.198 36.2401 57.0845 36.2857ZM89.3501 55.53L90.2274 55.0502L90.3494 55.5665L90.2794 57.4865L89.2842 57.4683C89.425 58.4295 89.4247 58.4295 89.4244 58.4296L89.4224 58.4298L89.419 58.4303L89.4095 58.4317L89.3803 58.4355C89.3563 58.4386 89.3233 58.4426 89.2823 58.4471C89.2002 58.4561 89.0851 58.467 88.9429 58.4762C88.6593 58.4946 88.2633 58.5067 87.8035 58.4824C86.9008 58.4346 85.6691 58.2424 84.5624 57.6074L84.561 57.6066C83.7496 57.1392 82.3081 56.9917 80.376 57.1794C78.4991 57.3617 76.3634 57.8371 74.3285 58.4012C72.2996 58.9636 70.4021 59.6055 69.0096 60.1079C68.3141 60.3588 67.7465 60.5742 67.3538 60.7264C67.1574 60.8026 67.0049 60.8629 66.9021 60.9039C66.8506 60.9244 66.8117 60.9401 66.7858 60.9505L66.7571 60.9622L66.7488 60.9655L65.4954 60.5247L53.2454 38.4147L53.3986 37.2376L55.7886 34.7476L56.1231 34.5179L56.5101 35.44C56.1231 34.5179 56.1228 34.5181 56.1231 34.5179L56.1276 34.516L56.138 34.5117L56.1759 34.4961C56.2086 34.4826 56.2564 34.4631 56.3182 34.4382C56.4418 34.3884 56.6219 34.317 56.8519 34.2288C57.3116 34.0525 57.9714 33.8088 58.7779 33.5364C60.3881 32.9925 62.5971 32.3298 64.9752 31.8637C67.344 31.3994 69.9333 31.1193 72.2864 31.3746C74.6338 31.6294 76.8802 32.4341 78.3673 34.2708C78.5984 34.5551 78.9521 35.1031 79.3641 35.7746C79.791 36.4705 80.3173 37.3609 80.9043 38.3726C82.0787 40.397 83.5065 42.9255 84.8867 45.3946C86.2674 47.8644 87.6025 50.2782 88.5923 52.0742C89.0872 52.9723 89.4959 53.7162 89.7809 54.2355C89.9234 54.4952 90.035 54.6988 90.111 54.8375L90.2274 55.0502C90.2275 55.0503 90.2274 55.0502 89.3501 55.53Z" fill="#1B1B1B"/>
<path d="M63.78 103.82C76.4328 103.82 86.69 93.5628 86.69 80.91C86.69 68.2572 76.4328 58 63.78 58C51.1272 58 40.87 68.2572 40.87 80.91C40.87 93.5628 51.1272 103.82 63.78 103.82Z" fill="#FAFAFA"/>
<path fill-rule="evenodd" clip-rule="evenodd" d="M63.78 59C51.6794 59 41.87 68.8094 41.87 80.91C41.87 93.0106 51.6794 102.82 63.78 102.82C75.8806 102.82 85.69 93.0106 85.69 80.91C85.69 68.8094 75.8806 59 63.78 59ZM39.87 80.91C39.87 67.7049 50.5749 57 63.78 57C76.9851 57 87.69 67.7049 87.69 80.91C87.69 94.1151 76.9851 104.82 63.78 104.82C50.5749 104.82 39.87 94.1151 39.87 80.91Z" fill="#1B1B1B"/>
<path d="M104.09 134.64L105.04 100.55L101.6 99.52L99.36 96.42C99.36 96.42 70.9 86.62 63.89 96.42C56.88 86.62 28.42 96.42 28.42 96.42L26.18 99.52L22.74 100.55L23.69 134.64" fill="#DAEDF2"/>
<path fill-rule="evenodd" clip-rule="evenodd" d="M105.011 101.58L104.09 134.64H23.69L22.7675 101.538C31.0012 99.257 54.1046 93.6242 60.3 100.31C60.3 100.31 60.46 101.83 63.89 101.83C67.32 101.83 67.25 100.31 67.25 100.31C67.25 100.31 74.5717 92.0605 105.011 101.58Z" fill="#FF8E14"/>
<path d="M60.3 100.31L59.29 101.14V139.84L68.16 137.87V101.3L67.24 100.32C67.24 100.32 66.86 101.84 63.88 101.84C60.9 101.84 60.83 100.86 60.29 100.32L60.3 100.31Z" fill="#FF8E14"/>
<path fill-rule="evenodd" clip-rule="evenodd" d="M63.89 94.8618C61.8465 92.7436 58.8066 91.7072 55.5152 91.2934C51.7295 90.8175 47.4109 91.1378 43.3747 91.7566C39.3282 92.3769 35.5115 93.3058 32.7106 94.0778C31.3089 94.4642 30.1583 94.8122 29.3568 95.064C28.956 95.19 28.6422 95.292 28.4278 95.3628C28.3206 95.3982 28.2382 95.4258 28.1821 95.4447L28.1179 95.4664L28.101 95.4722L28.0951 95.4743C28.0947 95.4744 28.0944 95.4745 28.42 96.42L28.0951 95.4743L27.6094 95.8343L25.5681 98.6593L22.4531 99.592L21.7404 100.578L22.6904 134.668L24.6896 134.612L23.7609 101.288L26.4668 100.478L26.9905 100.106L29.0424 97.266C29.0465 97.2647 29.0506 97.2633 29.0548 97.2619C29.2607 97.194 29.5653 97.0949 29.9563 96.9721C30.7386 96.7263 31.8662 96.3852 33.2421 96.0059C35.9966 95.2467 39.733 94.3382 43.6777 93.7335C47.6327 93.1272 51.7435 92.835 55.2657 93.2778C58.8114 93.7236 61.5641 94.8873 63.0766 97.0018H64.7033C66.2158 94.8873 68.9686 93.7236 72.5142 93.2778C76.0364 92.835 80.1472 93.1272 84.1022 93.7335C88.047 94.3382 91.7834 95.2467 94.5378 96.0059C95.9137 96.3852 97.0414 96.7263 97.8236 96.9721C98.2147 97.0949 98.5192 97.194 98.7251 97.2619C98.7293 97.2633 98.7335 97.2647 98.7375 97.266L100.789 100.106L101.313 100.478L104.019 101.288L103.09 134.612L105.09 134.668L106.04 100.578L105.327 99.592L102.212 98.6593L100.171 95.8343L99.6856 95.4745L99.36 96.42C99.6856 95.4745 99.686 95.4746 99.6856 95.4745L99.6835 95.4738L99.662 95.4664L99.5978 95.4447C99.5418 95.4258 99.4594 95.3982 99.3521 95.3628C99.1377 95.292 98.824 95.19 98.4232 95.064C97.6216 94.8122 96.4711 94.4642 95.0693 94.0778C92.2684 93.3058 88.4517 92.3769 84.4052 91.7566C80.369 91.1378 76.0504 90.8175 72.2648 91.2934C68.9733 91.7072 65.9334 92.7436 63.89 94.8618Z" fill="#1B1B1B"/>
<path fill-rule="evenodd" clip-rule="evenodd" d="M59.3 90.68V85.99H61.3V90.68H59.3Z" fill="#1B1B1B"/>
<path fill-rule="evenodd" clip-rule="evenodd" d="M66.2501 90.68V85.99H68.2501V90.68H66.2501Z" fill="#1B1B1B"/>
<path d="M20.38 129.68C26.654 129.68 31.74 124.124 31.74 117.27C31.74 110.416 26.654 104.86 20.38 104.86C14.1061 104.86 9.02002 110.416 9.02002 117.27C9.02002 124.124 14.1061 129.68 20.38 129.68Z" fill="#FAFAFA"/>
<path fill-rule="evenodd" clip-rule="evenodd" d="M20.38 105.86C14.7397 105.86 10.02 110.883 10.02 117.27C10.02 123.656 14.7397 128.68 20.38 128.68C26.0203 128.68 30.74 123.656 30.74 117.27C30.74 110.883 26.0203 105.86 20.38 105.86ZM8.02002 117.27C8.02002 109.949 13.4724 103.86 20.38 103.86C27.2876 103.86 32.74 109.949 32.74 117.27C32.74 124.591 27.2876 130.68 20.38 130.68C13.4724 130.68 8.02002 124.591 8.02002 117.27Z" fill="#1B1B1B"/>
<path d="M108.83 129.68C115.104 129.68 120.19 124.124 120.19 117.27C120.19 110.416 115.104 104.86 108.83 104.86C102.556 104.86 97.47 110.416 97.47 117.27C97.47 124.124 102.556 129.68 108.83 129.68Z" fill="#FAFAFA"/>
<path fill-rule="evenodd" clip-rule="evenodd" d="M108.83 105.86C103.19 105.86 98.47 110.883 98.47 117.27C98.47 123.656 103.19 128.68 108.83 128.68C114.47 128.68 119.19 123.656 119.19 117.27C119.19 110.883 114.47 105.86 108.83 105.86ZM96.47 117.27C96.47 109.949 101.922 103.86 108.83 103.86C115.738 103.86 121.19 109.949 121.19 117.27C121.19 124.591 115.738 130.68 108.83 130.68C101.922 130.68 96.47 124.591 96.47 117.27Z" fill="#1B1B1B"/>
<path d="M114.02 128C121.74 128 128.02 121.72 128.02 114H130.02C130.02 122.84 122.86 130 114.02 130H16.02C7.18002 130 0.0200195 122.84 0.0200195 114V16C0.0200195 7.16 7.18002 0 16.02 0H114.02V2H16.02C8.30002 2 2.02002 8.28 2.02002 16V114C2.02002 121.72 8.30002 128 16.02 128H114.02Z" fill="#1B1B1B"/>
</g>
<defs>
<clipPath id="clip0_3204_224">
<rect width="180" height="130" fill="white"/>
</clipPath>
</defs>
</svg>
