<svg width="180" height="130" viewBox="0 0 180 130" fill="none" xmlns="http://www.w3.org/2000/svg">
<g clip-path="url(#clip0_2775_13172)">
<path d="M114 0H16C7.16344 0 0 7.16344 0 16V114C0 122.837 7.16344 130 16 130H114C122.837 130 130 122.837 130 114V16C130 7.16344 122.837 0 114 0Z" fill="#8FDFF3"/>
<path d="M6.55005 81.5599C7.01005 68.2399 16.6701 57.5699 28.4701 57.5699C40.2701 57.5699 49.9201 68.2399 50.3801 81.5599H6.55005Z" fill="#AE82D1"/>
<path d="M28.46 58.5699C39.41 58.5699 48.43 68.2599 49.32 80.5599H7.60003C8.49003 68.2599 17.51 58.5699 28.46 58.5699V58.5699ZM28.46 56.5699C15.79 56.5699 5.53003 68.2099 5.53003 82.5599H51.4C51.4 68.2099 41.13 56.5699 28.47 56.5699H28.46Z" fill="#1B1B1B"/>
<path d="M28.06 63.8999C25.69 63.8999 23.77 61.9699 23.77 59.6099V57.1099C23.77 56.3999 24.35 55.8199 25.06 55.8199H31.81C32.52 55.8199 33.1 56.3999 33.1 57.1099V59.6099C33.1 61.9799 31.17 63.8999 28.81 63.8999H28.06Z" fill="white"/>
<path d="M31.82 56.8099C31.98 56.8099 32.11 56.9399 32.11 57.0999V59.5999C32.11 61.4199 30.63 62.8899 28.82 62.8899H28.07C26.25 62.8899 24.78 61.4099 24.78 59.5999V57.0999C24.78 56.9399 24.91 56.8099 25.07 56.8099H31.82ZM31.82 54.8099H25.07C23.8 54.8099 22.78 55.8399 22.78 57.0999V59.5999C22.78 62.5199 25.15 64.8899 28.07 64.8899H28.82C31.74 64.8899 34.11 62.5199 34.11 59.5999V57.0999C34.11 55.8299 33.08 54.8099 31.82 54.8099Z" fill="#1B1B1B"/>
<path d="M28.4499 57.71C19.3099 57.71 11.8699 50.27 11.8699 41.13C11.8699 31.99 19.3099 24.55 28.4499 24.55C37.5899 24.55 45.0299 31.99 45.0299 41.13C45.0299 50.27 37.5899 57.71 28.4499 57.71Z" fill="white"/>
<path d="M28.4499 25.55C37.0399 25.55 44.0299 32.54 44.0299 41.13C44.0299 49.72 37.0399 56.71 28.4499 56.71C19.8599 56.71 12.8699 49.72 12.8699 41.13C12.8699 32.54 19.8599 25.55 28.4499 25.55V25.55ZM28.4499 23.55C18.7399 23.55 10.8699 31.42 10.8699 41.13C10.8699 50.84 18.7399 58.71 28.4499 58.71C38.1599 58.71 46.0299 50.84 46.0299 41.13C46.0299 31.42 38.1599 23.55 28.4499 23.55Z" fill="#1B1B1B"/>
<path d="M5.18003 39.22C5.18003 39.22 5.09003 39.22 5.06003 39.14C5.03003 39.06 5.06003 39.02 5.09003 39L12.51 31.27L19.08 11.88L11.73 10.87C11.73 10.87 11.62 10.85 11.6 10.74C11.58 10.63 11.65 10.59 11.68 10.58L16.48 8.00999C18.26 7.05999 20.26 6.54999 22.27 6.54999C27.06 6.54999 31.45 9.35999 33.45 13.7L33.48 13.76L44.6 31.36L52 39C52 39 52.06 39.06 52.03 39.14C52 39.22 51.94 39.22 51.91 39.22H5.18003Z" fill="#AE82D1"/>
<path d="M22.26 7.54999C26.66 7.54999 30.69 10.13 32.53 14.12L32.58 14.24L32.65 14.35L43.68 31.81L43.79 31.98L43.93 32.13L49.83 38.22H7.22004L13.07 32.12L13.38 31.8L13.52 31.38L19.63 13.34L20.41 11.05L18.01 10.72L14.44 10.23L16.95 8.88999C18.61 7.99999 20.4 7.54999 22.27 7.54999H22.26ZM22.27 5.54999C20.16 5.54999 18.01 6.05999 16.01 7.12999L11.21 9.69999C10.22 10.23 10.49 11.71 11.6 11.86L17.75 12.71L11.64 30.75L4.38004 38.32C3.69004 39.04 4.20003 40.24 5.20003 40.24H51.89C52.89 40.24 53.4 39.04 52.7 38.32L45.38 30.76L34.35 13.3C32.09 8.40999 27.27 5.56999 22.26 5.56999L22.27 5.54999Z" fill="#1B1B1B"/>
<path d="M13.0198 29.74L15.1898 23.33L39.4498 23.15L43.5698 29.74H13.0198Z" fill="#CCB0E2"/>
<path d="M38.8999 24.15L41.7699 28.73H14.4099L15.9099 24.32L38.8999 24.15V24.15ZM39.9999 22.14L14.4699 22.33L11.6199 30.73H45.3799L39.9999 22.14V22.14Z" fill="#1B1B1B"/>
<path d="M29.98 43.88V48.66" stroke="#1B1B1B" stroke-width="2"/>
<path d="M36.1001 43.88V48.66" stroke="#1B1B1B" stroke-width="2"/>
<path d="M24.5701 81.56L14.3701 59.95C14.2301 59.71 13.3201 58.26 10.7701 58.26C9.57008 58.26 8.18008 58.59 6.65008 59.24C5.90008 59.56 5.00008 59.72 4.02008 59.72C1.26008 59.72 -1.47992 58.44 -3.30992 56.3C-5.65992 53.54 -6.48992 49.47 -5.70992 44.53C-3.59992 31.23 5.27008 29.09 5.65008 29.01H5.71008L5.77008 28.97C5.77008 28.97 7.88008 28.22 10.4601 28.22C13.6301 28.22 16.1101 29.29 17.8501 31.41C20.3301 34.44 21.4501 39.04 20.6401 42.86C20.2401 44.72 19.2101 47.21 16.5301 48.55C16.5301 48.55 16.2801 48.6 15.6801 48.6C14.1601 48.6 12.3201 48.29 11.9701 48.09C11.7901 47.95 11.6701 47.7 11.6701 47.43C11.6701 47.28 11.7201 47 11.9901 46.8C13.8301 45.45 16.0801 43.25 16.3501 40.45C16.5301 38.57 15.7901 36.73 14.1701 34.98C12.4301 33.11 10.5001 32.16 8.43008 32.16C3.31008 32.16 -0.619921 37.85 -1.29992 40.9C-1.60992 42.32 -3.02992 49.6 0.0600796 53.45C1.29008 54.98 3.04008 55.76 5.25008 55.76C5.62008 55.76 6.01008 55.74 6.43008 55.69C8.40008 55.47 9.84008 55.21 11.0001 55.01C12.0301 54.83 12.7801 54.69 13.3201 54.69C14.2901 54.69 14.6401 55.05 16.7101 58.21L28.3801 81.55H24.5901L24.5701 81.56Z" fill="#543969"/>
<path d="M10.46 29.22C13.31 29.22 15.54 30.17 17.08 32.05C19.38 34.85 20.42 39.12 19.66 42.66C19.32 44.27 18.44 46.41 16.23 47.59C16.14 47.6 15.96 47.61 15.68 47.61C14.72 47.61 13.62 47.48 12.95 47.34C14.88 45.85 17.06 43.53 17.34 40.55C17.55 38.37 16.72 36.27 14.9 34.3C12.97 32.22 10.79 31.16 8.41998 31.16C5.93998 31.16 3.38998 32.4 1.21998 34.65C-0.520016 36.45 -1.86002 38.76 -2.29002 40.69C-2.76002 42.8 -4.03002 49.98 -0.740016 54.08C0.669984 55.84 2.72998 56.76 5.22998 56.76C5.63998 56.76 6.07998 56.73 6.51998 56.68C8.51998 56.45 10.04 56.18 11.15 55.99C12.1 55.82 12.84 55.69 13.3 55.69C13.76 55.69 14.03 55.97 15.82 58.71L26.75 80.56H25.21L15.28 59.53L15.24 59.45L15.2 59.38C14.63 58.41 13.14 57.27 10.77 57.27C9.42999 57.27 7.91998 57.63 6.25998 58.33C5.63998 58.59 4.85998 58.73 4.01998 58.73C1.53998 58.73 -0.910016 57.58 -2.55002 55.66C-4.71002 53.13 -5.46002 49.34 -4.72002 44.7C-2.73002 32.14 5.51998 30.08 5.85998 30L5.98998 29.97L6.10998 29.93C6.10998 29.93 8.06998 29.24 10.46 29.24V29.22ZM10.46 27.24C7.64998 27.24 5.42998 28.05 5.42998 28.05C5.42998 28.05 -4.44002 30.19 -6.70002 44.39C-8.57002 56.16 -1.38002 60.74 4.01998 60.74C5.12998 60.74 6.16998 60.55 7.03998 60.18C8.61998 59.51 9.83999 59.28 10.77 59.28C12.82 59.28 13.47 60.4 13.47 60.4L23.94 82.58H29.99L17.57 57.74C15.52 54.61 14.91 53.72 13.32 53.72C12.04 53.72 10.13 54.29 6.31998 54.73C5.94998 54.77 5.58998 54.79 5.25998 54.79C-2.12002 54.79 -1.17002 45.02 -0.310016 41.15C0.339984 38.21 4.09998 33.19 8.44998 33.19C10.08 33.19 11.8 33.9 13.46 35.69C17.7 40.26 14.04 44.11 11.43 46.03C10.46 46.74 10.47 48.2 11.43 48.94C11.93 49.32 14.2 49.63 15.72 49.63C16.31 49.63 16.8 49.58 17.02 49.47C23.45 46.26 23.14 36.25 18.67 30.8C16.35 27.97 13.16 27.24 10.51 27.24H10.46Z" fill="#1B1B1B"/>
<path d="M22.8501 127.27C21.3101 127.27 19.9301 126.42 19.2501 125.04L7.15015 100.7L19.7401 94.4399L33.6301 122.38L24.6301 126.85C24.0701 127.13 23.4701 127.27 22.8501 127.27V127.27Z" fill="#8AD953"/>
<path d="M19.3001 95.78L32.3001 121.93L24.2001 125.96C23.7801 126.17 23.3301 126.28 22.8601 126.28C21.7001 126.28 20.6701 125.64 20.1501 124.6L8.50006 101.15L19.3001 95.78V95.78ZM20.2001 93.1L5.81006 100.25L18.3501 125.49C19.2301 127.25 21.0001 128.28 22.8501 128.28C23.6001 128.28 24.3601 128.11 25.0801 127.75L34.9701 122.83L20.1901 93.1H20.2001Z" fill="#1B1B1B"/>
<path d="M9.50009 100.92C8.08009 100.92 7.06009 100.51 6.71009 99.8101C6.02009 98.4201 7.83009 95.5801 11.5501 93.7401C13.2401 92.9001 15.0101 92.4401 16.5201 92.4401C17.9401 92.4401 18.9601 92.8501 19.3101 93.5501C20.0001 94.9401 18.1901 97.7801 14.4701 99.6201C12.7801 100.46 11.0101 100.92 9.50009 100.92Z" fill="#8AD953"/>
<path d="M16.5101 93.4301C17.7001 93.4301 18.2901 93.7601 18.4001 93.9901C18.7001 94.5801 17.5201 96.9801 14.0101 98.7201C12.4501 99.4901 10.8501 99.9201 9.49008 99.9201C8.30008 99.9201 7.71008 99.5901 7.60008 99.3601C7.48008 99.1101 7.61008 98.47 8.20008 97.65C9.00008 96.53 10.3801 95.4301 11.9901 94.6301C13.5401 93.8601 15.1501 93.4301 16.5101 93.4301V93.4301ZM16.5101 91.4301C14.9101 91.4301 12.9901 91.9 11.1001 92.84C7.13008 94.81 4.76008 98.1301 5.81008 100.25C6.36008 101.36 7.74008 101.92 9.50008 101.92C11.1001 101.92 13.0201 101.45 14.9101 100.51C18.8801 98.54 21.2501 95.2201 20.2001 93.1001C19.6501 91.9901 18.2701 91.4301 16.5101 91.4301Z" fill="#1B1B1B"/>
<path d="M22.7 100.55C23.61 102.39 21.56 105.26 18.12 106.97C14.68 108.68 11.15 108.58 10.23 106.74" stroke="#1B1B1B" stroke-width="2"/>
<path d="M55.58 93.3H25.47V112.38H55.58V93.3Z" fill="white"/>
<path d="M54.58 94.3V111.37H26.47V94.3H54.58V94.3ZM56.58 92.3H24.47V113.37H56.58V92.3Z" fill="#1B1B1B"/>
<path d="M18.6101 129.06C19.0701 115.74 28.7301 105.07 40.5301 105.07C52.3301 105.07 61.9801 115.74 62.4501 129.06H18.6101Z" fill="#B4E791"/>
<path d="M40.5301 106.07C51.4801 106.07 60.5001 115.76 61.3901 128.06H19.6701C20.5601 115.76 29.5801 106.07 40.5301 106.07ZM40.5301 104.07C27.8601 104.07 17.6001 115.71 17.6001 130.06H63.4601C63.4601 115.71 53.1901 104.07 40.5301 104.07V104.07Z" fill="#1B1B1B"/>
<path d="M40.3 109.26C37.93 109.26 36.01 107.33 36.01 104.97V102.47C36.01 101.76 36.59 101.18 37.3 101.18H44.05C44.76 101.18 45.34 101.76 45.34 102.47V104.97C45.34 107.34 43.41 109.26 41.05 109.26H40.3Z" fill="white"/>
<path d="M44.05 102.17C44.21 102.17 44.34 102.3 44.34 102.46V104.96C44.34 106.78 42.86 108.25 41.05 108.25H40.3C38.48 108.25 37.01 106.77 37.01 104.96V102.46C37.01 102.3 37.14 102.17 37.3 102.17H44.05ZM44.05 100.17H37.3C36.03 100.17 35.01 101.2 35.01 102.46V104.96C35.01 107.88 37.38 110.25 40.3 110.25H41.05C43.97 110.25 46.34 107.88 46.34 104.96V102.46C46.34 101.19 45.31 100.17 44.05 100.17Z" fill="#1B1B1B"/>
<path d="M28.54 109.09L40.51 119.36L53.17 109.09" stroke="#1B1B1B" stroke-width="2"/>
<path d="M40.5901 104.13C33.8901 104.13 27.8801 100.13 25.2901 93.9399L25.0201 93.28L24.3101 93.32C24.1801 93.32 24.0401 93.3299 23.9101 93.3299C21.9901 93.3299 20.1801 92.5 18.9501 91.04C16.8601 88.57 16.9401 84.97 19.0001 82.59L23.8701 88.34L24.0901 85.97C24.8901 77.41 31.9801 70.95 40.5901 70.95C49.2001 70.95 56.2201 77.3499 57.0901 85.8299L57.3301 88.17L62.0601 82.5799C62.9601 83.6099 63.5101 84.8999 63.6201 86.2999C63.7601 88.0299 63.2301 89.71 62.1001 91.04C60.8701 92.5 59.0601 93.3299 57.1401 93.3299C57.1401 93.3299 56.9501 93.3299 56.8501 93.3299L56.1501 93.2999L55.8801 93.9399C53.2901 100.12 47.2801 104.12 40.5801 104.12L40.5901 104.13Z" fill="white"/>
<path d="M40.5901 71.97C48.6201 71.97 55.2801 77.98 56.0901 85.96L56.5701 90.64L59.6101 87.05L61.9801 84.25C62.3401 84.91 62.5601 85.64 62.6201 86.41C62.7401 87.87 62.2901 89.3 61.3401 90.42C60.3001 91.65 58.7701 92.36 57.1401 92.36C57.0601 92.36 56.9801 92.36 56.8901 92.36L55.5001 92.3L54.9601 93.59C52.5201 99.4 46.8801 103.16 40.5801 103.16C34.2801 103.16 28.6401 99.4 26.2001 93.59L25.6501 92.28L24.2301 92.37C24.1201 92.37 24.0001 92.38 23.8901 92.38C22.2701 92.38 20.7401 91.67 19.6901 90.44C18.7401 89.32 18.2901 87.9 18.4101 86.43C18.4701 85.66 18.6901 84.93 19.0501 84.27L21.5501 87.22L24.6301 90.85L25.0701 86.11C25.8201 78.06 32.4901 72 40.5801 72L40.5901 71.97ZM40.5801 70C31.4301 70 23.9201 76.99 23.0801 85.93L19.0501 81.17C15.8901 83.85 15.5001 88.58 18.1701 91.74C19.6501 93.49 21.7601 94.38 23.8901 94.38C24.0401 94.38 24.2001 94.38 24.3501 94.37C27.0001 100.71 33.2701 105.17 40.5701 105.17C47.8701 105.17 54.1301 100.72 56.7901 94.38C56.9001 94.38 57.0101 94.38 57.1201 94.38C59.2501 94.38 61.3601 93.49 62.8401 91.73C65.5201 88.57 65.1201 83.84 61.9601 81.16L58.0501 85.78C57.1501 76.91 49.6601 70 40.5601 70H40.5801Z" fill="#1B1B1B"/>
<path d="M40.53 86.8V91.58" stroke="#1B1B1B" stroke-width="2"/>
<path d="M46.6401 86.8V91.58" stroke="#1B1B1B" stroke-width="2"/>
<path d="M24.03 88.3401C24.03 88.3401 43.8 88.3201 43.8 74.5601C43.8 74.5601 46.75 87.5501 57.02 87.5501" stroke="#1B1B1B" stroke-width="2"/>
<path d="M14.6201 121.33C14.6201 102.4 20.8501 87.0601 28.5401 87.0601V91.0101C22.7701 91.0101 18.1001 104.58 18.1001 121.33C18.1001 123.97 18.2201 126.54 18.4401 128.98H14.9801C14.7501 126.52 14.6301 123.96 14.6301 121.33H14.6201Z" fill="#9F410C" stroke="#1B1B1B" stroke-width="2"/>
<path d="M28.54 90.0601L29 128.06" stroke="#1B1B1B" stroke-width="2"/>
<path d="M114 2C121.72 2 128 8.28 128 16V114C128 121.72 121.72 128 114 128H16C8.28 128 2 121.72 2 114V16C2 8.28 8.28 2 16 2H114ZM114 0H16C7.16 0 0 7.16 0 16V114C0 122.84 7.16 130 16 130H114C122.84 130 130 122.84 130 114V16C130 7.16 122.84 0 114 0Z" fill="#1B1B1B"/>
<path d="M93.5698 33C95.779 33 97.5698 31.2091 97.5698 29C97.5698 26.7909 95.779 25 93.5698 25C91.3607 25 89.5698 26.7909 89.5698 29C89.5698 31.2091 91.3607 33 93.5698 33Z" fill="#FFDA00" stroke="#1B1B1B" stroke-width="2" stroke-miterlimit="10"/>
<path d="M93.25 31L99.78 36.56L101.88 32.67L95.22 28L93.25 31Z" fill="#FFDA00" stroke="#1B1B1B" stroke-width="2" stroke-miterlimit="10"/>
<path d="M104.89 41.94C102.5 42.3 100.32 40.53 100.17 38.12L99.7798 31.59L106.7 30.54L108.26 36.9C108.84 39.25 107.27 41.58 104.88 41.94H104.89Z" fill="#FFDA00" stroke="#1B1B1B" stroke-width="2" stroke-miterlimit="10"/>
<path d="M101.26 41.52C97.71 46.41 94.99 44.83 93.41 42.7C92.99 42.14 92.72 41.51 92.58 40.87C92.05 38.46 95.18 37.03 96.66 39.01L97.51 40.3C97.79 40.72 98.34 40.85 98.77 40.6L100.21 39.75L101.27 41.52H101.26Z" fill="#FF8E14" stroke="#1B1B1B" stroke-width="2" stroke-miterlimit="10"/>
<path d="M103.61 15.35C103.61 15.35 99.6398 15.14 96.8098 17.65C93.9798 20.17 93.7598 22.81 93.9198 24.11C94.0798 25.41 94.5398 27.2 94.5398 27.2C94.5398 27.2 93.2498 28.59 93.7998 29.81C94.3498 31.03 96.0598 32.08 99.7198 32.53C103.38 32.98 107.96 32.19 110.13 30.68C112.3 29.17 113.64 22.49 111.46 19.33C109.28 16.17 105.3 15.24 103.62 15.34L103.61 15.35Z" fill="#FFDA00" stroke="#1B1B1B" stroke-width="2" stroke-miterlimit="10"/>
<path d="M100.11 23.35V26.33" stroke="#1B1B1B" stroke-width="2" stroke-miterlimit="10"/>
<path d="M103.11 23.35V26.33" stroke="#1B1B1B" stroke-width="2" stroke-miterlimit="10"/>
<path d="M97.6099 27.53C99.0199 28.55 100.97 28.95 102.92 28.39" stroke="#FF8E14" stroke-width="2" stroke-miterlimit="10"/>
<path d="M105.27 41.53C101.72 46.42 98.99 44.83 97.41 42.7C96.99 42.14 96.72 41.51 96.58 40.87C96.05 38.46 99.18 37.03 100.66 39.01L101.51 40.3C101.79 40.72 102.34 40.85 102.77 40.6L103.29 40.3C103.8 40 104.46 40.17 104.76 40.68L105.27 41.53Z" fill="#FF8E14" stroke="#1B1B1B" stroke-width="2" stroke-miterlimit="10"/>
<path d="M106.57 36L110.81 33.58C111.34 33.84 111.93 34 112.57 34C114.78 34 116.57 32.21 116.57 30C116.57 27.79 114.78 26 112.57 26C110.36 26 108.57 27.79 108.57 30C108.57 30.24 108.6 30.48 108.64 30.71L105.57 33" fill="#FFDA00"/>
<path d="M106.57 36L110.81 33.58C111.34 33.84 111.93 34 112.57 34C114.78 34 116.57 32.21 116.57 30C116.57 27.79 114.78 26 112.57 26C110.36 26 108.57 27.79 108.57 30C108.57 30.24 108.6 30.48 108.64 30.71L105.57 33" stroke="#1B1B1B" stroke-width="2" stroke-miterlimit="10"/>
<path d="M88.8799 15.36L94.2499 35.21" stroke="#1B1B1B" stroke-width="2" stroke-miterlimit="10"/>
<path d="M89.7199 18.21L89.3799 18.13C89.1799 18.08 88.9699 18.13 88.8199 18.27L88.5599 18.5C87.9099 19.07 86.8899 18.65 86.8299 17.79L86.8099 17.44C86.7999 17.23 86.6799 17.05 86.4999 16.95L86.1999 16.77C85.4599 16.33 85.5399 15.23 86.3399 14.9L86.6599 14.77C86.8499 14.69 86.9899 14.53 87.0399 14.33L87.1199 13.99C87.3099 13.15 88.3799 12.88 88.9399 13.55L89.1599 13.82C89.2899 13.98 89.4899 14.06 89.6999 14.04L90.0499 14.01C90.9099 13.93 91.4899 14.87 91.0299 15.6L90.8499 15.89C90.7399 16.06 90.7199 16.28 90.8099 16.47L90.9499 16.79C91.2899 17.58 90.5799 18.43 89.7399 18.22L89.7199 18.21Z" fill="#FF8E14" stroke="#1B1B1B" stroke-width="2" stroke-miterlimit="10"/>
<path d="M95.45 93.24L88.83 94.72C86.12 95.33 83.31 95.33 80.6 94.72L73.98 93.24C72.49 93.24 71.37 92.27 71.65 91.23L73.95 82.62C74.16 81.82 75.14 81.24 76.28 81.24H93.16C94.3 81.24 95.28 81.82 95.49 82.62L97.79 91.23C98.07 92.27 96.95 93.24 95.46 93.24H95.45Z" fill="#1D8EFF" stroke="#1B1B1B" stroke-width="2" stroke-miterlimit="10"/>
<path d="M84.71 85.24C93.5465 85.24 100.71 78.0765 100.71 69.24C100.71 60.4034 93.5465 53.24 84.71 53.24C75.8734 53.24 68.71 60.4034 68.71 69.24C68.71 78.0765 75.8734 85.24 84.71 85.24Z" fill="#FFEB8A" stroke="#1B1B1B" stroke-width="2" stroke-miterlimit="10"/>
<path d="M85.5099 80.4399H81.5099L80.5799 78.1199C80.2599 77.3199 80.8499 76.4399 81.7199 76.4399H85.5099V80.4399Z" fill="#FF7900"/>
<path d="M74.7 69.9099L82.7 69.5799C82.7 69.5799 79.91 66.8399 82.7 65.5099C86.7 63.5999 90.83 66.3099 86.57 70.1099C82.31 73.9099 80.71 70.9599 80.71 75.6399H86.34C86.34 75.6399 88.24 72.3399 92.87 71.5299C97.5 70.7199 98.94 58.5799 87.42 60.2499C75.9 61.9199 69.48 65.1199 74.69 69.9199L74.7 69.9099Z" fill="#FF7900"/>
<path d="M65.15 61.7701C64.53 61.7701 64.01 61.35 63.88 60.75L62.83 55.98L58.06 54.93C57.46 54.8 57.04 54.28 57.04 53.66C57.04 53.04 57.46 52.52 58.06 52.39L62.83 51.34L63.88 46.57C64.01 45.97 64.53 45.55 65.15 45.55C65.77 45.55 66.29 45.97 66.42 46.57L67.47 51.34L72.24 52.39C72.84 52.52 73.26 53.04 73.26 53.66C73.26 54.28 72.84 54.8 72.24 54.93L67.47 55.98L66.42 60.75C66.29 61.35 65.77 61.7701 65.15 61.7701Z" fill="#FFE108"/>
<path d="M65.15 46.5601C65.28 46.5601 65.41 46.6401 65.44 46.7901L66.58 52.0001C66.6 52.1101 66.69 52.2001 66.81 52.2301L72.02 53.3701C72.33 53.4401 72.33 53.8801 72.02 53.9501L66.81 55.0901C66.7 55.1201 66.61 55.2001 66.58 55.3201L65.44 60.5301C65.41 60.6901 65.28 60.7601 65.15 60.7601C65.02 60.7601 64.89 60.6801 64.86 60.5301L63.72 55.3201C63.7 55.2101 63.61 55.1201 63.49 55.0901L58.28 53.9501C57.97 53.8801 57.97 53.4401 58.28 53.3701L63.49 52.2301C63.6 52.2001 63.69 52.1201 63.72 52.0001L64.86 46.7901C64.89 46.6301 65.02 46.5601 65.15 46.5601ZM65.15 44.5601C64.06 44.5601 63.14 45.3001 62.91 46.3701L62 50.5201L57.85 51.4301C56.79 51.6601 56.04 52.5901 56.04 53.6701C56.04 54.7501 56.78 55.6801 57.85 55.9101L62 56.8201L62.91 60.9701C63.14 62.0301 64.07 62.7801 65.15 62.7801C66.23 62.7801 67.16 62.0401 67.39 60.9701L68.3 56.8201L72.45 55.9101C73.51 55.6801 74.26 54.7501 74.26 53.6701C74.26 52.5901 73.52 51.6601 72.45 51.4301L68.3 50.5201L67.39 46.3701C67.16 45.3101 66.23 44.5601 65.15 44.5601Z" fill="#1B1B1B"/>
<path d="M100.81 81.0801C100.28 81.0801 99.83 80.7201 99.72 80.2001L99.4 78.7301L97.93 78.4101C97.42 78.3001 97.06 77.8501 97.05 77.3301C97.04 76.8101 97.41 76.3501 97.92 76.2401L99.4 75.9201L99.72 74.4501C99.83 73.9301 100.28 73.5701 100.81 73.5701C101.34 73.5701 101.79 73.9301 101.9 74.4501L102.22 75.9201L103.69 76.2401C104.21 76.3601 104.57 76.8101 104.57 77.3301C104.57 77.8501 104.21 78.3001 103.69 78.4201L102.22 78.7401L101.9 80.2101C101.79 80.7201 101.34 81.0901 100.81 81.0901V81.0801Z" fill="#FFE108"/>
<path d="M100.81 74.5601C100.81 74.5601 100.91 74.5901 100.92 74.6501L101.36 76.6701C101.36 76.6701 101.4 76.7501 101.45 76.7601L103.47 77.2001C103.59 77.2301 103.59 77.4001 103.47 77.4301L101.45 77.8701C101.45 77.8701 101.37 77.9101 101.36 77.9601L100.92 79.9801C100.91 80.0401 100.86 80.0701 100.81 80.0701C100.76 80.0701 100.71 80.0401 100.7 79.9801L100.26 77.9601C100.26 77.9601 100.22 77.8801 100.17 77.8701L98.15 77.4301C98.03 77.4001 98.03 77.2301 98.15 77.2001L100.17 76.7601C100.17 76.7601 100.25 76.7201 100.26 76.6701L100.7 74.6501C100.71 74.5901 100.76 74.5601 100.81 74.5601ZM100.81 72.5601C99.81 72.5601 98.96 73.2401 98.74 74.2201L98.55 75.0701L97.7 75.2601C96.72 75.4701 96.04 76.3201 96.04 77.3301C96.04 78.3401 96.72 79.1801 97.7 79.4001L98.55 79.5901L98.74 80.4401C98.95 81.4201 99.8 82.1001 100.81 82.1001C101.82 82.1001 102.66 81.4201 102.88 80.4401L103.07 79.5901L103.92 79.4001C104.9 79.1901 105.58 78.3401 105.58 77.3301C105.58 76.3201 104.9 75.4801 103.92 75.2601L103.07 75.0701L102.88 74.2201C102.67 73.2401 101.82 72.5601 100.81 72.5601Z" fill="#1B1B1B"/>
<path d="M76.31 104.08C75.75 104.08 75.28 103.7 75.16 103.15L74.59 100.54L71.98 99.9701C71.43 99.8501 71.05 99.3801 71.05 98.8201C71.05 98.2601 71.43 97.7901 71.98 97.6701L74.59 97.1001L75.16 94.4901C75.28 93.9401 75.75 93.5601 76.31 93.5601C76.87 93.5601 77.34 93.9401 77.46 94.4901L78.03 97.1001L80.64 97.6701C81.19 97.7901 81.57 98.2601 81.57 98.8201C81.57 99.3801 81.19 99.8501 80.64 99.9701L78.03 100.54L77.46 103.15C77.34 103.7 76.87 104.08 76.31 104.08Z" fill="#FFE108"/>
<path d="M76.31 94.5601C76.39 94.5601 76.46 94.6101 76.48 94.7001L77.17 97.8201C77.18 97.8901 77.24 97.9401 77.31 97.9601L80.43 98.6501C80.62 98.6901 80.62 98.9601 80.43 99.0001L77.31 99.6901C77.24 99.7101 77.19 99.7601 77.17 99.8301L76.48 102.95C76.46 103.04 76.38 103.09 76.31 103.09C76.24 103.09 76.16 103.04 76.14 102.95L75.45 99.8301C75.44 99.7601 75.38 99.7101 75.31 99.6901L72.19 99.0001C72 98.9601 72 98.6901 72.19 98.6501L75.31 97.9601C75.38 97.9401 75.43 97.8901 75.45 97.8201L76.14 94.7001C76.16 94.6101 76.24 94.5601 76.31 94.5601ZM76.31 92.5601C75.28 92.5601 74.4 93.2601 74.18 94.2701L73.74 96.2501L71.76 96.6901C70.75 96.9101 70.05 97.7901 70.05 98.8201C70.05 99.8501 70.75 100.73 71.76 100.95L73.75 101.39L74.19 103.37C74.41 104.38 75.29 105.08 76.32 105.08C77.35 105.08 78.23 104.38 78.45 103.37L78.89 101.39L80.87 100.95C81.88 100.73 82.58 99.8501 82.58 98.8201C82.58 97.7901 81.88 96.9101 80.87 96.6901L78.88 96.2501L78.44 94.2701C78.22 93.2601 77.34 92.5601 76.31 92.5601Z" fill="#1B1B1B"/>
<path d="M76.5701 50C78.2269 50 79.5701 48.6569 79.5701 47C79.5701 45.3431 78.2269 44 76.5701 44C74.9132 44 73.5701 45.3431 73.5701 47C73.5701 48.6569 74.9132 50 76.5701 50Z" fill="#FFE108"/>
<path d="M76.5701 45C77.6701 45 78.5701 45.9 78.5701 47C78.5701 48.1 77.6701 49 76.5701 49C75.4701 49 74.5701 48.1 74.5701 47C74.5701 45.9 75.4701 45 76.5701 45ZM76.5701 43C74.3601 43 72.5701 44.79 72.5701 47C72.5701 49.21 74.3601 51 76.5701 51C78.7801 51 80.5701 49.21 80.5701 47C80.5701 44.79 78.7801 43 76.5701 43Z" fill="#1B1B1B"/>
<path d="M90.0701 96C91.4508 96 92.5701 94.8807 92.5701 93.5C92.5701 92.1193 91.4508 91 90.0701 91C88.6894 91 87.5701 92.1193 87.5701 93.5C87.5701 94.8807 88.6894 96 90.0701 96Z" fill="#FFE108"/>
<path d="M90.0701 92C90.9001 92 91.5701 92.67 91.5701 93.5C91.5701 94.33 90.9001 95 90.0701 95C89.2401 95 88.5701 94.33 88.5701 93.5C88.5701 92.67 89.2401 92 90.0701 92ZM90.0701 90C88.1401 90 86.5701 91.57 86.5701 93.5C86.5701 95.43 88.1401 97 90.0701 97C92.0001 97 93.5701 95.43 93.5701 93.5C93.5701 91.57 92.0001 90 90.0701 90Z" fill="#1B1B1B"/>
<path d="M69.0701 77C70.4508 77 71.5701 75.8807 71.5701 74.5C71.5701 73.1193 70.4508 72 69.0701 72C67.6894 72 66.5701 73.1193 66.5701 74.5C66.5701 75.8807 67.6894 77 69.0701 77Z" fill="#FFE108"/>
<path d="M69.0701 73C69.9001 73 70.5701 73.67 70.5701 74.5C70.5701 75.33 69.9001 76 69.0701 76C68.2401 76 67.5701 75.33 67.5701 74.5C67.5701 73.67 68.2401 73 69.0701 73ZM69.0701 71C67.1401 71 65.5701 72.57 65.5701 74.5C65.5701 76.43 67.1401 78 69.0701 78C71.0001 78 72.5701 76.43 72.5701 74.5C72.5701 72.57 71.0001 71 69.0701 71Z" fill="#1B1B1B"/>
<path d="M144.425 16.2455L146.096 16.5547C152.606 17.7588 156.917 24.0276 155.713 30.5372L154.778 35.5915L129.507 30.9168L130.442 25.8626C131.646 19.353 137.915 15.0413 144.425 16.2455Z" fill="#82C6D1" stroke="#1B1B1B" stroke-width="2" stroke-linejoin="round"/>
<path d="M118.77 80.13C119.23 66.81 128.89 56.14 140.69 56.14C152.49 56.14 162.14 66.81 162.61 80.13H118.78H118.77Z" fill="#C7E8EF"/>
<path d="M140.69 57.15C151.64 57.15 160.66 66.84 161.55 79.14H119.83C120.72 66.84 129.74 57.15 140.69 57.15V57.15ZM140.69 55.15C128.02 55.15 117.76 66.79 117.76 81.14H163.62C163.62 66.79 153.35 55.15 140.69 55.15Z" fill="#1B1B1B"/>
<path d="M140.31 60.34C137.94 60.34 136.02 58.41 136.02 56.05V53.55C136.02 52.84 136.6 52.26 137.31 52.26H144.06C144.77 52.26 145.35 52.84 145.35 53.55V56.05C145.35 58.42 143.42 60.34 141.06 60.34H140.31Z" fill="white"/>
<path d="M144.06 53.25C144.22 53.25 144.35 53.38 144.35 53.54V56.04C144.35 57.86 142.87 59.33 141.06 59.33H140.31C138.49 59.33 137.02 57.85 137.02 56.04V53.54C137.02 53.38 137.15 53.25 137.31 53.25H144.06ZM144.06 51.25H137.31C136.04 51.25 135.02 52.28 135.02 53.54V56.04C135.02 58.96 137.39 61.33 140.31 61.33H141.06C143.98 61.33 146.35 58.96 146.35 56.04V53.54C146.35 52.27 145.32 51.25 144.06 51.25Z" fill="#1B1B1B"/>
<path d="M140.69 55.22C131.55 55.22 124.11 47.78 124.11 38.64C124.11 29.5 131.55 22.06 140.69 22.06C149.83 22.06 157.27 29.5 157.27 38.64C157.27 47.78 149.83 55.22 140.69 55.22Z" fill="white"/>
<path d="M140.69 23.05C149.28 23.05 156.27 30.04 156.27 38.63C156.27 47.22 149.28 54.21 140.69 54.21C132.1 54.21 125.11 47.22 125.11 38.63C125.11 30.04 132.1 23.05 140.69 23.05V23.05ZM140.69 21.05C130.98 21.05 123.11 28.92 123.11 38.63C123.11 48.34 130.98 56.21 140.69 56.21C150.4 56.21 158.27 48.34 158.27 38.63C158.27 28.92 150.4 21.05 140.69 21.05Z" fill="#1B1B1B"/>
<path d="M135.49 39.86V44.64" stroke="#1B1B1B" stroke-width="2" stroke-linejoin="round"/>
<path d="M141.6 39.86V44.64" stroke="#1B1B1B" stroke-width="2" stroke-linejoin="round"/>
<path d="M149.68 58.71L146.36 79.44" stroke="#1B1B1B" stroke-width="2" stroke-linejoin="round"/>
<path d="M156.55 64.45L149.68 79.94" stroke="#1B1B1B" stroke-width="2" stroke-linejoin="round"/>
<path d="M131.7 58.71L135.02 79.44" stroke="#1B1B1B" stroke-width="2" stroke-linejoin="round"/>
<path d="M124.83 64.45L131.7 79.94" stroke="#1B1B1B" stroke-width="2" stroke-linejoin="round"/>
<path d="M124.4 38.63C124.4 38.63 137.77 38.82 137.77 29.68C137.77 29.68 137.84 41.05 157.37 37.75" stroke="#1B1B1B" stroke-width="2"/>
<path d="M149.39 80.13L158.61 35.11L161.9 35.78L152.81 80.13H149.39Z" fill="#1D8EFF"/>
<path d="M159.39 36.2899L160.72 36.5599L152 79.1399H150.62L159.4 36.2899H159.39ZM157.84 33.9299L148.17 81.1399H153.64L163.09 35.0099L157.84 33.9399V33.9299Z" fill="#1B1B1B"/>
<path d="M158.17 47.28C157.68 47.28 157.19 47.08 156.87 46.75C156.56 46.43 156.4 46.02 156.41 45.52L156.51 39.61C156.51 39.32 156.39 39.04 156.18 38.85C156 38.68 155.76 38.6 155.51 38.6C155.47 38.6 155.43 38.6 155.38 38.6L149.52 39.36C149.43 39.37 149.34 39.38 149.25 39.38C148.3 39.38 147.78 38.67 147.62 38.07C147.54 37.77 147.37 36.74 148.46 36.14L153.63 33.27C153.88 33.13 154.06 32.88 154.12 32.6C154.18 32.32 154.12 32.02 153.94 31.79L150.35 27.09C149.78 26.34 149.98 25.65 150.15 25.31C150.45 24.7 151.08 24.29 151.71 24.29C152.01 24.29 152.32 24.38 152.62 24.56L157.69 27.6C157.85 27.69 158.02 27.74 158.2 27.74C158.31 27.74 158.41 27.72 158.51 27.69C158.79 27.6 159.01 27.39 159.12 27.12L161.4 21.66C161.8 20.7 162.62 20.59 162.96 20.59C163.45 20.59 163.94 20.79 164.26 21.12C164.57 21.44 164.73 21.85 164.72 22.35L164.62 28.26C164.62 28.55 164.74 28.83 164.95 29.02C165.13 29.19 165.37 29.27 165.62 29.27C165.66 29.27 165.7 29.27 165.75 29.27L171.61 28.51C171.7 28.5 171.79 28.49 171.88 28.49C172.83 28.49 173.35 29.2 173.51 29.8C173.59 30.1 173.76 31.13 172.67 31.73L167.5 34.6C167.25 34.74 167.07 34.99 167.01 35.27C166.95 35.55 167.01 35.85 167.19 36.08L170.78 40.78C171.35 41.53 171.15 42.22 170.98 42.56C170.68 43.17 170.05 43.58 169.42 43.58C169.12 43.58 168.81 43.49 168.51 43.31L163.44 40.27C163.28 40.18 163.1 40.13 162.93 40.13C162.82 40.13 162.72 40.15 162.62 40.18C162.34 40.27 162.12 40.48 162.01 40.75L159.73 46.21C159.33 47.17 158.51 47.28 158.17 47.28V47.28Z" fill="#FFE108"/>
<path d="M162.95 21.6C163.17 21.6 163.4 21.69 163.54 21.83C163.62 21.91 163.72 22.05 163.71 22.34L163.61 28.25C163.61 28.83 163.84 29.39 164.28 29.77C164.65 30.1 165.12 30.28 165.61 30.28C165.7 30.28 165.78 30.28 165.87 30.26L171.73 29.5C171.73 29.5 171.82 29.5 171.87 29.5C172.34 29.5 172.49 29.89 172.53 30.06C172.62 30.41 172.5 30.69 172.18 30.87L167.01 33.74C166.5 34.02 166.14 34.51 166.02 35.08C165.9 35.65 166.04 36.24 166.39 36.7L169.98 41.4C170.11 41.57 170.24 41.81 170.08 42.13C169.95 42.4 169.67 42.59 169.42 42.59C169.3 42.59 169.17 42.55 169.03 42.46L163.96 39.42C163.65 39.23 163.29 39.14 162.93 39.14C162.72 39.14 162.51 39.17 162.31 39.24C161.76 39.42 161.31 39.83 161.09 40.37L158.81 45.83C158.73 46.02 158.58 46.28 158.17 46.28C157.95 46.28 157.72 46.19 157.58 46.05C157.5 45.97 157.4 45.83 157.41 45.54L157.51 39.63C157.51 39.05 157.28 38.49 156.84 38.11C156.47 37.78 156 37.6 155.51 37.6C155.42 37.6 155.34 37.6 155.25 37.62L149.39 38.38C149.39 38.38 149.3 38.38 149.25 38.38C148.78 38.38 148.63 37.99 148.59 37.82C148.5 37.47 148.62 37.19 148.94 37.01L154.11 34.14C154.62 33.86 154.98 33.37 155.1 32.8C155.22 32.23 155.08 31.64 154.73 31.18L151.14 26.48C151.01 26.31 150.88 26.07 151.04 25.75C151.17 25.48 151.45 25.29 151.7 25.29C151.82 25.29 151.95 25.33 152.09 25.42L157.16 28.46C157.47 28.65 157.83 28.74 158.19 28.74C158.4 28.74 158.61 28.71 158.81 28.64C159.36 28.46 159.81 28.05 160.03 27.51L162.31 22.05C162.39 21.86 162.54 21.6 162.95 21.6ZM162.95 19.6C161.95 19.6 160.95 20.12 160.47 21.28L158.19 26.74L153.12 23.7C152.64 23.41 152.16 23.29 151.7 23.29C149.66 23.29 148.06 25.75 149.55 27.69L153.14 32.39L147.97 35.26C145.46 36.65 146.55 40.38 149.25 40.38C149.38 40.38 149.51 40.38 149.65 40.35L155.51 39.59L155.41 45.5C155.38 47.25 156.77 48.28 158.17 48.28C159.17 48.28 160.17 47.76 160.65 46.6L162.93 41.14L168 44.18C168.48 44.47 168.96 44.59 169.42 44.59C171.46 44.59 173.06 42.13 171.57 40.19L167.98 35.49L173.15 32.62C175.66 31.23 174.57 27.5 171.87 27.5C171.74 27.5 171.61 27.5 171.47 27.53L165.61 28.29L165.71 22.38C165.74 20.63 164.35 19.6 162.95 19.6V19.6Z" fill="#1B1B1B"/>
<path d="M119.09 111.91C115.27 108.64 109.52 109.09 106.25 112.9C102.98 116.72 103.43 122.47 107.24 125.74L119.08 111.91H119.09Z" fill="#D1D8D9" stroke="#1B1B1B" stroke-width="2" stroke-linejoin="round"/>
<path d="M116.52 109.82C113.3 105.96 107.56 105.45 103.7 108.67C99.84 111.89 99.33 117.63 102.55 121.49L116.52 109.82V109.82Z" fill="#D1D8D9" stroke="#1B1B1B" stroke-width="2" stroke-linejoin="round"/>
<path d="M115.36 115.45C118.315 115.45 120.71 113.055 120.71 110.1C120.71 107.145 118.315 104.75 115.36 104.75C112.405 104.75 110.01 107.145 110.01 110.1C110.01 113.055 112.405 115.45 115.36 115.45Z" fill="#E0E0E0" stroke="#1B1B1B" stroke-width="2" stroke-linejoin="round"/>
<path d="M107.57 129C108.03 115.68 117.69 105.01 129.49 105.01C141.29 105.01 150.94 115.68 151.41 129H107.58H107.57Z" fill="#A2A2A2"/>
<path d="M129.48 106.01C140.43 106.01 149.45 115.7 150.34 128H108.62C109.51 115.7 118.53 106.01 129.48 106.01V106.01ZM129.48 104.01C116.81 104.01 106.55 115.65 106.55 130H152.41C152.41 115.65 142.14 104.01 129.48 104.01Z" fill="#1B1B1B"/>
<path d="M128.22 70.47H130.35C138.63 70.47 145.35 77.19 145.35 85.47V109.02H113.22V85.47C113.22 77.19 119.94 70.47 128.22 70.47Z" fill="#A2A2A2" stroke="#1B1B1B" stroke-width="2" stroke-linejoin="round"/>
<path d="M139.99 88.6799H116.43V102.6H139.99V88.6799Z" fill="white" stroke="#1B1B1B" stroke-width="2" stroke-linejoin="round"/>
<path d="M124.28 90.86V95.65" stroke="#1B1B1B" stroke-width="2" stroke-linejoin="round"/>
<path d="M130.4 90.86V95.65" stroke="#1B1B1B" stroke-width="2" stroke-linejoin="round"/>
<path d="M139.99 88.68H110V80.11L121.79 74.76L139.99 80.11V88.68Z" fill="#E0E0E0" stroke="#1B1B1B" stroke-width="2" stroke-linejoin="round"/>
<path d="M121.79 79.04V85.07" stroke="#1B1B1B" stroke-width="2" stroke-linejoin="round"/>
<path d="M117.5 80.11V85.07" stroke="#1B1B1B" stroke-width="2" stroke-linejoin="round"/>
<path d="M126.07 80.11V85.07" stroke="#1B1B1B" stroke-width="2" stroke-linejoin="round"/>
<path d="M140.55 111.91C144.37 108.64 150.12 109.09 153.39 112.9C156.66 116.72 156.21 122.47 152.4 125.74L140.56 111.91H140.55Z" fill="#D1D8D9" stroke="#1B1B1B" stroke-width="2" stroke-linejoin="round"/>
<path d="M143.11 109.82C146.33 105.96 152.07 105.45 155.93 108.67C159.79 111.89 160.3 117.63 157.08 121.49L143.11 109.82V109.82Z" fill="#D1D8D9" stroke="#1B1B1B" stroke-width="2" stroke-linejoin="round"/>
<path d="M144.28 115.45C147.235 115.45 149.63 113.055 149.63 110.1C149.63 107.145 147.235 104.75 144.28 104.75C141.325 104.75 138.93 107.145 138.93 110.1C138.93 113.055 141.325 115.45 144.28 115.45Z" fill="#E0E0E0" stroke="#1B1B1B" stroke-width="2" stroke-linejoin="round"/>
<path d="M116.52 109.82C116.52 109.82 113.21 116.52 117.5 128.3" stroke="#1B1B1B" stroke-width="2" stroke-linejoin="round"/>
<path d="M138.09 109.03C138.09 109.03 133.56 116.53 132.49 129.38" stroke="#1B1B1B" stroke-width="2" stroke-linejoin="round"/>
</g>
<defs>
<clipPath id="clip0_2775_13172">
<rect width="180" height="130" fill="white"/>
</clipPath>
</defs>
</svg>
