<svg width="180" height="130" viewBox="0 0 180 130" fill="none" xmlns="http://www.w3.org/2000/svg">
<g clip-path="url(#clip0_3204_226)">
<path d="M114 0H16C7.16344 0 0 7.16344 0 16V114C0 122.837 7.16344 130 16 130H114C122.837 130 130 122.837 130 114V16C130 7.16344 122.837 0 114 0Z" fill="#8FDFF3"/>
<path d="M6.54999 81.5599C7.00999 68.2399 16.67 57.5699 28.47 57.5699C40.27 57.5699 49.92 68.2399 50.38 81.5599H6.54999Z" fill="#AE82D1"/>
<path fill-rule="evenodd" clip-rule="evenodd" d="M7.60445 80.5599H49.3255C48.4326 68.1537 39.3168 58.5699 28.47 58.5699C17.6227 58.5699 8.49787 68.1542 7.60445 80.5599ZM5.55058 81.5254C6.02497 67.7888 16.017 56.5699 28.47 56.5699C40.9235 56.5699 50.905 67.7894 51.3794 81.5254L51.4151 82.5599H5.51485L5.55058 81.5254Z" fill="#1B1B1B"/>
<path d="M28.06 63.8999C25.69 63.8999 23.77 61.9699 23.77 59.6099V57.1099C23.77 56.3999 24.35 55.8199 25.06 55.8199H31.81C32.52 55.8199 33.1 56.3999 33.1 57.1099V59.6099C33.1 61.9799 31.17 63.8999 28.81 63.8999H28.06Z" fill="white"/>
<path fill-rule="evenodd" clip-rule="evenodd" d="M25.06 56.8199C24.9023 56.8199 24.77 56.9522 24.77 57.1099V59.6099C24.77 61.4192 26.2438 62.8999 28.06 62.8999H28.81C30.6192 62.8999 32.1 61.4261 32.1 59.6099V57.1099C32.1 56.9522 31.9677 56.8199 31.81 56.8199H25.06ZM22.77 57.1099C22.77 55.8477 23.7977 54.8199 25.06 54.8199H31.81C33.0723 54.8199 34.1 55.8477 34.1 57.1099V59.6099C34.1 62.5337 31.7208 64.8999 28.81 64.8999H28.06C25.1362 64.8999 22.77 62.5207 22.77 59.6099V57.1099Z" fill="#1B1B1B"/>
<path d="M28.45 57.7099C19.31 57.7099 11.87 50.2699 11.87 41.1299C11.87 31.9899 19.31 24.5499 28.45 24.5499C37.59 24.5499 45.03 31.9899 45.03 41.1299C45.03 50.2699 37.59 57.7099 28.45 57.7099Z" fill="white"/>
<path fill-rule="evenodd" clip-rule="evenodd" d="M28.45 25.5499C19.8623 25.5499 12.87 32.5422 12.87 41.1299C12.87 49.7176 19.8623 56.7099 28.45 56.7099C37.0377 56.7099 44.03 49.7176 44.03 41.1299C44.03 32.5422 37.0377 25.5499 28.45 25.5499ZM10.87 41.1299C10.87 31.4376 18.7577 23.5499 28.45 23.5499C38.1423 23.5499 46.03 31.4376 46.03 41.1299C46.03 50.8222 38.1423 58.7099 28.45 58.7099C18.7577 58.7099 10.87 50.8222 10.87 41.1299Z" fill="#1B1B1B"/>
<path d="M5.17999 39.2199C5.17999 39.2199 5.08999 39.2199 5.05999 39.1399C5.02999 39.0599 5.05999 39.0199 5.08999 38.9999L12.51 31.2699L19.08 11.8799L11.73 10.8699C11.73 10.8699 11.62 10.8499 11.6 10.7399C11.58 10.6299 11.65 10.5899 11.68 10.5799L16.48 8.00993C18.26 7.05993 20.26 6.54993 22.27 6.54993C27.06 6.54993 31.45 9.35993 33.45 13.6999L33.48 13.7599L44.6 31.3599L52 38.9999C52 38.9999 52.06 39.0599 52.03 39.1399C52 39.2199 51.94 39.2199 51.91 39.2199H5.17999Z" fill="#AE82D1"/>
<path fill-rule="evenodd" clip-rule="evenodd" d="M16.9508 8.89214C16.9506 8.89224 16.951 8.89204 16.9508 8.89214L14.4453 10.2337L20.4157 11.0541L13.3856 31.8018L7.22485 38.2199H49.8523L43.8098 31.9814L32.6079 14.2518L32.5484 14.1329L32.5418 14.1185C30.7054 10.1335 26.6704 7.54993 22.27 7.54993C20.428 7.54993 18.5889 8.01799 16.9508 8.89214ZM51.91 38.2199H51.8878C51.907 38.2193 51.9155 38.2199 51.91 38.2199ZM11.73 10.8699C11.5511 11.8538 11.5507 11.8537 11.5502 11.8536L11.5475 11.8531L11.5437 11.8524L11.536 11.8509L11.5196 11.8476C11.5082 11.8451 11.4959 11.8423 11.4827 11.839C11.4564 11.8324 11.4259 11.8238 11.3921 11.8124C11.3266 11.7902 11.238 11.7539 11.1425 11.6942C10.9415 11.5686 10.6892 11.3207 10.6161 10.9188C10.5609 10.6154 10.6205 10.29 10.8212 10.0224C10.9524 9.84759 11.1099 9.74229 11.2422 9.68001L16.0091 7.12771C17.9309 6.10205 20.0922 5.54993 22.27 5.54993C27.4442 5.54993 32.1847 8.58003 34.3514 13.2666L34.3521 13.268L45.3902 30.7384L52.7123 38.298L52.7176 38.3035L52.7183 38.3042L52.7288 38.3151C52.7364 38.3233 52.7446 38.3322 52.7531 38.3419C52.77 38.3611 52.789 38.384 52.8089 38.4106C52.8476 38.4622 52.8959 38.5355 52.9382 38.6296C53.0256 38.8239 53.0982 39.1393 52.9663 39.4911C52.8643 39.7632 52.6615 39.9969 52.3762 40.1237C52.1483 40.225 51.9372 40.2205 51.9122 40.22C51.9111 40.2199 51.9104 40.2199 51.91 40.2199H5.17997L5.17999 39.2199C5.17997 40.2199 5.1804 40.2199 5.17997 40.2199H5.17822L5.17287 40.2199L5.16545 40.2198L5.14966 40.2195C5.13872 40.2192 5.12686 40.2186 5.11415 40.2179C5.08891 40.2163 5.05937 40.2136 5.02645 40.209C4.96291 40.2001 4.87469 40.1823 4.77523 40.1444C4.57032 40.0663 4.26878 39.8781 4.12366 39.4911C4.05068 39.2964 4.00595 39.0248 4.10381 38.7312C4.17293 38.5238 4.29036 38.3742 4.40351 38.271L11.6343 30.7381L17.7443 12.7058L11.5724 11.8577L11.5502 11.8536L11.73 10.8699Z" fill="#1B1B1B"/>
<path d="M13.02 29.7399L15.19 23.3299L39.45 23.1499L43.57 29.7399H13.02Z" fill="#CCB0E2"/>
<path fill-rule="evenodd" clip-rule="evenodd" d="M40.0016 22.1458L45.3745 30.7399H11.6257L14.471 22.3352L40.0016 22.1458ZM15.909 24.3246L14.4143 28.7399H41.7654L38.8984 24.154L15.909 24.3246Z" fill="#1B1B1B"/>
<path fill-rule="evenodd" clip-rule="evenodd" d="M28.98 48.78V44H30.98V48.78H28.98Z" fill="#1B1B1B"/>
<path fill-rule="evenodd" clip-rule="evenodd" d="M35.1 48.78V44H37.1V48.78H35.1Z" fill="#1B1B1B"/>
<path d="M24.57 81.56L14.37 59.95C14.23 59.71 13.32 58.26 10.77 58.26C9.56999 58.26 8.17999 58.59 6.64999 59.24C5.89999 59.56 4.99999 59.72 4.01999 59.72C1.25999 59.72 -1.48001 58.44 -3.31001 56.3C-5.66001 53.54 -6.49001 49.47 -5.71001 44.53C-3.60001 31.23 5.26999 29.09 5.64999 29.01H5.70999L5.76999 28.97C5.76999 28.97 7.87999 28.22 10.46 28.22C13.63 28.22 16.11 29.29 17.85 31.41C20.33 34.44 21.45 39.04 20.64 42.86C20.24 44.72 19.21 47.21 16.53 48.55C16.53 48.55 16.28 48.6 15.68 48.6C14.16 48.6 12.32 48.29 11.97 48.09C11.79 47.95 11.67 47.7 11.67 47.43C11.67 47.28 11.72 47 11.99 46.8C13.83 45.45 16.08 43.25 16.35 40.45C16.53 38.57 15.79 36.73 14.17 34.98C12.43 33.11 10.5 32.16 8.42999 32.16C3.30999 32.16 -0.620012 37.85 -1.30001 40.9C-1.61001 42.32 -3.03001 49.6 0.059988 53.45C1.28999 54.98 3.03999 55.76 5.24999 55.76C5.61999 55.76 6.00999 55.74 6.42999 55.69C8.39999 55.47 9.83999 55.21 11 55.01C12.03 54.83 12.78 54.69 13.32 54.69C14.29 54.69 14.64 55.05 16.71 58.21L28.38 81.55H24.59L24.57 81.56Z" fill="#543969"/>
<path fill-rule="evenodd" clip-rule="evenodd" d="M6.21323 29.8763L6.01276 30.01H5.7691C5.76111 30.0121 5.75261 30.0143 5.74363 30.0168C5.67327 30.0358 5.5738 30.0645 5.44889 30.1052C5.19901 30.1865 4.84881 30.3151 4.42719 30.5079C3.58386 30.8934 2.45799 31.5343 1.27637 32.5658C-1.07115 34.6151 -3.703 38.2617 -4.72232 44.6863C-5.47468 49.4518 -4.64551 53.1883 -2.54937 55.6508C-0.90454 57.5738 1.55996 58.72 4.01999 58.72C4.89708 58.72 5.65798 58.576 6.25755 58.3202L6.25897 58.3196C7.86862 57.6357 9.39488 57.26 10.77 57.26C13.7989 57.26 14.9868 59.0228 15.2338 59.4461L15.2557 59.4837L25.1991 80.55H26.762L15.8416 58.7093C14.8075 57.1317 14.266 56.3569 13.8825 55.959C13.7071 55.777 13.6186 55.7333 13.5865 55.7201C13.5572 55.708 13.5018 55.69 13.32 55.69C12.9154 55.69 12.3281 55.7928 11.3526 55.9635C11.2938 55.9738 11.2337 55.9843 11.1721 55.995L11.1699 55.9954C11.0768 56.0115 10.9818 56.0279 10.8845 56.0448C9.77435 56.2371 8.38555 56.4777 6.54456 56.6834C6.08412 56.7381 5.65573 56.76 5.24998 56.76C2.77955 56.76 0.725549 55.8739 -0.719391 54.0765C-2.48525 51.8764 -2.9027 48.8015 -2.89501 46.2607C-2.8872 43.6802 -2.43857 41.4268 -2.27701 40.6867L-2.27606 40.6824C-1.88933 38.9478 -0.632159 36.6065 1.17377 34.6988C2.98302 32.7875 5.4901 31.16 8.42999 31.16C10.8412 31.16 13.021 32.2772 14.9021 34.2988L14.9038 34.3006C16.6602 36.198 17.5597 38.3074 17.3454 40.5453C17.0514 43.594 14.7772 45.9166 12.9473 47.3308C13.1175 47.3645 13.3149 47.3986 13.5324 47.4307C14.1899 47.5278 14.9798 47.6 15.68 47.6C15.9437 47.6 16.1228 47.5893 16.2292 47.58C18.4132 46.4179 19.2998 44.3341 19.662 42.6515C20.4084 39.1293 19.3643 34.8393 17.0765 32.0438C15.5574 30.1933 13.3827 29.22 10.46 29.22C9.26255 29.22 8.16496 29.3946 7.36289 29.5715C6.96359 29.6596 6.64196 29.7472 6.42317 29.8118C6.33621 29.8375 6.2657 29.8595 6.21323 29.8763ZM16.53 48.55C16.7261 49.5306 16.7259 49.5306 16.7257 49.5306L16.7224 49.5313L16.7183 49.5321L16.7091 49.5338L16.6864 49.5379C16.6692 49.5408 16.6482 49.5441 16.623 49.5477C16.5726 49.5549 16.5056 49.5631 16.4205 49.5709C16.2505 49.5863 16.0077 49.6 15.68 49.6C14.8602 49.6 13.9701 49.5171 13.2401 49.4092C12.874 49.3551 12.5357 49.2929 12.2567 49.228C12.0227 49.1734 11.7052 49.0904 11.4738 48.9582L11.4121 48.923L11.356 48.8793C10.9067 48.5299 10.67 47.9744 10.67 47.43C10.67 47.0927 10.7814 46.4507 11.3948 45.9964L11.3984 45.9937C13.2006 44.6715 15.1284 42.6984 15.3546 40.3543C15.5001 38.8326 14.9198 37.2625 13.4371 35.6603C11.8384 33.9425 10.1585 33.16 8.42999 33.16C6.24987 33.16 4.23195 34.3774 2.6262 36.0737C1.01799 37.7726 -0.0295925 39.8 -0.32351 41.1155C-0.472363 41.7977 -0.887836 43.8924 -0.89502 46.2667C-0.902332 48.6833 -0.484337 51.1739 0.839599 52.8237C1.85465 54.0862 3.30057 54.76 5.24998 54.76C5.58317 54.76 5.93359 54.742 6.31177 54.697L6.319 54.6961C8.10003 54.4972 9.43728 54.2657 10.5458 54.0737C10.6419 54.057 10.7362 54.0407 10.829 54.0247C10.9214 54.0085 11.0129 53.9924 11.1033 53.9765C11.9661 53.8246 12.7309 53.69 13.32 53.69C13.6231 53.69 13.9753 53.717 14.3491 53.8711C14.7201 54.0241 15.0304 54.2679 15.3225 54.571C15.87 55.139 16.5314 56.1124 17.5465 57.662L17.5784 57.7107L29.998 82.55H24.8259L24.1022 82.9116L13.4863 60.4206C13.3628 60.2225 12.6754 59.26 10.77 59.26C9.74532 59.26 8.4919 59.5441 7.04195 60.16C6.14163 60.544 5.1027 60.72 4.01999 60.72C0.960329 60.72 -2.05485 59.3064 -4.07002 56.9499L-4.07141 56.9483C-6.67465 53.8908 -7.50522 49.4878 -6.69778 44.374C-5.60706 37.4988 -2.74885 33.4248 -0.0388999 31.0591C2.53578 28.8115 4.9212 28.1524 5.39224 28.0429L5.43506 28.0277L5.43691 28.0329C5.43701 28.0329 5.43681 28.0329 5.43691 28.0329C5.43508 28.0277 5.43503 28.0277 5.43506 28.0277L5.43687 28.0271L5.43947 28.0262L5.44696 28.0235L5.47111 28.0152C5.49122 28.0083 5.51931 27.9989 5.55497 27.9872C5.62627 27.9639 5.72796 27.9318 5.8568 27.8937C6.11426 27.8177 6.48138 27.7179 6.93207 27.6184C7.83001 27.4204 9.07742 27.22 10.46 27.22C13.877 27.22 16.6621 28.3864 18.623 30.7755L18.6238 30.7766C21.2955 34.0408 22.4913 38.9499 21.6182 43.0674L21.6176 43.0702C21.1875 45.0702 20.0454 47.9103 16.9772 49.4444L16.8574 49.5043L16.7257 49.5306L16.53 48.55Z" fill="#1B1B1B"/>
<path d="M55.5801 93.2999H25.4701V112.38H55.5801V93.2999Z" fill="white"/>
<path fill-rule="evenodd" clip-rule="evenodd" d="M24.4701 92.2999H56.5801V113.38H24.4701V92.2999ZM26.4701 94.2999V111.38H54.5801V94.2999H26.4701Z" fill="#1B1B1B"/>
<path d="M18.6101 129.06C19.0701 115.74 28.7301 105.07 40.5301 105.07C52.3301 105.07 61.9801 115.74 62.4501 129.06H18.6101Z" fill="#B4E791"/>
<path fill-rule="evenodd" clip-rule="evenodd" d="M19.6645 128.06H61.3948C60.4927 115.653 51.3766 106.07 40.5301 106.07C29.6828 106.07 20.558 115.654 19.6645 128.06ZM17.6107 129.025C18.0851 115.289 28.0771 104.07 40.5301 104.07C52.9837 104.07 62.9648 115.289 63.4495 129.025L63.486 130.06H17.575L17.6107 129.025Z" fill="#1B1B1B"/>
<path d="M40.3001 109.26C37.9301 109.26 36.0101 107.33 36.0101 104.97V102.47C36.0101 101.76 36.5901 101.18 37.3001 101.18H44.0501C44.7601 101.18 45.3401 101.76 45.3401 102.47V104.97C45.3401 107.34 43.4101 109.26 41.0501 109.26H40.3001Z" fill="white"/>
<path fill-rule="evenodd" clip-rule="evenodd" d="M37.3001 102.18C37.1424 102.18 37.0101 102.312 37.0101 102.47V104.97C37.0101 106.779 38.4839 108.26 40.3001 108.26H41.0501C42.8593 108.26 44.3401 106.786 44.3401 104.97V102.47C44.3401 102.312 44.2078 102.18 44.0501 102.18H37.3001ZM35.0101 102.47C35.0101 101.208 36.0378 100.18 37.3001 100.18H44.0501C45.3124 100.18 46.3401 101.208 46.3401 102.47V104.97C46.3401 107.894 43.9608 110.26 41.0501 110.26H40.3001C37.3763 110.26 35.0101 107.881 35.0101 104.97V102.47Z" fill="#1B1B1B"/>
<path fill-rule="evenodd" clip-rule="evenodd" d="M53.8001 109.867L40.4921 120.662L27.8889 109.849L29.1912 108.331L40.528 118.058L52.5401 108.313L53.8001 109.867Z" fill="#1B1B1B"/>
<path d="M40.5901 104.13C33.8901 104.13 27.8801 100.13 25.2901 93.9399L25.0201 93.28L24.3101 93.32C24.1801 93.32 24.0401 93.3299 23.9101 93.3299C21.9901 93.3299 20.1801 92.5 18.9501 91.04C16.8601 88.57 16.9401 84.9699 19.0001 82.5899L23.8701 88.3399L24.0901 85.97C24.8901 77.41 31.9801 70.95 40.5901 70.95C49.2001 70.95 56.2201 77.3499 57.0901 85.8299L57.3301 88.17L62.0601 82.5799C62.9601 83.6099 63.5101 84.8999 63.6201 86.2999C63.7601 88.0299 63.2301 89.71 62.1001 91.04C60.8701 92.5 59.0601 93.3299 57.1401 93.3299C57.1401 93.3299 56.9501 93.3299 56.8501 93.3299L56.1501 93.2999L55.8801 93.9399C53.2901 100.12 47.2801 104.12 40.5801 104.12L40.5901 104.13Z" fill="white"/>
<path fill-rule="evenodd" clip-rule="evenodd" d="M25.0857 86.063C25.0857 86.0632 25.0858 86.0628 25.0857 86.063L24.6457 90.803L19.0775 84.2286C18.0352 86.1641 18.2162 88.6245 19.7135 90.394L19.7149 90.3957C20.7515 91.6262 22.2798 92.3299 23.9101 92.3299C23.9533 92.3299 24.002 92.3283 24.0731 92.3256L24.0799 92.3254C24.1354 92.3233 24.2064 92.3207 24.2796 92.3201L25.6757 92.2414L26.2141 93.5575C28.5767 99.2002 33.9606 102.904 40.0279 103.12H40.5801C46.8769 103.12 52.5234 99.362 54.9578 93.5534L54.9587 93.5512L55.4988 92.2711L56.8705 92.3299H57.1395C58.7697 92.3299 60.2986 91.6262 61.3353 90.3957L61.338 90.3925C62.2939 89.2674 62.7423 87.8503 62.6233 86.3806L62.6232 86.3783C62.5623 85.604 62.3431 84.8716 61.9868 84.2147L56.5751 90.6103L56.0953 85.932C55.2774 77.96 48.6852 71.95 40.5901 71.95C32.4962 71.95 25.838 78.0176 25.0857 86.063ZM42.8482 104.974L43.0036 105.13H40.5901C33.4866 105.13 27.1131 100.888 24.3676 94.3259L24.3645 94.3186L24.3382 94.32H24.3101C24.2668 94.32 24.2182 94.3216 24.1471 94.3243L24.1404 94.3245C24.0772 94.3269 23.9939 94.3299 23.9101 94.3299C21.7008 94.3299 19.6095 93.3741 18.1862 91.6853C15.7726 88.8323 15.8677 84.6809 18.244 81.9355L19.0083 81.0524L23.0944 85.8769C23.9425 76.8025 31.4642 69.95 40.5901 69.95C49.7149 69.95 57.1627 76.7399 58.0849 85.7279L58.085 85.7296L62.0479 81.0462L62.8131 81.922C63.8541 83.1133 64.4898 84.606 64.6169 86.2205C64.7776 88.2097 64.1665 90.1514 62.8635 91.6858C61.4402 93.3743 59.3491 94.3299 57.1401 94.3299H56.8287L56.8014 94.3288C54.3513 100.173 49.0145 104.179 42.8482 104.974Z" fill="#1B1B1B"/>
<path fill-rule="evenodd" clip-rule="evenodd" d="M39.5301 91.5799V86.7999H41.5301V91.5799H39.5301Z" fill="#1B1B1B"/>
<path fill-rule="evenodd" clip-rule="evenodd" d="M45.6401 91.5799V86.7999H47.6401V91.5799H45.6401Z" fill="#1B1B1B"/>
<path fill-rule="evenodd" clip-rule="evenodd" d="M44.1776 78.6709C42.6053 83.4962 38.3096 86.1353 34.2446 87.5541C31.6819 88.4485 29.1335 88.8929 27.2354 89.115C26.2837 89.2264 25.4893 89.2825 24.9302 89.3109C24.6505 89.3251 24.4293 89.3323 24.2763 89.336C24.1998 89.3379 24.1403 89.3389 24.099 89.3394L24.0509 89.3398L24.0374 89.3399L24.032 89.3399C24.0315 89.3399 24.0311 89.3399 24.0301 88.3399C24.0291 87.3399 24.0288 87.3399 24.0286 87.3399L24.0299 87.3399L24.0379 87.3399L24.0746 87.3395C24.1081 87.3391 24.1596 87.3383 24.2279 87.3366C24.3645 87.3333 24.568 87.3267 24.8289 87.3135C25.351 87.287 26.1011 87.2341 27.0029 87.1286C28.8117 86.9169 31.2057 86.4964 33.5856 85.6658C38.3741 83.9945 42.8001 80.8014 42.8001 74.5599L44.7712 74.3389C44.775 74.338 44.7751 74.3379 44.7751 74.3379L44.7761 74.3421L44.7813 74.3639C44.7862 74.3845 44.7941 74.4168 44.8051 74.4601C44.827 74.5467 44.8613 74.6772 44.909 74.8453C45.0043 75.1816 45.1529 75.6671 45.3627 76.2518C45.7836 77.4247 46.4451 78.9797 47.4078 80.5265C49.3427 83.6352 52.38 86.5499 57.0201 86.5499V88.5499C51.3902 88.5499 47.8175 84.9696 45.7098 81.5833C45.0859 80.5809 44.5803 79.5813 44.1776 78.6709Z" fill="#1B1B1B"/>
<path d="M14.6201 121.33C14.6201 102.4 20.8501 87.0601 28.5401 87.0601V91.0101C22.7701 91.0101 18.1001 104.58 18.1001 121.33C18.1001 123.97 18.2201 126.54 18.4401 128.98H14.9801C14.7501 126.52 14.6301 123.96 14.6301 121.33H14.6201Z" fill="#9F410C"/>
<path fill-rule="evenodd" clip-rule="evenodd" d="M13.6359 122.33C13.6624 124.64 13.7808 126.895 13.9845 129.073L14.0693 129.98H19.5343L19.4361 128.89C19.2188 126.48 19.1001 123.94 19.1001 121.33C19.1001 113.035 20.258 105.57 22.1019 100.214C23.0255 97.5315 24.1028 95.4322 25.25 94.0236C26.4035 92.6072 27.5211 92.0101 28.5401 92.0101H29.5401V86.0601H28.5401C26.26 86.0601 24.185 87.2014 22.3997 89.06C20.6171 90.9159 19.058 93.5486 17.7699 96.72C15.1916 103.068 13.6201 111.769 13.6201 121.33V122.33H13.6359ZM19.6229 97.4726C17.2515 103.311 15.7315 111.362 15.626 120.33H15.6301V121.33C15.6301 123.608 15.7212 125.831 15.8964 127.98H17.3532C17.1886 125.839 17.1001 123.61 17.1001 121.33C17.1001 112.875 18.2773 105.18 20.2108 99.5633C21.176 96.7599 22.348 94.4198 23.6993 92.7606C24.7982 91.4113 26.0874 90.4306 27.5401 90.117V88.1657C26.3025 88.4275 25.0593 89.1782 23.8421 90.4454C22.2938 92.0574 20.8535 94.4427 19.6229 97.4726Z" fill="#1B1B1B"/>
<path fill-rule="evenodd" clip-rule="evenodd" d="M28.0002 128.623L27.5402 90.6226L29.5401 90.5984L30.0001 128.598L28.0002 128.623Z" fill="#1B1B1B"/>
<path fill-rule="evenodd" clip-rule="evenodd" d="M114 2H16C8.26801 2 2 8.26801 2 16V114C2 121.732 8.26801 128 16 128H114C121.732 128 128 121.732 128 114V16C128 8.26801 121.732 2 114 2ZM16 0H114C122.837 0 130 7.16344 130 16V114C130 122.837 122.837 130 114 130H16C7.16344 130 0 122.837 0 114V16C0 7.16344 7.16344 0 16 0Z" fill="#1B1B1B"/>
<path d="M93.57 33C95.7791 33 97.57 31.2091 97.57 29C97.57 26.7909 95.7791 25 93.57 25C91.3608 25 89.57 26.7909 89.57 29C89.57 31.2091 91.3608 33 93.57 33Z" fill="#FFDA00"/>
<path fill-rule="evenodd" clip-rule="evenodd" d="M93.57 26C91.9131 26 90.57 27.3431 90.57 29C90.57 30.6569 91.9131 32 93.57 32C95.2268 32 96.57 30.6569 96.57 29C96.57 27.3431 95.2268 26 93.57 26ZM88.57 29C88.57 26.2386 90.8086 24 93.57 24C96.3314 24 98.57 26.2386 98.57 29C98.57 31.7614 96.3314 34 93.57 34C90.8086 34 88.57 31.7614 88.57 29Z" fill="#1B1B1B"/>
<path d="M93.25 31L99.78 36.56L101.88 32.67L95.22 28L93.25 31Z" fill="#FFDA00"/>
<path fill-rule="evenodd" clip-rule="evenodd" d="M94.95 26.5894L103.183 32.3621L100.073 38.1227L91.9295 31.1891L94.95 26.5894ZM95.49 29.4107L94.5705 30.811L99.4872 34.9973L100.577 32.9779L95.49 29.4107Z" fill="#1B1B1B"/>
<path d="M104.89 41.9399C102.5 42.2999 100.32 40.5299 100.17 38.1199L99.78 31.5899L106.7 30.5399L108.26 36.8999C108.84 39.2499 107.27 41.5799 104.88 41.9399H104.89Z" fill="#FFDA00"/>
<path fill-rule="evenodd" clip-rule="evenodd" d="M107.453 29.4142L109.231 36.6603C109.231 36.6606 109.231 36.6601 109.231 36.6603C109.951 39.5819 108.002 42.4752 105.039 42.9273L105.039 42.9288C102.066 43.3766 99.3582 41.175 99.1719 38.1821L99.1718 38.1796L98.7273 30.7382L107.453 29.4142ZM104.731 40.9526L104.731 40.9511C106.542 40.6783 107.727 38.9146 107.289 37.1396L105.946 31.6657L100.833 32.4417L101.168 38.0578C101.168 38.0582 101.168 38.0586 101.168 38.059C101.282 39.8821 102.928 41.2184 104.731 40.9526Z" fill="#1B1B1B"/>
<path d="M101.26 41.5199C97.71 46.4099 94.99 44.8299 93.41 42.6999C92.99 42.1399 92.72 41.5099 92.58 40.8699C92.05 38.4599 95.18 37.0299 96.66 39.0099L97.51 40.2999C97.79 40.7199 98.34 40.8499 98.77 40.5999L100.21 39.7499L101.27 41.5199H101.26Z" fill="#FF8E14"/>
<path fill-rule="evenodd" clip-rule="evenodd" d="M95.8433 39.5881C94.9974 38.4953 93.2611 39.3113 93.5566 40.6552L93.5569 40.6563C93.6689 41.1685 93.8831 41.6642 94.21 42.1L94.2131 42.1042C94.945 43.0908 95.7745 43.7107 96.634 43.7432C97.393 43.772 98.5509 43.3506 100.061 41.4471L99.8626 41.1163L99.2726 41.4645C98.3776 41.9849 97.2458 41.7065 96.6779 40.8547L96.6749 40.8502L95.8433 39.5881ZM101.76 42.52C100.015 44.7789 98.2766 45.8068 96.5584 45.7418C94.7766 45.6744 93.4567 44.4408 92.6084 43.2979C92.0962 42.6143 91.7709 41.8507 91.6031 41.0837L92.58 40.87L91.6033 41.0848C90.8407 37.6171 95.3408 35.5749 97.461 38.4113L97.4787 38.4351L98.3165 39.7065L100.557 38.3838L103.034 42.52H101.76Z" fill="#1B1B1B"/>
<path d="M103.61 15.3499C103.61 15.3499 99.64 15.1399 96.81 17.6499C93.98 20.1699 93.76 22.8099 93.92 24.1099C94.08 25.4099 94.54 27.1999 94.54 27.1999C94.54 27.1999 93.25 28.5899 93.8 29.8099C94.35 31.0299 96.06 32.0799 99.72 32.5299C103.38 32.9799 107.96 32.1899 110.13 30.6799C112.3 29.1699 113.64 22.4899 111.46 19.3299C109.28 16.1699 105.3 15.2399 103.62 15.3399L103.61 15.3499Z" fill="#FFDA00"/>
<path fill-rule="evenodd" clip-rule="evenodd" d="M107.737 15.1893C109.342 15.8573 111.057 16.9847 112.283 18.7622C113.585 20.6489 113.764 23.4164 113.415 25.7702C113.237 26.9736 112.912 28.1388 112.473 29.1218C112.045 30.0806 111.46 30.9726 110.701 31.5008C109.446 32.3744 107.596 32.9834 105.657 33.3249C103.698 33.6698 101.538 33.7611 99.598 33.5225C95.8986 33.0677 93.6747 31.9652 92.8883 30.221C92.4251 29.1935 92.7717 28.1867 93.072 27.595C93.1974 27.3479 93.334 27.1339 93.4529 26.9654C93.4124 26.7952 93.3644 26.5881 93.3136 26.3586C93.1767 25.74 93.0134 24.9304 92.9275 24.2322C92.7333 22.6541 93.0358 19.6717 96.145 16.9032L96.1464 16.9019C97.7425 15.4863 99.6331 14.858 101.081 14.5771C101.81 14.4355 102.444 14.3788 102.899 14.3575C103.126 14.3468 103.311 14.345 103.441 14.3459C103.456 14.346 103.47 14.3462 103.484 14.3463L103.561 14.3418C104.579 14.2811 106.146 14.5272 107.737 15.1893ZM103.558 16.3486L103.534 16.3478C103.511 16.3471 103.475 16.3462 103.427 16.3459C103.329 16.3451 103.181 16.3465 102.992 16.3553C102.614 16.373 102.079 16.4207 101.462 16.5404C100.217 16.782 98.7081 17.3035 97.4743 18.3975C94.9241 20.6687 94.7867 22.966 94.9125 23.9879C94.9866 24.5897 95.1333 25.325 95.2664 25.9264C95.3321 26.2235 95.393 26.4812 95.4374 26.6643C95.4596 26.7558 95.4776 26.8284 95.49 26.8777L95.504 26.9336L95.5076 26.9473L95.5084 26.9505L95.6444 27.48L95.2757 27.8773L95.2731 27.8803C95.2688 27.8851 95.2604 27.8946 95.2488 27.9083C95.2255 27.9359 95.1894 27.9799 95.1462 28.0373C95.0582 28.1544 94.9488 28.3161 94.8555 28.5001C94.6483 28.9083 94.6248 29.2065 94.7116 29.399C95.0253 30.0948 96.2214 31.0923 99.842 31.5375C101.562 31.7489 103.522 31.6702 105.31 31.3552C107.119 31.0366 108.644 30.4956 109.559 29.8592C109.885 29.6324 110.282 29.1232 110.647 28.306C111.001 27.5131 111.281 26.5276 111.437 25.4773C111.756 23.3236 111.515 21.1711 110.637 19.8979C109.683 18.5153 108.318 17.5977 106.968 17.0357C105.82 16.558 104.745 16.3626 104.038 16.336L104.002 16.3721L103.56 16.3487L103.558 16.3486Z" fill="#1B1B1B"/>
<path fill-rule="evenodd" clip-rule="evenodd" d="M99.11 26.33V23.35H101.11V26.33H99.11Z" fill="#1B1B1B"/>
<path fill-rule="evenodd" clip-rule="evenodd" d="M102.11 26.33V23.35H104.11V26.33H102.11Z" fill="#1B1B1B"/>
<path fill-rule="evenodd" clip-rule="evenodd" d="M103.196 29.3511C100.953 29.9953 98.6846 29.5415 97.0239 28.3402L98.1961 26.7197C99.3554 27.5584 100.987 27.9046 102.644 27.4288L103.196 29.3511Z" fill="#FF8E14"/>
<path d="M105.27 41.5299C101.72 46.4199 98.99 44.8299 97.41 42.6999C96.99 42.1399 96.72 41.5099 96.58 40.8699C96.05 38.4599 99.18 37.0299 100.66 39.0099L101.51 40.2999C101.79 40.7199 102.34 40.8499 102.77 40.5999L103.29 40.2999C103.8 39.9999 104.46 40.1699 104.76 40.6799L105.27 41.5299Z" fill="#FF8E14"/>
<path fill-rule="evenodd" clip-rule="evenodd" d="M99.8433 39.5881C98.9974 38.4953 97.2611 39.3113 97.5567 40.6552L97.5569 40.6563C97.6689 41.1685 97.8831 41.6642 98.21 42.1L98.2132 42.1042C98.9447 43.0905 99.7774 43.7141 100.641 43.7483C101.401 43.7785 102.558 43.3602 104.065 41.4647L103.898 41.1871C103.889 41.1713 103.875 41.1599 103.854 41.1545C103.833 41.149 103.814 41.1521 103.797 41.162L103.79 41.1662L103.273 41.4645C103.272 41.4649 103.271 41.4652 103.271 41.4655C102.376 41.9845 101.245 41.706 100.678 40.8547L100.675 40.8502L99.8433 39.5881ZM95.6033 41.0848C94.8407 37.6171 99.3408 35.5749 101.461 38.4113L101.479 38.4351L102.317 39.707L102.787 39.4356C103.77 38.8608 105.038 39.1858 105.619 40.1687L106.468 41.5825L106.079 42.1175C104.23 44.6651 102.384 45.819 100.562 45.7467C98.7786 45.676 97.4569 44.4411 96.6084 43.2979C96.0962 42.6142 95.7709 41.8507 95.6031 41.0837L96.58 40.87L95.6033 41.0848Z" fill="#1B1B1B"/>
<path d="M106.57 36L110.81 33.58C111.34 33.84 111.93 34 112.57 34C114.78 34 116.57 32.21 116.57 30C116.57 27.79 114.78 26 112.57 26C110.36 26 108.57 27.79 108.57 30C108.57 30.24 108.6 30.48 108.64 30.71L105.57 33" fill="#FFDA00"/>
<path fill-rule="evenodd" clip-rule="evenodd" d="M107.57 30C107.57 27.2377 109.808 25 112.57 25C115.332 25 117.57 27.2377 117.57 30C117.57 32.7623 115.332 35 112.57 35C111.962 35 111.395 34.8857 110.875 34.6944L107.066 36.8685L106.074 35.1315L110.775 32.4488L111.25 32.6822C111.661 32.8836 112.101 33 112.57 33C114.228 33 115.57 31.6577 115.57 30C115.57 28.3423 114.228 27 112.57 27C110.912 27 109.57 28.3423 109.57 30C109.57 30.1602 109.59 30.3378 109.625 30.5387L109.73 31.1441L106.168 33.8016L104.972 32.1984L107.578 30.2546C107.573 30.1714 107.57 30.0863 107.57 30Z" fill="#1B1B1B"/>
<path fill-rule="evenodd" clip-rule="evenodd" d="M93.2847 35.4712L87.9147 15.6212L89.8453 15.0989L95.2153 34.9489L93.2847 35.4712Z" fill="#1B1B1B"/>
<path d="M89.72 18.2099L89.38 18.1299C89.18 18.0799 88.97 18.1299 88.82 18.2699L88.56 18.4999C87.91 19.0699 86.89 18.6499 86.83 17.7899L86.81 17.4399C86.8 17.2299 86.68 17.0499 86.5 16.9499L86.2 16.7699C85.46 16.3299 85.54 15.2299 86.34 14.8999L86.66 14.7699C86.85 14.6899 86.99 14.5299 87.04 14.3299L87.12 13.9899C87.31 13.1499 88.38 12.8799 88.94 13.5499L89.16 13.8199C89.29 13.9799 89.49 14.0599 89.7 14.0399L90.05 14.0099C90.91 13.9299 91.49 14.8699 91.03 15.5999L90.85 15.8899C90.74 16.0599 90.72 16.2799 90.81 16.4699L90.95 16.7899C91.29 17.5799 90.58 18.4299 89.74 18.2199L89.72 18.2099Z" fill="#FF8E14"/>
<path fill-rule="evenodd" clip-rule="evenodd" d="M88.1018 14.1919C88.1008 14.1937 88.0979 14.1992 88.0953 14.2106L88.0934 14.219L88.0102 14.5725C87.8819 15.0857 87.5206 15.4926 87.048 15.6916L87.0364 15.6965L86.72 15.8249C86.7094 15.8294 86.7045 15.8332 86.7028 15.8346C86.7008 15.8361 86.6995 15.8376 86.6983 15.8393C86.6955 15.8433 86.6908 15.8529 86.6897 15.8676C86.6887 15.8823 86.6919 15.892 86.6937 15.8956C86.6944 15.8971 86.6951 15.8981 86.6963 15.8994C86.6973 15.9005 86.7013 15.9046 86.7111 15.9104L86.7145 15.9125L87.0036 16.0859C87.4551 16.3443 87.7794 16.8184 87.8086 17.3865L87.8278 17.7235C87.8287 17.7328 87.8303 17.7372 87.8307 17.7383C87.8313 17.7398 87.8318 17.7406 87.8325 17.7416C87.8345 17.7443 87.8411 17.751 87.8538 17.7563C87.8665 17.7615 87.8762 17.7614 87.8799 17.7609C87.8814 17.7606 87.8827 17.7603 87.8845 17.7595C87.886 17.7588 87.8913 17.7562 87.8998 17.7488L88.1498 17.5277C88.5564 17.1559 89.109 17.0343 89.6142 17.1578L90.0062 17.25C90.0101 17.2478 90.0161 17.2435 90.0226 17.2358C90.0321 17.2245 90.0357 17.2139 90.0366 17.2086C90.037 17.2065 90.037 17.2047 90.0368 17.2027C90.0366 17.2011 90.0359 17.1959 90.032 17.1867L89.8984 16.8812C89.6652 16.3739 89.722 15.7997 90.0041 15.3566L90.1839 15.0668C90.1899 15.0573 90.1914 15.0522 90.1916 15.0513C90.192 15.0502 90.192 15.0496 90.192 15.0488C90.192 15.0463 90.1909 15.0375 90.1838 15.0261C90.1767 15.0146 90.169 15.0091 90.1657 15.0074C90.1644 15.0067 90.1633 15.0063 90.1616 15.0059C90.1601 15.0056 90.1543 15.0046 90.1426 15.0057L90.1354 15.0063L89.789 15.036C89.2658 15.084 88.7351 14.8823 88.3845 14.4513C88.3843 14.4511 88.3847 14.4516 88.3845 14.4513L88.1706 14.1888C88.1631 14.1803 88.1582 14.1768 88.1568 14.1759C88.155 14.1747 88.154 14.1743 88.1531 14.1741C88.1508 14.1733 88.1425 14.1717 88.1298 14.1748C88.117 14.178 88.1088 14.1837 88.1054 14.1871C88.104 14.1885 88.1029 14.1899 88.1018 14.1919ZM86.1457 13.7645C86.5188 12.1325 88.6096 11.5953 89.7073 12.9087L89.7153 12.9182L89.8041 13.0274L89.9615 13.0139C91.638 12.8611 92.7787 14.6949 91.8781 16.1298L91.8045 16.2483L91.8685 16.3946C92.53 17.9317 91.1544 19.6043 89.4974 19.1901L89.3909 19.1635L89.3772 19.1566L89.3375 19.1473L89.2193 19.2518C87.9491 20.3657 85.9501 19.5469 85.8324 17.8596L85.8315 17.847L85.8238 17.7105L85.6869 17.6283C84.2375 16.7644 84.4014 14.6179 85.9586 13.9755L85.9636 13.9735L86.1106 13.9138L86.1457 13.7645Z" fill="#1B1B1B"/>
<path d="M95.45 93.24L88.83 94.72C86.12 95.33 83.31 95.33 80.6 94.72L73.98 93.24C72.49 93.24 71.37 92.27 71.65 91.23L73.95 82.62C74.16 81.82 75.14 81.24 76.28 81.24H93.16C94.3 81.24 95.28 81.82 95.49 82.62L97.79 91.23C98.07 92.27 96.95 93.24 95.46 93.24H95.45Z" fill="#1D8EFF"/>
<path fill-rule="evenodd" clip-rule="evenodd" d="M76.28 82.24C75.3725 82.24 74.9637 82.6966 74.9172 82.8739L74.9161 82.8781L72.6161 91.4881L72.6156 91.49C72.5991 91.5512 72.5881 91.6809 72.8049 91.8682C73.03 92.0627 73.4406 92.24 73.98 92.24H74.0904L80.8196 93.7444C83.385 94.3219 86.045 94.3219 88.6104 93.7444L95.3396 92.24H95.46C95.9994 92.24 96.4099 92.0627 96.6351 91.8682C96.8519 91.6809 96.8408 91.5512 96.8244 91.49L96.8239 91.4881L94.5239 82.8781L94.5227 82.8739C94.4762 82.6966 94.0674 82.24 93.16 82.24H76.28ZM72.9834 82.3637C73.3579 80.9426 74.9082 80.24 76.28 80.24H93.16C94.5318 80.24 96.0821 80.9426 96.4566 82.3638C96.4568 82.3646 96.457 82.3653 96.4572 82.3661L98.7556 90.97C98.7557 90.9704 98.7558 90.9708 98.7559 90.9712C99.0188 91.9495 98.5878 92.8243 97.9424 93.3818C97.3288 93.9118 96.4769 94.2167 95.5661 94.2387L89.0496 95.6956C89.0495 95.6956 89.0497 95.6956 89.0496 95.6956C86.1952 96.3381 83.2351 96.3381 80.3807 95.6957C80.3806 95.6956 80.3808 95.6957 80.3807 95.6957L73.8625 94.2384C72.956 94.2142 72.1086 93.9096 71.4976 93.3818C70.8521 92.8243 70.4212 91.9495 70.6841 90.9711C70.6842 90.9708 70.6843 90.9704 70.6844 90.97L72.9827 82.3661C72.983 82.3653 72.9832 82.3645 72.9834 82.3637Z" fill="#1B1B1B"/>
<path d="M84.71 85.24C93.5465 85.24 100.71 78.0765 100.71 69.24C100.71 60.4034 93.5465 53.24 84.71 53.24C75.8734 53.24 68.71 60.4034 68.71 69.24C68.71 78.0765 75.8734 85.24 84.71 85.24Z" fill="#FFEB8A"/>
<path fill-rule="evenodd" clip-rule="evenodd" d="M84.71 54.24C76.4257 54.24 69.71 60.9557 69.71 69.24C69.71 77.5243 76.4257 84.24 84.71 84.24C92.9943 84.24 99.71 77.5243 99.71 69.24C99.71 60.9557 92.9943 54.24 84.71 54.24ZM67.71 69.24C67.71 59.8511 75.3211 52.24 84.71 52.24C94.0988 52.24 101.71 59.8511 101.71 69.24C101.71 78.6288 94.0988 86.24 84.71 86.24C75.3211 86.24 67.71 78.6288 67.71 69.24Z" fill="#1B1B1B"/>
<path d="M85.51 80.4399H81.51L80.58 78.1199C80.26 77.3199 80.85 76.4399 81.72 76.4399H85.51V80.4399Z" fill="#FF7900"/>
<path d="M74.7 69.9099L82.7 69.5799C82.7 69.5799 79.91 66.8399 82.7 65.5099C86.7 63.5999 90.83 66.3099 86.57 70.1099C82.31 73.9099 80.71 70.9599 80.71 75.6399H86.34C86.34 75.6399 88.24 72.3399 92.87 71.5299C97.5 70.7199 98.94 58.5799 87.42 60.2499C75.9 61.9199 69.48 65.1199 74.69 69.9199L74.7 69.9099Z" fill="#FF7900"/>
<path d="M65.15 61.77C64.53 61.77 64.01 61.35 63.88 60.75L62.83 55.98L58.06 54.93C57.46 54.8 57.04 54.28 57.04 53.66C57.04 53.04 57.46 52.52 58.06 52.39L62.83 51.34L63.88 46.57C64.01 45.97 64.53 45.55 65.15 45.55C65.77 45.55 66.29 45.97 66.42 46.57L67.47 51.34L72.24 52.39C72.84 52.52 73.26 53.04 73.26 53.66C73.26 54.28 72.84 54.8 72.24 54.93L67.47 55.98L66.42 60.75C66.29 61.35 65.77 61.77 65.15 61.77Z" fill="#FFE108"/>
<path fill-rule="evenodd" clip-rule="evenodd" d="M65.15 46.55C64.9985 46.55 64.8872 46.6439 64.8573 46.7818L64.8566 46.785L63.6692 52.1793L58.2717 53.3674C58.1338 53.3973 58.04 53.5086 58.04 53.66C58.04 53.8115 58.1338 53.9228 58.2717 53.9527L58.275 53.9534L63.6692 55.1408L64.8573 60.5383C64.8872 60.6762 64.9985 60.77 65.15 60.77C65.3014 60.77 65.4128 60.6762 65.4427 60.5383L65.4434 60.5351L66.6308 55.1408L72.025 53.9534L72.0282 53.9527C72.1661 53.9228 72.26 53.8115 72.26 53.66C72.26 53.5086 72.1661 53.3972 72.0282 53.3674L72.025 53.3667L66.6308 52.1793L65.4434 46.785L65.4427 46.7818C65.4128 46.6439 65.3014 46.55 65.15 46.55ZM62.9031 46.3563C63.1339 45.2952 64.0621 44.55 65.15 44.55C66.2379 44.55 67.1661 45.2954 67.3969 46.3565C67.397 46.3571 67.3972 46.3577 67.3973 46.3583L68.3092 50.5008L72.4517 51.4127C72.4524 51.4129 72.453 51.413 72.4537 51.4131C73.5147 51.644 74.26 52.5722 74.26 53.66C74.26 54.7479 73.5148 55.676 72.4539 55.9069C72.4532 55.9071 72.4524 55.9072 72.4517 55.9074L68.3092 56.8193L67.3973 60.9618C67.3972 60.9624 67.397 60.963 67.3969 60.9636C67.1661 62.0247 66.2379 62.77 65.15 62.77C64.0621 62.77 63.1339 62.0248 62.9031 60.9638C62.9029 60.9631 62.9028 60.9625 62.9027 60.9618L61.9908 56.8193L57.8482 55.9074C57.8475 55.9072 57.8469 55.9071 57.8462 55.9069C56.7851 55.6761 56.04 54.7479 56.04 53.66C56.04 52.5722 56.7852 51.6439 57.8464 51.4131C57.847 51.413 57.8476 51.4129 57.8482 51.4127L61.9908 50.5008L62.9027 46.3583C62.9028 46.3576 62.9029 46.357 62.9031 46.3563Z" fill="#1B1B1B"/>
<path d="M100.81 81.0799C100.28 81.0799 99.83 80.7199 99.72 80.1999L99.4 78.7299L97.93 78.41C97.42 78.3 97.06 77.8499 97.05 77.3299C97.04 76.8099 97.41 76.3499 97.92 76.2399L99.4 75.9199L99.72 74.4499C99.83 73.9299 100.28 73.5699 100.81 73.5699C101.34 73.5699 101.79 73.9299 101.9 74.4499L102.22 75.9199L103.69 76.2399C104.21 76.3599 104.57 76.8099 104.57 77.3299C104.57 77.8499 104.21 78.2999 103.69 78.4199L102.22 78.7399L101.9 80.2099C101.79 80.7199 101.34 81.0899 100.81 81.0899V81.0799Z" fill="#FFE108"/>
<path fill-rule="evenodd" clip-rule="evenodd" d="M100.735 74.5938C100.719 74.6062 100.705 74.6252 100.698 74.6569L100.697 74.6627L100.24 76.7614L98.1313 77.2174C98.1101 77.2219 98.0879 77.2346 98.0708 77.2559C98.0541 77.2768 98.0495 77.2964 98.0498 77.3107C98.0511 77.3801 98.097 77.423 98.1408 77.4324L98.1427 77.4328L100.24 77.8895L100.698 79.993C100.705 80.0247 100.719 80.0437 100.735 80.0561C100.75 80.0688 100.774 80.0799 100.81 80.0799H100.857C100.89 80.0655 100.914 80.0364 100.922 79.9991L101.38 77.8995L103.469 77.4447C103.542 77.4263 103.57 77.3736 103.57 77.3299C103.57 77.2863 103.542 77.2336 103.469 77.2152L101.38 76.7604L100.922 74.6569C100.915 74.6252 100.901 74.6062 100.885 74.5938C100.87 74.5811 100.846 74.5699 100.81 74.5699C100.774 74.5699 100.75 74.5811 100.735 74.5938ZM99.81 81.8315C99.2778 81.548 98.8768 81.0409 98.7423 80.4102L98.5595 79.5704L97.7191 79.3875C97.7187 79.3874 97.7183 79.3873 97.7179 79.3872C96.7424 79.1762 96.0688 78.3193 96.0502 77.3492C96.0308 76.3423 96.7401 75.4717 97.7086 75.2625L98.5597 75.0785L98.7423 74.2397C98.9525 73.2537 99.8142 72.5699 100.81 72.5699C101.806 72.5699 102.667 73.2537 102.878 74.2396L103.06 75.0795L103.915 75.2655C104.879 75.4879 105.57 76.3343 105.57 77.3299C105.57 78.3256 104.879 79.1719 103.915 79.3943L103.903 79.3971L103.06 79.5804L102.877 80.4208C102.877 80.4212 102.877 80.4216 102.877 80.422C102.668 81.3874 101.815 82.0899 100.81 82.0899H99.81V81.8315Z" fill="#1B1B1B"/>
<path d="M76.31 104.08C75.75 104.08 75.28 103.7 75.16 103.15L74.59 100.54L71.98 99.9701C71.43 99.8501 71.05 99.3801 71.05 98.8201C71.05 98.2601 71.43 97.7901 71.98 97.6701L74.59 97.1001L75.16 94.4901C75.28 93.9401 75.75 93.5601 76.31 93.5601C76.87 93.5601 77.34 93.9401 77.46 94.4901L78.03 97.1001L80.64 97.6701C81.19 97.7901 81.57 98.2601 81.57 98.8201C81.57 99.3801 81.19 99.8501 80.64 99.9701L78.03 100.54L77.46 103.15C77.34 103.7 76.87 104.08 76.31 104.08Z" fill="#FFE108"/>
<path fill-rule="evenodd" clip-rule="evenodd" d="M76.1988 94.5964C76.1733 94.617 76.1485 94.6504 76.137 94.7032L75.4301 97.9402L72.1934 98.647C72.1405 98.6586 72.107 98.6833 72.0863 98.7088C72.0658 98.7343 72.05 98.7701 72.05 98.8201C72.05 98.8701 72.0658 98.9059 72.0863 98.9313C72.107 98.9568 72.1403 98.9815 72.1932 98.993L75.4301 99.7L76.137 102.937C76.1485 102.99 76.1733 103.023 76.1988 103.044C76.2242 103.064 76.26 103.08 76.31 103.08C76.36 103.08 76.3958 103.064 76.4212 103.044C76.4467 103.023 76.4714 102.99 76.483 102.937L77.1899 99.7L80.4266 98.9931C80.4795 98.9816 80.513 98.9568 80.5337 98.9313C80.5542 98.9059 80.57 98.8701 80.57 98.8201C80.57 98.7701 80.5542 98.7343 80.5337 98.7088C80.513 98.6833 80.4797 98.6586 80.4268 98.6471L77.1899 97.9402L76.483 94.7034C76.4715 94.6506 76.4467 94.617 76.4212 94.5964C76.3958 94.5758 76.36 94.5601 76.31 94.5601C76.26 94.5601 76.2242 94.5758 76.1988 94.5964ZM74.183 94.2767C74.4026 93.2708 75.2765 92.5601 76.31 92.5601C77.3435 92.5601 78.2175 93.2709 78.437 94.2769L78.8701 96.26L80.8532 96.693C80.8532 96.6931 80.8531 96.693 80.8532 96.693C81.859 96.9126 82.57 97.7866 82.57 98.8201C82.57 99.8536 81.8591 100.728 80.8532 100.947L78.8701 101.38L78.437 103.363C78.2175 104.369 77.3435 105.08 76.31 105.08C75.2765 105.08 74.4026 104.369 74.183 103.363C74.183 103.363 74.183 103.363 74.183 103.363L73.7499 101.38L71.7668 100.947C70.7608 100.728 70.05 99.8536 70.05 98.8201C70.05 97.7866 70.7607 96.9126 71.7666 96.6931C71.7667 96.6931 71.7666 96.6931 71.7666 96.6931L73.7499 96.26L74.183 94.2767C74.183 94.2768 74.183 94.2766 74.183 94.2767Z" fill="#1B1B1B"/>
<path d="M76.57 50C78.2268 50 79.57 48.6569 79.57 47C79.57 45.3431 78.2268 44 76.57 44C74.9131 44 73.57 45.3431 73.57 47C73.57 48.6569 74.9131 50 76.57 50Z" fill="#FFE108"/>
<path fill-rule="evenodd" clip-rule="evenodd" d="M76.57 45C75.4654 45 74.57 45.8954 74.57 47C74.57 48.1046 75.4654 49 76.57 49C77.6745 49 78.57 48.1046 78.57 47C78.57 45.8954 77.6745 45 76.57 45ZM72.57 47C72.57 44.7909 74.3608 43 76.57 43C78.7791 43 80.57 44.7909 80.57 47C80.57 49.2091 78.7791 51 76.57 51C74.3608 51 72.57 49.2091 72.57 47Z" fill="#1B1B1B"/>
<path d="M90.07 96C91.4507 96 92.57 94.8807 92.57 93.5C92.57 92.1193 91.4507 91 90.07 91C88.6893 91 87.57 92.1193 87.57 93.5C87.57 94.8807 88.6893 96 90.07 96Z" fill="#FFE108"/>
<path fill-rule="evenodd" clip-rule="evenodd" d="M90.07 92C89.2415 92 88.57 92.6716 88.57 93.5C88.57 94.3284 89.2415 95 90.07 95C90.8984 95 91.57 94.3284 91.57 93.5C91.57 92.6716 90.8984 92 90.07 92ZM86.57 93.5C86.57 91.567 88.137 90 90.07 90C92.003 90 93.57 91.567 93.57 93.5C93.57 95.433 92.003 97 90.07 97C88.137 97 86.57 95.433 86.57 93.5Z" fill="#1B1B1B"/>
<path d="M69.07 77C70.4507 77 71.57 75.8807 71.57 74.5C71.57 73.1193 70.4507 72 69.07 72C67.6893 72 66.57 73.1193 66.57 74.5C66.57 75.8807 67.6893 77 69.07 77Z" fill="#FFE108"/>
<path fill-rule="evenodd" clip-rule="evenodd" d="M69.07 73C68.2415 73 67.57 73.6716 67.57 74.5C67.57 75.3284 68.2415 76 69.07 76C69.8984 76 70.57 75.3284 70.57 74.5C70.57 73.6716 69.8984 73 69.07 73ZM65.57 74.5C65.57 72.567 67.137 71 69.07 71C71.003 71 72.57 72.567 72.57 74.5C72.57 76.433 71.003 78 69.07 78C67.137 78 65.57 76.433 65.57 74.5Z" fill="#1B1B1B"/>
<path d="M144.425 16.2455L146.096 16.5547C152.606 17.7588 156.917 24.0276 155.713 30.5372L154.778 35.5915L129.507 30.9168L130.442 25.8626C131.646 19.353 137.915 15.0413 144.425 16.2455Z" fill="#82C6D1"/>
<path fill-rule="evenodd" clip-rule="evenodd" d="M144.243 17.2288C138.276 16.1251 132.529 20.078 131.425 26.0445L130.672 30.1154L153.977 34.4263L154.73 30.3554C155.834 24.3889 151.881 18.6417 145.914 17.538L144.243 17.2288ZM129.459 25.6807C130.763 18.6281 137.554 13.9576 144.606 15.2622L146.278 15.5714C153.331 16.876 158.001 23.6665 156.697 30.7191L155.762 35.7734C155.661 36.3165 155.14 36.6753 154.596 36.5748L129.325 31.9002C128.782 31.7997 128.423 31.2781 128.524 30.735L129.459 25.6807Z" fill="#1B1B1B"/>
<path d="M118.77 77.9282C119.23 64.6082 128.89 53.9382 140.69 53.9382C152.49 53.9382 162.14 64.6082 162.61 77.9282H118.78H118.77Z" fill="#C7E8EF"/>
<path fill-rule="evenodd" clip-rule="evenodd" d="M118.77 77.9282H162.61C162.586 77.2544 162.539 76.5874 162.469 75.9282C161.158 63.556 151.893 53.9382 140.69 53.9382C129.487 53.9382 120.213 63.556 118.91 75.9282C118.849 76.5037 118.806 77.0851 118.78 77.6719C118.776 77.7572 118.773 77.8427 118.77 77.9282ZM120.921 75.9282H160.458C159.159 64.467 150.595 55.9382 140.69 55.9382C130.784 55.9382 122.212 64.4685 120.921 75.9282Z" fill="#1B1B1B"/>
<path d="M140.31 60.34C137.94 60.34 136.02 58.41 136.02 56.05V53.55C136.02 52.84 136.6 52.26 137.31 52.26H144.06C144.77 52.26 145.35 52.84 145.35 53.55V56.05C145.35 58.42 143.42 60.34 141.06 60.34H140.31Z" fill="white"/>
<path fill-rule="evenodd" clip-rule="evenodd" d="M138.02 56.05C138.02 57.3085 139.048 58.34 140.31 58.34H141.06C142.318 58.34 143.35 57.3124 143.35 56.05V54.26H138.02V56.05ZM136.02 56.05C136.02 58.41 137.94 60.34 140.31 60.34H141.06C143.42 60.34 145.35 58.42 145.35 56.05V53.55C145.35 52.84 144.77 52.26 144.06 52.26H137.31C136.6 52.26 136.02 52.84 136.02 53.55V56.05Z" fill="#1B1B1B"/>
<path d="M140.69 55.2201C131.55 55.2201 124.11 47.7801 124.11 38.6401C124.11 29.5001 131.55 22.0601 140.69 22.0601C149.83 22.0601 157.27 29.5001 157.27 38.6401C157.27 47.7801 149.83 55.2201 140.69 55.2201Z" fill="white"/>
<path fill-rule="evenodd" clip-rule="evenodd" d="M140.69 23.0601C132.102 23.0601 125.11 30.0523 125.11 38.6401C125.11 47.2278 132.102 54.2201 140.69 54.2201C149.278 54.2201 156.27 47.2278 156.27 38.6401C156.27 30.0523 149.278 23.0601 140.69 23.0601ZM123.11 38.6401C123.11 28.9478 130.998 21.0601 140.69 21.0601C150.382 21.0601 158.27 28.9478 158.27 38.6401C158.27 48.3323 150.382 56.2201 140.69 56.2201C130.998 56.2201 123.11 48.3323 123.11 38.6401Z" fill="#1B1B1B"/>
<path fill-rule="evenodd" clip-rule="evenodd" d="M133.49 47.78V43H135.49V47.78H133.49Z" fill="#1B1B1B"/>
<path fill-rule="evenodd" clip-rule="evenodd" d="M139.6 47.78V43H141.6V47.78H139.6Z" fill="#1B1B1B"/>
<path fill-rule="evenodd" clip-rule="evenodd" d="M145.373 77.0801L148.693 56.3501L150.668 56.6664L147.348 77.3964L145.373 77.0801Z" fill="#1B1B1B"/>
<path fill-rule="evenodd" clip-rule="evenodd" d="M134.032 77.3964L130.712 56.6664L132.687 56.3501L136.007 77.0801L134.032 77.3964Z" fill="#1B1B1B"/>
<path fill-rule="evenodd" clip-rule="evenodd" d="M130.786 78.1436L123.916 62.6536L125.744 61.8428L132.614 77.3328L130.786 78.1436Z" fill="#1B1B1B"/>
<path fill-rule="evenodd" clip-rule="evenodd" d="M137.912 33.5253C137.515 34.3248 136.996 35.0263 136.392 35.6375C134.986 37.0592 133.152 37.9577 131.396 38.5328C129.634 39.1102 127.886 39.3826 126.588 39.5119C125.937 39.5769 125.393 39.6064 125.009 39.6197C124.817 39.6264 124.665 39.629 124.559 39.6299C124.506 39.6303 124.464 39.6304 124.435 39.6303L124.401 39.6301L124.391 39.63L124.388 39.6299L124.387 39.6299C124.386 39.6299 124.386 39.6299 124.4 38.63C124.414 37.6301 124.414 37.6301 124.414 37.6301L124.414 37.6301L124.418 37.6301L124.442 37.6303C124.463 37.6303 124.497 37.6303 124.542 37.6299C124.631 37.6292 124.766 37.6269 124.94 37.6209C125.287 37.6089 125.788 37.5819 126.39 37.5218C127.599 37.4012 129.194 37.1498 130.774 36.6322C132.361 36.1123 133.869 35.3446 134.97 34.2312C136.046 33.1426 136.77 31.6902 136.77 29.68L138.624 29.6743C138.77 29.6731 138.77 29.6727 138.77 29.6723L138.77 29.671L138.77 29.6691L138.77 29.6785C138.771 29.6903 138.772 29.7121 138.774 29.743C138.777 29.8049 138.786 29.9031 138.803 30.0317C138.836 30.2892 138.905 30.665 139.042 31.1113C139.316 32.0033 139.861 33.166 140.949 34.2413C143.091 36.3581 147.61 38.385 157.203 36.764L157.537 38.736C147.6 40.415 142.319 38.4069 139.543 35.6638C138.833 34.9617 138.305 34.2277 137.912 33.5253ZM138.77 29.6684C138.77 29.668 138.77 29.6682 138.77 29.6691L138.77 29.6684Z" fill="#1B1B1B"/>
<path d="M149.39 76.8273L158.61 31.8073L161.9 32.4772L152.81 76.8273H149.39Z" fill="#1D8EFF"/>
<path fill-rule="evenodd" clip-rule="evenodd" d="M157.831 30.6281L163.081 31.6972L153.626 77.8273H148.164L157.831 30.6281ZM159.389 32.9865L150.616 75.8273H151.994L160.719 33.2574L159.389 32.9865Z" fill="#1B1B1B"/>
<path d="M158.61 44.69C158.12 44.69 157.63 44.49 157.31 44.16C157 43.84 156.84 43.43 156.85 42.93L156.95 37.02C156.95 36.73 156.83 36.45 156.62 36.26C156.44 36.09 156.2 36.01 155.95 36.01C155.91 36.01 155.87 36.01 155.82 36.01L149.96 36.77C149.87 36.78 149.78 36.79 149.69 36.79C148.74 36.79 148.22 36.08 148.06 35.48C147.98 35.18 147.81 34.15 148.9 33.55L154.07 30.68C154.32 30.54 154.5 30.29 154.56 30.01C154.62 29.73 154.56 29.43 154.38 29.2L150.79 24.5C150.22 23.75 150.42 23.06 150.59 22.72C150.89 22.11 151.52 21.7 152.15 21.7C152.45 21.7 152.76 21.79 153.06 21.97L158.13 25.01C158.29 25.1 158.46 25.15 158.64 25.15C158.75 25.15 158.85 25.13 158.95 25.1C159.23 25.01 159.45 24.8 159.56 24.53L161.84 19.07C162.24 18.11 163.06 18 163.4 18C163.89 18 164.38 18.2 164.7 18.53C165.01 18.85 165.17 19.26 165.16 19.76L165.06 25.67C165.06 25.96 165.18 26.24 165.39 26.43C165.57 26.6 165.81 26.68 166.06 26.68C166.1 26.68 166.14 26.68 166.19 26.68L172.05 25.92C172.14 25.91 172.23 25.9 172.32 25.9C173.27 25.9 173.79 26.61 173.95 27.21C174.03 27.51 174.2 28.54 173.11 29.14L167.94 32.01C167.69 32.15 167.51 32.4 167.45 32.68C167.39 32.96 167.45 33.26 167.63 33.49L171.22 38.19C171.79 38.94 171.59 39.63 171.42 39.97C171.12 40.58 170.49 40.99 169.86 40.99C169.56 40.99 169.25 40.9 168.95 40.72L163.88 37.68C163.72 37.59 163.54 37.54 163.37 37.54C163.26 37.54 163.16 37.56 163.06 37.59C162.78 37.68 162.56 37.89 162.45 38.16L160.17 43.62C159.77 44.58 158.95 44.69 158.61 44.69Z" fill="#FFE108"/>
<path d="M158.612 45.69C157.852 45.69 157.102 45.38 156.592 44.86C156.092 44.34 155.832 43.67 155.852 42.91L155.952 37H155.922L150.092 37.76C149.942 37.78 149.822 37.79 149.692 37.79C148.272 37.79 147.372 36.76 147.092 35.74C146.842 34.8 147.042 33.44 148.412 32.68L153.582 29.81L149.992 25.11C149.332 24.24 149.222 23.21 149.692 22.28C150.152 21.34 151.142 20.71 152.142 20.71C152.622 20.71 153.122 20.85 153.562 21.12L158.632 24.16L160.922 18.69C161.362 17.64 162.292 17 163.402 17C164.162 17 164.912 17.31 165.422 17.83C165.922 18.35 166.182 19.02 166.162 19.78L166.062 25.69H166.082L171.922 24.93C172.072 24.91 172.202 24.9 172.322 24.9C173.742 24.9 174.642 25.93 174.922 26.95C175.172 27.89 174.972 29.26 173.602 30.01L168.432 32.88L172.022 37.58C172.682 38.45 172.792 39.48 172.322 40.41C171.862 41.35 170.872 41.98 169.862 41.98C169.382 41.98 168.882 41.84 168.432 41.57L163.362 38.53L161.092 44C160.652 45.05 159.722 45.68 158.612 45.68V45.69ZM155.762 35.01H155.952C156.472 35.01 156.952 35.2 157.312 35.53C157.712 35.9 157.952 36.44 157.952 37.02L157.852 42.95C157.852 43.24 157.942 43.38 158.032 43.47C158.162 43.6 158.392 43.7 158.612 43.7C159.062 43.7 159.202 43.36 159.252 43.24L161.532 37.78C161.752 37.24 162.202 36.82 162.762 36.64C163.402 36.45 163.892 36.54 164.382 36.81L169.472 39.86C169.902 40.12 170.342 39.92 170.532 39.53C170.692 39.2 170.552 38.96 170.432 38.8L166.842 34.1C166.492 33.65 166.352 33.06 166.482 32.47C166.602 31.9 166.962 31.42 167.462 31.14L172.632 28.27C172.762 28.2 173.132 28 172.992 27.47C172.952 27.34 172.802 26.9 172.332 26.9C172.282 26.9 172.232 26.9 172.182 26.91L166.072 27.68C165.552 27.68 165.072 27.49 164.712 27.16C164.312 26.8 164.072 26.25 164.072 25.67L164.172 19.74C164.172 19.45 164.082 19.31 163.992 19.22C163.862 19.08 163.622 18.99 163.412 18.99C162.962 18.99 162.822 19.33 162.772 19.44L160.492 24.9C160.272 25.44 159.822 25.86 159.262 26.04C158.632 26.23 158.142 26.15 157.652 25.87L152.562 22.82C152.132 22.56 151.692 22.76 151.502 23.15C151.342 23.48 151.482 23.72 151.602 23.88L155.192 28.58C155.542 29.03 155.682 29.63 155.552 30.21C155.432 30.78 155.072 31.26 154.572 31.54L149.402 34.41C149.272 34.48 148.902 34.69 149.042 35.21C149.082 35.34 149.232 35.78 149.702 35.78C149.752 35.78 149.812 35.78 149.862 35.77L155.762 35V35.01Z" fill="#1B1B1B"/>
<path d="M119.09 113C115.27 109.73 109.52 110.18 106.25 113.99C102.98 117.81 103.43 123.56 107.24 126.83L119.08 113H119.09Z" fill="#D1D8D9"/>
<path fill-rule="evenodd" clip-rule="evenodd" d="M105.491 113.338C109.12 109.11 115.5 108.61 119.74 112.24C120.058 112.512 120.173 112.954 120.028 113.346C119.971 113.5 119.879 113.633 119.764 113.739L107.999 127.48C107.827 127.682 107.581 127.806 107.317 127.827C107.052 127.847 106.79 127.761 106.589 127.588C102.361 123.96 101.861 117.579 105.49 113.339L105.491 113.338ZM117.634 113.151C114.272 110.927 109.698 111.507 107.009 114.64C104.32 117.783 104.458 122.393 107.171 125.372L117.634 113.151Z" fill="#1B1B1B"/>
<path d="M116.52 110.91C113.3 107.05 107.56 106.54 103.7 109.76C99.8398 112.98 99.3299 118.72 102.55 122.58L116.52 110.91Z" fill="#D1D8D9"/>
<path fill-rule="evenodd" clip-rule="evenodd" d="M103.059 108.992C107.342 105.419 113.713 105.984 117.288 110.269L116.52 110.91L117.161 111.677L103.191 123.347C102.987 123.517 102.724 123.599 102.46 123.576C102.196 123.552 101.952 123.424 101.782 123.22C98.2093 118.937 98.7738 112.567 103.059 108.992ZM115.065 110.822C112.123 108.066 107.518 107.877 104.34 110.527C101.166 113.176 100.536 117.741 102.724 121.131L115.065 110.822Z" fill="#1B1B1B"/>
<path d="M115.36 116.54C118.315 116.54 120.71 114.144 120.71 111.19C120.71 108.235 118.315 105.84 115.36 105.84C112.405 105.84 110.01 108.235 110.01 111.19C110.01 114.144 112.405 116.54 115.36 116.54Z" fill="#E0E0E0"/>
<path fill-rule="evenodd" clip-rule="evenodd" d="M115.36 106.84C112.957 106.84 111.01 108.787 111.01 111.19C111.01 113.592 112.957 115.54 115.36 115.54C117.762 115.54 119.71 113.592 119.71 111.19C119.71 108.787 117.762 106.84 115.36 106.84ZM109.01 111.19C109.01 107.683 111.853 104.84 115.36 104.84C118.867 104.84 121.71 107.683 121.71 111.19C121.71 114.697 118.867 117.54 115.36 117.54C111.853 117.54 109.01 114.697 109.01 111.19Z" fill="#1B1B1B"/>
<path d="M107.57 130.09C108.03 116.77 117.69 106.1 129.49 106.1C141.29 106.1 150.94 116.77 151.41 130.09H107.58H107.57Z" fill="#A2A2A2"/>
<path fill-rule="evenodd" clip-rule="evenodd" d="M107.57 130.09H151.41C151.386 129.416 151.339 128.749 151.269 128.09C149.958 115.717 140.693 106.1 129.49 106.1C118.287 106.1 109.013 115.717 107.709 128.09C107.649 128.665 107.605 129.247 107.58 129.833C107.576 129.919 107.573 130.004 107.57 130.09ZM109.72 128.09H149.258C147.959 116.628 139.395 108.1 129.49 108.1C119.584 108.1 111.012 116.63 109.72 128.09Z" fill="#1B1B1B"/>
<path d="M128.22 71.5596H130.35C138.63 71.5596 145.35 78.2796 145.35 86.5596V110.11H113.22V86.5596C113.22 78.2796 119.94 71.5596 128.22 71.5596Z" fill="#A2A2A2"/>
<path fill-rule="evenodd" clip-rule="evenodd" d="M128.22 72.5596C120.492 72.5596 114.22 78.8319 114.22 86.5596V109.11H144.35V86.5596C144.35 78.8319 138.078 72.5596 130.35 72.5596H128.22ZM112.22 86.5596C112.22 77.7273 119.388 70.5596 128.22 70.5596H130.35C139.182 70.5596 146.35 77.7273 146.35 86.5596V110.11C146.35 110.662 145.902 111.11 145.35 111.11H113.22C112.668 111.11 112.22 110.662 112.22 110.11V86.5596Z" fill="#1B1B1B"/>
<path d="M139.99 89.7695H116.43V103.69H139.99V89.7695Z" fill="white"/>
<path fill-rule="evenodd" clip-rule="evenodd" d="M115.43 89.7695C115.43 89.2172 115.878 88.7695 116.43 88.7695H139.99C140.542 88.7695 140.99 89.2172 140.99 89.7695V103.69C140.99 104.242 140.542 104.69 139.99 104.69H116.43C115.878 104.69 115.43 104.242 115.43 103.69V89.7695ZM117.43 90.7695V102.69H138.99V90.7695H117.43Z" fill="#1B1B1B"/>
<path fill-rule="evenodd" clip-rule="evenodd" d="M121.28 94.7396V89.9496H123.28V94.7396H121.28Z" fill="#1B1B1B"/>
<path fill-rule="evenodd" clip-rule="evenodd" d="M127.4 94.7396V89.9496H129.4V94.7396H127.4Z" fill="#1B1B1B"/>
<path d="M139.99 89.7696H110V81.1996L121.79 75.8496L139.99 81.1996V89.7696Z" fill="#E0E0E0"/>
<path fill-rule="evenodd" clip-rule="evenodd" d="M121.377 74.939C121.595 74.8399 121.842 74.8226 122.072 74.8902L140.272 80.2402C140.698 80.3653 140.99 80.7559 140.99 81.1996V89.7696C140.99 90.3219 140.542 90.7696 139.99 90.7696H110C109.448 90.7696 109 90.3219 109 89.7696V81.1996C109 80.8072 109.229 80.4511 109.587 80.289L121.377 74.939ZM121.865 76.9139L111 81.844V88.7696H138.99V81.948L121.865 76.9139Z" fill="#1B1B1B"/>
<path fill-rule="evenodd" clip-rule="evenodd" d="M120.79 86.1596V80.1296H122.79V86.1596H120.79Z" fill="#1B1B1B"/>
<path fill-rule="evenodd" clip-rule="evenodd" d="M116.5 86.1596V81.1996H118.5V86.1596H116.5Z" fill="#1B1B1B"/>
<path fill-rule="evenodd" clip-rule="evenodd" d="M125.07 86.1596V81.1996H127.07V86.1596H125.07Z" fill="#1B1B1B"/>
<path d="M140.55 113C144.37 109.73 150.12 110.18 153.39 113.99C156.66 117.81 156.21 123.56 152.4 126.83L140.56 113H140.55Z" fill="#D1D8D9"/>
<path fill-rule="evenodd" clip-rule="evenodd" d="M142.006 113.151L152.468 125.372C155.182 122.393 155.32 117.783 152.631 114.64C149.941 111.507 145.368 110.927 142.006 113.151ZM139.876 113.739C139.76 113.633 139.669 113.5 139.612 113.346C139.467 112.954 139.582 112.512 139.9 112.24C144.139 108.61 150.52 109.11 154.149 113.338L154.15 113.339C157.779 117.579 157.279 123.96 153.051 127.588C152.85 127.761 152.588 127.847 152.323 127.827C152.059 127.806 151.813 127.682 151.64 127.48L139.876 113.739Z" fill="#1B1B1B"/>
<path d="M143.11 110.91C146.33 107.05 152.07 106.54 155.93 109.76C159.79 112.98 160.3 118.72 157.08 122.58L143.11 110.91Z" fill="#D1D8D9"/>
<path fill-rule="evenodd" clip-rule="evenodd" d="M143.11 110.91L142.469 111.677L156.439 123.347C156.642 123.517 156.905 123.599 157.17 123.576C157.434 123.552 157.678 123.424 157.848 123.22C161.42 118.937 160.856 112.567 156.57 108.992C152.288 105.419 145.917 105.984 142.342 110.269L143.11 110.91ZM144.565 110.822L156.906 121.131C159.093 117.741 158.464 113.176 155.289 110.527C152.112 107.877 147.506 108.066 144.565 110.822Z" fill="#1B1B1B"/>
<path d="M144.28 116.54C147.235 116.54 149.63 114.144 149.63 111.19C149.63 108.235 147.235 105.84 144.28 105.84C141.325 105.84 138.93 108.235 138.93 111.19C138.93 114.144 141.325 116.54 144.28 116.54Z" fill="#E0E0E0"/>
<path fill-rule="evenodd" clip-rule="evenodd" d="M144.28 106.84C141.877 106.84 139.93 108.787 139.93 111.19C139.93 113.592 141.877 115.54 144.28 115.54C146.682 115.54 148.63 113.592 148.63 111.19C148.63 108.787 146.682 106.84 144.28 106.84ZM137.93 111.19C137.93 107.683 140.773 104.84 144.28 104.84C147.787 104.84 150.63 107.683 150.63 111.19C150.63 114.697 147.787 117.54 144.28 117.54C140.773 117.54 137.93 114.697 137.93 111.19Z" fill="#1B1B1B"/>
<path fill-rule="evenodd" clip-rule="evenodd" d="M117.825 109.917C117.825 109.917 117.825 109.916 118.722 110.359C119.618 110.802 119.619 110.801 119.619 110.801L119.619 110.8L119.62 110.799L119.617 110.804C119.614 110.811 119.608 110.825 119.599 110.845C119.581 110.885 119.553 110.95 119.517 111.04C119.445 111.22 119.342 111.5 119.23 111.877C119.004 112.63 118.738 113.771 118.599 115.274C118.321 118.275 118.547 122.747 120.641 128.497L118.762 129.181C116.566 123.151 116.302 118.383 116.607 115.089C116.759 113.445 117.053 112.174 117.314 111.303C117.444 110.868 117.566 110.532 117.659 110.3C117.705 110.184 117.744 110.094 117.772 110.029C117.787 109.997 117.799 109.972 117.807 109.953L117.819 109.93L117.822 109.922L117.824 109.919L117.825 109.917ZM119.62 110.799L119.62 110.798L119.62 110.798C119.62 110.798 119.62 110.798 119.62 110.799Z" fill="#1B1B1B"/>
<path fill-rule="evenodd" clip-rule="evenodd" d="M137.233 109.053C137.234 109.052 137.234 109.052 138.09 109.569C138.946 110.086 138.946 110.086 138.946 110.086L138.945 110.087L138.938 110.099C138.931 110.111 138.92 110.13 138.905 110.156C138.875 110.207 138.83 110.288 138.77 110.397C138.652 110.614 138.478 110.943 138.264 111.381C137.837 112.256 137.251 113.562 136.631 115.267C135.391 118.677 134.013 123.678 133.486 130.002L131.493 129.836C132.037 123.311 133.459 118.136 134.751 114.584C135.397 112.807 136.011 111.436 136.467 110.503C136.695 110.037 136.883 109.68 137.016 109.436C137.082 109.315 137.135 109.222 137.172 109.157C137.191 109.125 137.205 109.1 137.216 109.083L137.228 109.062L137.232 109.056L137.233 109.053Z" fill="#1B1B1B"/>
</g>
<defs>
<clipPath id="clip0_3204_226">
<rect width="180" height="130" fill="white"/>
</clipPath>
</defs>
</svg>
