<svg width="180" height="130" viewBox="0 0 180 130" fill="none" xmlns="http://www.w3.org/2000/svg">
<path d="M114 0H16C7.16344 0 0 7.16344 0 16V114C0 122.837 7.16344 130 16 130H114C122.837 130 130 122.837 130 114V16C130 7.16344 122.837 0 114 0Z" fill="#8FDFF3"/>
<path d="M114 2C121.72 2 128 8.28 128 16V114C128 121.72 121.72 128 114 128H16C8.28 128 2 121.72 2 114V16C2 8.28 8.28 2 16 2H114ZM114 0H16C7.16 0 0 7.16 0 16V114C0 122.84 7.16 130 16 130H114C122.84 130 130 122.84 130 114V16C130 7.16 122.84 0 114 0Z" fill="#1B1B1B"/>
<path d="M68.6 30.21C68.63 30.1 68.63 29.98 68.6 29.86C68.48 29.33 67.83 28.73 65.97 28.24C71.99 28.25 71.52 32 71.52 32C71.52 32 71.52 32.01 71.51 32.02C69.99 34.22 63.41 33.48 58.04 32L59.64 29.42C59.64 29.42 61.03 32.33 67.96 31.17C67.96 31.17 68.52 30.76 68.6 30.21Z" fill="#E2A049"/>
<path d="M71.5099 32.02C71.4799 32.18 71.1799 33.45 70.7299 35.52L69.9999 35.35C66.1199 35.71 60.8899 35 50.6299 32V28.41C50.7699 29.42 54.0799 30.91 58.0399 32C63.4099 33.48 69.9899 34.22 71.5099 32.02V32.02Z" fill="#E2A049"/>
<path d="M69.9999 35.35L70.7299 35.52C68.5499 45.67 62.8799 75.2 67.3899 89.08C67.3899 89.08 66.7599 90.35 64.3299 91.68C59.9299 63.13 69.9999 35.35 69.9999 35.35V35.35Z" fill="#E2A049"/>
<path d="M50.6299 32C60.8899 35 66.1199 35.71 69.9999 35.35C69.9999 35.35 59.9299 63.13 64.3299 91.68C64.4299 92.37 64.5499 93.05 64.6699 93.74C64.6699 93.74 53.8099 98.08 46.3499 90.54C46.3499 90.54 55.2299 47.91 46.0999 29.97L46.1299 29.95C46.3899 30.46 47.6399 31.12 50.6299 32V32Z" fill="#FCBC5E"/>
<path d="M68.5999 29.86C68.6299 29.98 68.6299 30.1 68.5999 30.21V29.86Z" fill="#FCBC5E"/>
<path d="M65.97 28.24C67.83 28.73 68.48 29.33 68.6 29.86V30.21C68.52 30.76 67.96 31.17 67.96 31.17C61.03 32.33 59.64 29.42 59.64 29.42L58.04 32C54.08 30.91 50.77 29.42 50.63 28.41C50.52 27.69 51.99 27.22 55.89 27.28C60.97 27.36 64.09 27.75 65.97 28.24V28.24Z" fill="#FCBC5E"/>
<path d="M50.63 28.41V32C47.64 31.12 46.39 30.46 46.13 29.95C45.48 28.71 50.63 28.41 50.63 28.41Z" fill="#FCBC5E"/>
<path d="M71.51 32.02C69.99 34.22 63.41 33.48 58.04 32C54.08 30.91 50.77 29.42 50.63 28.41C50.52 27.69 51.99 27.22 55.89 27.28C60.97 27.36 64.09 27.75 65.97 28.24C67.83 28.73 68.48 29.33 68.6 29.86C68.63 29.98 68.63 30.1 68.6 30.21C68.52 30.76 67.96 31.17 67.96 31.17C61.03 32.33 59.64 29.42 59.64 29.42L58.04 32" stroke="#1B1B1B" stroke-width="2" stroke-miterlimit="10"/>
<path d="M65.9402 28.24H65.9702C71.9902 28.25 71.5202 32 71.5202 32" stroke="#1B1B1B" stroke-width="2" stroke-miterlimit="10"/>
<path d="M46.0701 29.91L46.1001 29.97C55.2301 47.91 46.3501 90.54 46.3501 90.54C53.8101 98.08 64.6701 93.74 64.6701 93.74C64.5501 93.05 64.4301 92.37 64.3301 91.68C59.9301 63.13 70.0001 35.35 70.0001 35.35C66.1201 35.71 60.8901 35 50.6301 32C47.6401 31.12 46.3901 30.46 46.1301 29.95C45.4801 28.71 50.6301 28.41 50.6301 28.41V32" stroke="#1B1B1B" stroke-width="2" stroke-miterlimit="10"/>
<path d="M71.5201 32C71.5201 32 71.5201 32.01 71.5101 32.02C71.4801 32.18 71.1801 33.45 70.7301 35.52C68.5501 45.67 62.8801 75.2 67.3901 89.08C67.3901 89.08 66.7601 90.35 64.3301 91.68" stroke="#1B1B1B" stroke-width="2" stroke-miterlimit="10"/>
<path d="M68.6001 29.86V30.21V32.75" stroke="#1B1B1B" stroke-width="2" stroke-miterlimit="10"/>
<path d="M50.6101 55.45C50.6101 55.45 58.1101 62.17 67.0001 57.09L66.4501 61.84C66.4501 61.84 59.2601 67.75 50.0701 60.38L50.6101 55.4599V55.45Z" fill="#8AD953" stroke="#1B1B1B" stroke-width="2" stroke-miterlimit="10"/>
<path d="M55.89 107C55.89 107 56.66 110.79 50.28 111.89C44.13 103.54 40.54 94.45 38.48 86.09C43.16 84.92 46.06 82 46.06 82L45.67 78.85H45.71C47.05 89.19 49.96 99.89 55.89 107Z" fill="#FCBC5E"/>
<path d="M50.28 111.89C50.79 112.6 51.33 113.3 51.89 114C51.89 114 41.99 118 32.44 114C32.44 114 32.04 100.34 28.24 85.26C32.15 86.87 35.64 86.8 38.48 86.09C40.54 94.45 44.13 103.54 50.28 111.89Z" fill="#FCBC5E"/>
<path d="M45.67 78.85L46.06 82C46.06 82 43.16 84.92 38.48 86.09C38.1 84.56 37.77 83.05 37.5 81.58C40.15 80.93 42.93 79.42 45.36 76.39L45.67 78.85V78.85Z" fill="#1D8EFF"/>
<path d="M42.2199 49.94C43.5799 49.19 44.6399 48.51 45.2499 48.04C45.2499 48.04 43.6599 63.02 45.7099 78.84H45.6699L45.3599 76.39C42.9299 79.42 40.1499 80.93 37.4999 81.58C34.7599 67.31 36.2399 56.13 36.2399 56.13C29.5599 57.93 24.7299 58.03 21.8399 57.78L19.4299 52.78C20.0899 53.21 21.1799 53.62 22.8899 54C23.3599 54.1 23.8299 54.19 24.3099 54.24C30.8599 55.11 38.0199 52.23 42.2199 49.94Z" fill="#FCBC5E"/>
<path d="M42.35 46.19C42.35 46.19 47.89 46 45.25 48.04C44.64 48.51 43.58 49.19 42.22 49.94L42.35 46.19Z" fill="#DD912C"/>
<path d="M42.3501 46.19L42.2201 49.94C38.0201 52.23 30.8601 55.11 24.3101 54.24L21.8401 49.04L22.1101 48.68C22.4101 49.1 22.9801 49.54 23.8901 50C26.6501 51.38 30.3901 51.28 33.7701 50.54C38.3101 49.54 42.2101 47.4 42.2101 46.17L42.3501 46.19Z" fill="#FCBC5E"/>
<path d="M34.01 45.2C35 45.2701 34.97 45.1 40 45.27C41.55 45.32 42.21 45.67 42.21 46.17C42.21 47.4 38.31 49.54 33.77 50.54C32.98 49.74 33.2 47.08 33.5 45.15L34.01 45.2Z" fill="#E8972D"/>
<path d="M37.5 81.58C37.77 83.05 38.1 84.56 38.48 86.09C35.64 86.8 32.15 86.87 28.24 85.26C27.85 83.71 27.42 82.14 26.96 80.57V80.54C26.96 80.54 31.94 82.95 37.5 81.58V81.58Z" fill="#1D8EFF"/>
<path d="M36.2401 56.1301C36.2401 56.1301 34.7601 67.3101 37.5001 81.5801C31.9401 82.9501 26.9501 80.5401 26.9501 80.5401C24.1801 71.2701 20.0501 61.9501 13.8601 55.3101C14.7001 55.9601 16.2001 56.6101 18.6001 57.2401C18.6001 57.2401 19.6901 57.6101 21.8401 57.7801C24.7301 58.0301 29.5601 57.9301 36.2401 56.1301V56.1301Z" fill="#FCBC5E"/>
<path d="M33.8899 43C33.8899 43 33.6799 43.93 33.4999 45.15C33.1999 47.08 32.9799 49.74 33.7699 50.54C30.3899 51.28 26.6499 51.38 23.8899 50C22.9799 49.54 22.4099 49.1 22.1099 48.68C19.7499 45.36 33.8899 43 33.8899 43Z" fill="#FCBC5E"/>
<path d="M28.24 85.2599L26.96 80.5699C27.42 82.1399 27.85 83.7099 28.24 85.2599Z" fill="#1D8EFF"/>
<path d="M21.8399 49.04L24.3099 54.24C23.8299 54.19 23.3599 54.1 22.8899 54C21.1799 53.62 20.0899 53.21 19.4299 52.78L18.6899 51.26C19.1099 50.18 21.2499 49.27 21.7399 49.07C21.8099 49.05 21.8399 49.04 21.8399 49.04V49.04Z" fill="#DD912C"/>
<path d="M18.69 51.2599C18.48 51.7499 18.63 52.2699 19.43 52.7799L21.84 57.7799C19.69 57.6099 18.6 57.2399 18.6 57.2399C16.2 56.6099 14.7 55.9599 13.86 55.3099C13.65 55.0799 13.43 54.8599 13.21 54.6399C11.46 51.8599 20.68 49.3499 21.74 49.0699C21.25 49.2699 19.11 50.1799 18.69 51.2599Z" fill="#E8972D"/>
<path d="M21.74 49.07C21.25 49.27 19.11 50.18 18.69 51.26C18.48 51.75 18.63 52.27 19.43 52.78C20.09 53.21 21.18 53.62 22.89 54C23.36 54.1 23.83 54.19 24.31 54.24C30.86 55.11 38.02 52.23 42.22 49.94C43.58 49.19 44.64 48.51 45.25 48.04C47.89 46 42.35 46.19 42.35 46.19" stroke="#1B1B1B" stroke-width="2" stroke-miterlimit="10"/>
<path d="M33.3699 45.27C33.3699 45.27 34.2812 45.23 35.2812 45.2C35.2812 45.2 35.048 45.03 40.078 45.2C41.628 45.25 42.2099 45.67 42.2099 46.17C42.2099 47.4 38.3099 49.54 33.7699 50.54M33.7699 50.54C30.3899 51.28 26.6499 51.38 23.8899 50C22.9799 49.54 22.4099 49.1 22.1099 48.68C19.7499 45.36 33.8899 43 33.8899 43C33.8899 43 33.6799 43.93 33.4999 45.15C33.1999 47.08 32.9799 49.74 33.7699 50.54Z" stroke="#1B1B1B" stroke-width="2" stroke-miterlimit="10"/>
<path d="M37.5 81.58C34.76 67.31 36.24 56.13 36.24 56.13C29.56 57.93 24.73 58.03 21.84 57.78C19.69 57.61 18.6 57.24 18.6 57.24C16.2 56.61 14.7 55.96 13.86 55.31C13.56 55.09 13.35 54.87 13.21 54.64C11.46 51.86 20.68 49.35 21.74 49.07C21.81 49.05 21.84 49.04 21.84 49.04L24.31 54.24" stroke="#1B1B1B" stroke-width="2" stroke-miterlimit="10"/>
<path d="M28.24 85.26C32.04 100.34 32.44 114 32.44 114C41.99 118 51.89 114 51.89 114C51.33 113.3 50.79 112.6 50.28 111.89C44.13 103.54 40.54 94.45 38.48 86.09" stroke="#1B1B1B" stroke-width="2" stroke-miterlimit="10"/>
<path d="M12.99 54.41C13.07 54.49 13.14 54.56 13.21 54.64C13.43 54.86 13.65 55.08 13.86 55.31C20.05 61.95 24.18 71.27 26.95 80.54" stroke="#1B1B1B" stroke-width="2" stroke-miterlimit="10"/>
<path d="M45.2499 48.04C45.2499 48.04 43.6599 63.02 45.7099 78.84C47.0499 89.19 49.9599 99.89 55.8899 107C55.8899 107 56.6599 110.79 50.2799 111.89" stroke="#1B1B1B" stroke-width="2" stroke-miterlimit="10"/>
<path d="M19 52.5L21.8399 57.78" stroke="#1B1B1B" stroke-width="2" stroke-miterlimit="10"/>
<path d="M42.35 46.1899L42.22 49.9399L42.21 50.2999" stroke="#1B1B1B" stroke-width="2" stroke-miterlimit="10"/>
<path d="M26.95 80.54C26.95 80.54 31.94 82.95 37.5 81.58C40.15 80.93 42.93 79.42 45.36 76.39L45.6699 78.85L46.06 82C46.06 82 43.1599 84.92 38.4799 86.09C35.64 86.8 32.15 86.87 28.24 85.26L26.9599 80.57L26.5 79L26.95 80.54Z" stroke="#1B1B1B" stroke-width="2" stroke-miterlimit="10"/>
<path d="M93.0498 32.27C92.5698 32.27 92.0898 32.23 91.6098 32.15C86.7098 31.36 83.3598 26.74 84.1498 21.84C84.8498 17.45 88.5898 14.26 93.0198 14.26C93.4998 14.26 93.9798 14.3 94.4598 14.38C96.8298 14.76 98.9198 16.04 100.33 17.99C101.74 19.94 102.31 22.32 101.92 24.69C101.22 29.08 97.4798 32.27 93.0498 32.27V32.27Z" fill="#E28C03"/>
<path d="M93.03 15.26C93.46 15.26 93.89 15.29 94.31 15.36C96.42 15.7 98.2699 16.84 99.5199 18.57C100.77 20.3 101.28 22.42 100.94 24.53C100.31 28.43 97 31.26 93.05 31.26C92.62 31.26 92.1899 31.23 91.7699 31.16C87.4099 30.46 84.44 26.35 85.14 21.99C85.77 18.09 89.08 15.26 93.03 15.26V15.26ZM93.03 13.26C88.21 13.26 83.96 16.76 83.17 21.68C82.3 27.13 86.01 32.26 91.46 33.14C92 33.23 92.53 33.27 93.06 33.27C97.88 33.27 102.13 29.77 102.92 24.85C103.79 19.4 100.08 14.27 94.63 13.39C94.09 13.3 93.56 13.26 93.03 13.26V13.26Z" fill="#1B1B1B"/>
<path d="M94.44 30.33C92.73 30.05 91.22 29.13 90.2 27.72C89.18 26.31 88.77 24.6 89.05 22.88C89.56 19.71 92.25 17.41 95.46 17.41C95.8 17.41 96.15 17.44 96.5 17.49L159.2 27.55L157.14 40.39L94.44 30.33V30.33Z" fill="#C97A09"/>
<path d="M95.46 18.41C95.75 18.41 96.05 18.43 96.34 18.48L158.05 28.38L156.31 39.24L94.6 29.34C91.61 28.86 89.56 26.03 90.04 23.04C90.47 20.36 92.75 18.41 95.46 18.41V18.41ZM95.46 16.41C91.84 16.41 88.66 19.04 88.06 22.72C87.4 26.81 90.19 30.66 94.28 31.31L157.97 41.53L160.35 26.72L96.6601 16.5C96.2601 16.44 95.86 16.4 95.46 16.4V16.41Z" fill="#1B1B1B"/>
<path d="M98.3499 31.21C94.8099 30.64 92.3899 27.3 92.9599 23.76C93.4699 20.59 96.1599 18.29 99.3699 18.29C99.7199 18.29 100.06 18.32 100.41 18.37L158.17 27.64L156.11 40.48L98.3499 31.21V31.21Z" fill="#FCBC5E"/>
<path d="M99.37 19.29C99.66 19.29 99.96 19.31 100.25 19.36L157.02 28.47L155.28 39.33L98.51 30.22C95.52 29.74 93.47 26.91 93.95 23.92C94.38 21.24 96.66 19.29 99.37 19.29V19.29ZM99.37 17.29C95.75 17.29 92.57 19.92 91.97 23.6C91.31 27.69 94.1 31.54 98.19 32.19L156.94 41.62L159.32 26.81L100.57 17.38C100.17 17.32 99.77 17.28 99.37 17.28V17.29Z" fill="#1B1B1B"/>
<path d="M132.62 97.5801C110.39 94.6201 87.4302 91.5601 76.4502 88.5601C77.7502 78.3801 81.3602 69.0401 87.4702 60.0401C88.5102 58.2901 89.6502 56.5501 90.7402 54.8701C95.8102 47.0901 101.04 39.0701 96.9502 30.9301L99.0002 31.2001C121.23 34.1601 144.19 37.2201 155.17 40.2201C153.87 50.4001 150.26 59.7401 144.15 68.7501C143.11 70.5001 141.97 72.2401 140.88 73.9201C135.81 81.7001 130.58 89.7201 134.67 97.8601L132.62 97.59V97.5801Z" fill="#FCBC5E"/>
<path d="M98.5601 32.15L98.8501 32.19C120.5 35.07 142.85 38.05 154.06 40.96C152.69 50.64 149.17 59.56 143.32 68.18L143.29 68.23L143.26 68.28C142.26 69.96 141.13 71.69 140.04 73.37C135.37 80.54 130.15 88.53 133.06 96.64L132.77 96.6C111.12 93.72 88.7701 90.74 77.5601 87.83C78.9301 78.15 82.4501 69.23 88.3001 60.61L88.3301 60.56L88.3601 60.51C89.3601 58.83 90.4901 57.1 91.5801 55.42C96.2501 48.25 101.47 40.26 98.5601 32.15V32.15ZM95.0501 29.66C101.79 39.6 92.5501 49.54 86.6401 59.48C79.8901 69.42 76.4901 79.36 75.3501 89.3C86.6601 92.57 112.02 95.85 136.57 99.12C129.83 89.18 139.07 79.24 144.98 69.3C151.73 59.36 155.13 49.42 156.27 39.48C144.96 36.21 119.6 32.93 95.0501 29.66V29.66Z" fill="#1B1B1B"/>
<path d="M159.16 43.13C158.68 43.13 158.2 43.09 157.72 43.01C155.35 42.63 153.26 41.35 151.85 39.4C150.44 37.45 149.87 35.07 150.26 32.7C150.96 28.31 154.7 25.12 159.14 25.12C159.62 25.12 160.1 25.16 160.58 25.24C165.48 26.03 168.83 30.65 168.04 35.55C167.34 39.94 163.6 43.13 159.17 43.13H159.16Z" fill="#E28C03"/>
<path d="M159.14 26.12C159.56 26.12 160 26.15 160.42 26.22C164.78 26.92 167.75 31.03 167.05 35.39C166.42 39.29 163.11 42.12 159.16 42.12C158.73 42.12 158.3 42.09 157.88 42.02C153.52 41.32 150.55 37.21 151.25 32.85C151.88 28.95 155.19 26.12 159.14 26.12ZM159.14 24.12C154.32 24.12 150.07 27.62 149.28 32.54C148.41 37.99 152.12 43.12 157.57 44C158.11 44.09 158.64 44.13 159.17 44.13C163.99 44.13 168.24 40.63 169.03 35.71C169.9 30.26 166.19 25.13 160.74 24.25C160.2 24.16 159.67 24.12 159.14 24.12Z" fill="#1B1B1B"/>
<path d="M161.6 42.31C161.36 42.31 161.12 42.29 160.88 42.25C159.35 42 158.01 40.98 157.13 39.37C156.2 37.68 155.88 35.56 156.22 33.4C156.86 29.41 159.64 26.39 162.69 26.39C162.93 26.39 163.17 26.41 163.41 26.45C166.68 26.97 168.77 30.94 168.07 35.3C167.43 39.29 164.65 42.31 161.59 42.31H161.6Z" fill="#B76646"/>
<path d="M162.7 27.4C162.89 27.4 163.07 27.42 163.26 27.44C165.94 27.87 167.69 31.4 167.09 35.14C166.54 38.6 164.13 41.3 161.6 41.3C161.41 41.3 161.23 41.28 161.04 41.26C158.36 40.83 156.61 37.3 157.21 33.56C157.76 30.1 160.17 27.4 162.7 27.4V27.4ZM162.7 25.4C159.2 25.4 155.97 28.72 155.24 33.25C154.45 38.16 156.91 42.63 160.73 43.25C161.02 43.3 161.32 43.32 161.61 43.32C165.11 43.32 168.34 40 169.07 35.47C169.86 30.56 167.4 26.09 163.58 25.47C163.29 25.42 163 25.4 162.7 25.4V25.4Z" fill="#1B1B1B"/>
<path d="M68.65 102.29C68.17 102.29 67.69 102.25 67.21 102.17C64.84 101.79 62.75 100.51 61.34 98.56C59.93 96.61 59.36 94.23 59.75 91.86C60.45 87.47 64.19 84.28 68.62 84.28C69.1 84.28 69.58 84.32 70.06 84.4C74.96 85.19 78.31 89.81 77.52 94.71C76.82 99.1 73.08 102.29 68.65 102.29V102.29Z" fill="#E28C03"/>
<path d="M68.63 85.28C69.05 85.28 69.4901 85.31 69.9101 85.38C72.0201 85.72 73.8701 86.86 75.1201 88.59C76.3701 90.32 76.88 92.44 76.54 94.55C75.91 98.45 72.6001 101.28 68.6501 101.28C68.2201 101.28 67.7901 101.25 67.3701 101.18C63.0101 100.48 60.0401 96.37 60.7401 92.01C61.3701 88.11 64.68 85.28 68.63 85.28V85.28ZM68.63 83.28C63.81 83.28 59.56 86.78 58.77 91.7C57.9 97.15 61.61 102.28 67.06 103.16C67.6 103.25 68.1301 103.29 68.6601 103.29C73.4801 103.29 77.73 99.79 78.52 94.87C79.39 89.42 75.6801 84.29 70.2301 83.41C69.6901 83.32 69.16 83.28 68.63 83.28V83.28Z" fill="#1B1B1B"/>
<path d="M70.0401 100.35C68.3301 100.07 66.8201 99.1501 65.8001 97.7401C64.7801 96.3301 64.3701 94.6201 64.6501 92.9001C65.1601 89.7301 67.8501 87.4301 71.0601 87.4301C71.4001 87.4301 71.7501 87.4601 72.1001 87.5101L138.75 98.2001L136.69 111.04L70.0401 100.35V100.35Z" fill="#C97A09"/>
<path d="M71.0602 88.43C71.3502 88.43 71.6502 88.45 71.9402 88.5L137.6 99.03L135.86 109.89L70.2002 99.36C68.7502 99.13 67.4802 98.34 66.6202 97.15C65.7602 95.96 65.4102 94.51 65.6502 93.05C66.0802 90.37 68.3602 88.42 71.0702 88.42L71.0602 88.43ZM71.0702 86.42C67.4502 86.42 64.2702 89.05 63.6702 92.73C63.0102 96.82 65.8002 100.67 69.8902 101.32L137.53 112.17L139.91 97.36L72.2702 86.51C71.8702 86.45 71.4702 86.41 71.0702 86.41V86.42Z" fill="#1B1B1B"/>
<path d="M73.95 101.23C72.24 100.95 70.73 100.03 69.71 98.6201C68.69 97.2101 68.28 95.5001 68.56 93.7801C69.07 90.6101 71.76 88.3101 74.97 88.3101C75.31 88.3101 75.66 88.3401 76.01 88.3901L131.8 97.3401L129.74 110.18L73.95 101.23V101.23Z" fill="#FCBC5E"/>
<path d="M74.9701 89.31C75.2601 89.31 75.5601 89.33 75.8501 89.38L130.65 98.17L128.91 109.03L74.1101 100.24C72.6601 100.01 71.3901 99.22 70.5301 98.03C69.6701 96.84 69.3201 95.39 69.5601 93.93C69.9901 91.25 72.2701 89.3 74.9801 89.3L74.9701 89.31ZM74.9801 87.3C71.3601 87.3 68.1801 89.93 67.5801 93.61C66.9201 97.7 69.7101 101.55 73.8001 102.2L130.57 111.31L132.95 96.5L76.1801 87.39C75.7801 87.33 75.3801 87.29 74.9801 87.29V87.3Z" fill="#1B1B1B"/>
<path d="M134.77 113.15C134.29 113.15 133.81 113.11 133.33 113.03C130.96 112.65 128.87 111.37 127.46 109.42C126.05 107.47 125.48 105.09 125.87 102.72C126.57 98.33 130.31 95.14 134.74 95.14C135.22 95.14 135.7 95.18 136.18 95.26C138.55 95.64 140.64 96.92 142.05 98.87C143.46 100.82 144.03 103.2 143.64 105.57C142.94 109.96 139.2 113.15 134.77 113.15Z" fill="#E28C03"/>
<path d="M134.74 96.14C135.16 96.14 135.6 96.17 136.02 96.24C138.13 96.58 139.98 97.72 141.23 99.45C142.48 101.18 142.99 103.3 142.65 105.41C142.02 109.31 138.71 112.14 134.76 112.14C134.33 112.14 133.9 112.11 133.48 112.04C131.37 111.7 129.52 110.56 128.27 108.83C127.02 107.1 126.51 104.98 126.85 102.87C127.48 98.97 130.79 96.14 134.74 96.14ZM134.74 94.14C129.92 94.14 125.67 97.64 124.88 102.56C124.01 108.01 127.72 113.14 133.17 114.02C133.71 114.11 134.24 114.15 134.77 114.15C139.59 114.15 143.84 110.65 144.63 105.73C145.5 100.28 141.79 95.15 136.34 94.27C135.8 94.18 135.27 94.14 134.74 94.14V94.14Z" fill="#1B1B1B"/>
<path d="M137.2 112.33C136.96 112.33 136.72 112.31 136.48 112.27C133.21 111.75 131.12 107.78 131.82 103.42C132.46 99.43 135.24 96.41 138.29 96.41C138.53 96.41 138.77 96.43 139.01 96.47C140.54 96.72 141.88 97.74 142.76 99.35C143.69 101.04 144.01 103.16 143.67 105.32C143.03 109.31 140.25 112.33 137.2 112.33Z" fill="#B76646"/>
<path d="M138.3 97.42C138.49 97.42 138.67 97.44 138.86 97.46C140.08 97.66 141.16 98.5 141.89 99.83C142.71 101.33 143 103.22 142.68 105.16C142.13 108.62 139.72 111.32 137.19 111.32C137 111.32 136.82 111.3 136.63 111.28C133.95 110.85 132.2 107.32 132.8 103.58C133.35 100.12 135.76 97.42 138.29 97.42H138.3ZM138.29 95.42C134.79 95.42 131.56 98.74 130.83 103.27C130.04 108.18 132.5 112.65 136.32 113.27C136.61 113.32 136.9 113.34 137.2 113.34C140.7 113.34 143.93 110.02 144.66 105.49C145.45 100.58 142.99 96.11 139.17 95.49C138.88 95.44 138.59 95.42 138.29 95.42Z" fill="#1B1B1B"/>
<path d="M122.34 29C120.22 28.69 118.11 28.38 116.01 28.06C116.13 25.77 116.9 23.39 118.22 21.24C120.07 21.54 121.93 21.85 123.8 22.16C122.79 24.39 122.28 26.74 122.33 29H122.34Z" fill="#FF2434"/>
<path d="M118.75 22.33C119.97 22.53 121.19 22.73 122.41 22.94C121.81 24.55 121.46 26.21 121.37 27.85C119.94 27.64 118.52 27.43 117.1 27.21C117.31 25.57 117.88 23.9 118.75 22.33ZM117.75 20.14C115.87 22.95 114.95 26.03 115.01 28.91C117.8 29.33 120.61 29.75 123.43 30.16C123.09 27.35 123.72 24.27 125.32 21.39C122.78 20.97 120.25 20.55 117.75 20.14Z" fill="#1B1B1B"/>
<path d="M96.65 119.93C95.79 119.28 95.05 118.6 94.41 117.88L93.87 117.28L93.17 117.68C92.17 118.25 91.3 118.79 90.55 119.32C90.61 117.59 91.67 115.76 92.79 113.86C94.28 111.31 95.92 108.48 95.08 105.58C97.2 105.88 99.29 106.19 101.34 106.49C101.72 108.48 100.47 110.61 99.17 112.85C97.89 115.04 96.49 117.45 96.67 119.93H96.65Z" fill="#FF2434"/>
<path d="M96.28 106.76C97.66 106.96 99.03 107.16 100.38 107.36C100.32 108.85 99.32 110.56 98.28 112.35C97.31 114.02 96.21 115.9 95.8 117.89C95.57 117.67 95.36 117.44 95.15 117.21L94.07 116L92.66 116.81C92.49 116.91 92.32 117.01 92.15 117.11C92.54 116.23 93.08 115.31 93.63 114.36C94.93 112.13 96.45 109.52 96.27 106.76H96.28ZM93.35 104.32C97.18 109.91 87.82 115.51 89.8 121.11C90.85 120.26 92.16 119.4 93.65 118.55C94.79 119.83 96.33 121.1 98.55 122.38C94.72 116.78 104.08 111.19 102.1 105.59C99.25 105.17 96.33 104.75 93.35 104.32Z" fill="#1B1B1B"/>
<path d="M106.24 40.41L129.47 43.78" stroke="#70450D" stroke-width="2" stroke-miterlimit="10"/>
<path d="M104.24 45.41L139.89 51" stroke="#70450D" stroke-width="2" stroke-miterlimit="10"/>
<path d="M101.24 49.41L136.89 55" stroke="#70450D" stroke-width="2" stroke-miterlimit="10"/>
<path d="M98.24 54.41L133.89 60" stroke="#70450D" stroke-width="2" stroke-miterlimit="10"/>
<path d="M90.24 65.41L123.89 71" stroke="#70450D" stroke-width="2" stroke-miterlimit="10"/>
<path d="M93.24 61.41L119.89 66" stroke="#70450D" stroke-width="2" stroke-miterlimit="10"/>
<path d="M88.24 72.41L114.89 77" stroke="#70450D" stroke-width="2" stroke-miterlimit="10"/>
<path d="M124.81 86.1916C123.308 85.6541 121.838 85.1324 120.384 84.595C120.178 84.516 120.083 84.2946 120.162 84.0891C120.747 82.6032 121.506 81.1173 122.423 79.6788C122.549 79.4733 122.802 79.3785 122.992 79.4417C124.32 79.9634 125.647 80.485 127.023 81.0067C127.212 81.0857 127.276 81.307 127.165 81.5125C126.39 82.9826 125.774 84.4843 125.316 85.9702C125.252 86.1757 125.031 86.2864 124.825 86.2074L124.81 86.1916Z" fill="#C6142A"/>
<path d="M119.182 78.0507C117.143 79.2204 115.199 80.4218 113.365 81.639C113.223 81.7338 113.223 81.9235 113.365 81.9867C115.373 82.7455 117.412 83.5201 119.514 84.2788C119.656 84.3263 119.814 84.1998 119.783 84.0417C119.388 82.05 119.277 80.0582 119.467 78.1455C119.467 78.0191 119.34 77.9558 119.198 78.0349L119.182 78.0507Z" fill="#C6142A"/>
<path d="M124.826 86.9346C120.747 85.5119 116.811 84.0734 113.033 82.6349C112.954 82.6033 112.844 82.6665 112.796 82.7614C112.053 84.3579 111.5 85.9861 111.136 87.5827C111.12 87.6775 111.168 87.7882 111.263 87.8198C112.796 88.3415 114.329 88.8631 115.894 89.3847C116.005 89.4164 116.1 89.3689 116.116 89.2741C116.179 88.8157 116.258 88.3731 116.369 87.9146C116.542 87.1401 117.349 86.7449 118.139 87.0136C118.929 87.2823 119.419 88.136 119.293 88.8947C119.214 89.3531 119.151 89.7957 119.119 90.2384C119.119 90.3332 119.198 90.4439 119.309 90.4913C120.905 90.9971 122.518 91.5188 124.146 92.0246C124.241 92.0562 124.336 92.0088 124.336 91.8982C124.367 90.3648 124.573 88.7682 124.968 87.1717C125 87.0768 124.936 86.9662 124.841 86.9346H124.826Z" fill="#C6142A"/>
</svg>
