<svg width="180" height="130" viewBox="0 0 180 130" fill="none" xmlns="http://www.w3.org/2000/svg">
<path d="M114 0H16C7.16344 0 0 7.16344 0 16V114C0 122.837 7.16344 130 16 130H114C122.837 130 130 122.837 130 114V16C130 7.16344 122.837 0 114 0Z" fill="#8FDFF3"/>
<path d="M114 2C121.72 2 128 8.28 128 16V114C128 121.72 121.72 128 114 128H16C8.28 128 2 121.72 2 114V16C2 8.28 8.28 2 16 2H114ZM114 0H16C7.16 0 0 7.16 0 16V114C0 122.84 7.16 130 16 130H114C122.84 130 130 122.84 130 114V16C130 7.16 122.84 0 114 0Z" fill="#1B1B1B"/>
<path d="M68.6001 30.2099C68.6301 30.0999 68.6301 29.9799 68.6001 29.8599C68.4801 29.3299 67.8301 28.7299 65.9701 28.2399C71.9901 28.2499 71.5201 31.9999 71.5201 31.9999C71.5201 31.9999 71.5201 32.0099 71.5101 32.0199C69.9901 34.2199 63.4101 33.4799 58.0401 31.9999L59.6401 29.4199C59.6401 29.4199 61.0301 32.3299 67.9601 31.1699C67.9601 31.1699 68.5201 30.7599 68.6001 30.2099Z" fill="#E2A049"/>
<path d="M71.5101 32.0199C71.4801 32.1799 71.1801 33.4499 70.7301 35.5199L70.0001 35.3499C66.1201 35.7099 60.8901 34.9999 50.6301 31.9999V28.4099C50.7701 29.4199 54.0801 30.9099 58.0401 31.9999C63.4101 33.4799 69.9901 34.2199 71.5101 32.0199Z" fill="#E2A049"/>
<path d="M70.0001 35.35L70.7301 35.52C68.5501 45.67 62.8801 75.2 67.3901 89.08C67.3901 89.08 66.7601 90.35 64.3301 91.68C59.9301 63.13 70.0001 35.35 70.0001 35.35Z" fill="#E2A049"/>
<path d="M50.6301 32C60.8901 35 66.1201 35.7099 70.0001 35.3499C70.0001 35.3499 59.9301 63.13 64.3301 91.68C64.4301 92.3699 64.5501 93.0499 64.6701 93.7399C64.6701 93.7399 53.8101 98.0799 46.3501 90.54C46.3501 90.54 55.2301 47.91 46.1001 29.9699L46.1301 29.95C46.3901 30.46 47.6401 31.12 50.6301 32Z" fill="#FCBC5E"/>
<path d="M68.6001 29.86C68.6301 29.98 68.6301 30.1 68.6001 30.21V29.86Z" fill="#FCBC5E"/>
<path d="M65.9701 28.2399C67.8301 28.7299 68.4801 29.3299 68.6001 29.8599V30.2099C68.5201 30.7599 67.9601 31.1699 67.9601 31.1699C61.0301 32.3299 59.6401 29.4199 59.6401 29.4199L58.0401 31.9999C54.0801 30.9099 50.7701 29.4199 50.6301 28.4099C50.5201 27.6899 51.9901 27.2199 55.8901 27.2799C60.9701 27.3599 64.0901 27.7499 65.9701 28.2399Z" fill="#FCBC5E"/>
<path d="M50.6301 28.4099V31.9999C47.6401 31.1199 46.3901 30.4599 46.1301 29.9499C45.4801 28.7099 50.6301 28.4099 50.6301 28.4099Z" fill="#FCBC5E"/>
<path fill-rule="evenodd" clip-rule="evenodd" d="M51.9977 28.523C52.7151 28.3541 53.9531 28.2503 55.8743 28.2798L51.9977 28.523ZM51.9977 28.523C52.3099 28.745 52.7563 28.999 53.3308 29.2713C54.444 29.7988 55.9306 30.3449 57.5879 30.8317L59.106 28.3838C58.1338 28.3342 57.0596 28.2985 55.8743 28.2798M60.2869 28.454L60.5321 28.9672C60.5349 28.9718 60.5393 28.9788 60.5454 28.988C60.5684 29.0225 60.6159 29.0881 60.6953 29.1728C60.8524 29.3405 61.1429 29.5927 61.634 29.8284C62.5838 30.2842 64.3624 30.7138 67.5038 30.2305C67.5872 30.1336 67.6076 30.0742 67.6102 30.0667C67.6104 30.0661 67.6102 30.0666 67.6102 30.0667C67.5819 30.0288 67.5171 29.9579 67.3771 29.8631C67.0967 29.6733 66.5889 29.4372 65.7166 29.2073C64.541 28.901 62.8061 28.6266 60.2869 28.454ZM67.9601 31.1699L68.5508 31.9768L68.3593 32.117L68.1252 32.1562C67.4551 32.2684 66.8302 32.3448 66.2473 32.3903C66.2505 32.3904 66.2536 32.3905 66.2567 32.3907C67.4625 32.4364 68.4958 32.3681 69.2886 32.1801C70.103 31.9869 70.5126 31.7044 70.6874 31.4515L72.3328 32.5884C71.7475 33.4355 70.7646 33.8855 69.75 34.1261C68.7137 34.3718 67.4814 34.4385 66.181 34.3892C63.5743 34.2904 60.5073 33.7172 57.7747 32.9641M60.8005 31.6467C60.7898 31.6416 60.7792 31.6366 60.7687 31.6315C60.3855 31.4476 60.0676 31.2479 59.8059 31.05L59.6055 31.3731C60.0015 31.4695 60.4007 31.561 60.8005 31.6467ZM57.7747 32.9641C55.7589 32.4092 53.8826 31.746 52.4744 31.0786C51.7742 30.7468 51.154 30.3974 50.6838 30.039C50.4486 29.8597 50.2249 29.6586 50.0454 29.4342C49.8717 29.2171 49.693 28.9204 49.6405 28.5543C49.5501 27.945 49.84 27.4494 50.2383 27.1356C50.5903 26.8584 51.0517 26.6921 51.525 26.5796C52.4916 26.3498 53.9359 26.2498 55.9055 26.2801C61.0142 26.3605 64.2276 26.7524 66.2223 27.2723L66.2248 27.2729C67.2118 27.5329 67.9587 27.8417 68.4981 28.2068C69.041 28.5743 69.4374 29.0453 69.573 29.6285C69.6335 29.8775 69.6417 30.1455 69.5806 30.4105C69.4886 30.9346 69.1992 31.3304 69.0023 31.5551C68.8919 31.6811 68.7864 31.7807 68.7073 31.8499C68.6673 31.8849 68.6328 31.9132 68.6062 31.9343C68.5929 31.9449 68.5814 31.9538 68.5721 31.9609L68.5598 31.9702L68.5549 31.9738L68.5527 31.9754L68.5518 31.9761C68.5515 31.9763 68.5508 31.9768 67.9601 31.1699" fill="#1B1B1B"/>
<path fill-rule="evenodd" clip-rule="evenodd" d="M65.9692 29.24H65.9401V27.24H65.9717C69.1929 27.2453 70.9517 28.2637 71.8309 29.5635C72.2522 30.1864 72.4234 30.8083 72.4895 31.2732C72.5226 31.5061 72.53 31.7039 72.5284 31.8495C72.5277 31.9226 72.5246 31.9832 72.5213 32.0295C72.5196 32.0527 72.5179 32.0723 72.5163 32.0882L72.5141 32.1092L72.5131 32.1175L72.5127 32.1211L72.5125 32.1228C72.5124 32.1236 72.5123 32.1244 71.5201 32C70.5278 31.8756 70.5277 31.8764 70.5276 31.8771L70.5275 31.8785L70.5271 31.8811L70.5267 31.8854L70.5261 31.8903C70.526 31.892 70.5263 31.8897 70.5267 31.8854C70.5273 31.8767 70.5282 31.8577 70.5286 31.8282C70.5292 31.7687 70.5263 31.6734 70.5094 31.5546C70.4755 31.3161 70.3879 30.9999 70.1743 30.684C69.7835 30.1063 68.7674 29.2448 65.9692 29.24Z" fill="#1B1B1B"/>
<path fill-rule="evenodd" clip-rule="evenodd" d="M51.6301 27.35V31.2491C61.393 34.0658 66.3155 34.6875 69.9077 34.3542L71.4775 34.2085L70.9403 35.6906L70.939 35.6941L70.9342 35.7075L70.914 35.7642C70.8959 35.8153 70.8687 35.8926 70.8333 35.9953C70.7623 36.2008 70.658 36.508 70.5264 36.9103C70.2631 37.715 69.8906 38.8999 69.4566 40.4125C68.5884 43.4381 67.475 47.7718 66.498 52.9926C64.5423 63.4436 63.1418 77.4041 65.3184 91.5276L65.3198 91.5365C65.4102 92.1607 65.5176 92.7775 65.6291 93.4181L65.7942 94.3676L65.0412 94.6685L64.6701 93.7399C65.0412 94.6685 65.0416 94.6683 65.0412 94.6685L65.0361 94.6705L65.0271 94.6741L64.9973 94.6856C64.9723 94.6953 64.9369 94.7086 64.8917 94.7253C64.8013 94.7586 64.6713 94.8049 64.5054 94.8603C64.1736 94.971 63.6969 95.1181 63.1035 95.2693C61.9188 95.5711 60.257 95.892 58.3466 95.9667C54.5281 96.1158 49.6323 95.2791 45.6392 91.2433L45.2616 90.8616L45.3711 90.336L46.3501 90.5399C45.3711 90.336 45.371 90.3362 45.3711 90.336L45.377 90.3073L45.3953 90.2177C45.4116 90.1381 45.4356 90.0189 45.4667 89.8622C45.5288 89.5489 45.6191 89.0856 45.7309 88.489C45.9545 87.2955 46.2643 85.5686 46.6077 83.4394C47.2947 79.1799 48.1156 73.3168 48.6523 66.8991C49.1893 60.478 49.4399 53.5221 48.9932 47.0715C48.5453 40.6024 47.4013 34.7316 45.2088 30.4235L45.2056 30.4171L45.1756 30.3571L45.2083 30.3408C45.0061 29.9012 45.0303 29.415 45.2868 29.001C45.5067 28.6461 45.845 28.4297 46.0995 28.298C46.6271 28.025 47.3309 27.8505 47.949 27.7326C48.5922 27.61 49.2476 27.5302 49.7355 27.4812C49.9812 27.4565 50.1879 27.4393 50.3341 27.4281C50.4073 27.4226 50.4655 27.4185 50.506 27.4158L50.5532 27.4128L50.5662 27.412L50.5712 27.4117C50.5714 27.4116 50.5719 27.4116 50.6301 28.4099L50.5712 27.4117L51.6301 27.35ZM49.6301 29.5039C49.2302 29.5493 48.7681 29.6125 48.3236 29.6972C48.0644 29.7467 47.8297 29.8001 47.6264 29.8558C47.6753 29.8803 47.7274 29.9055 47.7826 29.9316C48.224 30.1396 48.8276 30.3758 49.6301 30.6416V29.5039ZM48.1896 32.2581C48.7949 32.4798 49.5104 32.7128 50.3477 32.9592L50.3494 32.9597C59.4076 35.6083 64.6654 36.5125 68.5792 36.4305C68.3126 37.2506 67.9508 38.4089 67.5342 39.8608C66.6517 42.9362 65.5226 47.3318 64.5321 52.6247C62.5531 63.2002 61.1187 77.4028 63.3411 91.8278C63.4017 92.2458 63.4694 92.6598 63.5393 93.07C63.2848 93.1487 62.9722 93.2388 62.6098 93.3312C61.525 93.6075 60.0057 93.9003 58.2685 93.9682C54.917 94.0991 50.8334 93.3944 47.4378 90.204C47.5008 89.8857 47.589 89.4321 47.6967 88.8573C47.923 87.6493 48.2357 85.9057 48.5822 83.7579C49.2748 79.4637 50.1033 73.548 50.6453 67.0658C51.1871 60.5869 51.4446 53.5215 50.9885 46.9333C50.6179 41.5813 49.7728 36.4842 48.1896 32.2581Z" fill="#1B1B1B"/>
<path fill-rule="evenodd" clip-rule="evenodd" d="M71.4901 32C71.5 32 71.51 32 71.5201 32C72.5201 31.9994 72.5201 31.9999 72.5201 32.0004L72.5201 32.0033L72.52 32.0073L72.5199 32.0153L72.5196 32.0318C72.5192 32.043 72.5186 32.0545 72.5179 32.0664C72.5163 32.0902 72.5137 32.1157 72.5099 32.1427C72.5024 32.1953 72.4898 32.2548 72.4688 32.3184C72.4438 32.4324 72.4019 32.6171 72.3456 32.8653C72.2073 33.4749 71.9823 34.4669 71.7075 35.7311C70.6208 40.791 68.6663 50.6725 67.5455 61.009C66.4187 71.4004 66.1594 82.0566 68.3411 88.771L68.4672 89.1589L68.2859 89.5244L67.3901 89.08C68.2859 89.5244 68.2856 89.5249 68.2854 89.5254L68.2849 89.5264L68.2838 89.5285L68.2815 89.5331L68.2761 89.5437L68.2619 89.5704C68.2511 89.5905 68.2372 89.6153 68.22 89.6445C68.1857 89.7028 68.1382 89.7786 68.0753 89.8693C67.9493 90.0508 67.762 90.2913 67.495 90.5713C66.9602 91.1323 66.1122 91.8445 64.8102 92.5572L63.8499 90.8028C64.9779 90.1854 65.66 89.5977 66.0476 89.1912C66.1466 89.0873 66.2269 88.9947 66.2908 88.916C64.125 81.743 64.4559 70.9487 65.5571 60.7934C66.6887 50.3583 68.659 40.4005 69.7524 35.31L69.7529 35.3075C69.9787 34.2689 70.1668 33.4309 70.3022 32.8329L70.4635 32.1224C70.4831 32.0357 70.4986 31.967 70.51 31.9156L70.5232 31.8549C70.5262 31.8408 70.5273 31.8352 70.5273 31.8352L70.5842 31.5316L70.803 31.3129C70.6857 31.4301 70.612 31.5642 70.57 31.6903C70.5527 31.7423 70.5412 31.7917 70.5336 31.8369C70.5322 31.845 70.531 31.8529 70.5299 31.8607C70.5262 31.8866 70.5238 31.9112 70.5222 31.9344C70.5214 31.946 70.5209 31.9574 70.5206 31.9684L70.5202 31.9847L70.5201 31.9927L70.5201 31.9966L70.5201 31.9986C70.5201 31.999 70.5201 32.0005 71.4037 32C71.4316 32 71.4604 32 71.4901 32Z" fill="#1B1B1B"/>
<path fill-rule="evenodd" clip-rule="evenodd" d="M67.6001 29.86H69.6001V32.75H67.6001V29.86Z" fill="#1B1B1B"/>
<path d="M50.6101 55.45C50.6101 55.45 58.1101 62.17 67.0001 57.09L66.4501 61.84C66.4501 61.84 59.2601 67.75 50.0701 60.38L50.6101 55.4599V55.45Z" fill="#8AD953"/>
<path fill-rule="evenodd" clip-rule="evenodd" d="M49.6101 55.4053V53.2113L51.2759 54.7039C51.2761 54.7041 51.2768 54.7047 51.2772 54.705L51.2876 54.7141C51.298 54.7232 51.3155 54.7382 51.3398 54.7586C51.3883 54.7994 51.464 54.8616 51.5654 54.9409C51.7684 55.0995 52.0733 55.3255 52.4682 55.5837C53.2598 56.1014 54.4023 56.7414 55.8016 57.2311C58.5844 58.2049 62.3684 58.5849 66.5039 56.2217L68.2209 55.2406L67.397 62.3561L67.0851 62.6125L66.4501 61.84C67.0851 62.6125 67.0846 62.6129 67.084 62.6133L67.0829 62.6143L67.08 62.6167L67.0722 62.623L67.0487 62.6417C67.0294 62.6569 67.0031 62.6773 66.9699 62.7024C66.9036 62.7526 66.8095 62.8214 66.6889 62.9041C66.448 63.0694 66.1003 63.2909 65.656 63.5294C64.7688 64.0056 63.486 64.5554 61.8918 64.8564C58.6646 65.4657 54.272 65.0316 49.4444 61.1601L49.0161 60.8166L49.6101 55.4053ZM51.4158 57.2851L51.1249 59.9352C55.3071 63.117 58.9433 63.3777 61.5208 62.8911C62.8729 62.6358 63.962 62.1688 64.7101 61.7672C65.0516 61.5839 65.3199 61.4154 65.5072 61.2891L65.7946 58.8069C61.6968 60.5593 57.9465 60.1006 55.141 59.1189C53.579 58.5722 52.3064 57.8637 51.4158 57.2851Z" fill="#1B1B1B"/>
<path d="M55.89 107C55.89 107 56.66 110.79 50.28 111.89C44.13 103.54 40.54 94.45 38.48 86.09C43.16 84.92 46.06 82 46.06 82L45.67 78.85H45.71C47.05 89.19 49.96 99.89 55.89 107Z" fill="#FCBC5E"/>
<path d="M50.28 111.89C50.79 112.6 51.33 113.3 51.89 114C51.89 114 41.99 118 32.44 114C32.44 114 32.04 100.34 28.24 85.26C32.15 86.87 35.64 86.8 38.48 86.09C40.54 94.45 44.13 103.54 50.28 111.89Z" fill="#FCBC5E"/>
<path d="M45.67 78.85L46.06 82C46.06 82 43.16 84.92 38.48 86.09C38.1 84.56 37.77 83.05 37.5 81.58C40.15 80.93 42.93 79.42 45.36 76.39L45.67 78.85Z" fill="#1379C4"/>
<path d="M42.22 49.94C43.58 49.19 44.64 48.51 45.25 48.04C45.25 48.04 43.66 63.02 45.71 78.84H45.67L45.36 76.39C42.93 79.42 40.15 80.93 37.5 81.58C34.76 67.31 36.24 56.13 36.24 56.13C29.56 57.93 24.73 58.03 21.84 57.78L19.43 52.78C20.09 53.21 21.18 53.62 22.89 54C23.36 54.1 23.83 54.19 24.31 54.24C30.86 55.11 38.02 52.23 42.22 49.94Z" fill="#FCBC5E"/>
<path d="M42.35 46.19C42.35 46.19 47.89 46 45.25 48.04C44.64 48.51 43.58 49.19 42.22 49.94L42.35 46.19Z" fill="#DD912C"/>
<path d="M42.35 46.19L42.22 49.94C38.02 52.23 30.86 55.11 24.31 54.24L21.84 49.04L22.11 48.68C22.41 49.1 22.98 49.54 23.89 50C26.65 51.38 30.39 51.28 33.77 50.54C38.31 49.54 42.21 47.4 42.21 46.17L42.35 46.19Z" fill="#FCBC5E"/>
<path d="M34.01 45.2C35 45.2701 34.97 45.1 40 45.27C41.55 45.32 42.21 45.67 42.21 46.17C42.21 47.4 38.31 49.54 33.77 50.54C32.98 49.74 33.2 47.08 33.5 45.15L34.01 45.2Z" fill="#E8972D"/>
<path d="M37.5 81.58C37.77 83.05 38.1 84.56 38.48 86.09C35.64 86.8 32.15 86.87 28.24 85.26C27.85 83.71 27.42 82.14 26.96 80.57V80.54C26.96 80.54 31.94 82.95 37.5 81.58Z" fill="#1379C4"/>
<path d="M36.24 56.1301C36.24 56.1301 34.76 67.3101 37.5 81.5801C31.94 82.9501 26.95 80.5401 26.95 80.5401C24.18 71.2701 20.05 61.9501 13.86 55.3101C14.7 55.9601 16.2 56.6101 18.6 57.2401C18.6 57.2401 19.69 57.6101 21.84 57.7801C24.73 58.0301 29.56 57.9301 36.24 56.1301Z" fill="#FCBC5E"/>
<path d="M33.89 43C33.89 43 33.68 43.93 33.5 45.15C33.2 47.08 32.98 49.74 33.77 50.54C30.39 51.28 26.65 51.38 23.89 50C22.98 49.54 22.41 49.1 22.11 48.68C19.75 45.36 33.89 43 33.89 43Z" fill="#FCBC5E"/>
<path d="M28.24 85.2601L26.96 80.5701C27.42 82.1401 27.85 83.7101 28.24 85.2601Z" fill="#1379C4"/>
<path d="M21.84 49.04L24.31 54.24C23.83 54.19 23.36 54.1 22.89 54C21.18 53.62 20.09 53.21 19.43 52.78L18.69 51.26C19.11 50.18 21.25 49.27 21.74 49.07C21.81 49.05 21.84 49.04 21.84 49.04Z" fill="#DD912C"/>
<path d="M18.69 51.2601C18.48 51.7501 18.63 52.2701 19.43 52.7801L21.84 57.7801C19.69 57.6101 18.6 57.2401 18.6 57.2401C16.2 56.6101 14.7 55.9601 13.86 55.3101C13.65 55.0801 13.43 54.8601 13.21 54.6401C11.46 51.8601 20.68 49.3501 21.74 49.0701C21.25 49.2701 19.11 50.1801 18.69 51.2601Z" fill="#E8972D"/>
<path fill-rule="evenodd" clip-rule="evenodd" d="M46.7661 47.8447C46.5674 48.218 46.2362 48.5417 45.8614 48.8313L45.8603 48.8321C45.1937 49.3458 44.0847 50.0537 42.7029 50.8157L42.6987 50.818C38.4497 53.1347 31.0616 56.1402 24.1921 55.2331C23.664 55.1773 23.1578 55.0794 22.6819 54.9781L22.6731 54.9762C20.9311 54.5891 19.701 54.1488 18.8883 53.6206C18.3983 53.3075 17.9844 52.916 17.7647 52.4124C17.5306 51.8759 17.572 51.3399 17.7642 50.8817C17.9512 50.4115 18.2879 50.0328 18.6063 49.7466C18.9384 49.4481 19.3194 49.1895 19.676 48.9765C20.3895 48.5503 21.1017 48.2504 21.3621 48.1441L22.1179 49.9958C21.8883 50.0895 21.2855 50.3447 20.7015 50.6935C20.4094 50.868 20.146 51.0519 19.9434 51.234C19.7307 51.4252 19.6463 51.56 19.622 51.6224L19.6158 51.6383L19.615 51.6403C19.6486 51.6874 19.7406 51.7921 19.9676 51.9368L19.9759 51.9421C20.4828 52.2723 21.4302 52.6509 23.1025 53.0228C23.5606 53.1202 23.9883 53.2011 24.4136 53.2454L24.4277 53.2468L24.4417 53.2487C30.6673 54.0756 37.591 51.3246 41.7393 49.0631C43.0022 48.3666 43.9734 47.7466 44.5433 47.3209C44.1063 47.2402 43.5853 47.2047 43.145 47.1917C42.9209 47.1852 42.7276 47.1846 42.5912 47.1858C42.5231 47.1863 42.4696 47.1873 42.4339 47.1881L42.3944 47.1891L42.3855 47.1894L42.384 47.1894C42.3841 47.1894 42.3843 47.1894 42.35 46.19C42.3157 45.1906 42.3159 45.1906 42.3161 45.1906L42.3181 45.1905L42.3225 45.1904L42.3372 45.1899L42.3892 45.1886C42.4334 45.1876 42.4963 45.1865 42.5746 45.1858C42.7308 45.1845 42.9498 45.1851 43.2038 45.1926C43.7015 45.2072 44.3754 45.2493 44.983 45.3688C45.285 45.4282 45.6111 45.5143 45.9045 45.6469C46.176 45.7697 46.5586 45.9937 46.7866 46.408C47.0582 46.9012 46.9891 47.4258 46.7661 47.8447Z" fill="#1B1B1B"/>
<path fill-rule="evenodd" clip-rule="evenodd" d="M33.89 43C33.7254 42.0137 33.7252 42.0137 33.725 42.0137L33.7131 42.0157L33.6808 42.0212C33.6527 42.026 33.6117 42.0331 33.5587 42.0424C33.4527 42.061 33.2988 42.0886 33.1043 42.1248C32.7155 42.197 32.164 42.3038 31.5102 42.4424C30.2059 42.7188 28.4794 43.1248 26.8187 43.6399C25.1843 44.1469 23.513 44.7892 22.3857 45.5698C21.8296 45.9549 21.2867 46.4534 21.0168 47.0951C20.7102 47.824 20.8173 48.5875 21.295 49.2594L21.2963 49.2613C21.7361 49.877 22.477 50.4063 23.4389 50.8925L23.4428 50.8944C26.5081 52.4271 30.5236 52.2745 33.9839 51.5169L33.9851 51.5166C36.334 50.9992 38.5298 50.1853 40.1591 49.3257C40.97 48.8979 41.6761 48.4403 42.1952 47.9775C42.4546 47.7463 42.693 47.4911 42.8727 47.2139C43.0487 46.9423 43.21 46.5849 43.21 46.17C43.21 45.4407 42.7505 44.9178 42.1812 44.6262C41.6508 44.3545 40.9467 44.2276 40.1111 44.2006C37.5941 44.1155 36.3648 44.1143 35.7563 44.137C35.4725 44.1475 35.2567 44.1647 35.0956 44.2024C35.0913 44.2034 35.0868 44.2045 35.0821 44.2057C34.94 44.2101 34.8008 44.2147 34.6668 44.2193C34.6942 44.0685 34.7203 43.9307 34.7441 43.8087C34.7804 43.6221 34.8112 43.4731 34.8327 43.3716C34.8434 43.3208 34.8518 43.282 34.8575 43.2564L34.8637 43.228L34.8654 43.2203L35.1932 41.7687L33.725 42.0137L33.89 43ZM32.5113 45.0003C32.5503 44.7359 32.5907 44.485 32.6301 44.2535C32.4133 44.2969 32.1769 44.3455 31.9248 44.3989C30.6516 44.6687 28.9907 45.0602 27.4113 45.5501C25.8057 46.0482 24.3846 46.6183 23.5243 47.214C23.0867 47.517 22.9121 47.7476 22.8604 47.8705C22.8592 47.8733 22.8579 47.8761 22.8566 47.879C22.8412 47.9126 22.8217 47.9549 22.9244 48.0997C23.0849 48.3238 23.4835 48.6738 24.3391 49.1065C26.4994 50.1859 29.4411 50.2785 32.3643 49.7928C32.2664 49.3205 32.2295 48.7961 32.2263 48.275C32.2196 47.1929 32.358 45.9871 32.5113 45.0003ZM34.3216 49.3819C34.2613 49.0885 34.229 48.7097 34.2262 48.2626C34.2223 47.6273 34.2777 46.9179 34.36 46.2315C34.6456 46.221 34.9735 46.2097 35.3113 46.1996L37.5321 46.1329C38.1664 46.1432 38.9862 46.1637 40.0444 46.1995L40.0459 46.1995C40.5137 46.2146 40.8302 46.2661 41.0344 46.3212C40.9876 46.3703 40.9313 46.4249 40.8642 46.4847C40.5102 46.8003 39.9575 47.1709 39.2259 47.5568C37.9417 48.2343 36.215 48.9025 34.3216 49.3819Z" fill="#1B1B1B"/>
<path fill-rule="evenodd" clip-rule="evenodd" d="M22.3635 47.8114L25.2133 53.8109L23.4067 54.669L21.2981 50.2297C20.2796 50.5225 18.4534 51.0912 16.8356 51.8276C15.7503 52.3216 14.8639 52.8453 14.3602 53.3457C14.112 53.5922 14.0236 53.7682 13.9988 53.8643C13.9845 53.9194 13.9767 53.9808 14.0563 54.1072L14.0603 54.1136L14.0642 54.12C14.1191 54.2102 14.2267 54.3388 14.4514 54.5036L14.4618 54.5112L14.472 54.5191C15.1465 55.0411 16.4838 55.6506 18.8539 56.2727L18.888 56.2817L18.9187 56.2921C18.9191 56.2922 18.9197 56.2924 18.9205 56.2927L18.9448 56.3003C18.9694 56.3079 19.0109 56.3202 19.0691 56.3362C19.1856 56.3683 19.3691 56.415 19.6194 56.4676C20.1199 56.5728 20.8875 56.7015 21.9188 56.7831L21.9262 56.7837C24.6968 57.0233 29.4096 56.9348 35.9798 55.1644L37.4282 54.7741M35.1001 57.4553C29.0292 58.9383 24.5562 59.0183 21.7574 58.7765C20.6405 58.6881 19.7895 58.547 19.2081 58.4248C18.9171 58.3637 18.6938 58.3073 18.5387 58.2646C18.4612 58.2433 18.4007 58.2254 18.3573 58.2121C18.3422 58.2074 18.3292 58.2034 18.3183 58.1999C15.9117 57.5662 14.2608 56.8806 13.2582 56.1087C12.8897 55.8369 12.5824 55.5299 12.3597 55.1663C12.0051 54.5995 11.9039 53.9767 12.0625 53.3636C12.211 52.7892 12.5641 52.3108 12.9507 51.9267C13.7167 51.1658 14.8735 50.5233 16.007 50.0073C18.2933 48.9666 20.9142 48.254 21.4744 48.1058C21.4982 48.099 21.5138 48.0943 21.5222 48.0917L21.5283 48.0898L22.3635 47.8114M35.1001 57.4553C35.0852 57.6303 35.0698 57.8203 35.0544 58.0245C34.9569 59.3161 34.8564 61.1828 34.8425 63.4977C34.8147 68.1257 35.1329 74.5554 36.5179 81.7685L38.4821 81.3914C37.1271 74.3345 36.8153 68.0392 36.8425 63.5097C36.8561 61.2459 36.9543 59.4257 37.0487 58.1751C37.0959 57.5498 37.1421 57.0672 37.1763 56.7429C37.1933 56.5808 37.2074 56.4583 37.217 56.3773C37.2219 56.3368 37.2256 56.3068 37.228 56.2873L37.2307 56.2662L37.2313 56.2617" fill="#1B1B1B"/>
<path fill-rule="evenodd" clip-rule="evenodd" d="M30.7708 105.393C30.1991 100.123 29.1557 92.9865 27.2703 85.5043L29.2097 85.0156C31.1243 92.6135 32.1809 99.8467 32.7592 105.177C33.0485 107.844 33.2184 110.037 33.3161 111.566C33.364 112.315 33.3945 112.905 33.4132 113.313C37.7793 114.985 42.2003 114.974 45.6112 114.509C47.3882 114.267 48.8755 113.904 49.9153 113.602C50.027 113.57 50.1335 113.538 50.2345 113.507C49.9747 113.167 49.7198 112.824 49.4713 112.478C43.2282 104 39.5923 94.7835 37.5091 86.3292L39.451 85.8507C41.4873 94.1148 45.0305 103.076 51.0852 111.297L51.0923 111.307C51.5891 111.998 52.1178 112.684 52.6709 113.375L53.5099 114.424L52.2646 114.927L51.89 114C52.2646 114.927 52.265 114.927 52.2646 114.927L52.2629 114.928L52.2603 114.929L52.2524 114.932L52.2258 114.943C52.213 114.948 52.1971 114.954 52.1783 114.961C52.164 114.966 52.1481 114.973 52.1304 114.979C52.0484 115.01 51.9298 115.054 51.7772 115.108C51.472 115.215 51.0304 115.361 50.4725 115.523C49.3576 115.846 47.7731 116.233 45.8813 116.491C42.1076 117.005 37.0493 117.015 32.0537 114.922L31.4593 114.673L31.4404 114.029L31.4402 114.021L31.4393 113.993L31.4353 113.88C31.4315 113.779 31.4255 113.628 31.4164 113.429C31.3983 113.032 31.3682 112.445 31.3202 111.694C31.2241 110.19 31.0566 108.026 30.7708 105.393Z" fill="#1B1B1B"/>
<path fill-rule="evenodd" clip-rule="evenodd" d="M12.4574 55.2985C12.4129 55.2476 12.3664 55.2006 12.2829 55.1171L13.6971 53.7029C13.6997 53.7055 13.7024 53.7081 13.705 53.7108C13.7735 53.7793 13.8549 53.8606 13.9387 53.9545C14.1489 54.1647 14.3757 54.3919 14.5949 54.6318C20.9354 61.4351 25.1201 70.9233 27.9081 80.2537L25.9919 80.8263C23.2404 71.6184 19.1661 62.4684 13.1285 55.9919L13.1215 55.9843L13.1215 55.9843C12.9294 55.7738 12.7256 55.5698 12.5029 55.3471L12.4794 55.3235L12.4574 55.2985Z" fill="#1B1B1B"/>
<path fill-rule="evenodd" clip-rule="evenodd" d="M44.2555 47.9348C44.2556 47.9346 44.2556 47.9344 45.25 48.04L46.2444 48.1455L46.2435 48.1545L46.2403 48.1851C46.2375 48.2126 46.2333 48.2543 46.2279 48.3097C46.217 48.4206 46.2012 48.5864 46.1817 48.8038C46.1427 49.2385 46.0891 49.8793 46.0311 50.6985C45.915 52.337 45.7811 54.6884 45.7109 57.5321C45.5705 63.2235 45.6854 70.8688 46.7017 78.7115C48.0351 89.0106 50.9154 99.4743 56.658 106.359L56.8197 106.553L56.87 106.801L55.89 107C56.87 106.801 56.8701 106.802 56.8703 106.803L56.8707 106.804L56.8714 106.808L56.8731 106.817L56.877 106.838C56.878 106.844 56.879 106.85 56.88 106.856C56.8821 106.868 56.8843 106.883 56.8866 106.899C56.8936 106.946 56.9012 107.009 56.9073 107.084C56.9196 107.234 56.9259 107.439 56.9079 107.683C56.8718 108.172 56.7372 108.827 56.3509 109.519C55.5566 110.944 53.8403 112.291 50.4499 112.875L50.1101 110.905C53.0997 110.389 54.1884 109.291 54.6041 108.545C54.8228 108.153 54.8944 107.792 54.9133 107.536C54.9172 107.484 54.9188 107.436 54.9191 107.394C48.9393 100.062 46.0499 89.2535 44.7183 78.9685C43.6846 70.9911 43.5695 63.2365 43.7116 57.4828C43.7826 54.604 43.9181 52.2217 44.0361 50.5571C44.0951 49.7247 44.1497 49.0716 44.1897 48.6253C44.2097 48.4021 44.226 48.2307 44.2374 48.1144C44.2431 48.0563 44.2476 48.0119 44.2507 47.9818L44.2542 47.9473L44.2555 47.9348Z" fill="#1B1B1B"/>
<path fill-rule="evenodd" clip-rule="evenodd" d="M20.9593 58.2537L18.1194 52.9736L19.8808 52.0262L22.7207 57.3063L20.9593 58.2537Z" fill="#1B1B1B"/>
<path fill-rule="evenodd" clip-rule="evenodd" d="M41.2206 49.9054L41.3506 46.1554L43.3494 46.2247L43.2195 49.9713L43.2096 50.3278L41.2104 50.2723L41.2206 49.9054Z" fill="#1B1B1B"/>
<path fill-rule="evenodd" clip-rule="evenodd" d="M46.057 73.9226L46.6624 78.7272L47.1122 82.3597L46.7696 82.7047L46.06 82C46.7696 82.7047 46.7698 82.7045 46.7696 82.7047L46.7673 82.7069L46.7641 82.7102L46.7543 82.7199L46.7219 82.7515C46.6947 82.7779 46.6562 82.8146 46.6068 82.8606C46.5078 82.9524 46.3648 83.0813 46.1799 83.2378C45.8102 83.5507 45.2714 83.9757 44.581 84.4375C43.2031 85.3592 41.2026 86.4402 38.7226 87.0602C35.6998 87.8159 31.989 87.8852 27.8593 86.1847L27.4047 85.9976L26.0151 80.906L25.5404 79.2812L27.4597 78.7189L27.7791 79.8091C27.8868 79.8526 28.0151 79.9026 28.1625 79.957C28.6827 80.1487 29.4366 80.3933 30.3568 80.5976C32.2041 81.0077 34.677 81.2457 37.2608 80.6091L37.2618 80.6088C39.706 80.0093 42.2926 78.6165 44.5799 75.7644L46.057 73.9226ZM28.4295 82.1562C28.8664 82.2902 29.3681 82.4268 29.9233 82.55C31.9608 83.0024 34.7628 83.2843 37.7388 82.5511C40.0539 81.9832 42.4462 80.8062 44.6397 78.6719L44.6776 78.9729L44.6779 78.9751L45.0043 81.6114C44.9681 81.6428 44.9293 81.6761 44.8877 81.7113C44.5673 81.9825 44.0886 82.3607 43.469 82.7751C42.227 83.6059 40.4374 84.5699 38.2375 85.1199C35.6894 85.7569 32.5785 85.8481 29.0731 84.5145L28.4295 82.1562ZM45.3516 81.2942C45.3518 81.2941 45.3518 81.294 45.3516 81.2942V81.2942Z" fill="#1B1B1B"/>
<path d="M93.0501 32.27C92.5701 32.27 92.0901 32.23 91.6101 32.15C86.7101 31.36 83.3601 26.74 84.1501 21.84C84.8501 17.45 88.5901 14.26 93.0201 14.26C93.5001 14.26 93.9801 14.3 94.4601 14.38C96.8301 14.76 98.9201 16.04 100.33 17.99C101.74 19.94 102.31 22.32 101.92 24.69C101.22 29.08 97.4801 32.27 93.0501 32.27Z" fill="#E28C03"/>
<path d="M93.03 15.26C93.46 15.26 93.89 15.29 94.31 15.36C96.42 15.7 98.27 16.84 99.52 18.57C100.77 20.3 101.28 22.42 100.94 24.53C100.31 28.43 97 31.26 93.05 31.26C92.62 31.26 92.19 31.23 91.77 31.16C87.41 30.46 84.44 26.35 85.14 21.99C85.77 18.09 89.08 15.26 93.03 15.26ZM93.03 13.26C88.21 13.26 83.96 16.76 83.17 21.68C82.3 27.13 86.01 32.26 91.46 33.14C92 33.23 92.53 33.27 93.06 33.27C97.88 33.27 102.13 29.77 102.92 24.85C103.79 19.4 100.08 14.27 94.63 13.39C94.09 13.3 93.56 13.26 93.03 13.26Z" fill="#1B1B1B"/>
<path d="M94.44 30.33C92.73 30.05 91.22 29.13 90.2 27.72C89.18 26.31 88.77 24.6 89.05 22.88C89.56 19.71 92.25 17.41 95.46 17.41C95.8 17.41 96.15 17.44 96.5 17.49L159.2 27.55L157.14 40.39L94.44 30.33Z" fill="#C97A09"/>
<path d="M95.46 18.41C95.75 18.41 96.05 18.43 96.34 18.48L158.05 28.38L156.31 39.24L94.6 29.34C91.61 28.86 89.56 26.03 90.04 23.04C90.47 20.36 92.75 18.41 95.46 18.41ZM95.46 16.41C91.84 16.41 88.66 19.04 88.06 22.72C87.4 26.81 90.19 30.66 94.28 31.31L157.97 41.53L160.35 26.72L96.6601 16.5C96.2601 16.44 95.86 16.4 95.46 16.4V16.41Z" fill="#1B1B1B"/>
<path d="M98.3501 31.21C94.8101 30.64 92.3901 27.3 92.9601 23.76C93.4701 20.59 96.1601 18.29 99.3701 18.29C99.7201 18.29 100.06 18.32 100.41 18.37L158.17 27.64L156.11 40.48L98.3501 31.21Z" fill="#FCBC5E"/>
<path d="M99.3701 19.29C99.6601 19.29 99.96 19.31 100.25 19.36L157.02 28.47L155.28 39.33L98.5101 30.22C95.5201 29.74 93.47 26.91 93.95 23.92C94.38 21.24 96.6601 19.29 99.3701 19.29ZM99.3701 17.29C95.7501 17.29 92.57 19.92 91.97 23.6C91.31 27.69 94.1001 31.54 98.1901 32.19L156.94 41.62L159.32 26.81L100.57 17.38C100.17 17.32 99.7701 17.28 99.3701 17.28V17.29Z" fill="#1B1B1B"/>
<path d="M132.62 97.5801C110.39 94.6201 87.43 91.5601 76.45 88.5601C77.75 78.3801 81.36 69.0401 87.47 60.0401C88.51 58.2901 89.65 56.5501 90.74 54.8701C95.81 47.0901 101.04 39.0701 96.95 30.9301L99 31.2001C121.23 34.1601 144.19 37.2201 155.17 40.2201C153.87 50.4001 150.26 59.7401 144.15 68.7501C143.11 70.5001 141.97 72.2401 140.88 73.9201C135.81 81.7001 130.58 89.7201 134.67 97.8601L132.62 97.59V97.5801Z" fill="#FCBC5E"/>
<path d="M98.56 32.15L98.85 32.19C120.5 35.07 142.85 38.05 154.06 40.96C152.69 50.64 149.17 59.56 143.32 68.18L143.29 68.23L143.26 68.28C142.26 69.96 141.13 71.69 140.04 73.37C135.37 80.54 130.15 88.53 133.06 96.64L132.77 96.6C111.12 93.72 88.77 90.74 77.56 87.83C78.93 78.15 82.45 69.23 88.3 60.61L88.33 60.56L88.36 60.51C89.36 58.83 90.49 57.1 91.58 55.42C96.25 48.25 101.47 40.26 98.56 32.15ZM95.05 29.66C101.79 39.6 92.55 49.54 86.64 59.48C79.89 69.42 76.49 79.36 75.35 89.3C86.66 92.57 112.02 95.85 136.57 99.12C129.83 89.18 139.07 79.24 144.98 69.3C151.73 59.36 155.13 49.42 156.27 39.48C144.96 36.21 119.6 32.93 95.05 29.66Z" fill="#1B1B1B"/>
<path d="M159.16 43.13C158.68 43.13 158.2 43.09 157.72 43.01C155.35 42.63 153.26 41.35 151.85 39.4C150.44 37.45 149.87 35.07 150.26 32.7C150.96 28.31 154.7 25.12 159.14 25.12C159.62 25.12 160.1 25.16 160.58 25.24C165.48 26.03 168.83 30.65 168.04 35.55C167.34 39.94 163.6 43.13 159.17 43.13H159.16Z" fill="#E28C03"/>
<path d="M159.14 26.12C159.56 26.12 160 26.15 160.42 26.22C164.78 26.92 167.75 31.03 167.05 35.39C166.42 39.29 163.11 42.12 159.16 42.12C158.73 42.12 158.3 42.09 157.88 42.02C153.52 41.32 150.55 37.21 151.25 32.85C151.88 28.95 155.19 26.12 159.14 26.12ZM159.14 24.12C154.32 24.12 150.07 27.62 149.28 32.54C148.41 37.99 152.12 43.12 157.57 44C158.11 44.09 158.64 44.13 159.17 44.13C163.99 44.13 168.24 40.63 169.03 35.71C169.9 30.26 166.19 25.13 160.74 24.25C160.2 24.16 159.67 24.12 159.14 24.12Z" fill="#1B1B1B"/>
<path d="M161.6 42.31C161.36 42.31 161.12 42.29 160.88 42.25C159.35 42 158.01 40.98 157.13 39.37C156.2 37.68 155.88 35.56 156.22 33.4C156.86 29.41 159.64 26.39 162.69 26.39C162.93 26.39 163.17 26.41 163.41 26.45C166.68 26.97 168.77 30.94 168.07 35.3C167.43 39.29 164.65 42.31 161.59 42.31H161.6Z" fill="#B76646"/>
<path d="M162.7 27.4C162.89 27.4 163.07 27.42 163.26 27.44C165.94 27.87 167.69 31.4 167.09 35.14C166.54 38.6 164.13 41.3 161.6 41.3C161.41 41.3 161.23 41.28 161.04 41.26C158.36 40.83 156.61 37.3 157.21 33.56C157.76 30.1 160.17 27.4 162.7 27.4ZM162.7 25.4C159.2 25.4 155.97 28.72 155.24 33.25C154.45 38.16 156.91 42.63 160.73 43.25C161.02 43.3 161.32 43.32 161.61 43.32C165.11 43.32 168.34 40 169.07 35.47C169.86 30.56 167.4 26.09 163.58 25.47C163.29 25.42 163 25.4 162.7 25.4Z" fill="#1B1B1B"/>
<path d="M68.65 102.29C68.17 102.29 67.69 102.25 67.21 102.17C64.84 101.79 62.75 100.51 61.34 98.56C59.93 96.61 59.36 94.23 59.75 91.86C60.45 87.47 64.19 84.28 68.62 84.28C69.1 84.28 69.58 84.32 70.06 84.4C74.96 85.19 78.31 89.81 77.52 94.71C76.82 99.1 73.08 102.29 68.65 102.29Z" fill="#E28C03"/>
<path d="M68.63 85.28C69.05 85.28 69.4901 85.31 69.9101 85.38C72.0201 85.72 73.8701 86.86 75.1201 88.59C76.3701 90.32 76.88 92.44 76.54 94.55C75.91 98.45 72.6 101.28 68.6501 101.28C68.22 101.28 67.7901 101.25 67.3701 101.18C63.0101 100.48 60.0401 96.37 60.7401 92.01C61.37 88.11 64.68 85.28 68.63 85.28ZM68.63 83.28C63.81 83.28 59.56 86.78 58.77 91.7C57.9 97.15 61.61 102.28 67.06 103.16C67.6 103.25 68.1301 103.29 68.6601 103.29C73.4801 103.29 77.73 99.79 78.52 94.87C79.39 89.42 75.6801 84.29 70.2301 83.41C69.6901 83.32 69.16 83.28 68.63 83.28Z" fill="#1B1B1B"/>
<path d="M70.04 100.35C68.33 100.07 66.82 99.1501 65.8 97.7401C64.78 96.3301 64.37 94.6201 64.65 92.9001C65.16 89.7301 67.85 87.4301 71.06 87.4301C71.4 87.4301 71.75 87.4601 72.1 87.5101L138.75 98.2001L136.69 111.04L70.04 100.35Z" fill="#C97A09"/>
<path d="M71.06 88.43C71.35 88.43 71.65 88.45 71.94 88.5L137.6 99.03L135.86 109.89L70.2 99.36C68.75 99.13 67.48 98.34 66.62 97.15C65.76 95.96 65.41 94.51 65.65 93.05C66.08 90.37 68.36 88.42 71.07 88.42L71.06 88.43ZM71.07 86.42C67.45 86.42 64.27 89.05 63.67 92.73C63.01 96.82 65.8 100.67 69.89 101.32L137.53 112.17L139.91 97.36L72.27 86.51C71.87 86.45 71.47 86.41 71.07 86.41V86.42Z" fill="#1B1B1B"/>
<path d="M73.95 101.23C72.24 100.95 70.7301 100.03 69.7101 98.6201C68.6901 97.2101 68.28 95.5001 68.56 93.7801C69.07 90.6101 71.7601 88.3101 74.9701 88.3101C75.3101 88.3101 75.6601 88.3401 76.0101 88.3901L131.8 97.3401L129.74 110.18L73.95 101.23Z" fill="#FCBC5E"/>
<path d="M74.9701 89.31C75.2601 89.31 75.5601 89.33 75.8501 89.38L130.65 98.17L128.91 109.03L74.1101 100.24C72.6601 100.01 71.3901 99.22 70.5301 98.03C69.6701 96.84 69.3201 95.39 69.5601 93.93C69.9901 91.25 72.2701 89.3 74.9801 89.3L74.9701 89.31ZM74.9801 87.3C71.3601 87.3 68.1801 89.93 67.5801 93.61C66.9201 97.7 69.7101 101.55 73.8001 102.2L130.57 111.31L132.95 96.5L76.1801 87.39C75.7801 87.33 75.3801 87.29 74.9801 87.29V87.3Z" fill="#1B1B1B"/>
<path d="M134.77 113.15C134.29 113.15 133.81 113.11 133.33 113.03C130.96 112.65 128.87 111.37 127.46 109.42C126.05 107.47 125.48 105.09 125.87 102.72C126.57 98.33 130.31 95.14 134.74 95.14C135.22 95.14 135.7 95.18 136.18 95.26C138.55 95.64 140.64 96.92 142.05 98.87C143.46 100.82 144.03 103.2 143.64 105.57C142.94 109.96 139.2 113.15 134.77 113.15Z" fill="#E28C03"/>
<path d="M134.74 96.14C135.16 96.14 135.6 96.17 136.02 96.24C138.13 96.58 139.98 97.72 141.23 99.45C142.48 101.18 142.99 103.3 142.65 105.41C142.02 109.31 138.71 112.14 134.76 112.14C134.33 112.14 133.9 112.11 133.48 112.04C131.37 111.7 129.52 110.56 128.27 108.83C127.02 107.1 126.51 104.98 126.85 102.87C127.48 98.97 130.79 96.14 134.74 96.14ZM134.74 94.14C129.92 94.14 125.67 97.64 124.88 102.56C124.01 108.01 127.72 113.14 133.17 114.02C133.71 114.11 134.24 114.15 134.77 114.15C139.59 114.15 143.84 110.65 144.63 105.73C145.5 100.28 141.79 95.15 136.34 94.27C135.8 94.18 135.27 94.14 134.74 94.14Z" fill="#1B1B1B"/>
<path d="M137.2 112.33C136.96 112.33 136.72 112.31 136.48 112.27C133.21 111.75 131.12 107.78 131.82 103.42C132.46 99.43 135.24 96.41 138.29 96.41C138.53 96.41 138.77 96.43 139.01 96.47C140.54 96.72 141.88 97.74 142.76 99.35C143.69 101.04 144.01 103.16 143.67 105.32C143.03 109.31 140.25 112.33 137.2 112.33Z" fill="#B76646"/>
<path d="M138.3 97.42C138.49 97.42 138.67 97.44 138.86 97.46C140.08 97.66 141.16 98.5 141.89 99.83C142.71 101.33 143 103.22 142.68 105.16C142.13 108.62 139.72 111.32 137.19 111.32C137 111.32 136.82 111.3 136.63 111.28C133.95 110.85 132.2 107.32 132.8 103.58C133.35 100.12 135.76 97.42 138.29 97.42H138.3ZM138.29 95.42C134.79 95.42 131.56 98.74 130.83 103.27C130.04 108.18 132.5 112.65 136.32 113.27C136.61 113.32 136.9 113.34 137.2 113.34C140.7 113.34 143.93 110.02 144.66 105.49C145.45 100.58 142.99 96.11 139.17 95.49C138.88 95.44 138.59 95.42 138.29 95.42Z" fill="#1B1B1B"/>
<path d="M122.34 29C120.22 28.69 118.11 28.38 116.01 28.06C116.13 25.77 116.9 23.39 118.22 21.24C120.07 21.54 121.93 21.85 123.8 22.16C122.79 24.39 122.28 26.74 122.33 29H122.34Z" fill="#FF2434"/>
<path d="M118.75 22.33C119.97 22.53 121.19 22.73 122.41 22.94C121.81 24.55 121.46 26.21 121.37 27.85C119.94 27.64 118.52 27.43 117.1 27.21C117.31 25.57 117.88 23.9 118.75 22.33ZM117.75 20.14C115.87 22.95 114.95 26.03 115.01 28.91C117.8 29.33 120.61 29.75 123.43 30.16C123.09 27.35 123.72 24.27 125.32 21.39C122.78 20.97 120.25 20.55 117.75 20.14Z" fill="#1B1B1B"/>
<path d="M96.65 119.93C95.79 119.28 95.05 118.6 94.41 117.88L93.87 117.28L93.17 117.68C92.17 118.25 91.3 118.79 90.55 119.32C90.61 117.59 91.67 115.76 92.79 113.86C94.28 111.31 95.92 108.48 95.08 105.58C97.2 105.88 99.29 106.19 101.34 106.49C101.72 108.48 100.47 110.61 99.17 112.85C97.89 115.04 96.49 117.45 96.67 119.93H96.65Z" fill="#FF2434"/>
<path d="M96.2801 106.76C97.6601 106.96 99.0301 107.16 100.38 107.36C100.32 108.85 99.3201 110.56 98.2801 112.35C97.3101 114.02 96.2101 115.9 95.8001 117.89C95.5701 117.67 95.3601 117.44 95.1501 117.21L94.0701 116L92.6601 116.81C92.4901 116.91 92.3201 117.01 92.1501 117.11C92.5401 116.23 93.0801 115.31 93.6301 114.36C94.9301 112.13 96.4501 109.52 96.2701 106.76H96.2801ZM93.3501 104.32C97.1801 109.91 87.8201 115.51 89.8001 121.11C90.8501 120.26 92.1601 119.4 93.6501 118.55C94.7901 119.83 96.3301 121.1 98.5501 122.38C94.7201 116.78 104.08 111.19 102.1 105.59C99.2501 105.17 96.3301 104.75 93.3501 104.32Z" fill="#1B1B1B"/>
<path fill-rule="evenodd" clip-rule="evenodd" d="M129.326 44.7697L106.096 41.3997L106.384 39.4204L129.614 42.7904L129.326 44.7697Z" fill="#70450D"/>
<path fill-rule="evenodd" clip-rule="evenodd" d="M139.735 51.988L104.085 46.398L104.395 44.4221L140.045 50.0121L139.735 51.988Z" fill="#70450D"/>
<path fill-rule="evenodd" clip-rule="evenodd" d="M136.735 55.988L101.085 50.398L101.395 48.4221L137.045 54.0121L136.735 55.988Z" fill="#70450D"/>
<path fill-rule="evenodd" clip-rule="evenodd" d="M133.735 60.988L98.0851 55.398L98.395 53.4221L134.045 59.0121L133.735 60.988Z" fill="#70450D"/>
<path fill-rule="evenodd" clip-rule="evenodd" d="M123.726 71.9865L90.0762 66.3965L90.4039 64.4236L124.054 70.0136L123.726 71.9865Z" fill="#70450D"/>
<path fill-rule="evenodd" clip-rule="evenodd" d="M119.72 66.9855L93.0703 62.3955L93.4098 60.4246L120.06 65.0146L119.72 66.9855Z" fill="#70450D"/>
<path fill-rule="evenodd" clip-rule="evenodd" d="M114.72 77.9855L88.0703 73.3955L88.4098 71.4246L115.06 76.0146L114.72 77.9855Z" fill="#70450D"/>
<path d="M124.81 86.1916C123.308 85.6541 121.838 85.1324 120.384 84.595C120.178 84.516 120.083 84.2946 120.162 84.0891C120.747 82.6032 121.506 81.1173 122.423 79.6788C122.549 79.4733 122.802 79.3785 122.992 79.4417C124.32 79.9634 125.648 80.485 127.023 81.0067C127.213 81.0857 127.276 81.307 127.165 81.5125C126.391 82.9826 125.774 84.4843 125.316 85.9702C125.252 86.1757 125.031 86.2864 124.826 86.2074L124.81 86.1916Z" fill="#C6142A"/>
<path d="M119.182 78.0507C117.143 79.2204 115.199 80.4218 113.365 81.639C113.223 81.7338 113.223 81.9235 113.365 81.9867C115.373 82.7455 117.412 83.5201 119.514 84.2788C119.656 84.3263 119.814 84.1998 119.783 84.0417C119.388 82.05 119.277 80.0582 119.467 78.1455C119.467 78.0191 119.34 77.9558 119.198 78.0349L119.182 78.0507Z" fill="#C6142A"/>
<path d="M124.826 86.9346C120.747 85.5119 116.811 84.0734 113.033 82.6349C112.954 82.6033 112.844 82.6665 112.796 82.7614C112.053 84.3579 111.5 85.9861 111.136 87.5827C111.121 87.6775 111.168 87.7882 111.263 87.8198C112.796 88.3415 114.33 88.8631 115.894 89.3847C116.005 89.4164 116.1 89.3689 116.116 89.2741C116.179 88.8157 116.258 88.3731 116.369 87.9146C116.543 87.1401 117.349 86.7449 118.139 87.0136C118.93 87.2823 119.42 88.136 119.293 88.8947C119.214 89.3531 119.151 89.7957 119.119 90.2384C119.119 90.3332 119.198 90.4439 119.309 90.4913C120.905 90.9971 122.518 91.5188 124.146 92.0246C124.241 92.0562 124.336 92.0088 124.336 91.8982C124.367 90.3648 124.573 88.7682 124.968 87.1717C125 87.0768 124.936 86.9662 124.842 86.9346H124.826Z" fill="#C6142A"/>
</svg>
