<svg width="166" height="130" viewBox="0 0 166 130" fill="none" xmlns="http://www.w3.org/2000/svg">
<path d="M114.29 0H16.29C7.45348 0 0.290039 7.16344 0.290039 16V114C0.290039 122.837 7.45348 130 16.29 130H114.29C123.127 130 130.29 122.837 130.29 114V16C130.29 7.16344 123.127 0 114.29 0Z" fill="#8FDFF3"/>
<path fill-rule="evenodd" clip-rule="evenodd" d="M1 90.9176V77.2088C1.30637 77.08 1.62347 76.9698 1.94997 76.88L3.22997 76.53C5.22997 75.98 7.26997 76.55 8.68997 77.86L21.57 72.89L22.64 69.7H31.39L32.28 72.89L45.91 79.3C47.38 78 49.46 77.47 51.46 78.09L51.47 78.08C55.26 79.25 57.85 82.75 57.85 86.72V87.76C57.85 92 54.53 94.45 50.48 93.2L47.12 92.16C44.84 91.46 43.31 89.48 43.07 87.26L37.47 86.84V92.38L44.62 105.07H51.09C51.87 105.07 52.16 106.07 51.51 106.49L38.65 114.71C37.44 115.48 35.83 115.06 35.15 113.79L28.91 102.11C28.52 101.39 27.49 101.39 27.1 102.11L20.91 113.69C20.16 115.09 18.44 115.63 17.03 114.91L3.52997 108.04C2.60997 107.43 2.99997 106 4.09997 105.94L9.77997 105.61L17.46 92.92L18 85.6L11.24 86.49C10.77 88.47 9.25997 90.15 7.14997 90.73L5.62997 91.15C4.04021 91.5903 2.42767 91.4734 1 90.9176Z" fill="white"/>
<path d="M1 90.9176H0V91.6014L0.637225 91.8495L1 90.9176ZM1 77.2088L0.612316 76.287L0 76.5446V77.2088H1ZM1.94997 76.88L1.68622 75.9154L1.6847 75.9158L1.94997 76.88ZM3.22997 76.53L3.49373 77.4945L3.49513 77.4942L3.22997 76.53ZM8.68997 77.86L8.01191 78.595L8.46934 79.017L9.04997 78.7929L8.68997 77.86ZM21.57 72.89L21.93 73.8229L22.3686 73.6537L22.5181 73.208L21.57 72.89ZM22.64 69.7V68.7H21.9206L21.6919 69.3819L22.64 69.7ZM31.39 69.7L32.3532 69.4312L32.1492 68.7H31.39V69.7ZM32.28 72.89L31.3168 73.1587L31.4399 73.5999L31.8544 73.7949L32.28 72.89ZM45.91 79.3L45.4844 80.2049L46.0797 80.4848L46.5724 80.0491L45.91 79.3ZM51.46 78.09L51.1639 79.0451L51.7401 79.2237L52.1668 78.7973L51.46 78.09ZM51.47 78.08L51.7649 77.1245L51.1893 76.9467L50.7631 77.3726L51.47 78.08ZM50.48 93.2L50.1843 94.1552L50.1851 94.1555L50.48 93.2ZM47.12 92.16L47.4157 91.2047L47.4135 91.204L47.12 92.16ZM43.07 87.26L44.0642 87.1525L43.9747 86.325L43.1448 86.2628L43.07 87.26ZM37.47 86.84L37.5448 85.8428L36.47 85.7621V86.84H37.47ZM37.47 92.38H36.47V92.6423L36.5987 92.8708L37.47 92.38ZM44.62 105.07L43.7487 105.561L44.0356 106.07H44.62V105.07ZM51.51 106.49L52.0486 107.333L52.0527 107.33L51.51 106.49ZM38.65 114.71L39.1869 115.554L39.1885 115.553L38.65 114.71ZM35.15 113.79L34.268 114.261L34.2684 114.262L35.15 113.79ZM28.91 102.11L29.792 101.639L29.7893 101.634L28.91 102.11ZM27.1 102.11L26.2207 101.634L26.2181 101.639L27.1 102.11ZM20.91 113.69L21.7915 114.162L21.7919 114.161L20.91 113.69ZM17.03 114.91L17.4848 114.019L17.4835 114.019L17.03 114.91ZM3.52997 108.04L2.97737 108.873L3.02524 108.905L3.07643 108.931L3.52997 108.04ZM4.09997 105.94L4.15444 106.938L4.15798 106.938L4.09997 105.94ZM9.77997 105.61L9.83798 106.608L10.3631 106.578L10.6355 106.128L9.77997 105.61ZM17.46 92.92L18.3155 93.4377L18.4396 93.2326L18.4573 92.9935L17.46 92.92ZM18 85.6L18.9973 85.6735L19.0877 84.4481L17.8694 84.6085L18 85.6ZM11.24 86.49L11.1094 85.4985L10.4262 85.5885L10.267 86.259L11.24 86.49ZM7.14997 90.73L6.88492 89.7657L6.88364 89.7661L7.14997 90.73ZM5.62997 91.15L5.36364 90.1861L5.36306 90.1862L5.62997 91.15ZM2 90.9176V77.2088H0V90.9176H2ZM1.6847 75.9158C1.31616 76.0172 0.958189 76.1416 0.612316 76.287L1.38768 78.1306C1.65456 78.0184 1.93078 77.9224 2.21525 77.8441L1.6847 75.9158ZM2.96622 75.5654L1.68622 75.9154L2.21373 77.8445L3.49373 77.4945L2.96622 75.5654ZM9.36804 77.125C7.70528 75.591 5.3119 74.9203 2.96482 75.5657L3.49513 77.4942C5.14805 77.0396 6.83466 77.5089 8.01191 78.595L9.36804 77.125ZM21.21 71.957L8.32998 76.927L9.04997 78.7929L21.93 73.8229L21.21 71.957ZM21.6919 69.3819L20.6219 72.5719L22.5181 73.208L23.5881 70.018L21.6919 69.3819ZM31.39 68.7H22.64V70.7H31.39V68.7ZM33.2432 72.6212L32.3532 69.4312L30.4268 69.9687L31.3168 73.1587L33.2432 72.6212ZM46.3355 78.395L32.7055 71.985L31.8544 73.7949L45.4844 80.2049L46.3355 78.395ZM51.7561 77.1348C49.4045 76.4058 46.9647 77.0323 45.2475 78.5509L46.5724 80.0491C47.7953 78.9676 49.5155 78.5341 51.1639 79.0451L51.7561 77.1348ZM50.7631 77.3726L50.7531 77.3826L52.1668 78.7973L52.1768 78.7873L50.7631 77.3726ZM58.85 86.72C58.85 82.3102 55.973 78.4235 51.7649 77.1245L51.175 79.0355C54.5469 80.0764 56.85 83.1897 56.85 86.72H58.85ZM58.85 87.76V86.72H56.85V87.76H58.85ZM50.1851 94.1555C52.4654 94.8593 54.6479 94.5461 56.2776 93.3433C57.9072 92.1405 58.85 90.147 58.85 87.76H56.85C56.85 89.6129 56.1327 90.9644 55.0899 91.7341C54.0471 92.5038 52.5446 92.7906 50.7749 92.2444L50.1851 94.1555ZM46.8243 93.1152L50.1843 94.1552L50.7757 92.2447L47.4157 91.2047L46.8243 93.1152ZM42.0758 87.3674C42.3572 89.9707 44.1509 92.2945 46.8265 93.1159L47.4135 91.204C45.5291 90.6255 44.2627 88.9892 44.0642 87.1525L42.0758 87.3674ZM37.3952 87.8372L42.9952 88.2572L43.1448 86.2628L37.5448 85.8428L37.3952 87.8372ZM38.47 92.38V86.84H36.47V92.38H38.47ZM45.4912 104.579L38.3412 91.8891L36.5987 92.8708L43.7487 105.561L45.4912 104.579ZM51.09 104.07H44.62V106.07H51.09V104.07ZM52.0527 107.33C53.5342 106.373 52.8736 104.07 51.09 104.07V106.07C51.0616 106.07 51.0068 106.058 50.9554 106.017C50.9104 105.981 50.887 105.939 50.8767 105.904C50.8663 105.869 50.8635 105.822 50.8816 105.769C50.9023 105.708 50.9412 105.667 50.9673 105.65L52.0527 107.33ZM39.1885 115.553L52.0485 107.333L50.9714 105.647L38.1114 113.867L39.1885 115.553ZM34.2684 114.262C35.2228 116.045 37.4856 116.636 39.1869 115.554L38.1131 113.866C37.3944 114.324 36.4371 114.075 36.0316 113.318L34.2684 114.262ZM28.028 102.581L34.268 114.261L36.032 113.319L29.792 101.639L28.028 102.581ZM27.9793 102.586C27.9838 102.578 27.9869 102.575 27.9874 102.574C27.988 102.574 27.9883 102.573 27.9886 102.573C27.9898 102.573 27.9954 102.57 28.005 102.57C28.0146 102.57 28.0201 102.573 28.0213 102.573C28.0217 102.573 28.0219 102.574 28.0225 102.574C28.023 102.575 28.0261 102.578 28.0307 102.586L29.7893 101.634C29.021 100.215 26.9889 100.215 26.2207 101.634L27.9793 102.586ZM21.7919 114.161L27.9819 102.581L26.2181 101.639L20.0281 113.219L21.7919 114.161ZM16.5752 115.801C18.472 116.769 20.7852 116.04 21.7915 114.162L20.0285 113.218C19.5347 114.139 18.4079 114.491 17.4848 114.019L16.5752 115.801ZM3.07643 108.931L16.5764 115.801L17.4835 114.019L3.98351 107.149L3.07643 108.931ZM4.04551 104.941C1.98429 105.054 1.25481 107.731 2.97737 108.873L4.08258 107.207C4.03738 107.177 4.02689 107.152 4.02226 107.139C4.01519 107.118 4.0118 107.085 4.02243 107.046C4.03306 107.007 4.05273 106.98 4.06931 106.966C4.08018 106.957 4.10116 106.941 4.15444 106.938L4.04551 104.941ZM9.72197 104.612L4.04197 104.942L4.15798 106.938L9.83798 106.608L9.72197 104.612ZM16.6045 92.4022L8.92445 105.092L10.6355 106.128L18.3155 93.4377L16.6045 92.4022ZM17.0027 85.5264L16.4627 92.8464L18.4573 92.9935L18.9973 85.6735L17.0027 85.5264ZM11.3705 87.4814L18.1305 86.5914L17.8694 84.6085L11.1094 85.4985L11.3705 87.4814ZM7.41502 91.6942C9.89227 91.0132 11.6623 89.0408 12.2129 86.7209L10.267 86.259C9.87769 87.8991 8.62768 89.2867 6.88492 89.7657L7.41502 91.6942ZM5.89631 92.1138L7.41631 91.6938L6.88364 89.7661L5.36364 90.1861L5.89631 92.1138ZM0.637225 91.8495C2.25878 92.4807 4.09208 92.6135 5.89689 92.1137L5.36306 90.1862C3.98834 90.567 2.59655 90.466 1.36278 89.9857L0.637225 91.8495Z" fill="#1B1B1B"/>
<path d="M26.9299 72.8901C32.751 72.8901 37.4699 68.1711 37.4699 62.3501C37.4699 56.529 32.751 51.8101 26.9299 51.8101C21.1088 51.8101 16.3899 56.529 16.3899 62.3501C16.3899 68.1711 21.1088 72.8901 26.9299 72.8901Z" fill="white" stroke="#1B1B1B" stroke-width="2" stroke-miterlimit="10"/>
<path d="M114 2C121.72 2 128 8.28 128 16V114C128 121.72 121.72 128 114 128H16C8.28 128 2 121.72 2 114V16C2 8.28 8.28 2 16 2H114ZM114 0H16C7.16 0 0 7.16 0 16V114C0 122.84 7.16 130 16 130H114C122.84 130 130 122.84 130 114V16C130 7.16 122.84 0 114 0Z" fill="#1B1B1B"/>
<path d="M158.56 77.68L157.03 77.28C155 76.74 152.94 77.36 151.53 78.72L138.31 72.64L137.26 68.75L129.58 69.06L127.57 72.34L115.13 77.37C113.64 75.6 111.17 74.83 108.85 75.62L107.59 76.05C103.87 77.31 101.58 81.22 102.6 85.01C103.72 89.16 108.08 91.45 112.09 90.09L113.59 89.58C115.69 88.87 117.12 87.06 117.44 85.01L123.71 84.24L123.97 90.75L116.03 105.2L110.73 105.41C109.76 105.45 109.45 106.73 110.29 107.21L122.94 114.51C124.14 115.2 125.67 114.75 126.3 113.51L132.47 101.39C132.91 100.53 134.13 100.54 134.55 101.41L140.08 112.82C140.63 113.96 142.02 114.41 143.14 113.82L156.01 106.98C156.76 106.58 156.61 105.47 155.78 105.28L150.67 104.15L142.33 91.48L142.59 85.46L149 86.66C149.29 88.93 150.91 90.91 153.26 91.53L154.79 91.93C158.72 92.97 162.76 90.63 163.8 86.69C164.84 82.76 162.5 78.72 158.56 77.68Z" fill="white" stroke="#1B1B1B" stroke-width="2" stroke-miterlimit="10"/>
<path d="M133.15 73.32C138.971 73.32 143.69 68.6011 143.69 62.78C143.69 56.9589 138.971 52.24 133.15 52.24C127.329 52.24 122.61 56.9589 122.61 62.78C122.61 68.6011 127.329 73.32 133.15 73.32Z" fill="white" stroke="#1B1B1B" stroke-width="2" stroke-miterlimit="10"/>
<path d="M107.64 77.55L106.43 77C104.22 75.99 101.71 76.49 100.04 78.07L84.9299 71.66L83.6599 67.56L76.0799 67.66L74.8799 72.04L61.7799 78.48C60.3299 76.92 58.0799 76.21 55.8999 76.86L54.6299 77.24C50.8699 78.35 48.4199 82.16 49.2799 85.99C50.2299 90.19 54.4999 92.65 58.5599 91.45L60.0799 91C62.4899 90.29 64.0799 88.14 64.2199 85.77L71.6799 85.02L71.6299 91.95L63.4499 105.48L58.9099 106.56C58.0999 106.75 57.9599 107.85 58.6899 108.24L71.1899 114.87C72.0599 115.33 73.1399 115.02 73.6299 114.17L80.8299 101.67C81.2999 100.86 82.4499 100.8 82.9999 101.55L91.8199 113.66C92.3799 114.43 93.4599 114.61 94.2399 114.05L104.68 106.6C105.48 106.03 105.17 104.77 104.19 104.64L101.26 104.26L90.3999 90.78L90.2599 84.47L96.9499 85.47C97.0699 87.55 98.2999 89.49 100.32 90.42L101.76 91.08C105.61 92.84 110.18 91.01 111.72 86.99C113.12 83.32 111.23 79.2 107.66 77.57L107.64 77.55Z" fill="white" stroke="#1B1B1B" stroke-width="2" stroke-miterlimit="10"/>
<path d="M79.6298 73.07C85.4509 73.07 90.1698 68.3511 90.1698 62.53C90.1698 56.7089 85.4509 51.99 79.6298 51.99C73.8088 51.99 69.0898 56.7089 69.0898 62.53C69.0898 68.3511 73.8088 73.07 79.6298 73.07Z" fill="white" stroke="#1B1B1B" stroke-width="2" stroke-miterlimit="10"/>
</svg>
