<svg width="180" height="130" viewBox="0 0 180 130" fill="none" xmlns="http://www.w3.org/2000/svg">
<g clip-path="url(#clip0_3204_220)">
<path d="M114.29 0H16.29C7.45348 0 0.290039 7.16344 0.290039 16V114C0.290039 122.837 7.45348 130 16.29 130H114.29C123.127 130 130.29 122.837 130.29 114V16C130.29 7.16344 123.127 0 114.29 0Z" fill="#8FDFF3"/>
<path d="M8.68833 78.51L21.1883 72.51H32.1882C36.3642 74.094 46.1882 78.1733 46.1882 78.1733C46.1882 78.1733 52.6176 74.7534 57.1882 79.01C59.8231 81.4638 60.7882 84.81 59.1882 88.01C57.1882 92.01 54.6882 94.51 48.6882 93.01C43.8882 91.81 43.0216 88.51 43.1882 87.01L37.6882 86.01V91.51L48.6882 104.51L50.6882 105.01C53.4882 105.81 52.1882 107.677 51.1882 108.51C48.5216 110.51 42.7882 114.71 41.1882 115.51C39.5882 116.31 38.1882 115.177 37.6882 114.51C35.5216 111.51 30.8882 105.11 29.6882 103.51C28.4882 101.91 27.8549 102.843 27.6882 103.51C25.8549 106.51 21.9882 113.01 21.1882 115.01C20.3882 117.01 18.1882 116.843 17.1882 116.51C14.6882 115.177 8.88824 112.01 5.68824 110.01C2.48824 108.01 4.35491 106.843 5.68824 106.51L9.68824 105.51L17.6882 92.01V87.01L11.6882 87.51C11.2882 90.71 9.37224 91.9044 6.68824 93.01C2.46181 94.7509 -2.48368 93.1995 -4.31167 89.01C-5.9422 85.2731 -4.55774 81.4771 -1.31167 79.01C1.80139 76.644 7.02167 77.1767 8.68833 78.51Z" fill="white"/>
<path fill-rule="evenodd" clip-rule="evenodd" d="M20.9606 71.51H32.3713L32.5427 71.575C34.6445 72.3723 38.1561 73.7929 41.1325 75.01C42.6228 75.6195 43.9824 76.1793 44.9694 76.5868C45.4629 76.7906 45.8633 76.9562 46.1404 77.071L46.1593 77.0789C46.3535 76.9917 46.6074 76.8842 46.9113 76.7697C47.633 76.4977 48.65 76.1807 49.8274 76.0062C52.1772 75.658 55.2808 75.8673 57.8696 78.2782C60.7568 80.9671 61.9217 84.7788 60.0825 88.4572C59.0578 90.5066 57.8232 92.3509 55.9378 93.4387C54.0171 94.5468 51.6042 94.7698 48.4455 93.9802C43.9031 92.8445 42.3923 89.9102 42.1928 87.8455L38.688 87.2082V91.1437L49.2432 103.618L50.9467 104.044L50.9628 104.048C51.763 104.277 52.4158 104.62 52.849 105.128C53.3127 105.672 53.44 106.305 53.3521 106.895C53.2701 107.445 53.0079 107.931 52.7379 108.307C52.4618 108.692 52.1318 109.025 51.8282 109.278L51.8085 109.295L51.788 109.31C50.45 110.314 48.3431 111.869 46.368 113.275C44.4277 114.656 42.5212 115.961 41.6352 116.404C40.5224 116.961 39.4571 116.839 38.6264 116.477C37.828 116.129 37.2226 115.556 36.888 115.11L36.8826 115.103L36.8774 115.096C34.7073 112.091 30.0811 105.701 28.888 104.11C28.7933 103.984 28.7112 103.888 28.6425 103.815L28.6211 103.901L28.5413 104.031C27.628 105.526 26.2076 107.893 24.9171 110.134C23.6092 112.405 22.4843 114.462 22.1165 115.381C21.5716 116.744 20.5134 117.389 19.4733 117.613C18.4829 117.826 17.4975 117.667 16.8718 117.459L16.7918 117.432L16.7174 117.392C14.2183 116.059 8.39052 112.878 5.15803 110.858C4.30273 110.323 3.67807 109.781 3.30906 109.207C2.91425 108.592 2.80124 107.909 3.05955 107.264C3.29153 106.684 3.75924 106.3 4.16103 106.059C4.57815 105.808 5.04208 105.641 5.44549 105.54L9.04054 104.641L16.688 91.736V88.0968L12.5428 88.4422C12.2368 89.8402 11.6214 90.9109 10.74 91.7639C9.73092 92.7407 8.42955 93.3742 7.06889 93.9346C2.42644 95.8469 -3.14695 94.1804 -5.22843 89.4099C-7.07814 85.1706 -5.45641 80.9039 -1.91697 78.2139C-0.128626 76.8547 2.19563 76.3684 4.23266 76.3728C5.26133 76.375 6.25153 76.5018 7.11148 76.725C7.70998 76.8803 8.28083 77.0915 8.76529 77.3637L20.9606 71.51ZM46.188 78.1733C45.8045 79.0968 45.8045 79.0968 45.8044 79.0968L45.3751 78.9188C45.0986 78.8043 44.6989 78.6389 44.2062 78.4355C43.2206 78.0286 41.8632 77.4696 40.3755 76.8612C37.4762 75.6756 34.0953 74.3077 32.0042 73.51H21.4157L8.55422 79.6835L8.06343 79.2909C7.79931 79.0796 7.31038 78.8429 6.60906 78.6608C5.92417 78.4831 5.10224 78.3746 4.22837 78.3728C2.46034 78.369 0.617929 78.7994 -0.706784 79.8062C-3.65949 82.0503 -4.80668 85.3755 -3.39533 88.6101C-1.82083 92.2186 2.49677 93.6549 6.30717 92.0854C7.63051 91.5403 8.62914 91.0237 9.34903 90.3269C10.034 89.6638 10.5212 88.7825 10.6958 87.386L10.7964 86.5808L18.688 85.9232V92.2841L10.3355 106.379L5.93057 107.48C5.66731 107.546 5.39791 107.649 5.19003 107.774C5.08803 107.835 5.01638 107.892 4.97008 107.939C4.94602 107.963 4.93212 107.982 4.92452 107.993C4.93117 108.016 4.94881 108.059 4.992 108.126C5.13133 108.343 5.47333 108.697 6.21803 109.162C9.35178 111.121 15.035 114.227 17.5776 115.584C17.9556 115.697 18.5283 115.77 19.0528 115.657C19.5627 115.548 20.0044 115.276 20.2596 114.639C20.6917 113.558 21.9002 111.365 23.184 109.136C24.4521 106.934 25.8422 104.615 26.7637 103.105C26.8288 102.897 26.9256 102.671 27.0637 102.459C27.2347 102.196 27.5217 101.875 27.9665 101.717C28.4489 101.546 28.9434 101.627 29.3752 101.865C29.7793 102.088 30.1447 102.452 30.488 102.91C31.6939 104.518 36.327 110.918 38.4928 113.916C38.66 114.137 39.0022 114.459 39.4247 114.643C39.819 114.815 40.2536 114.859 40.7408 114.616C41.4549 114.259 43.215 113.064 45.2081 111.645C47.1556 110.259 49.2365 108.723 50.5662 107.726C50.7571 107.565 50.9567 107.359 51.1132 107.141C51.2807 106.908 51.356 106.72 51.374 106.6C51.3861 106.519 51.3759 106.483 51.3271 106.426C51.2484 106.334 51.017 106.146 50.4286 105.976L48.1328 105.402L36.688 91.8763V84.8118L44.285 86.1931L44.1819 87.1204C44.0691 88.1358 44.6286 90.9644 48.9306 92.0399C51.7719 92.7502 53.609 92.4732 54.9383 91.7063C56.3028 90.9191 57.3183 89.5134 58.2936 87.5628C59.6544 84.8412 58.8889 81.9605 56.5065 79.7418C54.5247 77.8961 52.1282 77.6871 50.1207 77.9846C49.1194 78.133 48.2434 78.405 47.6167 78.6412C47.3046 78.7588 47.0578 78.8663 46.892 78.9427C46.8092 78.9809 46.7469 79.0112 46.7072 79.031C46.6873 79.0409 46.673 79.0482 46.6647 79.0525L46.6576 79.0562L46.6566 79.0567L46.2407 79.2779L45.8044 79.0968L46.188 78.1733ZM4.9217 107.97C4.92261 107.971 4.92376 107.976 4.92247 107.985C4.92014 107.974 4.92079 107.97 4.9217 107.97Z" fill="#1B1B1B"/>
<path d="M26.3181 74.08C32.1392 74.08 36.8581 69.3611 36.8581 63.54C36.8581 57.7189 32.1392 53 26.3181 53C20.497 53 15.7781 57.7189 15.7781 63.54C15.7781 69.3611 20.497 74.08 26.3181 74.08Z" fill="white"/>
<path fill-rule="evenodd" clip-rule="evenodd" d="M26.3181 54C21.0493 54 16.7781 58.2712 16.7781 63.54C16.7781 68.8088 21.0493 73.08 26.3181 73.08C31.5869 73.08 35.8581 68.8088 35.8581 63.54C35.8581 58.2712 31.5869 54 26.3181 54ZM14.7781 63.54C14.7781 57.1666 19.9447 52 26.3181 52C32.6914 52 37.8581 57.1666 37.8581 63.54C37.8581 69.9134 32.6914 75.08 26.3181 75.08C19.9447 75.08 14.7781 69.9134 14.7781 63.54Z" fill="#1B1B1B"/>
<path d="M62.0001 77.5L74.5001 71.5H85.5C89.6759 73.084 99.5 77.1633 99.5 77.1633C99.5 77.1633 105.929 73.7434 110.5 78C113.135 80.4538 114.1 83.8 112.5 87C110.5 91 108 93.5 102 92C97.2 90.8 96.3333 87.5 96.5 86L91 85V90.5L102 103.5L104 104C106.8 104.8 105.5 106.667 104.5 107.5C101.833 109.5 96.1 113.7 94.5 114.5C92.9 115.3 91.5 114.167 91 113.5C88.8333 110.5 84.2 104.1 83 102.5C81.8 100.9 81.1667 101.833 81 102.5C79.1667 105.5 75.3 112 74.5 114C73.7 116 71.5 115.833 70.5 115.5C68 114.167 62.2 111 59 109C55.8 107 57.6667 105.833 59 105.5L63 104.5L71 91V86L65 86.5C64.6 89.7 62.684 90.8944 60 92C55.7736 93.7409 50.8281 92.1895 49.0001 88C47.3696 84.263 48.754 80.4671 52.0001 78C55.1132 75.634 60.3334 76.1667 62.0001 77.5Z" fill="white"/>
<path fill-rule="evenodd" clip-rule="evenodd" d="M74.2723 70.5H85.6831L85.8545 70.565C87.9563 71.3622 91.4679 72.7829 94.4443 74C95.9346 74.6095 97.2942 75.1693 98.2811 75.5768C98.7747 75.7806 99.1751 75.9462 99.4522 76.061L99.4711 76.0688C99.6653 75.9817 99.9192 75.8742 100.223 75.7597C100.945 75.4877 101.962 75.1707 103.139 74.9962C105.489 74.648 108.593 74.8573 111.181 77.2682C114.069 79.9571 115.233 83.7688 113.394 87.4472C112.37 89.4966 111.135 91.3409 109.25 92.4287C107.329 93.5368 104.916 93.7598 101.757 92.9701C97.2148 91.8345 95.7041 88.9002 95.5046 86.8354L91.9998 86.1982V90.1337L102.555 102.608L104.259 103.034L104.275 103.038C105.075 103.267 105.728 103.61 106.161 104.118C106.624 104.662 106.752 105.295 106.664 105.885C106.582 106.435 106.32 106.921 106.05 107.297C105.774 107.682 105.444 108.015 105.14 108.268L105.12 108.285L105.1 108.3C103.762 109.304 101.655 110.859 99.6797 112.265C97.7395 113.646 95.8329 114.951 94.947 115.394C93.8342 115.951 92.7689 115.829 91.9381 115.467C91.1397 115.119 90.5344 114.546 90.1998 114.1L90.1944 114.093L90.1891 114.085C88.0191 111.081 83.3929 104.691 82.1998 103.1C82.1051 102.974 82.023 102.878 81.9542 102.805L81.9328 102.891L81.8531 103.021C80.9397 104.516 79.5193 106.883 78.2289 109.124C76.9209 111.395 75.7961 113.452 75.4283 114.371C74.8834 115.734 73.8252 116.379 72.785 116.603C71.7947 116.816 70.8092 116.657 70.1836 116.449L70.1036 116.422L70.0292 116.382C67.5301 115.049 61.7023 111.868 58.4698 109.848C57.6145 109.313 56.9898 108.771 56.6208 108.197C56.226 107.582 56.113 106.899 56.3713 106.254C56.6033 105.674 57.071 105.29 57.4728 105.049C57.8899 104.798 58.3539 104.631 58.7573 104.53L62.3523 103.631L69.9998 90.726V87.0868L65.8545 87.4322C65.5485 88.8302 64.9331 89.9008 64.0518 90.7539C63.0427 91.7307 61.7413 92.3642 60.3807 92.9246C55.7382 94.8369 50.1648 93.1704 48.0833 88.3999C46.2336 84.1606 47.8554 79.8939 51.3948 77.2038C53.1831 75.8447 55.5074 75.3584 57.5444 75.3628C58.5731 75.365 59.5633 75.4918 60.4232 75.715C61.0217 75.8703 61.5926 76.0815 62.0771 76.3537L74.2723 70.5ZM99.4998 77.1633C99.1163 78.0868 99.1163 78.0868 99.1162 78.0868L98.6869 77.9088C98.4104 77.7943 98.0107 77.6289 97.5179 77.4255C96.5324 77.0186 95.175 76.4596 93.6873 75.8512C90.788 74.6656 87.407 73.2977 85.316 72.5H74.7275L61.866 78.6735L61.3752 78.2809C61.1111 78.0696 60.6221 77.8329 59.9208 77.6508C59.2359 77.4731 58.414 77.3646 57.5401 77.3628C55.7721 77.359 53.9297 77.7893 52.605 78.7962C49.6523 81.0403 48.5051 84.3655 49.9164 87.6001C51.4909 91.2086 55.8085 92.6449 59.6189 91.0754C60.9423 90.5303 61.9409 90.0137 62.6608 89.3169C63.3458 88.6538 63.833 87.7725 64.0075 86.376L64.1082 85.5708L71.9998 84.9132V91.274L63.6473 105.369L59.2423 106.47C58.9791 106.536 58.7097 106.639 58.5018 106.764C58.3998 106.825 58.3281 106.882 58.2818 106.929C58.2578 106.953 58.2439 106.972 58.2363 106.983C58.2429 107.006 58.2606 107.049 58.3038 107.116C58.4431 107.333 58.7851 107.687 59.5298 108.152C62.6635 110.111 68.3468 113.217 70.8893 114.574C71.2674 114.687 71.8401 114.76 72.3646 114.647C72.8744 114.538 73.3162 114.266 73.5713 113.629C74.0035 112.548 75.212 110.355 76.4957 108.126C77.7639 105.924 79.154 103.605 80.0754 102.095C80.1406 101.887 80.2374 101.661 80.3754 101.449C80.5464 101.186 80.8335 100.865 81.2782 100.707C81.7607 100.536 82.2551 100.617 82.6869 100.855C83.0911 101.078 83.4565 101.442 83.7998 101.9C85.0056 103.508 89.6388 109.908 91.8046 112.906C91.9718 113.127 92.3139 113.449 92.7365 113.633C93.1307 113.805 93.5654 113.849 94.0526 113.606C94.7667 113.249 96.5268 112.054 98.5199 110.635C100.467 109.249 102.548 107.713 103.878 106.716C104.069 106.555 104.269 106.349 104.425 106.131C104.592 105.898 104.668 105.71 104.686 105.59C104.698 105.509 104.688 105.473 104.639 105.416C104.56 105.324 104.329 105.136 103.74 104.966L101.445 104.392L89.9998 90.8663V83.8018L97.5967 85.183L97.4937 86.1104C97.3809 87.1258 97.9404 89.9544 102.242 91.0299C105.084 91.7402 106.921 91.4632 108.25 90.6963C109.615 89.9091 110.63 88.5034 111.605 86.5528C112.966 83.8312 112.201 80.9505 109.818 78.7318C107.836 76.8861 105.44 76.6771 103.432 76.9746C102.431 77.123 101.555 77.3949 100.928 77.6312C100.616 77.7488 100.37 77.8563 100.204 77.9327C100.121 77.9709 100.059 78.0012 100.019 78.021C99.999 78.0309 99.9848 78.0382 99.9765 78.0425L99.9694 78.0461L99.9684 78.0467L99.5525 78.2679L99.1162 78.0868L99.4998 77.1633ZM58.2335 106.96C58.2344 106.96 58.2355 106.966 58.2342 106.975C58.2319 106.964 58.2326 106.96 58.2335 106.96Z" fill="#1B1B1B"/>
<path d="M79.6298 73.07C85.4509 73.07 90.1698 68.3511 90.1698 62.53C90.1698 56.7089 85.4509 51.99 79.6298 51.99C73.8088 51.99 69.0898 56.7089 69.0898 62.53C69.0898 68.3511 73.8088 73.07 79.6298 73.07Z" fill="white"/>
<path fill-rule="evenodd" clip-rule="evenodd" d="M79.6298 52.99C74.361 52.99 70.0898 57.2612 70.0898 62.53C70.0898 67.7988 74.361 72.07 79.6298 72.07C84.8986 72.07 89.1698 67.7988 89.1698 62.53C89.1698 57.2612 84.8986 52.99 79.6298 52.99ZM68.0898 62.53C68.0898 56.1566 73.2565 50.99 79.6298 50.99C86.0032 50.99 91.1698 56.1566 91.1698 62.53C91.1698 68.9034 86.0032 74.07 79.6298 74.07C73.2565 74.07 68.0898 68.9034 68.0898 62.53Z" fill="#1B1B1B"/>
<path d="M114 2C121.72 2 128 8.28 128 16V114C128 121.72 121.72 128 114 128H16C8.28 128 2 121.72 2 114V16C2 8.28 8.28 2 16 2H114ZM114 0H16C7.16 0 0 7.16 0 16V114C0 122.84 7.16 130 16 130H114C122.84 130 130 122.84 130 114V16C130 7.16 122.84 0 114 0Z" fill="#1B1B1B"/>
<path d="M115.912 76.1876L128.765 70.985L139.743 71.6763C143.811 73.5196 153.359 78.2083 153.359 78.2083C153.359 78.2083 159.991 75.1992 164.285 79.7346C166.76 82.3492 167.513 85.7494 165.715 88.8425C163.468 92.7089 160.816 95.0469 154.922 93.1728C150.207 91.6735 149.549 88.3255 149.81 86.839L144.384 85.4953L144.038 90.9844L154.199 104.65L156.164 105.275C158.908 106.249 157.493 108.03 156.443 108.799C153.656 110.628 147.67 114.459 146.023 115.157C144.376 115.855 143.05 114.636 142.593 113.939C140.619 110.809 136.397 104.13 135.3 102.458C134.203 100.786 133.512 101.677 133.304 102.332C131.285 105.211 127.018 111.455 126.094 113.401C125.17 115.347 122.984 115.042 122.007 114.647C119.596 113.159 114.007 109.634 110.939 107.437C107.871 105.24 109.807 104.193 111.159 103.944L115.213 103.197L124.046 90.2265L124.36 85.2364L118.341 85.3583C117.74 88.5268 115.753 89.5985 113.005 90.5332C108.678 92.005 103.839 90.1459 102.278 85.8498C100.886 82.0178 102.506 78.3163 105.901 76.0581C109.156 73.8924 114.333 74.7521 115.912 76.1876Z" fill="white"/>
<path fill-rule="evenodd" clip-rule="evenodd" d="M128.6 69.9726L139.989 70.6898L140.155 70.7654C142.203 71.6932 145.618 73.3317 148.512 74.7335C149.961 75.4354 151.283 76.0796 152.243 76.5483C152.722 76.7827 153.112 76.9732 153.381 77.1051L153.399 77.1141C153.599 77.0394 153.859 76.9481 154.169 76.8529C154.907 76.6268 155.941 76.3743 157.128 76.2742C159.495 76.0743 162.579 76.4782 165.011 79.0471C167.724 81.9121 168.647 85.7895 166.58 89.345C165.428 91.326 164.08 93.0891 162.13 94.0562C160.144 95.0414 157.722 95.1123 154.619 94.1257C150.157 92.7069 148.833 89.6834 148.764 87.6102L145.306 86.7539L145.059 90.6816L154.809 103.795L156.483 104.327L156.498 104.332C157.283 104.611 157.912 104.994 158.313 105.529C158.741 106.1 158.829 106.74 158.704 107.323C158.587 107.868 158.295 108.336 158.002 108.694C157.703 109.061 157.352 109.373 157.033 109.606L157.013 109.621L156.991 109.635C155.593 110.553 153.392 111.972 151.333 113.252C149.309 114.508 147.325 115.691 146.413 116.078C145.267 116.563 144.212 116.374 143.405 115.961C142.63 115.564 142.062 114.954 141.756 114.487L141.751 114.48L141.746 114.472C139.769 111.337 135.554 104.669 134.463 103.006C134.377 102.874 134.301 102.773 134.237 102.697L134.21 102.781L134.122 102.906C133.117 104.34 131.55 106.614 130.122 108.769C128.674 110.953 127.422 112.935 126.997 113.83C126.367 115.155 125.271 115.733 124.219 115.891C123.217 116.041 122.243 115.821 121.632 115.574L121.554 115.542L121.482 115.498C119.072 114.01 113.455 110.469 110.356 108.25C109.536 107.662 108.947 107.082 108.615 106.485C108.259 105.847 108.189 105.159 108.488 104.531C108.756 103.966 109.247 103.613 109.663 103.397C110.095 103.174 110.568 103.035 110.977 102.96L114.622 102.289L123.065 89.8901L123.294 86.2581L119.135 86.3424C118.742 87.7183 118.06 88.7482 117.127 89.5442C116.059 90.4557 114.72 91.0061 113.327 91.4799C108.573 93.0966 103.116 91.0831 101.338 86.1913C99.7585 81.8441 101.645 77.6878 105.347 75.2255C107.217 73.9814 109.567 73.6421 111.6 73.7745C112.626 73.8413 113.607 74.0302 114.451 74.3069C115.038 74.4996 115.595 74.7462 116.061 75.0484L128.6 69.9726ZM153.359 78.2082C152.918 79.1058 152.918 79.1058 152.918 79.1058L152.501 78.9012C152.232 78.7695 151.844 78.5793 151.365 78.3453C150.407 77.8773 149.087 77.2341 147.641 76.5335C144.822 75.168 141.533 73.5903 139.496 72.6628L128.929 71.9973L115.705 77.3503L115.24 76.9276C114.989 76.7001 114.516 76.4331 113.828 76.2074C113.155 75.987 112.342 75.8271 111.47 75.7703C109.706 75.6554 107.84 75.9691 106.454 76.8907C103.367 78.9448 102.013 82.1913 103.218 85.5082C104.562 89.2086 108.781 90.9134 112.683 89.5864C114.038 89.1256 115.067 88.6728 115.829 88.0226C116.554 87.4039 117.096 86.5549 117.358 85.1721L117.509 84.3749L125.426 84.2145L125.027 90.5628L115.805 104.105L111.339 104.927C111.073 104.976 110.797 105.062 110.582 105.174C110.476 105.228 110.401 105.281 110.352 105.325C110.326 105.348 110.311 105.365 110.303 105.376C110.308 105.399 110.323 105.443 110.362 105.513C110.488 105.738 110.807 106.112 111.521 106.624C114.525 108.775 120.002 112.233 122.454 113.747C122.824 113.883 123.391 113.992 123.922 113.913C124.438 113.835 124.895 113.592 125.19 112.972C125.689 111.921 127.033 109.808 128.455 107.664C129.859 105.546 131.392 103.319 132.406 101.87C132.484 101.667 132.595 101.447 132.746 101.244C132.934 100.992 133.24 100.69 133.694 100.561C134.186 100.42 134.675 100.532 135.091 100.797C135.48 101.044 135.822 101.431 136.136 101.909C137.238 103.59 141.46 110.268 143.433 113.397C143.586 113.627 143.907 113.971 144.317 114.181C144.7 114.377 145.131 114.449 145.632 114.236C146.368 113.925 148.199 112.843 150.278 111.553C152.308 110.291 154.482 108.889 155.871 107.978C156.072 107.829 156.284 107.636 156.454 107.428C156.636 107.206 156.723 107.024 156.748 106.905C156.765 106.824 156.758 106.788 156.712 106.728C156.64 106.631 156.421 106.429 155.844 106.222L153.589 105.505L143.017 91.2871L143.461 84.2366L150.956 86.0925L150.795 87.0116C150.618 88.0179 150.999 90.876 155.225 92.2197C158.016 93.1072 159.867 92.9463 161.242 92.2644C162.653 91.5645 163.755 90.2254 164.851 88.34C166.38 85.7093 165.797 82.7861 163.559 80.4221C161.697 78.4555 159.318 78.0963 157.296 78.2671C156.287 78.3522 155.396 78.5686 154.756 78.765C154.437 78.8628 154.184 78.9545 154.013 79.0204C153.928 79.0533 153.864 79.0796 153.823 79.0969C153.803 79.1055 153.788 79.1119 153.78 79.1157L153.772 79.1189L153.771 79.1193L153.342 79.314L152.918 79.1058L153.359 78.2082ZM110.302 105.353C110.303 105.353 110.303 105.358 110.302 105.368C110.3 105.357 110.301 105.352 110.302 105.353Z" fill="#1B1B1B"/>
<path d="M133.786 72.8743C139.595 73.2401 144.601 68.8271 144.967 63.0175C145.333 57.2079 140.92 52.2018 135.111 51.8359C129.301 51.4701 124.295 55.8831 123.929 61.6927C123.563 67.5023 127.976 72.5084 133.786 72.8743Z" fill="white"/>
<path fill-rule="evenodd" clip-rule="evenodd" d="M135.048 52.834C129.789 52.5028 125.258 56.4972 124.927 61.7555C124.596 67.0139 128.59 71.5451 133.849 71.8763C139.107 72.2074 143.638 68.213 143.969 62.9547C144.3 57.6963 140.306 53.1651 135.048 52.834ZM122.931 61.6299C123.331 55.2691 128.813 50.4374 135.173 50.8379C141.534 51.2385 146.366 56.7196 145.965 63.0804C145.565 69.4411 140.084 74.2728 133.723 73.8723C127.362 73.4718 122.53 67.9906 122.931 61.6299Z" fill="#1B1B1B"/>
<path d="M75.72 29.02L83.53 26.78C84.76 26.43 85.47 25.14 85.12 23.91L83.52 18.33C83.17 17.1 81.88 16.39 80.65 16.74L77.3 17.7L76.66 15.47C76.31 14.24 75.02 13.53 73.79 13.88C72.56 14.23 71.85 15.52 72.2 16.75L74.29 24.5L75.72 29.02Z" fill="#FAFAFA"/>
<path fill-rule="evenodd" clip-rule="evenodd" d="M77.6215 15.1954C77.6216 15.1957 77.6217 15.196 77.6218 15.1963L77.9854 16.4633L80.3763 15.7782C82.1315 15.2788 83.9783 16.2891 84.4815 18.0554C84.4816 18.0557 84.4817 18.056 84.4818 18.0563L86.0818 23.6363C86.5812 25.3916 85.5708 27.2384 83.8046 27.7416C83.8042 27.7417 83.8049 27.7415 83.8046 27.7416L75.0601 30.2496L73.3301 24.7811L71.2361 17.0165C70.7414 15.2631 71.7518 13.4203 73.5163 12.9182C75.2715 12.4188 77.1183 13.4291 77.6215 15.1954ZM75.6981 15.7437C75.5009 15.0506 74.7681 14.6414 74.0636 14.8418C73.3705 15.0391 72.9613 15.7719 73.1618 16.4763L73.1656 16.4896L75.2499 24.2189L76.3798 27.7905L83.2563 25.8182C83.9492 25.621 84.3583 24.8887 84.1584 24.1845C84.1583 24.1842 84.1584 24.1848 84.1584 24.1845L82.5581 18.6037C82.361 17.9108 81.6287 17.5017 80.9244 17.7016C80.9242 17.7017 80.9247 17.7015 80.9244 17.7016L76.6145 18.9367L75.6981 15.7437Z" fill="#1B1B1B"/>
<path d="M73.1525 20.0957L68.6929 21.377L71.2582 30.3058L75.7178 29.0245L73.1525 20.0957Z" fill="#1F8AFF"/>
<path fill-rule="evenodd" clip-rule="evenodd" d="M67.4556 20.6921L73.8374 18.8585L76.9551 29.7095L70.5732 31.5431L67.4556 20.6921ZM69.9301 22.062L71.9432 29.0686L74.4805 28.3396L72.4675 21.333L69.9301 22.062Z" fill="#1B1B1B"/>
<path d="M63.52 37.0501C61.95 35.4801 59.41 35.4801 57.84 37.0501L56.13 38.7601L54.42 37.0501C52.85 35.4801 50.31 35.4801 48.74 37.0501C47.17 38.6201 47.17 41.1601 48.74 42.7301L53.97 47.9601C55.16 49.1501 57.1 49.1501 58.3 47.9601L63.53 42.7301C65.1 41.1601 65.1 38.6201 63.53 37.0501H63.52Z" fill="#FF2434"/>
<path fill-rule="evenodd" clip-rule="evenodd" d="M48.0329 36.343C49.9934 34.3824 53.1666 34.3824 55.1271 36.343L56.13 37.3458L57.1329 36.343C58.9904 34.4855 61.9364 34.3878 63.9083 36.0501H63.9442L64.2371 36.343C66.1976 38.3035 66.1976 41.4766 64.2371 43.4372L59.0071 48.6672L59.0041 48.6701C57.4159 50.2451 54.845 50.2493 53.2629 48.6672L48.0329 43.4372C46.0724 41.4766 46.0724 38.3035 48.0329 36.343ZM53.7129 37.7572C52.5334 36.5777 50.6266 36.5777 49.4471 37.7572C48.2676 38.9366 48.2676 40.8435 49.4471 42.023L54.6771 47.253C55.4745 48.0504 56.7826 48.055 57.5945 47.2513C57.595 47.2509 57.5954 47.2504 57.5959 47.25L62.8229 42.023C63.9528 40.893 64.0003 39.0956 62.9653 37.9096L62.8129 37.7572C61.6334 36.5777 59.7266 36.5777 58.5471 37.7572L56.13 40.1743L53.7129 37.7572Z" fill="#1B1B1B"/>
<path d="M115.492 36.6398C116.034 32.1158 112.805 28.0091 108.281 27.4672C103.757 26.9253 99.6506 30.1535 99.1088 34.6775C98.5669 39.2015 101.795 43.3083 106.319 43.8501C110.843 44.392 114.95 41.1638 115.492 36.6398Z" fill="#FFDA00"/>
<path fill-rule="evenodd" clip-rule="evenodd" d="M108.162 28.4601C104.187 27.9839 100.578 30.8208 100.102 34.7965C99.6255 38.7721 102.462 42.381 106.438 42.8572C110.414 43.3334 114.023 40.4965 114.499 36.5209C114.975 32.5452 112.138 28.9363 108.162 28.4601ZM98.1159 34.5586C98.7234 29.4862 103.328 25.8668 108.4 26.4743C113.473 27.0819 117.092 31.6863 116.485 36.7587C115.877 41.8311 111.273 45.4506 106.2 44.843C101.128 44.2355 97.5083 39.631 98.1159 34.5586Z" fill="#1B1B1B"/>
<path d="M103.76 33.1701C103.92 31.8701 104.89 30.9101 105.93 31.0301C106.97 31.1501 107.69 32.3101 107.54 33.6201" fill="#FFDA00"/>
<path fill-rule="evenodd" clip-rule="evenodd" d="M105.815 32.0235C105.518 31.9892 104.873 32.3168 104.753 33.2922L102.768 33.0479C102.967 31.4234 104.262 29.831 106.045 30.0367C107.835 30.2433 108.72 32.1027 108.534 33.7338L106.547 33.5063C106.66 32.5174 106.105 32.0569 105.815 32.0235Z" fill="#1B1B1B"/>
<path d="M107.54 33.62C107.7 32.32 108.67 31.36 109.71 31.48C110.75 31.6 111.47 32.76 111.32 34.07" fill="#FFDA00"/>
<path fill-rule="evenodd" clip-rule="evenodd" d="M109.595 32.4735C109.298 32.4392 108.653 32.7668 108.533 33.7422L106.548 33.4979C106.747 31.8734 108.042 30.281 109.825 30.4867C111.615 30.6933 112.5 32.5527 112.314 34.1839L110.327 33.9563C110.44 32.9675 109.885 32.5069 109.595 32.4735Z" fill="#1B1B1B"/>
<path d="M111.71 36.2001C111.42 38.6401 109.21 40.3701 106.77 40.0801C104.33 39.7901 102.6 37.5801 102.89 35.1401" fill="#FFDA00"/>
<path fill-rule="evenodd" clip-rule="evenodd" d="M103.883 35.2581C103.658 37.153 105 38.8626 106.888 39.087C108.783 39.3123 110.493 37.9702 110.717 36.082L112.703 36.3181C112.347 39.3099 109.637 41.4278 106.652 41.0731C103.66 40.7175 101.542 38.0071 101.897 35.022L103.883 35.2581Z" fill="#1B1B1B"/>
<path d="M35.41 33.4199H23.51C22.06 33.4199 20.89 32.2399 20.89 30.7999V26.6699L35.26 24.7499C36.59 24.5699 37.76 25.5999 37.76 26.9399V31.0699C37.76 32.3699 36.71 33.4199 35.41 33.4199Z" fill="#FFDA00"/>
<path fill-rule="evenodd" clip-rule="evenodd" d="M36.76 26.9399C36.76 26.2014 36.1199 25.6427 35.3941 25.7409L21.89 27.5452V30.7999C21.89 31.6901 22.6148 32.4199 23.51 32.4199H35.41C36.1577 32.4199 36.76 31.8176 36.76 31.0699V26.9399ZM35.1268 23.7588C37.0607 23.4977 38.76 24.9988 38.76 26.9399V31.0699C38.76 32.9222 37.2623 34.4199 35.41 34.4199H23.51C21.5052 34.4199 19.89 32.7897 19.89 30.7999V25.7947L35.1268 23.7588C35.1272 23.7588 35.1265 23.7589 35.1268 23.7588Z" fill="#1B1B1B"/>
<path d="M20.88 30.7699V19.9199H26.51L28.04 30.6199" fill="#FFDA00"/>
<path fill-rule="evenodd" clip-rule="evenodd" d="M19.88 18.9199H27.3772L29.0299 30.4784L27.0501 30.7615L25.6428 20.9199H21.88V30.7699H19.88V18.9199Z" fill="#1B1B1B"/>
<path d="M20.88 22.1699V17.5699C20.88 16.3799 21.84 15.4199 23.03 15.4199H28.51C29.63 15.4199 30.33 16.6199 29.78 17.5899L27.21 22.1699H24.16" fill="#FFDA00"/>
<path fill-rule="evenodd" clip-rule="evenodd" d="M23.03 16.4199C22.3923 16.4199 21.88 16.9322 21.88 17.5699V22.1699H19.88V17.5699C19.88 15.8276 21.2877 14.4199 23.03 14.4199H28.51C30.3915 14.4199 31.5788 16.4413 30.6511 18.081C30.6507 18.0817 30.6503 18.0824 30.6499 18.0832L27.7955 23.1699H24.16V21.1699H26.6245L28.9079 17.1006L28.9101 17.0967C29.0802 16.7968 28.8676 16.4199 28.51 16.4199H23.03Z" fill="#1B1B1B"/>
<path d="M144.64 33.1604L145.083 33.5386C147.403 35.5153 151.322 35.6143 153.299 33.2937L157.253 28.6523L148.413 21.1236L148.222 21.3403C148.741 20.7252 148.672 19.8118 148.057 19.2934C147.442 18.7749 146.528 18.8437 146.01 19.4588L143.182 22.7738C143.182 22.7738 138.66 28.0748 144.63 33.1629L144.64 33.1604Z" fill="#FFDA00"/>
<path fill-rule="evenodd" clip-rule="evenodd" d="M158.662 28.5394L154.06 33.9421C152.847 35.3661 151.075 36.0066 149.332 36.0276C147.592 36.0485 145.793 35.4571 144.434 34.2999L144.39 34.2624L144.381 34.2649L143.981 33.9241C142.373 32.5532 141.421 31.1233 140.939 29.7174C140.457 28.3125 140.465 26.9916 140.686 25.8681C140.904 24.7513 141.333 23.826 141.701 23.184C141.886 22.8612 142.059 22.6048 142.189 22.4256C142.254 22.3358 142.308 22.265 142.348 22.2146C142.368 22.1893 142.384 22.1691 142.396 22.1541L142.412 22.1355L142.417 22.1291L142.419 22.1267L142.42 22.1257C142.42 22.1252 142.421 22.1248 143.182 22.7738L142.421 22.1248L145.248 18.8117C146.13 17.7679 147.674 17.6626 148.701 18.5287C149.383 19.1031 149.666 19.9591 149.54 20.7704L158.662 28.5394ZM148.219 21.3511L147.458 20.6959C147.628 20.4941 147.597 20.2131 147.413 20.058C147.211 19.888 146.93 19.9193 146.775 20.1033L146.771 20.1079L143.945 23.4198L143.941 23.4242C143.937 23.4296 143.929 23.4398 143.917 23.4546C143.893 23.4842 143.856 23.5323 143.809 23.5974C143.715 23.728 143.581 23.9255 143.436 24.1791C143.143 24.6901 142.814 25.4081 142.648 26.2526C142.484 27.0904 142.481 28.0487 142.831 29.0688C143.15 30.0006 143.781 31.0341 144.939 32.1011L145.731 32.7773C145.731 32.7775 145.731 32.7771 145.731 32.7773C146.693 33.5965 148.014 34.0433 149.308 34.0277C150.599 34.0122 151.774 33.5419 152.538 32.6452L155.843 28.7652L147.764 21.885L148.219 21.3511Z" fill="#1B1B1B"/>
<path d="M146.15 23.7693L150.86 18.242C151.379 17.6268 152.292 17.5581 152.907 18.0765C153.522 18.595 153.591 19.5083 153.073 20.1235L149.119 24.7649" fill="#FFDA00"/>
<path fill-rule="evenodd" clip-rule="evenodd" d="M152.309 19.4776C152.478 19.2759 152.446 18.9959 152.263 18.8412C152.061 18.6712 151.78 18.7024 151.625 18.8864L151.622 18.8906L151.622 18.8906L146.912 24.4179L145.389 23.1208L150.096 17.5975C150.096 17.5967 150.097 17.596 150.098 17.5952C150.98 16.5511 152.524 16.4457 153.552 17.3119C154.598 18.1938 154.704 19.7394 153.837 20.7679L153.834 20.7719L153.834 20.7719L149.881 25.4133L148.358 24.1164L152.309 19.4776Z" fill="#1B1B1B"/>
<path d="M149.119 24.7649L153.829 19.2375C154.348 18.6224 155.261 18.5536 155.876 19.0721C156.491 19.5905 156.56 20.5039 156.042 21.119L151.332 26.6464" fill="#FFDA00"/>
<path fill-rule="evenodd" clip-rule="evenodd" d="M155.278 20.4731C155.447 20.2714 155.415 19.9914 155.232 19.8367C155.03 19.6667 154.749 19.698 154.594 19.882L154.59 19.8861L154.59 19.8861L149.88 25.4134L148.358 24.1163L153.065 18.5931C153.065 18.5923 153.066 18.5915 153.067 18.5907C153.949 17.5466 155.493 17.4412 156.521 18.3074C157.567 19.1893 157.673 20.7349 156.806 21.7635L156.803 21.7676L156.803 21.7676L152.093 27.295L150.57 25.9978L155.278 20.4731Z" fill="#1B1B1B"/>
<path d="M151.332 26.6464L156.042 21.119C156.56 20.5039 157.473 20.4352 158.088 20.9536C158.704 21.4721 158.772 22.3854 158.254 23.0006L153.544 28.5279" fill="#FFDA00"/>
<path fill-rule="evenodd" clip-rule="evenodd" d="M157.491 22.3546C157.659 22.153 157.628 21.873 157.444 21.7183C157.242 21.5482 156.961 21.5795 156.806 21.7635L156.803 21.7676L156.803 21.7676L152.093 27.295L150.57 25.9978L155.277 20.4746C155.278 20.4738 155.278 20.473 155.279 20.4723C156.161 19.4281 157.705 19.3228 158.733 20.189C159.779 21.0708 159.885 22.6165 159.019 23.645L159.015 23.6492L159.015 23.6491L154.305 29.1765L152.783 27.8793L157.491 22.3546Z" fill="#1B1B1B"/>
<path d="M153.534 28.5305L156.731 24.7751C157.25 24.16 158.163 24.0912 158.778 24.6097C159.393 25.1281 159.462 26.0415 158.944 26.6566L154.234 32.184" fill="#FFDA00"/>
<path fill-rule="evenodd" clip-rule="evenodd" d="M158.18 26.0106C158.349 25.809 158.317 25.529 158.134 25.3743C157.932 25.2042 157.651 25.2355 157.496 25.4195L157.493 25.4233L157.493 25.4233L154.296 29.1787L152.773 27.8822L155.968 24.1285C156.851 23.0841 158.395 22.9787 159.423 23.845C160.469 24.7268 160.575 26.2725 159.708 27.301L159.705 27.3052L159.705 27.3051L154.995 32.8325L153.473 31.5353L158.18 26.0106Z" fill="#1B1B1B"/>
<path d="M145.424 38.0956L145.867 38.4738C148.187 40.4506 152.106 40.5496 154.083 38.2289L158.037 33.5875L149.197 26.0589L149.006 26.2755C149.525 25.6604 149.456 24.7471 148.841 24.2286C148.226 23.7102 147.313 23.7789 146.794 24.394L143.966 27.709C143.966 27.709 139.444 33.0101 145.414 38.0982L145.424 38.0956Z" fill="#FFDA00"/>
<path fill-rule="evenodd" clip-rule="evenodd" d="M159.446 33.4747L154.844 38.8773C153.631 40.3014 151.859 40.9419 150.116 40.9628C148.376 40.9837 146.577 40.3923 145.218 39.2351L145.217 39.2344L145.174 39.1977L145.165 39.2001L144.765 38.8593C143.157 37.4884 142.205 36.0585 141.723 34.6526C141.241 33.2478 141.249 31.9268 141.47 30.8033C141.688 29.6866 142.117 28.7613 142.485 28.1193C142.67 27.7965 142.843 27.54 142.973 27.3608C143.038 27.2711 143.092 27.2003 143.132 27.1498C143.152 27.1246 143.168 27.1043 143.18 27.0893L143.196 27.0707L143.201 27.0644L143.203 27.062L143.204 27.0609C143.205 27.0605 143.205 27.06 143.966 27.709L143.205 27.06L146.032 23.747C146.914 22.7031 148.458 22.5978 149.485 23.464C150.167 24.0384 150.45 24.8943 150.324 25.7056L159.446 33.4747ZM149.003 26.2864L148.242 25.6311C148.412 25.4294 148.381 25.1484 148.197 24.9933C147.995 24.8232 147.714 24.8545 147.559 25.0385L147.555 25.0431L144.729 28.3551L144.725 28.3595C144.721 28.3648 144.713 28.375 144.701 28.3898C144.678 28.4195 144.641 28.4675 144.593 28.5327C144.499 28.6633 144.365 28.8607 144.22 29.1144C143.927 29.6254 143.598 30.3433 143.432 31.1878C143.268 32.0256 143.265 32.9839 143.615 34.0041C143.934 34.9358 144.565 35.9693 145.723 37.0362L146.515 37.7126C146.515 37.7128 146.516 37.713 146.516 37.7133C146.516 37.7133 146.516 37.7132 146.516 37.7133C147.478 38.5323 148.798 38.9785 150.092 38.963C151.383 38.9475 152.558 38.4771 153.322 37.5805L156.627 33.7004L148.548 26.8202L149.003 26.2864Z" fill="#1B1B1B"/>
<path d="M146.937 28.7143L151.647 23.1869C152.165 22.5718 153.079 22.503 153.694 23.0215C154.309 23.5399 154.378 24.4533 153.859 25.0684L149.906 29.7098" fill="#FFDA00"/>
<path fill-rule="evenodd" clip-rule="evenodd" d="M153.096 24.4225C153.265 24.2208 153.233 23.9408 153.049 23.7861C152.848 23.616 152.567 23.6473 152.412 23.8313L152.408 23.8355L152.408 23.8354L147.698 29.3628L146.176 28.0656L150.882 22.5424C150.883 22.5416 150.884 22.5409 150.884 22.5401C151.766 21.496 153.311 21.3906 154.338 22.2568C155.385 23.1386 155.491 24.6843 154.624 25.7128L154.621 25.7168L154.621 25.7168L150.667 30.3582L149.145 29.0613L153.096 24.4225Z" fill="#1B1B1B"/>
<path d="M149.906 29.7097L154.616 24.1824C155.134 23.5672 156.048 23.4985 156.663 24.017C157.278 24.5354 157.347 25.4488 156.828 26.0639L152.118 31.5913" fill="#FFDA00"/>
<path fill-rule="evenodd" clip-rule="evenodd" d="M156.065 25.4179C156.233 25.2163 156.202 24.9363 156.018 24.7816C155.817 24.6116 155.536 24.6429 155.38 24.8269L155.377 24.831L155.377 24.831L150.667 30.3583L149.145 29.0612L153.851 23.538C153.852 23.5372 153.852 23.5364 153.853 23.5356C154.735 22.4915 156.279 22.3861 157.307 23.2523C158.354 24.1342 158.46 25.6798 157.593 26.7084L157.589 26.7125L157.589 26.7125L152.879 32.2398L151.357 30.9427L156.065 25.4179Z" fill="#1B1B1B"/>
<path d="M152.118 31.5913L156.828 26.0639C157.347 25.4488 158.26 25.38 158.875 25.8985C159.49 26.417 159.559 27.3303 159.041 27.9454L154.331 33.4728" fill="#FFDA00"/>
<path fill-rule="evenodd" clip-rule="evenodd" d="M158.277 27.2995C158.446 27.0978 158.414 26.8178 158.231 26.6632C158.029 26.4931 157.748 26.5244 157.593 26.7084L157.589 26.7125L157.589 26.7125L152.879 32.2399L151.357 30.9427L156.064 25.4195C156.064 25.4187 156.065 25.4179 156.065 25.4172C156.948 24.373 158.492 24.2676 159.52 25.1339C160.566 26.0157 160.672 27.5614 159.805 28.5899L159.802 28.594L159.802 28.594L155.092 34.1214L153.569 32.8242L158.277 27.2995Z" fill="#1B1B1B"/>
<path d="M154.321 33.4754L157.518 29.72C158.036 29.1048 158.95 29.0361 159.565 29.5546C160.18 30.073 160.249 30.9864 159.73 31.6015L155.02 37.1289" fill="#FFDA00"/>
<path fill-rule="evenodd" clip-rule="evenodd" d="M158.967 30.9555C159.136 30.7539 159.104 30.4739 158.92 30.3192C158.719 30.1492 158.438 30.1805 158.283 30.3645L158.279 30.3682L158.279 30.3682L155.082 34.1236L153.56 32.8272L156.755 29.0734C157.637 28.0291 159.181 27.9236 160.209 28.7899C161.256 29.6718 161.362 31.2174 160.495 32.246L160.491 32.2501L160.491 32.2501L155.782 37.7774L154.259 36.4803L158.967 30.9555Z" fill="#1B1B1B"/>
<path fill-rule="evenodd" clip-rule="evenodd" d="M159.028 14.8395L161.716 10.6924L163.395 11.7803L160.706 15.9274L159.028 14.8395Z" fill="#1B1B1B"/>
<path fill-rule="evenodd" clip-rule="evenodd" d="M156.082 13.4293L157.677 8.75722L159.57 9.40344L157.975 14.0755L156.082 13.4293Z" fill="#1B1B1B"/>
<path fill-rule="evenodd" clip-rule="evenodd" d="M152.873 12.7747L153.293 7.84829L155.285 8.01788L154.866 12.9442L152.873 12.7747Z" fill="#1B1B1B"/>
</g>
<defs>
<clipPath id="clip0_3204_220">
<rect width="180" height="130" fill="white"/>
</clipPath>
</defs>
</svg>
