<svg width="180" height="130" viewBox="0 0 180 130" fill="none" xmlns="http://www.w3.org/2000/svg">
<g clip-path="url(#clip0_3204_225)">
<path d="M113.71 0H15.71C6.87344 0 -0.290001 7.16344 -0.290001 16V114C-0.290001 122.837 6.87344 130 15.71 130H113.71C122.547 130 129.71 122.837 129.71 114V16C129.71 7.16344 122.547 0 113.71 0Z" fill="#8FDFF3"/>
<path d="M47.87 105.06V108.79C47.87 108.79 38.5 107.51 34.13 116.99C29.76 126.47 30.3 130.03 30.3 130.03H65.86C65.86 130.03 65.86 116.78 62.13 112.84C58.4 108.9 54.33 108.9 54.33 108.9V104.53L47.86 105.06H47.87Z" fill="white"/>
<path fill-rule="evenodd" clip-rule="evenodd" d="M55.33 103.445V107.996C55.8051 108.071 56.4275 108.205 57.1463 108.443C58.7625 108.98 60.8616 110.046 62.8562 112.153C63.955 113.313 64.7087 115.067 65.2463 116.908C65.7918 118.776 66.1497 120.86 66.3863 122.791C66.6235 124.726 66.7417 126.533 66.8007 127.853C66.8303 128.515 66.8451 129.056 66.8525 129.433C66.8562 129.622 66.8581 129.77 66.859 129.871C66.8595 129.922 66.8598 129.961 66.8599 129.987L66.86 130.018L66.86 130.029C66.86 130.029 66.86 130.03 65.86 130.03H66.86V131.03H29.4402L29.3113 130.18L30.3 130.03C29.3113 130.18 29.3112 130.179 29.3111 130.178L29.3108 130.177L29.3103 130.173L29.3091 130.165L29.3065 130.145C29.3046 130.13 29.3024 130.111 29.3001 130.089C29.2956 130.044 29.2907 129.986 29.2868 129.912C29.2789 129.765 29.2747 129.559 29.2846 129.289C29.3044 128.749 29.3804 127.955 29.5953 126.871C30.025 124.703 31.0112 121.367 33.2218 116.571C35.5462 111.529 39.2355 109.31 42.3519 108.377C43.8979 107.914 45.2953 107.769 46.308 107.739C46.5109 107.733 46.6988 107.731 46.87 107.733V105.06H47.8191L47.7784 104.063L55.33 103.445ZM48.87 105.981V109.936L47.7371 109.781L47.7356 109.781L47.7244 109.78C47.7123 109.778 47.6917 109.776 47.6629 109.773C47.6054 109.767 47.5155 109.759 47.3967 109.752C47.159 109.737 46.8067 109.725 46.3673 109.738C45.4866 109.764 44.2683 109.891 42.9256 110.293C40.2645 111.09 37.0838 112.971 35.0382 117.409C32.8788 122.093 31.95 125.277 31.5572 127.259C31.4057 128.024 31.3341 128.608 31.3022 129.03H64.8423C64.8339 128.725 64.8213 128.359 64.8027 127.943C64.7452 126.656 64.6303 124.904 64.4012 123.034C64.1715 121.16 63.8301 119.193 63.3265 117.468C62.815 115.717 62.1699 114.337 61.4038 113.528C59.6684 111.694 57.8675 110.79 56.5162 110.342C55.8389 110.117 55.2735 110.006 54.8856 109.952C54.6918 109.925 54.543 109.912 54.4474 109.906C54.3996 109.903 54.3653 109.901 54.3453 109.901L54.3264 109.9C54.3264 109.9 54.3264 109.9 54.3264 109.9L53.33 109.9V105.615L48.87 105.981Z" fill="#1B1B1B"/>
<path d="M50.63 107.96C57.1635 107.96 62.46 102.35 62.46 95.43C62.46 88.5099 57.1635 82.9 50.63 82.9C44.0965 82.9 38.8 88.5099 38.8 95.43C38.8 102.35 44.0965 107.96 50.63 107.96Z" fill="white"/>
<path fill-rule="evenodd" clip-rule="evenodd" d="M50.63 83.9C44.7021 83.9 39.8 89.0072 39.8 95.43C39.8 101.853 44.7021 106.96 50.63 106.96C56.5579 106.96 61.46 101.853 61.46 95.43C61.46 89.0072 56.5579 83.9 50.63 83.9ZM37.8 95.43C37.8 88.0126 43.4908 81.9 50.63 81.9C57.7692 81.9 63.46 88.0126 63.46 95.43C63.46 102.847 57.7692 108.96 50.63 108.96C43.4908 108.96 37.8 102.847 37.8 95.43Z" fill="#1B1B1B"/>
<path fill-rule="evenodd" clip-rule="evenodd" d="M52.39 97.19V93.67H54.39V97.19H52.39Z" fill="#1B1B1B"/>
<path fill-rule="evenodd" clip-rule="evenodd" d="M56.11 97.19V93.67H58.11V97.19H56.11Z" fill="#1B1B1B"/>
<path fill-rule="evenodd" clip-rule="evenodd" d="M121.115 126.877C118.966 128.222 116.427 129 113.71 129H80.4895L79.17 118.34C76.57 117.18 74.76 114.57 74.76 111.54C74.76 107.42 78.1 104.08 82.22 104.08C86.34 104.08 89.68 107.42 89.68 111.54C89.68 113.8 88.68 115.81 87.1 117.18L88.26 123.92C90.75 109.2 100.5 110.79 100.5 110.79L99.8 106.11L106.86 104.22L107.76 109.39C113.53 109.69 117.31 115.16 118.7 117.65C119.542 119.159 120.495 123.607 121.115 126.877Z" fill="white"/>
<path fill-rule="evenodd" clip-rule="evenodd" d="M73.76 111.54C73.76 106.868 77.5477 103.08 82.22 103.08C86.8923 103.08 90.68 106.868 90.68 111.54C90.68 113.896 89.7205 116.013 88.1773 117.544L88.4463 119.107C90.0336 114.604 92.4784 112.194 94.8491 110.95C96.3655 110.154 97.7972 109.865 98.853 109.775C99.0227 109.761 99.183 109.752 99.3327 109.746L98.811 106.258L99.5414 105.144L106.601 103.254L107.845 104.049L108.614 108.464C111.449 108.831 113.778 110.31 115.555 111.968C117.497 113.779 118.848 115.865 119.573 117.163C120.071 118.054 120.546 119.675 120.962 121.364C121.389 123.099 121.786 125.049 122.097 126.691L121.645 127.725C119.342 129.166 116.621 130 113.71 130H80.4895L79.4971 129.123L78.2441 119C75.5764 117.583 73.76 114.773 73.76 111.54ZM100.34 111.776C100.34 111.777 100.34 111.777 100.34 111.777L100.342 111.778L100.343 111.778L100.335 111.777C100.325 111.775 100.306 111.773 100.279 111.77C100.224 111.764 100.138 111.755 100.022 111.749C99.7907 111.737 99.4469 111.732 99.0223 111.768C98.1722 111.84 97.0108 112.074 95.7784 112.721C93.3633 113.988 90.4507 116.965 89.246 124.087L87.2745 124.09L86.1145 117.35L86.4449 116.425C87.8164 115.235 88.68 113.497 88.68 111.54C88.68 107.972 85.7877 105.08 82.22 105.08C78.6523 105.08 75.76 107.972 75.76 111.54C75.76 114.162 77.3255 116.422 79.5774 117.427L80.1624 118.217L81.3733 128H113.71C115.991 128 118.135 127.41 120 126.375C119.716 124.913 119.377 123.294 119.02 121.843C118.594 120.113 118.172 118.756 117.827 118.138C117.162 116.946 115.928 115.051 114.19 113.43C112.452 111.809 110.277 110.522 107.708 110.389L106.775 109.562L106.062 105.469L100.921 106.845L101.489 110.642L100.34 111.776Z" fill="#1B1B1B"/>
<path d="M101.67 109.01C108.204 109.01 113.5 103.4 113.5 96.4801C113.5 89.56 108.204 83.9501 101.67 83.9501C95.1365 83.9501 89.84 89.56 89.84 96.4801C89.84 103.4 95.1365 109.01 101.67 109.01Z" fill="white"/>
<path fill-rule="evenodd" clip-rule="evenodd" d="M101.67 84.9501C95.7421 84.9501 90.84 90.0573 90.84 96.4801C90.84 102.903 95.7421 108.01 101.67 108.01C107.598 108.01 112.5 102.903 112.5 96.4801C112.5 90.0573 107.598 84.9501 101.67 84.9501ZM88.84 96.4801C88.84 89.0626 94.5308 82.9501 101.67 82.9501C108.809 82.9501 114.5 89.0626 114.5 96.4801C114.5 103.898 108.809 110.01 101.67 110.01C94.5308 110.01 88.84 103.898 88.84 96.4801Z" fill="#1B1B1B"/>
<path fill-rule="evenodd" clip-rule="evenodd" d="M93.4 98.2401V94.7301H95.4V98.2401H93.4Z" fill="#1B1B1B"/>
<path fill-rule="evenodd" clip-rule="evenodd" d="M97.12 98.2401V94.7301H99.12V98.2401H97.12Z" fill="#1B1B1B"/>
<path d="M25.49 6.45001C13 6.45001 2.88 14.39 2.88 24.19C2.88 31.67 8.78 38.06 17.12 40.67C18.26 42.89 19.95 45.36 22.12 46.3C22.12 46.3 21.62 44.05 22.03 41.72C23.16 41.86 24.31 41.93 25.49 41.93C37.98 41.93 48.1 33.99 48.1 24.19C48.1 14.39 37.98 6.45001 25.49 6.45001Z" fill="#C7E8EF"/>
<path fill-rule="evenodd" clip-rule="evenodd" d="M1.88 24.19C1.88 13.6254 12.6873 5.45001 25.49 5.45001C38.2927 5.45001 49.1 13.6254 49.1 24.19C49.1 34.7547 38.2927 42.93 25.49 42.93C24.6131 42.93 23.7511 42.8926 22.9003 42.8176C22.8452 43.5431 22.8687 44.2323 22.9175 44.7977C22.9519 45.1955 22.9981 45.5242 23.0352 45.7506C23.0537 45.8636 23.0698 45.9507 23.0809 46.0076C23.0864 46.036 23.0907 46.0569 23.0933 46.0697L23.0961 46.0827L23.0962 46.0831L23.0963 46.0834L23.0963 46.0837L23.0964 46.0842L23.0965 46.0845L23.5215 47.9969L21.7225 47.2176C20.4395 46.6618 19.3548 45.6819 18.4627 44.6018C17.6612 43.6314 16.981 42.5384 16.4242 41.4967C8.01763 38.7232 1.88 32.12 1.88 24.19ZM20.8804 44.2656C20.8484 43.4686 20.8739 42.5195 21.0451 41.5467L21.2098 40.6108L22.153 40.7276C23.2409 40.8624 24.3498 40.93 25.49 40.93C37.6673 40.93 47.1 33.2254 47.1 24.19C47.1 15.1547 37.6673 7.45001 25.49 7.45001C13.3127 7.45001 3.88 15.1547 3.88 24.19C3.88 31.0957 9.34839 37.1901 17.4187 39.7157L17.8183 39.8407L18.0096 40.2132C18.5594 41.2839 19.2293 42.3893 20.0048 43.3282C20.2884 43.6717 20.5807 43.9861 20.8804 44.2656Z" fill="#1B1B1B"/>
<path d="M25.54 25.3C31.3003 25.3 35.97 20.6303 35.97 14.87C35.97 9.10967 31.3003 4.44 25.54 4.44C19.7797 4.44 15.11 9.10967 15.11 14.87C15.11 20.6303 19.7797 25.3 25.54 25.3Z" fill="#8AD953"/>
<path fill-rule="evenodd" clip-rule="evenodd" d="M25.54 5.44C20.332 5.44 16.11 9.66196 16.11 14.87C16.11 20.078 20.332 24.3 25.54 24.3C30.748 24.3 34.97 20.078 34.97 14.87C34.97 9.66196 30.748 5.44 25.54 5.44ZM14.11 14.87C14.11 8.55739 19.2274 3.44 25.54 3.44C31.8526 3.44 36.97 8.55739 36.97 14.87C36.97 21.1826 31.8526 26.3 25.54 26.3C19.2274 26.3 14.11 21.1826 14.11 14.87Z" fill="#1B1B1B"/>
<path d="M23.23 20.62L22.66 27.17L18.67 31.32H22.66L25.06 34.2L27.62 31.16L31.45 32.28L28.89 27.17L28.34 20.62" fill="#AA793F"/>
<path fill-rule="evenodd" clip-rule="evenodd" d="M21.6944 26.7315L22.2338 20.5333L24.2262 20.7067L23.6256 27.6085L21.0187 30.32H23.1284L25.064 32.6428L27.275 30.0173L29.528 30.6761L27.9096 27.4457L27.3435 20.7037L29.3365 20.5363L29.8704 26.8944L33.372 33.8839L27.965 32.3028L25.056 35.7573L22.1916 32.32H16.3213L21.6944 26.7315Z" fill="#1B1B1B"/>
<path d="M93.28 34.03C80.79 34.03 70.67 41.97 70.67 51.77C70.67 59.61 77.16 66.26 86.15 68.6C87.71 70.68 89.99 73.1 92.49 73.65C92.49 73.65 91.63 71.7 91.53 69.45C92.11 69.48 92.69 69.51 93.28 69.51C105.77 69.51 115.89 61.57 115.89 51.77C115.89 41.97 105.77 34.03 93.28 34.03Z" fill="#C7E8EF"/>
<path fill-rule="evenodd" clip-rule="evenodd" d="M69.67 51.77C69.67 41.2053 80.4773 33.03 93.28 33.03C106.083 33.03 116.89 41.2053 116.89 51.77C116.89 62.3346 106.083 70.51 93.28 70.51C93.065 70.51 92.8517 70.5062 92.6408 70.5C92.7348 71.1019 92.8717 71.6548 93.0064 72.11C93.1123 72.4677 93.2148 72.7585 93.2898 72.9573C93.3272 73.0566 93.3576 73.1324 93.3778 73.1818C93.388 73.2064 93.3955 73.2244 93.4002 73.2353L93.4049 73.2464L93.405 73.2464L93.4051 73.2468L93.4052 73.247L93.4054 73.2475L93.4056 73.2478L94.2005 75.0502L92.2751 74.6266C90.798 74.3017 89.4546 73.4441 88.3126 72.4544C87.261 71.5431 86.3282 70.4743 85.561 69.4777C76.4619 66.9863 69.67 60.1113 69.67 51.77ZM90.8768 71.8831C90.7116 71.1876 90.5697 70.3655 90.531 69.4944L90.4821 68.3944L91.5817 68.4513C92.1657 68.4815 92.7201 68.51 93.28 68.51C105.457 68.51 114.89 60.8053 114.89 51.77C114.89 42.7346 105.457 35.03 93.28 35.03C81.1027 35.03 71.67 42.7346 71.67 51.77C71.67 59.006 77.6899 65.3646 86.4019 67.6322L86.7402 67.7203L86.95 68C87.7053 69.0071 88.6174 70.0721 89.6224 70.943C90.0362 71.3016 90.4556 71.6184 90.8768 71.8831Z" fill="#1B1B1B"/>
<path d="M101.26 33.43C100.34 29.9 97.14 27.3 93.33 27.3C89.52 27.3 86.25 29.96 85.37 33.54C82.01 34.57 79.57 37.69 79.57 41.39C79.57 45.92 83.25 49.6 87.78 49.6C90.02 49.6 92.05 48.7 93.53 47.25C95.01 48.7 97.04 49.6 99.28 49.6C103.81 49.6 107.49 45.92 107.49 41.39C107.49 37.54 104.84 34.32 101.27 33.43H101.26Z" fill="#8AD953"/>
<path fill-rule="evenodd" clip-rule="evenodd" d="M84.5489 32.7635C85.7188 29.0197 89.244 26.3 93.33 26.3C97.4019 26.3 100.85 28.9456 102.062 32.6151C105.784 33.7939 108.49 37.2686 108.49 41.39C108.49 46.4723 104.362 50.6 99.28 50.6C97.1038 50.6 95.104 49.8421 93.53 48.584C91.956 49.8421 89.9562 50.6 87.78 50.6C82.6977 50.6 78.57 46.4723 78.57 41.39C78.57 37.4347 81.0557 34.0718 84.5489 32.7635ZM93.33 28.3C89.9893 28.3 87.1134 30.637 86.3411 33.7787L86.2056 34.3298L85.6631 34.4961C82.7111 35.401 80.57 38.1418 80.57 41.39C80.57 45.3677 83.8023 48.6 87.78 48.6C89.7468 48.6 91.5287 47.8108 92.8302 46.5357L93.53 45.85L94.2298 46.5357C95.5314 47.8108 97.3133 48.6 99.28 48.6C103.258 48.6 106.49 45.3677 106.49 41.39C106.49 38.0531 104.222 35.2518 101.143 34.43H100.487L100.292 33.6822C99.484 30.5808 96.6728 28.3 93.33 28.3Z" fill="#1B1B1B"/>
<path d="M90.97 43.46L90.4 59.01H96.63L96.08 43.46" fill="#AA793F"/>
<path fill-rule="evenodd" clip-rule="evenodd" d="M89.9707 43.4233L91.9693 43.4966L91.4373 58.01H95.594L95.0806 43.4953L97.0794 43.4246L97.666 60.01H89.3627L89.9707 43.4233Z" fill="#1B1B1B"/>
<path d="M74.13 49.46C74.13 39.66 64.01 31.72 51.52 31.72C39.03 31.72 28.91 39.66 28.91 49.46C28.91 59.26 39.03 67.2 51.52 67.2C52.55 67.2 53.55 67.14 54.54 67.04C54.6 69.48 53.68 71.73 53.68 71.73C56.49 71.05 58.96 68.01 60.45 65.76C68.49 63.04 74.13 56.77 74.13 49.46Z" fill="#C7E8EF"/>
<path fill-rule="evenodd" clip-rule="evenodd" d="M27.91 49.46C27.91 38.8953 38.7173 30.72 51.52 30.72C64.3228 30.72 75.13 38.8953 75.13 49.46C75.13 57.2283 69.2323 63.7263 61.0936 66.5956C60.3493 67.6917 59.3841 68.9518 58.2581 70.0497C57.0453 71.2324 55.5706 72.3013 53.9152 72.7019L52.0141 73.162L52.7539 71.3528L52.754 71.3526L52.7541 71.3521L52.7543 71.3518L52.7544 71.3515L52.7546 71.3509L52.7599 71.3377C52.7649 71.3248 52.7731 71.3038 52.7839 71.2752C52.8056 71.2179 52.8377 71.1302 52.8768 71.0162C52.955 70.7879 53.0602 70.4558 53.1639 70.0515C53.3043 69.5042 53.4378 68.8401 53.5024 68.1313C52.8525 68.1753 52.1932 68.2 51.52 68.2C38.7173 68.2 27.91 60.0246 27.91 49.46ZM55.2442 69.9394C55.7933 69.5802 56.3354 69.1311 56.8619 68.6178C57.9475 67.5591 58.8931 66.2998 59.6162 65.2078L59.8053 64.9224L60.1295 64.8127C67.9043 62.1824 73.13 56.2092 73.13 49.46C73.13 40.4246 63.6973 32.72 51.52 32.72C39.3428 32.72 29.91 40.4246 29.91 49.46C29.91 58.4953 39.3428 66.2 51.52 66.2C52.5109 66.2 53.4769 66.1423 54.4395 66.045L55.5132 65.9366L55.5397 67.0154C55.566 68.0831 55.4225 69.104 55.2442 69.9394Z" fill="#1B1B1B"/>
<path d="M61.63 45.32C61.84 44.71 61.96 44.06 61.96 43.38C61.96 40.08 59.29 37.41 55.99 37.41C54.44 37.41 53.04 38 51.98 38.97C50.89 37.6 49.21 36.73 47.32 36.73C44.02 36.73 41.35 39.4 41.35 42.7C41.35 43.79 41.65 44.8 42.15 45.68C40.41 46.72 39.23 48.62 39.23 50.8C39.23 54.09 41.9 56.76 45.19 56.77C45.84 59.37 48.18 61.3 50.98 61.3C53.99 61.3 56.47 59.07 56.89 56.18C57.43 56.34 58.01 56.43 58.6 56.43C61.9 56.43 64.57 53.76 64.57 50.46C64.57 48.27 63.39 46.37 61.64 45.33L61.63 45.32Z" fill="#FFFEE6"/>
<path fill-rule="evenodd" clip-rule="evenodd" d="M40.35 42.7C40.35 38.8477 43.4677 35.73 47.32 35.73C49.1651 35.73 50.842 36.4422 52.0864 37.6128C53.1979 36.854 54.5385 36.41 55.99 36.41C59.8423 36.41 62.96 39.5277 62.96 43.38C62.96 43.9043 62.8992 44.4117 62.7887 44.8982C64.4714 46.1656 65.57 48.1766 65.57 50.46C65.57 54.3123 62.4523 57.43 58.6 57.43C58.2777 57.43 57.9586 57.4071 57.6462 57.3637C56.772 60.2157 54.1262 62.3 50.98 62.3C47.9701 62.3 45.4202 60.392 44.4402 57.7282C40.9514 57.3458 38.23 54.3904 38.23 50.8C38.23 48.5828 39.2738 46.6179 40.8768 45.3468C40.5427 44.5354 40.35 43.6447 40.35 42.7ZM47.32 37.73C44.5723 37.73 42.35 39.9523 42.35 42.7C42.35 43.6024 42.5976 44.4435 43.0195 45.186L43.5027 46.0365L42.663 46.5383C41.2084 47.4078 40.23 48.9909 40.23 50.8C40.23 53.5371 42.4524 55.7617 45.193 55.77L45.9714 55.7724L46.1601 56.5274C46.7024 58.6963 48.6532 60.3 50.98 60.3C53.4824 60.3 55.5503 58.4454 55.9004 56.0362L56.0665 54.893L57.1741 55.2212C57.6263 55.3552 58.1107 55.43 58.6 55.43C61.3477 55.43 63.57 53.2077 63.57 50.46C63.57 48.6406 62.5915 47.0587 61.1291 46.1896L61.0215 46.1257L60.4811 45.5853L60.6845 44.9945C60.8612 44.4811 60.96 43.9409 60.96 43.38C60.96 40.6323 58.7377 38.41 55.99 38.41C54.7008 38.41 53.539 38.8989 52.6551 39.7077L51.8646 40.4311L51.1975 39.5926C50.291 38.4532 48.8955 37.73 47.32 37.73Z" fill="#1B1B1B"/>
<path d="M51.51 51.73C53.1889 51.73 54.55 50.3689 54.55 48.69C54.55 47.011 53.1889 45.65 51.51 45.65C49.8311 45.65 48.47 47.011 48.47 48.69C48.47 50.3689 49.8311 51.73 51.51 51.73Z" fill="#FFCE00"/>
<path fill-rule="evenodd" clip-rule="evenodd" d="M51.51 46.65C50.3833 46.65 49.47 47.5633 49.47 48.69C49.47 49.8166 50.3833 50.73 51.51 50.73C52.6367 50.73 53.55 49.8166 53.55 48.69C53.55 47.5633 52.6367 46.65 51.51 46.65ZM47.47 48.69C47.47 46.4587 49.2788 44.65 51.51 44.65C53.7412 44.65 55.55 46.4587 55.55 48.69C55.55 50.9212 53.7412 52.73 51.51 52.73C49.2788 52.73 47.47 50.9212 47.47 48.69Z" fill="#1B1B1B"/>
<path fill-rule="evenodd" clip-rule="evenodd" d="M-0.290001 81.6912C3.84457 85.8881 10.324 88.59 17.61 88.59H17.6102C17.8001 88.59 17.9901 88.59 18.18 88.58C20.46 90.01 23.88 91.72 26.68 91.21C26.68 91.21 25.2 89.79 24.23 87.82C33.49 85.6 40.22 78.85 40.22 70.86V70.85C40.22 61.05 30.1 53.11 17.61 53.11C10.324 53.11 3.84457 55.8119 -0.290001 60.0088V81.6912Z" fill="#C7E8EF"/>
<path fill-rule="evenodd" clip-rule="evenodd" d="M-1.00238 59.307C3.34118 54.8979 10.0878 52.11 17.61 52.11C30.4127 52.11 41.22 60.2853 41.22 70.85V70.86C41.22 79.0773 34.6411 85.8663 25.7406 88.4539C26.0301 88.9014 26.3285 89.2972 26.5931 89.621C26.8222 89.9013 27.022 90.1231 27.1626 90.2728C27.2328 90.3476 27.2879 90.4041 27.3242 90.4406C27.3334 90.4498 27.3413 90.4578 27.348 90.4644C27.3545 90.4709 27.3599 90.4762 27.3639 90.4802L27.3722 90.4883L27.3731 90.4891L28.7843 91.8432L26.8592 92.1938C25.2096 92.4943 23.4595 92.1325 21.8929 91.5621C20.427 91.0284 19.0382 90.2809 17.9091 89.5886C17.8079 89.59 17.7108 89.59 17.6208 89.59H17.6102C10.088 89.59 3.34118 86.802 -1.00238 82.393L-1.29 82.101V59.5989L-1.00238 59.307ZM24.5204 90.2078C24.1209 89.6596 23.6958 88.9989 23.3329 88.2617L22.7802 87.1392L23.9969 86.8475C32.9757 84.695 39.22 78.2342 39.22 70.86V70.85C39.22 61.8146 29.7873 54.11 17.61 54.11C10.7301 54.11 4.64771 56.6013 0.709999 60.425V81.2749C4.64771 85.0986 10.7301 87.59 17.61 87.59C17.8043 87.59 17.9681 87.5898 18.1275 87.5814L18.4433 87.5647L18.7113 87.7328C19.8188 88.4274 21.1778 89.1733 22.5771 89.6828C23.2421 89.925 23.8953 90.1059 24.5204 90.2078Z" fill="#1B1B1B"/>
<path d="M26.61 81.4L19.35 77.48L14.7 84.29L13.23 76.18L5.01 76.79L10.44 70.58L4.84 64.54L13.08 64.91L14.31 56.76L19.15 63.44L26.29 59.32L24.09 67.27L31.77 70.28L24.18 73.52L26.61 81.4Z" fill="#FFCE00"/>
<path fill-rule="evenodd" clip-rule="evenodd" d="M13.6859 54.1943L19.4309 62.1234L27.905 57.2336L25.2942 66.6679L34.4097 70.2405L25.401 74.0861L28.286 83.4414L19.6677 78.788L14.1509 86.8675L12.4065 77.2439L2.65181 77.9678L9.0945 70.5996L2.44868 63.4316L12.2255 63.8706L13.6859 54.1943ZM14.9341 59.3257L13.9345 65.9494L7.23132 65.6484L11.7855 70.5604L7.36819 75.6123L14.0535 75.1161L15.2491 81.7125L19.0323 76.172L24.934 79.3586L22.959 72.9539L29.1303 70.3195L22.8858 67.8721L24.675 61.4064L18.8691 64.7566L14.9341 59.3257Z" fill="#1B1B1B"/>
<path d="M17.62 74.09C19.785 74.09 21.54 72.335 21.54 70.17C21.54 68.005 19.785 66.25 17.62 66.25C15.455 66.25 13.7 68.005 13.7 70.17C13.7 72.335 15.455 74.09 17.62 74.09Z" fill="#FF8E14"/>
<path fill-rule="evenodd" clip-rule="evenodd" d="M17.62 67.25C16.0073 67.25 14.7 68.5573 14.7 70.17C14.7 71.7827 16.0073 73.09 17.62 73.09C19.2327 73.09 20.54 71.7827 20.54 70.17C20.54 68.5573 19.2327 67.25 17.62 67.25ZM12.7 70.17C12.7 67.4528 14.9028 65.25 17.62 65.25C20.3372 65.25 22.54 67.4528 22.54 70.17C22.54 72.8872 20.3372 75.09 17.62 75.09C14.9028 75.09 12.7 72.8872 12.7 70.17Z" fill="#1B1B1B"/>
<path d="M113.71 2C121.43 2 127.71 8.28 127.71 16V114C127.71 121.72 121.43 128 113.71 128H15.71C7.99 128 1.71 121.72 1.71 114V16C1.71 8.28 7.99 2 15.71 2H113.71ZM113.71 0H15.71C6.88 0 -0.290001 7.16 -0.290001 16V114C-0.290001 122.84 6.87 130 15.71 130H113.71C122.55 130 129.71 122.84 129.71 114V16C129.71 7.16 122.55 0 113.71 0Z" fill="#1B1B1B"/>
<path d="M144.53 27.07C144.53 17.27 134.41 9.33002 121.92 9.33002C109.43 9.33002 99.31 17.27 99.31 27.07C99.31 36.87 109.43 44.81 121.92 44.81C122.26 44.81 122.6 44.81 122.94 44.79C123.01 47.31 121.98 49.68 121.98 49.68C124.76 49.07 127.26 46.17 128.8 43.97C137.92 41.69 144.53 34.98 144.53 27.07Z" fill="#C7E8EF"/>
<path fill-rule="evenodd" clip-rule="evenodd" d="M98.31 27.07C98.31 16.5054 109.117 8.33002 121.92 8.33002C134.723 8.33002 145.53 16.5054 145.53 27.07C145.53 35.4799 138.624 42.41 129.404 44.8473C128.639 45.9106 127.661 47.1143 126.534 48.1558C125.308 49.2876 123.832 50.2974 122.194 50.6568L120.283 51.0762L121.062 49.2827L121.062 49.2825L121.063 49.2821L121.063 49.2818L121.063 49.2814L121.063 49.2806L121.069 49.2665C121.075 49.2528 121.084 49.2306 121.096 49.2003C121.121 49.1398 121.157 49.0474 121.2 48.9275C121.288 48.6872 121.406 48.3386 121.522 47.9157C121.687 47.3145 121.842 46.583 121.909 45.81C109.111 45.8054 98.31 37.6317 98.31 27.07ZM123.584 47.9232C124.122 47.5875 124.656 47.1677 125.176 46.6867C126.27 45.6763 127.234 44.4634 127.981 43.3966L128.195 43.0905L128.557 42.9999C137.397 40.7899 143.53 34.3707 143.53 27.07C143.53 18.0347 134.097 10.33 121.92 10.33C109.743 10.33 100.31 18.0347 100.31 27.07C100.31 36.1054 109.743 43.81 121.92 43.81C122.265 43.81 122.575 43.8097 122.881 43.7917L123.911 43.7312L123.94 44.7622C123.972 45.9191 123.795 47.0298 123.584 47.9232Z" fill="#1B1B1B"/>
<path d="M134.91 26.04C134.91 24.92 133.99 23.91 132.54 23.21C133.47 21.87 133.77 20.52 133.2 19.54C132.64 18.57 131.34 18.15 129.73 18.27C129.86 16.64 129.45 15.33 128.46 14.76C127.49 14.2 126.16 14.49 124.82 15.39C124.12 13.92 123.1 12.98 121.97 12.98C120.84 12.98 119.84 13.9 119.14 15.35C117.8 14.42 116.45 14.12 115.47 14.69C114.5 15.25 114.08 16.55 114.2 18.16C112.57 18.03 111.26 18.44 110.69 19.43C110.13 20.4 110.42 21.73 111.32 23.07C109.85 23.77 108.91 24.79 108.91 25.92C108.91 27.05 109.83 28.05 111.28 28.75C110.35 30.09 110.05 31.44 110.62 32.42C111.18 33.39 112.48 33.81 114.09 33.69C113.96 35.32 114.37 36.63 115.36 37.2C116.33 37.76 117.66 37.47 119 36.57C119.7 38.04 120.72 38.98 121.85 38.98C122.98 38.98 123.98 38.06 124.68 36.61C126.02 37.54 127.37 37.84 128.35 37.27C129.32 36.71 129.74 35.41 129.62 33.8C131.25 33.93 132.56 33.52 133.13 32.53C133.69 31.56 133.4 30.23 132.5 28.89C133.97 28.19 134.91 27.17 134.91 26.04Z" fill="#E079D4"/>
<path fill-rule="evenodd" clip-rule="evenodd" d="M118.777 13.9727C119.538 12.8408 120.609 11.98 121.97 11.98C123.34 11.98 124.428 12.865 125.195 14.0214C126.426 13.4244 127.788 13.2172 128.96 13.894C130.154 14.5822 130.654 15.8827 130.739 17.2676C132.107 17.3629 133.389 17.8687 134.065 19.0387C134.754 20.2251 134.537 21.6067 133.917 22.8479C135.05 23.6119 135.91 24.6881 135.91 26.04C135.91 27.4102 135.025 28.4982 133.869 29.2646C134.466 30.4961 134.673 31.8576 133.996 33.03C133.308 34.2243 132.007 34.7245 130.622 34.8094C130.527 36.177 130.021 37.4591 128.851 38.1353C127.665 38.8244 126.284 38.6072 125.043 37.9874C124.282 39.1193 123.211 39.98 121.85 39.98C120.48 39.98 119.392 39.0951 118.625 37.9386C117.394 38.5357 116.032 38.7429 114.86 38.0661L115.36 37.2L114.861 38.0667C113.666 37.3786 113.166 36.0778 113.081 34.6925C111.713 34.5972 110.431 34.0913 109.755 32.9214C109.066 31.7352 109.283 30.354 109.903 29.113C108.771 28.3519 107.91 27.2806 107.91 25.92C107.91 24.5498 108.795 23.4619 109.951 22.6955C109.354 21.464 109.147 20.1024 109.824 18.9301L110.69 19.43L109.823 18.9311C110.511 17.7361 111.812 17.2356 113.198 17.1506C113.293 15.7831 113.799 14.501 114.969 13.8248C116.155 13.1357 117.536 13.3529 118.777 13.9727ZM121.97 13.98C121.43 13.98 120.688 14.4446 120.041 15.7848L119.532 16.8391L118.57 16.1716C117.333 15.3135 116.438 15.2838 115.973 15.5545L115.97 15.5561L115.97 15.5561C115.508 15.823 115.087 16.6038 115.197 18.0857L115.284 19.2497L114.12 19.1569C112.615 19.0368 111.831 19.4528 111.557 19.929L111.556 19.93C111.29 20.3916 111.317 21.2723 112.15 22.5125L112.796 23.4746L111.75 23.9729C110.39 24.6207 109.91 25.3837 109.91 25.92C109.91 26.4601 110.375 27.2025 111.715 27.8495L112.769 28.3584L112.102 29.3202C111.243 30.5566 111.214 31.4519 111.484 31.9173L111.486 31.9201C111.753 32.3823 112.534 32.8033 114.016 32.6928L115.18 32.6061L115.087 33.7695C114.967 35.2755 115.383 36.0592 115.859 36.3334L115.86 36.334C116.322 36.6005 117.202 36.5729 118.442 35.7399L119.405 35.0937L119.903 36.1401C120.551 37.5005 121.314 37.98 121.85 37.98C122.39 37.98 123.132 37.5155 123.779 36.1753L124.288 35.121L125.25 35.7885C126.487 36.6466 127.382 36.6763 127.847 36.4056L127.85 36.404C128.312 36.1371 128.733 35.3563 128.623 33.8744L128.536 32.7104L129.699 32.8032C131.205 32.9233 131.989 32.5073 132.263 32.0311L132.264 32.0301C132.53 31.5685 132.503 30.6878 131.67 29.4476L131.024 28.4855L132.07 27.9872C133.43 27.3394 133.91 26.5764 133.91 26.04C133.91 25.5084 133.443 24.7565 132.105 24.1106L131.051 23.6016L131.718 22.6399C132.577 21.4035 132.606 20.5082 132.336 20.0428L132.334 20.04C132.067 19.5778 131.286 19.1568 129.804 19.2673L128.64 19.354L128.733 18.1905C128.853 16.6845 128.437 15.9008 127.961 15.6267L127.96 15.6261C127.498 15.3596 126.618 15.3872 125.378 16.2202L124.415 16.8664L123.917 15.82C123.269 14.4596 122.506 13.98 121.97 13.98Z" fill="#1B1B1B"/>
<path d="M121.81 29.02C123.489 29.02 124.85 27.6589 124.85 25.98C124.85 24.3011 123.489 22.94 121.81 22.94C120.131 22.94 118.77 24.3011 118.77 25.98C118.77 27.6589 120.131 29.02 121.81 29.02Z" fill="#FFCE00"/>
<path fill-rule="evenodd" clip-rule="evenodd" d="M121.81 23.94C120.683 23.94 119.77 24.8533 119.77 25.98C119.77 27.1067 120.683 28.02 121.81 28.02C122.937 28.02 123.85 27.1067 123.85 25.98C123.85 24.8533 122.937 23.94 121.81 23.94ZM117.77 25.98C117.77 23.7488 119.579 21.94 121.81 21.94C124.041 21.94 125.85 23.7488 125.85 25.98C125.85 28.2112 124.041 30.02 121.81 30.02C119.579 30.02 117.77 28.2112 117.77 25.98Z" fill="#1B1B1B"/>
<path d="M160.23 71.84C160.23 62.04 150.11 54.1 137.62 54.1C125.13 54.1 115.01 62.04 115.01 71.84C115.01 81.64 124.8 89.31 137 89.57C137.24 92.27 136.07 94.96 136.07 94.96C138.92 94.34 141.49 91.29 143.02 89.07C152.9 87.17 160.23 80.18 160.23 71.85V71.84Z" fill="#C7E8EF"/>
<path fill-rule="evenodd" clip-rule="evenodd" d="M114.01 71.84C114.01 61.2753 124.817 53.1 137.62 53.1C150.423 53.1 161.23 61.2753 161.23 71.84V71.85C161.23 80.7061 153.582 87.9048 143.609 89.972C142.849 91.0429 141.864 92.2736 140.725 93.3439C139.477 94.5159 137.963 95.5717 136.283 95.9371L134.374 96.3523L135.152 94.5624L135.153 94.5622L135.153 94.5618L135.153 94.5615L135.153 94.5611L135.154 94.5598L135.16 94.5435C135.167 94.5277 135.178 94.5022 135.191 94.4678C135.219 94.3989 135.259 94.2942 135.308 94.1589C135.406 93.8877 135.535 93.4964 135.657 93.0259C135.844 92.3066 136.007 91.4327 136.03 90.5347C123.95 89.8998 114.01 82.1283 114.01 71.84ZM137.673 93.2051C138.242 92.8505 138.806 92.4016 139.355 91.886C140.475 90.8347 141.454 89.5795 142.197 88.5025L142.429 88.1653L142.831 88.088C152.423 86.2433 159.23 79.5357 159.23 71.85V71.84C159.23 62.8046 149.797 55.1 137.62 55.1C125.443 55.1 116.01 62.8046 116.01 71.84C116.01 80.8835 125.124 88.3167 137.021 88.5702L137.917 88.5893L137.996 89.4814C138.117 90.8426 137.917 92.1737 137.673 93.2051Z" fill="#1B1B1B"/>
<path d="M135.21 66.88C135.21 66.88 131.55 68.63 132.72 73.32C133.89 78 139.89 76.69 139.89 76.69C139.89 76.69 146.33 72.59 142.23 69.22C138.13 65.85 136.67 68.74 136.67 70.37C136.67 72 136.93 72.73 138.04 72.59C139.16 72.44 139.74 70.37 139.74 70.37" fill="#FF8E14"/>
<path d="M142.865 68.4475C144.087 69.4516 144.632 70.6204 144.594 71.8406C144.557 72.9956 144 74.0243 143.394 74.8233C142.778 75.6347 142.034 76.3099 141.462 76.7739C141.172 77.0084 140.918 77.195 140.736 77.3241C140.213 77.6934 139.649 77.764 139.019 77.8179C138.388 77.872 137.516 77.893 136.589 77.748C136.589 77.748 132.5 76.2739 132 73C131.622 70.5238 132.3 67.1684 134.778 65.9783C134.851 66.151 135.855 67.2195 136 67.5C135.39 67.932 134.781 68.3354 134.326 68.9417C133.768 69.7945 132.987 71.95 134.326 73.75C136 76 137.811 76.6891 140.203 75.2196C140.709 74.8095 141.319 74.249 141.801 73.6142C142.292 72.967 142.577 72.3388 142.595 71.7772C142.61 71.2808 142.423 70.6734 141.595 69.9925C139.642 68.3876 138.729 68.6038 138.411 68.7867C137.968 69.0418 137.67 69.7416 137.67 70.37C137.67 70.7682 137.65 71.2253 137.791 71.6069C138.102 71.6059 138.304 71.1858 138.427 70.9544C138.546 70.7299 138.777 70.366 138.777 70.0998L140.703 70.6403C140.579 71.074 140.405 71.495 140.193 71.8931C140.026 72.2078 139.795 72.5721 139.491 72.8815C139.187 73.1894 138.749 73.5039 138.173 73.5811L138.165 73.5822C137.785 73.63 137.372 73.6185 136.977 73.4562C136.56 73.2845 136.26 72.9838 136.063 72.6274C135.72 72.0051 135.67 71.1666 135.67 70.37C135.673 69.6425 136.178 67.9938 138.173 67.2188C140.167 66.4438 142.132 67.715 142.865 68.4475Z" fill="#1B1B1B"/>
<path fill-rule="evenodd" clip-rule="evenodd" d="M137.3 55.8799C137.847 55.8025 138.353 56.183 138.43 56.7299C138.519 57.3613 138.266 57.8546 137.978 58.1911C137.736 58.4753 137.42 58.7031 137.213 58.8519C137.202 58.86 137.191 58.8678 137.181 58.8754C137.045 58.9733 136.947 59.0462 136.874 59.1053C136.962 59.1435 137.077 59.1882 137.237 59.2477C137.249 59.2521 137.261 59.2567 137.274 59.2614C137.513 59.3497 137.878 59.485 138.187 59.6942C138.554 59.9418 138.928 60.3487 139.011 60.9791C139.094 61.6059 138.842 62.0951 138.558 62.4301C138.317 62.7143 138.003 62.9432 137.798 63.0933C137.787 63.1014 137.776 63.1092 137.766 63.1168C137.526 63.2925 137.402 63.3888 137.329 63.4701C137.35 63.9812 136.978 64.4331 136.461 64.5014C135.913 64.5737 135.411 64.1885 135.339 63.6409C135.256 63.0141 135.508 62.5249 135.792 62.1899C136.033 61.9057 136.347 61.6768 136.552 61.5267C136.563 61.5186 136.574 61.5108 136.584 61.5032C136.725 61.4003 136.825 61.3246 136.899 61.2633C136.813 61.2255 136.699 61.1812 136.54 61.1223C136.528 61.1177 136.515 61.113 136.502 61.1082C136.264 61.0199 135.9 60.8851 135.591 60.6773C135.225 60.4318 134.849 60.0282 134.76 59.4001C134.671 58.7687 134.924 58.2754 135.212 57.9389C135.454 57.6547 135.77 57.4269 135.977 57.2781C135.988 57.27 135.999 57.2622 136.009 57.2546C136.245 57.0839 136.368 56.9894 136.441 56.9111C136.419 56.4034 136.786 55.9526 137.3 55.8799Z" fill="#1B1B1B"/>
<path fill-rule="evenodd" clip-rule="evenodd" d="M124.203 63.8854C124.41 63.3733 124.993 63.1259 125.505 63.3328C126.095 63.5713 126.395 64.0372 126.543 64.4525C126.668 64.8042 126.709 65.1911 126.735 65.4445C126.737 65.4582 126.738 65.4715 126.739 65.4844C126.757 65.6526 126.772 65.7752 126.787 65.8687C126.864 65.8123 126.961 65.7341 127.093 65.6251C127.103 65.6172 127.113 65.609 127.123 65.6007C127.319 65.4381 127.62 65.1894 127.957 65.0259C128.356 64.8328 128.895 64.7128 129.483 64.9561C130.068 65.1984 130.365 65.6626 130.513 66.0773C130.638 66.4289 130.679 66.815 130.705 67.0681C130.707 67.0817 130.708 67.095 130.709 67.1079C130.74 67.3982 130.761 67.5516 130.793 67.6537C131.245 67.8889 131.452 68.4331 131.257 68.9146C131.05 69.4267 130.467 69.674 129.955 69.4671C129.366 69.2292 129.066 68.7653 128.918 68.3498C128.792 67.9985 128.751 67.612 128.725 67.3592C128.723 67.3456 128.722 67.3324 128.721 67.3195C128.702 67.1456 128.687 67.0203 128.671 66.9255C128.595 66.9812 128.498 67.0587 128.367 67.1673C128.356 67.1759 128.346 67.1847 128.335 67.1939C128.139 67.3558 127.841 67.6028 127.507 67.7664C127.112 67.9599 126.574 68.085 125.985 67.8471C125.395 67.6086 125.095 67.1428 124.947 66.7274C124.822 66.3758 124.781 65.9888 124.755 65.7354C124.753 65.7217 124.752 65.7084 124.751 65.6956C124.72 65.4037 124.698 65.2491 124.666 65.1459C124.215 64.9105 124.008 64.3667 124.203 63.8854Z" fill="#1B1B1B"/>
<path fill-rule="evenodd" clip-rule="evenodd" d="M128.823 77.256C128.834 77.3496 128.853 77.4713 128.881 77.6377C128.883 77.6505 128.885 77.6637 128.888 77.6773C128.931 77.9283 128.996 78.3124 128.97 78.6852C128.939 79.1267 128.774 79.6567 128.267 80.0443C127.764 80.4295 127.213 80.4532 126.78 80.372C126.415 80.3035 126.062 80.1451 125.83 80.0414C125.817 80.0355 125.804 80.0297 125.792 80.0242C125.525 79.9048 125.382 79.8463 125.278 79.8233C124.847 80.0985 124.27 80.0048 123.95 79.5933C123.611 79.157 123.69 78.5288 124.127 78.1901C124.628 77.8011 125.179 77.7717 125.615 77.8514C125.984 77.9189 126.341 78.0785 126.573 78.1827C126.585 78.188 126.597 78.1932 126.608 78.1982C126.764 78.2678 126.878 78.317 126.966 78.3508C126.956 78.2576 126.937 78.1368 126.909 77.9722C126.907 77.9594 126.905 77.9462 126.902 77.9326C126.859 77.6816 126.794 77.2975 126.82 76.9247C126.851 76.4832 127.016 75.9533 127.523 75.5656C128.025 75.1816 128.574 75.1562 129.006 75.2357C129.371 75.3028 129.725 75.4595 129.956 75.5621C129.969 75.568 129.982 75.5736 129.994 75.5791C130.263 75.6978 130.406 75.7556 130.51 75.778C130.941 75.5012 131.52 75.5945 131.84 76.0067C132.179 76.4429 132.1 77.0711 131.663 77.4098C131.164 77.7977 130.614 77.8287 130.179 77.7507C129.809 77.6847 129.453 77.5268 129.22 77.4237C129.208 77.4184 129.197 77.4133 129.186 77.4083C129.028 77.3385 128.913 77.2894 128.823 77.256Z" fill="#1B1B1B"/>
<path fill-rule="evenodd" clip-rule="evenodd" d="M139.639 78.6786C140.187 78.6063 140.689 78.9915 140.761 79.539C140.844 80.1658 140.592 80.655 140.308 80.9901C140.067 81.2743 139.753 81.5031 139.548 81.6533C139.537 81.6614 139.526 81.6692 139.516 81.6768C139.375 81.7797 139.275 81.8554 139.201 81.9167C139.287 81.9545 139.401 81.9988 139.56 82.0577C139.572 82.0622 139.585 82.0669 139.598 82.0718C139.836 82.1601 140.2 82.2949 140.509 82.5027C140.875 82.7482 141.251 83.1518 141.34 83.7799C141.43 84.4113 141.176 84.9046 140.888 85.2411C140.646 85.5253 140.33 85.7531 140.123 85.9019C140.112 85.91 140.101 85.9178 140.091 85.9254C139.855 86.096 139.732 86.1906 139.659 86.2689C139.681 86.7765 139.314 87.2274 138.8 87.3001C138.253 87.3775 137.747 86.9969 137.67 86.4501C137.581 85.8187 137.834 85.3254 138.122 84.9889C138.364 84.7047 138.68 84.4769 138.887 84.328C138.898 84.32 138.909 84.3121 138.919 84.3045C139.055 84.2066 139.153 84.1338 139.226 84.0747C139.138 84.0364 139.023 83.9917 138.863 83.9323C138.851 83.9279 138.839 83.9233 138.826 83.9186C138.587 83.8302 138.222 83.695 137.913 83.4857C137.546 83.2382 137.172 82.8313 137.089 82.2009C137.006 81.5741 137.258 81.0849 137.542 80.7499C137.783 80.4656 138.097 80.2368 138.302 80.0866C138.313 80.0786 138.324 80.0708 138.334 80.0632C138.574 79.8875 138.698 79.7912 138.771 79.7099C138.75 79.1987 139.122 78.7469 139.639 78.6786Z" fill="#1B1B1B"/>
<path fill-rule="evenodd" clip-rule="evenodd" d="M144.833 74.2654C145.04 73.7533 145.623 73.5059 146.135 73.7128C146.724 73.9507 147.024 74.4146 147.172 74.8302C147.298 75.1815 147.339 75.5679 147.365 75.8208C147.367 75.8344 147.368 75.8476 147.369 75.8604C147.388 76.0343 147.403 76.1596 147.419 76.2545C147.495 76.1988 147.592 76.1213 147.723 76.0126C147.734 76.0041 147.744 75.9952 147.755 75.9861C147.951 75.8241 148.25 75.5771 148.583 75.4135C148.978 75.22 149.516 75.095 150.105 75.3328C150.695 75.5713 150.995 76.0372 151.143 76.4525C151.268 76.8042 151.309 77.1911 151.335 77.4445C151.337 77.4582 151.338 77.4715 151.339 77.4844C151.37 77.7762 151.392 77.9308 151.424 78.034C151.875 78.2694 152.082 78.8133 151.887 79.2946C151.68 79.8067 151.097 80.054 150.585 79.8472C149.995 79.6086 149.695 79.1428 149.547 78.7274C149.422 78.3758 149.381 77.9889 149.355 77.7354C149.353 77.7217 149.352 77.7085 149.351 77.6956C149.333 77.5273 149.318 77.4047 149.303 77.3112C149.226 77.3677 149.129 77.4458 148.997 77.5548C148.987 77.5627 148.977 77.5709 148.967 77.5793C148.771 77.7418 148.47 77.9905 148.133 78.154C147.735 78.3471 147.195 78.4671 146.607 78.2239C146.022 77.9815 145.725 77.5174 145.577 77.1026C145.452 76.751 145.411 76.3649 145.385 76.1119C145.383 76.0982 145.382 76.0849 145.381 76.0721C145.35 75.7818 145.329 75.6283 145.297 75.5262C144.845 75.291 144.638 74.7469 144.833 74.2654Z" fill="#1B1B1B"/>
<path fill-rule="evenodd" clip-rule="evenodd" d="M149.812 63.3567C150.243 63.0815 150.82 63.1751 151.14 63.5867C151.479 64.0229 151.4 64.6511 150.963 64.9898C150.462 65.3789 149.911 65.4082 149.475 65.3285C149.106 65.2611 148.749 65.1015 148.517 64.9973C148.505 64.9919 148.493 64.9867 148.482 64.9817C148.326 64.9122 148.212 64.8629 148.124 64.8291C148.134 64.9224 148.153 65.0431 148.181 65.2077C148.183 65.2205 148.185 65.2337 148.188 65.2473C148.231 65.4983 148.296 65.8824 148.27 66.2553C148.239 66.6967 148.074 67.2267 147.567 67.6143C147.065 67.9983 146.516 68.0238 146.084 67.9443C145.719 67.8771 145.365 67.7205 145.134 67.6178C145.121 67.612 145.108 67.6063 145.096 67.6009C144.827 67.4822 144.684 67.4244 144.58 67.402C144.149 67.6788 143.57 67.5855 143.25 67.1733C142.911 66.7371 142.99 66.1088 143.427 65.7701C143.926 65.3822 144.476 65.3512 144.911 65.4292C145.281 65.4953 145.637 65.6531 145.87 65.7563C145.882 65.7615 145.893 65.7666 145.904 65.7716C146.062 65.8415 146.177 65.8906 146.267 65.924C146.256 65.8303 146.237 65.7087 146.209 65.5422C146.207 65.5294 146.205 65.5162 146.202 65.5026C146.159 65.2516 146.094 64.8676 146.12 64.4947C146.151 64.0532 146.316 63.5233 146.823 63.1356C147.326 62.7505 147.877 62.7267 148.31 62.8079C148.675 62.8765 149.028 63.0348 149.26 63.1386C149.273 63.1445 149.286 63.1502 149.298 63.1557C149.565 63.2752 149.708 63.3336 149.812 63.3567Z" fill="#1B1B1B"/>
</g>
<defs>
<clipPath id="clip0_3204_225">
<rect width="180" height="130" fill="white"/>
</clipPath>
</defs>
</svg>
