<svg width="180" height="130" viewBox="0 0 180 130" fill="none" xmlns="http://www.w3.org/2000/svg">
<path d="M114.29 0H16.29C7.45342 0 0.289978 7.16344 0.289978 16V114C0.289978 122.837 7.45342 130 16.29 130H114.29C123.127 130 130.29 122.837 130.29 114V16C130.29 7.16344 123.127 0 114.29 0Z" fill="#8FDFF3"/>
<path fill-rule="evenodd" clip-rule="evenodd" d="M1 90.9176V77.2088C1.30637 77.08 1.62347 76.9698 1.94997 76.88L3.22997 76.53C5.22997 75.98 7.26997 76.55 8.68997 77.86L21.57 72.89L22.64 69.7H31.39L32.28 72.89L45.91 79.3C47.38 78 49.46 77.47 51.46 78.09L51.47 78.08C55.26 79.25 57.85 82.75 57.85 86.72V87.76C57.85 92 54.53 94.45 50.48 93.2L47.12 92.16C44.84 91.46 43.31 89.48 43.07 87.26L37.47 86.84V92.38L44.62 105.07H51.09C51.87 105.07 52.16 106.07 51.51 106.49L38.65 114.71C37.44 115.48 35.83 115.06 35.15 113.79L28.91 102.11C28.52 101.39 27.49 101.39 27.1 102.11L20.91 113.69C20.16 115.09 18.44 115.63 17.03 114.91L3.52997 108.04C2.60997 107.43 2.99997 106 4.09997 105.94L9.77997 105.61L17.46 92.92L18 85.6L11.24 86.49C10.77 88.47 9.25997 90.15 7.14997 90.73L5.62997 91.15C4.04021 91.5903 2.42767 91.4734 1 90.9176Z" fill="#FAFAFA"/>
<path d="M1 90.9176H0V91.6014L0.637225 91.8495L1 90.9176ZM1 77.2088L0.612316 76.287L0 76.5446V77.2088H1ZM1.94997 76.88L1.68622 75.9154L1.6847 75.9158L1.94997 76.88ZM3.22997 76.53L3.49373 77.4945L3.49513 77.4942L3.22997 76.53ZM8.68997 77.86L8.01191 78.595L8.46934 79.017L9.04997 78.7929L8.68997 77.86ZM21.57 72.89L21.93 73.8229L22.3686 73.6537L22.5181 73.208L21.57 72.89ZM22.64 69.7V68.7H21.9206L21.6919 69.3819L22.64 69.7ZM31.39 69.7L32.3532 69.4312L32.1492 68.7H31.39V69.7ZM32.28 72.89L31.3168 73.1587L31.4399 73.5999L31.8544 73.7949L32.28 72.89ZM45.91 79.3L45.4844 80.2049L46.0797 80.4848L46.5724 80.0491L45.91 79.3ZM51.46 78.09L51.1639 79.0451L51.7401 79.2237L52.1668 78.7973L51.46 78.09ZM51.47 78.08L51.7649 77.1245L51.1893 76.9467L50.7631 77.3726L51.47 78.08ZM50.48 93.2L50.1843 94.1552L50.1851 94.1555L50.48 93.2ZM47.12 92.16L47.4157 91.2047L47.4135 91.204L47.12 92.16ZM43.07 87.26L44.0642 87.1525L43.9747 86.325L43.1448 86.2628L43.07 87.26ZM37.47 86.84L37.5448 85.8428L36.47 85.7621V86.84H37.47ZM37.47 92.38H36.47V92.6423L36.5987 92.8708L37.47 92.38ZM44.62 105.07L43.7487 105.561L44.0356 106.07H44.62V105.07ZM51.51 106.49L52.0486 107.333L52.0527 107.33L51.51 106.49ZM38.65 114.71L39.1869 115.554L39.1885 115.553L38.65 114.71ZM35.15 113.79L34.268 114.261L34.2684 114.262L35.15 113.79ZM28.91 102.11L29.792 101.639L29.7893 101.634L28.91 102.11ZM27.1 102.11L26.2207 101.634L26.2181 101.639L27.1 102.11ZM20.91 113.69L21.7915 114.162L21.7919 114.161L20.91 113.69ZM17.03 114.91L17.4848 114.019L17.4835 114.019L17.03 114.91ZM3.52997 108.04L2.97737 108.873L3.02524 108.905L3.07643 108.931L3.52997 108.04ZM4.09997 105.94L4.15444 106.938L4.15798 106.938L4.09997 105.94ZM9.77997 105.61L9.83798 106.608L10.3631 106.578L10.6355 106.128L9.77997 105.61ZM17.46 92.92L18.3155 93.4377L18.4396 93.2326L18.4573 92.9935L17.46 92.92ZM18 85.6L18.9973 85.6735L19.0877 84.4481L17.8694 84.6085L18 85.6ZM11.24 86.49L11.1094 85.4985L10.4262 85.5885L10.267 86.259L11.24 86.49ZM7.14997 90.73L6.88492 89.7657L6.88364 89.7661L7.14997 90.73ZM5.62997 91.15L5.36364 90.1861L5.36306 90.1862L5.62997 91.15ZM2 90.9176V77.2088H0V90.9176H2ZM1.6847 75.9158C1.31616 76.0172 0.958189 76.1416 0.612316 76.287L1.38768 78.1306C1.65456 78.0184 1.93078 77.9224 2.21525 77.8441L1.6847 75.9158ZM2.96622 75.5654L1.68622 75.9154L2.21373 77.8445L3.49373 77.4945L2.96622 75.5654ZM9.36804 77.125C7.70528 75.591 5.3119 74.9203 2.96482 75.5657L3.49513 77.4942C5.14805 77.0396 6.83466 77.5089 8.01191 78.595L9.36804 77.125ZM21.21 71.957L8.32998 76.927L9.04997 78.7929L21.93 73.8229L21.21 71.957ZM21.6919 69.3819L20.6219 72.5719L22.5181 73.208L23.5881 70.018L21.6919 69.3819ZM31.39 68.7H22.64V70.7H31.39V68.7ZM33.2432 72.6212L32.3532 69.4312L30.4268 69.9687L31.3168 73.1587L33.2432 72.6212ZM46.3355 78.395L32.7055 71.985L31.8544 73.7949L45.4844 80.2049L46.3355 78.395ZM51.7561 77.1348C49.4045 76.4058 46.9647 77.0323 45.2475 78.5509L46.5724 80.0491C47.7953 78.9676 49.5155 78.5341 51.1639 79.0451L51.7561 77.1348ZM50.7631 77.3726L50.7531 77.3826L52.1668 78.7973L52.1768 78.7873L50.7631 77.3726ZM58.85 86.72C58.85 82.3102 55.973 78.4235 51.7649 77.1245L51.175 79.0355C54.5469 80.0764 56.85 83.1897 56.85 86.72H58.85ZM58.85 87.76V86.72H56.85V87.76H58.85ZM50.1851 94.1555C52.4654 94.8593 54.6479 94.5461 56.2776 93.3433C57.9072 92.1405 58.85 90.147 58.85 87.76H56.85C56.85 89.6129 56.1327 90.9644 55.0899 91.7341C54.0471 92.5038 52.5446 92.7906 50.7749 92.2444L50.1851 94.1555ZM46.8243 93.1152L50.1843 94.1552L50.7757 92.2447L47.4157 91.2047L46.8243 93.1152ZM42.0758 87.3674C42.3572 89.9707 44.1509 92.2945 46.8265 93.1159L47.4135 91.204C45.5291 90.6255 44.2627 88.9892 44.0642 87.1525L42.0758 87.3674ZM37.3952 87.8372L42.9952 88.2572L43.1448 86.2628L37.5448 85.8428L37.3952 87.8372ZM38.47 92.38V86.84H36.47V92.38H38.47ZM45.4912 104.579L38.3412 91.8891L36.5987 92.8708L43.7487 105.561L45.4912 104.579ZM51.09 104.07H44.62V106.07H51.09V104.07ZM52.0527 107.33C53.5342 106.373 52.8736 104.07 51.09 104.07V106.07C51.0616 106.07 51.0068 106.058 50.9554 106.017C50.9104 105.981 50.887 105.939 50.8767 105.904C50.8663 105.869 50.8635 105.822 50.8816 105.769C50.9023 105.708 50.9412 105.667 50.9673 105.65L52.0527 107.33ZM39.1885 115.553L52.0485 107.333L50.9714 105.647L38.1114 113.867L39.1885 115.553ZM34.2684 114.262C35.2228 116.045 37.4856 116.636 39.1869 115.554L38.1131 113.866C37.3944 114.324 36.4371 114.075 36.0316 113.318L34.2684 114.262ZM28.028 102.581L34.268 114.261L36.032 113.319L29.792 101.639L28.028 102.581ZM27.9793 102.586C27.9838 102.578 27.9869 102.575 27.9874 102.574C27.988 102.574 27.9883 102.573 27.9886 102.573C27.9898 102.573 27.9954 102.57 28.005 102.57C28.0146 102.57 28.0201 102.573 28.0213 102.573C28.0217 102.573 28.0219 102.574 28.0225 102.574C28.023 102.575 28.0261 102.578 28.0307 102.586L29.7893 101.634C29.021 100.215 26.9889 100.215 26.2207 101.634L27.9793 102.586ZM21.7919 114.161L27.9819 102.581L26.2181 101.639L20.0281 113.219L21.7919 114.161ZM16.5752 115.801C18.472 116.769 20.7852 116.04 21.7915 114.162L20.0285 113.218C19.5347 114.139 18.4079 114.491 17.4848 114.019L16.5752 115.801ZM3.07643 108.931L16.5764 115.801L17.4835 114.019L3.98351 107.149L3.07643 108.931ZM4.04551 104.941C1.98429 105.054 1.25481 107.731 2.97737 108.873L4.08258 107.207C4.03738 107.177 4.02689 107.152 4.02226 107.139C4.01519 107.118 4.0118 107.085 4.02243 107.046C4.03306 107.007 4.05273 106.98 4.06931 106.966C4.08018 106.957 4.10116 106.941 4.15444 106.938L4.04551 104.941ZM9.72197 104.612L4.04197 104.942L4.15798 106.938L9.83798 106.608L9.72197 104.612ZM16.6045 92.4022L8.92445 105.092L10.6355 106.128L18.3155 93.4377L16.6045 92.4022ZM17.0027 85.5264L16.4627 92.8464L18.4573 92.9935L18.9973 85.6735L17.0027 85.5264ZM11.3705 87.4814L18.1305 86.5914L17.8694 84.6085L11.1094 85.4985L11.3705 87.4814ZM7.41502 91.6942C9.89227 91.0132 11.6623 89.0408 12.2129 86.7209L10.267 86.259C9.87769 87.8991 8.62768 89.2867 6.88492 89.7657L7.41502 91.6942ZM5.89631 92.1138L7.41631 91.6938L6.88364 89.7661L5.36364 90.1861L5.89631 92.1138ZM0.637225 91.8495C2.25878 92.4807 4.09208 92.6135 5.89689 92.1137L5.36306 90.1862C3.98834 90.567 2.59655 90.466 1.36278 89.9857L0.637225 91.8495Z" fill="#1B1B1B"/>
<path d="M26.93 72.8901C32.751 72.8901 37.47 68.1711 37.47 62.3501C37.47 56.529 32.751 51.8101 26.93 51.8101C21.1089 51.8101 16.39 56.529 16.39 62.3501C16.39 68.1711 21.1089 72.8901 26.93 72.8901Z" fill="#FAFAFA" stroke="#1B1B1B" stroke-width="2" stroke-miterlimit="10"/>
<path d="M114 2C121.72 2 128 8.28 128 16V114C128 121.72 121.72 128 114 128H16C8.28 128 2 121.72 2 114V16C2 8.28 8.28 2 16 2H114ZM114 0H16C7.16 0 0 7.16 0 16V114C0 122.84 7.16 130 16 130H114C122.84 130 130 122.84 130 114V16C130 7.16 122.84 0 114 0Z" fill="#1B1B1B"/>
<path d="M158.56 77.68L157.03 77.28C155 76.74 152.94 77.36 151.53 78.72L138.31 72.64L137.26 68.75L129.58 69.06L127.57 72.34L115.13 77.37C113.64 75.6 111.17 74.83 108.85 75.62L107.59 76.05C103.87 77.31 101.58 81.22 102.6 85.01C103.72 89.16 108.08 91.45 112.09 90.09L113.59 89.58C115.69 88.87 117.12 87.06 117.44 85.01L123.71 84.24L123.97 90.75L116.03 105.2L110.73 105.41C109.76 105.45 109.45 106.73 110.29 107.21L122.94 114.51C124.14 115.2 125.67 114.75 126.3 113.51L132.47 101.39C132.91 100.53 134.13 100.54 134.55 101.41L140.08 112.82C140.63 113.96 142.02 114.41 143.14 113.82L156.01 106.98C156.76 106.58 156.61 105.47 155.78 105.28L150.67 104.15L142.33 91.48L142.59 85.46L149 86.66C149.29 88.93 150.91 90.91 153.26 91.53L154.79 91.93C158.72 92.97 162.76 90.63 163.8 86.69C164.84 82.76 162.5 78.72 158.56 77.68Z" fill="#FAFAFA" stroke="#1B1B1B" stroke-width="2" stroke-miterlimit="10"/>
<path d="M133.15 73.32C138.971 73.32 143.69 68.6011 143.69 62.78C143.69 56.9589 138.971 52.24 133.15 52.24C127.329 52.24 122.61 56.9589 122.61 62.78C122.61 68.6011 127.329 73.32 133.15 73.32Z" fill="#FAFAFA" stroke="#1B1B1B" stroke-width="2" stroke-miterlimit="10"/>
<path d="M107.64 77.5501L106.43 77.0001C104.22 75.9901 101.71 76.4901 100.04 78.0701L84.93 71.6601L83.66 67.5601L76.08 67.6601L74.88 72.0401L61.78 78.4801C60.33 76.9201 58.08 76.2101 55.9 76.8601L54.63 77.2401C50.87 78.3501 48.42 82.1601 49.28 85.9901C50.23 90.1901 54.5 92.6501 58.56 91.4501L60.08 91.0001C62.49 90.2901 64.08 88.1401 64.22 85.7701L71.68 85.0201L71.63 91.9501L63.45 105.48L58.91 106.56C58.1 106.75 57.96 107.85 58.69 108.24L71.19 114.87C72.06 115.33 73.14 115.02 73.63 114.17L80.83 101.67C81.3 100.86 82.45 100.8 83 101.55L91.82 113.66C92.38 114.43 93.46 114.61 94.24 114.05L104.68 106.6C105.48 106.03 105.17 104.77 104.19 104.64L101.26 104.26L90.4 90.7801L90.26 84.4701L96.95 85.4701C97.07 87.5501 98.3 89.4901 100.32 90.4201L101.76 91.0801C105.61 92.8401 110.18 91.0101 111.72 86.9901C113.12 83.3201 111.23 79.2001 107.66 77.5701L107.64 77.5501Z" fill="#FAFAFA" stroke="#1B1B1B" stroke-width="2" stroke-miterlimit="10"/>
<path d="M79.63 73.07C85.451 73.07 90.17 68.3511 90.17 62.53C90.17 56.7089 85.451 51.99 79.63 51.99C73.8089 51.99 69.09 56.7089 69.09 62.53C69.09 68.3511 73.8089 73.07 79.63 73.07Z" fill="#FAFAFA" stroke="#1B1B1B" stroke-width="2" stroke-miterlimit="10"/>
<path d="M75.72 29.02L83.53 26.78C84.76 26.43 85.47 25.14 85.12 23.91L83.52 18.33C83.17 17.1 81.88 16.39 80.65 16.74L77.3 17.7L76.66 15.47C76.31 14.24 75.02 13.53 73.79 13.88C72.56 14.23 71.85 15.52 72.2 16.75L74.29 24.5L75.72 29.02Z" fill="#FAFAFA" stroke="#1B1B1B" stroke-width="2" stroke-miterlimit="10"/>
<path d="M73.1525 20.0957L68.6929 21.377L71.2582 30.3057L75.7178 29.0244L73.1525 20.0957Z" fill="#1F8AFF" stroke="#1B1B1B" stroke-width="2" stroke-miterlimit="10"/>
<path d="M63.52 37.0501C61.95 35.4801 59.41 35.4801 57.84 37.0501L56.13 38.7601L54.42 37.0501C52.85 35.4801 50.31 35.4801 48.74 37.0501C47.17 38.6201 47.17 41.1601 48.74 42.7301L53.97 47.9601C55.16 49.1501 57.1 49.1501 58.3 47.9601L63.53 42.7301C65.1 41.1601 65.1 38.6201 63.53 37.0501H63.52Z" fill="#FF2434" stroke="#1B1B1B" stroke-width="2" stroke-miterlimit="10"/>
<path d="M115.492 36.6398C116.033 32.1158 112.805 28.0091 108.281 27.4672C103.757 26.9253 99.6506 30.1535 99.1087 34.6775C98.5669 39.2015 101.795 43.3083 106.319 43.8501C110.843 44.392 114.95 41.1638 115.492 36.6398Z" fill="#FFDA00" stroke="#1B1B1B" stroke-width="2" stroke-miterlimit="10"/>
<path d="M103.76 33.1701C103.92 31.8701 104.89 30.9102 105.93 31.0302C106.97 31.1502 107.69 32.3101 107.54 33.6201" fill="#FFDA00"/>
<path d="M103.76 33.1701C103.92 31.8701 104.89 30.9102 105.93 31.0302C106.97 31.1502 107.69 32.3101 107.54 33.6201" stroke="#1B1B1B" stroke-width="2" stroke-miterlimit="10"/>
<path d="M107.54 33.6201C107.7 32.3201 108.67 31.3601 109.71 31.4801C110.75 31.6001 111.47 32.7601 111.32 34.0701" fill="#FFDA00"/>
<path d="M107.54 33.6201C107.7 32.3201 108.67 31.3601 109.71 31.4801C110.75 31.6001 111.47 32.7601 111.32 34.0701" stroke="#1B1B1B" stroke-width="2" stroke-miterlimit="10"/>
<path d="M111.71 36.2001C111.42 38.6401 109.21 40.3701 106.77 40.0801C104.33 39.7901 102.6 37.5801 102.89 35.1401" fill="#FFDA00"/>
<path d="M111.71 36.2001C111.42 38.6401 109.21 40.3701 106.77 40.0801C104.33 39.7901 102.6 37.5801 102.89 35.1401" stroke="#1B1B1B" stroke-width="2" stroke-miterlimit="10"/>
<path d="M35.41 33.42H23.51C22.06 33.42 20.89 32.24 20.89 30.8V26.67L35.26 24.75C36.59 24.57 37.76 25.6 37.76 26.94V31.07C37.76 32.37 36.71 33.42 35.41 33.42Z" fill="#FFDA00" stroke="#1B1B1B" stroke-width="2" stroke-miterlimit="10"/>
<path d="M20.88 30.7699V19.9199H26.51L28.04 30.6199" fill="#FFDA00"/>
<path d="M20.88 30.7699V19.9199H26.51L28.04 30.6199" stroke="#1B1B1B" stroke-width="2" stroke-miterlimit="10"/>
<path d="M20.88 22.1699V17.5699C20.88 16.3799 21.84 15.4199 23.03 15.4199H28.51C29.63 15.4199 30.33 16.6199 29.78 17.5899L27.21 22.1699H24.16" fill="#FFDA00"/>
<path d="M20.88 22.1699V17.5699C20.88 16.3799 21.84 15.4199 23.03 15.4199H28.51C29.63 15.4199 30.33 16.6199 29.78 17.5899L27.21 22.1699H24.16" stroke="#1B1B1B" stroke-width="2" stroke-miterlimit="10"/>
<path d="M144.64 33.1604L145.083 33.5386C147.403 35.5153 151.322 35.6143 153.299 33.2937L157.253 28.6523L148.413 21.1236L148.222 21.3403C148.741 20.7252 148.672 19.8118 148.057 19.2934C147.442 18.7749 146.528 18.8437 146.01 19.4588L143.182 22.7738C143.182 22.7738 138.66 28.0748 144.63 33.1629L144.64 33.1604Z" fill="#FFDA00" stroke="#1B1B1B" stroke-width="2" stroke-miterlimit="10"/>
<path d="M146.15 23.7694L150.86 18.2421C151.379 17.6269 152.292 17.5582 152.907 18.0767C153.522 18.5951 153.591 19.5084 153.073 20.1236L149.119 24.765" fill="#FFDA00"/>
<path d="M146.15 23.7694L150.86 18.2421C151.379 17.6269 152.292 17.5582 152.907 18.0767C153.522 18.5951 153.591 19.5084 153.073 20.1236L149.119 24.765" stroke="#1B1B1B" stroke-width="2" stroke-miterlimit="10"/>
<path d="M149.119 24.7648L153.829 19.2374C154.348 18.6223 155.261 18.5536 155.876 19.072C156.491 19.5905 156.56 20.5038 156.042 21.119L151.332 26.6463" fill="#FFDA00"/>
<path d="M149.119 24.7648L153.829 19.2374C154.348 18.6223 155.261 18.5536 155.876 19.072C156.491 19.5905 156.56 20.5038 156.042 21.119L151.332 26.6463" stroke="#1B1B1B" stroke-width="2" stroke-miterlimit="10"/>
<path d="M151.332 26.6464L156.042 21.119C156.56 20.5039 157.473 20.4352 158.088 20.9536C158.704 21.4721 158.772 22.3854 158.254 23.0006L153.544 28.5279" fill="#FFDA00"/>
<path d="M151.332 26.6464L156.042 21.119C156.56 20.5039 157.473 20.4352 158.088 20.9536C158.704 21.4721 158.772 22.3854 158.254 23.0006L153.544 28.5279" stroke="#1B1B1B" stroke-width="2" stroke-miterlimit="10"/>
<path d="M153.534 28.5304L156.731 24.775C157.25 24.1599 158.163 24.0912 158.778 24.6096C159.393 25.1281 159.462 26.0414 158.944 26.6566L154.234 32.1839" fill="#FFDA00"/>
<path d="M153.534 28.5304L156.731 24.775C157.25 24.1599 158.163 24.0912 158.778 24.6096C159.393 25.1281 159.462 26.0414 158.944 26.6566L154.234 32.1839" stroke="#1B1B1B" stroke-width="2" stroke-miterlimit="10"/>
<path d="M145.424 38.0957L145.867 38.4739C148.187 40.4506 152.106 40.5496 154.083 38.229L158.037 33.5876L149.197 26.059L149.006 26.2756C149.525 25.6605 149.456 24.7471 148.841 24.2287C148.226 23.7102 147.313 23.7789 146.794 24.3941L143.966 27.7091C143.966 27.7091 139.444 33.0101 145.414 38.0983L145.424 38.0957Z" fill="#FFDA00" stroke="#1B1B1B" stroke-width="2" stroke-miterlimit="10"/>
<path d="M146.937 28.7143L151.647 23.1869C152.165 22.5718 153.079 22.503 153.694 23.0215C154.309 23.5399 154.378 24.4533 153.859 25.0684L149.906 29.7098" fill="#FFDA00"/>
<path d="M146.937 28.7143L151.647 23.1869C152.165 22.5718 153.079 22.503 153.694 23.0215C154.309 23.5399 154.378 24.4533 153.859 25.0684L149.906 29.7098" stroke="#1B1B1B" stroke-width="2" stroke-miterlimit="10"/>
<path d="M149.906 29.7099L154.616 24.1825C155.134 23.5674 156.048 23.4986 156.663 24.0171C157.278 24.5355 157.347 25.4489 156.828 26.064L152.118 31.5914" fill="#FFDA00"/>
<path d="M149.906 29.7099L154.616 24.1825C155.134 23.5674 156.048 23.4986 156.663 24.0171C157.278 24.5355 157.347 25.4489 156.828 26.064L152.118 31.5914" stroke="#1B1B1B" stroke-width="2" stroke-miterlimit="10"/>
<path d="M152.118 31.5915L156.828 26.0641C157.347 25.449 158.26 25.3802 158.875 25.8987C159.49 26.4171 159.559 27.3305 159.041 27.9456L154.331 33.473" fill="#FFDA00"/>
<path d="M152.118 31.5915L156.828 26.0641C157.347 25.449 158.26 25.3802 158.875 25.8987C159.49 26.4171 159.559 27.3305 159.041 27.9456L154.331 33.473" stroke="#1B1B1B" stroke-width="2" stroke-miterlimit="10"/>
<path d="M154.321 33.4755L157.518 29.7201C158.036 29.105 158.95 29.0362 159.565 29.5547C160.18 30.0731 160.249 30.9865 159.73 31.6016L155.02 37.129" fill="#FFDA00"/>
<path d="M154.321 33.4755L157.518 29.7201C158.036 29.105 158.95 29.0362 159.565 29.5547C160.18 30.0731 160.249 30.9865 159.73 31.6016L155.02 37.129" stroke="#1B1B1B" stroke-width="2" stroke-miterlimit="10"/>
<path d="M162.556 11.2363L159.867 15.3834" stroke="#1B1B1B" stroke-width="2" stroke-miterlimit="10"/>
<path d="M158.624 9.08032L157.029 13.7524" stroke="#1B1B1B" stroke-width="2" stroke-miterlimit="10"/>
<path d="M154.289 7.93311L153.87 12.8595" stroke="#1B1B1B" stroke-width="2" stroke-miterlimit="10"/>
</svg>
