<svg width="180" height="130" viewBox="0 0 180 130" fill="none" xmlns="http://www.w3.org/2000/svg">
<path d="M114 0H16C7.16344 0 0 7.16344 0 16V114C0 122.837 7.16344 130 16 130H114C122.837 130 130 122.837 130 114V16C130 7.16344 122.837 0 114 0Z" fill="#8FDFF3"/>
<path d="M23.5 35.6299L84.54 20.4299C84.54 20.4299 97.18 31.4299 96.59 66.0199C96.33 81.4799 112.31 96.4099 112.31 96.4099L49.96 116.58C49.96 116.58 35.03 99.7799 35.81 75.1699C36.6 50.5599 23.5 35.6299 23.5 35.6299Z" fill="#777777"/>
<path fill-rule="evenodd" clip-rule="evenodd" d="M85.1965 19.6756L84.54 20.4299C85.1965 19.6756 85.1971 19.6761 85.1978 19.6767L85.1994 19.6781L85.2034 19.6817L85.215 19.6919C85.2241 19.7001 85.2363 19.711 85.2513 19.7248C85.2814 19.7523 85.3231 19.7911 85.3755 19.8416C85.4802 19.9425 85.628 20.09 85.8124 20.2871C86.1811 20.6814 86.6961 21.2742 87.3065 22.0901C88.5276 23.7225 90.1283 26.2451 91.7028 29.8538C94.853 37.074 97.887 48.616 97.5899 66.037C97.4653 73.4462 101.247 80.8274 105.172 86.4393C107.123 89.2286 109.084 91.5444 110.557 93.1624C111.293 93.9708 111.905 94.6037 112.333 95.0327C112.546 95.2472 112.713 95.4107 112.826 95.5196C112.882 95.5741 112.925 95.6149 112.953 95.6417L112.984 95.6712L112.993 95.6793L114.234 96.8387L49.6464 117.732L49.2125 117.244L49.96 116.58C49.2125 117.244 49.2129 117.245 49.2125 117.244L49.2078 117.239L49.1978 117.227L49.1618 117.186C49.1309 117.151 49.0863 117.099 49.029 117.031C48.9144 116.896 48.7488 116.696 48.5397 116.435C48.1216 115.914 47.5294 115.146 46.8233 114.148C45.4114 112.154 43.5418 109.242 41.6979 105.551C38.0118 98.172 34.4138 87.6537 34.8105 75.1383C35.1995 63.0209 32.1693 53.2914 29.045 46.5939C27.4828 43.245 25.898 40.6565 24.7082 38.9104C24.1134 38.0375 23.6177 37.3757 23.2735 36.9354C23.1014 36.7152 22.9672 36.5504 22.8775 36.4423C22.8326 36.3883 22.7989 36.3484 22.7771 36.3229L22.7534 36.2954L22.7485 36.2897C22.7487 36.2899 22.7483 36.2895 23.5 35.6299L23.2584 34.6596L84.8037 19.3337L85.1965 19.6756ZM25.2482 36.2251C25.562 36.6434 25.9384 37.1642 26.3609 37.7842C27.6027 39.6065 29.2435 42.2886 30.8575 45.7484C34.0856 52.6684 37.2105 62.7091 36.8095 75.2016C36.4262 87.2961 39.9032 97.4829 43.4871 104.657C45.2782 108.242 47.0924 111.067 48.4555 112.993C49.1369 113.955 49.705 114.691 50.1003 115.185C50.1696 115.271 50.2336 115.35 50.292 115.422L110.443 95.9629C110.06 95.5684 109.598 95.0806 109.078 94.5087C107.563 92.8443 105.545 90.4613 103.533 87.5856C99.5335 81.8675 95.4548 74.0538 95.5901 66.0031C95.883 48.8341 92.8921 37.5809 89.8697 30.6536C88.3579 27.1885 86.8355 24.7993 85.7051 23.2882C85.1397 22.5324 84.6718 21.9956 84.3516 21.6532C84.3121 21.6109 84.2748 21.5716 84.2398 21.5352L25.2482 36.2251Z" fill="#1B1B1B"/>
<path fill-rule="evenodd" clip-rule="evenodd" d="M1 88.8953V54.6957C6.74411 51.1989 14.2658 49.0801 22.5 49.0801C40.54 49.0801 55.16 59.2501 55.16 71.8001V71.7901C55.16 83.0701 43.36 92.4101 27.88 94.2001L27.85 99.7601C28.13 100.94 26.73 101.76 25.85 100.94L18.75 94.3601C11.9918 93.8242 5.85985 91.8528 1 88.8953Z" fill="#F8FAFF"/>
<path fill-rule="evenodd" clip-rule="evenodd" d="M0.480007 53.8416C6.39578 50.2402 14.1008 48.0801 22.5 48.0801C31.6986 48.0801 40.0687 50.6713 46.1661 54.9129C52.257 59.15 56.1561 65.1005 56.16 71.7901M2 55.2635V88.3274C6.63641 91.0378 12.4341 92.8562 18.8291 93.3632L19.1751 93.3906L26.5318 100.208C26.587 100.26 26.6273 100.269 26.6527 100.271C26.6863 100.273 26.7316 100.265 26.778 100.238C26.8244 100.211 26.8551 100.174 26.8706 100.14C26.8829 100.114 26.8956 100.069 26.877 99.991L26.8494 99.8744L26.8848 93.3085L27.7652 93.2067C35.3457 92.3301 41.9787 89.6089 46.6945 85.7777C51.4071 81.949 54.1583 77.0595 54.16 71.7951C54.1581 65.9406 50.7484 60.5369 45.024 56.5547C39.3014 52.5739 31.3414 50.0801 22.5 50.0801C14.6605 50.0801 7.51071 52.041 2 55.2635ZM56.16 71.8001C56.1565 77.8098 53.0087 83.2246 47.9556 87.33C43.0899 91.283 36.4145 94.0661 28.8753 95.0832L28.8506 99.6612C29.2207 101.712 26.7555 103.15 25.1689 101.672C25.1687 101.672 25.169 101.672 25.1689 101.672L18.3234 95.3281C11.561 94.7419 5.40217 92.7449 0.480131 89.7495L0 89.4573V54.1338L0.480007 53.8416" fill="#1B1B1B"/>
<path d="M114 2C121.72 2 128 8.28 128 16V114C128 121.72 121.72 128 114 128H16C8.28 128 2 121.72 2 114V16C2 8.28 8.28 2 16 2H114ZM114 0H16C7.16 0 0 7.16 0 16V114C0 122.84 7.16 130 16 130H114C122.84 130 130 122.84 130 114V16C130 7.16 122.84 0 114 0Z" fill="#1B1B1B"/>
<path d="M154.29 45.93C154.29 33.38 139.67 23.21 121.63 23.21C103.59 23.21 88.97 33.38 88.97 45.93C88.97 56.08 98.54 64.67 111.75 67.59L111.82 73.3C111.4 74.42 112.69 75.41 113.66 74.71L122.03 68.65C139.88 68.5 154.28 58.39 154.28 45.94L154.29 45.93Z" fill="#F8FAFF"/>
<path fill-rule="evenodd" clip-rule="evenodd" d="M97.964 29.0428C104.061 24.8012 112.431 22.21 121.63 22.21C130.829 22.21 139.199 24.8012 145.296 29.0428C151.39 33.282 155.29 39.2363 155.29 45.93V46.3441L155.275 46.3592C155.117 52.8291 151.312 58.5833 145.424 62.7253C139.478 66.909 131.335 69.5117 122.359 69.6462L114.246 75.52L114.245 75.5209C112.524 76.763 110.273 75.104 110.818 73.1496L110.76 68.3878C97.735 65.2597 87.97 56.5604 87.97 45.93C87.97 39.2363 91.8701 33.282 97.964 29.0428ZM99.1061 30.6846C93.38 34.6679 89.97 40.0736 89.97 45.93C89.97 55.3898 98.9561 63.7378 111.966 66.6135L112.74 66.7847L112.822 73.4754L112.756 73.6511C112.731 73.7187 112.738 73.7589 112.746 73.7849C112.757 73.8189 112.783 73.8598 112.827 73.8939C112.872 73.928 112.917 73.942 112.952 73.9436C112.977 73.9448 113.016 73.9411 113.074 73.8995C113.074 73.8993 113.074 73.8996 113.074 73.8995L121.702 67.6527L122.022 67.65C130.769 67.5765 138.628 65.0612 144.273 61.0896C149.922 57.1158 153.28 51.7495 153.28 45.94V45.5259L153.284 45.5214C153.13 39.8225 149.747 34.5751 144.154 30.6846C138.431 26.7038 130.471 24.21 121.63 24.21C112.789 24.21 104.829 26.7038 99.1061 30.6846Z" fill="#1B1B1B"/>
</svg>
