<svg width="180" height="130" viewBox="0 0 180 130" fill="none" xmlns="http://www.w3.org/2000/svg">
<g clip-path="url(#clip0_2354_13186)">
<path d="M113.71 0H15.71C6.87344 0 -0.290001 7.16344 -0.290001 16V114C-0.290001 122.837 6.87344 130 15.71 130H113.71C122.547 130 129.71 122.837 129.71 114V16C129.71 7.16344 122.547 0 113.71 0Z" fill="#8FDFF3"/>
<path d="M47.87 105.06V108.79C47.87 108.79 38.5 107.51 34.13 116.99C29.76 126.47 30.3 130.03 30.3 130.03H65.86C65.86 130.03 65.86 116.78 62.13 112.84C58.4 108.9 54.33 108.9 54.33 108.9V104.53L47.86 105.06H47.87Z" fill="white" stroke="#1B1B1B" stroke-width="2" stroke-miterlimit="10"/>
<path d="M50.63 107.96C57.1635 107.96 62.46 102.35 62.46 95.4299C62.46 88.5098 57.1635 82.8999 50.63 82.8999C44.0965 82.8999 38.8 88.5098 38.8 95.4299C38.8 102.35 44.0965 107.96 50.63 107.96Z" fill="white" stroke="#1B1B1B" stroke-width="2" stroke-miterlimit="10"/>
<path d="M53.39 93.6699V97.1899" stroke="#1B1B1B" stroke-width="2" stroke-miterlimit="10"/>
<path d="M57.11 93.6699V97.1899" stroke="#1B1B1B" stroke-width="2" stroke-miterlimit="10"/>
<path fill-rule="evenodd" clip-rule="evenodd" d="M121.115 126.877C118.966 128.222 116.427 129 113.71 129H80.4895L79.17 118.34C76.57 117.18 74.76 114.57 74.76 111.54C74.76 107.42 78.1 104.08 82.22 104.08C86.34 104.08 89.68 107.42 89.68 111.54C89.68 113.8 88.68 115.81 87.1 117.18L88.26 123.92C90.75 109.2 100.5 110.79 100.5 110.79L99.8 106.11L106.86 104.22L107.76 109.39C113.53 109.69 117.31 115.16 118.7 117.65C119.542 119.159 120.495 123.607 121.115 126.877Z" fill="white"/>
<path d="M121.115 126.877L121.645 127.725L122.097 126.691L121.115 126.877ZM80.4895 129L79.4971 129.123L80.4895 130V129ZM79.17 118.34L80.1624 118.217L79.5774 117.427L79.17 118.34ZM87.1 117.18L86.4449 116.425L86.1145 117.35L87.1 117.18ZM88.26 123.92L87.2745 124.09L89.246 124.087L88.26 123.92ZM100.5 110.79L100.339 111.777L101.489 110.642L100.5 110.79ZM99.8 106.11L99.5414 105.144L98.811 106.258L99.8 106.11ZM106.86 104.22L107.845 104.049L106.601 103.254L106.86 104.22ZM107.76 109.39L106.775 109.562L107.708 110.389L107.76 109.39ZM118.7 117.65L119.573 117.163L119.573 117.163L118.7 117.65ZM120.585 126.03C118.589 127.278 116.234 128 113.71 128V130C116.621 130 119.342 129.166 121.645 127.725L120.585 126.03ZM113.71 128H80.4895V130H113.71V128ZM78.1776 118.463L79.4971 129.123L81.4819 128.877L80.1624 118.217L78.1776 118.463ZM73.76 111.54C73.76 114.978 75.8145 117.938 78.7626 119.253L79.5774 117.427C77.3255 116.422 75.76 114.162 75.76 111.54H73.76ZM82.22 103.08C77.5477 103.08 73.76 106.868 73.76 111.54H75.76C75.76 107.972 78.6523 105.08 82.22 105.08V103.08ZM90.68 111.54C90.68 106.868 86.8923 103.08 82.22 103.08V105.08C85.7877 105.08 88.68 107.972 88.68 111.54H90.68ZM87.7551 117.936C89.5436 116.385 90.68 114.104 90.68 111.54H88.68C88.68 113.496 87.8164 115.235 86.4449 116.425L87.7551 117.936ZM89.2455 123.75L88.0855 117.01L86.1145 117.35L87.2745 124.09L89.2455 123.75ZM100.5 110.79C100.661 109.803 100.66 109.803 100.659 109.803C100.659 109.803 100.658 109.803 100.658 109.803C100.656 109.802 100.655 109.802 100.653 109.802C100.65 109.801 100.646 109.801 100.642 109.8C100.633 109.799 100.622 109.797 100.609 109.795C100.582 109.792 100.546 109.787 100.501 109.782C100.411 109.772 100.286 109.76 100.13 109.752C99.8188 109.735 99.3814 109.73 98.853 109.775C97.7972 109.865 96.3655 110.154 94.8491 110.95C91.7668 112.567 88.5593 116.155 87.274 123.753L89.246 124.087C90.4507 116.965 93.3633 113.988 95.7784 112.721C97.0108 112.074 98.1722 111.84 99.0223 111.768C99.4469 111.732 99.7907 111.736 100.022 111.749C100.138 111.755 100.224 111.764 100.279 111.77C100.306 111.773 100.325 111.775 100.335 111.777C100.34 111.777 100.343 111.778 100.344 111.778C100.344 111.778 100.344 111.778 100.343 111.778C100.343 111.778 100.342 111.778 100.342 111.777C100.341 111.777 100.341 111.777 100.34 111.777C100.34 111.777 100.339 111.777 100.5 110.79ZM98.811 106.258L99.511 110.938L101.489 110.642L100.789 105.962L98.811 106.258ZM106.601 103.254L99.5414 105.144L100.059 107.076L107.119 105.186L106.601 103.254ZM108.745 109.219L107.845 104.049L105.875 104.392L106.775 109.562L108.745 109.219ZM119.573 117.163C118.848 115.864 117.497 113.779 115.555 111.968C113.613 110.156 111.013 108.558 107.812 108.391L107.708 110.389C110.277 110.522 112.452 111.809 114.19 113.43C115.928 115.051 117.162 116.946 117.827 118.138L119.573 117.163ZM122.097 126.691C121.786 125.048 121.389 123.099 120.962 121.364C120.546 119.675 120.071 118.054 119.573 117.163L117.827 118.138C118.172 118.756 118.594 120.113 119.02 121.843C119.435 123.527 119.824 125.436 120.132 127.064L122.097 126.691Z" fill="#1B1B1B"/>
<path d="M101.67 109.01C108.204 109.01 113.5 103.4 113.5 96.48C113.5 89.5598 108.204 83.95 101.67 83.95C95.1365 83.95 89.84 89.5598 89.84 96.48C89.84 103.4 95.1365 109.01 101.67 109.01Z" fill="white" stroke="#1B1B1B" stroke-width="2" stroke-miterlimit="10"/>
<path d="M94.4 94.73V98.24" stroke="#1B1B1B" stroke-width="2" stroke-miterlimit="10"/>
<path d="M98.12 94.73V98.24" stroke="#1B1B1B" stroke-width="2" stroke-miterlimit="10"/>
<path d="M25.49 6.44995C13 6.44995 2.88 14.39 2.88 24.19C2.88 31.67 8.78 38.0599 17.12 40.6699C18.26 42.8899 19.95 45.3599 22.12 46.2999C22.12 46.2999 21.62 44.05 22.03 41.72C23.16 41.86 24.31 41.93 25.49 41.93C37.98 41.93 48.1 33.99 48.1 24.19C48.1 14.39 37.98 6.44995 25.49 6.44995Z" fill="#C7E8EF" stroke="#1B1B1B" stroke-width="2" stroke-miterlimit="10"/>
<path d="M25.54 25.2999C31.3003 25.2999 35.97 20.6303 35.97 14.8699C35.97 9.10961 31.3003 4.43994 25.54 4.43994C19.7797 4.43994 15.11 9.10961 15.11 14.8699C15.11 20.6303 19.7797 25.2999 25.54 25.2999Z" fill="#8AD953" stroke="#1B1B1B" stroke-width="2" stroke-miterlimit="10"/>
<path d="M23.23 20.6199L22.66 27.1699L18.67 31.3199H22.66L25.06 34.1999L27.62 31.1599L31.45 32.2799L28.89 27.1699L28.34 20.6199" fill="#AA793F"/>
<path d="M23.23 20.6199L22.66 27.1699L18.67 31.3199H22.66L25.06 34.1999L27.62 31.1599L31.45 32.2799L28.89 27.1699L28.34 20.6199" stroke="#1B1B1B" stroke-width="2" stroke-miterlimit="10"/>
<path d="M93.28 34.03C80.79 34.03 70.67 41.97 70.67 51.77C70.67 59.61 77.16 66.26 86.15 68.6C87.71 70.68 89.99 73.1 92.49 73.65C92.49 73.65 91.63 71.7 91.53 69.45C92.11 69.48 92.69 69.51 93.28 69.51C105.77 69.51 115.89 61.57 115.89 51.77C115.89 41.97 105.77 34.03 93.28 34.03V34.03Z" fill="#C7E8EF" stroke="#1B1B1B" stroke-width="2" stroke-miterlimit="10"/>
<path d="M101.26 33.43C100.34 29.9 97.14 27.3 93.33 27.3C89.52 27.3 86.25 29.9601 85.37 33.5401C82.01 34.5701 79.57 37.69 79.57 41.39C79.57 45.92 83.25 49.6 87.78 49.6C90.02 49.6 92.05 48.7 93.53 47.25C95.01 48.7 97.04 49.6 99.28 49.6C103.81 49.6 107.49 45.92 107.49 41.39C107.49 37.54 104.84 34.32 101.27 33.43H101.26Z" fill="#8AD953" stroke="#1B1B1B" stroke-width="2" stroke-miterlimit="10"/>
<path d="M90.97 43.46L90.4 59.01H96.63L96.08 43.46" fill="#AA793F"/>
<path d="M90.97 43.46L90.4 59.01H96.63L96.08 43.46" stroke="#1B1B1B" stroke-width="2" stroke-miterlimit="10"/>
<path d="M74.13 49.46C74.13 39.66 64.01 31.72 51.52 31.72C39.03 31.72 28.91 39.66 28.91 49.46C28.91 59.26 39.03 67.2 51.52 67.2C52.55 67.2 53.55 67.14 54.54 67.04C54.6 69.48 53.68 71.73 53.68 71.73C56.49 71.05 58.96 68.01 60.45 65.76C68.49 63.04 74.13 56.77 74.13 49.46V49.46Z" fill="#C7E8EF" stroke="#1B1B1B" stroke-width="2" stroke-miterlimit="10"/>
<path d="M61.63 45.32C61.84 44.71 61.96 44.06 61.96 43.38C61.96 40.08 59.29 37.41 55.99 37.41C54.44 37.41 53.04 38 51.98 38.97C50.89 37.6 49.21 36.73 47.32 36.73C44.02 36.73 41.35 39.4 41.35 42.7C41.35 43.79 41.65 44.8 42.15 45.68C40.41 46.72 39.23 48.62 39.23 50.8C39.23 54.09 41.9 56.76 45.19 56.77C45.84 59.37 48.18 61.3 50.98 61.3C53.99 61.3 56.47 59.07 56.89 56.18C57.43 56.34 58.01 56.43 58.6 56.43C61.9 56.43 64.57 53.76 64.57 50.46C64.57 48.27 63.39 46.37 61.64 45.33L61.63 45.32Z" fill="#FFFEE6" stroke="#1B1B1B" stroke-width="2" stroke-miterlimit="10"/>
<path d="M51.51 51.7299C53.1889 51.7299 54.55 50.3688 54.55 48.6899C54.55 47.011 53.1889 45.6499 51.51 45.6499C49.8311 45.6499 48.47 47.011 48.47 48.6899C48.47 50.3688 49.8311 51.7299 51.51 51.7299Z" fill="#FFCE00" stroke="#1B1B1B" stroke-width="2" stroke-miterlimit="10"/>
<path fill-rule="evenodd" clip-rule="evenodd" d="M-0.290001 81.6913C3.84457 85.8882 10.324 88.5901 17.61 88.5901H17.6102C17.8001 88.5901 17.9901 88.5901 18.18 88.5801C20.46 90.0101 23.88 91.7201 26.68 91.2101C26.68 91.2101 25.2 89.7901 24.23 87.8201C33.49 85.6001 40.22 78.8501 40.22 70.8601V70.8501C40.22 61.0501 30.1 53.1101 17.61 53.1101C10.324 53.1101 3.84457 55.812 -0.290001 60.0089V81.6913Z" fill="#C7E8EF"/>
<path d="M-0.290001 81.6913H-1.29V82.1012L-1.00238 82.3931L-0.290001 81.6913ZM18.18 88.5801L18.7113 87.7329L18.4433 87.5649L18.1275 87.5815L18.18 88.5801ZM26.68 91.2101L26.8592 92.1939L28.7843 91.8433L27.3723 90.4885L26.68 91.2101ZM24.23 87.8201L23.9969 86.8477L22.7802 87.1394L23.3329 88.2618L24.23 87.8201ZM-0.290001 60.0089L-1.00238 59.3071L-1.29 59.5991V60.0089H-0.290001ZM-1.00238 82.3931C3.34118 86.8021 10.0878 89.5901 17.61 89.5901V87.5901C10.5603 87.5901 4.34795 84.9743 0.422375 80.9895L-1.00238 82.3931ZM17.61 89.5901H17.6102V87.5901H17.61V89.5901ZM17.6102 89.5901C17.7958 89.5901 18.012 89.5903 18.2325 89.5787L18.1275 87.5815C17.9681 87.5899 17.8045 87.5901 17.6102 87.5901V89.5901ZM17.6487 89.4273C18.8212 90.1627 20.3122 90.9868 21.8929 91.5623C23.4595 92.1326 25.2096 92.4944 26.8592 92.1939L26.5008 90.2263C25.3504 90.4358 23.9905 90.1976 22.5771 89.683C21.1778 89.1735 19.8188 88.4276 18.7113 87.7329L17.6487 89.4273ZM26.68 91.2101C27.3723 90.4885 27.3725 90.4886 27.3726 90.4888C27.3726 90.4888 27.3727 90.4889 27.3728 90.489C27.3729 90.4891 27.373 90.4892 27.3731 90.4893C27.3733 90.4894 27.3733 90.4895 27.3733 90.4895C27.3733 90.4895 27.3729 90.4891 27.3722 90.4884C27.3708 90.487 27.368 90.4843 27.3639 90.4803C27.3557 90.4723 27.3423 90.459 27.3242 90.4407C27.2879 90.4042 27.2328 90.3477 27.1626 90.2729C27.022 90.1232 26.8222 89.9015 26.5931 89.6211C26.1318 89.0566 25.568 88.2737 25.1271 87.3784L23.3329 88.2618C23.862 89.3365 24.5231 90.2486 25.0444 90.8866C25.3066 91.2075 25.5374 91.4639 25.7046 91.642C25.7883 91.7311 25.8564 91.8009 25.9048 91.8497C25.929 91.8742 25.9484 91.8933 25.9624 91.907C25.9693 91.9139 25.975 91.9194 25.9792 91.9235C25.9813 91.9256 25.9831 91.9273 25.9845 91.9287C25.9852 91.9293 25.9858 91.9299 25.9864 91.9304C25.9866 91.9307 25.9869 91.9309 25.9871 91.9311C25.9872 91.9312 25.9873 91.9314 25.9874 91.9314C25.9875 91.9316 25.9877 91.9317 26.68 91.2101ZM24.4631 88.7925C34.0043 86.5051 41.22 79.4659 41.22 70.8601H39.22C39.22 78.2343 32.9757 84.6951 23.9969 86.8477L24.4631 88.7925ZM41.22 70.8601V70.8501H39.22V70.8601H41.22ZM41.22 70.8501C41.22 60.2855 30.4127 52.1101 17.61 52.1101V54.1101C29.7873 54.1101 39.22 61.8148 39.22 70.8501H41.22ZM17.61 52.1101C10.0878 52.1101 3.34118 54.8981 -1.00238 59.3071L0.422375 60.7107C4.34795 56.7259 10.5603 54.1101 17.61 54.1101V52.1101ZM-1.29 60.0089V81.6913H0.709999V60.0089H-1.29Z" fill="#1B1B1B"/>
<path d="M26.61 81.4L19.35 77.48L14.7 84.29L13.23 76.18L5.01 76.79L10.44 70.58L4.84 64.54L13.08 64.91L14.31 56.76L19.15 63.44L26.29 59.32L24.09 67.27L31.77 70.28L24.18 73.52L26.61 81.4Z" fill="#FFCE00" stroke="#1B1B1B" stroke-width="2" stroke-miterlimit="10"/>
<path d="M17.62 74.09C19.785 74.09 21.54 72.335 21.54 70.17C21.54 68.005 19.785 66.25 17.62 66.25C15.455 66.25 13.7 68.005 13.7 70.17C13.7 72.335 15.455 74.09 17.62 74.09Z" fill="#FF8E14" stroke="#1B1B1B" stroke-width="2" stroke-miterlimit="10"/>
<path d="M113.71 2C121.43 2 127.71 8.28 127.71 16V114C127.71 121.72 121.43 128 113.71 128H15.71C7.99 128 1.71 121.72 1.71 114V16C1.71 8.28 7.99 2 15.71 2H113.71ZM113.71 0H15.71C6.88 0 -0.290001 7.16 -0.290001 16V114C-0.290001 122.84 6.87 130 15.71 130H113.71C122.55 130 129.71 122.84 129.71 114V16C129.71 7.16 122.55 0 113.71 0Z" fill="#1B1B1B"/>
<path d="M144.53 27.0701C144.53 17.2701 134.41 9.33008 121.92 9.33008C109.43 9.33008 99.31 17.2701 99.31 27.0701C99.31 36.8701 109.43 44.8101 121.92 44.8101C122.26 44.8101 122.6 44.8101 122.94 44.7901C123.01 47.3101 121.98 49.6801 121.98 49.6801C124.76 49.0701 127.26 46.1701 128.8 43.9701C137.92 41.6901 144.53 34.9801 144.53 27.0701Z" fill="#C7E8EF" stroke="#1B1B1B" stroke-width="2" stroke-miterlimit="10"/>
<path d="M134.91 26.04C134.91 24.92 133.99 23.91 132.54 23.21C133.47 21.87 133.77 20.52 133.2 19.54C132.64 18.57 131.34 18.15 129.73 18.27C129.86 16.64 129.45 15.33 128.46 14.76C127.49 14.2 126.16 14.49 124.82 15.39C124.12 13.92 123.1 12.98 121.97 12.98C120.84 12.98 119.84 13.9 119.14 15.35C117.8 14.42 116.45 14.12 115.47 14.69C114.5 15.25 114.08 16.55 114.2 18.16C112.57 18.03 111.26 18.44 110.69 19.43C110.13 20.4 110.42 21.73 111.32 23.07C109.85 23.77 108.91 24.79 108.91 25.92C108.91 27.05 109.83 28.05 111.28 28.75C110.35 30.09 110.05 31.44 110.62 32.42C111.18 33.39 112.48 33.81 114.09 33.69C113.96 35.32 114.37 36.63 115.36 37.2C116.33 37.76 117.66 37.47 119 36.57C119.7 38.04 120.72 38.98 121.85 38.98C122.98 38.98 123.98 38.06 124.68 36.61C126.02 37.54 127.37 37.84 128.35 37.27C129.32 36.71 129.74 35.41 129.62 33.8C131.25 33.93 132.56 33.52 133.13 32.53C133.69 31.56 133.4 30.23 132.5 28.89C133.97 28.19 134.91 27.17 134.91 26.04Z" fill="#E079D4" stroke="#1B1B1B" stroke-width="2" stroke-miterlimit="10"/>
<path d="M121.81 29.0202C123.489 29.0202 124.85 27.6591 124.85 25.9802C124.85 24.3012 123.489 22.9402 121.81 22.9402C120.131 22.9402 118.77 24.3012 118.77 25.9802C118.77 27.6591 120.131 29.0202 121.81 29.0202Z" fill="#FFCE00" stroke="#1B1B1B" stroke-width="2" stroke-miterlimit="10"/>
<path d="M160.23 71.8401C160.23 62.0401 150.11 54.1001 137.62 54.1001C125.13 54.1001 115.01 62.0401 115.01 71.8401C115.01 81.6401 124.8 89.3101 137 89.5701C137.24 92.2701 136.07 94.9601 136.07 94.9601C138.92 94.3401 141.49 91.2901 143.02 89.0701C152.9 87.1701 160.23 80.1801 160.23 71.8501V71.8401Z" fill="#C7E8EF" stroke="#1B1B1B" stroke-width="2" stroke-miterlimit="10"/>
<path d="M135.21 66.8801C135.21 66.8801 131.55 68.6301 132.72 73.3201C133.89 78.0001 139.89 76.6901 139.89 76.6901C139.89 76.6901 146.33 72.5901 142.23 69.2201C138.13 65.8501 136.67 68.7401 136.67 70.3701C136.67 72.0001 136.93 72.7301 138.04 72.5901C139.16 72.4401 139.74 70.3701 139.74 70.3701" fill="#FF8E14"/>
<path d="M135.21 66.8801C135.21 66.8801 131.55 68.6301 132.72 73.3201C133.89 78.0001 139.89 76.6901 139.89 76.6901C139.89 76.6901 146.33 72.5901 142.23 69.2201C138.13 65.8501 136.67 68.7401 136.67 70.3701C136.67 72.0001 136.93 72.7301 138.04 72.5901C139.16 72.4401 139.74 70.3701 139.74 70.3701" stroke="#1B1B1B" stroke-width="2" stroke-miterlimit="10"/>
<path d="M137.44 56.8701C137.59 57.9301 135.6 58.2001 135.75 59.2601C135.9 60.3201 137.88 60.0501 138.02 61.1101C138.16 62.1701 136.19 62.4501 136.33 63.5101" stroke="#1B1B1B" stroke-width="2" stroke-linecap="round" stroke-linejoin="round"/>
<path d="M125.13 64.26C126.12 64.66 125.37 66.52 126.36 66.92C127.35 67.32 128.11 65.47 129.1 65.88C130.09 66.29 129.34 68.14 130.33 68.54" stroke="#1B1B1B" stroke-width="2" stroke-linecap="round" stroke-linejoin="round"/>
<path d="M124.74 78.9802C125.59 78.3202 126.81 79.9002 127.66 79.2502C128.51 78.6002 127.28 77.0102 128.13 76.3602C128.98 75.7102 130.2 77.2802 131.05 76.6202" stroke="#1B1B1B" stroke-width="2" stroke-linecap="round" stroke-linejoin="round"/>
<path d="M138.66 86.3102C138.51 85.2502 140.5 84.9802 140.35 83.9202C140.2 82.8602 138.22 83.1302 138.08 82.0702C137.94 81.0102 139.91 80.7302 139.77 79.6702" stroke="#1B1B1B" stroke-width="2" stroke-linecap="round" stroke-linejoin="round"/>
<path d="M150.96 78.9201C149.97 78.5201 150.72 76.6601 149.73 76.2601C148.74 75.8601 147.98 77.7101 146.99 77.3001C146 76.8901 146.75 75.0401 145.76 74.6401" stroke="#1B1B1B" stroke-width="2" stroke-linecap="round" stroke-linejoin="round"/>
<path d="M150.35 64.2001C149.5 64.8601 148.28 63.2801 147.43 63.9301C146.58 64.5801 147.81 66.1701 146.96 66.8201C146.11 67.4701 144.89 65.9001 144.04 66.5601" stroke="#1B1B1B" stroke-width="2" stroke-linecap="round" stroke-linejoin="round"/>
</g>
<defs>
<clipPath id="clip0_2354_13186">
<rect width="180" height="130" fill="white"/>
</clipPath>
</defs>
</svg>
