<svg width="180" height="130" viewBox="0 0 180 130" fill="none" xmlns="http://www.w3.org/2000/svg">
<path d="M114 0H16C7.16344 0 0 7.16344 0 16V114C0 122.837 7.16344 130 16 130H114C122.837 130 130 122.837 130 114V16C130 7.16344 122.837 0 114 0Z" fill="#8FDFF3"/>
<path d="M114 2C121.72 2 128 8.28 128 16V114C128 121.72 121.72 128 114 128H16C8.28 128 2 121.72 2 114V16C2 8.28 8.28 2 16 2H114ZM114 0H16C7.16 0 0 7.16 0 16V114C0 122.84 7.16 130 16 130H114C122.84 130 130 122.84 130 114V16C130 7.16 122.84 0 114 0Z" fill="#1B1B1B"/>
<path d="M78.28 72.54C75.67 72.54 73.19 71.68 71.34 70.15L71.31 70.18L70.6 69.47L66.4 65.26L52.36 65.94L41.24 54.82V29.85C41.24 25.54 44.6 21.93 48.9 21.61L58.79 20.89C59.35 17.04 61.99 10.89 68.93 10.55C69.14 10.55 69.34 10.54 69.53 10.54C76.02 10.54 78.48 15.95 79.02 19.52L94.78 18.78L105.9 29.9V38.62H104.9C100.5 38.62 96.92 42.07 96.71 46.4L105.89 55.56V63.33L88.6 64.17C88.47 66.21 87.52 68.14 85.87 69.67C84.04 71.37 81.55 72.38 78.87 72.51C78.67 72.51 78.48 72.52 78.28 72.52V72.54Z" fill="#C6142A"/>
<path d="M69.53 11.54C77.59 11.54 78.13 20.56 78.13 20.56L94.38 19.8L104.89 30.31V37.62H104.86C99.79 37.62 95.68 41.73 95.68 46.79L104.87 55.97V62.37L87.58 63.21V63.35C87.79 67.61 83.86 71.26 78.8 71.5C78.62 71.5 78.44 71.51 78.26 71.51C75.46 71.51 72.94 70.43 71.29 68.73L66.78 64.22L52.74 64.9L42.23 54.39V29.85C42.23 26.05 45.17 22.89 48.96 22.61L59.68 21.83C59.68 21.83 60.38 11.98 68.97 11.55C69.16 11.55 69.34 11.54 69.52 11.54H69.53ZM69.52 9.53998C69.31 9.53998 69.09 9.53998 68.87 9.55998C61.74 9.90998 58.77 15.79 57.92 19.96L48.8 20.62C43.98 20.97 40.21 25.03 40.21 29.85V55.24L40.8 55.83L51.31 66.34L51.94 66.97L52.82 66.93L65.98 66.29L69.87 70.18L71.45 71.77L71.59 71.6C73.49 72.86 75.82 73.55 78.26 73.55C78.47 73.55 78.68 73.55 78.89 73.53C84.32 73.27 88.68 69.66 89.46 65.15L104.95 64.4L106.85 64.31V55.17L106.27 54.58L97.71 46.03C98.1 42.44 101.15 39.63 104.85 39.63H106.85L106.87 37.63V29.49L106.29 28.9L95.78 18.39L95.16 17.77L94.28 17.81L79.83 18.49C78.98 14.64 76.16 9.54998 69.52 9.54998V9.53998Z" fill="#1B1B1B"/>
<path d="M58.76 53.75C58.97 58.01 63.24 61.26 68.3 61.01C73.36 60.76 77.3 57.11 77.09 52.86V52.72L94.37 51.88V45.48H94.36C89.29 45.48 85.18 41.37 85.19 36.3C85.19 31.23 89.3 27.12 94.37 27.13H94.39V19.82L78.14 20.58C78.14 20.58 77.58 11.15 68.99 11.57C60.4 11.99 59.7 21.85 59.7 21.85L48.98 22.63C45.19 22.91 42.25 26.06 42.25 29.87V54.44L58.77 53.64V53.78L58.76 53.75Z" fill="#FF2434"/>
<path d="M61.51 106.75C54.93 107.54 54.59 114.67 54.58 114.98L54.54 115.94H46.19C43.88 115.94 41.65 114.96 40.09 113.25L28.99 102.39C28.84 102.26 28.67 102.09 28.51 101.92C27.07 100.38 26.28 98.38 26.28 96.29V95.15C24.01 94.71 18.44 92.89 18.44 85.55C18.44 78.76 22.97 76.48 24.87 75.82V64.36L42.7 63.49L52.65 70.84C56.82 70.32 59.9 67.29 59.73 63.81L59.68 62.67L78.4 61.76L90.66 73.76V79.52L96.64 85.37C98.7 87.28 99.9 90 99.9 92.82C99.9 98.12 95.83 102.49 90.65 102.96V114.81L70.93 115.96L61.51 106.74V106.75Z" fill="#60B71C"/>
<path d="M78.02 62.78L89.67 74.18V79.95L95.95 86.09C97.76 87.77 98.9 90.16 98.9 92.82C98.9 97.89 94.79 102 89.72 102H89.65V113.87L71.32 114.94L61.88 105.71C53.87 106.3 53.58 114.94 53.58 114.94H46.2C44.08 114.94 42.17 114.03 40.84 112.58L29.7 101.68C29.54 101.54 29.39 101.39 29.25 101.24C28.04 99.94 27.29 98.2 27.29 96.29V94.29C27.29 94.29 19.45 93.89 19.45 85.56C19.45 77.74 25.88 76.58 25.88 76.58V65.32L42.4 64.52L52.37 71.88C57.22 71.45 60.93 67.9 60.73 63.77V63.63L78.01 62.79L78.02 62.78ZM78.78 60.75L77.91 60.79L60.62 61.63L58.62 61.73L58.72 63.73V63.87C58.87 66.72 56.36 69.22 52.91 69.8L43.58 62.91L43.01 62.49L42.3 62.52L25.78 63.32L23.88 63.41V75.1C21.05 76.27 17.45 79.35 17.45 85.55C17.45 92.29 21.87 95.12 25.29 95.98V96.28C25.29 98.63 26.18 100.87 27.79 102.59C27.96 102.77 28.14 102.95 28.33 103.12L39.4 113.96C41.15 115.85 43.62 116.93 46.2 116.93H55.52L55.58 115C55.61 114.34 56 108.74 61.17 107.8L69.92 116.36L70.55 116.98L71.43 116.93L89.76 115.86L91.64 115.75V103.83C96.9 102.91 100.9 98.32 100.9 92.82C100.9 89.73 99.6 86.75 97.32 84.64L91.66 79.1V73.33L91.06 72.74L79.41 61.34L78.79 60.73L78.78 60.75Z" fill="#1B1B1B"/>
<path d="M78.07 72.25H78.01V62.79L60.73 63.63V63.77C60.94 68.03 57.01 71.68 51.95 71.92C46.89 72.17 42.62 68.92 42.41 64.66V64.52L25.88 65.32V76.58C25.88 76.58 19.45 77.74 19.45 85.56C19.45 93.89 27.29 94.29 27.29 94.29V96.29C27.29 100.3 30.54 103.55 34.55 103.55H41.93C41.93 103.55 42.21 94.26 51.08 94.26C59.95 94.26 59.67 103.55 59.67 103.55L78 102.48V90.61H78.08C83.15 90.61 87.26 86.5 87.26 81.43C87.26 76.36 83.15 72.25 78.08 72.25H78.07Z" fill="#73C92D"/>
<path d="M95.65 91.77V78.55H96.66C101.24 78.55 104.91 74.88 104.91 70.37C104.91 65.86 101.24 62.19 96.73 62.19H95.73L95.67 61.19V46.27C90.52 45.76 86.48 41.41 86.49 36.13C86.49 30.85 90.54 26.5 95.69 26V18.69L133.22 16.94C133.35 16.94 133.48 16.94 133.61 16.94C136.51 16.94 139.23 18.49 140.71 20.99L151.31 34.23C152.79 35.73 153.64 37.72 153.68 39.84L154.06 56.77C156.08 57.56 161.55 60.39 161.55 68.09C161.55 75.79 155.74 78.88 153.66 79.73V96.82C153.66 101.19 150.24 104.81 145.88 105.06L108.02 107.28L95.65 91.77Z" fill="#E0B23F"/>
<path d="M133.6 17.94C136.26 17.94 138.61 19.39 139.88 21.56L150.56 34.9C151.83 36.17 152.64 37.92 152.68 39.86L153.08 57.48C153.08 57.48 160.55 59.35 160.55 68.08C160.55 76.81 152.66 79.02 152.66 79.02V96.81C152.66 100.65 149.66 103.83 145.83 104.06L108.49 106.25L96.66 91.42V79.55H96.74C101.81 79.55 105.92 75.44 105.92 70.37C105.92 65.3 101.81 61.19 96.74 61.19H96.68V45.32C91.61 45.32 87.5 41.21 87.51 36.14C87.51 31.07 91.62 26.97 96.69 26.97H96.71V19.66L133.28 17.95C133.4 17.95 133.51 17.95 133.62 17.95L133.6 17.94ZM133.62 15.95C133.47 15.95 133.33 15.95 133.18 15.96L96.61 17.67L94.7 17.76V25.16C89.47 26.1 85.5 30.67 85.49 36.16C85.49 41.65 89.46 46.23 94.68 47.17V63.22H96.73C100.69 63.22 103.91 66.44 103.91 70.4C103.91 74.36 100.69 77.58 96.73 77.58H94.66V92.15L95.09 92.7L106.92 107.53L107.57 108.34L108.6 108.28L145.94 106.09C150.83 105.8 154.66 101.74 154.66 96.85V80.45C157.99 78.95 162.55 75.12 162.55 68.12C162.55 61.12 158.24 57.49 155.05 56.1L154.68 39.86C154.63 37.51 153.7 35.29 152.06 33.61L141.53 20.46C139.86 17.69 136.84 15.98 133.61 15.98L133.62 15.95Z" fill="#1B1B1B"/>
<path d="M141.25 42.66L140.85 25.04C140.76 20.96 137.33 17.76 133.25 17.95L96.68 19.66V26.97H96.66C91.59 26.97 87.48 31.07 87.48 36.14C87.48 41.21 91.58 45.32 96.65 45.32H96.67V61.19H96.72C101.79 61.19 105.9 65.3 105.9 70.37C105.9 75.44 101.79 79.55 96.72 79.55H96.65V91.42L133.99 89.23C137.83 89.01 140.82 85.83 140.82 81.98V64.19C140.82 64.19 148.71 61.98 148.71 53.25C148.71 44.52 141.24 42.65 141.24 42.65L141.25 42.66Z" fill="#FFDA00"/>
</svg>
