<svg width="180" height="130" viewBox="0 0 180 130" fill="none" xmlns="http://www.w3.org/2000/svg">
<path d="M114 0H16C7.16344 0 0 7.16344 0 16V114C0 122.837 7.16344 130 16 130H114C122.837 130 130 122.837 130 114V16C130 7.16344 122.837 0 114 0Z" fill="#8FDFF3"/>
<path d="M114 2C121.72 2 128 8.28 128 16V114C128 121.72 121.72 128 114 128H16C8.28 128 2 121.72 2 114V16C2 8.28 8.28 2 16 2H114ZM114 0H16C7.16 0 0 7.16 0 16V114C0 122.84 7.16 130 16 130H114C122.84 130 130 122.84 130 114V16C130 7.16 122.84 0 114 0Z" fill="#1B1B1B"/>
<path d="M44.94 48.5501C49.0711 48.5501 52.42 45.2012 52.42 41.0701C52.42 36.939 49.0711 33.5901 44.94 33.5901C40.8089 33.5901 37.46 36.939 37.46 41.0701C37.46 45.2012 40.8089 48.5501 44.94 48.5501Z" fill="white"/>
<path fill-rule="evenodd" clip-rule="evenodd" d="M44.94 34.5901C41.3612 34.5901 38.46 37.4913 38.46 41.0701C38.46 44.6489 41.3612 47.5501 44.94 47.5501C48.5188 47.5501 51.42 44.6489 51.42 41.0701C51.42 37.4913 48.5188 34.5901 44.94 34.5901ZM36.46 41.0701C36.46 36.3867 40.2566 32.5901 44.94 32.5901C49.6233 32.5901 53.42 36.3867 53.42 41.0701C53.42 45.7535 49.6233 49.5501 44.94 49.5501C40.2566 49.5501 36.46 45.7535 36.46 41.0701Z" fill="#1B1B1B"/>
<path d="M92.2999 60.34C90.4299 60.34 88.6799 60.88 87.1999 61.8C81.9599 58.16 68.4599 49.55 60.3899 51.57L44.8999 46.95C44.8999 46.95 40.5399 42.86 36.2099 39.39C36.2899 38.88 36.3499 38.35 36.3499 37.82C36.3499 32.46 31.9999 28.11 26.6399 28.11C21.2799 28.11 16.9299 32.46 16.9299 37.82C16.9299 43.18 21.2799 47.53 26.6399 47.53C27.7099 47.53 28.7299 47.35 29.6899 47.03C33.7899 50.91 41.4499 58.25 44.9099 62.21L45.8299 77.24C45.8299 77.24 34.2699 91.58 33.5699 100.6C33.5699 100.6 24.7999 99.78 23.6399 103.48L42.8199 112.62C42.8199 112.62 50.6799 88.57 62.7099 89.26C62.7099 89.26 67.0999 99.43 83.2899 95.97C83.2899 95.97 85.0699 101.52 89.3799 101.52L87.4499 83.95C87.4499 83.95 72.4199 86.72 71.9599 76.09L70.7999 64.53L82.5999 70.02C82.5999 70.02 82.5999 70.05 82.5999 70.06C82.5999 75.42 86.9499 79.77 92.3099 79.77C97.6699 79.77 102.02 75.42 102.02 70.06C102.02 64.7 97.6699 60.35 92.3099 60.35L92.2999 60.34Z" fill="white"/>
<path fill-rule="evenodd" clip-rule="evenodd" d="M15.9299 37.82C15.9299 31.9077 20.7276 27.11 26.6399 27.11C32.5522 27.11 37.3499 31.9077 37.3499 37.82C37.3499 38.212 37.3211 38.5973 37.2779 38.9663C39.3126 40.6152 41.3174 42.3618 42.8446 43.7252C43.6644 44.457 44.3483 45.08 44.8276 45.5203C45.0672 45.7405 45.2558 45.9151 45.3848 46.0348L45.4104 46.0587L60.4204 50.5355C62.5848 50.0574 65.0156 50.2561 67.4742 50.8306C70.0467 51.4317 72.7228 52.4616 75.2796 53.6565C80.0705 55.8957 84.5323 58.7574 87.2469 60.6175C88.7497 59.8072 90.4727 59.34 92.2999 59.34H92.7143L92.7325 59.3582C98.4491 59.5803 103.02 64.2892 103.02 70.06C103.02 75.9723 98.2222 80.77 92.3099 80.77C86.6009 80.77 81.9311 76.2964 81.6168 70.6655L71.9703 66.1774L72.9578 76.0184L72.959 76.0467C73.0624 78.4357 73.967 79.9889 75.2167 81.0362C76.5011 82.1127 78.2277 82.7173 80.0419 83.0199C81.8469 83.3209 83.6568 83.3095 85.0284 83.2189C85.7109 83.1738 86.2775 83.1096 86.6709 83.057C86.8675 83.0308 87.0204 83.0075 87.1225 82.9911C87.1735 82.9829 87.2119 82.9765 87.2365 82.9722L87.2632 82.9675L87.2686 82.9666L88.3265 82.7716L90.4958 102.52H89.3799C86.7472 102.52 84.963 100.819 83.9029 99.3234C83.3635 98.5625 82.9759 97.8083 82.7235 97.2477C82.7033 97.2027 82.6839 97.1589 82.6653 97.1164C74.8029 98.6125 69.625 96.9423 66.3686 94.7409C64.6981 93.6117 63.5643 92.3633 62.8446 91.3893C62.5108 90.9375 62.2652 90.5436 62.0957 90.2462C59.6555 90.28 57.3456 91.4523 55.1911 93.3665C52.8733 95.4257 50.8252 98.2674 49.1167 101.186C47.413 104.097 46.0744 107.037 45.1606 109.254C44.7043 110.361 44.3553 111.285 44.1211 111.929C44.0039 112.252 43.9156 112.504 43.8568 112.675C43.8274 112.761 43.8055 112.826 43.791 112.869L43.7751 112.917L43.7713 112.928L43.7705 112.93L43.417 114.012L22.426 104.009L22.6857 103.181C23.0957 101.873 24.1527 101.06 25.2705 100.557C26.3922 100.052 27.7147 99.7924 28.9304 99.6585C30.1573 99.5234 31.3368 99.5103 32.2042 99.5299C32.3767 99.5338 32.5375 99.5391 32.6846 99.5449C33.0065 97.3816 33.8273 95.0365 34.8698 92.7324C36.0775 90.0632 37.6137 87.3827 39.117 85.0033C40.6219 82.6217 42.1031 80.5271 43.2078 79.0283C43.7604 78.2784 44.2196 77.6766 44.5414 77.2613C44.6451 77.1274 44.7346 77.0128 44.8084 76.9189L43.9328 62.6133C40.5316 58.7769 33.5238 52.0415 29.4237 48.1551C28.539 48.3965 27.6086 48.53 26.6399 48.53C20.7276 48.53 15.9299 43.7323 15.9299 37.82ZM46.6083 77.8678L46.6015 77.8763L46.5781 77.9055C46.5571 77.9317 46.5256 77.9713 46.4842 78.0237C46.4013 78.1284 46.2789 78.2842 46.1223 78.4863C45.8092 78.8904 45.3598 79.4794 44.8177 80.2148C43.733 81.6867 42.2805 83.7408 40.8078 86.0716C39.3337 88.4048 37.8486 91.0005 36.692 93.5569C35.5293 96.1265 34.7288 98.5911 34.5669 100.677L34.4883 101.69L33.4773 101.596L33.4739 101.595L33.4586 101.594L33.3923 101.589C33.3328 101.584 33.2435 101.577 33.1282 101.57C32.8974 101.556 32.5638 101.539 32.1588 101.529C31.3456 101.511 30.2601 101.524 29.1494 101.646C28.0277 101.77 26.9401 101.999 26.0913 102.381C25.6482 102.58 25.3073 102.804 25.0582 103.048L42.2444 111.238C42.4869 110.571 42.8449 109.624 43.3115 108.492C44.2474 106.221 45.6256 103.192 47.3907 100.176C49.1509 97.1688 51.3234 94.1274 53.8628 91.8713C56.4022 89.6152 59.3985 88.0684 62.7672 88.2616L63.3834 88.297L63.6264 88.86L63.6271 88.8615L63.6275 88.8625L63.6316 88.8713C63.637 88.8831 63.6468 88.9039 63.6611 88.9331C63.6897 88.9915 63.7365 89.0831 63.8031 89.2023C63.9364 89.4408 64.1485 89.7885 64.4531 90.2007C65.0625 91.0254 66.038 92.1033 67.4887 93.084C70.3612 95.0258 75.223 96.6714 83.0809 94.9921L83.9658 94.803L84.2416 95.663L84.242 95.664L84.2439 95.6698L84.2558 95.7048C84.2672 95.7377 84.2855 95.7891 84.3108 95.8564C84.3615 95.991 84.4399 96.1881 84.5473 96.4267C84.7633 96.9067 85.0902 97.54 85.5345 98.1666C86.2244 99.1398 87.1187 99.9936 88.2451 100.347L86.5687 85.0855C86.1827 85.1311 85.7053 85.1785 85.1603 85.2145C83.6993 85.3111 81.7229 85.3278 79.7129 84.9926C77.7122 84.6589 75.595 83.9629 73.932 82.5691C72.2397 81.1508 71.0951 79.073 70.9622 76.1622L69.6296 62.8825L83.5999 69.3823V70.0597C83.5999 74.8674 87.5022 78.77 92.3099 78.77C97.1177 78.77 101.02 74.8677 101.02 70.06C101.02 65.2523 97.1177 61.35 92.3099 61.35H91.8956C90.3728 61.4211 88.9489 61.8902 87.7279 62.6493L87.1694 62.9964L86.6294 62.6213C84.0289 60.8148 79.3971 57.7886 74.4328 55.4684C71.9508 54.3084 69.4113 53.3371 67.0191 52.7781C64.617 52.2169 62.4358 52.0887 60.6328 52.5401L60.3668 52.6066L44.3879 47.8408L44.2158 47.6793L44.1675 47.6341L44.0235 47.5001C43.8971 47.3827 43.7112 47.2106 43.4745 46.9931C43.001 46.5581 42.3242 45.9417 41.5127 45.2172C39.8881 43.7669 37.7302 41.8898 35.5846 40.1703L35.1322 39.8078L35.222 39.235C35.2979 38.7511 35.3499 38.2777 35.3499 37.82C35.3499 33.0123 31.4476 29.11 26.6399 29.11C21.8322 29.11 17.9299 33.0123 17.9299 37.82C17.9299 42.6277 21.8322 46.53 26.6399 46.53C27.5962 46.53 28.5096 46.3693 29.3737 46.0813L29.9421 45.8918L30.3773 46.3037C34.4654 50.1724 42.1649 57.5485 45.663 61.552L45.8872 61.8087L46.8518 77.5658L46.6083 77.8678Z" fill="#1B1B1B"/>
<path d="M73.3899 50.23C73.3899 50.23 64.5999 43.77 55.1599 44.7L52.1699 48.94C52.1699 48.94 67.7099 43.7 69.2999 62.28L69.0699 76.39C69.0699 76.39 62.1999 89.4 74.9699 92.83L70.4599 109.22C70.4599 109.22 63.0599 106.21 60.2899 110.84L79.2499 119.86C79.2499 119.86 96.8199 91.78 96.3599 82.23V64.13C96.3599 64.13 103.67 50.98 114.35 50.97L116.94 44.61C116.94 44.61 97.0499 41.7 88.2699 46.33" fill="white"/>
<path fill-rule="evenodd" clip-rule="evenodd" d="M117.084 43.6204C117.084 43.6205 117.085 43.6205 116.94 44.61L117.084 43.6204L118.347 43.8052L115.023 51.9693L114.351 51.97C109.422 51.9746 105.17 55.0234 102.071 58.2468C100.536 59.8427 99.3222 61.442 98.4916 62.6437C98.077 63.2436 97.7596 63.742 97.5471 64.0881C97.4711 64.2119 97.4086 64.3161 97.3599 64.3984V82.2067C97.4784 84.8314 96.3863 88.5477 94.8097 92.5084C93.2084 96.5309 91.037 100.971 88.8618 105.093C86.6848 109.218 84.4947 113.041 82.8495 115.831C82.0267 117.227 81.3396 118.365 80.8578 119.155C80.6169 119.55 80.4273 119.858 80.2977 120.068C80.233 120.173 80.1832 120.253 80.1495 120.307L80.1111 120.369L80.098 120.39C80.0978 120.39 80.0977 120.39 79.2499 119.86L80.098 120.39L79.625 121.146L58.8671 111.27L59.4318 110.327C61.1166 107.51 64.1759 107.114 66.4926 107.297C67.6766 107.391 68.7563 107.639 69.5342 107.86C69.6187 107.884 69.6998 107.908 69.7773 107.931L73.7461 93.5083C70.9123 92.5751 69.0159 91.1235 67.8325 89.3746C66.5279 87.4466 66.1665 85.2707 66.2317 83.2908C66.2968 81.3139 66.788 79.4755 67.2519 78.1468C67.4852 77.4786 67.7149 76.93 67.8876 76.5457C67.9612 76.382 68.0246 76.2478 68.0738 76.1464L68.2992 62.3149C67.9089 57.8373 66.6906 54.8995 65.1687 52.9781C63.6476 51.0577 61.7622 50.0753 59.898 49.6131C58.0188 49.1471 56.1625 49.2119 54.7573 49.4025C54.0586 49.4972 53.4818 49.6216 53.0833 49.7212C52.8843 49.771 52.7305 49.8144 52.629 49.8444C52.5782 49.8595 52.5406 49.8712 52.5171 49.8786L52.4924 49.8866L52.4886 49.8878C52.4884 49.8879 52.4884 49.8879 52.4886 49.8878L49.5882 50.8658L54.6065 43.7496L55.0619 43.7048C60.0242 43.2159 64.7653 44.6689 68.2205 46.2022C69.9563 46.9724 71.3885 47.7722 72.3888 48.3808C72.8893 48.6853 73.2829 48.9427 73.5536 49.1256C73.689 49.217 73.7937 49.2899 73.8657 49.3408C73.9018 49.3662 73.9297 49.3862 73.9491 49.4002L73.972 49.4168L73.9787 49.4216L73.9808 49.4232C73.9811 49.4234 73.9821 49.4242 73.3899 50.23C72.7977 51.0358 72.7979 51.0359 72.7981 51.036L72.795 51.0338L72.7797 51.0227C72.7654 51.0124 72.7428 50.9962 72.7121 50.9745C72.6508 50.9312 72.5574 50.8662 72.434 50.7828C72.1871 50.616 71.8202 50.376 71.3492 50.0894C70.4064 49.5158 69.051 48.7588 67.4093 48.0303C64.2204 46.6152 60.0284 45.3424 55.709 45.6566L54.4625 47.4241C54.4712 47.423 54.4798 47.4218 54.4885 47.4206C56.0468 47.2093 58.1748 47.1253 60.3793 47.6718C62.5989 48.2221 64.8966 49.4135 66.7365 51.7362C68.5698 54.0508 69.8869 57.4107 70.2963 62.1947L70.3006 62.2454L70.0659 76.6454L69.9547 76.856L69.9542 76.8569L69.9525 76.8602L69.9414 76.8818C69.931 76.9021 69.9148 76.9343 69.8935 76.9777C69.8509 77.0644 69.7882 77.1955 69.7118 77.3657C69.5587 77.7063 69.3514 78.2009 69.1401 78.806C68.715 80.0238 68.2868 81.6523 68.2306 83.3566C68.1746 85.058 68.4901 86.7777 69.4889 88.2538C70.4794 89.7176 72.2189 91.0556 75.2293 91.8642L76.201 92.1252L71.1255 110.57L70.0842 110.147L70.0832 110.146L70.0718 110.142C70.0612 110.138 70.0438 110.131 70.02 110.122C69.9724 110.104 69.8995 110.076 69.804 110.043C69.6128 109.975 69.3327 109.882 68.9866 109.784C68.2905 109.586 67.347 109.371 66.3348 109.291C64.6481 109.157 62.9945 109.405 61.8516 110.476L78.8702 118.572C78.9535 118.436 79.0471 118.283 79.1502 118.114C79.6275 117.331 80.3095 116.201 81.1266 114.815C82.7615 112.042 84.9351 108.248 87.0931 104.159C89.2528 100.067 91.3877 95.6972 92.9515 91.7687C94.5349 87.791 95.4646 84.427 95.3611 82.2781L95.3599 82.254V63.8707L95.4859 63.6441L96.3599 64.13C95.4859 63.6441 95.4857 63.6445 95.4859 63.6441L95.4868 63.6424L95.4884 63.6396L95.4936 63.6303L95.5121 63.5977C95.5217 63.5807 95.534 63.5592 95.5489 63.5334C95.5585 63.5169 95.5691 63.4986 95.5807 63.4787C95.6405 63.3761 95.7281 63.2284 95.8427 63.0417C96.0717 62.6686 96.4088 62.1396 96.8464 61.5065C97.7202 60.2423 99.0012 58.5535 100.629 56.8606C103.727 53.6394 108.225 50.2548 113.671 49.987L115.524 45.4346C115.012 45.373 114.36 45.2992 113.595 45.2226C111.611 45.0239 108.876 44.807 105.873 44.7334C102.867 44.6597 99.6095 44.7302 96.5748 45.1006C93.5257 45.4727 90.7751 46.1394 88.7364 47.2145L87.8035 45.4454C90.1548 44.2055 93.1829 43.4997 96.3325 43.1153C99.4966 42.7291 102.858 42.6589 105.922 42.734C108.989 42.8092 111.775 43.0304 113.795 43.2326C114.805 43.3338 115.625 43.4303 116.193 43.5018C116.477 43.5375 116.699 43.567 116.85 43.5876C116.925 43.5979 116.983 43.606 117.023 43.6116L117.068 43.6181L117.08 43.6198L117.084 43.6204Z" fill="#1B1B1B"/>
<path d="M145.58 42.13C141.36 42.01 137.75 44.7 136.46 48.46C125.55 48.69 103.95 47.68 96.3 61.82L94.85 84.58C94.85 84.58 83.4 99.52 79.47 110.39C79.47 110.39 75.6 108.15 70.52 112.61L87.63 121.93C87.63 121.93 98.03 97.04 108.89 95.65C108.89 95.65 116.53 103.43 121.97 103.66C127.4 103.89 136.42 99.5 136.42 99.5C136.42 99.5 139.19 105.05 146.13 103.43L137.34 86.32C137.34 86.32 122.77 95.57 121.96 83.31L123.23 64.58C123.23 64.58 131.22 60.43 138.76 58.16C140.45 59.81 142.76 60.84 145.31 60.84C150.57 60.84 154.82 56.5 154.67 51.21C154.53 46.33 150.46 42.26 145.58 42.12V42.13Z" fill="white"/>
<path fill-rule="evenodd" clip-rule="evenodd" d="M139.543 43.8882C138.141 45.1273 137.318 46.7282 137.001 47.787L136.771 48.5538L135.972 48.4975C107.981 46.5239 98.0783 57.0443 96.4868 62.0336L94.4701 85.2741L94.2837 85.5095C85.5477 96.5396 81.0759 106.362 79.9504 109.81L79.6193 110.825L78.6284 110.428C76.9564 109.76 75.1594 110.015 73.5073 110.699C72.4794 111.124 71.5521 111.699 70.8163 112.254L87.5105 120.162C91.9909 110.423 96.303 104.14 99.9019 100.235C101.758 98.221 103.434 96.8282 104.858 95.9208C106.258 95.028 107.489 94.5578 108.441 94.5017L108.971 94.4706L109.293 94.8916C113.382 100.225 117.431 102.54 121.622 103.042C125.87 103.551 130.445 102.223 135.629 99.8685L136.38 99.5276L136.858 100.199C137.221 100.71 137.815 101.421 138.673 102.072C140.233 103.258 142.66 104.24 146.13 103.43L137.337 86.314C135.878 87.2115 134.01 88.271 132.065 88.9785C129.713 89.8339 126.983 90.2719 124.705 88.9525C123.238 88.1033 122.179 86.4037 121.965 83.3803L121.96 83.3112L123.23 64.5769L123.74 64.3205C128.381 61.9881 133.214 59.8877 138.207 58.3296L138.74 58.1632L139.161 58.5299C140.807 59.9625 142.956 60.84 145.31 60.84C150.57 60.84 154.82 56.4998 154.67 51.21C154.53 46.33 150.46 42.26 145.58 42.12L145.535 42.1187L145.491 42.1134C142.848 41.7989 140.915 42.6748 139.543 43.8882ZM145.682 40.1222C142.434 39.7482 139.961 40.8493 138.218 42.3896C136.797 43.6454 135.865 45.1865 135.354 46.4517C107.356 44.6806 96.4215 55.3292 94.5425 61.5509L94.5125 61.6502L92.5294 84.5038C84.4472 94.7628 79.9576 104.012 78.3782 108.253C76.3789 107.765 74.3993 108.165 72.7423 108.851C70.8119 109.65 69.2047 110.881 68.2927 111.793L67.2893 112.796L88.4925 122.84L88.9114 121.911C93.4801 111.781 97.8429 105.421 101.373 101.59C103.138 99.6748 104.684 98.4031 105.933 97.6073C106.852 97.0213 107.572 96.7171 108.076 96.5833C112.285 101.898 116.66 104.462 121.384 105.028C125.971 105.577 130.725 104.22 135.733 102.013C136.165 102.529 136.736 103.113 137.463 103.665C139.443 105.17 142.472 106.338 146.585 105.378L149.08 104.795L138.118 83.4572L137.193 84.0444C135.653 85.0222 133.544 86.3124 131.381 87.099C129.183 87.8986 127.192 88.0817 125.707 87.2217C125.004 86.8149 124.159 85.862 123.965 83.3069L125.148 65.8526C129.403 63.7366 133.789 61.843 138.287 60.4018C140.216 61.9196 142.655 62.84 145.31 62.84C151.692 62.84 156.851 57.5736 156.669 51.153C156.499 45.2284 151.602 40.3161 145.682 40.1222Z" fill="black"/>
<path fill-rule="evenodd" clip-rule="evenodd" d="M100.971 59.2409L99.8113 51.6409L101.788 51.3391L102.948 58.9391L100.971 59.2409Z" fill="#1B1B1B"/>
<path d="M55.0801 54.77C62.9336 54.77 69.3001 48.4034 69.3001 40.55C69.3001 32.6965 62.9336 26.33 55.0801 26.33C47.2266 26.33 40.8601 32.6965 40.8601 40.55C40.8601 48.4034 47.2266 54.77 55.0801 54.77Z" fill="white"/>
<path fill-rule="evenodd" clip-rule="evenodd" d="M55.0801 27.33C47.7789 27.33 41.8601 33.2488 41.8601 40.55C41.8601 47.8512 47.7789 53.77 55.0801 53.77C62.3813 53.77 68.3001 47.8512 68.3001 40.55C68.3001 33.2488 62.3813 27.33 55.0801 27.33ZM39.8601 40.55C39.8601 32.1442 46.6743 25.33 55.0801 25.33C63.4859 25.33 70.3001 32.1442 70.3001 40.55C70.3001 48.9557 63.4859 55.77 55.0801 55.77C46.6743 55.77 39.8601 48.9557 39.8601 40.55Z" fill="#1B1B1B"/>
<path fill-rule="evenodd" clip-rule="evenodd" d="M46.72 38.38V33.74H48.72V38.38H46.72Z" fill="#1B1B1B"/>
<path fill-rule="evenodd" clip-rule="evenodd" d="M51.63 38.38V33.74H53.63V38.38H51.63Z" fill="#1B1B1B"/>
<path d="M73.6901 102.12L75.3601 98.44C75.3601 98.44 92.9101 106.92 93.4201 110.67L90.6001 115.7C90.6001 115.7 80.2701 104.96 73.6901 102.12Z" fill="#1F8AFF"/>
<path fill-rule="evenodd" clip-rule="evenodd" d="M75.7952 97.5396L75.3602 98.44C75.7952 97.5396 75.795 97.5395 75.7952 97.5396L75.8091 97.5463L75.8479 97.5652L75.9973 97.6381C76.1276 97.702 76.3182 97.7958 76.5606 97.9164C77.0453 98.1575 77.7374 98.5056 78.5691 98.935C80.2313 99.7933 82.4568 100.979 84.7016 102.284C86.9406 103.586 89.2255 105.023 90.9933 106.385C91.8755 107.064 92.6564 107.746 93.2429 108.401C93.8018 109.025 94.3052 109.757 94.411 110.535L94.4562 110.867L90.8135 117.364L89.8794 116.393L89.8729 116.386L89.8517 116.364L89.7661 116.276C89.6903 116.198 89.5777 116.083 89.4317 115.935C89.1397 115.64 88.7143 115.213 88.1829 114.691C87.1196 113.648 85.6345 112.228 83.9467 110.721C80.5352 107.675 76.4169 104.386 73.2939 103.038L73.6902 102.12L72.7795 101.707L74.8729 97.0939L75.7952 97.5396ZM75.0081 101.636C78.2914 103.3 82.176 106.459 85.2787 109.229C86.9959 110.762 88.5045 112.205 89.5837 113.264C89.883 113.557 90.1494 113.822 90.3784 114.051L92.3407 110.55C92.2467 110.359 92.0681 110.087 91.7525 109.735C91.2817 109.209 90.6078 108.612 89.773 107.969C88.1067 106.686 85.9085 105.3 83.6962 104.013C81.4898 102.73 79.2959 101.561 77.6516 100.712C76.9252 100.337 76.3071 100.025 75.844 99.7938L75.0081 101.636Z" fill="#1B1B1B"/>
<path d="M71.3901 107.17C71.3901 107.17 82.2101 106.81 92.1701 112.76L94.8501 108.28C94.8501 108.28 79.8701 98.66 73.0701 103.48L71.3901 107.17Z" fill="#1F8AFF"/>
<path fill-rule="evenodd" clip-rule="evenodd" d="M95.39 107.438C95.3903 107.438 95.3905 107.439 94.8502 108.28L95.39 107.438L96.2056 107.962L92.5153 114.131L91.6573 113.618C86.8172 110.727 81.7521 109.361 77.8819 108.72C75.9498 108.401 74.3243 108.263 73.1859 108.205C72.6169 108.177 72.1704 108.168 71.8689 108.166C71.7182 108.165 71.6038 108.166 71.5286 108.167C71.491 108.168 71.4632 108.168 71.4455 108.169L71.4267 108.169L71.4234 108.169L69.812 108.223L72.2718 102.82L72.4919 102.664C74.4666 101.264 76.9562 100.966 79.4365 101.201C81.9267 101.437 84.5339 102.223 86.8753 103.142C89.2242 104.063 91.3489 105.135 92.8833 105.975C93.6517 106.395 94.2749 106.759 94.7076 107.018C94.9239 107.148 95.0928 107.252 95.2085 107.324C95.2663 107.36 95.3109 107.388 95.3414 107.407L95.3767 107.43L95.3863 107.436L95.39 107.438ZM93.4833 108.617C93.0849 108.381 92.5556 108.075 91.9233 107.729C90.4365 106.916 88.3911 105.885 86.145 105.003C83.8915 104.119 81.4786 103.404 79.2475 103.192C77.1173 102.99 75.2654 103.257 73.8633 104.151L72.9343 106.192C73.0465 106.196 73.1641 106.202 73.287 106.208C74.4886 106.269 76.1905 106.413 78.2084 106.747C82.0117 107.377 86.9685 108.685 91.8179 111.401L93.4833 108.617Z" fill="#1B1B1B"/>
<path fill-rule="evenodd" clip-rule="evenodd" d="M69.4988 108.954L77.3088 81.7639L79.2311 82.3161L71.4211 109.506L69.4988 108.954Z" fill="#1B1B1B"/>
<path d="M79.43 54.42C87.2835 54.42 93.65 48.0535 93.65 40.2C93.65 32.3465 87.2835 25.98 79.43 25.98C71.5765 25.98 65.21 32.3465 65.21 40.2C65.21 48.0535 71.5765 54.42 79.43 54.42Z" fill="white"/>
<path fill-rule="evenodd" clip-rule="evenodd" d="M79.43 26.98C72.1288 26.98 66.21 32.8988 66.21 40.2C66.21 47.5012 72.1288 53.42 79.43 53.42C86.7312 53.42 92.65 47.5012 92.65 40.2C92.65 32.8988 86.7312 26.98 79.43 26.98ZM64.21 40.2C64.21 31.7942 71.0242 24.98 79.43 24.98C87.8357 24.98 94.65 31.7942 94.65 40.2C94.65 48.6058 87.8357 55.42 79.43 55.42C71.0242 55.42 64.21 48.6058 64.21 40.2Z" fill="#1B1B1B"/>
<path fill-rule="evenodd" clip-rule="evenodd" d="M70.8999 40.59V35.94H72.8999V40.59H70.8999Z" fill="#1B1B1B"/>
<path fill-rule="evenodd" clip-rule="evenodd" d="M75.8199 40.59V35.94H77.8199V40.59H75.8199Z" fill="#1B1B1B"/>
<path d="M106.4 55.29C114.254 55.29 120.62 48.9235 120.62 41.07C120.62 33.2165 114.254 26.85 106.4 26.85C98.5467 26.85 92.1802 33.2165 92.1802 41.07C92.1802 48.9235 98.5467 55.29 106.4 55.29Z" fill="white"/>
<path fill-rule="evenodd" clip-rule="evenodd" d="M106.4 27.85C99.099 27.85 93.1802 33.7688 93.1802 41.07C93.1802 48.3712 99.099 54.29 106.4 54.29C113.701 54.29 119.62 48.3712 119.62 41.07C119.62 33.7688 113.701 27.85 106.4 27.85ZM91.1802 41.07C91.1802 32.6642 97.9944 25.85 106.4 25.85C114.806 25.85 121.62 32.6642 121.62 41.07C121.62 49.4757 114.806 56.29 106.4 56.29C97.9944 56.29 91.1802 49.4757 91.1802 41.07Z" fill="#1B1B1B"/>
<path fill-rule="evenodd" clip-rule="evenodd" d="M100.5 39.93V35.28H102.5V39.93H100.5Z" fill="#1B1B1B"/>
<path fill-rule="evenodd" clip-rule="evenodd" d="M105.42 39.93V35.28H107.42V39.93H105.42Z" fill="#1B1B1B"/>
<path d="M122.41 52.98C126.541 52.98 129.89 49.6311 129.89 45.5C129.89 41.3689 126.541 38.02 122.41 38.02C118.279 38.02 114.93 41.3689 114.93 45.5C114.93 49.6311 118.279 52.98 122.41 52.98Z" fill="white"/>
<path fill-rule="evenodd" clip-rule="evenodd" d="M122.41 39.02C118.831 39.02 115.93 41.9212 115.93 45.5C115.93 49.0788 118.831 51.98 122.41 51.98C125.989 51.98 128.89 49.0788 128.89 45.5C128.89 41.9212 125.989 39.02 122.41 39.02ZM113.93 45.5C113.93 40.8166 117.727 37.02 122.41 37.02C127.094 37.02 130.89 40.8166 130.89 45.5C130.89 50.1834 127.094 53.98 122.41 53.98C117.727 53.98 113.93 50.1834 113.93 45.5Z" fill="#1B1B1B"/>
<path d="M140.09 22.75C140.09 22.75 142.98 27.82 146.92 28.57C146.92 28.57 148.8 25.38 151.05 23.88C151.05 23.88 146.47 22.75 145.57 19L140.09 22.75Z" fill="#FF2434"/>
<path fill-rule="evenodd" clip-rule="evenodd" d="M139.525 21.9247L145.005 18.1747L146.542 18.7666C146.903 20.2709 148.015 21.3039 149.16 21.9878C149.724 22.3246 150.266 22.5583 150.668 22.7073C150.868 22.7815 151.03 22.8337 151.139 22.8666C151.194 22.883 151.235 22.8945 151.261 22.9015L151.287 22.9086L151.29 22.9093C151.29 22.9093 151.29 22.9093 151.29 22.9105L151.605 24.7121C150.619 25.3693 149.666 26.4365 148.936 27.394C148.578 27.8636 148.286 28.2892 148.085 28.5964C147.985 28.7497 147.907 28.8728 147.855 28.9563C147.829 28.998 147.81 29.0298 147.798 29.0505L147.784 29.0729L147.781 29.0776C147.781 29.0776 147.782 29.0777 147.781 29.0776L146.733 29.5524C144.431 29.1142 142.537 27.452 141.281 26.0447C140.638 25.324 140.127 24.6308 139.777 24.1178C139.601 23.8606 139.465 23.647 139.371 23.4956C139.325 23.4199 139.288 23.3597 139.263 23.3172L139.234 23.2671L139.225 23.2525L139.223 23.2479L139.222 23.2464C139.222 23.2461 139.221 23.2452 140.09 22.75L139.525 21.9247ZM141.455 23.0278C141.768 23.4847 142.217 24.0895 142.773 24.7129C143.793 25.8549 145.074 26.9461 146.466 27.4178C146.685 27.0885 146.984 26.6558 147.346 26.1811C147.813 25.5685 148.405 24.8588 149.08 24.2071C148.782 24.067 148.462 23.9005 148.134 23.7047C147.055 23.0597 145.815 22.0493 145.074 20.5509L141.455 23.0278Z" fill="#1B1B1B"/>
<path d="M14.39 62.28C14.39 62.28 19.73 59.93 20.89 56.09C20.89 56.09 17.91 53.89 16.65 51.49C16.65 51.49 15.05 55.93 11.23 56.43L14.39 62.27V62.28Z" fill="#FF8E14"/>
<path fill-rule="evenodd" clip-rule="evenodd" d="M15.7107 51.1509L17.5355 51.0251C18.0876 52.0769 19.0511 53.1359 19.9282 53.962C20.3585 54.3673 20.7517 54.7014 21.0366 54.9336C21.1787 55.0494 21.2932 55.1393 21.3709 55.1994C21.4097 55.2294 21.4393 55.2519 21.4586 55.2664L21.4795 55.2821L21.4839 55.2854C21.4839 55.2854 21.484 55.2852 21.4839 55.2854L21.8474 56.3792C21.1698 58.622 19.3201 60.3324 17.7901 61.436C17.0067 62.0011 16.2644 62.4373 15.718 62.7326C15.4441 62.8806 15.2176 62.9941 15.0574 63.0716C14.9773 63.1104 14.9136 63.1402 14.8688 63.1609L14.8159 63.185L14.8005 63.1919L14.7957 63.194L14.7941 63.1947C14.7938 63.1949 14.7929 63.1953 14.3901 62.28L14.7929 63.1953L13.8351 62.5703L13.5106 62.7459L10.3506 56.9059L11.1003 55.4384C12.6313 55.238 13.7731 54.2408 14.572 53.1733C14.9653 52.6477 15.254 52.1325 15.444 51.7483C15.5385 51.5572 15.6073 51.401 15.6514 51.2957C15.6734 51.2431 15.6891 51.2034 15.6988 51.1786L15.7086 51.1528L15.7095 51.1503C15.7095 51.1504 15.7095 51.1504 15.7107 51.1509ZM16.7705 53.4846C16.6003 53.7657 16.4017 54.0664 16.1732 54.3717C15.4201 55.3779 14.2873 56.5053 12.7216 57.0851L14.8121 60.9486C15.2985 60.6839 15.9445 60.3012 16.6201 59.8139C17.8616 58.9185 19.0807 57.7568 19.6962 56.421C19.3911 56.1699 18.9917 55.8274 18.557 55.4179C17.9952 54.8888 17.3496 54.2252 16.7705 53.4846Z" fill="#1B1B1B"/>
<path d="M133.56 57.6799C133.56 57.6799 136.5 61.6999 133.85 64.2399L140.07 61.0899C140.07 61.0899 140.52 55.6899 136.89 53.9299L133.55 57.6699L133.56 57.6799Z" fill="#FF8E14"/>
<path fill-rule="evenodd" clip-rule="evenodd" d="M136.144 53.2638L137.326 53.0301C139.548 54.1074 140.451 56.2659 140.818 57.9575C141.006 58.8195 141.068 59.6144 141.083 60.1914C141.091 60.4814 141.087 60.7199 141.082 60.8889C141.079 60.9735 141.075 61.041 141.072 61.089C141.071 61.113 141.07 61.1322 141.069 61.1463L141.067 61.1635L141.067 61.1692L141.067 61.1713L141.067 61.1722C141.067 61.1726 141.067 61.1729 140.07 61.0899L141.067 61.1729L140.522 61.982L134.302 65.132L133.158 63.518C134.085 62.6292 134.098 61.4645 133.742 60.2994C133.568 59.7276 133.318 59.2136 133.106 58.8378C133.002 58.6518 132.909 58.5041 132.845 58.4054C132.812 58.3561 132.787 58.3193 132.771 58.2962L132.754 58.2723L132.752 58.2697C132.753 58.2698 132.753 58.2699 132.838 58.2077L132.804 57.0038L136.144 53.2638ZM139.088 60.4665C139.087 60.3982 139.086 60.3245 139.084 60.2459C139.071 59.7554 139.018 59.0903 138.864 58.3823C138.6 57.1683 138.074 55.9731 137.082 55.2161L134.8 57.771C134.817 57.7992 134.833 57.828 134.85 57.8576C135.107 58.315 135.426 58.9647 135.655 59.7154C135.864 60.3984 136.01 61.2166 135.937 62.0621L139.088 60.4665Z" fill="#1B1B1B"/>
<path d="M38.2501 16.8L36.5601 21.58L39.6401 23.7801L43.3201 16.8H38.2501Z" fill="#FF2434"/>
<path fill-rule="evenodd" clip-rule="evenodd" d="M37.3072 16.4667L38.25 15.8H43.32L44.2046 17.2664L40.5246 24.2464L39.0588 24.5938L35.9788 22.3938L35.6172 21.2467L37.3072 16.4667ZM38.9571 17.8L37.7537 21.2038L39.2894 22.3008L41.6623 17.8H38.9571Z" fill="#1B1B1B"/>
<path d="M153.22 86.9301C153.22 86.9301 148.33 83.2301 139.04 79.6101C130.47 76.2701 116.27 72.2901 97.23 72.2901C87.61 72.2901 77.54 73.3001 67.29 75.3001C46.6 79.3301 29.34 81.3701 15.98 81.3701C10.4 81.3701 5.65003 81.0101 1.85003 80.3001L1.03003 80.1501V73.7201L2.27003 74.0301C6.80003 75.1701 16.06 77.0701 27.19 77.0701C36.75 77.0701 45.78 75.6901 54.04 72.9601C65.56 69.1501 80.25 67.0601 95.42 67.0601C119.53 67.0601 141.62 72.2101 156.03 81.2001L156.75 81.6501L154.24 87.7301L153.2 86.9401L153.22 86.9301Z" fill="#FFDA00"/>
<path d="M95.43 68.05C117.31 68.05 140.08 72.42 155.51 82.04L153.82 86.14C153.82 86.14 134.47 71.29 97.23 71.29C88.23 71.29 78.17 72.16 67.1 74.31C42.96 79.01 26.7 80.36 15.98 80.36C9.46004 80.36 4.99004 79.86 2.04004 79.31V74.99C6.95004 76.22 16.13 78.06 27.21 78.06C35.53 78.06 44.93 77.02 54.37 73.9C65.88 70.09 80.45 68.05 95.44 68.05H95.43ZM95.44 66.05C80.17 66.05 65.36 68.16 53.74 72C45.59 74.7 36.66 76.06 27.21 76.06C16.18 76.06 7.01004 74.17 2.53004 73.05L0.0400391 72.43V80.98L1.67004 81.29C5.52004 82.01 10.34 82.38 15.98 82.38C29.4 82.38 46.73 80.33 67.48 76.29C77.66 74.31 87.67 73.3 97.23 73.3C116.06 73.3 130.11 77.23 138.58 80.52C147.76 84.09 152.56 87.7 152.6 87.74L154.67 89.32L155.66 86.92L157.35 82.82L157.99 81.26L156.55 80.36C141.99 71.28 119.71 66.07 95.41 66.07L95.44 66.05Z" fill="#1B1B1B"/>
<path d="M108.73 12.6699L105.1 16.2499L108.73 18.5799L112.75 15.6299L108.73 12.6699Z" fill="#FF8E14"/>
<path fill-rule="evenodd" clip-rule="evenodd" d="M108.028 11.9579L109.323 11.8647L113.343 14.8247L113.342 16.4362L109.322 19.3862L108.19 19.4215L104.56 17.0915L104.398 15.5379L108.028 11.9579ZM108.825 13.9813L106.693 16.0839L108.692 17.3674L111.062 15.6286L108.825 13.9813Z" fill="#1B1B1B"/>
</svg>
