<svg width="180" height="130" viewBox="0 0 180 130" fill="none" xmlns="http://www.w3.org/2000/svg">
<path d="M114 0H16C7.16344 0 0 7.16344 0 16V114C0 122.837 7.16344 130 16 130H114C122.837 130 130 122.837 130 114V16C130 7.16344 122.837 0 114 0Z" fill="#8FDFF3"/>
<path d="M114 2C121.72 2 128 8.28 128 16V114C128 121.72 121.72 128 114 128H16C8.28 128 2 121.72 2 114V16C2 8.28 8.28 2 16 2H114ZM114 0H16C7.16 0 0 7.16 0 16V114C0 122.84 7.16 130 16 130H114C122.84 130 130 122.84 130 114V16C130 7.16 122.84 0 114 0Z" fill="#1B1B1B"/>
<path d="M44.94 48.5501C49.0711 48.5501 52.42 45.2012 52.42 41.0701C52.42 36.939 49.0711 33.5901 44.94 33.5901C40.8089 33.5901 37.46 36.939 37.46 41.0701C37.46 45.2012 40.8089 48.5501 44.94 48.5501Z" fill="white" stroke="#1B1B1B" stroke-width="2" stroke-miterlimit="10"/>
<path d="M92.3 60.3399C90.43 60.3399 88.68 60.8799 87.2 61.7999C81.96 58.1599 68.46 49.5499 60.39 51.5699L44.9 46.9499C44.9 46.9499 40.54 42.8599 36.21 39.3899C36.29 38.8799 36.35 38.3499 36.35 37.8199C36.35 32.4599 32 28.1099 26.64 28.1099C21.28 28.1099 16.93 32.4599 16.93 37.8199C16.93 43.1799 21.28 47.5299 26.64 47.5299C27.71 47.5299 28.73 47.3499 29.69 47.0299C33.79 50.9099 41.45 58.2499 44.91 62.2099L45.83 77.2399C45.83 77.2399 34.27 91.5799 33.57 100.6C33.57 100.6 24.8 99.7799 23.64 103.48L42.82 112.62C42.82 112.62 50.68 88.5699 62.71 89.2599C62.71 89.2599 67.1 99.4299 83.29 95.9699C83.29 95.9699 85.07 101.52 89.38 101.52L87.45 83.9499C87.45 83.9499 72.42 86.7199 71.96 76.0899L70.8 64.5299L82.6 70.0199C82.6 70.0199 82.6 70.0499 82.6 70.0599C82.6 75.4199 86.95 79.7699 92.31 79.7699C97.67 79.7699 102.02 75.4199 102.02 70.0599C102.02 64.6999 97.67 60.3499 92.31 60.3499L92.3 60.3399Z" fill="white" stroke="#1B1B1B" stroke-width="2" stroke-miterlimit="10"/>
<path d="M73.39 50.2299C73.39 50.2299 64.6 43.7699 55.16 44.6999L52.17 48.9399C52.17 48.9399 67.71 43.6999 69.3 62.2799L69.07 76.3899C69.07 76.3899 62.2 89.3999 74.97 92.8299L70.46 109.22C70.46 109.22 63.06 106.21 60.29 110.84L79.25 119.86C79.25 119.86 96.82 91.7799 96.36 82.2299V64.1299C96.36 64.1299 103.67 50.9799 114.35 50.9699L116.94 44.6099C116.94 44.6099 97.05 41.6999 88.27 46.3299" fill="white"/>
<path d="M73.39 50.2299C73.39 50.2299 64.6 43.7699 55.16 44.6999L52.17 48.9399C52.17 48.9399 67.71 43.6999 69.3 62.2799L69.07 76.3899C69.07 76.3899 62.2 89.3999 74.97 92.8299L70.46 109.22C70.46 109.22 63.06 106.21 60.29 110.84L79.25 119.86C79.25 119.86 96.82 91.7799 96.36 82.2299V64.1299C96.36 64.1299 103.67 50.9799 114.35 50.9699L116.94 44.6099C116.94 44.6099 97.05 41.6999 88.27 46.3299" stroke="#1B1B1B" stroke-width="2" stroke-miterlimit="10"/>
<path d="M145.58 42.1299C141.36 42.0099 137.75 44.6999 136.46 48.4599C125.55 48.6899 103.95 47.6799 96.3 61.8199L94.85 84.5799C94.85 84.5799 83.4 99.5199 79.47 110.39C79.47 110.39 75.6 108.15 70.52 112.61L87.63 121.93C87.63 121.93 98.03 97.0399 108.89 95.6499C108.89 95.6499 116.53 103.43 121.97 103.66C127.4 103.89 136.42 99.4999 136.42 99.4999C136.42 99.4999 139.19 105.05 146.13 103.43L137.34 86.3199C137.34 86.3199 122.77 95.5699 121.96 83.3099L123.23 64.5799C123.23 64.5799 131.22 60.4299 138.76 58.1599C140.45 59.8099 142.76 60.8399 145.31 60.8399C150.57 60.8399 154.82 56.4999 154.67 51.2099C154.53 46.3299 150.46 42.2599 145.58 42.1199V42.1299Z" fill="white" stroke="#1B1B1B" stroke-width="2" stroke-miterlimit="10"/>
<path d="M100.8 51.49L101.96 59.09" stroke="#1B1B1B" stroke-width="2" stroke-miterlimit="10"/>
<path d="M55.08 54.7701C62.9335 54.7701 69.3 48.4036 69.3 40.5501C69.3 32.6966 62.9335 26.3301 55.08 26.3301C47.2265 26.3301 40.86 32.6966 40.86 40.5501C40.86 48.4036 47.2265 54.7701 55.08 54.7701Z" fill="white" stroke="#1B1B1B" stroke-width="2" stroke-miterlimit="10"/>
<path d="M47.72 33.74V38.38" stroke="#1B1B1B" stroke-width="2" stroke-miterlimit="10"/>
<path d="M52.6299 33.74V38.38" stroke="#1B1B1B" stroke-width="2" stroke-miterlimit="10"/>
<path d="M73.69 102.12L75.36 98.4399C75.36 98.4399 92.91 106.92 93.42 110.67L90.6 115.7C90.6 115.7 80.27 104.96 73.69 102.12Z" fill="#1F8AFF" stroke="#1B1B1B" stroke-width="2" stroke-miterlimit="10"/>
<path d="M71.39 107.17C71.39 107.17 82.21 106.81 92.17 112.76L94.85 108.28C94.85 108.28 79.87 98.6599 73.07 103.48L71.39 107.17Z" fill="#1F8AFF" stroke="#1B1B1B" stroke-width="2" stroke-miterlimit="10"/>
<path d="M78.27 82.04L70.46 109.23" stroke="#1B1B1B" stroke-width="2" stroke-miterlimit="10"/>
<path d="M79.43 54.42C87.2835 54.42 93.65 48.0535 93.65 40.2C93.65 32.3465 87.2835 25.98 79.43 25.98C71.5765 25.98 65.21 32.3465 65.21 40.2C65.21 48.0535 71.5765 54.42 79.43 54.42Z" fill="white" stroke="#1B1B1B" stroke-width="2" stroke-miterlimit="10"/>
<path d="M71.9 35.9399V40.5899" stroke="#1B1B1B" stroke-width="2" stroke-miterlimit="10"/>
<path d="M76.82 35.9399V40.5899" stroke="#1B1B1B" stroke-width="2" stroke-miterlimit="10"/>
<path d="M106.4 55.2901C114.253 55.2901 120.62 48.9236 120.62 41.0701C120.62 33.2166 114.253 26.8501 106.4 26.8501C98.5465 26.8501 92.18 33.2166 92.18 41.0701C92.18 48.9236 98.5465 55.2901 106.4 55.2901Z" fill="white" stroke="#1B1B1B" stroke-width="2" stroke-miterlimit="10"/>
<path d="M101.5 35.28V39.93" stroke="#1B1B1B" stroke-width="2" stroke-miterlimit="10"/>
<path d="M106.42 35.28V39.93" stroke="#1B1B1B" stroke-width="2" stroke-miterlimit="10"/>
<path d="M122.41 52.98C126.541 52.98 129.89 49.6311 129.89 45.5C129.89 41.3689 126.541 38.02 122.41 38.02C118.279 38.02 114.93 41.3689 114.93 45.5C114.93 49.6311 118.279 52.98 122.41 52.98Z" fill="white" stroke="#1B1B1B" stroke-width="2" stroke-miterlimit="10"/>
<path d="M140.09 22.75C140.09 22.75 142.98 27.82 146.92 28.57C146.92 28.57 148.8 25.38 151.05 23.88C151.05 23.88 146.47 22.75 145.57 19L140.09 22.75Z" fill="#FF2434" stroke="#1B1B1B" stroke-width="2" stroke-linejoin="bevel"/>
<path d="M14.39 62.28C14.39 62.28 19.73 59.93 20.89 56.09C20.89 56.09 17.91 53.89 16.65 51.49C16.65 51.49 15.05 55.93 11.23 56.43L14.39 62.27V62.28Z" fill="#FF8E14" stroke="#1B1B1B" stroke-width="2" stroke-linejoin="bevel"/>
<path d="M133.56 57.6799C133.56 57.6799 136.5 61.6999 133.85 64.2399L140.07 61.0899C140.07 61.0899 140.52 55.6899 136.89 53.9299L133.55 57.6699L133.56 57.6799Z" fill="#FF8E14" stroke="#1B1B1B" stroke-width="2" stroke-linejoin="bevel"/>
<path d="M38.25 16.8L36.56 21.58L39.64 23.7801L43.32 16.8H38.25Z" fill="#FF2434" stroke="#1B1B1B" stroke-width="2" stroke-linejoin="bevel"/>
<path d="M153.22 86.9301C153.22 86.9301 148.33 83.2301 139.04 79.6101C130.47 76.2701 116.27 72.2901 97.23 72.2901C87.61 72.2901 77.54 73.3001 67.29 75.3001C46.6 79.3301 29.34 81.3701 15.98 81.3701C10.4 81.3701 5.65 81.0101 1.85 80.3001L1.03 80.1501V73.7201L2.27 74.0301C6.8 75.1701 16.06 77.0701 27.19 77.0701C36.75 77.0701 45.78 75.6901 54.04 72.9601C65.56 69.1501 80.25 67.0601 95.42 67.0601C119.53 67.0601 141.62 72.2101 156.03 81.2001L156.75 81.6501L154.24 87.7301L153.2 86.9401L153.22 86.9301Z" fill="#FFDA00"/>
<path d="M95.43 68.05C117.31 68.05 140.08 72.42 155.51 82.04L153.82 86.14C153.82 86.14 134.47 71.29 97.23 71.29C88.23 71.29 78.17 72.16 67.1 74.31C42.96 79.01 26.7 80.36 15.98 80.36C9.46001 80.36 4.99001 79.86 2.04001 79.31V74.99C6.95001 76.22 16.13 78.06 27.21 78.06C35.53 78.06 44.93 77.02 54.37 73.9C65.88 70.09 80.45 68.05 95.44 68.05H95.43ZM95.44 66.05C80.17 66.05 65.36 68.16 53.74 72C45.59 74.7 36.66 76.06 27.21 76.06C16.18 76.06 7.01001 74.17 2.53001 73.05L0.0400085 72.43V80.98L1.67001 81.29C5.52001 82.01 10.34 82.38 15.98 82.38C29.4 82.38 46.73 80.33 67.48 76.29C77.66 74.31 87.67 73.3 97.23 73.3C116.06 73.3 130.11 77.23 138.58 80.52C147.76 84.09 152.56 87.7 152.6 87.74L154.67 89.32L155.66 86.92L157.35 82.82L157.99 81.26L156.55 80.36C141.99 71.28 119.71 66.07 95.41 66.07L95.44 66.05Z" fill="#1B1B1B"/>
<path d="M108.73 12.6699L105.1 16.2499L108.73 18.5799L112.75 15.6299L108.73 12.6699Z" fill="#FF8E14" stroke="#1B1B1B" stroke-width="2" stroke-linejoin="bevel"/>
</svg>
