<svg width="180" height="130" viewBox="0 0 180 130" fill="none" xmlns="http://www.w3.org/2000/svg">
<path d="M114 0H16C7.16344 0 0 7.16344 0 16V114C0 122.837 7.16344 130 16 130H114C122.837 130 130 122.837 130 114V16C130 7.16344 122.837 0 114 0Z" fill="#8FDFF3"/>
<path d="M33.76 54.9901V55.7782L34.5264 55.9624C44.0957 58.262 51.2929 66.678 51.7381 76.8401H6.78183C7.22666 66.6693 14.4238 58.2621 23.9937 55.9624L24.76 55.7782V54.9901V50.3401H33.76V54.9901Z" fill="white" stroke="#1B1B1B" stroke-width="2" stroke-miterlimit="10"/>
<path d="M47.1399 36.3401C47.1399 46.2812 39.081 54.3401 29.1399 54.3401C19.1988 54.3401 11.1399 46.2812 11.1399 36.3401C11.1399 26.399 19.1988 18.3401 29.1399 18.3401C39.081 18.3401 47.1399 26.399 47.1399 36.3401Z" fill="white" stroke="#1B1B1B" stroke-width="2" stroke-miterlimit="10"/>
<path d="M29.8899 38.3401V42.9401" stroke="#1B1B1B" stroke-width="2" stroke-miterlimit="10"/>
<path d="M35.8899 38.3401V42.9401" stroke="#1B1B1B" stroke-width="2" stroke-miterlimit="10"/>
<path d="M28 67H33C36.3137 67 39 69.6863 39 73V74C39 76.7614 36.7614 79 34 79H27C24.2386 79 22 76.7614 22 74V73C22 69.6863 24.6863 67 28 67Z" fill="white" stroke="#1B1B1B" stroke-width="2"/>
<path d="M49 67H54C57.3137 67 60 69.6863 60 73V74C60 76.7614 57.7614 79 55 79H48C45.2386 79 43 76.7614 43 74V73C43 69.6863 45.6863 67 49 67Z" fill="white" stroke="#1B1B1B" stroke-width="2"/>
<rect x="17" y="76" width="43" height="4" fill="#EDEDED" stroke="#1B1B1B" stroke-width="2"/>
<path d="M44.8899 27H96.6699C97.7745 27 98.6699 27.8954 98.6699 29V64.6C98.6699 65.7046 97.7745 66.6 96.6699 66.6H44.8899C43.7853 66.6 42.8899 65.7046 42.8899 64.6V29C42.8899 27.8954 43.7853 27 44.8899 27Z" fill="#EDEDED" stroke="#1B1B1B" stroke-width="2" stroke-miterlimit="10"/>
<path d="M83.8799 76.4952V80H57.6599V76.4952C60.4257 76.0206 62.5299 73.6114 62.5299 70.71V53H79.0199V69.71H79.0099V70.71C79.0099 73.6114 81.1141 76.0206 83.8799 76.4952Z" fill="#EDEDED" stroke="#1B1B1B" stroke-width="2" stroke-miterlimit="10"/>
<mask id="path-11-inside-1_2790_14334" fill="white">
<path fill-rule="evenodd" clip-rule="evenodd" d="M130 29.9359C117.952 41.9736 104.659 55.2752 94.9998 64.9999C66.9737 93.2144 29.9998 130 29.9998 130H114.042C122.859 129.977 130 122.823 130 114V29.9359Z"/>
</mask>
<path fill-rule="evenodd" clip-rule="evenodd" d="M130 29.9359C117.952 41.9736 104.659 55.2752 94.9998 64.9999C66.9737 93.2144 29.9998 130 29.9998 130H114.042C122.859 129.977 130 122.823 130 114V29.9359Z" fill="#82C6D1"/>
<path d="M94.9998 64.9999L93.5808 63.5904L94.9998 64.9999ZM130 29.9359H132V25.1105L128.586 28.5211L130 29.9359ZM29.9998 130L28.5892 128.582L25.1538 132H29.9998V130ZM114.042 130V132L114.047 132L114.042 130ZM96.4187 66.4094C106.076 56.6876 119.365 43.3882 131.414 31.3507L128.586 28.5211C116.538 40.559 103.243 53.8629 93.5808 63.5904L96.4187 66.4094ZM29.9998 130C31.4104 131.418 31.4105 131.418 31.4108 131.417C31.4111 131.417 31.4115 131.417 31.4121 131.416C31.4132 131.415 31.4149 131.413 31.4171 131.411C31.4216 131.406 31.4284 131.4 31.4373 131.391C31.4552 131.373 31.4819 131.346 31.5174 131.311C31.5882 131.241 31.6938 131.136 31.8326 130.997C32.1104 130.721 32.5213 130.312 33.0542 129.782C34.1201 128.72 35.6741 127.173 37.6264 125.228C41.531 121.338 47.029 115.858 53.4029 109.496C66.1503 96.772 82.4027 80.5196 96.4187 66.4094L93.5808 63.5904C79.5708 77.6947 63.3231 93.9423 50.5771 106.665C44.2043 113.026 38.7072 118.505 34.8033 122.394C32.8514 124.339 31.2978 125.886 30.2322 126.947C29.6994 127.477 29.2886 127.886 29.011 128.162C28.8722 128.3 28.7668 128.405 28.696 128.476C28.6606 128.511 28.6339 128.538 28.616 128.555C28.6071 128.564 28.6004 128.571 28.5959 128.575C28.5936 128.578 28.592 128.579 28.5908 128.58C28.5903 128.581 28.5899 128.581 28.5896 128.582C28.5893 128.582 28.5892 128.582 29.9998 130ZM114.042 128H29.9998V132H114.042V128ZM114.047 132C123.966 131.975 132 123.925 132 114H128C128 121.72 121.752 127.98 114.037 128L114.047 132ZM132 114V29.9359H128V114H132Z" fill="#1B1B1B" mask="url(#path-11-inside-1_2790_14334)"/>
<path d="M114 2C121.72 2 128 8.28 128 16V114C128 121.72 121.72 128 114 128H16C8.28 128 2 121.72 2 114V16C2 8.28 8.28 2 16 2H114ZM114 0H16C7.16 0 0 7.16 0 16V114C0 122.84 7.16 130 16 130H114C122.84 130 130 122.84 130 114V16C130 7.16 122.84 0 114 0Z" fill="#1B1B1B"/>
<path d="M139.104 104.622L139.87 104.438V103.65V99H148.87V103.65V104.438L149.636 104.622C159.206 106.922 166.403 115.329 166.848 125.5H121.892C122.337 115.338 129.534 106.922 139.104 104.622Z" fill="white" stroke="#1B1B1B" stroke-width="2" stroke-miterlimit="10"/>
<path d="M160.5 85C160.5 94.9411 152.441 103 142.5 103C132.559 103 124.5 94.9411 124.5 85C124.5 75.0589 132.559 67 142.5 67C152.441 67 160.5 75.0589 160.5 85Z" fill="white" stroke="#1B1B1B" stroke-width="2" stroke-miterlimit="10"/>
<path d="M121 113H126C129.314 113 132 115.686 132 119V120C132 122.761 129.761 125 127 125H120C117.239 125 115 122.761 115 120V119C115 115.686 117.686 113 121 113Z" fill="white" stroke="#1B1B1B" stroke-width="2"/>
<path d="M141 113H146C149.314 113 152 115.686 152 119V120C152 122.761 149.761 125 147 125H140C137.239 125 135 122.761 135 120V119C135 115.686 137.686 113 141 113Z" fill="white" stroke="#1B1B1B" stroke-width="2"/>
<path d="M141.75 87V91.6" stroke="#1B1B1B" stroke-width="2" stroke-miterlimit="10"/>
<path d="M135.75 87V91.6" stroke="#1B1B1B" stroke-width="2" stroke-miterlimit="10"/>
<path d="M82 125H143C143.552 125 144 125.448 144 126V128C144 128.552 143.552 129 143 129H82C81.4477 129 81 128.552 81 128V126C81 125.448 81.4477 125 82 125Z" fill="#EDEDED" stroke="#1B1B1B" stroke-width="2" stroke-miterlimit="10"/>
<path d="M125.186 125H82.3596C81.4366 125 80.6334 124.368 80.4159 123.471L73.8705 96.4712C73.5653 95.2124 74.5189 94 75.8142 94H118.64C119.563 94 120.367 94.6317 120.584 95.5288L127.13 122.529C127.435 123.788 126.481 125 125.186 125Z" fill="#EDEDED" stroke="#1B1B1B" stroke-width="2" stroke-miterlimit="10"/>
<path d="M113.22 61.74C113.22 51.94 103.1 44 90.61 44C78.12 44 68 51.94 68 61.74C68 71.54 78.12 79.48 90.61 79.48C90.95 79.48 91.29 79.48 91.63 79.46C91.7 81.98 90.67 84.35 90.67 84.35C93.45 83.74 95.95 80.84 97.49 78.64C106.61 76.36 113.22 69.65 113.22 61.74Z" fill="#FFDA00" stroke="#1B1B1B" stroke-width="2" stroke-miterlimit="10"/>
<path d="M98 38.74C98 28.94 108.12 21 120.61 21C133.1 21 143.22 28.94 143.22 38.74C143.22 48.54 133.1 56.48 120.61 56.48C120.27 56.48 119.93 56.48 119.59 56.46C119.52 58.98 120.55 61.35 120.55 61.35C117.77 60.74 115.27 57.84 113.73 55.64C104.61 53.36 98 46.65 98 38.74Z" fill="#8AD953" stroke="#1B1B1B" stroke-width="2" stroke-miterlimit="10"/>
</svg>
