<svg width="180" height="130" viewBox="0 0 180 130" fill="none" xmlns="http://www.w3.org/2000/svg">
<path d="M114 0H16C7.16344 0 0 7.16344 0 16V114C0 122.837 7.16344 130 16 130H114C122.837 130 130 122.837 130 114V16C130 7.16344 122.837 0 114 0Z" fill="#8FDFF3"/>
<path d="M114 2C121.72 2 128 8.28 128 16V114C128 121.72 121.72 128 114 128H16C8.28 128 2 121.72 2 114V16C2 8.28 8.28 2 16 2H114ZM114 0H16C7.16 0 0 7.16 0 16V114C0 122.84 7.16 130 16 130H114C122.84 130 130 122.84 130 114V16C130 7.16 122.84 0 114 0Z" fill="#1B1B1B"/>
<path d="M120.385 105.654L116.51 99.2492C116.324 98.949 116.224 98.6202 116.195 98.2627L115.152 83.8939C115.066 82.7358 114.108 81.8494 112.95 81.8494H91.1893C90.0313 81.8494 89.0733 82.7358 88.9875 83.8939L87.9438 98.1626C87.9152 98.5773 87.7723 98.9633 87.5292 99.2921L83.0255 105.497C81.9675 106.956 83.0112 109 84.8127 109H118.497C120.213 109 121.271 107.127 120.385 105.654V105.654ZM101.655 93.659C99.4961 93.659 97.7375 91.9004 97.7375 89.7415C97.7375 87.5826 99.4961 85.824 101.655 85.824C103.814 85.824 105.572 87.5826 105.572 89.7415C105.572 91.9004 103.814 93.659 101.655 93.659Z" fill="white"/>
<path fill-rule="evenodd" clip-rule="evenodd" d="M115.771 92.4225L115.152 83.8939C115.066 82.7358 114.108 81.8493 112.95 81.8493H91.1893C90.0312 81.8493 89.0733 82.7358 88.9875 83.8939L88.0586 96.5929L115.771 92.4225ZM97.7375 89.7415C97.7375 91.9004 99.496 93.659 101.655 93.659C103.814 93.659 105.572 91.9004 105.572 89.7415C105.572 87.5826 103.814 85.824 101.655 85.824C99.496 85.824 97.7375 87.5826 97.7375 89.7415Z" fill="#E5E5E5"/>
<path d="M120.385 105.654L116.51 99.2492C116.324 98.949 116.224 98.6202 116.195 98.2627L115.152 83.8939C115.066 82.7358 114.108 81.8494 112.95 81.8494H91.1893C90.0313 81.8494 89.0733 82.7358 88.9875 83.8939L87.9438 98.1626C87.9152 98.5773 87.7723 98.9633 87.5292 99.2921L83.0255 105.497C81.9675 106.956 83.0112 109 84.8127 109H118.497C120.213 109 121.271 107.127 120.385 105.654V105.654ZM101.655 93.659C99.4961 93.659 97.7375 91.9004 97.7375 89.7415C97.7375 87.5826 99.4961 85.824 101.655 85.824C103.814 85.824 105.572 87.5826 105.572 89.7415C105.572 91.9004 103.814 93.659 101.655 93.659Z" stroke="#1B1B1B" stroke-width="2" stroke-linejoin="bevel"/>
<path d="M149.407 12H53.5933C50.5042 12 48 14.5383 48 17.6694V83.3306C48 86.4617 50.5042 89 53.5933 89H149.407C152.496 89 155 86.4617 155 83.3306V17.6694C155 14.5383 152.496 12 149.407 12Z" fill="white" stroke="#1B1B1B" stroke-width="2" stroke-linejoin="bevel"/>
<path d="M56.0617 12H146.938C151.39 12 155 15.6546 155 20.1615V78H48V20.1615C48 15.6546 51.6099 12 56.0617 12Z" fill="#1B1B1B"/>
<path d="M113 47.5C113 53.8513 107.851 59 101.5 59C95.1487 59 90 53.8513 90 47.5C90 41.1487 95.1487 36 101.5 36C107.851 36 113 41.1487 113 47.5Z" stroke="white" stroke-width="2" stroke-miterlimit="10" stroke-linecap="square"/>
<path d="M108.118 47.5083L97.8235 42.3529V52.647L108.118 47.5083Z" fill="white"/>
<path d="M15.8038 89.8056C14.0053 86.6461 15.1557 83.3245 15.6256 82.2471L48.7679 78.3018L71.095 105.368L68.9886 105.733L69.3856 112.635L70.941 114.19L32.541 121.101L15.8038 89.8056Z" fill="#1379C4"/>
<path d="M33.4457 110.658L69.4963 105.392V112.683L33.4456 119.164C31.5013 116.572 32.6355 111.873 33.4457 110.658Z" fill="white"/>
<path d="M48.4277 79.1605L69.5801 104.809H69.5558L68.1299 105.06L68.211 106.502L68.5512 112.376L68.5836 112.991L69.0211 113.429L69.2641 113.672L32.9705 120.201L16.5168 89.4248V89.4086L16.4925 89.3924C15.0504 86.8648 15.7229 84.2319 16.1846 83.0005L48.4277 79.1605ZM49.1163 77.443L15.0829 81.4936C15.0829 81.4936 12.6525 85.9169 15.0829 90.1863L32.0955 122L70.7194 115.048C71.5141 114.905 71.8204 113.927 71.2494 113.356L70.1715 112.278L69.8312 106.405L70.9043 106.22C71.6608 106.089 71.9943 105.19 71.5058 104.598L49.1082 77.443H49.1163Z" fill="#1B1B1B"/>
<path d="M26.2197 69.3418C22.1691 69.3418 22.9792 76.6329 22.9792 76.6329V104.347C22.9792 105.911 24.243 107.175 25.8066 107.175H68.5974L65.9159 100.135L65.519 98.1094H68.5974L57.8147 70.1519L26.2197 69.3418Z" fill="#FF2434"/>
<path d="M64.6359 97.2911H25.4096C25.4096 97.2911 23.7893 101.544 25.4096 104.785H65.446L64.6359 97.2911Z" fill="white"/>
<path d="M26.2197 69.3418L26.2454 68.3421L26.2325 68.3418H26.2197V69.3418ZM22.9792 76.6329H23.9792V76.5776L23.9731 76.5225L22.9792 76.6329ZM65.9159 100.135L64.9346 100.327L64.951 100.411L64.9814 100.491L65.9159 100.135ZM65.519 98.1094V97.1094H64.3039L64.5376 98.3017L65.519 98.1094ZM57.8147 70.1519L58.7477 69.7921L58.5075 69.1694L57.8403 69.1523L57.8147 70.1519ZM68.073 96.7495L69.006 96.3897L68.073 96.7495ZM68.081 105.819L69.0155 105.463L68.081 105.819ZM26.2197 68.3418C24.847 68.3418 23.8515 68.9849 23.1939 69.8955C22.5698 70.7596 22.2569 71.8459 22.0941 72.823C21.9286 73.816 21.9028 74.7936 21.9161 75.5122C21.9228 75.8742 21.9396 76.1768 21.9549 76.3909C21.9625 76.4981 21.9698 76.5834 21.9754 76.6433C21.9781 76.6732 21.9805 76.6968 21.9822 76.7136C21.9831 76.7221 21.9838 76.7288 21.9843 76.7338C21.9846 76.7362 21.9848 76.7383 21.985 76.7399C21.985 76.7407 21.9851 76.7414 21.9852 76.742C21.9852 76.7423 21.9853 76.7426 21.9853 76.7428C21.9853 76.7431 21.9853 76.7434 22.9792 76.6329C23.9731 76.5225 23.9731 76.5227 23.9732 76.523C23.9732 76.523 23.9732 76.5232 23.9732 76.5232C23.9732 76.5234 23.9732 76.5234 23.9732 76.5233C23.9732 76.5232 23.9731 76.5226 23.973 76.5216C23.9728 76.5195 23.9724 76.5158 23.9718 76.5104C23.9707 76.4996 23.969 76.4823 23.9669 76.4589C23.9625 76.4119 23.9564 76.3406 23.9498 76.2484C23.9366 76.0637 23.9217 75.7967 23.9158 75.4752C23.9037 74.8267 23.9286 73.9815 24.0669 73.1518C24.2078 72.3061 24.4519 71.5696 24.8152 71.0665C25.1449 70.6101 25.5671 70.3418 26.2197 70.3418V68.3418ZM21.9792 76.6329V104.347H23.9792V76.6329H21.9792ZM21.9792 104.347C21.9792 106.463 23.6907 108.175 25.8066 108.175V106.175C24.7953 106.175 23.9792 105.359 23.9792 104.347H21.9792ZM25.8066 108.175H67.1465V106.175H25.8066V108.175ZM69.0155 105.463L66.8504 99.7788L64.9814 100.491L67.1465 106.175L69.0155 105.463ZM66.8973 99.9424L66.5003 97.917L64.5376 98.3017L64.9346 100.327L66.8973 99.9424ZM65.519 99.1094H67.14V97.1094H65.519V99.1094ZM69.006 96.3897L58.7477 69.7921L56.8817 70.5118L67.14 97.1094L69.006 96.3897ZM57.8403 69.1523L26.2454 68.3421L26.1941 70.3415L57.789 71.1516L57.8403 69.1523ZM67.14 99.1094C68.5443 99.1094 69.5113 97.7 69.006 96.3897L67.14 97.1094H67.14V99.1094ZM67.1465 108.175C68.5473 108.175 69.5141 106.772 69.0155 105.463L67.1465 106.175V108.175Z" fill="#1B1B1B"/>
<path d="M15.704 71.756C14.019 69.2122 15.1856 66.1661 15.6311 65.194L45.7273 58.8588L73.4661 75.3529L70.8736 75.7337L70.9871 82.7332L73.9521 84.8071L39.5299 93.9696L15.704 71.756Z" fill="#6DD028"/>
<path d="M41.1421 81.8988L71.1167 75.0127L71.5217 82.7089L40.7369 90.8102C37.9014 86.7595 39.9269 83.654 41.1421 81.8988Z" fill="white"/>
<path d="M45.5814 59.7175L71.0842 74.883L70.0716 75.1392V76.4628L70.1688 82.3362L70.185 83.1625L70.8655 83.6324L72.0645 84.4668L39.7566 93.0623L16.3278 71.2294C15.1045 69.2932 15.7688 66.9843 16.2062 65.8987L45.5814 59.7175ZM45.865 58L15.0802 64.481C15.0802 64.481 12.6498 68.7423 15.0802 72.2825L39.303 94.8608L73.7621 85.692C74.5839 85.4734 74.7751 84.394 74.0785 83.9064L71.789 82.3038L71.6918 76.4304L73.0509 76.2313C73.9827 76.0948 74.2265 74.8636 73.4171 74.3823L45.865 58Z" fill="#1B1B1B"/>
</svg>
