<svg width="180" height="130" viewBox="0 0 180 130" fill="none" xmlns="http://www.w3.org/2000/svg">
<path d="M114 0H16C7.16344 0 0 7.16344 0 16V114C0 122.837 7.16344 130 16 130H114C122.837 130 130 122.837 130 114V16C130 7.16344 122.837 0 114 0Z" fill="#8FDFF3"/>
<path d="M34.76 54.9901V49.3401H23.76V54.9901C13.44 57.4701 5.76001 66.7501 5.76001 77.8401H52.76C52.76 66.7601 45.08 57.4701 34.76 54.9901Z" fill="white"/>
<path fill-rule="evenodd" clip-rule="evenodd" d="M32.76 56.5664V51.3401H25.76V56.5664L24.2273 56.9347C15.4117 59.0532 8.70477 66.5956 7.85182 75.8401H50.668C49.8144 66.603 43.1074 59.053 34.2927 56.9347L32.76 56.5664ZM52.676 75.8401C52.7316 76.4994 52.76 77.1664 52.76 77.8401H5.76001C5.76001 77.1664 5.78835 76.4993 5.84391 75.8401C6.70288 65.6477 14.067 57.3194 23.76 54.9901V49.3401H34.76V54.9901C44.4526 57.3193 51.8164 65.6556 52.676 75.8401Z" fill="#1B1B1B"/>
<path d="M29.1399 55.3401C39.6333 55.3401 48.1399 46.8335 48.1399 36.3401C48.1399 25.8467 39.6333 17.3401 29.1399 17.3401C18.6465 17.3401 10.1399 25.8467 10.1399 36.3401C10.1399 46.8335 18.6465 55.3401 29.1399 55.3401Z" fill="white"/>
<path fill-rule="evenodd" clip-rule="evenodd" d="M29.1399 53.3401C38.5287 53.3401 46.1399 45.7289 46.1399 36.3401C46.1399 26.9512 38.5287 19.3401 29.1399 19.3401C19.7511 19.3401 12.1399 26.9512 12.1399 36.3401C12.1399 45.7289 19.7511 53.3401 29.1399 53.3401ZM48.1399 36.3401C48.1399 46.8335 39.6333 55.3401 29.1399 55.3401C18.6465 55.3401 10.1399 46.8335 10.1399 36.3401C10.1399 25.8467 18.6465 17.3401 29.1399 17.3401C39.6333 17.3401 48.1399 25.8467 48.1399 36.3401Z" fill="#1B1B1B"/>
<path fill-rule="evenodd" clip-rule="evenodd" d="M28.8899 42.9401V38.3401H30.8899V42.9401H28.8899Z" fill="#1B1B1B"/>
<path fill-rule="evenodd" clip-rule="evenodd" d="M34.8899 42.9401V38.3401H36.8899V42.9401H34.8899Z" fill="#1B1B1B"/>
<path d="M21 73C21 69.134 24.134 66 28 66H33C36.866 66 40 69.134 40 73V74C40 77.3137 37.3137 80 34 80H27C23.6863 80 21 77.3137 21 74V73Z" fill="white"/>
<path fill-rule="evenodd" clip-rule="evenodd" d="M33 68H28C25.2386 68 23 70.2386 23 73V74C23 76.2091 24.7909 78 27 78H34C36.2091 78 38 76.2091 38 74V73C38 70.2386 35.7614 68 33 68ZM28 66C24.134 66 21 69.134 21 73V74C21 77.3137 23.6863 80 27 80H34C37.3137 80 40 77.3137 40 74V73C40 69.134 36.866 66 33 66H28Z" fill="#1B1B1B"/>
<path d="M42 73C42 69.134 45.134 66 49 66H54C57.866 66 61 69.134 61 73V74C61 77.3137 58.3137 80 55 80H48C44.6863 80 42 77.3137 42 74V73Z" fill="white"/>
<path fill-rule="evenodd" clip-rule="evenodd" d="M54 68H49C46.2386 68 44 70.2386 44 73V74C44 76.2091 45.7909 78 48 78H55C57.2091 78 59 76.2091 59 74V73C59 70.2386 56.7614 68 54 68ZM49 66C45.134 66 42 69.134 42 73V74C42 77.3137 44.6863 80 48 80H55C58.3137 80 61 77.3137 61 74V73C61 69.134 57.866 66 54 66H49Z" fill="#1B1B1B"/>
<path d="M16 75H61V81H16V75Z" fill="#EDEDED"/>
<path fill-rule="evenodd" clip-rule="evenodd" d="M59 77H18V79H59V77ZM16 75V81H61V75H16Z" fill="#1B1B1B"/>
<path d="M96.6699 26H44.8899C43.233 26 41.8899 27.3431 41.8899 29V64.6C41.8899 66.2569 43.233 67.6 44.8899 67.6H96.6699C98.3267 67.6 99.6699 66.2569 99.6699 64.6V29C99.6699 27.3431 98.3267 26 96.6699 26Z" fill="#EDEDED"/>
<path fill-rule="evenodd" clip-rule="evenodd" d="M96.6699 28H44.8899C44.3376 28 43.8899 28.4477 43.8899 29V64.6C43.8899 65.1523 44.3376 65.6 44.8899 65.6H96.6699C97.2222 65.6 97.6699 65.1523 97.6699 64.6V29C97.6699 28.4477 97.2222 28 96.6699 28ZM44.8899 26H96.6699C98.3267 26 99.6699 27.3431 99.6699 29V64.6C99.6699 66.2569 98.3267 67.6 96.6699 67.6H44.8899C43.233 67.6 41.8899 66.2569 41.8899 64.6V29C41.8899 27.3431 43.233 26 44.8899 26Z" fill="#1B1B1B"/>
<path d="M80.0199 70.71V52H61.5299V70.71C61.5299 73.4 59.3499 75.58 56.6599 75.58V81H84.8799V75.58C82.1899 75.58 80.0099 73.4 80.0099 70.71H80.0199Z" fill="#EDEDED"/>
<path fill-rule="evenodd" clip-rule="evenodd" d="M80.0099 70.71C80.0099 70.8157 80.0133 70.9206 80.0199 71.0246C80.058 71.6221 80.2038 72.1903 80.4381 72.71C81.2011 74.4023 82.9027 75.58 84.8799 75.58V81H56.6599V75.58C59.3499 75.58 61.5299 73.4 61.5299 70.71V52H80.0199V70.71H80.0099ZM78.0199 68.71V54H63.5299V70.71C63.5299 73.8089 61.4788 76.4282 58.6599 77.2844V79H82.8799V77.2844C80.061 76.4282 78.0099 73.8089 78.0099 70.71V68.71H78.0199Z" fill="#1B1B1B"/>
<path fill-rule="evenodd" clip-rule="evenodd" d="M130 29.9359C117.952 41.9736 104.659 55.2752 94.9998 64.9999C66.9737 93.2144 29.9998 130 29.9998 130H114.042C122.859 129.977 130 122.823 130 114V29.9359Z" fill="#82C6D1"/>
<path fill-rule="evenodd" clip-rule="evenodd" d="M128 34.7619C116.908 45.8478 105.171 57.598 96.4187 66.4094C82.4027 80.5196 66.1503 96.772 53.4029 109.496C47.029 115.858 41.531 121.338 37.6264 125.228C36.5797 126.271 35.6475 127.199 34.8436 128L114.037 128C114.038 128 114.039 128 114.039 128C121.753 127.979 128 121.719 128 114V34.7619ZM128 31.9344C116.499 43.4271 104.128 55.8105 94.9998 64.9999C70.8589 89.3031 40.0791 119.966 32.0091 128C30.7103 129.293 29.9998 130 29.9998 130H114.042C122.859 129.977 130 122.823 130 114V29.9359C129.337 30.5985 128.67 31.2649 128 31.9344Z" fill="#1B1B1B"/>
<path d="M114 2C121.72 2 128 8.28 128 16V114C128 121.72 121.72 128 114 128H16C8.28 128 2 121.72 2 114V16C2 8.28 8.28 2 16 2H114ZM114 0H16C7.16 0 0 7.16 0 16V114C0 122.84 7.16 130 16 130H114C122.84 130 130 122.84 130 114V16C130 7.16 122.84 0 114 0Z" fill="#1B1B1B"/>
<path d="M138.87 103.65V98H149.87V103.65C160.19 106.13 167.87 115.41 167.87 126.5H120.87C120.87 115.42 128.55 106.13 138.87 103.65Z" fill="white"/>
<path fill-rule="evenodd" clip-rule="evenodd" d="M140.87 105.226L139.337 105.595C130.523 107.713 123.816 115.263 122.962 124.5H165.778C164.925 115.256 158.218 107.713 149.403 105.595L147.87 105.226V100H140.87V105.226ZM167.786 124.5C167.842 125.159 167.87 125.826 167.87 126.5H120.87C120.87 125.826 120.899 125.159 120.954 124.5C121.814 114.316 129.178 105.979 138.87 103.65V98H149.87V103.65C159.563 105.979 166.927 114.308 167.786 124.5Z" fill="#1B1B1B"/>
<path d="M142.5 104C152.993 104 161.5 95.4934 161.5 85C161.5 74.5066 152.993 66 142.5 66C132.007 66 123.5 74.5066 123.5 85C123.5 95.4934 132.007 104 142.5 104Z" fill="white"/>
<path fill-rule="evenodd" clip-rule="evenodd" d="M142.5 102C151.889 102 159.5 94.3888 159.5 85C159.5 75.6112 151.889 68 142.5 68C133.111 68 125.5 75.6112 125.5 85C125.5 94.3888 133.111 102 142.5 102ZM161.5 85C161.5 95.4934 152.993 104 142.5 104C132.007 104 123.5 95.4934 123.5 85C123.5 74.5066 132.007 66 142.5 66C152.993 66 161.5 74.5066 161.5 85Z" fill="#1B1B1B"/>
<path d="M114 119C114 115.134 117.134 112 121 112H126C129.866 112 133 115.134 133 119V120C133 123.314 130.314 126 127 126H120C116.686 126 114 123.314 114 120V119Z" fill="white"/>
<path fill-rule="evenodd" clip-rule="evenodd" d="M126 114H121C118.239 114 116 116.239 116 119V120C116 122.209 117.791 124 120 124H127C129.209 124 131 122.209 131 120V119C131 116.239 128.761 114 126 114ZM121 112C117.134 112 114 115.134 114 119V120C114 123.314 116.686 126 120 126H127C130.314 126 133 123.314 133 120V119C133 115.134 129.866 112 126 112H121Z" fill="#1B1B1B"/>
<path d="M134 119C134 115.134 137.134 112 141 112H146C149.866 112 153 115.134 153 119V120C153 123.314 150.314 126 147 126H140C136.686 126 134 123.314 134 120V119Z" fill="white"/>
<path fill-rule="evenodd" clip-rule="evenodd" d="M146 114H141C138.239 114 136 116.239 136 119V120C136 122.209 137.791 124 140 124H147C149.209 124 151 122.209 151 120V119C151 116.239 148.761 114 146 114ZM141 112C137.134 112 134 115.134 134 119V120C134 123.314 136.686 126 140 126H147C150.314 126 153 123.314 153 120V119C153 115.134 149.866 112 146 112H141Z" fill="#1B1B1B"/>
<path fill-rule="evenodd" clip-rule="evenodd" d="M140.75 91.6V87H142.75V91.6H140.75Z" fill="#1B1B1B"/>
<path fill-rule="evenodd" clip-rule="evenodd" d="M134.75 91.6V87H136.75V91.6H134.75Z" fill="#1B1B1B"/>
<path d="M143 124H82C80.8954 124 80 124.895 80 126V128C80 129.105 80.8954 130 82 130H143C144.105 130 145 129.105 145 128V126C145 124.895 144.105 124 143 124Z" fill="#EDEDED"/>
<path fill-rule="evenodd" clip-rule="evenodd" d="M143 126H82L82 128H143V126ZM82 124H143C144.105 124 145 124.895 145 126V128C145 129.105 144.105 130 143 130H82C80.8954 130 80 129.105 80 128V126C80 124.895 80.8954 124 82 124Z" fill="#1B1B1B"/>
<path d="M128.101 122.293C128.559 124.181 127.129 126 125.186 126H82.3596C80.975 126 79.7703 125.052 79.4441 123.707L72.8986 96.7068C72.4409 94.8186 73.8713 93 75.8142 93H118.64C120.025 93 121.23 93.9476 121.556 95.2932L128.101 122.293Z" fill="#EDEDED"/>
<path fill-rule="evenodd" clip-rule="evenodd" d="M82.3596 124H125.186C125.833 124 126.31 123.394 126.158 122.764L119.612 95.7644C119.503 95.3159 119.102 95 118.64 95H75.8142C75.1665 95 74.6897 95.6062 74.8423 96.2356L81.3878 123.236C81.4965 123.684 81.8981 124 82.3596 124ZM125.186 126C127.129 126 128.559 124.181 128.101 122.293L121.556 95.2932C121.23 93.9476 120.025 93 118.64 93H75.8142C73.8713 93 72.4409 94.8186 72.8986 96.7068L79.4441 123.707C79.7703 125.052 80.975 126 82.3596 126H125.186Z" fill="#1B1B1B"/>
<path d="M113.22 61.74C113.22 51.94 103.1 44 90.61 44C78.12 44 68 51.94 68 61.74C68 71.54 78.12 79.48 90.61 79.48C90.95 79.48 91.29 79.48 91.63 79.46C91.7 81.98 90.67 84.35 90.67 84.35C93.45 83.74 95.95 80.84 97.49 78.64C106.61 76.36 113.22 69.65 113.22 61.74Z" fill="#FFDA00"/>
<path fill-rule="evenodd" clip-rule="evenodd" d="M67 61.74C67 51.1754 77.8073 43 90.61 43C103.413 43 114.22 51.1754 114.22 61.74C114.22 70.1499 107.314 77.08 98.0936 79.5173C97.3286 80.5806 96.3509 81.7843 95.2236 82.8258C93.9984 83.9576 92.5221 84.9674 90.8843 85.3268L88.9729 85.7462L89.7523 83.9527L89.7524 83.9525L89.7526 83.952L89.7527 83.9518L89.7529 83.9514L89.7532 83.9506L89.7592 83.9365C89.7649 83.9228 89.7741 83.9005 89.7863 83.8703C89.8106 83.8097 89.8467 83.7174 89.8905 83.5974C89.9782 83.3572 90.0959 83.0086 90.2118 82.5856C90.3766 81.9845 90.5322 81.253 90.5991 80.48C77.8011 80.4753 67 72.3016 67 61.74ZM92.2738 82.5932C92.8121 82.2575 93.3458 81.8377 93.8664 81.3567C94.9602 80.3463 95.924 79.1334 96.6708 78.0665L96.885 77.7605L97.2475 77.6699C106.087 75.4599 112.22 69.0407 112.22 61.74C112.22 52.7046 102.787 45 90.61 45C78.4327 45 69 52.7046 69 61.74C69 70.7754 78.4327 78.48 90.61 78.48C90.9549 78.48 91.2655 78.4797 91.5713 78.4617L92.601 78.4012L92.6296 79.4322C92.6618 80.5891 92.4852 81.6997 92.2738 82.5932Z" fill="#1B1B1B"/>
<path d="M98 38.74C98 28.94 108.12 21 120.61 21C133.1 21 143.22 28.94 143.22 38.74C143.22 48.54 133.1 56.48 120.61 56.48C120.27 56.48 119.93 56.48 119.59 56.46C119.52 58.98 120.55 61.35 120.55 61.35C117.77 60.74 115.27 57.84 113.73 55.64C104.61 53.36 98 46.65 98 38.74Z" fill="#8AD953"/>
<path fill-rule="evenodd" clip-rule="evenodd" d="M144.22 38.74C144.22 28.1754 133.413 20 120.61 20C107.807 20 97 28.1754 97 38.74C97 47.1499 103.906 54.08 113.126 56.5173C113.891 57.5806 114.869 58.7843 115.996 59.8258C117.222 60.9576 118.698 61.9674 120.336 62.3268L122.247 62.7462L121.468 60.9527L121.468 60.9525L121.467 60.952L121.467 60.9518L121.467 60.9514L121.467 60.9506L121.461 60.9365C121.455 60.9228 121.446 60.9005 121.434 60.8703C121.409 60.8097 121.373 60.7174 121.33 60.5974C121.242 60.3572 121.124 60.0086 121.008 59.5856C120.843 58.9845 120.688 58.253 120.621 57.48C133.419 57.4753 144.22 49.3016 144.22 38.74ZM118.946 59.5932C118.408 59.2575 117.874 58.8377 117.354 58.3567C116.26 57.3463 115.296 56.1334 114.549 55.0665L114.335 54.7605L113.973 54.6699C105.133 52.4599 99 46.0407 99 38.74C99 29.7046 108.433 22 120.61 22C132.787 22 142.22 29.7046 142.22 38.74C142.22 47.7754 132.787 55.48 120.61 55.48C120.265 55.48 119.954 55.4797 119.649 55.4617L118.619 55.4012L118.59 56.4322C118.558 57.5891 118.735 58.6997 118.946 59.5932Z" fill="#1B1B1B"/>
</svg>
