<svg width="180" height="130" viewBox="0 0 180 130" fill="none" xmlns="http://www.w3.org/2000/svg">
<path d="M114 0H16C7.16344 0 0 7.16344 0 16V114C0 122.837 7.16344 130 16 130H114C122.837 130 130 122.837 130 114V16C130 7.16344 122.837 0 114 0Z" fill="#8FDFF3"/>
<path d="M114 2C121.72 2 128 8.28 128 16V114C128 121.72 121.72 128 114 128H16C8.28 128 2 121.72 2 114V16C2 8.28 8.28 2 16 2H114ZM114 0H16C7.16 0 0 7.16 0 16V114C0 122.84 7.16 130 16 130H114C122.84 130 130 122.84 130 114V16C130 7.16 122.84 0 114 0Z" fill="#1B1B1B"/>
<path d="M120.385 105.654L116.51 99.2492C116.324 98.949 116.224 98.6202 116.195 98.2627L115.152 83.8939C115.066 82.7358 114.108 81.8494 112.95 81.8494H91.1893C90.0313 81.8494 89.0733 82.7358 88.9875 83.8939L87.9438 98.1626C87.9152 98.5773 87.7723 98.9633 87.5292 99.2921L83.0255 105.497C81.9675 106.956 83.0112 109 84.8127 109H118.497C120.213 109 121.271 107.127 120.385 105.654ZM101.655 93.659C99.4961 93.659 97.7375 91.9004 97.7375 89.7415C97.7375 87.5826 99.4961 85.824 101.655 85.824C103.814 85.824 105.572 87.5826 105.572 89.7415C105.572 91.9004 103.814 93.659 101.655 93.659Z" fill="white"/>
<path fill-rule="evenodd" clip-rule="evenodd" d="M115.771 92.4225L115.152 83.8939C115.066 82.7358 114.108 81.8494 112.95 81.8494H91.1893C90.0312 81.8494 89.0733 82.7358 88.9875 83.8939L88.0586 96.5929L115.771 92.4225ZM97.7375 89.7415C97.7375 91.9004 99.496 93.659 101.655 93.659C103.814 93.659 105.572 91.9004 105.572 89.7415C105.572 87.5826 103.814 85.824 101.655 85.824C99.496 85.824 97.7375 87.5826 97.7375 89.7415Z" fill="#E5E5E5"/>
<path fill-rule="evenodd" clip-rule="evenodd" d="M87.9903 83.82C88.1148 82.1387 89.5087 80.8494 91.1893 80.8494H112.95C114.631 80.8494 116.024 82.1387 116.149 83.82L117.192 98.183C117.192 98.1841 117.192 98.1851 117.192 98.1862C117.21 98.4001 117.267 98.5718 117.36 98.7229L117.366 98.7316L121.24 105.137L120.385 105.654L121.241 105.139C122.528 107.276 120.993 110 118.497 110H84.8127C82.1953 110 80.678 107.03 82.2161 104.91L86.725 98.6977C86.8547 98.5222 86.9307 98.3186 86.9462 98.0938L86.9465 98.0897L87.9903 83.82ZM89.9848 83.9678C89.9848 83.9679 89.9848 83.9676 89.9848 83.9678L88.9415 98.2314C88.9414 98.2322 88.9414 98.2329 88.9413 98.2336C88.8994 98.8357 88.6905 99.4019 88.3362 99.8827L83.835 106.084C83.2571 106.881 83.8272 108 84.8127 108H118.497C119.433 108 120.014 106.978 119.528 106.171C119.528 106.171 119.528 106.171 119.528 106.171L115.66 99.7756C115.659 99.774 115.658 99.7725 115.657 99.7709C115.381 99.3235 115.238 98.8402 115.199 98.3425L115.198 98.3352L114.154 83.9678C114.154 83.9675 114.154 83.968 114.154 83.9678C114.107 83.3333 113.585 82.8494 112.95 82.8494H91.1893C90.554 82.8494 90.032 83.3331 89.9848 83.9678ZM101.655 86.824C100.048 86.824 98.7375 88.1349 98.7375 89.7415C98.7375 91.3481 100.048 92.659 101.655 92.659C103.262 92.659 104.572 91.3481 104.572 89.7415C104.572 88.1349 103.262 86.824 101.655 86.824ZM96.7375 89.7415C96.7375 87.0303 98.9438 84.824 101.655 84.824C104.366 84.824 106.572 87.0303 106.572 89.7415C106.572 92.4527 104.366 94.659 101.655 94.659C98.9438 94.659 96.7375 92.4527 96.7375 89.7415Z" fill="#1B1B1B"/>
<path d="M149.407 12H53.5933C50.5042 12 48 14.5383 48 17.6694V83.3306C48 86.4617 50.5042 89 53.5933 89H149.407C152.496 89 155 86.4617 155 83.3306V17.6694C155 14.5383 152.496 12 149.407 12Z" fill="white"/>
<path fill-rule="evenodd" clip-rule="evenodd" d="M53.5933 13C51.0692 13 49 15.0778 49 17.6694V83.3306C49 85.9222 51.0692 88 53.5933 88H149.407C151.931 88 154 85.9222 154 83.3306V17.6694C154 15.0778 151.931 13 149.407 13H53.5933ZM47 17.6694C47 13.9988 49.9392 11 53.5933 11H149.407C153.061 11 156 13.9988 156 17.6694V83.3306C156 87.0012 153.061 90 149.407 90H53.5933C49.9392 90 47 87.0012 47 83.3306V17.6694Z" fill="#1B1B1B"/>
<path d="M56.0617 12H146.938C151.39 12 155 15.6546 155 20.1615V78H48V20.1615C48 15.6546 51.6099 12 56.0617 12Z" fill="#1B1B1B"/>
<path fill-rule="evenodd" clip-rule="evenodd" d="M101.5 58C107.299 58 112 53.299 112 47.5C112 41.701 107.299 37 101.5 37C95.701 37 91 41.701 91 47.5C91 53.299 95.701 58 101.5 58ZM114 47.5C114 54.4036 108.404 60 101.5 60C94.5964 60 89 54.4036 89 47.5C89 40.5964 94.5964 35 101.5 35C108.404 35 114 40.5964 114 47.5Z" fill="white"/>
<path d="M108.118 47.5083L97.8235 42.3529V52.647L108.118 47.5083Z" fill="white"/>
<path d="M15.8039 89.8056C14.0054 86.6461 15.1557 83.3245 15.6256 82.2471L48.7679 78.3018L71.095 105.368L68.9887 105.733L69.3856 112.635L70.9411 114.19L32.5411 121.101L15.8039 89.8056Z" fill="#1379C4"/>
<path d="M33.4457 110.658L69.4964 105.392V112.683L33.4457 119.164C31.5014 116.572 32.6356 111.873 33.4457 110.658Z" fill="white"/>
<path d="M48.4277 79.1605L69.5801 104.809H69.5558L68.1299 105.06L68.211 106.502L68.5512 112.376L68.5836 112.991L69.0211 113.429L69.2641 113.672L32.9704 120.201L16.5168 89.4248V89.4086L16.4925 89.3924C15.0504 86.8648 15.7229 84.2319 16.1846 83.0005L48.4277 79.1605ZM49.1163 77.443L15.0829 81.4936C15.0829 81.4936 12.6525 85.9169 15.0829 90.1863L32.0955 122L70.7194 115.048C71.5141 114.905 71.8204 113.927 71.2494 113.356L70.1715 112.278L69.8312 106.405L70.9043 106.22C71.6608 106.089 71.9943 105.19 71.5058 104.598L49.1082 77.443H49.1163Z" fill="#1B1B1B"/>
<path d="M26.2197 69.3418C22.1691 69.3418 22.9792 76.6329 22.9792 76.6329V104.347C22.9792 105.911 24.243 107.175 25.8066 107.175H68.5974L65.9159 100.135L65.519 98.1094H68.5974L57.8147 70.1519L26.2197 69.3418Z" fill="#FF2434"/>
<path d="M64.6358 97.2911H25.4095C25.4095 97.2911 23.7893 101.544 25.4095 104.785H65.4459L64.6358 97.2911Z" fill="white"/>
<path fill-rule="evenodd" clip-rule="evenodd" d="M23.1939 69.8955C23.8515 68.9849 24.847 68.3418 26.2197 68.3418H26.2325L58.5075 69.1694L69.006 96.3897C69.5113 97.7 68.5443 99.1094 67.14 99.1094H66.734L66.8808 99.8586L69.0155 105.463C69.5141 106.772 68.5473 108.175 67.1465 108.175H25.8066C23.6907 108.175 21.9792 106.463 21.9792 104.347V76.6838C21.9781 76.6719 21.9768 76.6584 21.9754 76.6433C21.9698 76.5834 21.9625 76.4981 21.9549 76.3909C21.9396 76.1768 21.9228 75.8742 21.9161 75.5122C21.9028 74.7936 21.9286 73.816 22.0941 72.823C22.2569 71.8459 22.5698 70.7596 23.1939 69.8955ZM23.9732 76.5232L23.9792 76.5776V104.347C23.9792 105.359 24.7953 106.175 25.8066 106.175H67.1465L64.951 100.411L64.3039 97.1094H67.14L57.1218 71.1345L26.208 70.3418C25.562 70.345 25.1429 70.6128 24.8152 71.0665C24.4519 71.5696 24.2078 72.3061 24.0669 73.1518C23.9286 73.9815 23.9038 74.8267 23.9158 75.4752C23.9217 75.7967 23.9366 76.0637 23.9498 76.2484C23.9564 76.3406 23.9625 76.4119 23.9669 76.4589L23.9718 76.5104L23.9732 76.5232Z" fill="#1B1B1B"/>
<path d="M15.7041 71.756C14.019 69.2122 15.1856 66.1661 15.6312 65.194L45.7274 58.8588L73.4661 75.3529L70.8737 75.7337L70.9871 82.7332L73.9522 84.8071L39.5299 93.9697L15.7041 71.756Z" fill="#73C92D"/>
<path d="M41.1421 81.8988L71.1168 75.0127L71.5217 82.7089L40.737 90.8102C37.9015 86.7595 39.9269 83.654 41.1421 81.8988Z" fill="white"/>
<path d="M45.5814 59.7175L71.0842 74.883L70.0716 75.1392V76.4628L70.1688 82.3362L70.185 83.1625L70.8655 83.6324L72.0645 84.4668L39.7566 93.0623L16.3278 71.2294C15.1045 69.2932 15.7688 66.9843 16.2062 65.8987L45.5814 59.7175ZM45.865 58L15.0802 64.481C15.0802 64.481 12.6498 68.7423 15.0802 72.2825L39.303 94.8608L73.7621 85.692C74.5839 85.4734 74.7751 84.394 74.0785 83.9064L71.789 82.3038L71.6918 76.4304L73.0509 76.2313C73.9827 76.0948 74.2265 74.8636 73.4171 74.3823L45.865 58Z" fill="#1B1B1B"/>
</svg>
