<svg width="519" height="440" viewBox="0 0 519 440" fill="none" xmlns="http://www.w3.org/2000/svg">
<g clip-path="url(#clip0_2358_13355)">
<path d="M493.96 157.5C493.96 126.85 464.08 102 427.23 102C402.54 102 380.99 113.16 369.45 129.75C366.39 129.27 363.23 129 360 129C332.11 129 309.5 147.8 309.5 171C309.5 172.01 309.56 173.01 309.64 174H490.96C492.91 168.79 493.96 163.25 493.96 157.5Z" fill="#C7E8EF" stroke="#1B1B1B" stroke-width="3" stroke-miterlimit="10"/>
<path d="M500.24 316.5H18.76C8.39914 316.5 0 324.899 0 335.26V420.74C0 431.101 8.39914 439.5 18.76 439.5H500.24C510.601 439.5 519 431.101 519 420.74V335.26C519 324.899 510.601 316.5 500.24 316.5Z" fill="#F8FAFF"/>
<mask id="path-3-inside-1_2358_13355" fill="white">
<path fill-rule="evenodd" clip-rule="evenodd" d="M519 363.542L486.41 358.2L481.99 350.69L439.05 348.63V354.5H425.81V358.65L394.52 360.85V354.5L353.5 361L335.39 404.55L519 414.446V363.542Z"/>
</mask>
<path fill-rule="evenodd" clip-rule="evenodd" d="M519 363.542L486.41 358.2L481.99 350.69L439.05 348.63V354.5H425.81V358.65L394.52 360.85V354.5L353.5 361L335.39 404.55L519 414.446V363.542Z" fill="#82C6D1"/>
<path d="M486.41 358.2L483.825 359.722L484.538 360.933L485.925 361.161L486.41 358.2ZM519 363.542H522V360.994L519.485 360.582L519 363.542ZM481.99 350.69L484.575 349.168L483.753 347.771L482.134 347.694L481.99 350.69ZM439.05 348.63L439.194 345.634L436.05 345.483V348.63H439.05ZM439.05 354.5V357.5H442.05V354.5H439.05ZM425.81 354.5V351.5H422.81V354.5H425.81ZM425.81 358.65L426.02 361.643L428.81 361.447V358.65H425.81ZM394.52 360.85H391.52V364.068L394.73 363.843L394.52 360.85ZM394.52 354.5H397.52V350.987L394.05 351.537L394.52 354.5ZM353.5 361L353.03 358.037L351.374 358.3L350.73 359.848L353.5 361ZM335.39 404.55L332.62 403.398L330.99 407.317L335.229 407.546L335.39 404.55ZM519 414.446L518.839 417.442L522 417.612V414.446H519ZM485.925 361.161L518.515 366.503L519.485 360.582L486.895 355.24L485.925 361.161ZM479.405 352.212L483.825 359.722L488.995 356.678L484.575 349.168L479.405 352.212ZM438.906 351.627L481.846 353.687L482.134 347.694L439.194 345.634L438.906 351.627ZM442.05 354.5V348.63H436.05V354.5H442.05ZM425.81 357.5H439.05V351.5H425.81V357.5ZM428.81 358.65V354.5H422.81V358.65H428.81ZM394.73 363.843L426.02 361.643L425.6 355.658L394.31 357.858L394.73 363.843ZM391.52 354.5V360.85H397.52V354.5H391.52ZM353.97 363.963L394.99 357.463L394.05 351.537L353.03 358.037L353.97 363.963ZM338.16 405.702L356.27 362.152L350.73 359.848L332.62 403.398L338.16 405.702ZM519.161 411.451L335.551 401.554L335.229 407.546L518.839 417.442L519.161 411.451ZM522 414.446V363.542H516V414.446H522Z" fill="#1B1B1B" mask="url(#path-3-inside-1_2358_13355)"/>
<mask id="path-5-inside-2_2358_13355" fill="white">
<path fill-rule="evenodd" clip-rule="evenodd" d="M519 374.742L504.97 372.33L480.5 382L477.19 377.89L451.5 382.51V374L403.92 372.33L401.5 384L378.46 377.89L382.59 372.33L346.92 358.74L336.41 363.87L315.76 358.74V365.53L293.61 363.87L296.99 360L259.61 344.96L231.5 360L198.63 348.29L192.25 355L188.87 348.29H146.5V355L100.28 346.79V352L76.62 346.79L75.12 341.59H28.5V349L0 351.311V420.74C0 431.101 8.39914 439.5 18.76 439.5H500.24C510.601 439.5 519 431.101 519 420.74V374.742Z"/>
</mask>
<path fill-rule="evenodd" clip-rule="evenodd" d="M519 374.742L504.97 372.33L480.5 382L477.19 377.89L451.5 382.51V374L403.92 372.33L401.5 384L378.46 377.89L382.59 372.33L346.92 358.74L336.41 363.87L315.76 358.74V365.53L293.61 363.87L296.99 360L259.61 344.96L231.5 360L198.63 348.29L192.25 355L188.87 348.29H146.5V355L100.28 346.79V352L76.62 346.79L75.12 341.59H28.5V349L0 351.311V420.74C0 431.101 8.39914 439.5 18.76 439.5H500.24C510.601 439.5 519 431.101 519 420.74V374.742Z" fill="#B5E4EA"/>
<path d="M504.97 372.33L505.478 369.373L504.65 369.231L503.867 369.54L504.97 372.33ZM519 374.742H522V372.214L519.508 371.786L519 374.742ZM480.5 382L478.163 383.882L479.549 385.602L481.603 384.79L480.5 382ZM477.19 377.89L479.526 376.008L478.41 374.623L476.659 374.937L477.19 377.89ZM451.5 382.51H448.5V386.098L452.031 385.463L451.5 382.51ZM451.5 374H454.5V371.104L451.605 371.002L451.5 374ZM403.92 372.33L404.025 369.332L401.496 369.243L400.982 371.721L403.92 372.33ZM401.5 384L400.731 386.9L403.794 387.712L404.437 384.609L401.5 384ZM378.46 377.89L376.052 376.101L373.412 379.655L377.691 380.79L378.46 377.89ZM382.59 372.33L384.998 374.119L387.361 370.938L383.658 369.527L382.59 372.33ZM346.92 358.74L347.988 355.937L346.773 355.474L345.604 356.044L346.92 358.74ZM336.41 363.87L335.687 366.782L336.745 367.045L337.726 366.566L336.41 363.87ZM315.76 358.74L316.483 355.829L312.76 354.904V358.74H315.76ZM315.76 365.53L315.536 368.522L318.76 368.763V365.53H315.76ZM293.61 363.87L291.35 361.897L287.405 366.414L293.386 366.862L293.61 363.87ZM296.99 360L299.25 361.974L302.027 358.793L298.11 357.217L296.99 360ZM259.61 344.96L260.73 342.177L259.43 341.654L258.195 342.315L259.61 344.96ZM231.5 360L230.493 362.826L231.744 363.272L232.915 362.645L231.5 360ZM198.63 348.29L199.637 345.464L197.8 344.81L196.456 346.223L198.63 348.29ZM192.25 355L189.571 356.35L191.488 360.155L194.424 357.067L192.25 355ZM188.87 348.29L191.549 346.94L190.718 345.29H188.87V348.29ZM146.5 348.29V345.29H143.5V348.29H146.5ZM146.5 355L145.975 357.954L149.5 358.58V355H146.5ZM100.28 346.79L100.805 343.836L97.28 343.21V346.79H100.28ZM100.28 352L99.6348 354.93L103.28 355.733V352H100.28ZM76.62 346.79L73.7375 347.622L74.2321 349.336L75.9748 349.72L76.62 346.79ZM75.12 341.59L78.0025 340.759L77.3769 338.59H75.12V341.59ZM28.5 341.59V338.59H25.5V341.59H28.5ZM28.5 349L28.7424 351.99L31.5 351.767V349H28.5ZM0 351.311L-0.242448 348.321L-3 348.544V351.311H0ZM504.462 375.287L518.492 377.699L519.508 371.786L505.478 369.373L504.462 375.287ZM481.603 384.79L506.073 375.12L503.867 369.54L479.397 379.21L481.603 384.79ZM474.853 379.772L478.163 383.882L482.836 380.118L479.526 376.008L474.853 379.772ZM452.031 385.463L477.721 380.843L476.659 374.937L450.969 379.557L452.031 385.463ZM448.5 374V382.51H454.5V374H448.5ZM403.815 375.328L451.395 376.998L451.605 371.002L404.025 369.332L403.815 375.328ZM404.437 384.609L406.857 372.939L400.982 371.721L398.562 383.391L404.437 384.609ZM377.691 380.79L400.731 386.9L402.269 381.1L379.229 374.99L377.691 380.79ZM380.182 370.541L376.052 376.101L380.868 379.679L384.998 374.119L380.182 370.541ZM345.852 361.544L381.522 375.134L383.658 369.527L347.988 355.937L345.852 361.544ZM337.726 366.566L348.236 361.436L345.604 356.044L335.094 361.174L337.726 366.566ZM315.037 361.652L335.687 366.782L337.133 360.959L316.483 355.829L315.037 361.652ZM318.76 365.53V358.74H312.76V365.53H318.76ZM293.386 366.862L315.536 368.522L315.984 362.538L293.834 360.878L293.386 366.862ZM294.73 358.027L291.35 361.897L295.87 365.844L299.25 361.974L294.73 358.027ZM258.49 347.743L295.87 362.783L298.11 357.217L260.73 342.177L258.49 347.743ZM232.915 362.645L261.025 347.605L258.195 342.315L230.085 357.355L232.915 362.645ZM197.623 351.116L230.493 362.826L232.507 357.174L199.637 345.464L197.623 351.116ZM194.424 357.067L200.804 350.357L196.456 346.223L190.076 352.933L194.424 357.067ZM186.191 349.64L189.571 356.35L194.929 353.65L191.549 346.94L186.191 349.64ZM146.5 351.29H188.87V345.29H146.5V351.29ZM149.5 355V348.29H143.5V355H149.5ZM99.7553 349.744L145.975 357.954L147.025 352.046L100.805 343.836L99.7553 349.744ZM103.28 352V346.79H97.28V352H103.28ZM75.9748 349.72L99.6348 354.93L100.925 349.07L77.2651 343.86L75.9748 349.72ZM72.2375 342.422L73.7375 347.622L79.5025 345.959L78.0025 340.759L72.2375 342.422ZM28.5 344.59H75.12V338.59H28.5V344.59ZM31.5 349V341.59H25.5V349H31.5ZM0.242448 354.301L28.7424 351.99L28.2575 346.01L-0.242448 348.321L0.242448 354.301ZM-3 351.311V420.74H3V351.311H-3ZM-3 420.74C-3 432.758 6.74228 442.5 18.76 442.5V436.5C10.056 436.5 3 429.444 3 420.74H-3ZM18.76 442.5H500.24V436.5H18.76V442.5ZM500.24 442.5C512.258 442.5 522 432.758 522 420.74H516C516 429.444 508.944 436.5 500.24 436.5V442.5ZM522 420.74V374.742H516V420.74H522Z" fill="#1B1B1B" mask="url(#path-5-inside-2_2358_13355)"/>
<path d="M500.35 320.12C509.04 320.12 516.11 327.19 516.11 335.88V421.36C516.11 430.05 509.04 437.12 500.35 437.12H18.76C10.07 437.12 3 430.05 3 421.36V335.88C3 327.19 10.07 320.12 18.76 320.12H500.35ZM500.35 317.12H18.76C8.4 317.12 0 325.52 0 335.88V421.36C0 431.72 8.4 440.12 18.76 440.12H500.35C510.71 440.12 519.11 431.72 519.11 421.36V335.88C519.11 325.52 510.71 317.12 500.35 317.12Z" fill="#1B1B1B"/>
<path d="M182.27 202.43C182.27 202.43 198.06 210.32 196.48 254.5H236.02C236.02 254.5 237.79 216.61 222.65 206.37L182.27 202.43Z" fill="#FFC587" stroke="#1B1B1B" stroke-width="3" stroke-linejoin="bevel"/>
<path d="M201.2 254.51C210.788 254.51 218.56 246.737 218.56 237.15C218.56 227.562 210.788 219.79 201.2 219.79C191.612 219.79 183.84 227.562 183.84 237.15C183.84 246.737 191.612 254.51 201.2 254.51Z" fill="white" stroke="#1B1B1B" stroke-width="3" stroke-miterlimit="10"/>
<path d="M237.5 243.46C250.573 243.46 261.17 232.862 261.17 219.79C261.17 206.717 250.573 196.12 237.5 196.12C224.427 196.12 213.83 206.717 213.83 219.79C213.83 232.862 224.427 243.46 237.5 243.46Z" fill="white" stroke="#1B1B1B" stroke-width="3" stroke-miterlimit="10"/>
<path d="M206.92 250.94C206.92 250.94 211.43 236.03 239.84 236.03C257.52 236.03 268.26 245.42 268.26 276.28V292.38L206.92 285.67V275.88C199.25 277.39 192.12 271.52 192.12 263.71V245.43" fill="white"/>
<path d="M206.92 250.94C206.92 250.94 211.43 236.03 239.84 236.03C257.52 236.03 268.26 245.42 268.26 276.28V292.38L206.92 285.67V275.88C199.25 277.39 192.12 271.52 192.12 263.71V245.43" stroke="#1B1B1B" stroke-width="3" stroke-linejoin="bevel"/>
<path d="M150.71 241.88C163.782 241.88 174.38 231.282 174.38 218.21C174.38 205.137 163.782 194.54 150.71 194.54C137.637 194.54 127.04 205.137 127.04 218.21C127.04 231.282 137.637 241.88 150.71 241.88Z" fill="white" stroke="#1B1B1B" stroke-width="3" stroke-miterlimit="10"/>
<path d="M97.06 241.88C106.648 241.88 114.42 234.108 114.42 224.52C114.42 214.932 106.648 207.16 97.06 207.16C87.4723 207.16 79.7 214.932 79.7 224.52C79.7 234.108 87.4723 241.88 97.06 241.88Z" fill="white" stroke="#1B1B1B" stroke-width="3" stroke-miterlimit="10"/>
<path d="M133.35 222.94L52.09 226.1V213.48L133.35 216.63V222.94Z" fill="#FFDA00" stroke="#1B1B1B" stroke-width="3" stroke-miterlimit="10"/>
<path d="M193.31 289.22L179.36 249.89C175.79 238.67 163.55 232.73 152.53 236.86L134.93 243.46L127.43 237.12C128.19 235.17 128.62 233.06 128.62 230.84C128.62 221.25 120.85 213.48 111.26 213.48C101.67 213.48 93.9 221.25 93.9 230.84C93.9 240.43 101.45 247.95 110.84 248.18L116.88 256.93C119.89 261.29 124.22 264.56 129.24 266.25L141.24 270.29V284.49L193.31 289.22Z" fill="white" stroke="#1B1B1B" stroke-width="3" stroke-miterlimit="10"/>
<path d="M143.61 215.16V222.07" stroke="#1B1B1B" stroke-width="3" stroke-miterlimit="10"/>
<path d="M281.438 77.2434L273.582 76.5132L253.722 290.192L261.578 290.922L281.438 77.2434Z" fill="white" stroke="#1B1B1B" stroke-width="3" stroke-miterlimit="10"/>
<path d="M392.92 288.84L263.3 276.8L281.83 77.27L392.92 288.84Z" fill="white" stroke="#1B1B1B" stroke-width="3" stroke-linejoin="bevel"/>
<path d="M375.65 384L410.07 304.7L105.26 276.39L125.95 356.24L173.77 365.01V357.65L219.08 360.06V371.25L233.91 365.01L237.21 372.46L265.22 352.7L292.57 368.63L299.15 372.46L289.94 378.06L306.5 381.06L317.95 383.13V372.46L337.5 379.92L349.87 372.46L375.65 384Z" fill="white" stroke="#1B1B1B" stroke-width="3" stroke-linejoin="bevel"/>
<path d="M287.91 289.22C286.14 276.11 276.15 265.55 262.74 265.55H245.38C231.97 265.55 219.29 276.02 220.21 289.22C220.86 298.46 227.64 325.52 227.64 325.52C226.88 327.48 226.44 329.6 226.44 331.82C226.44 341.41 234.21 349.18 243.8 349.18C253.39 349.18 261.16 341.41 261.16 331.82C261.16 325.49 257.76 319.96 252.69 316.93L247.28 290.79H261.48L268.66 325.51C267.9 327.47 267.46 329.59 267.46 331.81C267.46 341.4 275.23 349.17 284.82 349.17C294.41 349.17 302.18 341.4 302.18 331.81C302.18 325.48 298.78 319.95 293.71 316.92C293.71 316.92 288.84 296.22 287.9 289.2L287.91 289.22Z" fill="white" stroke="#1B1B1B" stroke-width="3" stroke-miterlimit="10"/>
<path d="M258.01 284.48C271.083 284.48 281.68 273.882 281.68 260.81C281.68 247.737 271.083 237.14 258.01 237.14C244.938 237.14 234.34 247.737 234.34 260.81C234.34 273.882 244.938 284.48 258.01 284.48Z" fill="white" stroke="#1B1B1B" stroke-width="3" stroke-miterlimit="10"/>
<path d="M254 271.16V277.63" stroke="#1B1B1B" stroke-width="3" stroke-miterlimit="10"/>
<path d="M265.04 271.16V277.63" stroke="#1B1B1B" stroke-width="3" stroke-miterlimit="10"/>
<path d="M403.5 248L434.5 246C410.5 257 411.5 289 411.5 289L396.48 260.2C396.48 260.2 394.45 260.54 390.87 260.87C389.6 253.74 385.48 247.51 379.64 243.5C384.54 240.87 388.41 236.56 390.46 231.34C399.24 240.23 403.5 248 403.5 248Z" fill="#8FDFF3"/>
<path d="M356.28 209.69C354.41 209.06 352.48 208.5 350.5 208C350.32 207.96 350.14 207.91 349.97 207.87C354.3 202.44 360.98 198.96 368.47 198.96C381.54 198.96 392.13 209.56 392.13 222.63C392.13 225.7 391.54 228.64 390.46 231.34C382.68 223.45 371.34 214.68 356.28 209.69Z" fill="white"/>
<path d="M356.28 209.69C371.34 214.68 382.68 223.45 390.46 231.34C388.41 236.56 384.54 240.87 379.64 243.5C379.17 243.18 378.7 242.87 378.21 242.58L378.91 235.06L372.69 234.48C369.98 228.42 363.9 224.21 356.84 224.21C352.52 224.21 348.56 225.79 345.52 228.41C345.05 226.56 344.8 224.62 344.8 222.63C344.8 217.05 346.73 211.92 349.97 207.87C350.14 207.91 350.32 207.96 350.5 208C352.48 208.5 354.41 209.06 356.28 209.69Z" fill="#8FDFF3"/>
<path d="M390.87 260.87C385.51 261.34 376.7 261.76 366.07 260.9L365.11 256.83C369.35 254.53 372.52 250.51 373.7 245.71C375.8 245.25 377.79 244.49 379.64 243.5C385.48 247.51 389.6 253.74 390.87 260.87Z" fill="#8FDFF3"/>
<path d="M378.21 242.58C378.7 242.87 379.17 243.18 379.64 243.5C377.79 244.49 375.8 245.25 373.7 245.71C374.03 244.38 374.2 243 374.2 241.57C374.2 239.05 373.66 236.65 372.69 234.48L378.91 235.06L378.21 242.58Z" fill="#8FDFF3"/>
<path d="M366.65 263.35L374.82 276.39C370.13 284.07 360.34 284.48 360.34 284.48C342.58 282.14 343.74 270.3 346.21 257.89C353.22 259.48 359.94 260.4 366.07 260.9L366.65 263.35Z" fill="white"/>
<path d="M374.2 241.57C374.2 243 374.03 244.38 373.7 245.71C372.02 246.1 370.27 246.3 368.47 246.3C362.84 246.3 357.68 244.34 353.62 241.06C354.48 240.67 355.36 240.33 356.26 240.04L356.91 233.02L372.69 234.48C373.66 236.65 374.2 239.05 374.2 241.57Z" fill="white"/>
<path d="M372.69 234.48L356.91 233.02L356.26 240.04C355.36 240.33 354.48 240.67 353.62 241.06C349.68 237.89 346.78 233.47 345.52 228.41C348.56 225.79 352.52 224.21 356.84 224.21C363.9 224.21 369.98 228.42 372.69 234.48Z" fill="white"/>
<path d="M373.7 245.71C372.52 250.51 369.35 254.53 365.11 256.83L366.07 260.9C359.94 260.4 353.22 259.48 346.21 257.89C346.36 257.13 346.51 256.37 346.67 255.61C344.86 254.3 343.31 252.64 342.12 250.74C344.94 246.49 348.95 243.12 353.62 241.06C357.68 244.34 362.84 246.3 368.47 246.3C370.27 246.3 372.02 246.1 373.7 245.71Z" fill="white"/>
<path d="M366.07 260.9C376.7 261.76 385.51 261.34 390.87 260.87C391.29 263.19 391.4 265.6 391.17 268.06L388.81 302.59L335.39 297.63L336.53 278.03L336.71 277.1C339.63 276.51 341.58 275.77 341.58 275.77L338.3 268.87L340.7 256.5C341.07 256.61 341.43 256.71 341.8 256.81C343.28 257.2 344.75 257.56 346.21 257.89C343.74 270.3 342.58 282.14 360.34 284.48C360.34 284.48 370.13 284.07 374.82 276.39L366.65 263.35L366.07 260.9Z" fill="white"/>
<path d="M345.52 228.41C346.78 233.47 349.68 237.89 353.62 241.06C348.95 243.12 344.94 246.49 342.12 250.74C341.03 249.01 340.24 247.07 339.83 244.99C340.95 242.7 341.58 240.13 341.58 237.41C341.58 236.23 341.46 235.08 341.24 233.97C342.28 231.83 343.74 229.95 345.52 228.41Z" fill="white"/>
<path d="M345.52 228.41C343.74 229.95 342.28 231.83 341.24 233.97C339.64 226.04 332.63 220.05 324.22 220.05C315.81 220.05 309.31 225.62 307.4 233.13C301.79 226.98 297.26 220.87 294.15 216.35C291.67 212.74 293.59 207.76 297.85 206.75C309.7 203.94 325.33 201.79 349.97 207.87C346.73 211.92 344.8 217.05 344.8 222.63C344.8 224.62 345.05 226.56 345.52 228.41Z" fill="#8FDFF3"/>
<path d="M342.12 250.74C343.31 252.64 344.86 254.3 346.67 255.61C346.51 256.37 346.36 257.13 346.21 257.89C344.75 257.56 343.28 257.2 341.8 256.81C341.43 256.71 341.07 256.61 340.7 256.5L341.68 251.41C341.82 251.18 341.97 250.96 342.12 250.74Z" fill="#8FDFF3"/>
<path d="M341.68 251.41L340.7 256.5C337.81 255.66 334.97 254.5 332.22 253.11L332.17 252.83C335.5 251.11 338.2 248.35 339.83 244.99C340.24 247.07 341.03 249.01 342.12 250.74C341.97 250.96 341.82 251.18 341.68 251.41Z" fill="#8FDFF3"/>
<path d="M338.3 268.87L341.58 275.77C341.58 275.77 339.63 276.51 336.71 277.1L338.3 268.87Z" fill="white"/>
<path d="M341.24 233.97C341.46 235.08 341.58 236.23 341.58 237.41C341.58 240.13 340.95 242.7 339.83 244.99C339.61 243.89 339.49 242.74 339.49 241.57C339.49 238.85 340.12 236.27 341.24 233.97Z" fill="white"/>
<path d="M340.7 256.5L338.3 268.87L333.17 258.08L332.22 253.11C334.97 254.5 337.81 255.66 340.7 256.5Z" fill="white"/>
<path d="M339.49 241.57C339.49 242.74 339.61 243.89 339.83 244.99C338.2 248.35 335.5 251.11 332.17 252.83L332.22 253.11C322.78 248.31 314.28 240.69 307.4 233.13C309.31 225.62 316.12 220.05 324.22 220.05C332.32 220.05 339.64 226.04 341.24 233.97C340.12 236.27 339.49 238.85 339.49 241.57Z" fill="white"/>
<path d="M338.3 268.87L336.71 277.1C327.23 279.02 307.53 279.46 310.88 248.51C308.38 245.5 306.87 241.63 306.87 237.41C306.87 235.93 307.05 234.5 307.4 233.13C314.28 240.69 322.78 248.31 332.22 253.11L333.17 258.08L338.3 268.87Z" fill="white"/>
<path d="M336.53 278.03L335.39 297.63L388.81 302.59L391.17 268.06C391.4 265.6 391.29 263.19 390.87 260.87" stroke="#1B1B1B" stroke-width="3" stroke-miterlimit="10"/>
<path d="M349.97 207.87C354.3 202.44 360.98 198.96 368.47 198.96C381.54 198.96 392.13 209.56 392.13 222.63C392.13 225.7 391.54 228.64 390.46 231.34" stroke="#1B1B1B" stroke-width="3" stroke-miterlimit="10"/>
<path d="M366.07 260.9C376.7 261.76 385.51 261.34 390.87 260.87C394.45 260.54 396.48 260.2 396.48 260.2L411.5 289C411.5 289 410.5 257 434.5 246L403.5 248C403.5 248 399.24 240.23 390.46 231.34C382.68 223.45 371.34 214.68 356.28 209.69C354.41 209.06 352.48 208.5 350.5 208C350.32 207.96 350.14 207.91 349.97 207.87C325.33 201.79 309.7 203.94 297.85 206.75C293.59 207.76 291.67 212.74 294.15 216.35C297.26 220.87 301.79 226.98 307.4 233.13" stroke="#1B1B1B" stroke-width="3" stroke-linejoin="bevel"/>
<path d="M332.22 253.11C334.97 254.5 337.81 255.66 340.7 256.5C341.07 256.61 341.43 256.71 341.8 256.81C343.28 257.2 344.75 257.56 346.21 257.89" stroke="#1B1B1B" stroke-width="3" stroke-linejoin="bevel"/>
<path d="M341.24 233.97C339.64 226.04 332.63 220.05 324.22 220.05C315.81 220.05 309.31 225.62 307.4 233.13C307.05 234.5 306.87 235.93 306.87 237.41C306.87 241.63 308.38 245.5 310.88 248.51C307.53 279.46 327.23 279.02 336.71 277.1C339.63 276.51 341.58 275.77 341.58 275.77" stroke="#1B1B1B" stroke-width="3" stroke-linejoin="bevel"/>
<path d="M333.17 258.08L332.22 253.11L332.17 252.83C335.5 251.11 338.2 248.35 339.83 244.99" stroke="#1B1B1B" stroke-width="3" stroke-linejoin="bevel"/>
<path d="M366.65 263.35L366.07 260.9L365.11 256.83C369.35 254.53 372.52 250.51 373.7 245.71C374.03 244.38 374.2 243 374.2 241.57C374.2 239.05 373.66 236.65 372.69 234.48C369.98 228.42 363.9 224.21 356.84 224.21C352.52 224.21 348.56 225.79 345.52 228.41C343.74 229.95 342.28 231.83 341.24 233.97C340.12 236.27 339.49 238.85 339.49 241.57C339.49 242.74 339.61 243.89 339.83 244.99C340.24 247.07 341.03 249.01 342.12 250.74C343.31 252.64 344.86 254.3 346.67 255.61C346.51 256.37 346.36 257.13 346.21 257.89C343.74 270.3 342.58 282.14 360.34 284.48C360.34 284.48 370.13 284.07 374.82 276.39" stroke="#1B1B1B" stroke-width="3" stroke-miterlimit="10"/>
<path d="M358.34 206.45L356.28 209.69L355.81 210.43" stroke="#1B1B1B" stroke-width="3" stroke-linejoin="bevel"/>
<path d="M365.34 207.45L362.81 211.43" stroke="#1B1B1B" stroke-width="3" stroke-linejoin="bevel"/>
<path d="M10.4199 259.94C10.4199 259.94 23.5999 263.49 29.5499 272.24C35.4999 280.99 42.4999 286 50.4999 288L83.9999 265.46C83.9999 265.46 71.9599 266.9 63.7299 254.95C55.4999 243 43.0799 240.35 43.0799 240.35L10.4199 259.94Z" fill="#C7E8EF" stroke="#1B1B1B" stroke-width="3" stroke-linejoin="bevel"/>
<path d="M462.32 220.1C462.32 220.1 453.06 225.54 455.53 230.59L474.06 222.82" fill="#C7E8EF"/>
<path d="M462.32 220.1C462.32 220.1 453.06 225.54 455.53 230.59L474.06 222.82" stroke="#1B1B1B" stroke-width="3" stroke-linejoin="bevel"/>
<path d="M461.32 220.1C461.32 220.1 471.69 217.92 486.85 233.28C486.85 233.28 491.99 219.87 509 217.25C509 217.25 484.64 213.56 461.32 220.1Z" fill="#C7E8EF" stroke="#1B1B1B" stroke-width="3" stroke-linejoin="bevel"/>
<path d="M425.21 275.21C425.21 275.21 437.21 280.21 438.21 288.21C438.21 288.21 450.19 289.21 455.2 288.21C460.21 287.21 469.09 288.65 469.09 288.65L447.15 279.98L425.21 275.2V275.21Z" fill="#C7E8EF" stroke="#1B1B1B" stroke-width="3" stroke-linejoin="bevel"/>
<path d="M328.03 334.6L329.17 322.3L331.92 322.56L330.78 334.86L328.03 334.6ZM330.16 334.8L330.38 332.4L336.46 332.97L336.24 335.37L330.16 334.81V334.8Z" fill="black"/>
<path d="M342.35 336.13C341.33 336.04 340.45 335.73 339.72 335.23C338.99 334.72 338.44 334.07 338.07 333.27C337.71 332.47 337.57 331.59 337.66 330.62L338.35 323.16L341.1 323.42L340.39 331.02C340.34 331.52 340.41 331.96 340.59 332.34C340.77 332.72 341.03 333.02 341.38 333.24C341.72 333.46 342.12 333.59 342.57 333.63C343.01 333.67 343.42 333.62 343.79 333.46C344.16 333.31 344.46 333.06 344.69 332.72C344.92 332.38 345.06 331.96 345.11 331.48L345.82 323.87L348.59 324.13L347.9 331.6C347.81 332.56 347.52 333.4 347.02 334.12C346.52 334.84 345.87 335.37 345.06 335.74C344.25 336.11 343.35 336.24 342.35 336.15V336.13Z" fill="black"/>
<path d="M355.43 337.34C354.51 337.25 353.68 337.02 352.92 336.62C352.17 336.23 351.52 335.71 350.99 335.08C350.46 334.45 350.06 333.73 349.81 332.92C349.56 332.11 349.47 331.27 349.55 330.37C349.63 329.47 349.87 328.66 350.27 327.91C350.67 327.17 351.18 326.54 351.82 326.03C352.46 325.52 353.18 325.13 353.99 324.89C354.8 324.65 355.67 324.56 356.6 324.65C357.58 324.74 358.43 324.98 359.16 325.36C359.89 325.74 360.52 326.24 361.04 326.83L359.02 328.52C358.74 328.14 358.38 327.83 357.94 327.59C357.5 327.35 356.98 327.2 356.37 327.15C355.84 327.1 355.34 327.15 354.88 327.28C354.42 327.42 354.01 327.64 353.66 327.95C353.31 328.26 353.02 328.64 352.8 329.1C352.58 329.56 352.45 330.07 352.39 330.63C352.34 331.21 352.38 331.74 352.51 332.23C352.64 332.72 352.85 333.15 353.15 333.52C353.44 333.89 353.8 334.19 354.23 334.41C354.66 334.63 355.13 334.77 355.67 334.82C356.3 334.88 356.85 334.83 357.33 334.68C357.81 334.53 358.23 334.29 358.59 333.96L360.28 336C359.65 336.5 358.93 336.87 358.14 337.11C357.35 337.35 356.44 337.42 355.43 337.32V337.34Z" fill="black"/>
<path d="M360.4 337.61L366.4 325.76L368.89 325.99L372.57 338.74L369.66 338.47L366.93 327.94L367.94 328.03L363.23 337.87L360.39 337.61H360.4ZM363.39 335.66L363.6 333.43L370.29 334.05L370.08 336.28L363.39 335.66Z" fill="black"/>
<path d="M377.33 339.38C376.31 339.29 375.45 339.04 374.75 338.65C374.06 338.26 373.44 337.7 372.91 336.97L374.85 335.36C375.2 335.85 375.61 336.24 376.07 336.54C376.53 336.83 377.08 337.01 377.72 337.07C378.29 337.12 378.74 337.06 379.08 336.87C379.42 336.69 379.61 336.41 379.64 336.04C379.67 335.71 379.59 335.44 379.41 335.21C379.23 334.98 378.97 334.78 378.63 334.59C378.3 334.41 377.93 334.23 377.54 334.06C377.15 333.89 376.75 333.69 376.36 333.47C375.96 333.25 375.61 332.98 375.29 332.68C374.97 332.38 374.73 332.01 374.56 331.58C374.39 331.14 374.33 330.62 374.39 330C374.46 329.23 374.71 328.59 375.12 328.08C375.54 327.57 376.09 327.2 376.78 326.98C377.47 326.76 378.23 326.68 379.07 326.76C379.94 326.84 380.72 327.06 381.4 327.43C382.08 327.8 382.63 328.26 383.05 328.81L381.09 330.44C380.75 330.02 380.41 329.7 380.05 329.48C379.69 329.26 379.28 329.13 378.81 329.08C378.33 329.04 377.95 329.09 377.65 329.25C377.35 329.4 377.19 329.65 377.16 329.99C377.13 330.29 377.21 330.55 377.41 330.76C377.6 330.97 377.86 331.16 378.19 331.33C378.52 331.5 378.88 331.67 379.28 331.85C379.68 332.03 380.08 332.23 380.47 332.44C380.87 332.66 381.22 332.93 381.53 333.25C381.84 333.57 382.08 333.96 382.26 334.41C382.44 334.86 382.49 335.41 382.43 336.06C382.32 337.23 381.82 338.11 380.92 338.71C380.02 339.3 378.83 339.53 377.34 339.39L377.33 339.38Z" fill="black"/>
<path d="M308.13 212.43L306.5 216" stroke="#1B1B1B" stroke-width="3" stroke-linejoin="bevel"/>
<path d="M243.81 349.18V367.81" stroke="#1B1B1B" stroke-width="3" stroke-linejoin="bevel"/>
<path d="M259.5 324.42C259.5 324.42 266.34 317.84 284.42 324.42C302.5 331 344.8 375.52 344.8 375.52" stroke="#1B1B1B" stroke-width="3" stroke-linejoin="bevel"/>
<path d="M263.3 322.45C263.3 322.45 287.39 332.99 311.45 358.49L326.93 375.88" stroke="#1B1B1B" stroke-width="3" stroke-linejoin="bevel"/>
<path d="M277.77 322.45C270.05 325.9 261.16 331.82 261.16 331.82L275.17 358.49L311.89 343.85" stroke="#1B1B1B" stroke-width="3" stroke-linejoin="bevel"/>
<path d="M254 345.87L257.01 358.49" stroke="#1B1B1B" stroke-width="3" stroke-linejoin="bevel"/>
<path d="M243.81 357.25C243.81 357.25 281.73 330.91 295.11 330.45" stroke="#1B1B1B" stroke-width="3" stroke-linejoin="bevel"/>
<path d="M326.48 357.25L292.57 368.63" stroke="#1B1B1B" stroke-width="3" stroke-miterlimit="10"/>
<path d="M318.5 376L307.5 381.06" stroke="#1B1B1B" stroke-width="3" stroke-miterlimit="10"/>
<path d="M339.5 370L321.5 374.06" stroke="#1B1B1B" stroke-width="3" stroke-miterlimit="10"/>
<path d="M180.46 72.37C179.61 54.9 165.18 41 147.5 41C132.03 41 119.06 51.64 115.48 66.01C74.97 70.6 44.5 90.34 44.5 114H222.5C222.5 96.43 205.7 81.02 180.46 72.37Z" fill="#C7E8EF" stroke="#1B1B1B" stroke-width="3" stroke-miterlimit="10"/>
</g>
<defs>
<clipPath id="clip0_2358_13355">
<rect width="519" height="440" fill="white"/>
</clipPath>
</defs>
</svg>
