<svg width="519" height="440" viewBox="0 0 519 440" fill="none" xmlns="http://www.w3.org/2000/svg">
<g clip-path="url(#clip0_3204_238)">
<path d="M493.96 157.5C493.96 126.85 464.08 102 427.23 102C402.54 102 380.99 113.16 369.45 129.75C366.39 129.27 363.23 129 360 129C332.11 129 309.5 147.8 309.5 171C309.5 172.01 309.56 173.01 309.64 174H490.96C492.91 168.79 493.96 163.25 493.96 157.5Z" fill="#C7E8EF"/>
<path fill-rule="evenodd" clip-rule="evenodd" d="M368.759 128.13C380.733 111.516 402.485 100.5 427.23 100.5C464.638 100.5 495.46 125.775 495.46 157.5C495.46 163.435 494.376 169.153 492.365 174.526L492 175.5H308.256L308.145 174.121C308.063 173.112 308 172.067 308 171C308 146.725 331.552 127.5 360 127.5C362.989 127.5 365.916 127.725 368.759 128.13ZM427.23 103.5C402.972 103.5 381.909 114.466 370.681 130.607L370.145 131.377L369.217 131.232C366.228 130.763 363.146 130.5 360 130.5C332.668 130.5 311 148.875 311 171C311 171.499 311.015 171.998 311.041 172.5H489.907C491.57 167.739 492.46 162.708 492.46 157.5C492.46 127.925 463.522 103.5 427.23 103.5Z" fill="#1B1B1B"/>
<path d="M500.24 317H18.76C8.39914 317 0 325.399 0 335.76V421.24C0 431.601 8.39914 440 18.76 440H500.24C510.601 440 519 431.601 519 421.24V335.76C519 325.399 510.601 317 500.24 317Z" fill="#F8FAFF"/>
<path fill-rule="evenodd" clip-rule="evenodd" d="M519 364.042L486.41 358.7L481.99 351.19L439.05 349.13V355H425.81V359.15L394.52 361.35V355L353.5 361.5L335.39 405.05L519 414.946V364.042Z" fill="#82C6D1"/>
<path fill-rule="evenodd" clip-rule="evenodd" d="M484.538 361.433L480.227 354.109L442.05 352.277V358H428.81V361.947L391.52 364.568V358.513L355.626 364.201L339.79 402.283L516 411.78V366.591L484.538 361.433ZM519 364.042V414.946L335.39 405.05L353.5 361.5L394.52 355V361.35L425.81 359.15V355H439.05V349.13L481.99 351.19L486.41 358.7L519 364.042Z" fill="#1B1B1B"/>
<path fill-rule="evenodd" clip-rule="evenodd" d="M519 375.242L504.97 372.83L480.5 382.5L477.19 378.39L451.5 383.01V374.5L403.92 372.83L401.5 384.5L378.46 378.39L382.59 372.83L346.92 359.24L336.41 364.37L315.76 359.24V366.03L293.61 364.37L296.99 360.5L259.61 345.46L231.5 360.5L198.63 348.79L192.25 355.5L188.87 348.79H146.5V355.5L100.28 347.29V352.5L76.62 347.29L75.12 342.09H28.5V349.5L1.52588e-05 351.811V421.24C1.52588e-05 431.601 8.39915 440 18.76 440H500.24C510.601 440 519 431.601 519 421.24V375.242Z" fill="#B5E4EA"/>
<path fill-rule="evenodd" clip-rule="evenodd" d="M76.62 347.29L75.12 342.09H28.5V349.5L1.52588e-05 351.811V421.24C1.52588e-05 431.601 8.39915 440 18.76 440H500.24C510.601 440 519 431.601 519 421.24V375.242L504.97 372.83L480.5 382.5L477.19 378.39L451.5 383.01V374.5L403.92 372.83L401.5 384.5L378.46 378.39L382.59 372.83L346.92 359.24L336.41 364.37L315.76 359.24V366.03L293.61 364.37L296.99 360.5L259.61 345.46L231.5 360.5L198.63 348.79L192.25 355.5L188.87 348.79H146.5V355.5L100.28 347.29V352.5L76.62 347.29ZM103.28 350.87V356.233L74.2321 349.836L72.8631 345.09H31.5V352.267L3.00002 354.578V421.24C3.00002 429.944 10.056 437 18.76 437H500.24C508.944 437 516 429.944 516 421.24V377.77L505.291 375.929L479.549 386.102L475.97 381.658L448.5 386.598V377.397L406.344 375.917L403.794 388.212L373.412 380.155L377.819 374.223L347.067 362.507L336.745 367.545L318.76 363.077V369.263L287.405 366.914L291.953 361.707L259.79 348.766L231.744 363.772L199.46 352.271L191.488 360.655L187.022 351.79H149.5V359.08L103.28 350.87Z" fill="#1B1B1B"/>
<path d="M500.35 320.12C509.04 320.12 516.11 327.19 516.11 335.88V421.36C516.11 430.05 509.04 437.12 500.35 437.12H18.76C10.07 437.12 3 430.05 3 421.36V335.88C3 327.19 10.07 320.12 18.76 320.12H500.35ZM500.35 317.12H18.76C8.4 317.12 0 325.52 0 335.88V421.36C0 431.72 8.4 440.12 18.76 440.12H500.35C510.71 440.12 519.11 431.72 519.11 421.36V335.88C519.11 325.52 510.71 317.12 500.35 317.12Z" fill="#1B1B1B"/>
<path d="M182.27 202.43C182.27 202.43 198.06 210.32 196.48 254.5H236.02C236.02 254.5 237.79 216.61 222.65 206.37L182.27 202.43Z" fill="#FFC587"/>
<path fill-rule="evenodd" clip-rule="evenodd" d="M181.603 203.76L182.416 200.937L222.796 204.877L223.49 205.127C227.632 207.928 230.506 212.535 232.522 217.661C234.546 222.807 235.765 228.633 236.499 234.074C237.234 239.524 237.488 244.641 237.56 248.391C237.595 250.268 237.585 251.807 237.566 252.879C237.557 253.415 237.545 253.834 237.535 254.122C237.531 254.265 237.526 254.376 237.523 254.451L237.52 254.538L237.519 254.561L237.518 254.569C237.518 254.569 237.518 254.57 236.02 254.5L237.518 254.57L236.02 256H196.48L194.981 254.446C195.765 232.53 192.233 219.779 188.626 212.569C186.823 208.965 184.996 206.734 183.661 205.423C182.993 204.767 182.445 204.338 182.081 204.081C181.899 203.953 181.763 203.868 181.68 203.818C181.639 203.794 181.61 203.778 181.597 203.771C181.59 203.767 181.587 203.765 181.587 203.765L181.59 203.767L181.594 203.769L181.597 203.771C181.597 203.771 181.597 203.771 181.603 203.76ZM186.802 204.379C188.18 205.935 189.767 208.145 191.309 211.226C195.11 218.823 198.607 231.669 198.028 253H234.563C234.565 252.943 234.566 252.885 234.567 252.825C234.585 251.785 234.595 250.284 234.56 248.448C234.49 244.774 234.241 239.778 233.526 234.475C232.81 229.164 231.633 223.598 229.73 218.759C227.877 214.047 225.392 210.17 222.115 207.825L186.802 204.379Z" fill="#1B1B1B"/>
<path d="M201.2 254.51C210.788 254.51 218.56 246.737 218.56 237.15C218.56 227.562 210.788 219.79 201.2 219.79C191.612 219.79 183.84 227.562 183.84 237.15C183.84 246.737 191.612 254.51 201.2 254.51Z" fill="white"/>
<path fill-rule="evenodd" clip-rule="evenodd" d="M201.2 221.29C192.441 221.29 185.34 228.391 185.34 237.15C185.34 245.909 192.441 253.01 201.2 253.01C209.959 253.01 217.06 245.909 217.06 237.15C217.06 228.391 209.959 221.29 201.2 221.29ZM182.34 237.15C182.34 226.734 190.784 218.29 201.2 218.29C211.616 218.29 220.06 226.734 220.06 237.15C220.06 247.566 211.616 256.01 201.2 256.01C190.784 256.01 182.34 247.566 182.34 237.15Z" fill="#1B1B1B"/>
<path d="M237.5 243.46C250.573 243.46 261.17 232.862 261.17 219.79C261.17 206.717 250.573 196.12 237.5 196.12C224.427 196.12 213.83 206.717 213.83 219.79C213.83 232.862 224.427 243.46 237.5 243.46Z" fill="white"/>
<path fill-rule="evenodd" clip-rule="evenodd" d="M237.5 197.62C225.256 197.62 215.33 207.546 215.33 219.79C215.33 232.034 225.256 241.96 237.5 241.96C249.744 241.96 259.67 232.034 259.67 219.79C259.67 207.546 249.744 197.62 237.5 197.62ZM212.33 219.79C212.33 205.889 223.599 194.62 237.5 194.62C251.401 194.62 262.67 205.889 262.67 219.79C262.67 233.691 251.401 244.96 237.5 244.96C223.599 244.96 212.33 233.691 212.33 219.79Z" fill="#1B1B1B"/>
<path d="M206.92 250.94C206.92 250.94 211.43 236.03 239.84 236.03C257.52 236.03 268.26 245.42 268.26 276.28V292.38L206.92 285.67V275.88C199.25 277.39 192.12 271.52 192.12 263.71V245.43" fill="white"/>
<path fill-rule="evenodd" clip-rule="evenodd" d="M208.355 251.376C208.355 251.375 208.356 251.374 206.92 250.94C205.484 250.506 205.485 250.504 205.485 250.503L205.486 250.5L205.488 250.493L205.494 250.475C205.498 250.461 205.504 250.444 205.511 250.423C205.525 250.381 205.544 250.325 205.569 250.257C205.619 250.12 205.693 249.93 205.796 249.697C206.001 249.229 206.32 248.584 206.794 247.82C207.742 246.29 209.305 244.293 211.792 242.312C216.783 238.335 225.362 234.53 239.84 234.53C248.948 234.53 256.578 236.96 261.858 243.653C267.067 250.256 269.76 260.735 269.76 276.28V292.38L268.097 293.871L206.757 287.161L205.42 285.67V277.587C197.535 278.115 190.62 271.853 190.62 263.71V245.43H193.62V263.71C193.62 270.576 199.888 275.735 206.63 274.408L208.42 275.88V284.325L266.76 290.707V276.28C266.76 260.964 264.083 251.318 259.502 245.511C254.992 239.794 248.412 237.53 239.84 237.53C225.908 237.53 218.027 241.18 213.661 244.658C211.469 246.404 210.129 248.134 209.343 249.401C208.95 250.035 208.696 250.554 208.543 250.902C208.467 251.076 208.416 251.207 208.386 251.288C208.371 251.328 208.362 251.357 208.357 251.371L208.354 251.381L208.354 251.378L208.355 251.376Z" fill="#1B1B1B"/>
<path d="M150.71 241.88C163.783 241.88 174.38 231.283 174.38 218.21C174.38 205.137 163.783 194.54 150.71 194.54C137.637 194.54 127.04 205.137 127.04 218.21C127.04 231.283 137.637 241.88 150.71 241.88Z" fill="white"/>
<path fill-rule="evenodd" clip-rule="evenodd" d="M150.71 196.04C138.466 196.04 128.54 205.966 128.54 218.21C128.54 230.454 138.466 240.38 150.71 240.38C162.954 240.38 172.88 230.454 172.88 218.21C172.88 205.966 162.954 196.04 150.71 196.04ZM125.54 218.21C125.54 204.309 136.809 193.04 150.71 193.04C164.611 193.04 175.88 204.309 175.88 218.21C175.88 232.111 164.611 243.38 150.71 243.38C136.809 243.38 125.54 232.111 125.54 218.21Z" fill="#1B1B1B"/>
<path d="M97.06 241.88C106.648 241.88 114.42 234.108 114.42 224.52C114.42 214.932 106.648 207.16 97.06 207.16C87.4723 207.16 79.7 214.932 79.7 224.52C79.7 234.108 87.4723 241.88 97.06 241.88Z" fill="white"/>
<path fill-rule="evenodd" clip-rule="evenodd" d="M97.06 208.66C88.3007 208.66 81.2 215.761 81.2 224.52C81.2 233.279 88.3007 240.38 97.06 240.38C105.819 240.38 112.92 233.279 112.92 224.52C112.92 215.761 105.819 208.66 97.06 208.66ZM78.2 224.52C78.2 214.104 86.6439 205.66 97.06 205.66C107.476 205.66 115.92 214.104 115.92 224.52C115.92 234.936 107.476 243.38 97.06 243.38C86.6439 243.38 78.2 234.936 78.2 224.52Z" fill="#1B1B1B"/>
<path d="M133.35 222.94L52.09 226.1V213.48L133.35 216.63V222.94Z" fill="#FFDA00"/>
<path fill-rule="evenodd" clip-rule="evenodd" d="M50.59 211.921L134.85 215.187V224.383L50.59 227.659V211.921ZM53.59 215.039V224.54L131.85 221.497V218.073L53.59 215.039Z" fill="#1B1B1B"/>
<path d="M193.31 289.22L179.36 249.89C175.79 238.67 163.55 232.73 152.53 236.86L134.93 243.46L127.43 237.12C128.19 235.17 128.62 233.06 128.62 230.84C128.62 221.25 120.85 213.48 111.26 213.48C101.67 213.48 93.9 221.25 93.9 230.84C93.9 240.43 101.45 247.95 110.84 248.18L116.88 256.93C119.89 261.29 124.22 264.56 129.24 266.25L141.24 270.29V284.49L193.31 289.22Z" fill="white"/>
<path fill-rule="evenodd" clip-rule="evenodd" d="M92.4 230.84C92.4 220.422 100.842 211.98 111.26 211.98C121.678 211.98 130.12 220.422 130.12 230.84C130.12 232.873 129.788 234.82 129.192 236.646L135.227 241.747L152.003 235.455C163.819 231.027 176.942 237.389 180.782 249.411L194.724 288.719L193.31 289.22L193.174 290.714L139.74 285.86V271.368L128.761 267.672C123.433 265.878 118.839 262.407 115.646 257.782L110.029 249.645C100.2 249.012 92.4 240.992 92.4 230.84ZM191.113 287.514L177.938 250.368L177.931 250.345C174.621 239.943 163.273 234.436 153.056 238.265L134.633 245.173L125.643 237.574L126.032 236.575C126.728 234.789 127.12 232.864 127.12 230.84C127.12 222.078 120.022 214.98 111.26 214.98C102.498 214.98 95.4 222.078 95.4 230.84C95.4 239.603 102.287 246.47 110.877 246.68L111.64 246.699L118.114 256.078C120.941 260.172 125.007 263.242 129.719 264.828L142.74 269.212V283.12L191.113 287.514Z" fill="#1B1B1B"/>
<path fill-rule="evenodd" clip-rule="evenodd" d="M142.11 222.07V215.16H145.11V222.07H142.11Z" fill="#1B1B1B"/>
<path d="M281.438 77.2434L273.582 76.5132L253.722 290.192L261.578 290.922L281.438 77.2434Z" fill="white"/>
<path fill-rule="evenodd" clip-rule="evenodd" d="M272.227 74.8809L283.07 75.8887L262.933 292.555L252.089 291.547L272.227 74.8809ZM274.936 78.1456L255.354 288.838L260.223 289.29L279.805 78.5982L274.936 78.1456Z" fill="#1B1B1B"/>
<path d="M392.92 288.84L263.3 276.8L281.83 77.27L392.92 288.84Z" fill="white"/>
<path fill-rule="evenodd" clip-rule="evenodd" d="M280.336 77.1313L283.158 76.5726L394.248 288.143L392.781 290.334L263.161 278.294L261.806 276.661L280.336 77.1313ZM282.855 82.4495L264.932 275.445L390.307 287.091L282.855 82.4495Z" fill="#1B1B1B"/>
<path d="M375.65 384L410.07 304.7L105.26 276.39L125.95 356.24L173.77 365.01V357.65L219.08 360.06V371.25L233.91 365.01L237.21 372.46L265.22 352.7L292.57 368.63L299.15 372.46L289.94 378.06L306.5 381.06L317.95 383.13V372.46L337.5 379.92L349.87 372.46L375.65 384Z" fill="white"/>
<path fill-rule="evenodd" clip-rule="evenodd" d="M103.808 276.766L105.399 274.896L410.209 303.206L411.446 305.297L377.026 384.597L375.037 385.369L349.973 374.15L338.275 381.205L336.965 381.322L319.45 374.638V383.13L317.683 384.606L306.233 382.536L289.673 379.536L289.161 376.778L296.217 372.488L265.297 354.481L238.075 373.686L235.839 373.068L233.135 366.964L219.662 372.633L217.58 371.25V361.482L175.27 359.232V365.01L173.499 366.485L125.679 357.715L124.498 356.616L103.808 276.766ZM107.248 278.081L127.162 354.937L172.27 363.21V357.65L173.85 356.152L219.16 358.562L220.58 360.06V368.992L233.328 363.627L235.281 364.403L237.84 370.18L264.355 351.474L265.975 351.404L299.905 371.164L299.929 373.742L294.096 377.289L306.767 379.584L316.45 381.335V372.46L318.485 371.059L337.352 378.258L349.095 371.176L350.483 371.091L374.878 382.011L407.87 306.002L107.248 278.081Z" fill="#1B1B1B"/>
<path d="M287.91 289.22C286.14 276.11 276.15 265.55 262.74 265.55H245.38C231.97 265.55 219.29 276.02 220.21 289.22C220.86 298.46 227.64 325.52 227.64 325.52C226.88 327.48 226.44 329.6 226.44 331.82C226.44 341.41 234.21 349.18 243.8 349.18C253.39 349.18 261.16 341.41 261.16 331.82C261.16 325.49 257.76 319.96 252.69 316.93L247.28 290.79H261.48L268.66 325.51C267.9 327.47 267.46 329.59 267.46 331.81C267.46 341.4 275.23 349.17 284.82 349.17C294.41 349.17 302.18 341.4 302.18 331.81C302.18 325.48 298.78 319.95 293.71 316.92C293.71 316.92 288.84 296.22 287.9 289.2L287.91 289.22Z" fill="white"/>
<path fill-rule="evenodd" clip-rule="evenodd" d="M218.714 289.324C217.716 275.015 231.363 264.05 245.38 264.05H262.74C277.039 264.05 287.546 275.311 289.396 289.019L289.504 289.813C290.058 293.442 291.382 299.746 292.622 305.369C293.289 308.39 293.926 311.192 294.396 313.24C294.632 314.263 294.825 315.098 294.96 315.676C294.985 315.785 295.008 315.884 295.029 315.974C300.227 319.326 303.68 325.16 303.68 331.81C303.68 342.228 295.238 350.67 284.82 350.67C274.402 350.67 265.96 342.228 265.96 331.81C265.96 329.549 266.379 327.391 267.103 325.389L260.258 292.29H249.122L254.029 315.996C259.215 319.351 262.66 325.178 262.66 331.82C262.66 342.238 254.218 350.68 243.8 350.68C233.382 350.68 224.94 342.238 224.94 331.82C224.94 329.571 225.354 327.423 226.072 325.431C226.025 325.241 225.964 324.995 225.891 324.698C225.704 323.938 225.436 322.842 225.112 321.499C224.465 318.812 223.595 315.133 222.705 311.163C220.936 303.274 219.048 294.08 218.714 289.324ZM227.64 325.52L229.095 325.155L229.211 325.618L229.039 326.062C228.34 327.863 227.94 329.8 227.94 331.82C227.94 340.581 235.038 347.68 243.8 347.68C252.562 347.68 259.66 340.581 259.66 331.82C259.66 326.042 256.558 320.989 251.92 318.217L251.355 317.879L245.438 289.29H262.702L270.219 325.639L270.059 326.052C269.36 327.854 268.96 329.79 268.96 331.81C268.96 340.571 276.058 347.67 284.82 347.67C293.582 347.67 300.68 340.571 300.68 331.81C300.68 326.032 297.578 320.979 292.94 318.207L292.395 317.882L292.25 317.263L293.71 316.92C292.25 317.263 292.25 317.264 292.25 317.263L292.25 317.262L292.195 317.028C292.159 316.874 292.106 316.647 292.038 316.357C291.903 315.776 291.708 314.938 291.472 313.912C291.001 311.859 290.361 309.047 289.693 306.015C288.361 299.98 286.893 292.984 286.413 289.399L286.333 288.803C284.42 276.586 275.054 267.05 262.74 267.05H245.38C232.577 267.05 220.864 277.024 221.706 289.115M227.64 325.52C229.095 325.155 229.095 325.155 229.095 325.155L229.019 324.852C228.97 324.652 228.897 324.358 228.804 323.98C228.618 323.225 228.351 322.134 228.029 320.796C227.384 318.12 226.518 314.457 225.632 310.507C223.849 302.556 222.022 293.599 221.706 289.115" fill="#1B1B1B"/>
<path d="M258.01 284.48C271.083 284.48 281.68 273.882 281.68 260.81C281.68 247.737 271.083 237.14 258.01 237.14C244.937 237.14 234.34 247.737 234.34 260.81C234.34 273.882 244.937 284.48 258.01 284.48Z" fill="white"/>
<path fill-rule="evenodd" clip-rule="evenodd" d="M258.01 238.64C245.766 238.64 235.84 248.566 235.84 260.81C235.84 273.054 245.766 282.98 258.01 282.98C270.254 282.98 280.18 273.054 280.18 260.81C280.18 248.566 270.254 238.64 258.01 238.64ZM232.84 260.81C232.84 246.909 244.109 235.64 258.01 235.64C271.911 235.64 283.18 246.909 283.18 260.81C283.18 274.711 271.911 285.98 258.01 285.98C244.109 285.98 232.84 274.711 232.84 260.81Z" fill="#1B1B1B"/>
<path fill-rule="evenodd" clip-rule="evenodd" d="M252.5 277.63V271.16H255.5V277.63H252.5Z" fill="#1B1B1B"/>
<path fill-rule="evenodd" clip-rule="evenodd" d="M263.54 277.63V271.16H266.54V277.63H263.54Z" fill="#1B1B1B"/>
<path d="M403.5 248L434.5 246C410.5 257 411.5 289 411.5 289L396.48 260.2C396.48 260.2 394.45 260.54 390.87 260.87C389.6 253.74 385.48 247.51 379.64 243.5C384.54 240.87 388.41 236.56 390.46 231.34C399.24 240.23 403.5 248 403.5 248Z" fill="#8FDFF3"/>
<path d="M356.28 209.69C354.41 209.06 352.48 208.5 350.5 208C350.32 207.96 350.14 207.91 349.97 207.87C354.3 202.44 360.98 198.96 368.47 198.96C381.54 198.96 392.13 209.56 392.13 222.63C392.13 225.7 391.54 228.64 390.46 231.34C382.68 223.45 371.34 214.68 356.28 209.69Z" fill="white"/>
<path d="M356.28 209.69C371.34 214.68 382.68 223.45 390.46 231.34C388.41 236.56 384.54 240.87 379.64 243.5C379.17 243.18 378.7 242.87 378.21 242.58L378.91 235.06L372.69 234.48C369.98 228.42 363.9 224.21 356.84 224.21C352.52 224.21 348.56 225.79 345.52 228.41C345.05 226.56 344.8 224.62 344.8 222.63C344.8 217.05 346.73 211.92 349.97 207.87C350.14 207.91 350.32 207.96 350.5 208C352.48 208.5 354.41 209.06 356.28 209.69Z" fill="#8FDFF3"/>
<path d="M390.87 260.87C385.51 261.34 376.7 261.76 366.07 260.9L365.11 256.83C369.35 254.53 372.52 250.51 373.7 245.71C375.8 245.25 377.79 244.49 379.64 243.5C385.48 247.51 389.6 253.74 390.87 260.87Z" fill="#8FDFF3"/>
<path d="M378.21 242.58C378.7 242.87 379.17 243.18 379.64 243.5C377.79 244.49 375.8 245.25 373.7 245.71C374.03 244.38 374.2 243 374.2 241.57C374.2 239.05 373.66 236.65 372.69 234.48L378.91 235.06L378.21 242.58Z" fill="#8FDFF3"/>
<path d="M366.65 263.35L374.82 276.39C370.13 284.07 360.34 284.48 360.34 284.48C342.58 282.14 343.74 270.3 346.21 257.89C353.22 259.48 359.94 260.4 366.07 260.9L366.65 263.35Z" fill="white"/>
<path d="M374.2 241.57C374.2 243 374.03 244.38 373.7 245.71C372.02 246.1 370.27 246.3 368.47 246.3C362.84 246.3 357.68 244.34 353.62 241.06C354.48 240.67 355.36 240.33 356.26 240.04L356.91 233.02L372.69 234.48C373.66 236.65 374.2 239.05 374.2 241.57Z" fill="white"/>
<path d="M372.69 234.48L356.91 233.02L356.26 240.04C355.36 240.33 354.48 240.67 353.62 241.06C349.68 237.89 346.78 233.47 345.52 228.41C348.56 225.79 352.52 224.21 356.84 224.21C363.9 224.21 369.98 228.42 372.69 234.48Z" fill="white"/>
<path d="M373.7 245.71C372.52 250.51 369.35 254.53 365.11 256.83L366.07 260.9C359.94 260.4 353.22 259.48 346.21 257.89C346.36 257.13 346.51 256.37 346.67 255.61C344.86 254.3 343.31 252.64 342.12 250.74C344.94 246.49 348.95 243.12 353.62 241.06C357.68 244.34 362.84 246.3 368.47 246.3C370.27 246.3 372.02 246.1 373.7 245.71Z" fill="white"/>
<path d="M366.07 260.9C376.7 261.76 385.51 261.34 390.87 260.87C391.29 263.19 391.4 265.6 391.17 268.06L388.81 302.59L335.39 297.63L336.53 278.03L336.71 277.1C339.63 276.51 341.58 275.77 341.58 275.77L338.3 268.87L340.7 256.5C341.07 256.61 341.43 256.71 341.8 256.81C343.28 257.2 344.75 257.56 346.21 257.89C343.74 270.3 342.58 282.14 360.34 284.48C360.34 284.48 370.13 284.07 374.82 276.39L366.65 263.35L366.07 260.9Z" fill="white"/>
<path d="M345.52 228.41C346.78 233.47 349.68 237.89 353.62 241.06C348.95 243.12 344.94 246.49 342.12 250.74C341.03 249.01 340.24 247.07 339.83 244.99C340.95 242.7 341.58 240.13 341.58 237.41C341.58 236.23 341.46 235.08 341.24 233.97C342.28 231.83 343.74 229.95 345.52 228.41Z" fill="white"/>
<path d="M345.52 228.41C343.74 229.95 342.28 231.83 341.24 233.97C339.64 226.04 332.63 220.05 324.22 220.05C315.81 220.05 309.31 225.62 307.4 233.13C301.79 226.98 297.26 220.87 294.15 216.35C291.67 212.74 293.59 207.76 297.85 206.75C309.7 203.94 325.33 201.79 349.97 207.87C346.73 211.92 344.8 217.05 344.8 222.63C344.8 224.62 345.05 226.56 345.52 228.41Z" fill="#8FDFF3"/>
<path d="M342.12 250.74C343.31 252.64 344.86 254.3 346.67 255.61C346.51 256.37 346.36 257.13 346.21 257.89C344.75 257.56 343.28 257.2 341.8 256.81C341.43 256.71 341.07 256.61 340.7 256.5L341.68 251.41C341.82 251.18 341.97 250.96 342.12 250.74Z" fill="#8FDFF3"/>
<path d="M341.68 251.41L340.7 256.5C337.81 255.66 334.97 254.5 332.22 253.11L332.17 252.83C335.5 251.11 338.2 248.35 339.83 244.99C340.24 247.07 341.03 249.01 342.12 250.74C341.97 250.96 341.82 251.18 341.68 251.41Z" fill="#8FDFF3"/>
<path d="M338.3 268.87L341.58 275.77C341.58 275.77 339.63 276.51 336.71 277.1L338.3 268.87Z" fill="white"/>
<path d="M341.24 233.97C341.46 235.08 341.58 236.23 341.58 237.41C341.58 240.13 340.95 242.7 339.83 244.99C339.61 243.89 339.49 242.74 339.49 241.57C339.49 238.85 340.12 236.27 341.24 233.97Z" fill="white"/>
<path d="M340.7 256.5L338.3 268.87L333.17 258.08L332.22 253.11C334.97 254.5 337.81 255.66 340.7 256.5Z" fill="white"/>
<path d="M339.49 241.57C339.49 242.74 339.61 243.89 339.83 244.99C338.2 248.35 335.5 251.11 332.17 252.83L332.22 253.11C322.78 248.31 314.28 240.69 307.4 233.13C309.31 225.62 316.12 220.05 324.22 220.05C332.32 220.05 339.64 226.04 341.24 233.97C340.12 236.27 339.49 238.85 339.49 241.57Z" fill="white"/>
<path d="M338.3 268.87L336.71 277.1C327.23 279.02 307.53 279.46 310.88 248.51C308.38 245.5 306.87 241.63 306.87 237.41C306.87 235.93 307.05 234.5 307.4 233.13C314.28 240.69 322.78 248.31 332.22 253.11L333.17 258.08L338.3 268.87Z" fill="white"/>
<path fill-rule="evenodd" clip-rule="evenodd" d="M392.665 268.181C392.906 265.592 392.789 263.052 392.346 260.603L389.394 261.137C389.79 263.323 389.894 265.596 389.677 267.92L389.675 267.939L387.418 300.954L336.972 296.27L338.027 278.117L335.033 277.943L333.808 298.99L390.202 304.226L392.665 268.181Z" fill="#1B1B1B"/>
<path fill-rule="evenodd" clip-rule="evenodd" d="M368.47 200.46C361.455 200.46 355.2 203.717 351.143 208.805L348.797 206.935C353.4 201.163 360.505 197.46 368.47 197.46C382.369 197.46 393.63 208.732 393.63 222.63C393.63 225.894 393.003 229.022 391.853 231.897L389.067 230.783C390.077 228.257 390.63 225.506 390.63 222.63C390.63 210.388 380.711 200.46 368.47 200.46Z" fill="#1B1B1B"/>
<path fill-rule="evenodd" clip-rule="evenodd" d="M350.322 206.412C350.461 206.445 350.534 206.464 350.596 206.48C350.662 206.497 350.716 206.511 350.825 206.536L350.867 206.546C352.879 207.054 354.846 207.624 356.756 208.267C372.098 213.352 383.632 222.279 391.527 230.286C395.984 234.799 399.296 239.029 401.497 242.137C402.597 243.691 403.421 244.966 403.973 245.858C404.108 246.076 404.227 246.272 404.33 246.443L434.403 244.503L435.125 247.363C423.679 252.61 418.127 262.886 415.439 272.047C414.099 276.617 413.488 280.859 413.213 283.96C413.076 285.509 413.022 286.769 413.004 287.636C412.994 288.07 412.993 288.405 412.995 288.629C412.995 288.74 412.997 288.825 412.998 288.879L412.999 288.939L412.999 288.952L412.999 288.953L412.999 288.954C412.999 288.954 412.999 288.954 412.997 288.954L410.17 289.693L395.644 261.84C395.512 261.858 395.369 261.878 395.214 261.898C394.241 262.027 392.819 262.197 391.008 262.364L391.001 262.364C385.578 262.84 376.682 263.263 365.949 262.395L366.191 259.405C376.716 260.256 385.438 259.84 390.736 259.376C392.503 259.213 393.885 259.048 394.821 258.924C395.289 258.862 395.646 258.811 395.884 258.775C396.003 258.757 396.092 258.743 396.15 258.734L396.215 258.723L396.229 258.721L396.232 258.72L396.232 258.72C396.232 258.72 396.232 258.72 396.232 258.721L397.81 259.506L410.254 283.368C410.555 280.157 411.198 275.848 412.561 271.203C414.908 263.202 419.438 254.062 428.167 247.912L403.597 249.497L402.185 248.721C402.185 248.721 402.185 248.721 402.185 248.721L402.185 248.721L402.184 248.719L402.177 248.706L402.144 248.648C402.113 248.594 402.067 248.512 402.003 248.403C401.876 248.184 401.682 247.858 401.422 247.436C400.9 246.593 400.11 245.37 399.048 243.87C396.924 240.871 393.716 236.771 389.393 232.394L389.392 232.393C381.728 224.621 370.583 216.009 355.808 211.114L355.801 211.111C353.978 210.497 352.091 209.949 350.151 209.459C350.041 209.434 349.85 209.386 349.73 209.356C349.678 209.343 349.639 209.333 349.626 209.33L349.611 209.326C325.24 203.313 309.855 205.445 298.196 208.209L298.196 208.209C294.962 208.976 293.503 212.759 295.386 215.501C298.471 219.983 302.958 226.035 308.508 232.119L306.292 234.141C300.622 227.926 296.05 221.758 292.914 217.2L292.914 217.199C289.837 212.721 292.218 206.544 297.504 205.29C309.544 202.435 325.417 200.268 350.322 206.412Z" fill="#1B1B1B"/>
<path fill-rule="evenodd" clip-rule="evenodd" d="M340.277 257.939C337.287 257.07 334.362 255.873 331.543 254.449L332.897 251.771C335.577 253.126 338.33 254.249 341.119 255.06L341.127 255.062L341.127 255.062C341.479 255.167 341.825 255.263 342.187 255.361C343.649 255.746 345.1 256.101 346.541 256.427L345.879 259.353C344.402 259.019 342.915 258.655 341.418 258.26L341.409 258.258L341.409 258.258C341.034 258.157 340.662 258.053 340.277 257.939Z" fill="#1B1B1B"/>
<path fill-rule="evenodd" clip-rule="evenodd" d="M305.946 232.76C308.017 224.619 315.09 218.55 324.22 218.55C333.36 218.55 340.972 225.059 342.71 233.673L339.77 234.267C338.308 227.021 331.9 221.55 324.22 221.55C316.53 221.55 310.603 226.621 308.854 233.5L308.853 233.501C308.535 234.747 308.37 236.053 308.37 237.41C308.37 241.266 309.748 244.8 312.034 247.552L312.371 248.671C310.727 263.86 314.779 270.768 319.773 273.855C324.951 277.057 331.75 276.574 336.412 275.63C337.818 275.346 338.989 275.026 339.804 274.778C340.212 274.655 340.529 274.55 340.742 274.476C340.848 274.44 340.928 274.411 340.98 274.393L341.036 274.372L341.047 274.368C341.047 274.368 341.048 274.368 341.58 275.77C342.112 277.172 342.112 277.173 342.112 277.173L342.108 277.174L342.101 277.177L342.079 277.185C342.061 277.192 342.035 277.201 342.002 277.213C341.935 277.237 341.84 277.271 341.718 277.313C341.473 277.397 341.121 277.514 340.676 277.649C339.786 277.919 338.522 278.264 337.007 278.57C332.189 279.546 324.398 280.243 318.195 276.407C311.891 272.509 307.792 264.329 309.324 248.968C306.851 245.776 305.37 241.763 305.37 237.41C305.37 235.808 305.565 234.253 305.946 232.76Z" fill="#1B1B1B"/>
<path fill-rule="evenodd" clip-rule="evenodd" d="M333.844 253.616C337.007 251.735 339.571 248.96 341.18 245.645L338.48 244.335C336.993 247.402 334.526 249.925 331.482 251.497L330.693 253.094L330.743 253.374L330.747 253.392L331.697 258.362L334.643 257.798L333.844 253.616Z" fill="#1B1B1B"/>
<path fill-rule="evenodd" clip-rule="evenodd" d="M344.541 227.274C347.843 224.427 352.148 222.71 356.84 222.71C364.511 222.71 371.116 227.286 374.059 233.868C375.113 236.225 375.7 238.834 375.7 241.57C375.7 243.12 375.516 244.621 375.156 246.07C373.968 250.901 370.926 255.002 366.825 257.566L368.11 263.004L365.19 263.696L363.387 256.058L364.395 255.511C368.269 253.41 371.166 249.735 372.243 245.352L372.244 245.349C372.544 244.139 372.7 242.88 372.7 241.57C372.7 239.266 372.207 237.074 371.321 235.092C368.844 229.554 363.288 225.71 356.84 225.71C352.893 225.71 349.278 227.152 346.5 229.545C344.871 230.955 343.538 232.673 342.589 234.626L342.589 234.627C341.565 236.728 340.99 239.084 340.99 241.57C340.99 242.638 341.1 243.689 341.301 244.696L341.302 244.7C341.675 246.594 342.395 248.362 343.389 249.94L343.391 249.944C344.479 251.681 345.897 253.199 347.549 254.395L348.338 254.966L348.138 255.919C347.98 256.668 347.832 257.419 347.682 258.18L347.681 258.183C346.434 264.446 345.636 270.115 347.11 274.482C347.824 276.598 349.079 278.414 351.148 279.851C353.22 281.291 356.183 282.403 360.394 282.974C360.452 282.97 360.531 282.963 360.628 282.954C360.877 282.931 361.245 282.888 361.706 282.815C362.63 282.667 363.91 282.395 365.325 281.899C368.17 280.903 371.439 279.049 373.54 275.608L376.1 277.172C373.511 281.411 369.54 283.602 366.317 284.731C364.698 285.298 363.238 285.608 362.18 285.777C361.649 285.862 361.217 285.912 360.911 285.941C360.758 285.955 360.637 285.964 360.551 285.97C360.537 285.971 360.524 285.972 360.512 285.973C360.487 285.974 360.466 285.975 360.449 285.976L360.419 285.978L360.409 285.978L360.405 285.979L360.404 285.979C360.403 285.979 360.403 285.979 360.34 284.48L360.403 285.979L360.273 285.984L360.144 285.967C355.55 285.362 352.042 284.126 349.436 282.315C346.805 280.487 345.174 278.128 344.267 275.441C342.499 270.2 343.515 263.745 344.739 257.599C344.739 257.598 344.739 257.598 344.739 257.597L344.74 257.593C344.829 257.142 344.919 256.686 345.011 256.229C343.377 254.911 341.967 253.322 340.85 251.538C339.665 249.657 338.805 247.546 338.359 245.282C338.12 244.089 337.99 242.841 337.99 241.57C337.99 238.616 338.675 235.812 339.891 233.313C341.022 230.987 342.608 228.945 344.539 227.276L344.541 227.274Z" fill="#1B1B1B"/>
<path fill-rule="evenodd" clip-rule="evenodd" d="M357.074 205.645L359.606 207.255L357.076 211.234L354.544 209.626L357.074 205.645Z" fill="#1B1B1B"/>
<path fill-rule="evenodd" clip-rule="evenodd" d="M361.544 210.625L364.074 206.645L366.606 208.255L364.076 212.235L361.544 210.625Z" fill="#1B1B1B"/>
<path d="M10.4199 259.94C10.4199 259.94 23.5999 263.49 29.5499 272.24C35.4999 280.99 42.4999 286 50.4999 288L83.9999 265.46C83.9999 265.46 71.9599 266.9 63.7299 254.95C55.4999 243 43.0799 240.35 43.0799 240.35L10.4199 259.94Z" fill="#C7E8EF"/>
<path fill-rule="evenodd" clip-rule="evenodd" d="M43.3929 238.883L43.0799 240.35C43.3929 238.883 43.3935 238.883 43.3942 238.883L43.3997 238.885L43.411 238.887L43.4471 238.895C43.4771 238.902 43.5188 238.911 43.5717 238.924C43.6775 238.95 43.8282 238.987 44.0198 239.039C44.4029 239.142 44.9497 239.301 45.6276 239.529C46.9825 239.985 48.8658 240.719 51.0124 241.839C55.3029 244.077 60.6776 247.873 64.9653 254.099C68.851 259.741 73.5997 262.187 77.3566 263.242C79.2442 263.772 80.8884 263.952 82.0517 264C82.6327 264.023 83.0911 264.014 83.3969 264C83.5497 263.993 83.6641 263.985 83.7363 263.979C83.7723 263.976 83.7978 263.973 83.8122 263.972L83.8218 263.971L83.8232 263.97C83.8231 263.97 83.823 263.971 83.8234 263.975L84.8373 266.705L51.3373 289.245L50.1361 289.455C41.7193 287.351 34.4295 282.083 28.3095 273.083C25.5502 269.026 21.0419 266.093 17.093 264.155C15.137 263.196 13.3592 262.5 12.0725 262.046C11.4299 261.819 10.9118 261.652 10.5578 261.544C10.3809 261.489 10.2451 261.45 10.1554 261.424C10.1106 261.411 10.0772 261.402 10.0561 261.396L10.0336 261.389L10.0293 261.388C10.0296 261.388 10.0298 261.388 10.4199 259.94L9.64835 258.654L42.3084 239.064L43.3929 238.883ZM13.9856 259.55C15.2318 260.019 16.7621 260.652 18.4143 261.462C22.543 263.487 27.5996 266.704 30.7903 271.397C36.4074 279.657 42.9028 284.378 50.2242 286.378L79.3981 266.748C78.5267 266.614 77.5668 266.417 76.5458 266.13C72.2252 264.918 66.8389 262.109 62.4946 255.801C58.5523 250.077 53.6019 246.573 49.625 244.499C47.6378 243.462 45.9018 242.787 44.6707 242.372C44.1024 242.181 43.6429 242.046 43.3174 241.957L13.9856 259.55Z" fill="#1B1B1B"/>
<path d="M462.32 220.1C462.32 220.1 453.06 225.54 455.53 230.59L474.06 222.82" fill="#C7E8EF"/>
<path fill-rule="evenodd" clip-rule="evenodd" d="M461.559 218.807C461.56 218.807 461.56 218.807 462.32 220.1C463.08 221.393 463.08 221.393 463.08 221.393L463.078 221.394L463.064 221.403C463.05 221.411 463.028 221.424 462.999 221.442C462.939 221.479 462.849 221.534 462.734 221.608C462.503 221.755 462.172 221.974 461.78 222.252C460.991 222.812 459.981 223.597 459.055 224.516C458.117 225.447 457.341 226.442 456.928 227.409C456.765 227.792 456.664 228.155 456.627 228.504L473.48 221.437L474.64 224.203L456.11 231.973L454.182 231.249C453.326 229.498 453.525 227.741 454.169 226.232C454.798 224.759 455.874 223.447 456.942 222.387C458.023 221.314 459.173 220.424 460.043 219.806C460.481 219.495 460.854 219.249 461.119 219.079C461.253 218.994 461.359 218.928 461.434 218.882C461.472 218.859 461.502 218.842 461.523 218.829L461.548 218.814L461.556 218.809L461.559 218.807Z" fill="#1B1B1B"/>
<path d="M461.32 220.1C461.32 220.1 471.69 217.92 486.85 233.28C486.85 233.28 491.99 219.87 509 217.25C509 217.25 484.64 213.56 461.32 220.1Z" fill="#C7E8EF"/>
<path fill-rule="evenodd" clip-rule="evenodd" d="M509.224 215.767C509.224 215.767 509.224 215.767 509 217.25L509.224 215.767L509.228 218.733C501.111 219.983 495.867 223.792 492.646 227.267C491.03 229.011 489.921 230.674 489.219 231.892C488.868 232.501 488.62 232.997 488.463 233.334C488.384 233.502 488.328 233.63 488.293 233.713C488.276 233.754 488.264 233.784 488.257 233.802L488.25 233.818L488.248 233.817L485.782 234.334C478.351 226.804 472.177 223.656 467.96 222.364C465.849 221.717 464.212 221.531 463.133 221.499C462.593 221.483 462.19 221.506 461.936 221.53C461.809 221.542 461.719 221.554 461.667 221.562C461.642 221.566 461.625 221.569 461.619 221.57C461.616 221.57 461.615 221.571 461.615 221.571L461.62 221.57L461.624 221.569L461.626 221.568C461.626 221.568 461.628 221.568 461.32 220.1L455.5 224L460.915 218.656C472.762 215.333 484.837 214.617 493.922 214.723C498.471 214.776 502.286 215.035 504.967 215.282C506.308 215.405 507.366 215.526 508.092 215.616C508.455 215.661 508.735 215.698 508.926 215.724C509.021 215.738 509.094 215.748 509.144 215.755L509.202 215.764L509.218 215.766L509.224 215.767ZM469.543 219.722C473.917 221.189 479.703 224.307 486.419 230.749C486.482 230.635 486.549 230.517 486.619 230.395C487.412 229.018 488.651 227.165 490.446 225.228C492.843 222.642 496.227 219.915 500.845 217.976C498.821 217.851 496.476 217.753 493.887 217.722C486.988 217.642 478.391 218.047 469.543 219.722Z" fill="#1B1B1B"/>
<path d="M425 275.01C425 275.01 437 280.01 438 288.01C438 288.01 449.98 289.01 454.99 288.01C460 287.01 468.88 288.45 468.88 288.45L446.94 279.78L425 275V275.01Z" fill="#C7E8EF"/>
<path d="M448.81 290.42C443.85 290.42 438.7 290 438.37 289.97L437.01 288.66C436.13 281.61 425.04 276.91 424.92 276.86L424 275.47L425.82 274L447.99 278.85L469.93 287.52L469.14 290.4C469.05 290.39 460.46 289.02 455.78 289.95C454 290.31 451.43 290.42 448.81 290.42ZM439.76 287.07C442.83 287.28 451.33 287.78 455.2 287.01C456.48 286.76 457.97 286.65 459.5 286.63L447 281.69L433.9 278.84C436.49 280.95 438.92 283.73 439.75 287.07H439.76Z" fill="#1B1B1B"/>
<path d="M328.03 334.6L329.17 322.3L331.92 322.56L330.78 334.86L328.03 334.6ZM330.16 334.8L330.38 332.4L336.46 332.97L336.24 335.37L330.16 334.81V334.8Z" fill="black"/>
<path d="M342.35 336.13C341.33 336.04 340.45 335.73 339.72 335.23C338.99 334.72 338.44 334.07 338.07 333.27C337.71 332.47 337.57 331.59 337.66 330.62L338.35 323.16L341.1 323.42L340.39 331.02C340.34 331.52 340.41 331.96 340.59 332.34C340.77 332.72 341.03 333.02 341.38 333.24C341.72 333.46 342.12 333.59 342.57 333.63C343.01 333.67 343.42 333.62 343.79 333.46C344.16 333.31 344.46 333.06 344.69 332.72C344.92 332.38 345.06 331.96 345.11 331.48L345.82 323.87L348.59 324.13L347.9 331.6C347.81 332.56 347.52 333.4 347.02 334.12C346.52 334.84 345.87 335.37 345.06 335.74C344.25 336.11 343.35 336.24 342.35 336.15V336.13Z" fill="black"/>
<path d="M355.43 337.34C354.51 337.25 353.68 337.02 352.92 336.62C352.17 336.23 351.52 335.71 350.99 335.08C350.46 334.45 350.06 333.73 349.81 332.92C349.56 332.11 349.47 331.27 349.55 330.37C349.63 329.47 349.87 328.66 350.27 327.91C350.67 327.17 351.18 326.54 351.82 326.03C352.46 325.52 353.18 325.13 353.99 324.89C354.8 324.65 355.67 324.56 356.6 324.65C357.58 324.74 358.43 324.98 359.16 325.36C359.89 325.74 360.52 326.24 361.04 326.83L359.02 328.52C358.74 328.14 358.38 327.83 357.94 327.59C357.5 327.35 356.98 327.2 356.37 327.15C355.84 327.1 355.34 327.15 354.88 327.28C354.42 327.42 354.01 327.64 353.66 327.95C353.31 328.26 353.02 328.64 352.8 329.1C352.58 329.56 352.45 330.07 352.39 330.63C352.34 331.21 352.38 331.74 352.51 332.23C352.64 332.72 352.85 333.15 353.15 333.52C353.44 333.89 353.8 334.19 354.23 334.41C354.66 334.63 355.13 334.77 355.67 334.82C356.3 334.88 356.85 334.83 357.33 334.68C357.81 334.53 358.23 334.29 358.59 333.96L360.28 336C359.65 336.5 358.93 336.87 358.14 337.11C357.35 337.35 356.44 337.42 355.43 337.32V337.34Z" fill="black"/>
<path d="M360.4 337.61L366.4 325.76L368.89 325.99L372.57 338.74L369.66 338.47L366.93 327.94L367.94 328.03L363.23 337.87L360.39 337.61H360.4ZM363.39 335.66L363.6 333.43L370.29 334.05L370.08 336.28L363.39 335.66Z" fill="black"/>
<path d="M377.33 339.38C376.31 339.29 375.45 339.04 374.75 338.65C374.06 338.26 373.44 337.7 372.91 336.97L374.85 335.36C375.2 335.85 375.61 336.24 376.07 336.54C376.53 336.83 377.08 337.01 377.72 337.07C378.29 337.12 378.74 337.06 379.08 336.87C379.42 336.69 379.61 336.41 379.64 336.04C379.67 335.71 379.59 335.44 379.41 335.21C379.23 334.98 378.97 334.78 378.63 334.59C378.3 334.41 377.93 334.23 377.54 334.06C377.15 333.89 376.75 333.69 376.36 333.47C375.96 333.25 375.61 332.98 375.29 332.68C374.97 332.38 374.73 332.01 374.56 331.58C374.39 331.14 374.33 330.62 374.39 330C374.46 329.23 374.71 328.59 375.12 328.08C375.54 327.57 376.09 327.2 376.78 326.98C377.47 326.76 378.23 326.68 379.07 326.76C379.94 326.84 380.72 327.06 381.4 327.43C382.08 327.8 382.63 328.26 383.05 328.81L381.09 330.44C380.75 330.02 380.41 329.7 380.05 329.48C379.69 329.26 379.28 329.13 378.81 329.08C378.33 329.04 377.95 329.09 377.65 329.25C377.35 329.4 377.19 329.65 377.16 329.99C377.13 330.29 377.21 330.55 377.41 330.76C377.6 330.97 377.86 331.16 378.19 331.33C378.52 331.5 378.88 331.67 379.28 331.85C379.68 332.03 380.08 332.23 380.47 332.44C380.87 332.66 381.22 332.93 381.53 333.25C381.84 333.57 382.08 333.96 382.26 334.41C382.44 334.86 382.49 335.41 382.43 336.06C382.32 337.23 381.82 338.11 380.92 338.71C380.02 339.3 378.83 339.53 377.34 339.39L377.33 339.38Z" fill="black"/>
<path fill-rule="evenodd" clip-rule="evenodd" d="M305.135 215.377L306.765 211.807L309.494 213.053L307.864 216.623L305.135 215.377Z" fill="#1B1B1B"/>
<path fill-rule="evenodd" clip-rule="evenodd" d="M242.31 367.81V349.18H245.31V367.81H242.31Z" fill="#1B1B1B"/>
<path fill-rule="evenodd" clip-rule="evenodd" d="M260.538 325.503C260.539 325.502 260.54 325.501 259.5 324.42C258.46 323.339 258.461 323.338 258.462 323.337L258.464 323.335L258.469 323.331L258.481 323.32C258.489 323.311 258.5 323.302 258.512 323.291C258.536 323.269 258.568 323.241 258.607 323.208C258.684 323.141 258.791 323.054 258.928 322.951C259.202 322.745 259.597 322.476 260.122 322.184C261.173 321.599 262.735 320.927 264.876 320.484C269.165 319.595 275.681 319.643 284.933 323.011C289.697 324.744 295.893 328.896 302.407 334C308.962 339.136 315.979 345.349 322.412 351.34C328.848 357.333 334.715 363.118 338.972 367.404C341.101 369.547 342.829 371.316 344.024 372.55C344.622 373.168 345.087 373.651 345.403 373.98C345.561 374.145 345.682 374.271 345.763 374.357L345.885 374.485L345.887 374.486C345.887 374.487 345.887 374.487 344.8 375.52C343.713 376.553 343.712 376.553 343.712 376.553L343.593 376.428C343.513 376.344 343.394 376.22 343.238 376.057C342.925 375.731 342.464 375.251 341.87 374.638C340.682 373.412 338.963 371.651 336.844 369.518C332.605 365.251 326.767 359.494 320.368 353.535C313.966 347.573 307.018 341.423 300.557 336.361C294.054 331.267 288.183 327.386 283.907 325.83C275.079 322.617 269.134 322.665 265.484 323.421C263.654 323.801 262.377 324.362 261.581 324.806C261.181 325.028 260.901 325.221 260.73 325.349C260.645 325.414 260.587 325.461 260.556 325.488C260.54 325.502 260.531 325.51 260.528 325.512C260.527 325.513 260.527 325.513 260.529 325.511L260.533 325.507L260.536 325.505L260.538 325.503Z" fill="#1B1B1B"/>
<path fill-rule="evenodd" clip-rule="evenodd" d="M262.698 323.824C262.698 323.824 262.699 323.824 263.3 322.45C263.901 321.076 263.902 321.076 263.902 321.076L263.908 321.079L263.924 321.086L263.982 321.112C264.032 321.134 264.105 321.167 264.2 321.211C264.391 321.298 264.669 321.427 265.03 321.6C265.752 321.946 266.804 322.466 268.139 323.168C270.808 324.573 274.61 326.71 279.165 329.647C288.275 335.521 300.412 344.606 312.541 357.461L312.57 357.493L328.05 374.883L325.81 376.878L310.344 359.504C298.418 346.867 286.486 337.937 277.54 332.168C273.065 329.283 269.341 327.191 266.741 325.823C265.442 325.139 264.424 324.636 263.734 324.306C263.389 324.141 263.127 324.019 262.952 323.939C262.865 323.899 262.8 323.869 262.757 323.85L262.711 323.83L262.7 323.825L262.698 323.824Z" fill="#1B1B1B"/>
<path fill-rule="evenodd" clip-rule="evenodd" d="M265.799 327.142C269.005 325.22 273.217 322.842 277.158 321.081L278.382 323.82C274.603 325.508 270.51 327.816 267.341 329.715C265.762 330.662 264.421 331.503 263.477 332.106C263.352 332.185 263.234 332.261 263.123 332.332L275.87 356.596L311.334 342.457L312.445 345.243L275.725 359.883L273.842 359.188L259.832 332.518L260.329 330.572L261.16 331.82C260.329 330.572 260.328 330.572 260.329 330.572L260.357 330.553L260.436 330.501C260.504 330.455 260.606 330.389 260.737 330.303C260.999 330.132 261.381 329.884 261.863 329.577C262.826 328.962 264.191 328.106 265.799 327.142Z" fill="#1B1B1B"/>
<path fill-rule="evenodd" clip-rule="evenodd" d="M255.551 358.838L252.541 346.218L255.459 345.522L258.469 358.142L255.551 358.838Z" fill="#1B1B1B"/>
<path fill-rule="evenodd" clip-rule="evenodd" d="M244.666 358.482C244.666 358.482 244.666 358.482 243.81 357.25C242.954 356.018 242.954 356.018 242.955 356.018L242.983 355.998L243.066 355.94C243.14 355.89 243.248 355.815 243.39 355.718C243.673 355.523 244.089 355.238 244.623 354.876C245.691 354.151 247.231 353.117 249.12 351.874C252.896 349.39 258.074 346.07 263.675 342.734C269.271 339.4 275.314 336.036 280.816 333.472C286.25 330.939 291.377 329.077 295.058 328.951L295.161 331.949C292.153 332.053 287.523 333.656 282.083 336.191C276.712 338.695 270.766 342.002 265.21 345.311C259.659 348.618 254.52 351.912 250.768 354.38C248.893 355.614 247.365 356.641 246.308 357.359C245.779 357.717 245.367 357.999 245.088 358.19C244.949 358.286 244.843 358.359 244.772 358.409L244.692 358.464L244.666 358.482Z" fill="#1B1B1B"/>
<path fill-rule="evenodd" clip-rule="evenodd" d="M292.093 367.208L326.003 355.828L326.957 358.672L293.047 370.052L292.093 367.208Z" fill="#1B1B1B"/>
<path fill-rule="evenodd" clip-rule="evenodd" d="M306.873 379.697L317.873 374.637L319.127 377.363L308.127 382.423L306.873 379.697Z" fill="#1B1B1B"/>
<path fill-rule="evenodd" clip-rule="evenodd" d="M321.17 372.597L339.17 368.537L339.83 371.463L321.83 375.523L321.17 372.597Z" fill="#1B1B1B"/>
<path d="M180.46 72.37C179.61 54.9 165.18 41 147.5 41C132.03 41 119.06 51.64 115.48 66.01C74.97 70.6 44.5 90.34 44.5 114H222.5C222.5 96.43 205.7 81.02 180.46 72.37Z" fill="#C7E8EF"/>
<path fill-rule="evenodd" clip-rule="evenodd" d="M114.292 64.6384C118.379 50.1303 131.688 39.5 147.5 39.5C165.64 39.5 180.506 53.4955 181.894 71.2803C194.244 75.6309 204.622 81.6216 211.989 88.763C219.549 96.092 224 104.703 224 114V115.5H43V114C43 101.472 51.064 90.2198 63.9659 81.6062C76.675 73.1214 94.2801 67.04 114.292 64.6384ZM180.46 72.37L178.962 72.4429C178.15 55.7681 164.376 42.5 147.5 42.5C132.736 42.5 120.353 52.6542 116.936 66.3726L116.684 67.3832L115.649 67.5005C95.5721 69.7753 78.0697 75.7973 65.6316 84.1013C53.7323 92.0455 46.6568 101.931 46.0435 112.5H220.957C220.509 104.775 216.617 97.4279 209.901 90.917C202.745 83.9803 192.446 78.0635 179.974 73.789L180.46 72.37Z" fill="#1B1B1B"/>
</g>
<defs>
<clipPath id="clip0_3204_238">
<rect width="519" height="440" fill="white"/>
</clipPath>
</defs>
</svg>
