<svg width="80" height="80" viewBox="0 0 80 80" fill="none" xmlns="http://www.w3.org/2000/svg">
<path d="M34.5338 43.215L31.393 40.0741C30.2 41.2652 28.5831 41.9342 26.8973 41.9342C25.2115 41.9342 23.5946 41.2652 22.4017 40.0741L19.2609 43.215C20.2627 44.2197 21.4529 45.0168 22.7633 45.5607C24.0737 46.1046 25.4785 46.3845 26.8973 46.3845C28.3161 46.3845 29.721 46.1046 31.0314 45.5607C32.3418 45.0168 33.532 44.2197 34.5338 43.215Z" fill="#FF6E56"/>
<path d="M22.4017 40.0067C23.5946 38.8156 25.2115 38.1466 26.8973 38.1466C28.5831 38.1466 30.2 38.8156 31.393 40.0067L34.5338 36.8659C33.532 35.8612 32.3418 35.0641 31.0314 34.5202C29.721 33.9763 28.3161 33.6963 26.8973 33.6963C25.4785 33.6963 24.0737 33.9763 22.7633 34.5202C21.4529 35.0641 20.2627 35.8612 19.2609 36.8659L22.4017 40.0067Z" fill="url(#paint0_linear_3204_235)"/>
<path d="M36.8659 34.5338L40.0067 31.393C38.8156 30.2 38.1466 28.5831 38.1466 26.8974C38.1466 25.2116 38.8156 23.5947 40.0067 22.4017L36.8659 19.2609C35.8612 20.2627 35.064 21.4529 34.5201 22.7633C33.9762 24.0737 33.6963 25.4785 33.6963 26.8974C33.6963 28.3162 33.9762 29.721 34.5201 31.0314C35.064 32.3418 35.8612 33.532 36.8659 34.5338Z" fill="#5FB04E"/>
<path d="M40.0067 22.4017C41.1978 23.5947 41.8669 25.2116 41.8669 26.8974C41.8669 28.5831 41.1978 30.2 40.0067 31.393L43.1476 34.5338C44.1523 33.532 44.9494 32.3418 45.4933 31.0314C46.0372 29.721 46.3172 28.3162 46.3172 26.8974C46.3172 25.4785 46.0372 24.0737 45.4933 22.7633C44.9494 21.4529 44.1523 20.2627 43.1476 19.2609L40.0067 22.4017Z" fill="#7AC943"/>
<path d="M45.4796 36.8659L48.6205 40.0067C49.8135 38.8156 51.4304 38.1466 53.1162 38.1466C54.802 38.1466 56.4188 38.8156 57.6117 40.0067L60.7526 36.8659C59.7508 35.8612 58.5606 35.0641 57.2502 34.5202C55.9398 33.9763 54.535 33.6963 53.1162 33.6963C51.6974 33.6963 50.2925 33.9763 48.9821 34.5202C47.6716 35.0641 46.4814 35.8612 45.4796 36.8659Z" fill="#5FB04E"/>
<path d="M57.6117 40.0067C56.4188 41.1978 54.802 41.8669 53.1162 41.8669C51.4304 41.8669 49.8135 41.1978 48.6205 40.0067L45.4796 43.215C46.4814 44.2197 47.6716 45.0168 48.9821 45.5607C50.2925 46.1046 51.6974 46.3846 53.1162 46.3846C54.535 46.3846 55.9398 46.1046 57.2502 45.5607C58.5606 45.0168 59.7508 44.2197 60.7526 43.215L57.6117 40.0067Z" fill="#7AC943"/>
<path d="M43.1476 45.4796L40.0067 48.607C41.1978 49.7999 41.8669 51.4168 41.8669 53.1026C41.8669 54.7884 41.1978 56.4053 40.0067 57.5982L43.1476 60.7391C44.1503 59.7376 44.9457 58.5482 45.4884 57.239C46.0311 55.9299 46.3105 54.5266 46.3105 53.1094C46.3105 51.6922 46.0311 50.2889 45.4884 48.9797C44.9457 47.6705 44.1503 46.4812 43.1476 45.4796Z" fill="#5FB04E"/>
<path d="M36.8659 45.4796C35.8612 46.4814 35.064 47.6716 34.5201 48.982C33.9762 50.2924 33.6963 51.6973 33.6963 53.1161C33.6963 54.5349 33.9762 55.9398 34.5201 57.2502C35.064 58.5606 35.8612 59.7508 36.8659 60.7526L40.0067 57.6117C38.8156 56.4188 38.1466 54.8019 38.1466 53.1161C38.1466 51.4303 38.8156 49.8134 40.0067 48.6205L36.8659 45.4796Z" fill="#7AC943"/>
<path d="M40.0067 48.607L43.1476 45.4796C42.7356 45.0663 42.2461 44.7384 41.7071 44.5147C41.1681 44.291 40.5903 44.1758 40.0067 44.1758C39.4231 44.1758 38.8454 44.291 38.3064 44.5147C37.7674 44.7384 37.2779 45.0663 36.8659 45.4796L40.0067 48.607Z" fill="#7AC943"/>
<path d="M31.393 40.0067L34.5338 43.215C34.9471 42.803 35.275 42.3134 35.4987 41.7745C35.7225 41.2355 35.8377 40.6577 35.8377 40.0741C35.8377 39.4905 35.7225 38.9127 35.4987 38.3737C35.275 37.8347 34.9471 37.3452 34.5338 36.9332L31.393 40.0067Z" fill="url(#paint1_linear_3204_235)"/>
<path d="M40.0067 31.3929L36.8659 34.5338C37.2779 34.9471 37.7674 35.275 38.3064 35.4988C38.8454 35.7225 39.4231 35.8377 40.0067 35.8377C40.5903 35.8377 41.1681 35.7225 41.7071 35.4988C42.2461 35.275 42.7356 34.9471 43.1476 34.5338L40.0067 31.3929Z" fill="#7AC943"/>
<path d="M48.6205 40.0067L45.4796 36.8658C45.0664 37.2778 44.7384 37.7674 44.5147 38.3063C44.291 38.8453 44.1758 39.4231 44.1758 40.0067C44.1758 40.5903 44.291 41.1681 44.5147 41.7071C44.7384 42.2461 45.0664 42.7356 45.4796 43.1476L48.6205 40.0067Z" fill="#7AC943"/>
<defs>
<linearGradient id="paint0_linear_3204_235" x1="19.2609" y1="36.8524" x2="34.5338" y2="36.8524" gradientUnits="userSpaceOnUse">
<stop stop-color="#FF931E"/>
<stop offset="0.2" stop-color="#FF8632"/>
<stop offset="1" stop-color="#FF931E"/>
</linearGradient>
<linearGradient id="paint1_linear_3204_235" x1="31.393" y1="40.0067" x2="35.8414" y2="40.0067" gradientUnits="userSpaceOnUse">
<stop stop-color="#FF931E"/>
<stop offset="0.2" stop-color="#FF8632"/>
<stop offset="1" stop-color="#FF931E"/>
</linearGradient>
</defs>
</svg>
