<svg width="80" height="80" viewBox="0 0 80 80" fill="none" xmlns="http://www.w3.org/2000/svg">
<path d="M34.5338 43.2151L31.393 40.0742C30.2 41.2653 28.5831 41.9344 26.8973 41.9344C25.2115 41.9344 23.5946 41.2653 22.4017 40.0742L19.2609 43.2151C20.2627 44.2198 21.4529 45.0169 22.7633 45.5608C24.0737 46.1047 25.4785 46.3847 26.8973 46.3847C28.3161 46.3847 29.721 46.1047 31.0314 45.5608C32.3418 45.0169 33.532 44.2198 34.5338 43.2151V43.2151Z" fill="#FF6E56"/>
<path d="M22.4017 40.0067C23.5946 38.8156 25.2115 38.1466 26.8973 38.1466C28.5831 38.1466 30.2 38.8156 31.393 40.0067L34.5338 36.8659C33.532 35.8612 32.3418 35.0641 31.0314 34.5202C29.721 33.9763 28.3161 33.6963 26.8973 33.6963C25.4785 33.6963 24.0737 33.9763 22.7633 34.5202C21.4529 35.0641 20.2627 35.8612 19.2609 36.8659L22.4017 40.0067Z" fill="url(#paint0_linear_2358_13457)"/>
<path d="M36.8659 34.5337L40.0067 31.3928C38.8156 30.1999 38.1466 28.583 38.1466 26.8972C38.1466 25.2114 38.8156 23.5946 40.0067 22.4016L36.8659 19.2607C35.8612 20.2625 35.064 21.4527 34.5201 22.7632C33.9762 24.0736 33.6963 25.4784 33.6963 26.8972C33.6963 28.316 33.9762 29.7209 34.5201 31.0313C35.064 32.3417 35.8612 33.5319 36.8659 34.5337V34.5337Z" fill="#5FB04E"/>
<path d="M40.0067 22.4016C41.1978 23.5946 41.8669 25.2114 41.8669 26.8972C41.8669 28.583 41.1978 30.1999 40.0067 31.3928L43.1476 34.5337C44.1523 33.5319 44.9494 32.3417 45.4933 31.0313C46.0372 29.7209 46.3172 28.316 46.3172 26.8972C46.3172 25.4784 46.0372 24.0736 45.4933 22.7632C44.9494 21.4527 44.1523 20.2625 43.1476 19.2607L40.0067 22.4016Z" fill="#7AC943"/>
<path d="M45.4796 36.8659L48.6205 40.0067C49.8134 38.8156 51.4304 38.1466 53.1162 38.1466C54.8019 38.1466 56.4188 38.8156 57.6117 40.0067V40.0067L60.7526 36.8659C59.7508 35.8612 58.5606 35.0641 57.2502 34.5202C55.9398 33.9763 54.535 33.6963 53.1162 33.6963C51.6974 33.6963 50.2924 33.9763 48.982 34.5202C47.6716 35.0641 46.4814 35.8612 45.4796 36.8659V36.8659Z" fill="#5FB04E"/>
<path d="M57.6117 40.0068C56.4188 41.198 54.8019 41.867 53.1162 41.867C51.4304 41.867 49.8134 41.198 48.6205 40.0068L45.4796 43.2151C46.4814 44.2198 47.6716 45.0169 48.982 45.5608C50.2924 46.1047 51.6974 46.3847 53.1162 46.3847C54.535 46.3847 55.9398 46.1047 57.2502 45.5608C58.5606 45.0169 59.7508 44.2198 60.7526 43.2151L57.6117 40.0068Z" fill="#7AC943"/>
<path d="M43.1476 45.4797L40.0067 48.6071C41.1978 49.8001 41.8669 51.417 41.8669 53.1027C41.8669 54.7885 41.1978 56.4054 40.0067 57.5984V57.5984L43.1476 60.7392C44.1503 59.7377 44.9457 58.5483 45.4884 57.2391C46.0311 55.93 46.3105 54.5267 46.3105 53.1095C46.3105 51.6923 46.0311 50.289 45.4884 48.9798C44.9457 47.6707 44.1503 46.4813 43.1476 45.4797V45.4797Z" fill="#5FB04E"/>
<path d="M36.8659 45.4797C35.8612 46.4815 35.064 47.6717 34.5201 48.9822C33.9762 50.2926 33.6963 51.6974 33.6963 53.1162C33.6963 54.535 33.9762 55.9399 34.5201 57.2503C35.064 58.5607 35.8612 59.7509 36.8659 60.7527V60.7527L40.0067 57.6118C38.8156 56.4189 38.1466 54.802 38.1466 53.1162C38.1466 51.4304 38.8156 49.8135 40.0067 48.6206L36.8659 45.4797Z" fill="#7AC943"/>
<path d="M40.0068 48.607L43.1477 45.4796C42.7357 45.0663 42.2461 44.7384 41.7072 44.5147C41.1682 44.291 40.5903 44.1758 40.0068 44.1758C39.4232 44.1758 38.8454 44.291 38.3065 44.5147C37.7675 44.7384 37.278 45.0663 36.866 45.4796L40.0068 48.607Z" fill="#7AC943"/>
<path d="M31.3929 40.0068L34.5338 43.2151C34.947 42.8031 35.2749 42.3136 35.4987 41.7746C35.7224 41.2356 35.8377 40.6578 35.8377 40.0742C35.8377 39.4906 35.7224 38.9128 35.4987 38.3738C35.2749 37.8349 34.947 37.3454 34.5338 36.9333L31.3929 40.0068Z" fill="url(#paint1_linear_2358_13457)"/>
<path d="M40.0068 31.3931L36.866 34.5339C37.278 34.9472 37.7675 35.2751 38.3065 35.4989C38.8454 35.7226 39.4232 35.8378 40.0068 35.8378C40.5903 35.8378 41.1682 35.7226 41.7072 35.4989C42.2461 35.2751 42.7357 34.9472 43.1477 34.5339L40.0068 31.3931Z" fill="#7AC943"/>
<path d="M48.6205 40.0068L45.4796 36.866C45.0663 37.278 44.7384 37.7675 44.5147 38.3065C44.2909 38.8454 44.1758 39.4233 44.1758 40.0068C44.1758 40.5904 44.2909 41.1682 44.5147 41.7072C44.7384 42.2462 45.0663 42.7357 45.4796 43.1477L48.6205 40.0068Z" fill="#7AC943"/>
<defs>
<linearGradient id="paint0_linear_2358_13457" x1="19.2609" y1="36.8524" x2="34.5338" y2="36.8524" gradientUnits="userSpaceOnUse">
<stop stop-color="#FF931E"/>
<stop offset="0.2" stop-color="#FF8632"/>
<stop offset="1" stop-color="#FF931E"/>
</linearGradient>
<linearGradient id="paint1_linear_2358_13457" x1="31.3929" y1="40.0068" x2="35.8414" y2="40.0068" gradientUnits="userSpaceOnUse">
<stop stop-color="#FF931E"/>
<stop offset="0.2" stop-color="#FF8632"/>
<stop offset="1" stop-color="#FF931E"/>
</linearGradient>
</defs>
</svg>
