<svg width="80" height="80" viewBox="0 0 80 80" fill="none" xmlns="http://www.w3.org/2000/svg">
<path d="M18.1015 35.6931C15.79 33.3627 14.493 30.2133 14.493 26.931C14.493 23.6487 15.79 20.4993 18.1015 18.1689L14.9472 14.9067C11.7821 18.0784 10.0045 22.3761 10.0045 26.8569C10.0045 31.3376 11.7821 35.6353 14.9472 38.807L16.1199 39.9663L19.2608 36.8254L18.1015 35.6931Z" fill="#FF6E56"/>
<path d="M16.1873 40.0068L15.0146 41.1661C11.8495 44.3378 10.0719 48.6355 10.0719 53.1163C10.0719 57.597 11.8495 61.8947 15.0146 65.0664L18.1689 61.912C15.8574 59.5816 14.5604 56.4323 14.5604 53.1499C14.5604 49.8676 15.8574 46.7183 18.1689 44.3879L19.3282 43.2151L16.1873 40.0068Z" fill="url(#paint0_linear_2358_13456)"/>
<path d="M40.0068 16.12L38.8475 14.9473C35.6776 11.7789 31.3792 9.99902 26.8974 9.99902C22.4155 9.99902 18.1172 11.7789 14.9473 14.9473L18.1016 18.1016C19.255 16.9437 20.6258 16.0249 22.1352 15.398C23.6446 14.771 25.263 14.4483 26.8974 14.4483C28.5318 14.4483 30.1501 14.771 31.6595 15.398C33.1689 16.0249 34.5396 16.9437 35.6931 18.1016L36.8659 19.2609L40.0068 16.12Z" fill="#7AC943"/>
<path d="M43.1476 19.2608L44.3204 18.1015C46.6473 15.7835 49.798 14.4819 53.0824 14.4819C56.3669 14.4819 59.5176 15.7835 61.8445 18.1015L65.0663 14.9067C61.8964 11.7383 57.598 9.9585 53.1162 9.9585C48.6343 9.9585 44.336 11.7383 41.1661 14.9067L40.0067 16.0795L43.1476 19.2608Z" fill="#5FB04E"/>
<path d="M63.8936 40.0068L65.0663 38.8475C68.2314 35.6759 70.009 31.3781 70.009 26.8974C70.009 22.4166 68.2314 18.1189 65.0663 14.9473L61.912 18.1016C64.244 20.4348 65.5541 23.5986 65.5541 26.8974C65.5541 30.1962 64.244 33.36 61.912 35.6932L60.7527 36.8659L63.8936 40.0068Z" fill="#7AC943"/>
<path d="M61.912 44.3205C64.2235 46.6509 65.5205 49.8002 65.5205 53.0826C65.5205 56.3649 64.2235 59.5143 61.912 61.8446L65.0663 64.999C68.2314 61.8274 70.009 57.5296 70.009 53.0489C70.009 48.5681 68.2314 44.2704 65.0663 41.0987L63.8936 39.9395L60.7527 43.2151L61.912 44.3205Z" fill="#5FB04E"/>
<path d="M35.6931 61.912C34.5396 63.07 33.1689 63.9887 31.6595 64.6157C30.1501 65.2426 28.5318 65.5653 26.8974 65.5653C25.263 65.5653 23.6446 65.2426 22.1352 64.6157C20.6258 63.9887 19.255 63.07 18.1016 61.912V61.912L14.9473 65.0664C18.1172 68.2348 22.4155 70.0146 26.8974 70.0146C31.3792 70.0146 35.6776 68.2348 38.8475 65.0664L40.0068 63.8936L36.8659 60.7393L35.6931 61.912Z" fill="#5FB04E"/>
<path d="M40.0067 63.8936L41.1661 65.0664C44.336 68.2348 48.6343 70.0146 53.1162 70.0146C57.598 70.0146 61.8964 68.2348 65.0663 65.0664V65.0664L61.9119 61.912C59.585 64.2301 56.4343 65.5316 53.1498 65.5316C49.8653 65.5316 46.7147 64.2301 44.3878 61.912L43.1476 60.7393L40.0067 63.8936Z" fill="#7AC943"/>
<defs>
<linearGradient id="paint0_linear_2358_13456" x1="9.99995" y1="52.5299" x2="19.2608" y2="52.5299" gradientUnits="userSpaceOnUse">
<stop stop-color="#FF931E"/>
<stop offset="0.2" stop-color="#FF8632"/>
<stop offset="1" stop-color="#FF931E"/>
</linearGradient>
</defs>
</svg>
