<svg width="80" height="80" viewBox="0 0 80 80" fill="none" xmlns="http://www.w3.org/2000/svg">
<path d="M18.1015 35.6931C15.79 33.3627 14.4931 30.2133 14.4931 26.931C14.4931 23.6487 15.79 20.4993 18.1015 18.1689L14.9472 14.9067C11.7821 18.0784 10.0046 22.3761 10.0046 26.8569C10.0046 31.3376 11.7821 35.6353 14.9472 38.807L16.12 39.9663L19.2609 36.8254L18.1015 35.6931Z" fill="#FF6E56"/>
<path d="M16.1874 40.0067L15.0146 41.166C11.8495 44.3376 10.072 48.6354 10.072 53.1161C10.072 57.5969 11.8495 61.8946 15.0146 65.0662L18.1689 61.9119C15.8574 59.5815 14.5605 56.4322 14.5605 53.1498C14.5605 49.8675 15.8574 46.7181 18.1689 44.3878L19.3283 43.215L16.1874 40.0067Z" fill="url(#paint0_linear_3204_236)"/>
<path d="M40.0067 16.12L38.8474 14.9473C35.6775 11.7789 31.3792 9.99902 26.8973 9.99902C22.4155 9.99902 18.1171 11.7789 14.9472 14.9473L18.1015 18.1016C19.255 16.9437 20.6258 16.0249 22.1352 15.398C23.6446 14.771 25.2629 14.4483 26.8973 14.4483C28.5317 14.4483 30.1501 14.771 31.6595 15.398C33.1689 16.0249 34.5396 16.9437 35.6931 18.1016L36.8659 19.2609L40.0067 16.12Z" fill="#7AC943"/>
<path d="M43.1476 19.2608L44.3204 18.1015C46.6473 15.7835 49.798 14.4819 53.0824 14.4819C56.3669 14.4819 59.5176 15.7835 61.8445 18.1015L65.0663 14.9067C61.8964 11.7383 57.598 9.9585 53.1162 9.9585C48.6343 9.9585 44.336 11.7383 41.1661 14.9067L40.0067 16.0795L43.1476 19.2608Z" fill="#5FB04E"/>
<path d="M63.8935 40.0067L65.0663 38.8474C68.2314 35.6757 70.009 31.378 70.009 26.8973C70.009 22.4165 68.2314 18.1188 65.0663 14.9471L61.9119 18.1015C64.244 20.4347 65.554 23.5985 65.554 26.8973C65.554 30.1961 64.244 33.3599 61.9119 35.693L60.7526 36.8658L63.8935 40.0067Z" fill="#7AC943"/>
<path d="M61.9119 44.3204C64.2234 46.6507 65.5205 49.8001 65.5205 53.0824C65.5205 56.3648 64.2234 59.5141 61.9119 61.8445L65.0663 64.9989C68.2314 61.8272 70.009 57.5295 70.009 53.0487C70.009 48.568 68.2314 44.2703 65.0663 41.0986L63.8935 39.9393L60.7526 43.215L61.9119 44.3204Z" fill="#5FB04E"/>
<path d="M35.6931 61.9119C34.5396 63.0698 33.1689 63.9886 31.6595 64.6155C30.1501 65.2425 28.5317 65.5652 26.8973 65.5652C25.2629 65.5652 23.6446 65.2425 22.1352 64.6155C20.6258 63.9886 19.255 63.0698 18.1015 61.9119L14.9472 65.0663C18.1171 68.2346 22.4155 70.0145 26.8973 70.0145C31.3792 70.0145 35.6775 68.2346 38.8474 65.0663L40.0067 63.8935L36.8659 60.7391L35.6931 61.9119Z" fill="#5FB04E"/>
<path d="M40.0067 63.8935L41.1661 65.0663C44.336 68.2346 48.6343 70.0145 53.1162 70.0145C57.598 70.0145 61.8964 68.2346 65.0663 65.0663L61.9119 61.9119C59.585 64.23 56.4343 65.5315 53.1498 65.5315C49.8653 65.5315 46.7147 64.23 44.3878 61.9119L43.1476 60.7391L40.0067 63.8935Z" fill="#7AC943"/>
<defs>
<linearGradient id="paint0_linear_3204_236" x1="10" y1="52.5297" x2="19.2609" y2="52.5297" gradientUnits="userSpaceOnUse">
<stop stop-color="#FF931E"/>
<stop offset="0.2" stop-color="#FF8632"/>
<stop offset="1" stop-color="#FF931E"/>
</linearGradient>
</defs>
</svg>
