<svg width="24" height="24" viewBox="0 0 24 24" fill="none" xmlns="http://www.w3.org/2000/svg">
<path d="M20.12 6.26001H4V21H20.12V6.26001Z" fill="#F8FAFF" stroke="#1B1B1B" stroke-width="2" stroke-linejoin="bevel"/>
<path d="M20.12 6.26001H4V11.59H20.12V6.26001Z" fill="#82C6D1" stroke="#1B1B1B" stroke-width="2" stroke-linejoin="bevel"/>
<path d="M8.60996 3H7.45996C7.18382 3 6.95996 3.22386 6.95996 3.5V8.95C6.95996 9.22614 7.18382 9.45 7.45996 9.45H8.60996C8.8861 9.45 9.10996 9.22614 9.10996 8.95V3.5C9.10996 3.22386 8.8861 3 8.60996 3Z" fill="#1B1B1B"/>
<path d="M16.67 3H15.52C15.2439 3 15.02 3.22386 15.02 3.5V8.95C15.02 9.22614 15.2439 9.45 15.52 9.45H16.67C16.9462 9.45 17.17 9.22614 17.17 8.95V3.5C17.17 3.22386 16.9462 3 16.67 3Z" fill="#1B1B1B"/>
</svg>
