<svg width="24" height="24" viewBox="0 0 24 24" fill="none" xmlns="http://www.w3.org/2000/svg">
<path d="M20.12 6.26001H4V21H20.12V6.26001Z" fill="#F8FAFF" stroke="#3F3F3F" stroke-width="2" stroke-linejoin="bevel"/>
<path d="M20.12 6.26001H4V11.59H20.12V6.26001Z" fill="#82C6D1" stroke="#3F3F3F" stroke-width="2" stroke-linejoin="bevel"/>
<path d="M8.60999 3H7.45999C7.18385 3 6.95999 3.22386 6.95999 3.5V8.95C6.95999 9.22614 7.18385 9.45 7.45999 9.45H8.60999C8.88613 9.45 9.10999 9.22614 9.10999 8.95V3.5C9.10999 3.22386 8.88613 3 8.60999 3Z" fill="#3F3F3F"/>
<path d="M16.67 3H15.52C15.2438 3 15.02 3.22386 15.02 3.5V8.95C15.02 9.22614 15.2438 9.45 15.52 9.45H16.67C16.9461 9.45 17.17 9.22614 17.17 8.95V3.5C17.17 3.22386 16.9461 3 16.67 3Z" fill="#3F3F3F"/>
</svg>
