<svg width="24" height="24" viewBox="0 0 24 24" fill="none" xmlns="http://www.w3.org/2000/svg">
<path d="M12 21C16.9706 21 21 16.9706 21 12C21 7.02944 16.9706 3 12 3C7.02944 3 3 7.02944 3 12C3 16.9706 7.02944 21 12 21Z" fill="#F8FAFF"/>
<path d="M12.0502 12.1L4.93024 18C-0.0697591 8 7.08024 3 12.0502 3V12.1Z" fill="#82C6D1"/>
<path d="M12 21C16.9706 21 21 16.9706 21 12C21 7.02944 16.9706 3 12 3C7.02944 3 3 7.02944 3 12C3 16.9706 7.02944 21 12 21Z" stroke="#3F3F3F" stroke-width="2" stroke-miterlimit="10"/>
<path d="M12.37 11.79L8.64996 14.63" stroke="#3F3F3F" stroke-width="2" stroke-miterlimit="10"/>
<path d="M12.0001 6V12.57" stroke="#3F3F3F" stroke-width="2" stroke-miterlimit="10"/>
</svg>
