<svg width="24" height="24" viewBox="0 0 24 24" fill="none" xmlns="http://www.w3.org/2000/svg">
<path d="M7.68723 6.39643C7.29187 6.0108 6.65875 6.01868 6.27312 6.41404C5.88749 6.8094 5.89538 7.44251 6.29074 7.82814L7.68723 6.39643ZM16.3128 17.6036C16.7081 17.9892 17.3412 17.9813 17.7269 17.586C18.1125 17.1906 18.1046 16.5575 17.7093 16.1719L16.3128 17.6036ZM6.39643 16.3128C6.0108 16.7081 6.01868 17.3412 6.41404 17.7269C6.8094 18.1125 7.44251 18.1046 7.82814 17.7093L6.39643 16.3128ZM17.6036 7.68723C17.9892 7.29187 17.9813 6.65875 17.586 6.27312C17.1906 5.88749 16.5575 5.89538 16.1719 6.29074L17.6036 7.68723ZM6.29074 7.82814L16.3128 17.6036L17.7093 16.1719L7.68723 6.39643L6.29074 7.82814ZM7.82814 17.7093L17.6036 7.68723L16.1719 6.29074L6.39643 16.3128L7.82814 17.7093Z" fill="#1B1B1B"/>
</svg>
