<svg width="24" height="24" viewBox="0 0 24 24" fill="none" xmlns="http://www.w3.org/2000/svg">
<path d="M7.68701 6.39643C7.29166 6.0108 6.65854 6.01868 6.27291 6.41404C5.88728 6.8094 5.89517 7.44251 6.29052 7.82814L7.68701 6.39643ZM16.3126 17.6036C16.7079 17.9892 17.341 17.9813 17.7267 17.586C18.1123 17.1906 18.1044 16.5575 17.709 16.1719L16.3126 17.6036ZM6.39621 16.3128C6.01058 16.7081 6.01847 17.3412 6.41383 17.7269C6.80919 18.1125 7.4423 18.1046 7.82793 17.7093L6.39621 16.3128ZM17.6034 7.68723C17.989 7.29187 17.9811 6.65875 17.5857 6.27312C17.1904 5.88749 16.5573 5.89538 16.1716 6.29074L17.6034 7.68723ZM6.29052 7.82814L16.3126 17.6036L17.709 16.1719L7.68701 6.39643L6.29052 7.82814ZM7.82793 17.7093L17.6034 7.68723L16.1716 6.29074L6.39621 16.3128L7.82793 17.7093Z" fill="#1B1B1B"/>
</svg>
