<svg width="400" height="400" viewBox="0 0 400 400" fill="none" xmlns="http://www.w3.org/2000/svg">
<g clip-path="url(#clip0_1431_4335)">
<path d="M387.5 12.0688V387.069H12.5V12.0688H387.5ZM387.5 -0.431175H12.5C9.18479 -0.431175 6.00536 0.885776 3.66116 3.22998C1.31695 5.57419 0 8.75362 0 12.0688V387.069C0 390.384 1.31695 393.563 3.66116 395.908C6.00536 398.252 9.18479 399.569 12.5 399.569H387.5C390.815 399.569 393.995 398.252 396.339 395.908C398.683 393.563 400 390.384 400 387.069V12.0688C400 8.75362 398.683 5.57419 396.339 3.22998C393.995 0.885776 390.815 -0.431175 387.5 -0.431175Z" fill="white" fill-opacity="0.2"/>
<path d="M362.432 46.9387H236.861C231.684 46.9387 227.486 51.136 227.486 56.3137V181.884C227.486 187.062 231.684 191.259 236.861 191.259H362.432C367.609 191.259 371.807 187.062 371.807 181.884V56.3137C371.807 51.136 367.609 46.9387 362.432 46.9387Z" fill="white" fill-opacity="0.2"/>
<path d="M120.017 48.6652L29.783 183.978C29.3138 184.684 29.045 185.504 29.0052 186.351C28.9654 187.198 29.156 188.04 29.5569 188.787C29.9578 189.535 30.5538 190.159 31.2815 190.594C32.0092 191.03 32.8413 191.259 33.6893 191.259H214.158C215.006 191.259 215.838 191.03 216.566 190.594C217.294 190.159 217.89 189.535 218.29 188.787C218.691 188.04 218.882 187.198 218.842 186.351C218.802 185.504 218.533 184.684 218.064 183.978L127.83 48.6652C127.402 48.0206 126.822 47.4918 126.14 47.1261C125.459 46.7603 124.697 46.5688 123.924 46.5688C123.15 46.5688 122.389 46.7603 121.707 47.1261C121.025 47.4918 120.445 48.0206 120.017 48.6652Z" fill="white" fill-opacity="0.2"/>
<path d="M367.236 210.118H33.9629C31.4395 210.118 29.3926 212.462 29.3926 215.275V348.986C29.3926 351.829 31.4395 354.142 33.9629 354.142H156.619C157.987 354.142 159.298 353.598 160.265 352.632C161.232 351.665 161.775 350.353 161.775 348.986V310.876C161.775 300.589 165.862 290.722 173.136 283.448C180.411 276.174 190.277 272.087 200.564 272.087C205.662 272.082 210.71 273.081 215.42 275.029C220.131 276.976 224.412 279.832 228.018 283.434C231.624 287.037 234.484 291.315 236.436 296.023C238.388 300.732 239.393 305.779 239.393 310.876V348.986C239.393 350.352 239.935 351.662 240.9 352.629C241.865 353.596 243.175 354.14 244.541 354.142H367.197C369.721 354.142 371.768 351.798 371.768 348.986V215.275C371.807 212.431 369.76 210.118 367.236 210.118Z" fill="white" fill-opacity="0.2"/>
</g>
<defs>
<clipPath id="clip0_1431_4335">
<rect width="400" height="400" fill="white"/>
</clipPath>
</defs>
</svg>
