<svg width="25" height="24" viewBox="0 0 25 24" fill="none" xmlns="http://www.w3.org/2000/svg">
<path d="M10.5299 4.2417L8.42987 4.7517C4.48987 5.7117 2.17987 10.0117 3.26987 14.3517C4.35987 18.6917 8.44987 21.4217 12.3899 20.4617L14.4899 19.9517" fill="#82C6D1"/>
<path d="M10.5299 4.2417L8.42987 4.7517C4.48987 5.7117 2.17987 10.0117 3.26987 14.3517C4.35987 18.6917 8.44987 21.4217 12.3899 20.4617L14.4899 19.9517" stroke="#3F3F3F" stroke-width="2" stroke-linejoin="bevel"/>
<path d="M15.5873 19.7301C19.5321 18.7495 21.8421 14.3831 20.7469 9.97737C19.6517 5.57167 15.566 2.7951 11.6213 3.77571C7.6765 4.75632 5.36647 9.12279 6.46167 13.5285C7.55686 17.9342 11.6426 20.7108 15.5873 19.7301Z" fill="#F8FAFF" stroke="#3F3F3F" stroke-width="2" stroke-linejoin="bevel"/>
<path d="M13.0398 15.7618L9.55983 9.56184L10.8198 9.25183L13.4198 14.0418L12.9298 14.1618L12.9498 8.72184L13.9398 8.47184L16.5098 13.2718L16.0198 13.3918L16.0798 7.94184L17.3298 7.63184L17.1598 14.7418L16.1798 14.9818L13.5998 10.2018L14.0698 10.0818L14.0398 15.5118L13.0598 15.7518L13.0398 15.7618Z" fill="#1B1B1B" stroke="#3F3F3F"/>
<path d="M18.5106 10.3079L18.25 9.25977L9.36059 11.4696L9.62114 12.5177L18.5106 10.3079Z" fill="#1B1B1B" stroke="#3F3F3F" stroke-miterlimit="10"/>
</svg>
