<svg width="25" height="24" viewBox="0 0 25 24" fill="none" xmlns="http://www.w3.org/2000/svg">
<path d="M10.5299 4.2417L8.42987 4.7517C4.48987 5.7117 2.17987 10.0117 3.26987 14.3517C4.35987 18.6917 8.44987 21.4217 12.3899 20.4617L14.4899 19.9517" fill="#82C6D1"/>
<path d="M10.5299 4.2417L8.42987 4.7517C4.48987 5.7117 2.17987 10.0117 3.26987 14.3517C4.35987 18.6917 8.44987 21.4217 12.3899 20.4617L14.4899 19.9517" stroke="#1B1B1B" stroke-width="2" stroke-linejoin="bevel"/>
<path d="M15.5872 19.7301C19.532 18.7495 21.842 14.3831 20.7468 9.97737C19.6516 5.57167 15.5659 2.7951 11.6211 3.77571C7.67638 4.75632 5.36635 9.12279 6.46154 13.5285C7.55674 17.9342 11.6424 20.7108 15.5872 19.7301Z" fill="#F8FAFF" stroke="#1B1B1B" stroke-width="2" stroke-linejoin="bevel"/>
<path d="M13.0396 15.7618L9.55957 9.56184L10.8196 9.25183L13.4196 14.0418L12.9296 14.1618L12.9496 8.72184L13.9396 8.47184L16.5096 13.2718L16.0196 13.3918L16.0796 7.94184L17.3296 7.63184L17.1596 14.7418L16.1796 14.9818L13.5996 10.2018L14.0696 10.0818L14.0396 15.5118L13.0596 15.7518L13.0396 15.7618Z" fill="black" stroke="#1B1B1B"/>
<path d="M18.5105 10.3079L18.25 9.25977L9.36055 11.4696L9.62109 12.5177L18.5105 10.3079Z" fill="black" stroke="#1B1B1B" stroke-miterlimit="10"/>
</svg>
