<svg width="400" height="400" viewBox="0 0 400 400" fill="none" xmlns="http://www.w3.org/2000/svg">
<g clip-path="url(#clip0_1431_3899)">
<path d="M271.453 200.219L298.797 172.934C329.43 142.427 354.854 107.124 374.062 68.4248V26.4916H278.023C264.18 53.3068 246.242 77.8105 224.852 99.1243L197.508 126.409C151.847 80.7269 90.3892 54.226 25.7578 52.35L26.8438 156.859C63.314 158.971 97.7288 174.406 123.523 200.219C97.4451 226.322 62.5631 241.804 25.6719 243.649L26.8125 348.057C91.066 345.913 152.09 319.432 197.477 273.998L224.82 301.283C246.252 322.638 264.217 347.196 278.07 374.071H374.055V331.975C354.844 293.278 329.423 257.976 298.797 227.465L271.453 200.219Z" fill="white" fill-opacity="0.2"/>
<path d="M387.5 13.3013V387.496H12.5V13.3013H387.5ZM387.5 0.828133H12.5C9.18479 0.828133 6.00536 2.14225 3.66116 4.48142C1.31695 6.82059 0 9.99319 0 13.3013V387.496C0 390.804 1.31695 393.976 3.66116 396.315C6.00536 398.655 9.18479 399.969 12.5 399.969H387.5C390.815 399.969 393.995 398.655 396.339 396.315C398.683 393.976 400 390.804 400 387.496V13.3013C400 9.99319 398.683 6.82059 396.339 4.48142C393.995 2.14225 390.815 0.828133 387.5 0.828133Z" fill="white" fill-opacity="0.2"/>
</g>
<defs>
<clipPath id="clip0_1431_3899">
<rect width="400" height="399.141" fill="white" transform="translate(0 0.828125)"/>
</clipPath>
</defs>
</svg>
