<svg width="24" height="24" viewBox="0 0 24 24" fill="none" xmlns="http://www.w3.org/2000/svg">
<path d="M5.249 7.072C5.26053 6.95722 5.2448 6.84133 5.2031 6.73377C5.16139 6.62621 5.09489 6.53001 5.009 6.453L3.239 4.32V4H8.737L12.987 13.32L16.723 4H21.964V4.319L20.449 5.77C20.3856 5.81938 20.3366 5.88485 20.307 5.95959C20.2775 6.03433 20.2685 6.11561 20.281 6.195V16.861C20.2683 16.9404 20.2772 17.0218 20.3067 17.0965C20.3363 17.1713 20.3854 17.2368 20.449 17.286L21.928 18.737V19.056H14.492V18.737L16.021 17.25C16.173 17.1 16.173 17.055 16.173 16.826V8.204L11.914 19.021H11.339L6.381 8.204V15.453C6.34 15.758 6.441 16.065 6.656 16.286L8.648 18.703V19.022H3V18.703L4.992 16.286C5.0968 16.1768 5.17461 16.0446 5.21923 15.9C5.26386 15.7553 5.27405 15.6023 5.249 15.453V7.072Z" fill="#1B1B1B"/>
</svg>
