<svg width="155" height="30" viewBox="0 0 155 30" fill="none" xmlns="http://www.w3.org/2000/svg">
<path d="M47.0226 22.4801C45.9287 22.49 44.8445 22.2753 43.8371 21.8492C42.8714 21.442 41.9975 20.8451 41.2669 20.0941C40.5378 19.3415 39.9646 18.4524 39.5801 17.4779C38.7827 15.4185 38.7827 13.136 39.5801 11.0766C39.9615 10.1066 40.5308 9.22154 41.2553 8.47201C41.9804 7.72727 42.8467 7.13451 43.8038 6.72841C44.8068 6.30318 45.8867 6.08845 46.9762 6.09754C48.2476 6.09754 49.3577 6.31169 50.3066 6.73999C51.2472 7.16332 52.1028 7.75414 52.8318 8.48359L51.339 9.97541C50.8233 9.40201 50.1889 8.94774 49.4798 8.6442C48.6875 8.31246 47.8351 8.14839 46.9762 8.16236C46.1888 8.15527 45.408 8.30787 44.6812 8.61092C43.9861 8.90179 43.36 9.33565 42.8438 9.88426C42.3156 10.4473 41.9059 11.1106 41.6391 11.8348C41.0715 13.4221 41.0715 15.157 41.6391 16.7443C41.9062 17.4684 42.3159 18.1316 42.8438 18.6948C43.3608 19.2425 43.9867 19.6762 44.6812 19.9682C45.4153 20.2721 46.2034 20.4242 46.998 20.4153C47.888 20.4356 48.7723 20.2675 49.5927 19.9219C50.3013 19.6121 50.9353 19.1543 51.4519 18.5791L52.9447 20.0709C52.2073 20.8226 51.3297 21.4228 50.3616 21.8377C49.3048 22.2795 48.168 22.4982 47.0226 22.4801Z" fill="#3F3F3F"/>
<path d="M59.811 22.4801C58.8034 22.4936 57.8113 22.2324 56.9411 21.7248C56.0778 21.2196 55.3638 20.4949 54.8719 19.6244C54.38 18.7538 54.1277 17.7686 54.1407 16.7689C54.1266 15.765 54.3885 14.7765 54.898 13.9112C55.3952 13.073 56.0985 12.3757 56.9411 11.8854C57.8112 11.3773 58.8033 11.1156 59.811 11.1286C60.8282 11.1148 61.8308 11.372 62.7156 11.8738C63.5794 12.3651 64.2959 13.0786 64.7904 13.9402C65.2849 14.8018 65.5394 15.7801 65.5275 16.7733C65.5384 17.5265 65.3981 18.2742 65.1146 18.9722C64.8312 19.6703 64.4105 20.3044 63.8775 20.837C63.3445 21.3697 62.71 21.7901 62.0115 22.0733C61.313 22.3565 60.5647 22.4968 59.811 22.4859V22.4801ZM59.811 20.4833C60.4637 20.4966 61.1075 20.3299 61.6716 20.0015C62.2034 19.6835 62.6396 19.2281 62.9342 18.6833C63.2476 18.094 63.4055 17.4347 63.3932 16.7675C63.4045 16.11 63.2422 15.4612 62.9226 14.8864C62.6238 14.3489 62.1882 13.8997 61.66 13.5841C61.0989 13.2756 60.4688 13.1138 59.8283 13.1138C59.1879 13.1138 58.5578 13.2756 57.9967 13.5841C57.4649 13.8952 57.0283 14.3455 56.734 14.8864C56.4216 15.4635 56.2635 16.1114 56.275 16.7675C56.2623 17.4356 56.4202 18.096 56.734 18.6862C57.0321 19.2396 57.4768 19.7004 58.0196 20.0179C58.5624 20.3354 59.1821 20.4974 59.811 20.4862V20.4833Z" fill="#3F3F3F"/>
<path d="M72.4155 22.4801C71.4671 22.4932 70.5349 22.234 69.7295 21.7335C68.9315 21.2357 68.2783 20.5371 67.8356 19.7077C67.3741 18.8128 67.1333 17.8206 67.1333 16.8138C67.1333 15.807 67.3741 14.8148 67.8356 13.9198C68.2808 13.0898 68.9332 12.389 69.7295 11.8854C70.5326 11.3785 71.4657 11.1155 72.4155 11.1286C73.1889 11.1162 73.9536 11.2936 74.6424 11.6452C75.2852 11.977 75.8333 12.4664 76.2352 13.0676C76.6476 13.693 76.8818 14.4188 76.9129 15.1671V18.4474C76.8788 19.1899 76.649 19.9102 76.2468 20.5354C75.8529 21.1432 75.3068 21.6375 74.6627 21.9693C73.9666 22.3203 73.195 22.4956 72.4155 22.4801ZM72.7601 20.5296C73.3968 20.5424 74.0241 20.3753 74.5701 20.0477C75.0887 19.7274 75.5094 19.271 75.7863 18.7281C76.085 18.1344 76.2341 17.4767 76.2207 16.8123C76.2356 16.1408 76.0865 15.4758 75.7863 14.8748C75.5094 14.332 75.0887 13.8755 74.5701 13.5552C74.0229 13.2268 73.3939 13.0598 72.7557 13.0734C72.122 13.061 71.4972 13.2238 70.9501 13.5436C70.4296 13.8576 70.0049 14.3079 69.7223 14.8459C69.4144 15.4446 69.2606 16.1104 69.2748 16.7834C69.2614 17.4604 69.415 18.1303 69.7223 18.7339C70.0023 19.282 70.4321 19.7396 70.9617 20.0535C71.5064 20.3734 72.1284 20.538 72.7601 20.5296ZM78.1784 22.25H76.089V19.3141L76.4799 16.6532L76.089 14.0139V5.8689H78.1784V22.25Z" fill="#3F3F3F"/>
<path d="M86.2377 22.4801C85.2051 22.498 84.1865 22.2403 83.2868 21.7335C82.4339 21.2484 81.7245 20.5465 81.2307 19.699C80.736 18.8121 80.4754 17.814 80.4733 16.7986C80.4713 15.7833 80.728 14.7841 81.2191 13.8953C81.7094 13.0388 82.4207 12.3294 83.2787 11.841C84.1366 11.3526 85.11 11.1031 86.0973 11.1185C87.0315 11.1019 87.9526 11.34 88.7615 11.8073C89.5356 12.2595 90.1675 12.9191 90.586 13.7115C91.0336 14.5671 91.2587 15.5215 91.2405 16.4868C91.2405 16.6401 91.2404 16.8051 91.2187 16.9802C91.1998 17.1772 91.1689 17.3729 91.1261 17.5662H81.9199V15.8443H90.0285L89.2712 16.5099C89.2904 15.8647 89.1564 15.224 88.8803 14.6404C88.6359 14.145 88.2531 13.7309 87.7784 13.4481C87.2541 13.1519 86.6587 13.0047 86.0567 13.0227C85.4069 13.0092 84.7651 13.1674 84.1961 13.4814C83.6671 13.7807 83.2365 14.2271 82.9567 14.7663C82.654 15.3711 82.5048 16.0409 82.5223 16.7168C82.5061 17.4135 82.6639 18.1033 82.9813 18.7238C83.2746 19.2864 83.728 19.7496 84.2844 20.055C84.8837 20.377 85.556 20.539 86.2363 20.5253C86.8144 20.5317 87.3879 20.4225 87.9232 20.204C88.4334 19.9916 88.8859 19.6614 89.2437 19.2404L90.5744 20.5947C90.0462 21.2009 89.3872 21.6793 88.6471 21.9939C87.8857 22.3188 87.0657 22.4842 86.2377 22.4801Z" fill="#3F3F3F"/>
<path d="M98.2674 22.4801C97.028 22.4801 95.9661 22.2505 95.0819 21.7913C94.1597 21.3033 93.3533 20.6228 92.7174 19.796L94.1871 18.3273C94.6385 18.9822 95.2325 19.5264 95.9246 19.919C96.582 20.2778 97.3933 20.4577 98.3586 20.4587C99.3075 20.4587 100.069 20.2523 100.644 19.8394C100.917 19.6512 101.139 19.3973 101.289 19.101C101.439 18.8047 101.513 18.4755 101.502 18.1435C101.502 17.5474 101.361 17.0651 101.078 16.6966C100.778 16.3175 100.399 16.0088 99.9673 15.7922C99.4794 15.5424 98.9725 15.3314 98.4513 15.1613C97.9011 14.9781 97.3504 14.775 96.7992 14.5522C96.2591 14.3366 95.7476 14.0557 95.2759 13.7158C94.807 13.3758 94.4254 12.9295 94.1624 12.4135C93.8873 11.8859 93.7498 11.2106 93.7498 10.3878C93.7249 9.57015 93.953 8.76475 94.4028 8.08132C94.8526 7.4358 95.4726 6.92744 96.1939 6.61265C96.9994 6.25931 97.8715 6.08362 98.751 6.09753C99.7193 6.08223 100.678 6.29019 101.553 6.70525C102.337 7.07704 103.028 7.62113 103.573 8.29692L102.103 9.76559C101.681 9.25629 101.162 8.83495 100.577 8.52554C99.9936 8.2451 99.3518 8.10722 98.7047 8.12328C97.8475 8.12328 97.166 8.31043 96.6602 8.68471C96.4143 8.86417 96.2166 9.10148 96.0845 9.37559C95.9524 9.6497 95.89 9.95215 95.9029 10.2561C95.8789 10.7279 96.0306 11.1918 96.3286 11.5584C96.6397 11.9096 97.0184 12.1945 97.4421 12.3962C97.936 12.6406 98.4459 12.8514 98.9682 13.0271C99.5271 13.22 100.082 13.4303 100.633 13.6579C101.174 13.8809 101.683 14.1727 102.148 14.5261C102.618 14.8908 102.998 15.3574 103.261 15.8906C103.545 16.4491 103.687 17.149 103.687 17.9902C103.687 19.3985 103.201 20.5002 102.229 21.295C101.257 22.0899 99.9364 22.4849 98.2674 22.4801Z" fill="#3F3F3F"/>
<path d="M110.713 22.4801C109.757 22.4914 108.818 22.2326 108.004 21.7335C107.195 21.2409 106.533 20.5416 106.085 19.7077C105.624 18.8125 105.384 17.8204 105.384 16.8138C105.384 15.8072 105.624 14.8151 106.085 13.9198C106.533 13.0879 107.19 12.3868 107.992 11.8854C108.807 11.3773 109.752 11.1145 110.713 11.1286C111.482 11.1155 112.244 11.293 112.928 11.6452C113.58 11.9816 114.13 12.485 114.524 13.1037C114.917 13.7225 115.139 14.4346 115.167 15.1671V18.4474C115.132 19.1882 114.907 19.9075 114.512 20.5354C114.127 21.1421 113.589 21.6367 112.951 21.9693C112.259 22.3213 111.49 22.4968 110.713 22.4801ZM111.059 20.5296C112.084 20.5296 112.91 20.1818 113.538 19.4863C114.165 18.7908 114.479 17.8995 114.479 16.8123C114.492 16.1384 114.346 15.4709 114.055 14.8633C113.788 14.3166 113.369 13.8584 112.848 13.5436C112.299 13.2222 111.672 13.0594 111.036 13.0734C110.401 13.0626 109.777 13.2295 109.233 13.5552C108.705 13.8754 108.273 14.3311 107.982 14.8748C107.667 15.4632 107.509 16.1223 107.521 16.7892C107.507 17.4642 107.665 18.1317 107.982 18.7281C108.276 19.2845 108.72 19.7479 109.264 20.0661C109.807 20.3843 110.429 20.5448 111.059 20.5296ZM114.341 26.8167V19.5211L114.731 16.8586L114.341 14.2194V11.3515H116.431V26.8167H114.341Z" fill="#3F3F3F"/>
<path d="M123.844 22.4338C123.001 22.4496 122.167 22.2504 121.422 21.855C120.718 21.4725 120.14 20.8946 119.758 20.191C119.348 19.4226 119.142 18.5615 119.161 17.6906V11.3515H121.228V17.5937C121.214 18.1264 121.32 18.6554 121.538 19.1419C121.728 19.5609 122.045 19.91 122.444 20.1404C122.872 20.3766 123.355 20.4949 123.844 20.4833C124.657 20.4833 125.292 20.2272 125.75 19.7149C126.207 19.2027 126.437 18.4956 126.439 17.5937V11.3515H128.505V17.6849C128.525 18.5557 128.319 19.4168 127.909 20.1852C127.528 20.8867 126.954 21.4642 126.255 21.8492C125.515 22.2477 124.685 22.449 123.844 22.4338Z" fill="#3F3F3F"/>
<path d="M135.922 22.4801C134.962 22.4942 134.019 22.2352 133.201 21.7335C132.398 21.2383 131.74 20.5393 131.295 19.7077C130.834 18.8128 130.593 17.8206 130.593 16.8138C130.593 15.807 130.834 14.8148 131.295 13.9198C131.743 13.0877 132.4 12.3865 133.201 11.8854C134.016 11.3773 134.961 11.1145 135.922 11.1286C136.691 11.1153 137.453 11.2928 138.137 11.6452C138.789 11.9816 139.339 12.4849 139.733 13.1037C140.126 13.7225 140.348 14.4346 140.376 15.1671V18.4474C140.342 19.1883 140.117 19.9078 139.721 20.5354C139.334 21.1445 138.791 21.6395 138.149 21.9693C137.459 22.3189 136.695 22.4943 135.922 22.4801ZM136.266 20.5296C137.291 20.5296 138.118 20.1818 138.745 19.4863C139.373 18.7908 139.686 17.8995 139.686 16.8123C139.701 16.1372 139.552 15.4685 139.252 14.8633C138.982 14.3196 138.564 13.8625 138.047 13.5436C137.502 13.2215 136.878 13.0586 136.245 13.0734C135.603 13.0607 134.97 13.2276 134.419 13.5552C133.893 13.8743 133.465 14.3305 133.179 14.8748C132.873 15.4658 132.719 16.1238 132.732 16.7892C132.717 17.4626 132.871 18.129 133.179 18.7281C133.466 19.2749 133.899 19.7316 134.43 20.0477C134.986 20.3742 135.622 20.541 136.266 20.5296ZM139.549 22.25V19.3141L139.94 16.6532L139.549 14.0139V11.3515H141.638V22.25H139.549Z" fill="#3F3F3F"/>
<path d="M149.237 22.4801C148.289 22.493 147.357 22.2339 146.551 21.7335C145.75 21.2341 145.095 20.5324 144.651 19.699C144.19 18.8041 143.949 17.8119 143.949 16.8051C143.949 15.7983 144.19 14.8061 144.651 13.9111C145.099 13.0836 145.754 12.3858 146.551 11.8854C147.354 11.3786 148.287 11.1157 149.237 11.1286C150.011 11.116 150.775 11.2934 151.464 11.6452C152.107 11.9766 152.655 12.4661 153.057 13.0676C153.469 13.693 153.703 14.4188 153.734 15.1671V18.4474C153.7 19.1899 153.471 19.9102 153.068 20.5354C152.675 21.1435 152.129 21.6379 151.484 21.9693C150.788 22.3203 150.017 22.4956 149.237 22.4801ZM149.582 20.5296C150.22 20.5432 150.849 20.3761 151.396 20.0477C151.915 19.7274 152.335 19.271 152.612 18.7281C152.911 18.1344 153.06 17.4767 153.047 16.8123C153.062 16.1408 152.912 15.4758 152.612 14.8748C152.335 14.332 151.915 13.8755 151.396 13.5552C150.849 13.2268 150.22 13.0598 149.582 13.0734C148.945 13.0594 148.317 13.2222 147.767 13.5436C147.247 13.8576 146.822 14.3079 146.54 14.8459C146.232 15.4446 146.078 16.1104 146.092 16.7834C146.079 17.4604 146.232 18.1303 146.54 18.7339C146.82 19.2817 147.25 19.7391 147.779 20.0535C148.325 20.3741 148.949 20.5388 149.582 20.5296ZM155 22.25H152.905V19.3141L153.296 16.6532L152.905 14.0139V5.8689H154.994L155 22.25Z" fill="#3F3F3F"/>
<path d="M12.2657 16.5723L10.6927 14.9993C10.0975 15.5935 9.29081 15.9272 8.44976 15.9272C7.60871 15.9272 6.80202 15.5935 6.20677 14.9993L4.63089 16.5723C5.64358 17.5843 7.01665 18.1527 8.44831 18.1527C9.87997 18.1527 11.253 17.5843 12.2657 16.5723Z" fill="url(#paint0_linear_2354_13045)"/>
<path d="M4.05206 12.8445C2.88517 11.6776 2.22963 10.0949 2.22963 8.44467C2.22963 6.7944 2.88517 5.21173 4.05206 4.0448L2.47474 2.4776C1.69017 3.26185 1.0678 4.193 0.643176 5.21784C0.218554 6.24267 0 7.34113 0 8.45045C0 9.55978 0.218554 10.6582 0.643176 11.6831C1.0678 12.7079 1.69017 13.6391 2.47474 14.4233L3.05357 15.0021L4.6309 13.4263L4.05206 12.8445Z" fill="url(#paint1_linear_2354_13045)"/>
<path d="M4.05206 17.154L4.6309 16.5751L6.20388 15.0021C6.79913 14.408 7.60582 14.0742 8.44687 14.0742C9.28792 14.0742 10.0946 14.408 10.6899 15.0021L12.2628 16.5751C12.6798 16.1578 12.9139 15.592 12.9139 15.0021C12.9139 14.4122 12.6798 13.8465 12.2628 13.4292C11.2501 12.4167 9.87671 11.848 8.4447 11.848C7.01269 11.848 5.6393 12.4167 4.62656 13.4292L3.05357 15.0021L2.47474 15.581C1.69017 16.3652 1.0678 17.2964 0.643177 18.3212C0.218554 19.3461 0 20.4445 0 21.5538C0 22.6632 0.218554 23.7616 0.643177 24.7865C1.0678 25.8113 1.69017 26.7424 2.47474 27.5267L4.05206 25.9537C2.88517 24.7868 2.22963 23.2041 2.22963 21.5538C2.22963 19.9036 2.88517 18.3209 4.05206 17.154Z" fill="url(#paint2_linear_2354_13045)"/>
<path d="M26.9464 14.9993L27.5253 14.4204C28.3098 13.6362 28.9322 12.7051 29.3568 11.6802C29.7815 10.6554 30 9.55692 30 8.44759C30 7.33827 29.7815 6.23981 29.3568 5.21497C28.9322 4.19013 28.3098 3.25899 27.5253 2.47474C26.741 1.69017 25.8099 1.0678 24.785 0.643176C23.7602 0.218554 22.6617 0 21.5524 0C20.4431 0 19.3446 0.218554 18.3198 0.643176C17.295 1.0678 16.3638 1.69017 15.5796 2.47474L15.0007 3.05357L14.4219 2.47474C13.6376 1.69017 12.7065 1.0678 11.6817 0.643176C10.6568 0.218554 9.55836 0 8.44903 0C7.33971 0 6.24125 0.218554 5.21641 0.643176C4.19157 1.0678 3.26043 1.69017 2.47618 2.47474L4.05206 4.04483C5.21899 2.87794 6.80167 2.22239 8.45193 2.22239C10.1022 2.22239 11.6849 2.87794 12.8518 4.04483L13.4306 4.62366C12.929 5.12493 12.531 5.72015 12.2595 6.37528C11.988 7.03042 11.8483 7.73264 11.8483 8.4418C11.8483 9.15097 11.988 9.85319 12.2595 10.5083C12.531 11.1635 12.929 11.7587 13.4306 12.2599C13.8477 12.6768 14.4132 12.9109 15.0029 12.9109C15.5926 12.9109 16.1581 12.6768 16.5752 12.2599C17.0768 11.7587 17.4748 11.1635 17.7463 10.5083C18.0178 9.85319 18.1575 9.15097 18.1575 8.4418C18.1575 7.73264 18.0178 7.03042 17.7463 6.37528C17.4748 5.72015 17.0768 5.12493 16.5752 4.62366L17.154 4.04483C17.7305 3.4611 18.4167 2.99714 19.1732 2.67964C19.9297 2.36214 20.7415 2.19736 21.5619 2.1948C22.3823 2.19225 23.1951 2.35195 23.9536 2.66473C24.712 2.9775 25.4011 3.43718 25.9813 4.0173C26.5614 4.59742 27.0211 5.28653 27.3338 6.04498C27.6466 6.80343 27.8063 7.61625 27.8038 8.43666C27.8012 9.25707 27.6364 10.0689 27.3189 10.8254C27.0014 11.5818 26.5375 12.2681 25.9537 12.8446L25.3749 13.4234C24.8735 12.9219 24.2783 12.5241 23.6232 12.2527C22.968 11.9813 22.2659 11.8416 21.5568 11.8416C20.8476 11.8416 20.1455 11.9813 19.4903 12.2527C18.8352 12.5241 18.24 12.9219 17.7386 13.4234C17.3217 13.8407 17.0875 14.4065 17.0875 14.9964C17.0875 15.5863 17.3217 16.1521 17.7386 16.5694C18.7514 17.5818 20.1247 18.1505 21.5568 18.1505C22.9888 18.1505 24.3622 17.5818 25.3749 16.5694L25.9537 17.1482C27.1206 18.3151 27.7762 19.8978 27.7762 21.5481C27.7762 23.1983 27.1206 24.781 25.9537 25.948C24.7868 27.1148 23.2041 27.7704 21.5539 27.7704C19.9036 27.7704 18.3209 27.1148 17.154 25.948L16.5752 25.3691C17.0768 24.8678 17.4748 24.2726 17.7463 23.6175C18.0178 22.9624 18.1575 22.2601 18.1575 21.551C18.1575 20.8418 18.0178 20.1396 17.7463 19.4844C17.4748 18.8293 17.0768 18.2341 16.5752 17.7328C16.3687 17.5263 16.1236 17.3624 15.8539 17.2506C15.5841 17.1388 15.2949 17.0813 15.0029 17.0813C14.7109 17.0813 14.4217 17.1388 14.1519 17.2506C13.8822 17.3624 13.6371 17.5263 13.4306 17.7328C12.9289 18.2342 12.531 18.8296 12.2594 19.4848C11.9879 20.1401 11.8481 20.8424 11.8481 21.5517C11.8481 22.261 11.9879 22.9633 12.2594 23.6186C12.531 24.2738 12.9289 24.8692 13.4306 25.3706L12.8518 25.9494C11.6849 27.1163 10.1022 27.7718 8.45193 27.7718C6.80167 27.7718 5.21899 27.1163 4.05206 25.9494L2.47473 27.5267C4.05918 29.1102 6.20755 29.9997 8.44759 29.9997C10.6876 29.9997 12.836 29.1102 14.4204 27.5267L14.9993 26.9479L15.5781 27.5267C17.1626 29.1102 19.3109 29.9997 21.551 29.9997C23.791 29.9997 25.9394 29.1102 27.5238 27.5267C28.3084 26.7425 28.9308 25.8113 29.3554 24.7865C29.78 23.7617 29.9986 22.6632 29.9986 21.5539C29.9986 20.4445 29.78 19.3461 29.3554 18.3212C28.9308 17.2964 28.3084 16.3653 27.5238 15.581L26.9464 14.9993ZM15.0007 10.6899C14.4087 10.0935 14.0764 9.28722 14.0764 8.44687C14.0764 7.60652 14.4087 6.80025 15.0007 6.20388C15.5949 6.79913 15.9286 7.60582 15.9286 8.44687C15.9286 9.28792 15.5949 10.0946 15.0007 10.6899ZM19.3102 14.9993C19.9054 14.4051 20.7121 14.0714 21.5531 14.0714C22.3942 14.0714 23.2009 14.4051 23.7961 14.9993C23.2009 15.5935 22.3942 15.9272 21.5531 15.9272C20.7121 15.9272 19.9054 15.5935 19.3102 14.9993ZM15.0007 23.799C14.4087 23.2027 14.0764 22.3964 14.0764 21.556C14.0764 20.7157 14.4087 19.9094 15.0007 19.3131C15.5949 19.9083 15.9286 20.715 15.9286 21.556C15.9286 22.3971 15.5949 23.2038 15.0007 23.799Z" fill="#73C92D"/>
<defs>
<linearGradient id="paint0_linear_2354_13045" x1="4.62944" y1="16.5766" x2="12.2657" y2="16.5766" gradientUnits="userSpaceOnUse">
<stop stop-color="#FF5539"/>
<stop offset="1" stop-color="#FF8E14"/>
</linearGradient>
<linearGradient id="paint1_linear_2354_13045" x1="0.000216795" y1="8.73481" x2="4.62945" y2="8.73481" gradientUnits="userSpaceOnUse">
<stop stop-color="#FF8E14"/>
<stop offset="1" stop-color="#FF5539"/>
</linearGradient>
<linearGradient id="paint2_linear_2354_13045" x1="0.121772" y1="19.6849" x2="13.0385" y2="19.6849" gradientUnits="userSpaceOnUse">
<stop stop-color="#FF8E14"/>
<stop offset="0.82" stop-color="#FF821B"/>
<stop offset="1" stop-color="#FE8C17"/>
</linearGradient>
</defs>
</svg>
