<svg width="202" height="30" viewBox="0 0 202 30" fill="none" xmlns="http://www.w3.org/2000/svg">
<path d="M47.0226 22.4801C45.9287 22.49 44.8445 22.2753 43.8371 21.8492C42.8715 21.4419 41.9975 20.8451 41.267 20.094C40.5379 19.3414 39.9646 18.4524 39.5801 17.4779C38.7827 15.4185 38.7827 13.1359 39.5801 11.0765C39.9615 10.1066 40.5308 9.22151 41.2554 8.47198C41.9804 7.72724 42.8468 7.13448 43.8038 6.72838C44.8069 6.30315 45.8867 6.08842 46.9763 6.09751C48.2476 6.09751 49.3577 6.31166 50.3066 6.73996C51.2472 7.16329 52.1029 7.7541 52.8318 8.48356L51.339 9.97538C50.8234 9.40198 50.1889 8.94771 49.4798 8.64417C48.6876 8.31243 47.8351 8.14836 46.9763 8.16233C46.1888 8.15524 45.408 8.30784 44.6813 8.61089C43.9861 8.90176 43.3601 9.33562 42.8438 9.88422C42.3156 10.4473 41.906 11.1105 41.6391 11.8347C41.0715 13.4221 41.0715 15.1569 41.6391 16.7443C41.9063 17.4683 42.3159 18.1316 42.8438 18.6948C43.3609 19.2425 43.9867 19.6762 44.6813 19.9681C45.4153 20.272 46.2035 20.4241 46.998 20.4153C47.8881 20.4356 48.7724 20.2674 49.5927 19.9218C50.3013 19.6121 50.9353 19.1542 51.4519 18.5791L52.9448 20.0709C52.2073 20.8226 51.3298 21.4228 50.3616 21.8376C49.3048 22.2795 48.168 22.4982 47.0226 22.4801V22.4801Z" fill="#3F3F3F"/>
<path d="M59.811 22.4801C58.8035 22.4936 57.8114 22.2324 56.9412 21.7248C56.0779 21.2196 55.3639 20.4949 54.872 19.6244C54.3801 18.7538 54.1278 17.7686 54.1408 16.7689C54.1266 15.765 54.3886 14.7765 54.8981 13.9112C55.3953 13.073 56.0986 12.3757 56.9412 11.8854C57.8112 11.3773 58.8034 11.1156 59.811 11.1286C60.8283 11.1148 61.8309 11.372 62.7156 11.8738C63.5795 12.3651 64.2959 13.0786 64.7904 13.9402C65.2849 14.8018 65.5395 15.7801 65.5276 16.7733C65.5385 17.5265 65.3981 18.2742 65.1147 18.9722C64.8313 19.6703 64.4106 20.3044 63.8776 20.837C63.3446 21.3697 62.71 21.7901 62.0115 22.0733C61.313 22.3565 60.5648 22.4968 59.811 22.4859V22.4801ZM59.811 20.4833C60.4638 20.4966 61.1075 20.3299 61.6717 20.0015C62.2035 19.6835 62.6397 19.2281 62.9343 18.6833C63.2476 18.094 63.4056 17.4347 63.3933 16.7675C63.4045 16.11 63.2422 15.4612 62.9227 14.8864C62.6238 14.3489 62.1883 13.8997 61.6601 13.5841C61.099 13.2756 60.4689 13.1138 59.8284 13.1138C59.1879 13.1138 58.5579 13.2756 57.9967 13.5841C57.465 13.8952 57.0284 14.3455 56.7341 14.8864C56.4217 15.4635 56.2636 16.1114 56.2751 16.7675C56.2623 17.4356 56.4203 18.096 56.7341 18.6862C57.0321 19.2396 57.4769 19.7004 58.0197 20.0179C58.5624 20.3354 59.1822 20.4974 59.811 20.4862V20.4833Z" fill="#3F3F3F"/>
<path d="M72.4155 22.4801C71.4671 22.4932 70.5349 22.234 69.7295 21.7335C68.9315 21.2357 68.2784 20.5371 67.8356 19.7077C67.3741 18.8128 67.1333 17.8206 67.1333 16.8138C67.1333 15.807 67.3741 14.8148 67.8356 13.9198C68.2808 13.0898 68.9333 12.389 69.7295 11.8854C70.5326 11.3785 71.4657 11.1155 72.4155 11.1286C73.1889 11.1162 73.9536 11.2936 74.6425 11.6452C75.2853 11.977 75.8333 12.4664 76.2352 13.0676C76.6476 13.693 76.8818 14.4188 76.9129 15.1671V18.4474C76.8788 19.1899 76.6491 19.9102 76.2468 20.5354C75.8529 21.1432 75.3068 21.6375 74.6628 21.9693C73.9666 22.3203 73.1951 22.4956 72.4155 22.4801V22.4801ZM72.7601 20.5296C73.3968 20.5424 74.0241 20.3753 74.5701 20.0477C75.0888 19.7274 75.5095 19.271 75.7864 18.7281C76.0851 18.1344 76.2342 17.4767 76.2208 16.8123C76.2356 16.1408 76.0865 15.4758 75.7864 14.8748C75.5095 14.332 75.0888 13.8755 74.5701 13.5552C74.0229 13.2268 73.3939 13.0598 72.7558 13.0734C72.1221 13.061 71.4973 13.2238 70.9502 13.5436C70.4296 13.8576 70.005 14.3079 69.7223 14.8459C69.4144 15.4446 69.2607 16.1104 69.2749 16.7834C69.2614 17.4604 69.4151 18.1303 69.7223 18.7339C70.0023 19.282 70.4321 19.7396 70.9618 20.0535C71.5065 20.3733 72.1284 20.538 72.7601 20.5296V20.5296ZM78.1784 22.25H76.089V19.3141L76.4799 16.6532L76.089 14.0139V5.8689H78.1784V22.25Z" fill="#3F3F3F"/>
<path d="M86.2378 22.4801C85.2052 22.498 84.1865 22.2402 83.2869 21.7335C82.434 21.2484 81.7246 20.5465 81.2307 19.699C80.7361 18.8121 80.4754 17.814 80.4734 16.7986C80.4714 15.7833 80.728 14.7841 81.2192 13.8952C81.7095 13.0388 82.4207 12.3294 83.2787 11.841C84.1367 11.3526 85.1101 11.1031 86.0973 11.1185C87.0316 11.1019 87.9526 11.34 88.7616 11.8072C89.5356 12.2594 90.1676 12.919 90.586 13.7115C91.0337 14.5671 91.2587 15.5214 91.2405 16.4867C91.2405 16.6401 91.2405 16.8051 91.2188 16.9802C91.1999 17.1772 91.169 17.3729 91.1261 17.5662H81.92V15.8443H90.0286L89.2713 16.5099C89.2905 15.8646 89.1565 15.224 88.8803 14.6404C88.6359 14.145 88.2532 13.7309 87.7784 13.4481C87.2542 13.1518 86.6588 13.0047 86.0568 13.0227C85.407 13.0091 84.7651 13.1674 84.1962 13.4814C83.6672 13.7807 83.2366 14.2271 82.9567 14.7663C82.654 15.371 82.5049 16.0409 82.5223 16.7168C82.5062 17.4135 82.6639 18.1032 82.9813 18.7238C83.2747 19.2863 83.7281 19.7496 84.2845 20.055C84.8838 20.377 85.5561 20.539 86.2364 20.5252C86.8145 20.5317 87.388 20.4224 87.9232 20.204C88.4334 19.9916 88.886 19.6613 89.2438 19.2403L90.5745 20.5947C90.0463 21.2008 89.3873 21.6793 88.6472 21.9939C87.8857 22.3187 87.0657 22.4842 86.2378 22.4801Z" fill="#3F3F3F"/>
<path d="M98.2673 22.4801C97.0279 22.4801 95.966 22.2505 95.0818 21.7913C94.1596 21.3033 93.3532 20.6228 92.7173 19.796L94.187 18.3273C94.6384 18.9822 95.2324 19.5264 95.9245 19.919C96.5819 20.2778 97.3932 20.4577 98.3585 20.4587C99.3074 20.4587 100.069 20.2523 100.643 19.8394C100.917 19.6512 101.139 19.3973 101.289 19.101C101.439 18.8047 101.513 18.4755 101.502 18.1435C101.502 17.5474 101.361 17.0651 101.078 16.6966C100.778 16.3175 100.399 16.0088 99.9672 15.7922C99.4793 15.5424 98.9724 15.3314 98.4512 15.1613C97.901 14.9781 97.3503 14.775 96.7991 14.5522C96.2591 14.3366 95.7475 14.0557 95.2758 13.7158C94.8069 13.3758 94.4253 12.9295 94.1623 12.4135C93.8872 11.8859 93.7497 11.2106 93.7497 10.3878C93.7249 9.57015 93.9529 8.76475 94.4027 8.08132C94.8525 7.4358 95.4725 6.92744 96.1938 6.61265C96.9993 6.25931 97.8714 6.08362 98.7509 6.09753C99.7192 6.08223 100.678 6.29019 101.553 6.70525C102.337 7.07704 103.028 7.62113 103.573 8.29692L102.103 9.76559C101.68 9.25629 101.162 8.83495 100.577 8.52554C99.9935 8.2451 99.3518 8.10722 98.7046 8.12328C97.8474 8.12328 97.1659 8.31043 96.6601 8.68471C96.4142 8.86417 96.2165 9.10148 96.0844 9.37559C95.9523 9.6497 95.8899 9.95215 95.9028 10.2561C95.8788 10.7279 96.0305 11.1918 96.3285 11.5584C96.6396 11.9096 97.0183 12.1945 97.442 12.3962C97.9359 12.6406 98.4458 12.8514 98.9681 13.0271C99.527 13.22 100.082 13.4303 100.633 13.6579C101.173 13.8809 101.683 14.1727 102.148 14.5261C102.618 14.8908 102.998 15.3574 103.261 15.8906C103.545 16.4491 103.687 17.149 103.687 17.9902C103.687 19.3985 103.201 20.5002 102.229 21.295C101.257 22.0899 99.9363 22.4849 98.2673 22.4801Z" fill="#3F3F3F"/>
<path d="M110.713 22.4801C109.757 22.4914 108.818 22.2326 108.003 21.7334C107.195 21.2409 106.533 20.5416 106.085 19.7077C105.624 18.8125 105.384 17.8204 105.384 16.8137C105.384 15.8071 105.624 14.815 106.085 13.9198C106.533 13.0879 107.19 12.3868 107.992 11.8854C108.807 11.3772 109.752 11.1145 110.713 11.1286C111.482 11.1155 112.243 11.293 112.928 11.6452C113.58 11.9816 114.13 12.4849 114.524 13.1037C114.917 13.7225 115.139 14.4346 115.167 15.1671V18.4474C115.132 19.1881 114.907 19.9074 114.512 20.5354C114.127 21.1421 113.588 21.6367 112.951 21.9693C112.258 22.3213 111.489 22.4968 110.713 22.4801V22.4801ZM111.059 20.5296C112.084 20.5296 112.91 20.1818 113.538 19.4863C114.165 18.7908 114.479 17.8995 114.479 16.8123C114.492 16.1384 114.346 15.4708 114.054 14.8632C113.788 14.3165 113.369 13.8583 112.848 13.5436C112.299 13.2222 111.672 13.0594 111.035 13.0733C110.401 13.0625 109.777 13.2295 109.233 13.5552C108.705 13.8754 108.273 14.3311 107.982 14.8748C107.667 15.4632 107.509 16.1222 107.521 16.7892C107.507 17.4641 107.665 18.1316 107.982 18.7281C108.276 19.2845 108.72 19.7479 109.264 20.0661C109.807 20.3843 110.429 20.5448 111.059 20.5296V20.5296ZM114.341 26.8166V19.521L114.731 16.8586L114.341 14.2193V11.3514H116.431V26.8166H114.341Z" fill="#3F3F3F"/>
<path d="M123.844 22.4338C123.001 22.4495 122.167 22.2503 121.422 21.855C120.718 21.4725 120.14 20.8945 119.758 20.191C119.348 19.4225 119.142 18.5614 119.161 17.6906V11.3514H121.228V17.5937C121.214 18.1264 121.32 18.6553 121.538 19.1419C121.728 19.5609 122.045 19.9099 122.444 20.1403C122.872 20.3765 123.355 20.4949 123.844 20.4833C124.657 20.4833 125.292 20.2271 125.75 19.7149C126.207 19.2027 126.437 18.4956 126.439 17.5937V11.3514H128.505V17.6848C128.524 18.5556 128.319 19.4168 127.909 20.1852C127.528 20.8866 126.954 21.4642 126.255 21.8492C125.515 22.2477 124.685 22.449 123.844 22.4338V22.4338Z" fill="#3F3F3F"/>
<path d="M135.922 22.4801C134.962 22.4942 134.019 22.2352 133.201 21.7335C132.398 21.2383 131.74 20.5393 131.295 19.7077C130.834 18.8128 130.593 17.8206 130.593 16.8138C130.593 15.807 130.834 14.8148 131.295 13.9198C131.743 13.0877 132.399 12.3865 133.201 11.8854C134.016 11.3773 134.961 11.1145 135.922 11.1286C136.691 11.1153 137.453 11.2928 138.137 11.6452C138.789 11.9816 139.339 12.4849 139.733 13.1037C140.126 13.7225 140.348 14.4346 140.375 15.1671V18.4474C140.342 19.1883 140.116 19.9078 139.721 20.5354C139.334 21.1445 138.791 21.6395 138.149 21.9693C137.459 22.3189 136.694 22.4943 135.922 22.4801V22.4801ZM136.266 20.5296C137.291 20.5296 138.118 20.1818 138.745 19.4863C139.373 18.7908 139.686 17.8995 139.686 16.8123C139.701 16.1372 139.551 15.4685 139.252 14.8633C138.981 14.3196 138.564 13.8625 138.047 13.5436C137.502 13.2215 136.878 13.0586 136.244 13.0734C135.603 13.0607 134.97 13.2276 134.419 13.5552C133.893 13.8743 133.464 14.3305 133.179 14.8748C132.873 15.4658 132.719 16.1238 132.732 16.7892C132.717 17.4626 132.871 18.129 133.179 18.7281C133.466 19.2749 133.899 19.7316 134.43 20.0477C134.986 20.3742 135.621 20.541 136.266 20.5296V20.5296ZM139.549 22.25V19.3141L139.94 16.6532L139.549 14.0139V11.3515H141.638V22.25H139.549Z" fill="#3F3F3F"/>
<path d="M149.237 22.4801C148.289 22.493 147.357 22.2339 146.551 21.7335C145.75 21.2341 145.095 20.5324 144.652 19.699C144.19 18.8041 143.949 17.8119 143.949 16.8051C143.949 15.7983 144.19 14.8061 144.652 13.9111C145.1 13.0836 145.754 12.3858 146.551 11.8854C147.354 11.3786 148.287 11.1157 149.237 11.1286C150.011 11.116 150.775 11.2934 151.464 11.6452C152.107 11.9766 152.655 12.4661 153.057 13.0676C153.469 13.693 153.704 14.4188 153.735 15.1671V18.4474C153.701 19.1899 153.471 19.9102 153.069 20.5354C152.675 21.1435 152.129 21.6379 151.484 21.9693C150.788 22.3203 150.017 22.4956 149.237 22.4801V22.4801ZM149.582 20.5296C150.22 20.5432 150.849 20.3761 151.396 20.0477C151.915 19.7274 152.336 19.271 152.612 18.7281C152.911 18.1344 153.06 17.4767 153.047 16.8123C153.062 16.1408 152.913 15.4758 152.612 14.8748C152.336 14.332 151.915 13.8755 151.396 13.5552C150.849 13.2268 150.22 13.0598 149.582 13.0734C148.945 13.0594 148.317 13.2222 147.768 13.5436C147.247 13.8576 146.822 14.3079 146.54 14.8459C146.232 15.4446 146.078 16.1104 146.092 16.7834C146.079 17.4604 146.232 18.1303 146.54 18.7339C146.82 19.2817 147.25 19.7391 147.779 20.0535C148.325 20.3741 148.949 20.5388 149.582 20.5296V20.5296ZM155 22.25H152.905V19.3141L153.296 16.6532L152.905 14.0139V5.8689H154.994L155 22.25Z" fill="#3F3F3F"/>
<path d="M12.2657 16.5723L10.6927 14.9993C10.0975 15.5934 9.29078 15.9272 8.44973 15.9272C7.60868 15.9272 6.80199 15.5934 6.20674 14.9993L4.63086 16.5723C5.64355 17.5842 7.01662 18.1527 8.44828 18.1527C9.87993 18.1527 11.253 17.5842 12.2657 16.5723Z" fill="url(#paint0_linear_2354_13065)"/>
<path d="M4.05206 12.8445C2.88517 11.6776 2.22963 10.0949 2.22963 8.44467C2.22963 6.7944 2.88517 5.21173 4.05206 4.0448L2.47474 2.4776C1.69017 3.26185 1.0678 4.193 0.643176 5.21784C0.218554 6.24267 0 7.34113 0 8.45045C0 9.55978 0.218554 10.6582 0.643176 11.6831C1.0678 12.7079 1.69017 13.6391 2.47474 14.4233L3.05357 15.0021L4.6309 13.4263L4.05206 12.8445Z" fill="url(#paint1_linear_2354_13065)"/>
<path d="M4.05206 17.154L4.6309 16.5752L6.20388 15.0022C6.79913 14.408 7.60582 14.0743 8.44687 14.0743C9.28792 14.0743 10.0946 14.408 10.6899 15.0022V15.0022L12.2628 16.5752C12.6798 16.1578 12.9139 15.5921 12.9139 15.0022C12.9139 14.4123 12.6798 13.8465 12.2628 13.4292C11.2501 12.4168 9.87671 11.848 8.4447 11.848C7.01269 11.848 5.6393 12.4168 4.62656 13.4292L3.05357 15.0022L2.47474 15.581C1.69017 16.3653 1.0678 17.2964 0.643177 18.3212C0.218554 19.3461 0 20.4445 0 21.5539C0 22.6632 0.218554 23.7616 0.643177 24.7865C1.0678 25.8113 1.69017 26.7425 2.47474 27.5267L4.05206 25.9537C2.88517 24.7868 2.22963 23.2041 2.22963 21.5539C2.22963 19.9036 2.88517 18.3209 4.05206 17.154V17.154Z" fill="url(#paint2_linear_2354_13065)"/>
<path d="M26.9464 14.9993L27.5253 14.4204C28.3098 13.6362 28.9322 12.7051 29.3568 11.6802C29.7815 10.6554 30 9.55692 30 8.44759C30 7.33827 29.7815 6.23981 29.3568 5.21497C28.9322 4.19013 28.3098 3.25899 27.5253 2.47474V2.47474C26.741 1.69017 25.8099 1.0678 24.785 0.643176C23.7602 0.218554 22.6617 0 21.5524 0C20.4431 0 19.3446 0.218554 18.3198 0.643176C17.295 1.0678 16.3638 1.69017 15.5796 2.47474L15.0007 3.05357L14.4219 2.47474C13.6376 1.69017 12.7065 1.0678 11.6817 0.643176C10.6568 0.218554 9.55836 0 8.44903 0C7.33971 0 6.24125 0.218554 5.21641 0.643176C4.19157 1.0678 3.26043 1.69017 2.47618 2.47474L4.05206 4.04483C5.21899 2.87794 6.80167 2.22239 8.45193 2.22239C10.1022 2.22239 11.6849 2.87794 12.8518 4.04483L13.4306 4.62366C12.929 5.12493 12.531 5.72015 12.2595 6.37528C11.988 7.03042 11.8483 7.73264 11.8483 8.44181C11.8483 9.15097 11.988 9.85319 12.2595 10.5083C12.531 11.1635 12.929 11.7587 13.4306 12.2599C13.8477 12.6768 14.4132 12.9109 15.0029 12.9109C15.5926 12.9109 16.1581 12.6768 16.5752 12.2599C17.0768 11.7587 17.4748 11.1635 17.7463 10.5083C18.0178 9.85319 18.1575 9.15097 18.1575 8.44181C18.1575 7.73264 18.0178 7.03042 17.7463 6.37528C17.4748 5.72015 17.0768 5.12493 16.5752 4.62366L17.154 4.04483C17.7305 3.4611 18.4167 2.99714 19.1732 2.67964C19.9297 2.36214 20.7415 2.19736 21.5619 2.1948C22.3823 2.19224 23.1951 2.35195 23.9536 2.66473C24.712 2.9775 25.4011 3.43718 25.9813 4.0173C26.5614 4.59742 27.0211 5.28653 27.3338 6.04498C27.6466 6.80343 27.8063 7.61625 27.8038 8.43666C27.8012 9.25707 27.6364 10.0689 27.3189 10.8254C27.0014 11.5818 26.5375 12.2681 25.9537 12.8446L25.3749 13.4234C24.8735 12.9219 24.2783 12.5241 23.6232 12.2527C22.968 11.9813 22.2659 11.8416 21.5568 11.8416C20.8476 11.8416 20.1455 11.9813 19.4903 12.2527C18.8352 12.5241 18.24 12.9219 17.7386 13.4234V13.4234C17.3217 13.8407 17.0875 14.4065 17.0875 14.9964C17.0875 15.5863 17.3217 16.1521 17.7386 16.5694C18.7514 17.5818 20.1247 18.1505 21.5568 18.1505C22.9888 18.1505 24.3622 17.5818 25.3749 16.5694V16.5694L25.9537 17.1482C27.1206 18.3151 27.7762 19.8978 27.7762 21.5481C27.7762 23.1983 27.1206 24.781 25.9537 25.948V25.948C24.7868 27.1148 23.2041 27.7704 21.5539 27.7704C19.9036 27.7704 18.3209 27.1148 17.154 25.948L16.5752 25.3691C17.0768 24.8678 17.4748 24.2726 17.7463 23.6175C18.0178 22.9624 18.1575 22.2601 18.1575 21.551C18.1575 20.8418 18.0178 20.1396 17.7463 19.4844C17.4748 18.8293 17.0768 18.2341 16.5752 17.7328C16.3687 17.5263 16.1236 17.3624 15.8539 17.2506C15.5841 17.1388 15.2949 17.0813 15.0029 17.0813C14.7109 17.0813 14.4217 17.1388 14.1519 17.2506C13.8822 17.3624 13.6371 17.5263 13.4306 17.7328C12.9289 18.2342 12.531 18.8296 12.2594 19.4848C11.9879 20.1401 11.8481 20.8424 11.8481 21.5517C11.8481 22.261 11.9879 22.9633 12.2594 23.6186C12.531 24.2738 12.9289 24.8692 13.4306 25.3706L12.8518 25.9494C11.6849 27.1163 10.1022 27.7718 8.45193 27.7718C6.80167 27.7718 5.21899 27.1163 4.05206 25.9494L2.47473 27.5267C4.05918 29.1102 6.20755 29.9997 8.44759 29.9997C10.6876 29.9997 12.836 29.1102 14.4204 27.5267L14.9993 26.9479L15.5781 27.5267C17.1626 29.1102 19.3109 29.9997 21.551 29.9997C23.791 29.9997 25.9394 29.1102 27.5238 27.5267V27.5267C28.3084 26.7425 28.9308 25.8113 29.3554 24.7865C29.78 23.7616 29.9986 22.6632 29.9986 21.5539C29.9986 20.4445 29.78 19.3461 29.3554 18.3212C28.9308 17.2964 28.3084 16.3653 27.5238 15.581L26.9464 14.9993ZM15.0007 10.6899C14.4087 10.0935 14.0764 9.28722 14.0764 8.44687C14.0764 7.60652 14.4087 6.80025 15.0007 6.20388C15.5949 6.79913 15.9286 7.60582 15.9286 8.44687C15.9286 9.28792 15.5949 10.0946 15.0007 10.6899V10.6899ZM19.3102 14.9993C19.9054 14.4051 20.7121 14.0714 21.5531 14.0714C22.3942 14.0714 23.2009 14.4051 23.7961 14.9993C23.2009 15.5935 22.3942 15.9272 21.5531 15.9272C20.7121 15.9272 19.9054 15.5935 19.3102 14.9993V14.9993ZM15.0007 23.799C14.4087 23.2027 14.0764 22.3964 14.0764 21.556C14.0764 20.7157 14.4087 19.9094 15.0007 19.3131C15.5949 19.9083 15.9286 20.715 15.9286 21.556C15.9286 22.3971 15.5949 23.2038 15.0007 23.799V23.799Z" fill="#73C92D"/>
<path fill-rule="evenodd" clip-rule="evenodd" d="M202 4H163V26H202V4ZM168.956 11.488V20H170.272V11.488H173.562V10.284H165.652V11.488H168.956ZM174.349 19.692C174.881 19.9907 175.478 20.14 176.141 20.14C176.663 20.14 177.153 20.042 177.611 19.846C178.077 19.65 178.469 19.3653 178.787 18.992L177.975 18.166C177.751 18.4273 177.48 18.6233 177.163 18.754C176.855 18.8847 176.514 18.95 176.141 18.95C175.693 18.95 175.296 18.8567 174.951 18.67C174.605 18.474 174.339 18.2033 174.153 17.858C174.038 17.641 173.959 17.403 173.915 17.144H179.123C179.151 17.004 179.169 16.8827 179.179 16.78C179.188 16.668 179.193 16.5653 179.193 16.472C179.193 15.8467 179.057 15.2867 178.787 14.792C178.525 14.2973 178.157 13.91 177.681 13.63C177.214 13.35 176.673 13.21 176.057 13.21C175.413 13.21 174.829 13.364 174.307 13.672C173.793 13.9707 173.383 14.3813 173.075 14.904C172.776 15.4267 172.627 16.0147 172.627 16.668C172.627 17.3307 172.781 17.9233 173.089 18.446C173.397 18.9687 173.817 19.384 174.349 19.692ZM173.917 16.094C173.96 15.8536 174.034 15.6342 174.139 15.436C174.316 15.1 174.568 14.8387 174.895 14.652C175.221 14.4653 175.599 14.372 176.029 14.372C176.439 14.372 176.789 14.4607 177.079 14.638C177.368 14.806 177.592 15.0487 177.751 15.366C177.859 15.5761 177.93 15.8188 177.965 16.094H173.917ZM181.743 19.692C182.237 19.9907 182.788 20.14 183.395 20.14C183.908 20.14 184.361 20.0373 184.753 19.832C185.1 19.646 185.385 19.4005 185.607 19.0954V20H186.881V13.35H185.607V14.2595C185.377 13.9533 185.088 13.7108 184.739 13.532C184.347 13.3173 183.899 13.21 183.395 13.21C182.779 13.21 182.223 13.364 181.729 13.672C181.243 13.98 180.856 14.3953 180.567 14.918C180.287 15.4407 180.147 16.0287 180.147 16.682C180.147 17.3353 180.287 17.9233 180.567 18.446C180.856 18.9687 181.248 19.384 181.743 19.692ZM185.117 18.32C184.734 18.74 184.23 18.95 183.605 18.95C183.185 18.95 182.811 18.852 182.485 18.656C182.158 18.46 181.901 18.194 181.715 17.858C181.537 17.5127 181.449 17.116 181.449 16.668C181.449 16.2293 181.537 15.842 181.715 15.506C181.901 15.1607 182.153 14.89 182.471 14.694C182.797 14.498 183.171 14.4 183.591 14.4C184.011 14.4 184.379 14.498 184.697 14.694C185.014 14.8807 185.257 15.1467 185.425 15.492C185.602 15.828 185.691 16.2247 185.691 16.682C185.691 17.3447 185.499 17.8907 185.117 18.32ZM188.715 13.35V20H189.975V15.968C189.975 15.6413 190.05 15.3613 190.199 15.128C190.348 14.8947 190.544 14.7127 190.787 14.582C191.03 14.4513 191.305 14.386 191.613 14.386C192.07 14.386 192.448 14.5307 192.747 14.82C193.055 15.1 193.209 15.4873 193.209 15.982V20H194.469V15.968C194.469 15.6413 194.544 15.3613 194.693 15.128C194.842 14.8947 195.038 14.7127 195.281 14.582C195.533 14.4513 195.813 14.386 196.121 14.386C196.569 14.386 196.942 14.5307 197.241 14.82C197.549 15.1 197.703 15.4873 197.703 15.982V20H198.977V15.73C198.977 15.2073 198.86 14.7593 198.627 14.386C198.403 14.0127 198.1 13.7233 197.717 13.518C197.334 13.3127 196.9 13.21 196.415 13.21C195.948 13.21 195.519 13.3173 195.127 13.532C194.735 13.7373 194.413 14.0267 194.161 14.4C194.158 14.4053 194.154 14.4105 194.151 14.4158C194.145 14.4058 194.139 14.3959 194.133 14.386C193.918 14.0127 193.62 13.7233 193.237 13.518C192.864 13.3127 192.444 13.21 191.977 13.21C191.501 13.21 191.072 13.3173 190.689 13.532C190.408 13.6826 190.17 13.8784 189.975 14.1194V13.35H188.715Z" fill="#3F3F3F"/>
<defs>
<linearGradient id="paint0_linear_2354_13065" x1="4.62941" y1="16.5766" x2="12.2657" y2="16.5766" gradientUnits="userSpaceOnUse">
<stop stop-color="#FF5539"/>
<stop offset="1" stop-color="#FF8E14"/>
</linearGradient>
<linearGradient id="paint1_linear_2354_13065" x1="0.000216795" y1="8.73481" x2="4.62945" y2="8.73481" gradientUnits="userSpaceOnUse">
<stop stop-color="#FF8E14"/>
<stop offset="1" stop-color="#FF5539"/>
</linearGradient>
<linearGradient id="paint2_linear_2354_13065" x1="0.121772" y1="19.685" x2="13.0385" y2="19.685" gradientUnits="userSpaceOnUse">
<stop stop-color="#FF8E14"/>
<stop offset="0.82" stop-color="#FF821B"/>
<stop offset="1" stop-color="#FE8C17"/>
</linearGradient>
</defs>
</svg>
