<svg width="60" height="60" viewBox="0 0 60 60" fill="none" xmlns="http://www.w3.org/2000/svg">
<path d="M24.5338 33.2151L21.393 30.0742C20.2 31.2653 18.5831 31.9344 16.8973 31.9344C15.2115 31.9344 13.5946 31.2653 12.4017 30.0742L9.26086 33.2151C10.2627 34.2198 11.4529 35.0169 12.7633 35.5608C14.0737 36.1047 15.4785 36.3847 16.8973 36.3847C18.3161 36.3847 19.721 36.1047 21.0314 35.5608C22.3418 35.0169 23.532 34.2198 24.5338 33.2151Z" fill="#FF6E56"/>
<path d="M12.4017 30.0067C13.5946 28.8156 15.2115 28.1466 16.8973 28.1466C18.5831 28.1466 20.2 28.8156 21.393 30.0067L24.5338 26.8659C23.532 25.8612 22.3418 25.0641 21.0314 24.5202C19.721 23.9763 18.3161 23.6963 16.8973 23.6963C15.4785 23.6963 14.0737 23.9763 12.7633 24.5202C11.4529 25.0641 10.2627 25.8612 9.26086 26.8659L12.4017 30.0067Z" fill="url(#paint0_linear_1431_4513)"/>
<path d="M26.8659 24.5337L30.0067 21.3928C28.8156 20.1999 28.1466 18.583 28.1466 16.8972C28.1466 15.2114 28.8156 13.5946 30.0067 12.4016L26.8659 9.26074C25.8612 10.2625 25.064 11.4527 24.5201 12.7632C23.9762 14.0736 23.6963 15.4784 23.6963 16.8972C23.6963 18.316 23.9762 19.7209 24.5201 21.0313C25.064 22.3417 25.8612 23.5319 26.8659 24.5337Z" fill="#5FB04E"/>
<path d="M30.0067 12.4016C31.1978 13.5946 31.8669 15.2114 31.8669 16.8972C31.8669 18.583 31.1978 20.1999 30.0067 21.3928L33.1476 24.5337C34.1523 23.5319 34.9494 22.3417 35.4933 21.0313C36.0372 19.7209 36.3172 18.316 36.3172 16.8972C36.3172 15.4784 36.0372 14.0736 35.4933 12.7632C34.9494 11.4527 34.1523 10.2625 33.1476 9.26074L30.0067 12.4016Z" fill="#7AC943"/>
<path d="M35.4796 26.8659L38.6205 30.0067C39.8134 28.8156 41.4304 28.1466 43.1162 28.1466C44.8019 28.1466 46.4188 28.8156 47.6117 30.0067L50.7526 26.8659C49.7508 25.8612 48.5606 25.0641 47.2502 24.5202C45.9398 23.9763 44.535 23.6963 43.1162 23.6963C41.6974 23.6963 40.2924 23.9763 38.982 24.5202C37.6716 25.0641 36.4814 25.8612 35.4796 26.8659Z" fill="#5FB04E"/>
<path d="M47.6117 30.0068C46.4188 31.198 44.8019 31.867 43.1162 31.867C41.4304 31.867 39.8134 31.198 38.6205 30.0068L35.4796 33.2151C36.4814 34.2198 37.6716 35.0169 38.982 35.5608C40.2924 36.1047 41.6974 36.3847 43.1162 36.3847C44.535 36.3847 45.9398 36.1047 47.2502 35.5608C48.5606 35.0169 49.7508 34.2198 50.7526 33.2151L47.6117 30.0068Z" fill="#7AC943"/>
<path d="M33.1476 35.4797L30.0067 38.6071C31.1978 39.8001 31.8669 41.417 31.8669 43.1027C31.8669 44.7885 31.1978 46.4054 30.0067 47.5984L33.1476 50.7392C34.1503 49.7377 34.9457 48.5483 35.4884 47.2391C36.0311 45.93 36.3105 44.5267 36.3105 43.1095C36.3105 41.6923 36.0311 40.289 35.4884 38.9798C34.9457 37.6707 34.1503 36.4813 33.1476 35.4797Z" fill="#5FB04E"/>
<path d="M26.8659 35.4797C25.8612 36.4815 25.064 37.6717 24.5201 38.9822C23.9762 40.2926 23.6963 41.6974 23.6963 43.1162C23.6963 44.535 23.9762 45.9399 24.5201 47.2503C25.064 48.5607 25.8612 49.7509 26.8659 50.7527L30.0067 47.6118C28.8156 46.4189 28.1466 44.802 28.1466 43.1162C28.1466 41.4304 28.8156 39.8135 30.0067 38.6206L26.8659 35.4797Z" fill="#7AC943"/>
<path d="M30.0067 38.607L33.1476 35.4796C32.7356 35.0663 32.2461 34.7384 31.7071 34.5147C31.1681 34.291 30.5903 34.1758 30.0067 34.1758C29.4231 34.1758 28.8454 34.291 28.3064 34.5147C27.7674 34.7384 27.2779 35.0663 26.8659 35.4796L30.0067 38.607Z" fill="#7AC943"/>
<path d="M21.393 30.0068L24.5338 33.2151C24.9471 32.8031 25.275 32.3136 25.4987 31.7746C25.7225 31.2356 25.8377 30.6578 25.8377 30.0742C25.8377 29.4906 25.7225 28.9128 25.4987 28.3738C25.275 27.8349 24.9471 27.3454 24.5338 26.9333L21.393 30.0068Z" fill="url(#paint1_linear_1431_4513)"/>
<path d="M30.0067 21.3931L26.8659 24.5339C27.2779 24.9472 27.7674 25.2751 28.3064 25.4989C28.8454 25.7226 29.4231 25.8378 30.0067 25.8378C30.5903 25.8378 31.1681 25.7226 31.7071 25.4989C32.2461 25.2751 32.7356 24.9472 33.1476 24.5339L30.0067 21.3931Z" fill="#7AC943"/>
<path d="M38.6205 30.0068L35.4796 26.866C35.0663 27.278 34.7384 27.7675 34.5147 28.3065C34.2909 28.8454 34.1758 29.4233 34.1758 30.0068C34.1758 30.5904 34.2909 31.1682 34.5147 31.7072C34.7384 32.2462 35.0663 32.7357 35.4796 33.1477L38.6205 30.0068Z" fill="#7AC943"/>
<defs>
<linearGradient id="paint0_linear_1431_4513" x1="9.26086" y1="26.8524" x2="24.5338" y2="26.8524" gradientUnits="userSpaceOnUse">
<stop stop-color="#FF931E"/>
<stop offset="0.2" stop-color="#FF8632"/>
<stop offset="1" stop-color="#FF931E"/>
</linearGradient>
<linearGradient id="paint1_linear_1431_4513" x1="21.393" y1="30.0068" x2="25.8414" y2="30.0068" gradientUnits="userSpaceOnUse">
<stop stop-color="#FF931E"/>
<stop offset="0.2" stop-color="#FF8632"/>
<stop offset="1" stop-color="#FF931E"/>
</linearGradient>
</defs>
</svg>
