<svg width="400" height="400" viewBox="0 0 400 400" fill="none" xmlns="http://www.w3.org/2000/svg">
<g clip-path="url(#clip0_1431_4335)">
<path d="M387.5 12.0688V387.069H12.5V12.0688H387.5V12.0688ZM387.5 -0.431175H12.5C9.18479 -0.431175 6.00536 0.885776 3.66116 3.22998C1.31695 5.57419 0 8.75362 0 12.0688V387.069C0 390.384 1.31695 393.563 3.66116 395.908C6.00536 398.252 9.18479 399.569 12.5 399.569H387.5C390.815 399.569 393.995 398.252 396.339 395.908C398.683 393.563 400 390.384 400 387.069V12.0688C400 8.75362 398.683 5.57419 396.339 3.22998C393.995 0.885776 390.815 -0.431175 387.5 -0.431175Z" fill="white" fill-opacity="0.2"/>
<path d="M362.432 46.9387H236.861C231.684 46.9387 227.486 51.136 227.486 56.3137V181.884C227.486 187.062 231.684 191.259 236.861 191.259H362.432C367.609 191.259 371.807 187.062 371.807 181.884V56.3137C371.807 51.136 367.609 46.9387 362.432 46.9387Z" fill="white" fill-opacity="0.2"/>
<path d="M120.017 48.6652L29.783 183.978C29.3138 184.684 29.045 185.504 29.0052 186.351C28.9654 187.198 29.156 188.04 29.5569 188.787C29.9578 189.535 30.5538 190.159 31.2815 190.594C32.0092 191.03 32.8413 191.259 33.6893 191.259H214.158C215.006 191.259 215.838 191.03 216.566 190.594C217.294 190.159 217.89 189.535 218.29 188.787C218.691 188.04 218.882 187.198 218.842 186.351C218.802 185.504 218.533 184.684 218.064 183.978L127.83 48.6652C127.402 48.0206 126.822 47.4918 126.14 47.1261C125.459 46.7603 124.697 46.5688 123.924 46.5688C123.15 46.5688 122.389 46.7603 121.707 47.1261C121.025 47.4918 120.445 48.0206 120.017 48.6652Z" fill="white" fill-opacity="0.2"/>
<path d="M367.236 210.118H33.9629C31.4395 210.118 29.3926 212.462 29.3926 215.275V348.986C29.3926 351.829 31.4395 354.142 33.9629 354.142H156.619C157.987 354.142 159.298 353.598 160.265 352.632C161.232 351.665 161.775 350.353 161.775 348.986V310.876C161.775 300.589 165.862 290.722 173.136 283.448C180.411 276.174 190.277 272.087 200.564 272.087C205.662 272.082 210.71 273.081 215.42 275.029C220.131 276.976 224.412 279.832 228.018 283.434C231.624 287.037 234.484 291.315 236.436 296.023C238.388 300.732 239.393 305.779 239.393 310.876V348.986C239.393 350.352 239.935 351.662 240.9 352.629C241.865 353.596 243.175 354.14 244.541 354.142H367.197C369.721 354.142 371.768 351.798 371.768 348.986V215.275C371.807 212.431 369.76 210.118 367.236 210.118Z" fill="white" fill-opacity="0.2"/>
<path d="M271.512 321.624V322.984H275.08V321.624H271.512ZM274.168 317.72V328.408H275.848V317.72H274.168ZM266.376 330.68V332.04H276.216V330.68H266.376ZM266.376 327.48V331.432H268.04V327.48H266.376ZM267.304 319.576V320.632C267.304 322.616 265.992 324.536 263.72 325.32L264.568 326.664C267.176 325.736 268.664 323.336 268.664 320.632V319.576H267.304ZM267.64 319.576V320.632C267.64 323.16 269.064 325.464 271.592 326.344L272.424 325.032C270.232 324.264 268.984 322.44 268.984 320.632V319.576H267.64ZM264.2 318.808V320.152H272.04V318.808H264.2ZM284.279 323.368V324.744H286.839V323.368H284.279ZM281.111 321.592V322.184C281.111 324.504 280.151 327 278.135 328.184L279.095 329.448C281.319 328.136 282.391 325.144 282.391 322.184V321.592H281.111ZM281.431 321.592V322.184C281.431 325.08 282.535 327.896 284.775 329.112L285.703 327.864C283.687 326.776 282.711 324.456 282.711 322.184V321.592H281.431ZM278.599 320.296V321.656H285.207V320.296H278.599ZM281.111 318.216V321.368H282.711V318.216H281.111ZM289.191 317.704V332.328H290.791V317.704H289.191ZM286.247 317.992V331.608H287.815V317.992H286.247ZM297.007 319.24V320.584H303.487V319.24H297.007ZM299.119 323.416V328.376H300.767V323.416H299.119ZM302.799 319.24V320.2C302.799 321.48 302.799 323.272 302.399 325.784L304.047 325.928C304.463 323.336 304.463 321.496 304.463 320.2V319.24H302.799ZM306.031 317.704V332.328H307.695V317.704H306.031ZM307.231 323.704V325.112H309.871V323.704H307.231ZM296.415 329.24C298.975 329.24 302.335 329.176 305.327 328.68L305.247 327.448C302.319 327.816 298.847 327.864 296.239 327.864L296.415 329.24ZM318.83 321.384V322.76H321.886V321.384H318.83ZM321.406 317.704V326.408H323.086V317.704H321.406ZM318.206 326.792C315.15 326.792 313.278 327.832 313.278 329.56C313.278 331.32 315.15 332.328 318.206 332.328C321.262 332.328 323.134 331.32 323.134 329.56C323.134 327.832 321.262 326.792 318.206 326.792ZM318.206 328.088C320.286 328.088 321.47 328.6 321.47 329.56C321.47 330.52 320.286 331.032 318.206 331.032C316.142 331.032 314.942 330.52 314.942 329.56C314.942 328.6 316.142 328.088 318.206 328.088ZM314.542 319.176V320.248C314.542 322.248 313.246 324.2 310.958 325L311.822 326.328C314.414 325.4 315.902 322.984 315.902 320.248V319.176H314.542ZM314.878 319.176V320.232C314.878 322.76 316.302 325.064 318.83 325.944L319.662 324.616C317.47 323.864 316.222 322.056 316.222 320.232V319.176H314.878ZM311.438 318.696V320.04H319.278V318.696H311.438ZM329.031 329.16V330.536H342.279V329.16H329.031ZM334.791 325.832V329.528H336.455V325.832H334.791ZM330.503 318.696V326.232H340.743V318.696H339.079V321.144H332.183V318.696H330.503ZM332.183 322.472H339.079V324.872H332.183V322.472ZM354.005 317.704V332.328H355.685V317.704H354.005ZM349.717 319.256V319.544C349.717 323.448 347.941 326.344 343.733 328.376L344.613 329.72C349.637 327.272 351.365 323.592 351.365 319.256H349.717ZM344.453 319.256V320.6H350.469V319.256H344.453ZM361.55 328.808L369.454 325.72V324.344L361.55 321.256V322.824L365.15 324.104L367.566 325V325.064L365.15 325.944L361.55 327.24V328.808Z" fill="#1B1B1B"/>
</g>
<defs>
<clipPath id="clip0_1431_4335">
<rect width="400" height="400" fill="white"/>
</clipPath>
</defs>
</svg>
