<svg width="80" height="80" viewBox="0 0 80 80" fill="none" xmlns="http://www.w3.org/2000/svg">
<path d="M72.4861 9.3877H47.3721C46.3365 9.3877 45.4971 10.2272 45.4971 11.2627V36.3768C45.4971 37.4123 46.3365 38.2518 47.3721 38.2518H72.4861C73.5217 38.2518 74.3611 37.4123 74.3611 36.3768V11.2627C74.3611 10.2272 73.5217 9.3877 72.4861 9.3877Z" fill="#1B1B1B" fill-opacity="0.2"/>
<path d="M24.0033 9.733L5.95641 36.7955C5.86257 36.9367 5.8088 37.1008 5.80084 37.2702C5.79288 37.4396 5.83101 37.608 5.91118 37.7574C5.99136 37.9069 6.11056 38.0318 6.2561 38.1188C6.40164 38.2059 6.56807 38.2518 6.73766 38.2517H42.8314C43.001 38.2518 43.1674 38.2059 43.313 38.1188C43.4585 38.0318 43.5777 37.9069 43.6579 37.7574C43.7381 37.608 43.7762 37.4396 43.7682 37.2702C43.7603 37.1008 43.7065 36.9367 43.6127 36.7955L25.5658 9.733C25.4803 9.60408 25.3642 9.49832 25.2279 9.42517C25.0915 9.35201 24.9392 9.31372 24.7845 9.31372C24.6298 9.31372 24.4775 9.35201 24.3412 9.42517C24.2049 9.49832 24.0888 9.60408 24.0033 9.733Z" fill="#1B1B1B" fill-opacity="0.2"/>
<path d="M73.4472 42.0237H6.79248C6.28779 42.0237 5.87842 42.4924 5.87842 43.0549V69.7971C5.87842 70.3659 6.28779 70.8284 6.79248 70.8284H31.3237C31.5972 70.8284 31.8595 70.7197 32.0529 70.5263C32.2463 70.3329 32.355 70.0706 32.355 69.7971V62.1752C32.355 60.1177 33.1723 58.1445 34.6272 56.6896C36.0821 55.2348 38.0553 54.4174 40.1128 54.4174C41.1322 54.4164 42.1419 54.6163 43.084 55.0057C44.0261 55.3951 44.8822 55.9664 45.6034 56.6869C46.3247 57.4074 46.8968 58.2629 47.2871 59.2047C47.6775 60.1464 47.8784 61.1558 47.8784 62.1752V69.7971C47.8784 70.0704 47.9869 70.3324 48.1799 70.5258C48.373 70.7191 48.6349 70.828 48.9081 70.8284H73.4394C73.944 70.8284 74.3534 70.3596 74.3534 69.7971V43.0549C74.3612 42.4862 73.9519 42.0237 73.4472 42.0237Z" fill="#1B1B1B" fill-opacity="0.2"/>
</svg>
