<svg width="80" height="80" viewBox="0 0 80 80" fill="none" xmlns="http://www.w3.org/2000/svg">
<path d="M54.2905 39.9641L59.7593 34.4954C65.8858 28.3808 70.9707 21.305 74.8124 13.5485V5.1438H55.6046C52.836 10.5184 49.2483 15.4297 44.9702 19.7016L39.5015 25.1704C30.3694 16.0142 18.0778 10.7026 5.15146 10.3266L5.36865 31.2735C12.6627 31.6968 19.5457 34.7904 24.7046 39.9641C19.4889 45.1959 12.5125 48.299 5.13428 48.6688L5.3624 69.5954C18.2131 69.1656 30.4178 63.858 39.4952 54.7516L44.964 60.2204C49.2503 64.5006 52.8434 69.4227 55.614 74.8094H74.8108V66.3719C70.9688 58.616 65.8845 51.5404 59.7593 45.425L54.2905 39.9641Z" fill="#1B1B1B" fill-opacity="0.2"/>
</svg>
