<svg width="24" height="24" viewBox="0 0 24 24" fill="none" xmlns="http://www.w3.org/2000/svg">
<path d="M11.1349 6.85511L8.12659 12.4527L6.04638 13.0284C6.26046 12.63 6.52983 12.2639 6.84647 11.9409C7.12928 11.6636 7.5066 11.5037 7.90259 11.4931C8.35699 11.4937 8.80606 11.5909 9.21993 11.7784C9.63379 11.966 10.003 12.2394 10.3029 12.5806C10.6664 12.9377 10.9511 13.367 11.1385 13.8408C11.3259 14.3146 11.4119 14.8223 11.391 15.3314C11.427 15.9175 11.3403 16.5048 11.1364 17.0555C10.9325 17.6063 10.6159 18.1084 10.2068 18.53C9.82158 18.9305 9.3594 19.2492 8.84796 19.4669C8.33652 19.6845 7.78637 19.7967 7.23049 19.7967C6.67462 19.7967 6.12447 19.6845 5.61303 19.4669C5.10159 19.2492 4.63941 18.9305 4.25418 18.53C3.83028 18.1164 3.4996 17.6171 3.28435 17.0655C3.0691 16.5139 2.9742 15.9226 3.006 15.3314C3.0207 14.7555 3.11773 14.1846 3.29407 13.6361C3.5625 12.7613 3.93874 11.9232 4.41416 11.1412L7.61452 4.99997L11.1349 6.85511ZM20.736 6.85511L17.7277 12.4527L15.6794 13.0284C15.8825 12.6232 16.1531 12.2554 16.4795 11.9409C16.6118 11.8018 16.7705 11.6906 16.9463 11.6137C17.1222 11.5368 17.3117 11.4958 17.5037 11.4931C17.9635 11.4891 18.4187 11.5841 18.8384 11.7718C19.2581 11.9595 19.6325 12.2354 19.9359 12.5806C20.289 12.9439 20.5647 13.3749 20.7462 13.8477C20.9278 14.3206 21.0114 14.8253 20.992 15.3314C21.0281 15.9175 20.9414 16.5048 20.7375 17.0555C20.5336 17.6063 20.217 18.1084 19.8079 18.53C19.4254 18.9296 18.966 19.2476 18.4572 19.4649C17.9484 19.6822 17.4009 19.7943 16.8476 19.7943C16.2943 19.7943 15.7467 19.6822 15.2379 19.4649C14.7291 19.2476 14.2697 18.9296 13.8872 18.53C13.4633 18.1164 13.1327 17.6171 12.9175 17.0655C12.7022 16.5139 12.6073 15.9226 12.6391 15.3314C12.6572 14.7582 12.7431 14.1891 12.8951 13.6361C13.1783 12.7669 13.5538 11.9305 14.0152 11.1412L17.2156 4.99997L20.736 6.85511Z" fill="#1B1B1B"/>
</svg>
