<svg width="60" height="60" viewBox="0 0 60 60" fill="none" xmlns="http://www.w3.org/2000/svg">
<g clip-path="url(#clip0_1431_4495)">
<path d="M8.10153 25.6931C5.79003 23.3627 4.49307 20.2133 4.49307 16.931C4.49307 13.6487 5.79003 10.4993 8.10153 8.16893L4.94723 4.90674C1.78215 8.07838 0.00457764 12.3761 0.00457764 16.8569C0.00457764 21.3376 1.78215 25.6353 4.94723 28.807L6.12 29.9663L9.26089 26.8254L8.10153 25.6931Z" fill="#FF6E56"/>
<path d="M6.18738 30.0068L5.01462 31.1661C1.84953 34.3378 0.0719604 38.6355 0.0719604 43.1163C0.0719604 47.597 1.84953 51.8947 5.01462 55.0664L8.16892 51.912C5.85741 49.5816 4.56045 46.4323 4.56045 43.1499C4.56045 39.8676 5.85741 36.7183 8.16892 34.3879L9.32827 33.2151L6.18738 30.0068Z" fill="url(#paint0_linear_1431_4495)"/>
<path d="M30.0067 6.12002L28.8474 4.94725C25.6775 1.77887 21.3792 -0.000976562 16.8973 -0.000976562C12.4155 -0.000976562 8.1171 1.77887 4.9472 4.94725L8.10151 8.1016C9.25498 6.94367 10.6258 6.02489 12.1352 5.39797C13.6446 4.77105 15.2629 4.44833 16.8973 4.44833C18.5317 4.44833 20.1501 4.77105 21.6595 5.39797C23.1689 6.02489 24.5396 6.94367 25.693 8.1016L26.8659 9.26089L30.0067 6.12002Z" fill="#7AC943"/>
<path d="M33.1476 9.2608L34.3204 8.10151C36.6473 5.78347 39.798 4.48194 43.0824 4.48194C46.3669 4.48194 49.5176 5.78347 51.8445 8.10151L55.0663 4.90673C51.8964 1.73835 47.598 -0.0415039 43.1162 -0.0415039C38.6343 -0.0415039 34.336 1.73835 31.1661 4.90673L30.0067 6.0795L33.1476 9.2608Z" fill="#5FB04E"/>
<path d="M53.8935 30.0068L55.0663 28.8475C58.2314 25.6759 60.0089 21.3781 60.0089 16.8974C60.0089 12.4166 58.2314 8.11891 55.0663 4.94727L51.9119 8.10161C54.2439 10.4348 55.554 13.5986 55.554 16.8974C55.554 20.1962 54.2439 23.36 51.9119 25.6932L50.7526 26.8659L53.8935 30.0068Z" fill="#7AC943"/>
<path d="M51.9119 34.3205C54.2234 36.6509 55.5204 39.8002 55.5204 43.0826C55.5204 46.3649 54.2234 49.5143 51.9119 51.8446L55.0663 54.999C58.2314 51.8274 60.0089 47.5296 60.0089 43.0489C60.0089 38.5681 58.2314 34.2704 55.0663 31.0987L53.8935 29.9395L50.7526 33.2151L51.9119 34.3205Z" fill="#5FB04E"/>
<path d="M25.693 51.912C24.5396 53.07 23.1689 53.9887 21.6595 54.6157C20.1501 55.2426 18.5317 55.5653 16.8973 55.5653C15.2629 55.5653 13.6446 55.2426 12.1352 54.6157C10.6258 53.9887 9.25498 53.07 8.10151 51.912L4.9472 55.0664C8.1171 58.2348 12.4155 60.0146 16.8973 60.0146C21.3792 60.0146 25.6775 58.2348 28.8474 55.0664L30.0067 53.8936L26.8659 50.7393L25.693 51.912Z" fill="#5FB04E"/>
<path d="M30.0067 53.8936L31.1661 55.0664C34.336 58.2348 38.6343 60.0146 43.1162 60.0146C47.598 60.0146 51.8964 58.2348 55.0663 55.0664L51.9119 51.912C49.585 54.2301 46.4343 55.5316 43.1498 55.5316C39.8653 55.5316 36.7147 54.2301 34.3878 51.912L33.1476 50.7393L30.0067 53.8936Z" fill="#7AC943"/>
</g>
<defs>
<linearGradient id="paint0_linear_1431_4495" x1="1.60273e-05" y1="42.5299" x2="9.26087" y2="42.5299" gradientUnits="userSpaceOnUse">
<stop stop-color="#FF931E"/>
<stop offset="0.2" stop-color="#FF8632"/>
<stop offset="1" stop-color="#FF931E"/>
</linearGradient>
<clipPath id="clip0_1431_4495">
<rect width="60" height="60" fill="white"/>
</clipPath>
</defs>
</svg>
