<svg width="120" height="120" viewBox="0 0 120 120" fill="none" xmlns="http://www.w3.org/2000/svg">
<g clip-path="url(#clip0_3204_353)">
<rect width="120" height="120" fill="#FFC587"/>
<path d="M113.7 111.865L111.945 108.01C109.2 101.995 102.645 98.9501 96.45 100.39C83.535 73.5851 60.465 65.5901 60.465 65.5901C60.465 65.5901 37.395 73.6001 24.48 100.39C18.285 98.9351 11.73 101.995 8.98505 108.01L7.23005 111.865C4.11005 118.72 7.12505 126.805 13.965 129.925L17.82 131.68C24.675 134.8 32.76 131.785 35.88 124.945L37.635 121.09C38.88 118.36 39.135 115.45 38.58 112.72H82.3201C81.7651 115.45 82.02 118.36 83.265 121.09L85.0201 124.945C88.14 131.8 96.2401 134.815 103.08 131.68L106.935 129.925C113.79 126.805 116.805 118.705 113.67 111.865H113.7Z" fill="#F8FAFF" stroke="#1B1B1B" stroke-width="2" stroke-miterlimit="10"/>
<path d="M70.7401 52.72H49.2601C38.1301 52.72 29.1001 43.69 29.1001 32.56V24.01C29.1001 17.755 35.9701 13.915 41.2951 17.2L74.9401 37.9C81.8101 42.13 78.8101 52.72 70.7401 52.72Z" fill="#F8FAFF" stroke="#1B1B1B" stroke-width="2" stroke-miterlimit="10"/>
<path d="M50.2051 52.72H71.6851C82.8151 52.72 91.8451 43.69 91.8451 32.56V24.01C91.8451 17.755 84.9751 13.915 79.6501 17.2L46.0051 37.9C39.1351 42.13 42.1351 52.72 50.2051 52.72Z" fill="#F8FAFF" stroke="#1B1B1B" stroke-width="2" stroke-miterlimit="10"/>
<path d="M90.3901 55.915C90.4201 55.345 90.4801 54.79 90.4801 54.22C90.4801 37.645 77.0551 24.22 60.4801 24.22C43.9051 24.22 30.4651 37.66 30.4651 54.22C30.4651 54.79 30.5251 55.345 30.5551 55.915C28.7551 58.105 27.6901 60.91 27.6901 63.97C27.6901 71.005 33.4051 76.72 40.4401 76.72C40.5151 76.72 40.5901 76.72 40.6651 76.72C45.9451 81.385 52.8751 81.235 60.4801 81.235C68.0851 81.235 75.0001 81.385 80.2951 76.72C80.3701 76.72 80.4451 76.72 80.5201 76.72C87.5551 76.72 93.2701 71.005 93.2701 63.97C93.2701 60.91 92.1901 58.105 90.4051 55.915H90.3901Z" fill="#F8FAFF" stroke="#1B1B1B" stroke-width="2" stroke-miterlimit="10"/>
<path d="M57.465 51.3848V58.2098" stroke="#1B1B1B" stroke-width="2" stroke-linejoin="bevel"/>
<path d="M63.465 51.3848V58.2098" stroke="#1B1B1B" stroke-width="2" stroke-linejoin="bevel"/>
<path d="M36.465 107.92V138.265C36.465 138.265 36.435 138.34 36.39 138.34H35.625C28.32 138.34 21.93 143.845 21.48 151.135C21 159.04 27.285 165.61 35.085 165.61H46.815C54.345 165.61 60.45 159.505 60.45 151.975C60.45 159.505 66.555 165.61 74.085 165.61H85.815C93.63 165.61 99.9 159.04 99.42 151.135C98.985 143.845 92.58 138.34 85.275 138.34H84.51C84.51 138.34 84.435 138.31 84.435 138.265L84.36 107.86" fill="#F8FAFF"/>
<path d="M36.465 107.92V138.265C36.465 138.265 36.435 138.34 36.39 138.34H35.625C28.32 138.34 21.93 143.845 21.48 151.135C21 159.04 27.285 165.61 35.085 165.61H46.815C54.345 165.61 60.45 159.505 60.45 151.975C60.45 159.505 66.555 165.61 74.085 165.61H85.815C93.63 165.61 99.9 159.04 99.42 151.135C98.985 143.845 92.58 138.34 85.275 138.34H84.51C84.51 138.34 84.435 138.31 84.435 138.265L84.36 107.86" stroke="#1B1B1B" stroke-width="2" stroke-miterlimit="10"/>
<path d="M44.0701 52.8848C47.4301 54.1298 49.9651 56.3048 51.4651 58.7198" stroke="#C4C4C4" stroke-width="2" stroke-miterlimit="10"/>
<path d="M41.4601 57.7448C44.6701 57.7298 47.6551 58.5248 50.1751 59.8748" stroke="#C4C4C4" stroke-width="2" stroke-miterlimit="10"/>
<path d="M76.8751 52.8848C73.5151 54.1298 70.9801 56.3048 69.4801 58.7198" stroke="#C4C4C4" stroke-width="2" stroke-miterlimit="10"/>
<path d="M79.4701 57.7448C76.2601 57.7298 73.2751 58.5248 70.7551 59.8748" stroke="#C4C4C4" stroke-width="2" stroke-miterlimit="10"/>
</g>
<defs>
<clipPath id="clip0_3204_353">
<rect width="120" height="120" fill="white"/>
</clipPath>
</defs>
</svg>
