<svg width="120" height="120" viewBox="0 0 120 120" fill="none" xmlns="http://www.w3.org/2000/svg">
<g clip-path="url(#clip0_2532_14950)">
<rect width="120" height="120" fill="#FFC587"/>
<path d="M113.7 104.865L111.945 101.01C109.2 94.9948 102.645 91.9498 96.45 93.3898C83.535 66.5848 60.465 58.5898 60.465 58.5898C60.465 58.5898 37.395 66.5998 24.48 93.3898C18.285 91.9348 11.73 94.9948 8.98505 101.01L7.23005 104.865C4.11005 111.72 7.12505 119.805 13.965 122.925L17.82 124.68C24.675 127.8 32.76 124.785 35.88 117.945L37.635 114.09C38.88 111.36 39.135 108.45 38.58 105.72H82.32C81.765 108.45 82.02 111.36 83.265 114.09L85.02 117.945C88.14 124.8 96.2401 127.815 103.08 124.68L106.935 122.925C113.79 119.805 116.805 111.705 113.67 104.865H113.7Z" fill="#F8FAFF" stroke="black" stroke-width="2" stroke-miterlimit="10"/>
<path d="M70.7401 45.72H49.2601C38.1301 45.72 29.1001 36.69 29.1001 25.56V17.01C29.1001 10.755 35.9701 6.91498 41.2951 10.2L74.9401 30.9C81.8101 35.13 78.8101 45.72 70.7401 45.72V45.72Z" fill="#F8FAFF" stroke="black" stroke-width="2" stroke-miterlimit="10"/>
<path d="M50.2051 45.72H71.6851C82.8151 45.72 91.8451 36.69 91.8451 25.56V17.01C91.8451 10.755 84.9751 6.91498 79.6501 10.2L46.0051 30.9C39.1351 35.13 42.1351 45.72 50.2051 45.72V45.72Z" fill="#F8FAFF" stroke="black" stroke-width="2" stroke-miterlimit="10"/>
<path d="M90.3901 48.9147C90.4201 48.3447 90.4801 47.7897 90.4801 47.2197C90.4801 30.6447 77.0551 17.2197 60.4801 17.2197C43.9051 17.2197 30.4651 30.6597 30.4651 47.2197C30.4651 47.7897 30.5251 48.3447 30.5551 48.9147C28.7551 51.1047 27.6901 53.9097 27.6901 56.9697C27.6901 64.0047 33.4051 69.7197 40.4401 69.7197C40.5151 69.7197 40.5901 69.7197 40.6651 69.7197C45.9451 74.3847 52.8751 74.2347 60.4801 74.2347C68.0851 74.2347 75.0001 74.3847 80.2951 69.7197C80.3701 69.7197 80.4451 69.7197 80.5201 69.7197C87.5551 69.7197 93.2701 64.0047 93.2701 56.9697C93.2701 53.9097 92.1901 51.1047 90.4051 48.9147H90.3901Z" fill="#F8FAFF" stroke="black" stroke-width="2" stroke-miterlimit="10"/>
<path d="M57.465 44.3848V51.2098" stroke="#1B1B1B" stroke-width="2" stroke-linejoin="bevel"/>
<path d="M63.465 44.3848V51.2098" stroke="#1B1B1B" stroke-width="2" stroke-linejoin="bevel"/>
<path d="M36.465 100.92V131.265C36.465 131.265 36.435 131.34 36.39 131.34H35.625C28.32 131.34 21.93 136.845 21.48 144.135C21 152.04 27.285 158.61 35.085 158.61H46.815C54.345 158.61 60.45 152.505 60.45 144.975C60.45 152.505 66.555 158.61 74.085 158.61H85.815C93.63 158.61 99.9 152.04 99.42 144.135C98.985 136.845 92.58 131.34 85.275 131.34H84.51C84.51 131.34 84.435 131.31 84.435 131.265L84.36 100.86" fill="#F8FAFF"/>
<path d="M36.465 100.92V131.265C36.465 131.265 36.435 131.34 36.39 131.34H35.625C28.32 131.34 21.93 136.845 21.48 144.135C21 152.04 27.285 158.61 35.085 158.61H46.815C54.345 158.61 60.45 152.505 60.45 144.975C60.45 152.505 66.555 158.61 74.085 158.61H85.815C93.63 158.61 99.9 152.04 99.42 144.135C98.985 136.845 92.58 131.34 85.275 131.34H84.51C84.51 131.34 84.435 131.31 84.435 131.265L84.36 100.86" stroke="black" stroke-width="2" stroke-miterlimit="10"/>
<path d="M44.0701 45.8848C47.4301 47.1298 49.9651 49.3048 51.4651 51.7198" stroke="#C4C4C4" stroke-width="2" stroke-miterlimit="10"/>
<path d="M41.4601 50.7448C44.6701 50.7298 47.6551 51.5248 50.1751 52.8748" stroke="#C4C4C4" stroke-width="2" stroke-miterlimit="10"/>
<path d="M76.8751 45.8848C73.5151 47.1298 70.9801 49.3048 69.4801 51.7198" stroke="#C4C4C4" stroke-width="2" stroke-miterlimit="10"/>
<path d="M79.4701 50.7448C76.2601 50.7298 73.2751 51.5248 70.7551 52.8748" stroke="#C4C4C4" stroke-width="2" stroke-miterlimit="10"/>
</g>
<defs>
<clipPath id="clip0_2532_14950">
<rect width="120" height="120" fill="white"/>
</clipPath>
</defs>
</svg>
