<svg width="120" height="120" viewBox="0 0 120 120" fill="none" xmlns="http://www.w3.org/2000/svg">
<g clip-path="url(#clip0_3204_355)">
<rect width="120" height="120" fill="#B4E791"/>
<path d="M84.63 118.619C84.12 121.544 84.6 124.649 86.205 127.424L87.285 129.314C90.915 135.614 98.97 137.774 105.27 134.129L111.045 130.799C117.345 127.169 119.505 119.114 115.86 112.814L114.78 110.924C112.08 106.244 106.95 103.859 101.91 104.429C96.165 85.2594 79.125 71.3694 58.98 71.3694C38.835 71.3694 21.78 85.2744 16.05 104.429C11.01 103.859 5.88001 106.244 3.18001 110.924L2.10001 112.814C-1.52999 119.114 0.615007 127.154 6.91501 130.799L12.69 134.129C18.99 137.759 27.03 135.614 30.675 129.314L31.755 127.424C33.36 124.649 33.825 121.544 33.33 118.619" fill="#FFA543"/>
<path fill-rule="evenodd" clip-rule="evenodd" d="M33.3299 118.619C33.8249 121.544 33.3599 124.649 31.7549 127.424L30.6749 129.314C27.0299 135.614 18.9899 137.759 12.6899 134.129L6.91495 130.799C0.614946 127.154 -1.53005 119.114 2.09995 112.814L3.17995 110.924C5.50509 106.894 9.63233 104.566 13.9523 104.361L33.3299 118.619Z" fill="white"/>
<path fill-rule="evenodd" clip-rule="evenodd" d="M104.008 104.361L84.63 118.619L84.63 118.62C84.12 121.544 84.6 124.649 86.205 127.424L87.285 129.314C90.915 135.614 98.97 137.774 105.27 134.129L111.045 130.799C117.345 127.169 119.505 119.114 115.86 112.814L114.78 110.924C112.455 106.894 108.328 104.566 104.008 104.361Z" fill="white"/>
<path d="M84.63 118.619C84.12 121.544 84.6 124.649 86.205 127.424L87.285 129.314C90.915 135.614 98.97 137.774 105.27 134.129L111.045 130.799C117.345 127.169 119.505 119.114 115.86 112.814L114.78 110.924C112.08 106.244 106.95 103.859 101.91 104.429C96.165 85.2594 79.125 71.3694 58.98 71.3694C38.835 71.3694 21.78 85.2744 16.05 104.429C11.01 103.859 5.88001 106.244 3.18001 110.924L2.10001 112.814C-1.52999 119.114 0.615007 127.154 6.91501 130.799L12.69 134.129C18.99 137.759 27.03 135.614 30.675 129.314L31.755 127.424C33.36 124.649 33.825 121.544 33.33 118.619" stroke="#1B1B1B" stroke-width="2" stroke-miterlimit="10"/>
<path d="M32.505 109.77L35.13 138.27H32.79C23.655 138.27 16.245 145.68 16.245 154.815C16.245 163.95 23.655 171.36 32.79 171.36H44.745C58.995 171.36 58.995 156.195 58.995 150.375C58.995 156.66 58.995 171.36 73.245 171.36H85.2C94.335 171.36 101.745 163.95 101.745 154.815C101.745 145.68 94.335 138.27 85.2 138.27H82.86L85.35 108.72" fill="#FFA543"/>
<path d="M32.505 109.77L35.13 138.27H32.79C23.655 138.27 16.245 145.68 16.245 154.815C16.245 163.95 23.655 171.36 32.79 171.36H44.745C58.995 171.36 58.995 156.195 58.995 150.375C58.995 156.66 58.995 171.36 73.245 171.36H85.2C94.335 171.36 101.745 163.95 101.745 154.815C101.745 145.68 94.335 138.27 85.2 138.27H82.86L85.35 108.72" stroke="#1B1B1B" stroke-width="2" stroke-miterlimit="10"/>
<path d="M88.9799 55.7547C88.9799 55.7547 88.905 55.7547 88.86 55.7547C88.89 55.1997 88.95 54.6597 88.95 54.1047C88.95 50.8347 88.38 47.6847 87.345 44.7447C87.1349 44.1597 87.465 43.5297 88.0649 43.3797C89.625 42.9897 91.1099 42.2097 92.34 40.9947C96.3599 36.9747 96.3599 30.4797 92.34 26.4597L88.845 22.9647C84.825 18.9447 78.33 18.9447 74.31 22.9647C73.26 24.0147 72.51 25.2747 72.075 26.5947C71.88 27.1797 71.235 27.4347 70.68 27.2097C67.08 25.7097 63.135 24.8697 58.9799 24.8697C54.825 24.8697 50.88 25.7247 47.28 27.2097C46.725 27.4497 46.08 27.1797 45.885 26.5947C45.45 25.2747 44.6999 24.0147 43.65 22.9647C39.6299 18.9447 33.135 18.9447 29.115 22.9647L25.62 26.4597C21.6 30.4797 21.6 36.9747 25.62 40.9947C26.85 42.2247 28.32 43.0047 29.895 43.3797C30.495 43.5297 30.825 44.1597 30.615 44.7447C29.595 47.6847 29.01 50.8197 29.01 54.1047C29.01 54.6597 29.07 55.2147 29.1 55.7547C29.055 55.7547 29.025 55.7547 28.98 55.7547C24.825 55.7547 21.45 59.0547 21.45 63.1047C21.45 67.1547 24.825 70.4547 28.98 70.4547C29.265 70.4547 29.52 70.4097 29.79 70.3797C29.745 70.6947 29.685 71.0247 29.685 71.3547C29.685 75.4197 33.06 78.7047 37.215 78.7047C38.445 78.7047 39.585 78.4047 40.605 77.8947C40.95 77.7147 41.37 77.7297 41.685 77.9547C46.575 81.3297 52.515 83.3397 58.965 83.3397C65.415 83.3397 71.355 81.3297 76.245 77.9547C76.575 77.7297 76.9799 77.7147 77.325 77.8947C78.345 78.4047 79.485 78.7047 80.715 78.7047C84.87 78.7047 88.245 75.4047 88.245 71.3547C88.245 71.0247 88.185 70.7097 88.14 70.3797C88.41 70.4097 88.68 70.4547 88.95 70.4547C93.1049 70.4547 96.4799 67.1547 96.4799 63.1047C96.4799 59.0547 93.1049 55.7547 88.95 55.7547H88.9799Z" fill="#FFA543"/>
<path fill-rule="evenodd" clip-rule="evenodd" d="M88.9717 55.7547H88.9649L88.9764 55.7555L67.6799 60.3447C66.7649 56.3397 63.1949 53.3547 58.9199 53.3547C54.6449 53.3547 51.0899 56.3247 50.1599 60.3147L29.0999 55.7697L25.3744 56.6533C23.037 57.9029 21.45 60.3275 21.45 63.1047C21.45 67.1547 24.825 70.4547 28.98 70.4547C29.1916 70.4547 29.3867 70.4299 29.5837 70.4048C29.652 70.3961 29.7205 70.3874 29.79 70.3797C29.7821 70.4349 29.7737 70.4906 29.7653 70.5466C29.7258 70.8104 29.685 71.0825 29.685 71.3547C29.685 75.4197 33.06 78.7047 37.215 78.7047C38.445 78.7047 39.585 78.4047 40.605 77.8947C40.95 77.7147 41.37 77.7297 41.685 77.9547C46.575 81.3297 52.515 83.3397 58.965 83.3397C65.415 83.3397 71.355 81.3297 76.245 77.9547C76.575 77.7297 76.9799 77.7147 77.325 77.8947C78.345 78.4047 79.485 78.7047 80.715 78.7047C84.87 78.7047 88.245 75.4047 88.245 71.3547C88.245 71.0962 88.2081 70.847 88.1706 70.5925C88.1602 70.5221 88.1497 70.4512 88.14 70.3797C88.2075 70.3872 88.275 70.3956 88.3425 70.4041C88.545 70.4294 88.7475 70.4547 88.95 70.4547C93.1049 70.4547 96.4799 67.1547 96.4799 63.1047C96.4799 59.3892 93.6394 56.3049 89.962 55.8208L88.9764 55.7555L88.9798 55.7548C88.9771 55.7548 88.9744 55.7547 88.9717 55.7547Z" fill="#F8FAFF"/>
<path d="M88.98 55.7547C88.98 55.7547 88.905 55.7547 88.86 55.7547C88.89 55.1997 88.95 54.6597 88.95 54.1047C88.95 50.8347 88.38 47.6847 87.345 44.7447C87.135 44.1597 87.465 43.5297 88.065 43.3797C89.625 42.9897 91.1099 42.2097 92.3399 40.9947C96.3599 36.9747 96.3599 30.4797 92.3399 26.4597L88.845 22.9647C84.825 18.9447 78.33 18.9447 74.31 22.9647C73.26 24.0147 72.51 25.2747 72.075 26.5947C71.88 27.1797 71.235 27.4347 70.68 27.2097C67.08 25.7097 63.135 24.8697 58.98 24.8697C54.825 24.8697 50.88 25.7247 47.28 27.2097C46.725 27.4497 46.08 27.1797 45.885 26.5947C45.45 25.2747 44.7 24.0147 43.65 22.9647C39.6299 18.9447 33.135 18.9447 29.115 22.9647L25.62 26.4597C21.6 30.4797 21.6 36.9747 25.62 40.9947C26.85 42.2247 28.32 43.0047 29.895 43.3797C30.495 43.5297 30.825 44.1597 30.615 44.7447C29.595 47.6847 29.01 50.8197 29.01 54.1047C29.01 54.6597 29.07 55.2147 29.1 55.7547C29.055 55.7547 29.025 55.7547 28.98 55.7547C24.825 55.7547 21.45 59.0547 21.45 63.1047C21.45 67.1547 24.825 70.4547 28.98 70.4547C29.265 70.4547 29.52 70.4097 29.79 70.3797C29.745 70.6947 29.685 71.0247 29.685 71.3547C29.685 75.4197 33.06 78.7047 37.215 78.7047C38.445 78.7047 39.585 78.4047 40.605 77.8947C40.95 77.7147 41.37 77.7297 41.685 77.9547C46.575 81.3297 52.515 83.3397 58.965 83.3397C65.415 83.3397 71.355 81.3297 76.245 77.9547C76.575 77.7297 76.98 77.7147 77.325 77.8947C78.345 78.4047 79.485 78.7047 80.715 78.7047C84.87 78.7047 88.245 75.4047 88.245 71.3547C88.245 71.0247 88.1849 70.7097 88.1399 70.3797C88.4099 70.4097 88.68 70.4547 88.95 70.4547C93.105 70.4547 96.48 67.1547 96.48 63.1047C96.48 59.0547 93.105 55.7547 88.95 55.7547H88.98Z" stroke="#1B1B1B" stroke-width="2" stroke-miterlimit="10"/>
<path d="M55.98 47.8797V54.7047" stroke="#1B1B1B" stroke-width="2" stroke-linejoin="bevel"/>
<path d="M61.98 47.8797V54.7047" stroke="#1B1B1B" stroke-width="2" stroke-linejoin="bevel"/>
<path d="M29.0099 54.1197L37.9199 56.3697" stroke="#1B1B1B" stroke-width="2" stroke-linejoin="bevel"/>
<path d="M30.5099 49.6197L39.4199 51.8697" stroke="#1B1B1B" stroke-width="2" stroke-linejoin="bevel"/>
<path d="M88.935 54.1197L80.04 56.3697" stroke="#1B1B1B" stroke-width="2" stroke-linejoin="bevel"/>
<path d="M87.435 49.6197L78.54 51.8697" stroke="#1B1B1B" stroke-width="2" stroke-linejoin="bevel"/>
<path d="M58.98 24.8697V34.3047" stroke="#1B1B1B" stroke-width="2" stroke-linejoin="bevel"/>
<path d="M54.48 24.8697V32.3697" stroke="#1B1B1B" stroke-width="2" stroke-linejoin="bevel"/>
<path d="M63.48 24.8697V32.3697" stroke="#1B1B1B" stroke-width="2" stroke-linejoin="bevel"/>
<path d="M58.98 147.869C70.2715 147.869 79.425 134.774 79.425 118.619C79.425 102.465 70.2715 89.3694 58.98 89.3694C47.6886 89.3694 38.535 102.465 38.535 118.619C38.535 134.774 47.6886 147.869 58.98 147.869Z" fill="#F8FAFF"/>
<path d="M21.4349 94.3345L29.0099 97.9945" stroke="#1B1B1B" stroke-width="2" stroke-linejoin="bevel"/>
<path d="M25.23 87.375L32.925 90.87" stroke="#1B1B1B" stroke-width="2" stroke-linejoin="bevel"/>
<path d="M96.5099 94.3345L88.9349 97.9945" stroke="#1B1B1B" stroke-width="2" stroke-linejoin="bevel"/>
<path d="M92.73 87.375L85.035 90.87" stroke="#1B1B1B" stroke-width="2" stroke-linejoin="bevel"/>
</g>
<defs>
<clipPath id="clip0_3204_355">
<rect width="120" height="120" fill="white"/>
</clipPath>
</defs>
</svg>
