<svg width="120" height="120" viewBox="0 0 120 120" fill="none" xmlns="http://www.w3.org/2000/svg">
<g clip-path="url(#clip0_2532_14894)">
<rect width="120" height="120" fill="#FFC587"/>
<path d="M79.005 41.5807L69.975 19.6357L87.375 21.9757C90.09 22.3357 91.395 25.5157 89.715 27.6757L78.99 41.5807H79.005Z" fill="#F8FAFF" stroke="#1B1B1B" stroke-width="2" stroke-miterlimit="10"/>
<path d="M74.835 26.3102L52.38 18.6602L65.595 7.09523C67.665 5.29523 70.905 6.39023 71.43 9.09023L74.835 26.3102V26.3102Z" fill="#F8FAFF" stroke="#1B1B1B" stroke-width="2" stroke-miterlimit="10"/>
<path d="M77.325 66.1207L79.695 42.5107L93.945 52.7707C96.165 54.3757 95.835 57.7807 93.33 58.9057L77.325 66.1207Z" fill="#F8FAFF" stroke="#1B1B1B" stroke-width="2" stroke-miterlimit="10"/>
<path d="M74.325 91.6207L76.695 68.0107L90.945 78.2707C93.165 79.8757 92.835 83.2807 90.33 84.4057L74.325 91.6207Z" fill="#F8FAFF" stroke="#1B1B1B" stroke-width="2" stroke-miterlimit="10"/>
<path d="M118.5 129C115.92 123.99 106.8 109.845 98.82 97.8605C93.315 89.5955 86.175 84.9605 79.365 82.3805C79.845 76.7555 81.015 62.0105 81.675 57.2555C82.53 51.1505 88.32 22.8605 67.32 16.8605C46.32 10.8605 38.82 15.3605 23.82 30.3605C8.82002 45.3605 14.82 63.3605 31.32 69.3605C37.935 71.7605 44.82 72.3605 58.32 66.3605L44.82 72.3605L44.745 81.8555C37.5 84.3005 29.73 88.9955 23.82 97.8605C14.985 111.12 7.26003 127.185 4.87503 132C3.54003 134.7 4.48503 137.97 7.06503 139.545L18.945 146.82C20.985 148.065 23.565 147.945 25.47 146.505L37.305 130.875H85.305L97.74 144.33C100.2 146.175 103.53 146.325 106.14 144.735L115.74 138.87C119.1 136.815 120.285 132.525 118.485 129.03L118.5 129Z" fill="#82C6D1" stroke="#1B1B1B" stroke-width="2" stroke-miterlimit="10"/>
<path d="M43.53 36.8853V43.7103" stroke="#1B1B1B" stroke-width="2" stroke-linejoin="bevel"/>
<path d="M49.53 36.8853V43.7103" stroke="#1B1B1B" stroke-width="2" stroke-linejoin="bevel"/>
</g>
<defs>
<clipPath id="clip0_2532_14894">
<rect width="120" height="120" fill="white"/>
</clipPath>
</defs>
</svg>
