<svg width="120" height="120" viewBox="0 0 120 120" fill="none" xmlns="http://www.w3.org/2000/svg">
<g clip-path="url(#clip0_3204_356)">
<rect width="120" height="120" fill="#B4E791"/>
<path d="M79.005 43.5805L69.975 21.6355L87.375 23.9755C90.09 24.3355 91.395 27.5155 89.715 29.6755L78.99 43.5805H79.005Z" fill="#F8FAFF" stroke="#1B1B1B" stroke-width="2" stroke-miterlimit="10"/>
<path d="M74.835 28.3102L52.38 20.6602L65.595 9.09523C67.665 7.29523 70.905 8.39023 71.43 11.0902L74.835 28.3102Z" fill="#F8FAFF" stroke="#1B1B1B" stroke-width="2" stroke-miterlimit="10"/>
<path d="M77.325 68.1205L79.695 44.5105L93.945 54.7705C96.165 56.3755 95.835 59.7805 93.33 60.9055L77.325 68.1205Z" fill="#F8FAFF" stroke="#1B1B1B" stroke-width="2" stroke-miterlimit="10"/>
<path d="M74.325 93.6205L76.695 70.0105L90.945 80.2705C93.165 81.8755 92.835 85.2805 90.33 86.4055L74.325 93.6205Z" fill="#F8FAFF" stroke="#1B1B1B" stroke-width="2" stroke-miterlimit="10"/>
<path d="M118.5 131C115.92 125.99 106.8 111.845 98.82 99.8602C93.315 91.5952 86.175 86.9602 79.365 84.3802C79.845 78.7552 81.015 64.0102 81.675 59.2552C82.53 53.1502 88.32 24.8602 67.32 18.8602C46.32 12.8602 38.82 17.3602 23.82 32.3602C8.82002 47.3602 14.82 65.3602 31.32 71.3602C37.935 73.7603 44.82 74.3602 58.32 68.3602L44.82 74.3602L44.745 83.8552C37.5 86.3002 29.73 90.9952 23.82 99.8602C14.985 113.12 7.26003 129.185 4.87503 134C3.54003 136.7 4.48503 139.97 7.06503 141.545L18.945 148.82C20.985 150.065 23.565 149.945 25.47 148.505L37.305 132.875H85.305L97.74 146.33C100.2 148.175 103.53 148.325 106.14 146.735L115.74 140.87C119.1 138.815 120.285 134.525 118.485 131.03L118.5 131Z" fill="#82C6D1" stroke="#1B1B1B" stroke-width="2" stroke-miterlimit="10"/>
<path d="M43.53 38.8853V45.7103" stroke="#1B1B1B" stroke-width="2" stroke-linejoin="bevel"/>
<path d="M49.53 38.8853V45.7103" stroke="#1B1B1B" stroke-width="2" stroke-linejoin="bevel"/>
</g>
<defs>
<clipPath id="clip0_3204_356">
<rect width="120" height="120" fill="white"/>
</clipPath>
</defs>
</svg>
