<svg width="120" height="120" viewBox="0 0 120 120" fill="none" xmlns="http://www.w3.org/2000/svg">
<g clip-path="url(#clip0_2532_14908)">
<rect width="120" height="120" fill="#B4E791"/>
<path d="M84.63 112.619C84.12 115.544 84.6 118.649 86.205 121.424L87.285 123.314C90.915 129.614 98.97 131.774 105.27 128.129L111.045 124.799C117.345 121.169 119.505 113.114 115.86 106.814L114.78 104.924C112.08 100.244 106.95 97.8591 101.91 98.4291C96.165 79.2591 79.125 65.3691 58.98 65.3691C38.835 65.3691 21.78 79.2741 16.05 98.4291C11.01 97.8591 5.87998 100.244 3.17998 104.924L2.09998 106.814C-1.53002 113.114 0.614977 121.154 6.91498 124.799L12.69 128.129C18.99 131.759 27.03 129.614 30.675 123.314L31.755 121.424C33.36 118.649 33.825 115.544 33.33 112.619" fill="#FFA543"/>
<path fill-rule="evenodd" clip-rule="evenodd" d="M33.3299 112.619C33.8249 115.544 33.3599 118.649 31.7549 121.424L30.6749 123.314C27.0299 129.614 18.9899 131.759 12.6899 128.129L6.91495 124.799C0.614946 121.154 -1.53005 113.114 2.09995 106.814L3.17995 104.924C5.50509 100.894 9.63233 98.5656 13.9523 98.3608L33.3299 112.619Z" fill="white"/>
<path fill-rule="evenodd" clip-rule="evenodd" d="M86.205 121.424C84.6 118.649 84.12 115.544 84.63 112.619H84.63L104.008 98.3608C108.328 98.5657 112.455 100.894 114.78 104.924L115.86 106.814C119.505 113.114 117.345 121.169 111.045 124.799L105.27 128.129C98.97 131.774 90.915 129.614 87.285 123.314L86.205 121.424Z" fill="white"/>
<path d="M84.63 112.619C84.12 115.544 84.6 118.649 86.205 121.424L87.285 123.314C90.915 129.614 98.97 131.774 105.27 128.129L111.045 124.799C117.345 121.169 119.505 113.114 115.86 106.814L114.78 104.924C112.08 100.244 106.95 97.8591 101.91 98.4291C96.165 79.2591 79.125 65.3691 58.98 65.3691C38.835 65.3691 21.78 79.2741 16.05 98.4291C11.01 97.8591 5.87998 100.244 3.17998 104.924L2.09998 106.814C-1.53002 113.114 0.614977 121.154 6.91498 124.799L12.69 128.129C18.99 131.759 27.03 129.614 30.675 123.314L31.755 121.424C33.36 118.649 33.825 115.544 33.33 112.619" stroke="#1B1B1B" stroke-width="2" stroke-miterlimit="10"/>
<path d="M32.505 103.77L35.13 132.27H32.79C23.655 132.27 16.245 139.68 16.245 148.815C16.245 157.95 23.655 165.36 32.79 165.36H44.745C58.995 165.36 58.995 150.195 58.995 144.375C58.995 150.66 58.995 165.36 73.245 165.36H85.2C94.335 165.36 101.745 157.95 101.745 148.815C101.745 139.68 94.335 132.27 85.2 132.27H82.86L85.35 102.72" fill="#FFA543"/>
<path d="M32.505 103.77L35.13 132.27H32.79C23.655 132.27 16.245 139.68 16.245 148.815C16.245 157.95 23.655 165.36 32.79 165.36H44.745C58.995 165.36 58.995 150.195 58.995 144.375C58.995 150.66 58.995 165.36 73.245 165.36H85.2C94.335 165.36 101.745 157.95 101.745 148.815C101.745 139.68 94.335 132.27 85.2 132.27H82.86L85.35 102.72" stroke="#1B1B1B" stroke-width="2" stroke-miterlimit="10"/>
<path d="M88.98 49.7547C88.98 49.7547 88.905 49.7547 88.86 49.7547C88.89 49.1997 88.95 48.6597 88.95 48.1047C88.95 44.8347 88.38 41.6847 87.345 38.7447C87.135 38.1597 87.465 37.5297 88.065 37.3797C89.625 36.9897 91.1099 36.2097 92.3399 34.9947C96.3599 30.9747 96.3599 24.4797 92.3399 20.4597L88.845 16.9647C84.825 12.9447 78.33 12.9447 74.31 16.9647C73.26 18.0147 72.51 19.2747 72.075 20.5947C71.88 21.1797 71.235 21.4347 70.68 21.2097C67.08 19.7097 63.135 18.8697 58.98 18.8697C54.825 18.8697 50.88 19.7247 47.28 21.2097C46.725 21.4497 46.08 21.1797 45.885 20.5947C45.45 19.2747 44.7 18.0147 43.65 16.9647C39.6299 12.9447 33.135 12.9447 29.115 16.9647L25.62 20.4597C21.6 24.4797 21.6 30.9747 25.62 34.9947C26.85 36.2247 28.32 37.0047 29.895 37.3797C30.495 37.5297 30.825 38.1597 30.615 38.7447C29.595 41.6847 29.01 44.8197 29.01 48.1047C29.01 48.6597 29.07 49.2147 29.1 49.7547C29.055 49.7547 29.025 49.7547 28.98 49.7547C24.825 49.7547 21.45 53.0547 21.45 57.1047C21.45 61.1547 24.825 64.4547 28.98 64.4547C29.265 64.4547 29.52 64.4097 29.79 64.3797C29.745 64.6947 29.685 65.0247 29.685 65.3547C29.685 69.4197 33.06 72.7047 37.215 72.7047C38.445 72.7047 39.585 72.4047 40.605 71.8947C40.95 71.7147 41.37 71.7297 41.685 71.9547C46.575 75.3297 52.515 77.3397 58.965 77.3397C65.415 77.3397 71.355 75.3297 76.245 71.9547C76.575 71.7297 76.98 71.7147 77.325 71.8947C78.345 72.4047 79.485 72.7047 80.715 72.7047C84.87 72.7047 88.245 69.4047 88.245 65.3547C88.245 65.0247 88.1849 64.7097 88.1399 64.3797C88.4099 64.4097 88.68 64.4547 88.95 64.4547C93.105 64.4547 96.48 61.1547 96.48 57.1047C96.48 53.0547 93.105 49.7547 88.95 49.7547H88.98Z" fill="#FFA543"/>
<path fill-rule="evenodd" clip-rule="evenodd" d="M88.9718 49.7545H88.9649L88.9764 49.7553L67.6799 54.3445C66.7649 50.3395 63.1949 47.3545 58.9199 47.3545C54.6449 47.3545 51.0899 50.3245 50.1599 54.3145L29.0999 49.7695L25.3743 50.653C23.037 51.9026 21.45 54.3272 21.45 57.1045C21.45 61.1545 24.825 64.4545 28.98 64.4545C29.1916 64.4545 29.3867 64.4296 29.5837 64.4046C29.652 64.3959 29.7205 64.3872 29.79 64.3795C29.7821 64.4347 29.7737 64.4903 29.7653 64.5464C29.7258 64.8101 29.685 65.0823 29.685 65.3545C29.685 69.4195 33.06 72.7045 37.215 72.7045C38.445 72.7045 39.585 72.4045 40.605 71.8945C40.95 71.7145 41.37 71.7295 41.685 71.9545C46.575 75.3295 52.515 77.3395 58.965 77.3395C65.415 77.3395 71.355 75.3295 76.245 71.9545C76.575 71.7295 76.98 71.7145 77.325 71.8945C78.345 72.4045 79.485 72.7045 80.715 72.7045C84.87 72.7045 88.245 69.4045 88.245 65.3545C88.245 65.096 88.2081 64.8467 88.1706 64.5923C88.1602 64.5218 88.1497 64.451 88.14 64.3795C88.2075 64.387 88.275 64.3954 88.3425 64.4038C88.545 64.4292 88.7475 64.4545 88.9499 64.4545C93.1049 64.4545 96.48 61.1545 96.48 57.1045C96.48 53.3889 93.6394 50.3047 89.962 49.8206L88.9764 49.7553L88.9798 49.7545C88.9771 49.7545 88.9745 49.7545 88.9718 49.7545Z" fill="#F8FAFF"/>
<path d="M88.98 49.7547C88.98 49.7547 88.905 49.7547 88.86 49.7547C88.89 49.1997 88.95 48.6597 88.95 48.1047C88.95 44.8347 88.38 41.6847 87.345 38.7447C87.135 38.1597 87.465 37.5297 88.065 37.3797C89.625 36.9897 91.1099 36.2097 92.3399 34.9947C96.3599 30.9747 96.3599 24.4797 92.3399 20.4597L88.845 16.9647C84.825 12.9447 78.33 12.9447 74.31 16.9647C73.26 18.0147 72.51 19.2747 72.075 20.5947C71.88 21.1797 71.235 21.4347 70.68 21.2097C67.08 19.7097 63.135 18.8697 58.98 18.8697C54.825 18.8697 50.88 19.7247 47.28 21.2097C46.725 21.4497 46.08 21.1797 45.885 20.5947C45.45 19.2747 44.7 18.0147 43.65 16.9647C39.6299 12.9447 33.135 12.9447 29.115 16.9647L25.62 20.4597C21.6 24.4797 21.6 30.9747 25.62 34.9947C26.85 36.2247 28.32 37.0047 29.895 37.3797C30.495 37.5297 30.825 38.1597 30.615 38.7447C29.595 41.6847 29.01 44.8197 29.01 48.1047C29.01 48.6597 29.07 49.2147 29.1 49.7547C29.055 49.7547 29.025 49.7547 28.98 49.7547C24.825 49.7547 21.45 53.0547 21.45 57.1047C21.45 61.1547 24.825 64.4547 28.98 64.4547C29.265 64.4547 29.52 64.4097 29.79 64.3797C29.745 64.6947 29.685 65.0247 29.685 65.3547C29.685 69.4197 33.06 72.7047 37.215 72.7047C38.445 72.7047 39.585 72.4047 40.605 71.8947C40.95 71.7147 41.37 71.7297 41.685 71.9547C46.575 75.3297 52.515 77.3397 58.965 77.3397C65.415 77.3397 71.355 75.3297 76.245 71.9547C76.575 71.7297 76.98 71.7147 77.325 71.8947C78.345 72.4047 79.485 72.7047 80.715 72.7047C84.87 72.7047 88.245 69.4047 88.245 65.3547C88.245 65.0247 88.1849 64.7097 88.1399 64.3797C88.4099 64.4097 88.68 64.4547 88.95 64.4547C93.105 64.4547 96.48 61.1547 96.48 57.1047C96.48 53.0547 93.105 49.7547 88.95 49.7547H88.98Z" stroke="#1B1B1B" stroke-width="2" stroke-miterlimit="10"/>
<path d="M55.98 41.8799V48.7049" stroke="#1B1B1B" stroke-width="2" stroke-linejoin="bevel"/>
<path d="M61.98 41.8799V48.7049" stroke="#1B1B1B" stroke-width="2" stroke-linejoin="bevel"/>
<path d="M29.0099 48.1196L37.9199 50.3696" stroke="#1B1B1B" stroke-width="2" stroke-linejoin="bevel"/>
<path d="M30.5099 43.6196L39.4199 45.8696" stroke="#1B1B1B" stroke-width="2" stroke-linejoin="bevel"/>
<path d="M88.935 48.1196L80.04 50.3696" stroke="#1B1B1B" stroke-width="2" stroke-linejoin="bevel"/>
<path d="M87.435 43.6196L78.54 45.8696" stroke="#1B1B1B" stroke-width="2" stroke-linejoin="bevel"/>
<path d="M58.98 18.8696V28.3046" stroke="#1B1B1B" stroke-width="2" stroke-linejoin="bevel"/>
<path d="M54.48 18.8696V26.3696" stroke="#1B1B1B" stroke-width="2" stroke-linejoin="bevel"/>
<path d="M63.48 18.8696V26.3696" stroke="#1B1B1B" stroke-width="2" stroke-linejoin="bevel"/>
<path d="M58.98 141.869C70.2715 141.869 79.425 128.773 79.425 112.619C79.425 96.4648 70.2715 83.3691 58.98 83.3691C47.6886 83.3691 38.535 96.4648 38.535 112.619C38.535 128.773 47.6886 141.869 58.98 141.869Z" fill="#F8FAFF"/>
<path d="M21.4349 88.3345L29.0099 91.9945" stroke="#1B1B1B" stroke-width="2" stroke-linejoin="bevel"/>
<path d="M25.23 81.375L32.925 84.87" stroke="#1B1B1B" stroke-width="2" stroke-linejoin="bevel"/>
<path d="M96.5099 88.3345L88.9349 91.9945" stroke="#1B1B1B" stroke-width="2" stroke-linejoin="bevel"/>
<path d="M92.73 81.375L85.035 84.87" stroke="#1B1B1B" stroke-width="2" stroke-linejoin="bevel"/>
</g>
<defs>
<clipPath id="clip0_2532_14908">
<rect width="120" height="120" fill="white"/>
</clipPath>
</defs>
</svg>
