<svg width="120" height="120" viewBox="0 0 120 120" fill="none" xmlns="http://www.w3.org/2000/svg">
<g clip-path="url(#clip0_3204_354)">
<rect width="120" height="120" fill="#C7E8EF"/>
<path d="M110.895 111.885C116.625 119.145 115.395 129.675 108.135 135.42L105.27 137.685C102.195 140.115 98.5351 141.3 94.8901 141.3C90.2701 141.3 85.6951 139.38 82.4101 135.735L80.8351 121.665L80.7601 121.05L92.1601 106.5C93.9751 105.855 95.8651 105.54 97.7551 105.54C102.705 105.54 107.595 107.715 110.895 111.885Z" fill="#FFDCBD"/>
<path d="M96.225 47.5199C101.67 48.8849 105.735 54.3149 101.67 62.4749C97.59 70.6199 90.795 70.6199 88.08 70.6199C88.08 70.6199 83.505 79.0049 73.23 83.2049C72.525 82.6649 71.805 82.1249 71.055 81.5849H48.93C47.595 82.5449 46.335 83.5349 45.135 84.5399C37.5 83.1899 33.675 80.4899 31.005 76.0649C27.69 70.5149 30.69 65.8799 31.905 64.3499C33.585 69.6299 37.425 73.3349 41.88 73.3349C47.88 73.3349 52.755 66.6449 52.755 58.3949C52.755 66.6449 57.615 73.3349 63.615 73.3349C69.615 73.3349 74.49 66.6449 74.49 58.3949C74.49 57.6149 74.445 56.8349 74.34 56.0849H84.675L85.365 54.5699C85.365 54.5699 90.795 46.1699 96.225 47.5199Z" fill="#FFDCBD"/>
<path d="M88.0801 28.4999C104.385 28.4999 96.2251 47.5199 96.2251 47.5199C90.7951 46.1699 85.3651 54.5699 85.3651 54.5699V39.3749L31.0051 38.0099V38.0849L28.0651 38.0099C27.8251 38.0099 33.7351 18.9899 59.0401 14.7599C84.3601 10.5299 88.0801 28.4999 88.0801 28.4999Z" fill="#1B1B1B"/>
<path d="M92.1601 106.5L80.7601 121.05L79.2751 107.73L43.0201 108.21L41.2201 121.665L27.8251 106.5C30.6451 100.53 35.3401 93.2399 43.0351 86.3249L50.8201 94.4999L58.0501 86.3249L64.9351 94.4999L74.9701 84.6299C83.8651 92.0099 89.1001 100.035 92.1601 106.5Z" fill="#FFDA00"/>
<path d="M85.3651 39.3752V54.5702L84.6751 56.0852H74.3401C73.5601 48.9302 69.0601 43.4552 63.6151 43.4552C57.6151 43.4552 52.7551 50.1452 52.7551 58.3952C52.7551 50.1452 47.8801 43.4552 41.8801 43.4552C37.3051 43.4552 33.3901 47.3402 31.7851 52.8452L31.0051 38.0852L85.3651 39.3752Z" fill="#FFDCBD"/>
<path d="M85.3651 39.3748L31.0051 38.0848V38.0098L85.3651 39.3748Z" fill="#1B1B1B"/>
<path d="M79.275 107.73L80.76 121.05L80.28 121.665H41.22L43.02 108.21L79.275 107.73Z" fill="#FFDA00"/>
<path d="M74.9701 84.6299L64.9351 94.4999L58.0501 86.3249V85.5449C58.9651 85.5749 59.9251 85.5749 60.9001 85.5749C62.9701 85.5749 64.9201 85.3949 66.7351 85.0649L74.9701 84.6299Z" fill="#F8FAFF"/>
<path d="M74.97 84.6296L66.735 85.0646C69.12 84.6596 71.28 84.0146 73.23 83.2046C73.83 83.6846 74.4 84.1496 74.97 84.6296Z" fill="#F8FAFF"/>
<path d="M74.3401 56.0846C74.4451 56.8346 74.4901 57.6146 74.4901 58.3946C74.4901 66.6446 69.6301 73.3346 63.6151 73.3346C57.6001 73.3346 52.7551 66.6446 52.7551 58.3946C52.7551 50.1446 57.6151 43.4546 63.6151 43.4546C69.0601 43.4546 73.5601 48.9296 74.3401 56.0846Z" fill="#F8FAFF"/>
<path d="M71.0551 81.5852C71.8051 82.1252 72.5251 82.6652 73.2301 83.2052C71.2801 84.0152 69.1201 84.6602 66.7351 85.0652L57.6901 85.5452C52.6051 85.4552 48.4951 85.1252 45.1351 84.5402C46.3351 83.5352 47.5951 82.5452 48.9301 81.5852H71.0551Z" fill="#FFDCBD"/>
<path d="M57.6901 85.5449L66.7351 85.0649C64.9201 85.3949 62.9701 85.5749 60.9001 85.5749C59.9251 85.5749 58.9651 85.5749 58.0501 85.5449H57.6901Z" fill="#F8FAFF"/>
<path d="M58.0501 85.5447V86.3247L50.8201 94.4997L43.0351 86.3247L57.6751 85.5447H58.0351H58.0501Z" fill="#F8FAFF"/>
<path d="M57.6901 85.5448L43.0501 86.3248C43.7251 85.7248 44.4151 85.1248 45.1351 84.5398C48.4951 85.1248 52.6051 85.4548 57.6901 85.5448Z" fill="#F8FAFF"/>
<path d="M41.8801 43.4546C47.8801 43.4546 52.7551 50.1446 52.7551 58.3946C52.7551 66.6446 47.8801 73.3346 41.8801 73.3346C37.4251 73.3346 33.5851 69.6296 31.9051 64.3496C32.1901 64.0046 32.3701 63.8246 32.3701 63.8246L31.7851 52.8446C33.3901 47.3396 37.3051 43.4546 41.8801 43.4546Z" fill="#F8FAFF"/>
<path d="M27.8251 106.5L41.2201 121.665L39.7351 132.69C39.3001 133.47 38.805 134.22 38.2351 134.94C32.5051 142.185 21.9751 143.43 14.7151 137.685L11.8501 135.42C7.66505 132.105 5.49005 127.215 5.49005 122.265C5.49005 118.62 6.66005 114.96 9.09005 111.885C13.6501 106.125 21.2551 104.16 27.8251 106.5Z" fill="#FFDCBD"/>
<path d="M31.7851 52.845L32.3701 63.825C32.3701 63.825 32.1901 64.005 31.9051 64.35C31.3201 62.52 31.0051 60.51 31.0051 58.395C31.0051 56.43 31.2751 54.555 31.7851 52.845Z" fill="#F8FAFF"/>
<path d="M43.0351 86.3249C35.3401 93.2399 30.6451 100.53 27.8251 106.5C21.2551 104.16 13.6501 106.125 9.09005 111.885C6.66005 114.96 5.49005 118.62 5.49005 122.265C5.49005 127.215 7.66505 132.105 11.8501 135.42L14.7151 137.685C21.9751 143.43 32.5051 142.185 38.2351 134.94C38.8051 134.22 39.3001 133.47 39.7351 132.69" stroke="#1B1B1B" stroke-width="2" stroke-linejoin="bevel"/>
<path d="M45.135 84.5399C44.415 85.1249 43.725 85.7249 43.05 86.3249" stroke="#1B1B1B" stroke-width="2" stroke-linejoin="bevel"/>
<path d="M82.41 135.735C85.695 139.38 90.27 141.3 94.89 141.3C98.535 141.3 102.195 140.115 105.27 137.685L108.135 135.42C115.395 129.675 116.625 119.145 110.895 111.885C107.595 107.715 102.705 105.54 97.755 105.54C95.865 105.54 93.975 105.855 92.16 106.5C89.1 100.035 83.865 92.0099 74.97 84.6299C74.4 84.1499 73.83 83.6849 73.23 83.2049" stroke="#1B1B1B" stroke-width="2" stroke-linejoin="bevel"/>
<path d="M79.2751 107.73L80.7601 121.05L80.8351 121.665L82.4101 135.735L85.2451 161.19L85.3201 161.82L93.2251 171.36H59.9851H26.7601L35.8351 161.82L35.9101 161.25L39.7351 132.69L41.2201 121.665L43.0201 108.21" stroke="#1B1B1B" stroke-width="2" stroke-linejoin="bevel"/>
<path d="M43.035 86.3249L50.82 94.4999L58.05 86.3249L64.935 94.4999L74.97 84.6299" stroke="#1B1B1B" stroke-width="2" stroke-linejoin="bevel"/>
<path d="M41.2201 121.665L27.8251 106.5" stroke="#1B1B1B" stroke-width="2" stroke-linejoin="bevel"/>
<path d="M80.28 121.665L80.76 121.05L92.16 106.5" stroke="#1B1B1B" stroke-width="2" stroke-linejoin="bevel"/>
<path d="M31.7851 52.8449L31.0051 38.0849" stroke="#1B1B1B" stroke-width="2" stroke-linejoin="bevel"/>
<path d="M96.2251 47.5199C101.67 48.8849 105.735 54.3149 101.67 62.4749C97.5901 70.6199 90.7951 70.6199 88.0801 70.6199C88.0801 70.6199 83.5051 79.0049 73.2301 83.2049C71.2801 84.0149 69.1201 84.6599 66.7351 85.0649C64.9201 85.3949 62.9701 85.5749 60.9001 85.5749C59.9251 85.5749 58.9651 85.5749 58.0501 85.5449H57.6901C52.6051 85.4549 48.4951 85.1249 45.1351 84.5399C37.5001 83.1899 33.6751 80.4899 31.0051 76.0649C27.6901 70.5149 30.6901 65.8799 31.9051 64.3499" stroke="#1B1B1B" stroke-width="2" stroke-linejoin="bevel"/>
<path d="M96.225 47.5199C96.225 47.5199 104.385 28.4999 88.08 28.4999C88.08 28.4999 84.36 10.5299 59.04 14.7599C33.735 18.9899 27.825 38.0099 28.065 38.0099L31.005 38.0849L85.365 39.3749V54.5699C85.365 54.5699 90.795 46.1699 96.225 47.5199V47.5199Z" stroke="#1B1B1B" stroke-width="2" stroke-miterlimit="10"/>
<path d="M52.7551 58.3949C52.7551 66.6449 47.8801 73.3349 41.8801 73.3349C37.4251 73.3349 33.5851 69.6299 31.9051 64.3499C31.3201 62.5199 31.0051 60.5099 31.0051 58.3949C31.0051 56.4299 31.2751 54.5549 31.7851 52.8449C33.3901 47.3399 37.3051 43.4549 41.8801 43.4549C47.8801 43.4549 52.7551 50.1449 52.7551 58.3949Z" stroke="#1B1B1B" stroke-width="2" stroke-linejoin="bevel"/>
<path d="M74.3401 56.0849C74.4451 56.8349 74.4901 57.6149 74.4901 58.3949C74.4901 66.6449 69.6301 73.3349 63.6151 73.3349C57.6001 73.3349 52.7551 66.6449 52.7551 58.3949C52.7551 50.1449 57.6151 43.4549 63.6151 43.4549C69.0601 43.4549 73.5601 48.9299 74.3401 56.0849Z" stroke="#1B1B1B" stroke-width="2" stroke-linejoin="bevel"/>
<path d="M74.3401 56.0849H84.6751" stroke="#1B1B1B" stroke-width="2" stroke-linejoin="bevel"/>
<path d="M47.1901 56.0849V61.7849" stroke="#1B1B1B" stroke-width="2" stroke-linejoin="bevel"/>
<path d="M58.05 56.0849V61.7849" stroke="#1B1B1B" stroke-width="2" stroke-linejoin="bevel"/>
</g>
<defs>
<clipPath id="clip0_3204_354">
<rect width="120" height="120" fill="white"/>
</clipPath>
</defs>
</svg>
