<svg width="80" height="80" viewBox="0 0 80 80" fill="none" xmlns="http://www.w3.org/2000/svg">
<g clip-path="url(#clip0_3204_351)">
<rect width="80" height="80" fill="#C7E8EF"/>
<path d="M54.55 79.7401L55.42 80.0701C56.06 82.4501 57.61 84.5801 59.91 85.9101C64.52 88.5701 70.42 86.9901 73.08 82.3801L74.14 80.5501C76.8 75.9401 75.22 70.0401 70.61 67.3801C67.15 65.3801 62.97 65.7701 59.97 68.0401L46.99 56.5101H33.69L20.71 68.0401C17.71 65.7701 13.53 65.3801 10.07 67.3801C5.45998 70.0401 3.87998 75.9401 6.53998 80.5501L7.59998 82.3801C10.26 86.9901 16.16 88.5701 20.77 85.9101C23.07 84.5801 24.62 82.4501 25.26 80.0701L26.13 79.7401" fill="#FFDA00"/>
<path d="M54.55 79.7401L55.42 80.0701C56.06 82.4501 57.61 84.5801 59.91 85.9101C64.52 88.5701 70.42 86.9901 73.08 82.3801L74.14 80.5501C76.8 75.9401 75.22 70.0401 70.61 67.3801C67.15 65.3801 62.97 65.7701 59.97 68.0401L46.99 56.5101H33.69L20.71 68.0401C17.71 65.7701 13.53 65.3801 10.07 67.3801C5.45998 70.0401 3.87998 75.9401 6.53998 80.5501L7.59998 82.3801C10.26 86.9901 16.16 88.5701 20.77 85.9101C23.07 84.5801 24.62 82.4501 25.26 80.0701L26.13 79.7401" stroke="#1B1B1B" stroke-width="2" stroke-miterlimit="10"/>
<path d="M54.52 75.6701C55.83 83.8001 49.55 91.1801 41.32 91.1801H39.35C31.21 91.1801 24.96 83.9701 26.11 75.9201" fill="#FFDA00"/>
<path d="M54.52 75.6701C55.83 83.8001 49.55 91.1801 41.32 91.1801H39.35C31.21 91.1801 24.96 83.9701 26.11 75.9201" stroke="#1B1B1B" stroke-width="2" stroke-miterlimit="10"/>
<path d="M41.33 11.5301C41.33 11.5301 30.22 10.9301 22.31 17.9701C14.4 25.0101 13.79 32.3901 14.22 36.0501C14.65 39.7101 15.96 44.6901 15.96 44.6901C15.96 44.6901 12.36 48.5901 13.88 52.0001C15.4 55.4101 20.2 58.3401 30.42 59.6201C40.64 60.9001 53.48 58.6701 59.53 54.4401C65.58 50.2101 69.36 31.5401 63.25 22.6901C57.14 13.8401 46.02 11.2601 41.33 11.5301Z" fill="#FFDA00" stroke="#1B1B1B" stroke-width="2" stroke-miterlimit="10"/>
<path d="M34.8999 38.3701L34.9499 44.7801" stroke="#1B1B1B" stroke-width="2" stroke-miterlimit="10"/>
<path d="M40.9 38.5503L40.5499 44.9003" stroke="#1B1B1B" stroke-width="2" stroke-miterlimit="10"/>
<path d="M25.85 47.39C25.2 47.88 24.94 49.12 27.9 49.93C30.86 50.74 36.65 51.32 39.49 50.71C40.3 50.54 42 49.4998 41.24 47.91C40.566 46.4998 39 45.5002 35.74 46.22C31.32 47.14 26.76 46.7 25.85 47.39Z" fill="#FF8E14" stroke="#1B1B1B" stroke-width="2" stroke-miterlimit="10"/>
</g>
<defs>
<clipPath id="clip0_3204_351">
<rect width="80" height="80" fill="white"/>
</clipPath>
</defs>
</svg>
