<svg width="80" height="80" viewBox="0 0 80 80" fill="none" xmlns="http://www.w3.org/2000/svg">
<g clip-path="url(#clip0_2329_14557)">
<rect width="80" height="80" fill="#C7E8EF"/>
<path d="M56.18 80.23L59.09 85.21C59.3 86.51 59.79 87.79 60.55 88.96C63.5 93.48 69.56 94.74 74.08 91.79L76.6 90.14C81.12 87.19 82.38 81.13 79.43 76.61C77.2 73.21 73.21 71.65 69.45 72.36C63.17 58.01 51.93 49.02 51.93 49.02H28.06C28.06 49.02 16.82 58.01 10.54 72.36C6.78 71.65 2.79 73.21 0.560003 76.61C-2.39 81.13 -1.13 87.18 3.39 90.14L5.91 91.79C10.43 94.74 16.48 93.48 19.44 88.96C20.21 87.79 20.69 86.51 20.9 85.21L23.81 80.23" fill="#777777"/>
<path d="M56.18 80.23L59.09 85.21C59.3 86.51 59.79 87.79 60.55 88.96C63.5 93.48 69.56 94.74 74.08 91.79L76.6 90.14C81.12 87.19 82.38 81.13 79.43 76.61C77.2 73.21 73.21 71.65 69.45 72.36C63.17 58.01 51.93 49.02 51.93 49.02H28.06C28.06 49.02 16.82 58.01 10.54 72.36C6.78 71.65 2.79 73.21 0.560003 76.61C-2.39 81.13 -1.13 87.18 3.39 90.14L5.91 91.79C10.43 94.74 16.48 93.48 19.44 88.96C20.21 87.79 20.69 86.51 20.9 85.21L23.81 80.23" stroke="#1B1B1B" stroke-width="2" stroke-miterlimit="10"/>
<path d="M44.71 11.51H35.28C23.2512 11.51 13.5 21.2612 13.5 33.29C13.5 45.3188 23.2512 55.07 35.28 55.07H44.71C56.7388 55.07 66.49 45.3188 66.49 33.29C66.49 21.2612 56.7388 11.51 44.71 11.51Z" fill="#F8FAFF"/>
<path fill-rule="evenodd" clip-rule="evenodd" d="M43.62 20.78L54.01 18.05V18.06C56.1565 17.4968 58.3764 17.5688 60.4237 18.2084C56.4602 14.0797 50.8852 11.5098 44.71 11.5098H35.28C29.1062 11.5098 23.5324 14.0785 19.569 18.2055C21.5035 17.6632 23.5808 17.6198 25.6 18.14L35.94 20.8C38.46 21.45 41.1 21.44 43.62 20.78Z" fill="#777777"/>
<path fill-rule="evenodd" clip-rule="evenodd" d="M16.9791 45.1033C20.6256 40.5639 28.6646 36.6964 32.88 34.8899C34.51 34.1899 35.58 32.5899 35.58 30.8099V29.8499C35.3827 22.9151 20.6151 29.7619 13.5007 33.4694C13.5353 37.7558 14.8082 41.7471 16.9791 45.1033Z" fill="#777777"/>
<path fill-rule="evenodd" clip-rule="evenodd" d="M66.4894 33.4463C59.3162 29.7209 44.7658 23.0267 44.57 29.9099V30.8699C44.57 32.6499 45.64 34.2499 47.27 34.9499C51.4431 36.7384 59.3636 40.5466 63.06 45.027C65.2048 41.6807 66.4594 37.709 66.4894 33.4463Z" fill="#777777"/>
<path d="M44.71 11.51H35.28C23.2512 11.51 13.5 21.2612 13.5 33.29C13.5 45.3188 23.2512 55.07 35.28 55.07H44.71C56.7388 55.07 66.49 45.3188 66.49 33.29C66.49 21.2612 56.7388 11.51 44.71 11.51Z" stroke="#1B1B1B" stroke-width="2" stroke-miterlimit="10"/>
<path d="M23.81 73.8301V90.8501H21.83C17.23 90.8501 13.5 94.5801 13.5 99.1801C13.5 103.78 17.23 107.51 21.83 107.51H31.67C40 107.51 40 93.3001 40 88.7001C40 93.3001 40 107.51 48.33 107.51H58.17C62.77 107.51 66.5 103.78 66.5 99.1801C66.5 94.5801 62.77 90.8501 58.17 90.8501H56.19V73.8301" fill="#777777"/>
<path d="M23.81 73.8301V90.8501H21.83C17.23 90.8501 13.5 94.5801 13.5 99.1801C13.5 103.78 17.23 107.51 21.83 107.51H31.67C40 107.51 40 93.3001 40 88.7001C40 93.3001 40 107.51 48.33 107.51H58.17C62.77 107.51 66.5 103.78 66.5 99.1801C66.5 94.5801 62.77 90.8501 58.17 90.8501H56.19V73.8301" stroke="#1B1B1B" stroke-width="2" stroke-miterlimit="10"/>
<path d="M39.99 29.75C41.72 29.75 43.13 31.16 43.13 32.89C43.13 34.05 42.19 34.98 41.04 34.98H38.94C37.78 34.98 36.85 34.04 36.85 32.89C36.85 31.16 38.26 29.75 39.99 29.75Z" fill="#777777"/>
<path d="M32.7 29.3401V33.2901" stroke="#1B1B1B" stroke-width="2" stroke-miterlimit="10"/>
<path d="M47.28 29.3401V33.2901" stroke="#1B1B1B" stroke-width="2" stroke-miterlimit="10"/>
</g>
<defs>
<clipPath id="clip0_2329_14557">
<rect width="80" height="80" fill="white"/>
</clipPath>
</defs>
</svg>
