<svg width="80" height="80" viewBox="0 0 80 80" fill="none" xmlns="http://www.w3.org/2000/svg">
<g clip-path="url(#clip0_3204_346)">
<rect width="80" height="80" fill="#C7E8EF"/>
<path d="M73.9301 74.5899C77.7501 79.4299 76.9301 86.4499 72.0901 90.2799L70.1801 91.7899C68.1301 93.4099 65.6901 94.1999 63.2601 94.1999C60.1801 94.1999 57.1301 92.9199 54.9401 90.4899L53.8901 81.1099L53.8401 80.6999L61.4401 70.9999C62.6501 70.5699 63.9101 70.3599 65.1701 70.3599C68.4701 70.3599 71.7301 71.8099 73.9301 74.5899Z" fill="#FFDCBD"/>
<path d="M64.15 31.68C67.78 32.59 70.49 36.21 67.78 41.65C65.06 47.08 60.53 47.08 58.72 47.08C58.72 47.08 55.67 52.67 48.82 55.47C48.35 55.11 47.87 54.75 47.37 54.39H32.62C31.73 55.03 30.89 55.69 30.09 56.36C25 55.46 22.45 53.66 20.67 50.71C18.46 47.01 20.46 43.92 21.27 42.9C22.39 46.42 24.95 48.89 27.92 48.89C31.92 48.89 35.17 44.43 35.17 38.93C35.17 44.43 38.41 48.89 42.41 48.89C46.41 48.89 49.66 44.43 49.66 38.93C49.66 38.41 49.63 37.89 49.56 37.39H56.45L56.91 36.38C56.91 36.38 60.53 30.78 64.15 31.68Z" fill="#FFDCBD"/>
<path d="M58.7201 19C69.5901 19 64.1501 31.68 64.1501 31.68C60.5301 30.78 56.9101 36.38 56.9101 36.38V26.25L20.6701 25.34V25.3899L18.7101 25.34C18.5501 25.34 22.4901 12.66 39.3601 9.83995C56.2401 7.01995 58.7201 19 58.7201 19Z" fill="#1B1B1B"/>
<path d="M61.4401 70.9999L53.84 80.6999L52.85 71.8199L28.68 72.1399L27.48 81.1099L18.55 70.9999C20.43 67.0199 23.5601 62.1599 28.6901 57.5499L33.8801 62.9999L38.7001 57.5499L43.2901 62.9999L49.98 56.4199C55.91 61.3399 59.4001 66.6899 61.4401 70.9999Z" fill="#FFDA00"/>
<path d="M56.91 26.2501V36.3801L56.45 37.3901H49.56C49.04 32.6201 46.04 28.9701 42.41 28.9701C38.41 28.9701 35.17 33.4301 35.17 38.9301C35.17 33.4301 31.92 28.9701 27.92 28.9701C24.87 28.9701 22.26 31.5601 21.19 35.2301L20.67 25.3901L56.91 26.2501Z" fill="#FFDCBD"/>
<path d="M56.91 26.2498L20.67 25.3898V25.3398L56.91 26.2498Z" fill="#1B1B1B"/>
<path d="M52.85 71.8198L53.84 80.6998L53.52 81.1098H27.48L28.68 72.1398L52.85 71.8198Z" fill="#FFDA00"/>
<path d="M49.9801 56.4199L43.2901 62.9999L38.7001 57.5499V57.0299C39.3101 57.0499 39.9501 57.0499 40.6001 57.0499C41.9801 57.0499 43.2801 56.9299 44.4901 56.7099L49.9801 56.4199Z" fill="#FAFAFA"/>
<path d="M49.98 56.4197L44.49 56.7097C46.08 56.4397 47.52 56.0097 48.82 55.4697C49.22 55.7897 49.6 56.0997 49.98 56.4197Z" fill="#FAFAFA"/>
<path d="M49.56 37.3897C49.63 37.8897 49.66 38.4097 49.66 38.9297C49.66 44.4297 46.42 48.8897 42.41 48.8897C38.4 48.8897 35.17 44.4297 35.17 38.9297C35.17 33.4297 38.41 28.9697 42.41 28.9697C46.04 28.9697 49.04 32.6197 49.56 37.3897Z" fill="#FAFAFA"/>
<path d="M47.3701 54.3901C47.8701 54.7501 48.3501 55.1101 48.8201 55.4701C47.5201 56.0101 46.0801 56.4401 44.4901 56.7101L38.4601 57.0301C35.0701 56.9701 32.3301 56.7501 30.0901 56.3601C30.8901 55.6901 31.7301 55.0301 32.6201 54.3901H47.3701Z" fill="#FFDCBD"/>
<path d="M38.4601 57.03L44.4901 56.71C43.2801 56.93 41.9801 57.05 40.6001 57.05C39.9501 57.05 39.3101 57.05 38.7001 57.03H38.4601Z" fill="#FAFAFA"/>
<path d="M38.7001 57.0298V57.5498L33.8801 62.9998L28.6901 57.5498L38.4501 57.0298H38.6901H38.7001Z" fill="#FAFAFA"/>
<path d="M38.4601 57.0299L28.7001 57.5499C29.1501 57.1499 29.6101 56.7499 30.0901 56.3599C32.3301 56.7499 35.0701 56.9699 38.4601 57.0299Z" fill="#FAFAFA"/>
<path d="M27.9201 28.9697C31.9201 28.9697 35.1701 33.4297 35.1701 38.9297C35.1701 44.4297 31.9201 48.8897 27.9201 48.8897C24.9501 48.8897 22.3901 46.4197 21.2701 42.8997C21.4601 42.6697 21.5801 42.5497 21.5801 42.5497L21.1901 35.2297C22.2601 31.5597 24.8701 28.9697 27.9201 28.9697Z" fill="#FAFAFA"/>
<path d="M18.55 70.9999L27.48 81.1099L26.49 88.4599C26.2 88.9799 25.87 89.4799 25.49 89.9599C21.67 94.7899 14.65 95.6199 9.81003 91.7899L7.90003 90.2799C5.11003 88.0699 3.66003 84.8099 3.66003 81.5099C3.66003 79.0799 4.44003 76.6399 6.06003 74.5899C9.10003 70.7499 14.17 69.4399 18.55 70.9999Z" fill="#FFDCBD"/>
<path d="M21.19 35.23L21.58 42.55C21.58 42.55 21.46 42.67 21.27 42.9C20.88 41.68 20.67 40.34 20.67 38.93C20.67 37.62 20.85 36.37 21.19 35.23Z" fill="#FAFAFA"/>
<path d="M28.69 57.55C23.56 62.16 20.43 67.02 18.55 71C14.17 69.44 9.10003 70.75 6.06003 74.59C4.44003 76.64 3.66003 79.08 3.66003 81.51C3.66003 84.81 5.11003 88.07 7.90003 90.28L9.81003 91.79C14.65 95.62 21.67 94.79 25.49 89.96C25.87 89.48 26.2 88.98 26.49 88.46" stroke="#1B1B1B" stroke-width="2" stroke-linejoin="bevel"/>
<path d="M30.09 56.36C29.61 56.75 29.15 57.15 28.7 57.55" stroke="#1B1B1B" stroke-width="2" stroke-linejoin="bevel"/>
<path d="M54.94 90.4899C57.13 92.9199 60.18 94.1999 63.26 94.1999C65.69 94.1999 68.13 93.4099 70.18 91.7899L72.09 90.2799C76.93 86.4499 77.75 79.4299 73.93 74.5899C71.73 71.8099 68.47 70.3599 65.17 70.3599C63.91 70.3599 62.65 70.5699 61.44 70.9999C59.4 66.6899 55.91 61.3399 49.98 56.4199C49.6 56.0999 49.22 55.7899 48.82 55.4699" stroke="#1B1B1B" stroke-width="2" stroke-linejoin="bevel"/>
<path d="M52.85 71.8199L53.84 80.6999L53.89 81.1099L54.94 90.4899L56.83 107.46L56.88 107.88L62.15 114.24H39.99H17.84L23.89 107.88L23.94 107.5L26.49 88.4599L27.48 81.1099L28.68 72.1399" stroke="#1B1B1B" stroke-width="2" stroke-linejoin="bevel"/>
<path d="M28.69 57.55L33.88 63L38.7 57.55L43.29 63L49.98 56.42" stroke="#1B1B1B" stroke-width="2" stroke-linejoin="bevel"/>
<path d="M27.48 81.1099L18.55 70.9999" stroke="#1B1B1B" stroke-width="2" stroke-linejoin="bevel"/>
<path d="M53.52 81.1099L53.84 80.6999L61.44 70.9999" stroke="#1B1B1B" stroke-width="2" stroke-linejoin="bevel"/>
<path d="M21.19 35.23L20.67 25.39" stroke="#1B1B1B" stroke-width="2" stroke-linejoin="bevel"/>
<path d="M64.15 31.68C67.78 32.59 70.49 36.21 67.78 41.65C65.06 47.08 60.53 47.08 58.72 47.08C58.72 47.08 55.67 52.67 48.82 55.47C47.52 56.01 46.08 56.44 44.49 56.71C43.28 56.93 41.98 57.05 40.6 57.05C39.95 57.05 39.31 57.05 38.7 57.03H38.46C35.07 56.97 32.33 56.75 30.09 56.36C25 55.46 22.45 53.66 20.67 50.71C18.46 47.01 20.46 43.92 21.27 42.9" stroke="#1B1B1B" stroke-width="2" stroke-linejoin="bevel"/>
<path d="M64.15 31.68C64.15 31.68 69.59 19 58.72 19C58.72 19 56.24 7.01995 39.36 9.83995C22.49 12.66 18.55 25.34 18.71 25.34L20.67 25.3899L56.91 26.25V36.38C56.91 36.38 60.53 30.78 64.15 31.68V31.68Z" stroke="#1B1B1B" stroke-width="2" stroke-miterlimit="10"/>
<path d="M35.17 38.9299C35.17 44.4299 31.92 48.8899 27.92 48.8899C24.95 48.8899 22.39 46.4199 21.27 42.8999C20.88 41.6799 20.67 40.3399 20.67 38.9299C20.67 37.6199 20.85 36.3699 21.19 35.2299C22.26 31.5599 24.87 28.9699 27.92 28.9699C31.92 28.9699 35.17 33.4299 35.17 38.9299Z" stroke="#1B1B1B" stroke-width="2" stroke-linejoin="bevel"/>
<path d="M49.56 37.3899C49.63 37.8899 49.66 38.4099 49.66 38.9299C49.66 44.4299 46.42 48.8899 42.41 48.8899C38.4 48.8899 35.17 44.4299 35.17 38.9299C35.17 33.4299 38.41 28.9699 42.41 28.9699C46.04 28.9699 49.04 32.6199 49.56 37.3899Z" stroke="#1B1B1B" stroke-width="2" stroke-linejoin="bevel"/>
<path d="M49.56 37.39H56.45" stroke="#1B1B1B" stroke-width="2" stroke-linejoin="bevel"/>
<path d="M31.46 37.39V41.19" stroke="#1B1B1B" stroke-width="2" stroke-linejoin="bevel"/>
<path d="M38.7 37.39V41.19" stroke="#1B1B1B" stroke-width="2" stroke-linejoin="bevel"/>
</g>
<defs>
<clipPath id="clip0_3204_346">
<rect width="80" height="80" fill="white"/>
</clipPath>
</defs>
</svg>
