<svg width="80" height="80" viewBox="0 0 80 80" fill="none" xmlns="http://www.w3.org/2000/svg">
<g clip-path="url(#clip0_2354_13160)">
<rect width="80" height="80" fill="#FFC587"/>
<path d="M75.8 69.9101L74.63 67.3401C72.8 63.3301 68.43 61.3001 64.3 62.2601C55.69 44.3901 40.31 39.0601 40.31 39.0601C40.31 39.0601 24.93 44.4001 16.32 62.2601C12.19 61.2901 7.82001 63.3301 5.99001 67.3401L4.82001 69.9101C2.74001 74.4801 4.75001 79.8701 9.31001 81.9501L11.88 83.1201C16.45 85.2001 21.84 83.1901 23.92 78.6301L25.09 76.0601C25.92 74.2401 26.09 72.3001 25.72 70.4801H54.88C54.51 72.3001 54.68 74.2401 55.51 76.0601L56.68 78.6301C58.76 83.2001 64.16 85.2101 68.72 83.1201L71.29 81.9501C75.86 79.8701 77.87 74.4701 75.78 69.9101H75.8Z" fill="#F8FAFF" stroke="black" stroke-width="2" stroke-miterlimit="10"/>
<path d="M47.16 30.48H32.84C25.42 30.48 19.4 24.46 19.4 17.04V11.34C19.4 7.16998 23.98 4.60998 27.53 6.79998L49.96 20.6C54.54 23.42 52.54 30.48 47.16 30.48Z" fill="#F8FAFF" stroke="black" stroke-width="2" stroke-miterlimit="10"/>
<path d="M33.47 30.48H47.79C55.21 30.48 61.23 24.46 61.23 17.04V11.34C61.23 7.16998 56.65 4.60998 53.1 6.79998L30.67 20.6C26.09 23.42 28.09 30.48 33.47 30.48Z" fill="#F8FAFF" stroke="black" stroke-width="2" stroke-miterlimit="10"/>
<path d="M60.26 32.61C60.28 32.23 60.32 31.86 60.32 31.48C60.32 20.43 51.37 11.48 40.32 11.48C29.27 11.48 20.31 20.44 20.31 31.48C20.31 31.86 20.35 32.23 20.37 32.61C19.17 34.07 18.46 35.94 18.46 37.98C18.46 42.67 22.27 46.48 26.96 46.48C27.01 46.48 27.06 46.48 27.11 46.48C30.63 49.59 35.25 49.49 40.32 49.49C45.39 49.49 50 49.59 53.53 46.48C53.58 46.48 53.63 46.48 53.68 46.48C58.37 46.48 62.18 42.67 62.18 37.98C62.18 35.94 61.46 34.07 60.27 32.61H60.26Z" fill="#F8FAFF" stroke="black" stroke-width="2" stroke-miterlimit="10"/>
<path d="M38.31 29.5901V34.1401" stroke="#1B1B1B" stroke-width="2" stroke-linejoin="bevel"/>
<path d="M42.31 29.5901V34.1401" stroke="#1B1B1B" stroke-width="2" stroke-linejoin="bevel"/>
<path d="M24.31 67.2802V87.5102C24.31 87.5102 24.29 87.5602 24.26 87.5602H23.75C18.88 87.5602 14.62 91.2302 14.32 96.0902C14 101.36 18.19 105.74 23.39 105.74H31.21C36.23 105.74 40.3 101.67 40.3 96.6502C40.3 101.67 44.37 105.74 49.39 105.74H57.21C62.42 105.74 66.6 101.36 66.28 96.0902C65.99 91.2302 61.72 87.5602 56.85 87.5602H56.34C56.34 87.5602 56.29 87.5402 56.29 87.5102L56.24 67.2402" fill="#F8FAFF"/>
<path d="M24.31 67.2802V87.5102C24.31 87.5102 24.29 87.5602 24.26 87.5602H23.75C18.88 87.5602 14.62 91.2302 14.32 96.0902C14 101.36 18.19 105.74 23.39 105.74H31.21C36.23 105.74 40.3 101.67 40.3 96.6502C40.3 101.67 44.37 105.74 49.39 105.74H57.21C62.42 105.74 66.6 101.36 66.28 96.0902C65.99 91.2302 61.72 87.5602 56.85 87.5602H56.34C56.34 87.5602 56.29 87.5402 56.29 87.5102L56.24 67.2402" stroke="black" stroke-width="2" stroke-miterlimit="10"/>
<path d="M29.38 30.5901C31.62 31.4201 33.31 32.8701 34.31 34.4801" stroke="#C4C4C4" stroke-width="2" stroke-miterlimit="10"/>
<path d="M27.64 33.83C29.78 33.82 31.77 34.35 33.45 35.25" stroke="#C4C4C4" stroke-width="2" stroke-miterlimit="10"/>
<path d="M51.25 30.5901C49.01 31.4201 47.32 32.8701 46.32 34.4801" stroke="#C4C4C4" stroke-width="2" stroke-miterlimit="10"/>
<path d="M52.98 33.83C50.84 33.82 48.85 34.35 47.17 35.25" stroke="#C4C4C4" stroke-width="2" stroke-miterlimit="10"/>
</g>
<defs>
<clipPath id="clip0_2354_13160">
<rect width="80" height="80" fill="white"/>
</clipPath>
</defs>
</svg>
