<svg width="80" height="80" viewBox="0 0 80 80" fill="none" xmlns="http://www.w3.org/2000/svg">
<g clip-path="url(#clip0_3204_345)">
<rect width="80" height="80" fill="#FFC587"/>
<path d="M75.8 75.91L74.63 73.34C72.8 69.33 68.43 67.3 64.3 68.26C55.69 50.39 40.31 45.06 40.31 45.06C40.31 45.06 24.93 50.4 16.32 68.26C12.19 67.29 7.82 69.33 5.99 73.34L4.82 75.91C2.74 80.48 4.75 85.87 9.31 87.95L11.88 89.12C16.45 91.2 21.84 89.19 23.92 84.63L25.09 82.06C25.92 80.24 26.09 78.3 25.72 76.48H54.88C54.51 78.3 54.68 80.24 55.51 82.06L56.68 84.63C58.76 89.2 64.16 91.21 68.72 89.12L71.29 87.95C75.86 85.87 77.87 80.47 75.78 75.91H75.8Z" fill="#FAFAFA" stroke="#1B1B1B" stroke-width="2" stroke-miterlimit="10"/>
<path d="M47.16 36.48H32.84C25.42 36.48 19.4 30.46 19.4 23.04V17.34C19.4 13.17 23.98 10.61 27.53 12.8L49.96 26.6C54.54 29.42 52.54 36.48 47.16 36.48Z" fill="#FAFAFA" stroke="#1B1B1B" stroke-width="2" stroke-miterlimit="10"/>
<path d="M33.47 36.48H47.79C55.21 36.48 61.23 30.46 61.23 23.04V17.34C61.23 13.17 56.65 10.61 53.1 12.8L30.67 26.6C26.09 29.42 28.09 36.48 33.47 36.48Z" fill="#FAFAFA" stroke="#1B1B1B" stroke-width="2" stroke-miterlimit="10"/>
<path d="M60.26 38.61C60.28 38.23 60.32 37.86 60.32 37.48C60.32 26.43 51.37 17.48 40.32 17.48C29.27 17.48 20.31 26.44 20.31 37.48C20.31 37.86 20.35 38.23 20.37 38.61C19.17 40.07 18.46 41.94 18.46 43.98C18.46 48.67 22.27 52.48 26.96 52.48C27.01 52.48 27.06 52.48 27.11 52.48C30.63 55.59 35.25 55.49 40.32 55.49C45.39 55.49 50 55.59 53.53 52.48C53.58 52.48 53.63 52.48 53.68 52.48C58.37 52.48 62.18 48.67 62.18 43.98C62.18 41.94 61.46 40.07 60.27 38.61H60.26Z" fill="#FAFAFA" stroke="#1B1B1B" stroke-width="2" stroke-miterlimit="10"/>
<path d="M38.31 35.59V40.14" stroke="#1B1B1B" stroke-width="2" stroke-linejoin="bevel"/>
<path d="M42.31 35.59V40.14" stroke="#1B1B1B" stroke-width="2" stroke-linejoin="bevel"/>
<path d="M24.31 73.28V93.51C24.31 93.51 24.29 93.56 24.26 93.56H23.75C18.88 93.56 14.62 97.23 14.32 102.09C14 107.36 18.19 111.74 23.39 111.74H31.21C36.23 111.74 40.3 107.67 40.3 102.65C40.3 107.67 44.37 111.74 49.39 111.74H57.21C62.42 111.74 66.6 107.36 66.28 102.09C65.99 97.23 61.72 93.56 56.85 93.56H56.34C56.34 93.56 56.29 93.54 56.29 93.51L56.24 73.24" fill="#FAFAFA"/>
<path d="M24.31 73.28V93.51C24.31 93.51 24.29 93.56 24.26 93.56H23.75C18.88 93.56 14.62 97.23 14.32 102.09C14 107.36 18.19 111.74 23.39 111.74H31.21C36.23 111.74 40.3 107.67 40.3 102.65C40.3 107.67 44.37 111.74 49.39 111.74H57.21C62.42 111.74 66.6 107.36 66.28 102.09C65.99 97.23 61.72 93.56 56.85 93.56H56.34C56.34 93.56 56.29 93.54 56.29 93.51L56.24 73.24" stroke="#1B1B1B" stroke-width="2" stroke-miterlimit="10"/>
<path d="M29.38 36.59C31.62 37.42 33.31 38.87 34.31 40.48" stroke="#C4C4C4" stroke-width="2" stroke-miterlimit="10"/>
<path d="M27.64 39.83C29.78 39.82 31.77 40.35 33.45 41.25" stroke="#C4C4C4" stroke-width="2" stroke-miterlimit="10"/>
<path d="M51.25 36.59C49.01 37.42 47.32 38.87 46.32 40.48" stroke="#C4C4C4" stroke-width="2" stroke-miterlimit="10"/>
<path d="M52.98 39.83C50.84 39.82 48.85 40.35 47.17 41.25" stroke="#C4C4C4" stroke-width="2" stroke-miterlimit="10"/>
</g>
<defs>
<clipPath id="clip0_3204_345">
<rect width="80" height="80" fill="white"/>
</clipPath>
</defs>
</svg>
