<svg width="80" height="80" viewBox="0 0 80 80" fill="none" xmlns="http://www.w3.org/2000/svg">
<g clip-path="url(#clip0_3204_344)">
<rect width="80" height="80" fill="#B4E791"/>
<path d="M56.42 78.0798C56.08 80.0298 56.4 82.0998 57.47 83.9498L58.19 85.2098C60.61 89.4098 65.98 90.8498 70.18 88.4198L74.03 86.1998C78.23 83.7798 79.67 78.4098 77.24 74.2098L76.52 72.9498C74.72 69.8298 71.3 68.2398 67.94 68.6198C64.11 55.8398 52.75 46.5798 39.32 46.5798C25.89 46.5798 14.52 55.8498 10.7 68.6198C7.33999 68.2398 3.91999 69.8298 2.11999 72.9498L1.39999 74.2098C-1.02001 78.4098 0.409995 83.7698 4.60999 86.1998L8.45999 88.4198C12.66 90.8398 18.02 89.4098 20.45 85.2098L21.17 83.9498C22.24 82.0998 22.55 80.0298 22.22 78.0798" fill="#FFA543"/>
<path fill-rule="evenodd" clip-rule="evenodd" d="M22.22 78.0798C22.55 80.0298 22.24 82.0998 21.17 83.9498L20.45 85.2098C18.02 89.4098 12.66 90.8398 8.45996 88.4198L4.60996 86.1998C0.409964 83.7698 -1.02004 78.4098 1.39996 74.2098L2.11996 72.9498C3.67006 70.263 6.42156 68.7108 9.30153 68.5743L22.22 78.0798Z" fill="white"/>
<path fill-rule="evenodd" clip-rule="evenodd" d="M69.3385 68.5743L56.42 78.0798L56.4199 78.0799C56.08 80.0299 56.4 82.0998 57.47 83.9498L58.19 85.2098C60.61 89.4098 65.98 90.8498 70.18 88.4198L74.03 86.1998C78.23 83.7798 79.67 78.4098 77.24 74.2098L76.52 72.9498C74.9699 70.263 72.2184 68.7108 69.3385 68.5743Z" fill="white"/>
<path d="M56.42 78.0798C56.08 80.0298 56.4 82.0998 57.47 83.9498L58.19 85.2098C60.61 89.4098 65.98 90.8498 70.18 88.4198L74.03 86.1998C78.23 83.7798 79.67 78.4098 77.24 74.2098L76.52 72.9498C74.72 69.8298 71.3 68.2398 67.94 68.6198C64.11 55.8398 52.75 46.5798 39.32 46.5798C25.89 46.5798 14.52 55.8498 10.7 68.6198C7.33999 68.2398 3.91999 69.8298 2.11999 72.9498L1.39999 74.2098C-1.02001 78.4098 0.409995 83.7698 4.60999 86.1998L8.45999 88.4198C12.66 90.8398 18.02 89.4098 20.45 85.2098L21.17 83.9498C22.24 82.0998 22.55 80.0298 22.22 78.0798" stroke="#1B1B1B" stroke-width="2" stroke-miterlimit="10"/>
<path d="M21.67 72.1798L23.42 91.1798H21.86C15.77 91.1798 10.83 96.1198 10.83 102.21C10.83 108.3 15.77 113.24 21.86 113.24H29.83C39.33 113.24 39.33 103.13 39.33 99.2498C39.33 103.44 39.33 113.24 48.83 113.24H56.8C62.89 113.24 67.83 108.3 67.83 102.21C67.83 96.1198 62.89 91.1798 56.8 91.1798H55.24L56.9 71.4798" fill="#FFA543"/>
<path d="M21.67 72.1798L23.42 91.1798H21.86C15.77 91.1798 10.83 96.1198 10.83 102.21C10.83 108.3 15.77 113.24 21.86 113.24H29.83C39.33 113.24 39.33 103.13 39.33 99.2498C39.33 103.44 39.33 113.24 48.83 113.24H56.8C62.89 113.24 67.83 108.3 67.83 102.21C67.83 96.1198 62.89 91.1798 56.8 91.1798H55.24L56.9 71.4798" stroke="#1B1B1B" stroke-width="2" stroke-miterlimit="10"/>
<path d="M59.32 36.1698C59.32 36.1698 59.27 36.1698 59.24 36.1698C59.26 35.7998 59.3 35.4398 59.3 35.0698C59.3 32.8898 58.92 30.7898 58.23 28.8298C58.09 28.4398 58.31 28.0198 58.71 27.9198C59.75 27.6598 60.74 27.1398 61.56 26.3298C64.24 23.6498 64.24 19.3198 61.56 16.6398L59.23 14.3098C56.55 11.6298 52.22 11.6298 49.54 14.3098C48.84 15.0098 48.34 15.8498 48.05 16.7298C47.92 17.1198 47.49 17.2898 47.12 17.1398C44.72 16.1398 42.09 15.5798 39.32 15.5798C36.55 15.5798 33.92 16.1498 31.52 17.1398C31.15 17.2998 30.72 17.1198 30.59 16.7298C30.3 15.8498 29.8 15.0098 29.1 14.3098C26.42 11.6298 22.09 11.6298 19.41 14.3098L17.08 16.6398C14.4 19.3198 14.4 23.6498 17.08 26.3298C17.9 27.1498 18.88 27.6698 19.93 27.9198C20.33 28.0198 20.55 28.4398 20.41 28.8298C19.73 30.7898 19.34 32.8798 19.34 35.0698C19.34 35.4398 19.38 35.8098 19.4 36.1698C19.37 36.1698 19.35 36.1698 19.32 36.1698C16.55 36.1698 14.3 38.3698 14.3 41.0698C14.3 43.7698 16.55 45.9698 19.32 45.9698C19.51 45.9698 19.68 45.9398 19.86 45.9198C19.83 46.1298 19.79 46.3498 19.79 46.5698C19.79 49.2798 22.04 51.4698 24.81 51.4698C25.63 51.4698 26.39 51.2698 27.07 50.9298C27.3 50.8098 27.58 50.8198 27.79 50.9698C31.05 53.2198 35.01 54.5598 39.31 54.5598C43.61 54.5598 47.57 53.2198 50.83 50.9698C51.05 50.8198 51.32 50.8098 51.55 50.9298C52.23 51.2698 52.99 51.4698 53.81 51.4698C56.58 51.4698 58.83 49.2698 58.83 46.5698C58.83 46.3498 58.79 46.1398 58.76 45.9198C58.94 45.9398 59.12 45.9698 59.3 45.9698C62.07 45.9698 64.32 43.7698 64.32 41.0698C64.32 38.3698 62.07 36.1698 59.3 36.1698H59.32Z" fill="#FFA543"/>
<path fill-rule="evenodd" clip-rule="evenodd" d="M59.3148 36.1698H59.31L59.3176 36.1703L45.12 39.2298C44.51 36.5598 42.13 34.5698 39.28 34.5698C36.43 34.5698 34.06 36.5498 33.44 39.2098L19.4 36.1798L16.9163 36.7688C15.3581 37.6019 14.3 39.2183 14.3 41.0698C14.3 43.7698 16.55 45.9698 19.32 45.9698C19.4611 45.9698 19.5912 45.9533 19.7226 45.9365C19.7681 45.9308 19.8137 45.9249 19.86 45.9198C19.8548 45.9566 19.8492 45.9937 19.8436 46.0311C19.8172 46.2069 19.79 46.3884 19.79 46.5698C19.79 49.2798 22.04 51.4698 24.81 51.4698C25.63 51.4698 26.39 51.2698 27.07 50.9298C27.3 50.8098 27.58 50.8198 27.79 50.9698C31.05 53.2198 35.01 54.5598 39.31 54.5598C43.61 54.5598 47.57 53.2198 50.83 50.9698C51.05 50.8198 51.32 50.8098 51.55 50.9298C52.23 51.2698 52.99 51.4698 53.81 51.4698C56.58 51.4698 58.83 49.2698 58.83 46.5698C58.83 46.3975 58.8055 46.2313 58.7804 46.0617C58.7735 46.0147 58.7665 45.9675 58.76 45.9198C58.805 45.9248 58.85 45.9304 58.895 45.9361C59.03 45.9529 59.165 45.9698 59.3 45.9698C62.07 45.9698 64.32 43.7698 64.32 41.0698C64.32 38.5928 62.4263 36.5366 59.9747 36.2139L59.3176 36.1703L59.3199 36.1698C59.3182 36.1698 59.3165 36.1698 59.3148 36.1698Z" fill="#FAFAFA"/>
<path d="M59.32 36.1698C59.32 36.1698 59.27 36.1698 59.24 36.1698C59.26 35.7998 59.3 35.4398 59.3 35.0698C59.3 32.8898 58.92 30.7898 58.23 28.8298C58.09 28.4398 58.31 28.0198 58.71 27.9198C59.75 27.6598 60.74 27.1398 61.56 26.3298C64.24 23.6498 64.24 19.3198 61.56 16.6398L59.23 14.3098C56.55 11.6298 52.22 11.6298 49.54 14.3098C48.84 15.0098 48.34 15.8498 48.05 16.7298C47.92 17.1198 47.49 17.2898 47.12 17.1398C44.72 16.1398 42.09 15.5798 39.32 15.5798C36.55 15.5798 33.92 16.1498 31.52 17.1398C31.15 17.2998 30.72 17.1198 30.59 16.7298C30.3 15.8498 29.8 15.0098 29.1 14.3098C26.42 11.6298 22.09 11.6298 19.41 14.3098L17.08 16.6398C14.4 19.3198 14.4 23.6498 17.08 26.3298C17.9 27.1498 18.88 27.6698 19.93 27.9198C20.33 28.0198 20.55 28.4398 20.41 28.8298C19.73 30.7898 19.34 32.8798 19.34 35.0698C19.34 35.4398 19.38 35.8098 19.4 36.1698C19.37 36.1698 19.35 36.1698 19.32 36.1698C16.55 36.1698 14.3 38.3698 14.3 41.0698C14.3 43.7698 16.55 45.9698 19.32 45.9698C19.51 45.9698 19.68 45.9398 19.86 45.9198C19.83 46.1298 19.79 46.3498 19.79 46.5698C19.79 49.2798 22.04 51.4698 24.81 51.4698C25.63 51.4698 26.39 51.2698 27.07 50.9298C27.3 50.8098 27.58 50.8198 27.79 50.9698C31.05 53.2198 35.01 54.5598 39.31 54.5598C43.61 54.5598 47.57 53.2198 50.83 50.9698C51.05 50.8198 51.32 50.8098 51.55 50.9298C52.23 51.2698 52.99 51.4698 53.81 51.4698C56.58 51.4698 58.83 49.2698 58.83 46.5698C58.83 46.3498 58.79 46.1398 58.76 45.9198C58.94 45.9398 59.12 45.9698 59.3 45.9698C62.07 45.9698 64.32 43.7698 64.32 41.0698C64.32 38.3698 62.07 36.1698 59.3 36.1698H59.32Z" stroke="#1B1B1B" stroke-width="2" stroke-miterlimit="10"/>
<path d="M37.32 30.9198V35.4698" stroke="#1B1B1B" stroke-width="2" stroke-linejoin="bevel"/>
<path d="M41.32 30.9198V35.4698" stroke="#1B1B1B" stroke-width="2" stroke-linejoin="bevel"/>
<path d="M19.34 35.0798L25.28 36.5798" stroke="#1B1B1B" stroke-width="2" stroke-linejoin="bevel"/>
<path d="M20.34 32.0798L26.28 33.5798" stroke="#1B1B1B" stroke-width="2" stroke-linejoin="bevel"/>
<path d="M59.29 35.0798L53.36 36.5798" stroke="#1B1B1B" stroke-width="2" stroke-linejoin="bevel"/>
<path d="M58.29 32.0798L52.36 33.5798" stroke="#1B1B1B" stroke-width="2" stroke-linejoin="bevel"/>
<path d="M39.32 15.5798V21.8698" stroke="#1B1B1B" stroke-width="2" stroke-linejoin="bevel"/>
<path d="M36.32 15.5798V20.5798" stroke="#1B1B1B" stroke-width="2" stroke-linejoin="bevel"/>
<path d="M42.32 15.5798V20.5798" stroke="#1B1B1B" stroke-width="2" stroke-linejoin="bevel"/>
<path d="M39.32 97.5798C46.8476 97.5798 52.95 88.8494 52.95 78.0798C52.95 67.3103 46.8476 58.5798 39.32 58.5798C31.7924 58.5798 25.69 67.3103 25.69 78.0798C25.69 88.8494 31.7924 97.5798 39.32 97.5798Z" fill="#FAFAFA"/>
<path d="M14.29 61.8898L19.34 64.3298" stroke="#1B1B1B" stroke-width="2" stroke-linejoin="bevel"/>
<path d="M16.82 57.2498L21.95 59.5798" stroke="#1B1B1B" stroke-width="2" stroke-linejoin="bevel"/>
<path d="M64.34 61.8898L59.29 64.3298" stroke="#1B1B1B" stroke-width="2" stroke-linejoin="bevel"/>
<path d="M61.82 57.2498L56.69 59.5798" stroke="#1B1B1B" stroke-width="2" stroke-linejoin="bevel"/>
</g>
<defs>
<clipPath id="clip0_3204_344">
<rect width="80" height="80" fill="white"/>
</clipPath>
</defs>
</svg>
