<svg width="80" height="80" viewBox="0 0 80 80" fill="none" xmlns="http://www.w3.org/2000/svg">
<g clip-path="url(#clip0_2329_15411)">
<rect width="80" height="80" fill="#C7E8EF"/>
<path d="M50.72 75.3099L53.68 76.7499C53.92 77.9899 54.41 79.1999 55.16 80.3199C58.17 84.7999 64.24 85.9899 68.72 82.9799L72.16 80.6699C76.64 77.6599 77.83 71.5899 74.82 67.1099C71.98 62.8899 66.42 61.5899 62.04 63.9799C58.78 58.9699 53.11 51.9499 44.75 47.3599H35.25C26.88 51.9499 21.21 58.9699 17.96 63.9799C13.58 61.5899 8.01997 62.8799 5.17997 67.1099C2.16997 71.5899 3.35997 77.6599 7.83997 80.6699L11.28 82.9799C15.76 85.9899 21.83 84.7999 24.84 80.3199C25.59 79.2099 26.08 77.9899 26.32 76.7499L29.28 75.3099" fill="#8AD953"/>
<path d="M50.72 75.3099L53.68 76.7499C53.92 77.9899 54.41 79.1999 55.16 80.3199C58.17 84.7999 64.24 85.9899 68.72 82.9799L72.16 80.6699C76.64 77.6599 77.83 71.5899 74.82 67.1099C71.98 62.8899 66.42 61.5899 62.04 63.9799C58.78 58.9699 53.11 51.9499 44.75 47.3599H35.25C26.88 51.9499 21.21 58.9699 17.96 63.9799C13.58 61.5899 8.01997 62.8799 5.17997 67.1099C2.16997 71.5899 3.35997 77.6599 7.83997 80.6699L11.28 82.9799C15.76 85.9899 21.83 84.7999 24.84 80.3199C25.59 79.2099 26.08 77.9899 26.32 76.7499L29.28 75.3099" stroke="#1B1B1B" stroke-width="2" stroke-miterlimit="10"/>
<path d="M51.94 21.3798V18.6098C51.94 14.6898 48.76 11.5098 44.84 11.5098C42.97 11.5098 41.27 12.2398 40 13.4298C38.73 12.2398 37.03 11.5098 35.16 11.5098C31.24 11.5098 28.06 14.6898 28.06 18.6098V21.3798C20.41 22.6598 14.58 29.2998 14.58 37.3198C14.58 46.2398 21.82 53.4798 30.74 53.4798H49.27C58.19 53.4798 65.43 46.2398 65.43 37.3198C65.43 29.3098 59.6 22.6598 51.95 21.3798H51.94Z" fill="#8AD953" stroke="#1B1B1B" stroke-width="2" stroke-miterlimit="10"/>
<path d="M26.34 66.45L24.09 85.45H22.53C16.44 85.45 11.5 90.39 11.5 96.48C11.5 102.57 16.44 107.51 22.53 107.51H30.5C40 107.51 40 97.4 40 93.52C40 97.71 40 107.51 49.5 107.51H57.47C63.56 107.51 68.5 102.57 68.5 96.48C68.5 90.39 63.56 85.45 57.47 85.45H55.91L53.57 65.75" fill="#8AD953"/>
<path d="M26.34 66.45L24.09 85.45H22.53C16.44 85.45 11.5 90.39 11.5 96.48C11.5 102.57 16.44 107.51 22.53 107.51H30.5C40 107.51 40 97.4 40 93.52C40 97.71 40 107.51 49.5 107.51H57.47C63.56 107.51 68.5 102.57 68.5 96.48C68.5 90.39 63.56 85.45 57.47 85.45H55.91L53.57 65.75" stroke="#1B1B1B" stroke-width="2" stroke-miterlimit="10"/>
<path d="M37.87 16.0298V21.7698" stroke="#1B1B1B" stroke-width="2" stroke-miterlimit="10"/>
<path d="M42.12 16.0298V21.7698" stroke="#1B1B1B" stroke-width="2" stroke-miterlimit="10"/>
</g>
<defs>
<clipPath id="clip0_2329_15411">
<rect width="80" height="80" fill="white"/>
</clipPath>
</defs>
</svg>
