<svg width="80" height="80" viewBox="0 0 80 80" fill="none" xmlns="http://www.w3.org/2000/svg">
<g clip-path="url(#clip0_3204_350)">
<rect width="80" height="80" fill="#C7E8EF"/>
<path d="M50.72 75.3097L53.68 76.7497C53.92 77.9897 54.41 79.1997 55.16 80.3197C58.17 84.7997 64.24 85.9897 68.72 82.9797L72.16 80.6697C76.64 77.6597 77.83 71.5897 74.82 67.1097C71.98 62.8897 66.42 61.5897 62.04 63.9797C58.78 58.9697 53.11 51.9497 44.75 47.3597H35.25C26.88 51.9497 21.21 58.9697 17.96 63.9797C13.58 61.5897 8.01997 62.8797 5.17997 67.1097C2.16997 71.5897 3.35997 77.6597 7.83997 80.6697L11.28 82.9797C15.76 85.9897 21.83 84.7997 24.84 80.3197C25.59 79.2097 26.08 77.9897 26.32 76.7497L29.28 75.3097" fill="#8AD953"/>
<path d="M50.72 75.3097L53.68 76.7497C53.92 77.9897 54.41 79.1997 55.16 80.3197C58.17 84.7997 64.24 85.9897 68.72 82.9797L72.16 80.6697C76.64 77.6597 77.83 71.5897 74.82 67.1097C71.98 62.8897 66.42 61.5897 62.04 63.9797C58.78 58.9697 53.11 51.9497 44.75 47.3597H35.25C26.88 51.9497 21.21 58.9697 17.96 63.9797C13.58 61.5897 8.01997 62.8797 5.17997 67.1097C2.16997 71.5897 3.35997 77.6597 7.83997 80.6697L11.28 82.9797C15.76 85.9897 21.83 84.7997 24.84 80.3197C25.59 79.2097 26.08 77.9897 26.32 76.7497L29.28 75.3097" stroke="#1B1B1B" stroke-width="2" stroke-miterlimit="10"/>
<path d="M51.94 21.3798V18.6098C51.94 14.6898 48.76 11.5098 44.84 11.5098C42.97 11.5098 41.27 12.2398 40 13.4298C38.73 12.2398 37.03 11.5098 35.16 11.5098C31.24 11.5098 28.06 14.6898 28.06 18.6098V21.3798C20.41 22.6598 14.58 29.2998 14.58 37.3198C14.58 46.2398 21.82 53.4798 30.74 53.4798H49.27C58.19 53.4798 65.43 46.2398 65.43 37.3198C65.43 29.3098 59.6 22.6598 51.95 21.3798H51.94Z" fill="#8AD953" stroke="#1B1B1B" stroke-width="2" stroke-miterlimit="10"/>
<path d="M26.34 66.4498L24.09 85.4498H22.53C16.44 85.4498 11.5 90.3898 11.5 96.4798C11.5 102.57 16.44 107.51 22.53 107.51H30.5C40 107.51 40 97.3998 40 93.5198C40 97.7098 40 107.51 49.5 107.51H57.47C63.56 107.51 68.5 102.57 68.5 96.4798C68.5 90.3898 63.56 85.4498 57.47 85.4498H55.91L53.57 65.7498" fill="#8AD953"/>
<path d="M26.34 66.4498L24.09 85.4498H22.53C16.44 85.4498 11.5 90.3898 11.5 96.4798C11.5 102.57 16.44 107.51 22.53 107.51H30.5C40 107.51 40 97.3998 40 93.5198C40 97.7098 40 107.51 49.5 107.51H57.47C63.56 107.51 68.5 102.57 68.5 96.4798C68.5 90.3898 63.56 85.4498 57.47 85.4498H55.91L53.57 65.7498" stroke="#1B1B1B" stroke-width="2" stroke-miterlimit="10"/>
<path d="M37.87 16.0298V21.7698" stroke="#1B1B1B" stroke-width="2" stroke-miterlimit="10"/>
<path d="M42.12 16.0298V21.7698" stroke="#1B1B1B" stroke-width="2" stroke-miterlimit="10"/>
</g>
<defs>
<clipPath id="clip0_3204_350">
<rect width="80" height="80" fill="white"/>
</clipPath>
</defs>
</svg>
