<svg width="80" height="80" viewBox="0 0 80 80" fill="none" xmlns="http://www.w3.org/2000/svg">
<g clip-path="url(#clip0_3204_342)">
<rect width="80" height="80" fill="#B4E791"/>
<path d="M73.93 69.5903C77.75 74.4303 76.93 81.4503 72.09 85.2803L70.18 86.7903C68.13 88.4103 65.68 89.2003 63.26 89.2003C60.18 89.2003 57.13 87.9303 54.94 85.4903L53.89 76.1103L52.85 66.8203L28.68 67.1403L27.48 76.1103L26.49 83.4603C26.2 83.9803 25.87 84.4803 25.49 84.9603C21.67 89.8003 14.65 90.6203 9.81003 86.7903L7.89003 85.2803C5.11003 83.0703 3.66003 79.8103 3.66003 76.5103C3.66003 74.0803 4.44003 71.6403 6.06003 69.5903C9.10003 65.7503 14.17 64.4403 18.55 66.0003C20.67 61.5203 24.37 55.9103 30.73 50.8303C32.86 51.6603 35.19 52.1103 37.61 52.1103H42.38C44.81 52.1103 47.13 51.6603 49.26 50.8303C55.63 55.9203 59.32 61.5203 61.44 66.0003C62.65 65.5703 63.91 65.3603 65.17 65.3603C68.46 65.3603 71.72 66.8103 73.93 69.5903Z" fill="#0CD3F4"/>
<path d="M39.99 109.24H17.83L23.89 102.88L26.49 83.4603C26.87 82.7903 27.16 82.0903 27.39 81.3803L32.61 76.6203H47.37L52.6 81.3803C53 82.6403 53.62 83.8603 54.49 84.9603C54.63 85.1403 54.78 85.3203 54.94 85.4903L56.88 102.88L62.15 109.24H39.99Z" fill="#FAFAFA"/>
<path d="M61.6 30.8603V32.8903C61.6 41.0803 56.47 48.0703 49.26 50.8303C48.65 50.3403 48.02 49.8603 47.37 49.3903H32.61C31.96 49.8603 31.33 50.3403 30.73 50.8303C23.51 48.0703 18.39 41.0703 18.39 32.8903V31.4103C19.64 36.2603 23.89 39.9003 29.04 40.2203C29.49 42.0903 31.16 43.4603 33.17 43.4603L37.42 39.2003C37.42 38.6603 37.32 38.1503 37.14 37.6803C37.15 37.6703 37.17 37.6603 37.18 37.6503C39.2 39.2803 41.77 40.2503 44.56 40.2503C51.07 40.2503 56.34 34.9803 56.34 28.4703C56.34 28.2803 56.34 28.0903 56.32 27.9003H61.37C61.52 28.8703 61.6 29.8503 61.6 30.8603Z" fill="#0CD3F4"/>
<path d="M61.37 27.9003H56.32C56.03 21.6703 50.88 16.6903 44.56 16.6903C41.77 16.6903 39.2 17.6703 37.18 19.3003C35.16 17.6703 32.6 16.6903 29.8 16.6903C26.81 16.6903 24.09 17.8003 22.01 19.6403C25.5 14.7903 31.19 11.6403 37.61 11.6403H42.38C42.53 11.6403 42.68 11.6403 42.83 11.6503L41.86 12.1903L57.49 20.7903L57.64 19.1803C59.56 21.6703 60.87 24.6503 61.37 27.9003Z" fill="#0CD3F4"/>
<path d="M56.54 3.98028C57.67 3.35028 59.05 4.25028 58.93 5.54028L57.64 19.1803C54.21 14.7003 48.86 11.7803 42.83 11.6503L56.54 3.98028Z" fill="#FAFAFA"/>
<path d="M57.64 19.1803L57.49 20.7903L41.86 12.1903L42.83 11.6503C48.86 11.7803 54.21 14.7003 57.64 19.1803Z" fill="#0CD3F4"/>
<path d="M56.32 27.9003C56.34 28.0903 56.34 28.2803 56.34 28.4703C56.34 34.9803 51.07 40.2503 44.56 40.2503C41.77 40.2503 39.2 39.2803 37.18 37.6503C37.17 37.6603 37.15 37.6703 37.14 37.6803C36.53 36.0803 34.99 34.9503 33.17 34.9503C30.81 34.9503 28.91 36.8503 28.91 39.2003C28.91 39.5503 28.95 39.8903 29.04 40.2203C23.89 39.9003 19.64 36.2603 18.39 31.4103V30.8603C18.39 26.6703 19.73 22.7903 22.01 19.6403C24.09 17.8003 26.81 16.6903 29.8 16.6903C32.6 16.6903 35.16 17.6703 37.18 19.3003C39.2 17.6703 41.77 16.6903 44.56 16.6903C50.88 16.6903 56.03 21.6703 56.32 27.9003Z" fill="#FAFAFA"/>
<path d="M53.89 76.1103L54.94 85.4903C54.78 85.3203 54.63 85.1403 54.49 84.9603C53.62 83.8603 53 82.6403 52.6 81.3803L47.37 76.6203H32.61L27.39 81.3803C27.16 82.0903 26.87 82.7903 26.49 83.4603L27.48 76.1103H53.89Z" fill="#FAFAFA"/>
<path d="M52.85 66.8203L53.89 76.1103H27.48L28.68 67.1403L52.85 66.8203Z" fill="#0CD3F4"/>
<path d="M47.37 49.3903C48.02 49.8603 48.65 50.3403 49.26 50.8303C47.13 51.6603 44.81 52.1103 42.38 52.1103H37.61C35.19 52.1103 32.86 51.6603 30.73 50.8303C31.33 50.3403 31.96 49.8603 32.61 49.3903H47.37Z" fill="#0CD3F4"/>
<path d="M37.42 39.2003L33.17 43.4603C31.16 43.4603 29.49 42.0903 29.04 40.2203C29.29 40.2403 29.55 40.2503 29.8 40.2503C32.58 40.2503 35.13 39.2903 37.14 37.6803C37.32 38.1503 37.42 38.6603 37.42 39.2003Z" fill="#0CD3F4"/>
<path d="M33.17 34.9503C34.99 34.9503 36.53 36.0803 37.14 37.6803C35.13 39.2903 32.58 40.2503 29.8 40.2503C29.55 40.2503 29.29 40.2403 29.04 40.2203C28.95 39.8903 28.91 39.5503 28.91 39.2003C28.91 36.8503 30.81 34.9503 33.17 34.9503Z" fill="#0CD3F4"/>
<path d="M18.02 28.4703C18.02 24.9603 19.56 21.8003 22.01 19.6403C19.73 22.7903 18.39 26.6703 18.39 30.8603V31.4103C18.15 30.4703 18.02 29.4903 18.02 28.4703Z" fill="white"/>
<path d="M42.83 11.6503L56.54 3.98028C57.67 3.35028 59.05 4.25028 58.93 5.54028L57.64 19.1803" stroke="#1B1B1B" stroke-width="2" stroke-miterlimit="10"/>
<path d="M30.73 50.8303C24.37 55.9103 20.67 61.5203 18.55 66.0003C14.17 64.4403 9.10003 65.7503 6.06003 69.5903C4.44003 71.6403 3.66003 74.0803 3.66003 76.5103C3.66003 79.8103 5.11003 83.0703 7.89003 85.2803L9.81003 86.7903C14.65 90.6203 21.67 89.8003 25.49 84.9603C25.87 84.4803 26.2 83.9803 26.49 83.4603" stroke="#1B1B1B" stroke-width="2" stroke-miterlimit="10"/>
<path d="M54.94 85.4903C57.13 87.9303 60.18 89.2003 63.26 89.2003C65.68 89.2003 68.13 88.4103 70.18 86.7903L72.09 85.2803C76.93 81.4503 77.75 74.4303 73.93 69.5903C71.72 66.8103 68.46 65.3603 65.17 65.3603C63.91 65.3603 62.65 65.5703 61.44 66.0003C59.32 61.5203 55.63 55.9203 49.26 50.8303" stroke="#1B1B1B" stroke-width="2" stroke-miterlimit="10"/>
<path d="M22.01 19.6403C25.5 14.7903 31.19 11.6403 37.61 11.6403H42.38C42.53 11.6403 42.68 11.6403 42.83 11.6503C48.86 11.7803 54.21 14.7003 57.64 19.1803C59.56 21.6703 60.87 24.6503 61.37 27.9003C61.52 28.8703 61.6 29.8503 61.6 30.8603V32.8903C61.6 41.0803 56.47 48.0703 49.26 50.8303C47.13 51.6603 44.81 52.1103 42.38 52.1103H37.61C35.19 52.1103 32.86 51.6603 30.73 50.8303C23.51 48.0703 18.39 41.0703 18.39 32.8903V31.4103" stroke="#1B1B1B" stroke-width="2" stroke-miterlimit="10"/>
<path d="M37.12 37.6803C37.12 37.6803 37.15 37.6603 37.16 37.6503C39.18 39.2803 41.75 40.2503 44.54 40.2503C51.05 40.2503 56.32 34.9803 56.32 28.4703C56.32 28.2803 56.32 28.0903 56.3 27.9003C56.01 21.6703 50.86 16.6903 44.54 16.6903C41.75 16.6903 39.18 17.6703 37.16 19.3003C35.14 17.6703 32.58 16.6903 29.78 16.6903C26.79 16.6903 24.07 17.8003 21.99 19.6403C19.54 21.8003 18 24.9603 18 28.4703C18 29.4903 18.13 30.4703 18.37 31.4103C19.62 36.2603 23.87 39.9003 29.02 40.2203" stroke="#1B1B1B" stroke-width="2" stroke-linejoin="bevel"/>
<path d="M33.17 43.4603C31.16 43.4603 29.49 42.0903 29.04 40.2203C28.95 39.8903 28.91 39.5503 28.91 39.2003C28.91 36.8503 30.81 34.9503 33.17 34.9503C34.99 34.9503 36.53 36.0803 37.14 37.6803C37.32 38.1503 37.42 38.6603 37.42 39.2003" stroke="#1B1B1B" stroke-width="2" stroke-miterlimit="10"/>
<path d="M39.37 26.6904V31.8704" stroke="#1B1B1B" stroke-width="2" stroke-miterlimit="10"/>
<path d="M35 26.6904V31.8704" stroke="#1B1B1B" stroke-width="2" stroke-miterlimit="10"/>
<path d="M56.1 27.9003H63.28C63.28 27.9003 65.95 27.7803 65.95 30.1603C65.95 32.5403 63.43 32.0903 63.43 32.0903" stroke="#1B1B1B" stroke-width="2" stroke-linejoin="bevel"/>
<path d="M52.85 66.8203L53.89 76.1103L54.94 85.4903L56.88 102.88L62.15 109.24H39.99H17.83L23.89 102.88L26.49 83.4603L27.48 76.1103L28.68 67.1403" stroke="#1B1B1B" stroke-width="2" stroke-linejoin="bevel"/>
<path d="M27.48 76.1103H53.89" stroke="#1B1B1B" stroke-width="2" stroke-linejoin="bevel"/>
</g>
<defs>
<clipPath id="clip0_3204_342">
<rect width="80" height="80" fill="white"/>
</clipPath>
</defs>
</svg>
