<svg width="180" height="130" viewBox="0 0 180 130" fill="none" xmlns="http://www.w3.org/2000/svg">
<g clip-path="url(#clip0_2324_13925)">
<path d="M113.97 0H15.97C7.13344 0 -0.0299988 7.16344 -0.0299988 16V114C-0.0299988 122.837 7.13344 130 15.97 130H113.97C122.807 130 129.97 122.837 129.97 114V16C129.97 7.16344 122.807 0 113.97 0Z" fill="#8FDFF3"/>
<path d="M29.39 79.0001C37.376 79.0001 43.85 72.5261 43.85 64.5401C43.85 56.554 37.376 50.0801 29.39 50.0801C21.404 50.0801 14.93 56.554 14.93 64.5401C14.93 72.5261 21.404 79.0001 29.39 79.0001Z" fill="#FFA543" stroke="#1B1B1B" stroke-width="2" stroke-miterlimit="10"/>
<mask id="path-3-inside-1_2324_13925" fill="white">
<path fill-rule="evenodd" clip-rule="evenodd" d="M129.97 40.5026C66.5432 37.5202 29.58 74.3 29.58 74.3C17.6219 64.1878 4.40941 62.8958 -0.0299988 62.7618V114C-0.0299988 122.837 7.13344 130 15.97 130H113.97C122.807 130 129.97 122.837 129.97 114V40.5026Z"/>
</mask>
<path fill-rule="evenodd" clip-rule="evenodd" d="M129.97 40.5026C66.5432 37.5202 29.58 74.3 29.58 74.3C17.6219 64.1878 4.40941 62.8958 -0.0299988 62.7618V114C-0.0299988 122.837 7.13344 130 15.97 130H113.97C122.807 130 129.97 122.837 129.97 114V40.5026Z" fill="#8AD953"/>
<path d="M29.58 74.3L28.2886 75.8271L29.6899 77.0121L30.9907 75.7177L29.58 74.3ZM129.97 40.5026H131.97V38.5945L130.064 38.5048L129.97 40.5026ZM-0.0299988 62.7618L0.0303468 60.7627L-2.03 60.7005V62.7618H-0.0299988ZM29.58 74.3C30.9907 75.7177 30.9902 75.7182 30.9899 75.7185C30.99 75.7184 30.9897 75.7186 30.9899 75.7185C30.9902 75.7182 30.991 75.7174 30.9925 75.716C30.9953 75.7132 31.0004 75.7082 31.0077 75.701C31.0223 75.6867 31.0458 75.6637 31.0783 75.6323C31.1431 75.5696 31.2436 75.4733 31.3794 75.3459C31.6509 75.091 32.0635 74.7115 32.6145 74.2259C33.7166 73.2547 35.372 71.8597 37.56 70.1895C41.937 66.8486 48.4399 62.411 56.904 58.0618C73.829 49.3651 98.5802 41.0288 129.876 42.5004L130.064 38.5048C97.933 36.994 72.4892 45.5564 55.0759 54.504C46.3709 58.9769 39.6688 63.5479 35.1331 67.0099C32.8648 68.7413 31.1369 70.1964 29.9698 71.2249C29.3862 71.7392 28.9427 72.147 28.6418 72.4294C28.4914 72.5706 28.3766 72.6805 28.2977 72.7568C28.2583 72.7949 28.2278 72.8246 28.2064 72.8456C28.1957 72.8561 28.1873 72.8645 28.1811 72.8706C28.178 72.8736 28.1755 72.8761 28.1735 72.8781C28.1725 72.8791 28.1715 72.8801 28.171 72.8806C28.1701 72.8815 28.1693 72.8822 29.58 74.3ZM-0.0903443 64.7609C4.13131 64.8884 16.8198 66.1288 28.2886 75.8271L30.8714 72.7728C18.4239 62.2468 4.68751 60.9033 0.0303468 60.7627L-0.0903443 64.7609ZM-2.03 62.7618V114H1.97V62.7618H-2.03ZM-2.03 114C-2.03 123.941 6.02887 132 15.97 132V128C8.23801 128 1.97 121.732 1.97 114H-2.03ZM15.97 132H113.97V128H15.97V132ZM113.97 132C123.911 132 131.97 123.941 131.97 114H127.97C127.97 121.732 121.702 128 113.97 128V132ZM131.97 114V40.5026H127.97V114H131.97Z" fill="#1B1B1B" mask="url(#path-3-inside-1_2324_13925)"/>
<path d="M41.97 90.3999H1.24002V109.05H41.97V90.3999Z" fill="#1379C4"/>
<path d="M40.96 91.3999V108.05H2.24002V91.3999H40.96ZM42.96 89.3999H0.240021V110.05H42.96V89.3999Z" fill="#1B1B1B"/>
<path d="M113.97 2C121.69 2 127.97 8.28 127.97 16V114C127.97 121.72 121.69 128 113.97 128H15.97C8.25 128 1.97 121.72 1.97 114V16C1.97 8.28 8.25 2 15.97 2H113.97ZM113.97 0H15.97C7.13 0 -0.0299988 7.16 -0.0299988 16V114C-0.0299988 122.84 7.13 130 15.97 130H113.97C122.81 130 129.97 122.84 129.97 114V16C129.97 7.16 122.81 0 113.97 0Z" fill="#1B1B1B"/>
<path d="M84.8199 58.03C88.1799 49.62 94.7799 47.87 101.31 47.97C108.87 48.09 116.91 53.72 116.17 65.36L127.42 53.51C127.42 53.51 124.74 42.25 131.64 38.02C138.54 33.8 149.8 35.49 152.76 42.67C155.71 49.85 154.87 57.03 151.07 60.97C147.27 64.91 143.04 66.88 137.69 64.63L116.24 91.73C116.24 91.73 114.9 114.16 114.54 128.81H67.5299L76.1099 87.23L66.4899 52.7C66.4899 52.7 59.0299 51.72 59.3099 43.69C59.5899 35.67 64.2399 31.45 68.5999 30.18C72.9599 28.91 82.2599 27.93 84.5099 36.37C86.7599 44.82 81.4099 49.33 81.4099 49.33L84.8199 58.03Z" fill="#FAFAFA"/>
<path d="M67.5299 128.81L76.1099 87.23L66.4899 52.7C66.4899 52.7 59.0299 51.72 59.3099 43.69C59.5899 35.67 64.2399 31.45 68.5999 30.18C72.9599 28.91 82.2599 27.93 84.5099 36.37C86.7599 44.82 81.4099 49.33 81.4099 49.33L84.8199 58.03L84.9699 58.42" stroke="#1B1B1B" stroke-width="2" stroke-linejoin="bevel"/>
<path d="M100.89 81.4602L116.17 65.3602L127.42 53.5102C127.42 53.5102 124.74 42.2502 131.64 38.0202C138.54 33.8002 149.8 35.4902 152.76 42.6702C155.71 49.8502 154.87 57.0302 151.07 60.9702C147.27 64.9102 143.04 66.8802 137.69 64.6302L116.24 91.7302C116.24 91.7302 114.9 114.16 114.54 128.81H67.5299" stroke="#1B1B1B" stroke-width="2" stroke-linejoin="bevel"/>
<path d="M93.5399 56.5801L91.4799 60.1501" stroke="#1B1B1B" stroke-width="2" stroke-linejoin="bevel"/>
<path d="M98.1999 56.5801L96.1299 60.1501" stroke="#1B1B1B" stroke-width="2" stroke-linejoin="bevel"/>
<path d="M91.4599 82.08V79.63C91.4599 79.63 80.6299 76.35 83.4299 62.73C83.7899 60.97 84.2599 59.41 84.8199 58.03C88.1799 49.62 94.7799 47.87 101.31 47.97C108.87 48.09 116.91 53.72 116.17 65.36C116.17 65.43 116.16 65.5 116.16 65.57" stroke="#1B1B1B" stroke-width="2" stroke-linejoin="bevel"/>
<path d="M7.79995 103.98V95.47H9.34995L12.5999 100.4H11.8899L15.1299 95.47H16.6799V103.98H14.5399V99.04L14.8799 99.12L12.9499 102.06H11.5299L9.60995 99.12L9.92995 99.04V103.98H7.78995H7.79995Z" fill="#FAFAFA"/>
<path d="M22.3299 104.14C21.6699 104.14 21.0699 104.03 20.5199 103.8C19.9699 103.58 19.4899 103.26 19.0699 102.86C18.6599 102.46 18.3399 101.99 18.0999 101.45C17.8599 100.91 17.7499 100.33 17.7499 99.7001C17.7499 99.0701 17.8599 98.5001 18.0899 97.9701C18.3199 97.4401 18.6399 96.9701 19.0399 96.5701C19.4499 96.1701 19.9299 95.8601 20.4799 95.6401C21.0299 95.4201 21.6399 95.3201 22.2899 95.3201C22.9399 95.3201 23.5499 95.4301 24.0999 95.6401C24.6499 95.8601 25.1299 96.1701 25.5399 96.5701C25.9499 96.9701 26.2699 97.4401 26.4899 97.9801C26.7099 98.5201 26.8299 99.1001 26.8299 99.7201C26.8299 100.34 26.7199 100.92 26.4899 101.46C26.2599 102 25.9399 102.47 25.5399 102.87C25.1299 103.27 24.6499 103.59 24.1099 103.81C23.5699 104.03 22.9599 104.14 22.3199 104.14H22.3299ZM22.3099 102.22C22.7799 102.22 23.1999 102.12 23.5499 101.91C23.8999 101.7 24.1799 101.41 24.3699 101.03C24.5599 100.65 24.6499 100.21 24.6499 99.7101C24.6499 99.3401 24.5999 99.0101 24.4899 98.7001C24.3799 98.4001 24.2199 98.1301 24.0199 97.9101C23.8099 97.6901 23.5599 97.5201 23.2799 97.4101C22.9899 97.2901 22.6699 97.2401 22.3199 97.2401C21.8499 97.2401 21.4399 97.3401 21.0799 97.5501C20.7299 97.7501 20.4499 98.0401 20.2599 98.4101C20.0599 98.7801 19.9699 99.2201 19.9699 99.7101C19.9699 100.09 20.0199 100.44 20.1299 100.75C20.2399 101.06 20.3999 101.32 20.5999 101.54C20.8099 101.76 21.0599 101.93 21.3499 102.04C21.6399 102.16 21.9599 102.21 22.3199 102.21L22.3099 102.22Z" fill="#FAFAFA"/>
<path d="M27.9399 103.98V95.47H29.4399L30.0899 97.22V103.98H27.9399ZM33.8099 103.98L28.8399 97.68L29.4399 95.47L34.4199 101.77L33.8099 103.98ZM33.8099 103.98L33.2599 102.19V95.47H35.4099V103.98H33.8099Z" fill="#FAFAFA"/>
</g>
<defs>
<clipPath id="clip0_2324_13925">
<rect width="180" height="130" fill="white"/>
</clipPath>
</defs>
</svg>
