<svg width="180" height="130" viewBox="0 0 180 130" fill="none" xmlns="http://www.w3.org/2000/svg">
<path d="M114 1H16C7.71573 1 1 7.71573 1 16V114C1 122.284 7.71573 129 16 129H114C122.284 129 129 122.284 129 114V16C129 7.71573 122.284 1 114 1Z" fill="#8FDFF3"/>
<path d="M114 2C121.72 2 128 8.28 128 16V114C128 121.72 121.72 128 114 128H16C8.28 128 2 121.72 2 114V16C2 8.28 8.28 2 16 2H114ZM114 0H16C7.16 0 0 7.16 0 16V114C0 122.84 7.16 130 16 130H114C122.84 130 130 122.84 130 114V16C130 7.16 122.84 0 114 0Z" fill="#1B1B1B"/>
<path d="M65.64 92.64L62.93 88.16C62.8001 87.95 62.73 87.72 62.71 87.47L61.98 77.42C61.92 76.61 61.25 75.99 60.44 75.99H45.2201C44.4101 75.99 43.74 76.61 43.68 77.42L42.9501 87.4C42.9301 87.69 42.83 87.96 42.66 88.19L39.51 92.53C38.77 93.55 39.5 94.98 40.76 94.98H64.32C65.5201 94.98 66.26 93.67 65.64 92.64ZM52.5401 84.25C51.0301 84.25 49.8 83.02 49.8 81.51C49.8 80 51.0301 78.77 52.5401 78.77C54.0501 78.77 55.28 80 55.28 81.51C55.28 83.02 54.0501 84.25 52.5401 84.25Z" fill="white"/>
<path fill-rule="evenodd" clip-rule="evenodd" d="M62.4133 83.3851L61.98 77.42C61.92 76.61 61.25 75.99 60.44 75.99H45.22C44.41 75.99 43.74 76.61 43.68 77.42L43.0303 86.3021L62.4133 83.3851ZM49.8 81.51C49.8 83.02 51.03 84.25 52.54 84.25C54.05 84.25 55.28 83.02 55.28 81.51C55.28 80 54.05 78.77 52.54 78.77C51.03 78.77 49.8 80 49.8 81.51Z" fill="#E5E5E5"/>
<path d="M65.64 92.64L62.93 88.16C62.8 87.95 62.73 87.72 62.71 87.47L61.98 77.42C61.92 76.61 61.25 75.99 60.44 75.99H45.2201C44.4101 75.99 43.74 76.61 43.68 77.42L42.9501 87.4C42.9301 87.69 42.83 87.96 42.66 88.19L39.51 92.53C38.77 93.55 39.5 94.98 40.76 94.98H64.32C65.52 94.98 66.26 93.67 65.64 92.64V92.64ZM52.5401 84.25C51.0301 84.25 49.8 83.02 49.8 81.51C49.8 80 51.0301 78.77 52.5401 78.77C54.0501 78.77 55.28 80 55.28 81.51C55.28 83.02 54.0501 84.25 52.5401 84.25Z" stroke="#1B1B1B" stroke-width="2" stroke-linejoin="bevel"/>
<path d="M86.11 27.45H18.96C16.7951 27.45 15.04 29.205 15.04 31.37V76.7699C15.04 78.9349 16.7951 80.69 18.96 80.69H86.11C88.275 80.69 90.03 78.9349 90.03 76.7699V31.37C90.03 29.205 88.275 27.45 86.11 27.45Z" fill="white" stroke="#1B1B1B" stroke-width="2" stroke-linejoin="bevel"/>
<path d="M20.69 27.45H84.38C87.5 27.45 90.03 29.9799 90.03 33.0999V73.1399H15.04V33.0999C15.04 29.9799 17.57 27.45 20.69 27.45Z" fill="#1B1B1B"/>
<path d="M70.8901 111.56H19.1801L26.1001 99.3899H66.9701L70.8901 111.56Z" fill="white" stroke="#1B1B1B" stroke-width="2" stroke-linejoin="bevel"/>
<path d="M114 2C121.72 2 128 8.28 128 16V114C128 121.72 121.72 128 114 128H16C8.28 128 2 121.72 2 114V16C2 8.28 8.28 2 16 2H114ZM114 0H16C7.16 0 0 7.16 0 16V114C0 122.84 7.16 130 16 130H114C122.84 130 130 122.84 130 114V16C130 7.16 122.84 0 114 0Z" fill="#1B1B1B"/>
<path d="M156.42 98.28H114.89L115.89 71H155.42L156.42 98.28Z" fill="white" stroke="#1B1B1B" stroke-width="2" stroke-linejoin="bevel"/>
<path d="M163.58 111.24H107.73L114.89 98.28H156.42L163.58 111.24Z" fill="white" stroke="#1B1B1B" stroke-width="2" stroke-linejoin="bevel"/>
<path d="M156.42 94.94H114.89L115.89 71H155.42L156.42 94.94Z" fill="#1B1B1B"/>
<path d="M27.83 102.79H65" stroke="#C6C6C6" stroke-miterlimit="10"/>
<path d="M26.76 104.6H65.37" stroke="#C6C6C6" stroke-miterlimit="10"/>
<path d="M25.5699 106.42H65.66" stroke="#C6C6C6" stroke-miterlimit="10"/>
<path d="M24.08 108.24H66.35" stroke="#C6C6C6" stroke-miterlimit="10"/>
<path d="M116.88 101.17H154.05" stroke="#C6C6C6" stroke-miterlimit="10"/>
<path d="M115.81 102.99H155.12" stroke="#C6C6C6" stroke-miterlimit="10"/>
<path d="M114.62 104.8H156.32" stroke="#C6C6C6" stroke-miterlimit="10"/>
<path d="M91.91 108.2H74.16L71.16 99.45H84.91L91.91 108.2Z" fill="white" stroke="#1B1B1B" stroke-width="2" stroke-linejoin="bevel"/>
<path d="M79.5201 35.8799L57.6801 72.1499" stroke="#565656" stroke-miterlimit="10"/>
<path d="M32.2001 28.6001L18.9301 52.2801" stroke="#565656" stroke-miterlimit="10"/>
<path d="M85.41 35.8799L63.58 72.1499" stroke="#565656" stroke-miterlimit="10"/>
<path d="M127.81 83.35L134 72.47" stroke="#565656" stroke-miterlimit="10"/>
<path d="M142.11 94.4L148.31 83.53" stroke="#565656" stroke-miterlimit="10"/>
<path d="M145.21 94.4L151.4 83.53" stroke="#565656" stroke-miterlimit="10"/>
<path d="M118.19 50.63C117.47 50.63 116.86 50.14 116.7 49.43L114.76 40.6L105.93 38.66C105.22 38.51 104.73 37.89 104.73 37.17C104.73 36.45 105.22 35.84 105.93 35.68L114.76 33.74L116.7 24.91C116.85 24.2 117.47 23.71 118.19 23.71C118.91 23.71 119.52 24.2 119.68 24.91L121.62 33.74L130.45 35.68C131.16 35.83 131.65 36.45 131.65 37.17C131.65 37.89 131.16 38.5 130.45 38.66L121.62 40.6L119.68 49.43C119.53 50.14 118.91 50.63 118.19 50.63Z" fill="#FFE108"/>
<path d="M118.19 24.74C118.42 24.74 118.64 24.88 118.7 25.15L120.7 34.28C120.74 34.48 120.9 34.63 121.1 34.68L130.23 36.68C130.78 36.8 130.78 37.58 130.23 37.7L121.1 39.7C120.9 39.74 120.75 39.9 120.7 40.1L118.7 49.23C118.64 49.5 118.41 49.64 118.19 49.64C117.97 49.64 117.74 49.5 117.68 49.23L115.68 40.1C115.64 39.9 115.48 39.75 115.28 39.7L106.15 37.7C105.6 37.58 105.6 36.8 106.15 36.68L115.28 34.68C115.48 34.64 115.63 34.48 115.68 34.28L117.68 25.15C117.74 24.88 117.97 24.74 118.19 24.74ZM118.19 22.74C117 22.74 115.98 23.56 115.73 24.72L113.93 32.92L105.73 34.72C104.56 34.98 103.75 35.99 103.75 37.18C103.75 38.37 104.57 39.39 105.73 39.64L113.93 41.44L115.73 49.64C115.99 50.81 117 51.62 118.19 51.62C119.38 51.62 120.4 50.8 120.65 49.64L122.45 41.44L130.65 39.64C131.82 39.38 132.63 38.37 132.63 37.18C132.63 35.99 131.81 34.97 130.65 34.72L122.45 32.92L120.65 24.72C120.39 23.55 119.38 22.74 118.19 22.74Z" fill="#1B1B1B"/>
<path d="M135.01 62.6599C134.4 62.6599 133.87 62.2399 133.74 61.6399L132.69 56.8699L127.92 55.8199C127.32 55.6899 126.9 55.1699 126.9 54.5499C126.9 53.9299 127.32 53.4099 127.92 53.2799L132.69 52.2299L133.74 47.4599C133.87 46.8599 134.39 46.4399 135.01 46.4399C135.63 46.4399 136.15 46.8599 136.28 47.4599L137.33 52.2299L142.1 53.2799C142.7 53.4099 143.12 53.9299 143.12 54.5499C143.12 55.1699 142.7 55.6899 142.1 55.8199L137.33 56.8699L136.28 61.6399C136.15 62.2399 135.63 62.6599 135.01 62.6599Z" fill="#FFE108"/>
<path d="M135.01 47.4399C135.14 47.4399 135.27 47.5199 135.3 47.6699L136.44 52.8799C136.46 52.9899 136.55 53.0799 136.67 53.1099L141.88 54.2499C142.19 54.3199 142.19 54.7599 141.88 54.8299L136.67 55.9699C136.56 55.9899 136.47 56.0799 136.44 56.1999L135.3 61.4099C135.27 61.5699 135.14 61.6399 135.01 61.6399C134.88 61.6399 134.75 61.5599 134.72 61.4099L133.58 56.1999C133.56 56.0899 133.47 55.9999 133.35 55.9699L128.14 54.8299C127.83 54.7599 127.83 54.3199 128.14 54.2499L133.35 53.1099C133.46 53.0899 133.55 52.9999 133.58 52.8799L134.72 47.6699C134.75 47.5099 134.88 47.4399 135.01 47.4399ZM135.01 45.4399C133.92 45.4399 133 46.1799 132.77 47.2499L131.86 51.3999L127.71 52.3099C126.65 52.5399 125.9 53.4699 125.9 54.5499C125.9 55.6299 126.64 56.5599 127.71 56.7899L131.86 57.6999L132.77 61.8499C133 62.9099 133.93 63.6599 135.01 63.6599C136.09 63.6599 137.02 62.9199 137.25 61.8499L138.16 57.6999L142.31 56.7899C143.37 56.5599 144.12 55.6299 144.12 54.5499C144.12 53.4699 143.38 52.5399 142.31 52.3099L138.16 51.3999L137.25 47.2499C137.02 46.1899 136.09 45.4399 135.01 45.4399Z" fill="#1B1B1B"/>
</svg>
