<svg width="180" height="130" viewBox="0 0 180 130" fill="none" xmlns="http://www.w3.org/2000/svg">
<path d="M114 0H16C7.16344 0 0 7.16344 0 16V114C0 122.837 7.16344 130 16 130H114C122.837 130 130 122.837 130 114V16C130 7.16344 122.837 0 114 0Z" fill="#8FDFF3"/>
<path d="M23.5 35.6299L84.54 20.4299C84.54 20.4299 97.18 31.4299 96.59 66.0199C96.33 81.4799 112.31 96.4099 112.31 96.4099L49.96 116.58C49.96 116.58 35.03 99.7799 35.81 75.1699C36.6 50.5599 23.5 35.6299 23.5 35.6299Z" fill="#777777" stroke="#1B1B1B" stroke-width="2" stroke-miterlimit="10"/>
<path fill-rule="evenodd" clip-rule="evenodd" d="M1 88.8953V54.6957C6.74411 51.1989 14.2658 49.0801 22.5 49.0801C40.54 49.0801 55.16 59.2501 55.16 71.8001V71.7901C55.16 83.0701 43.36 92.4101 27.88 94.2001L27.85 99.7601C28.13 100.94 26.73 101.76 25.85 100.94L18.75 94.3601C11.9918 93.8242 5.85985 91.8528 1 88.8953Z" fill="#F8FAFF"/>
<path d="M1 88.8953H0V89.4573L0.480131 89.7495L1 88.8953ZM1 54.6957L0.480007 53.8416L0 54.1338V54.6957H1ZM27.88 94.2001L27.7652 93.2067L26.8848 93.3085L26.88 94.1947L27.88 94.2001ZM27.85 99.7601L26.85 99.7547L26.8494 99.8744L26.877 99.991L27.85 99.7601ZM25.85 100.94L26.5318 100.208L26.5298 100.207L25.85 100.94ZM18.75 94.3601L19.4298 93.6266L19.1751 93.3906L18.8291 93.3632L18.75 94.3601ZM2 88.8953V54.6957H0V88.8953H2ZM22.5 48.0801C14.1008 48.0801 6.39578 50.2402 0.480007 53.8416L1.51999 55.5499C7.09244 52.1576 14.4309 50.0801 22.5 50.0801V48.0801ZM56.16 71.8001C56.16 65.1065 52.26 59.1521 46.1661 54.9129C40.0687 50.6713 31.6986 48.0801 22.5 48.0801V50.0801C31.3414 50.0801 39.3014 52.5739 45.024 56.5547C50.7501 60.5381 54.16 65.9437 54.16 71.8001H56.16ZM54.16 71.7901V71.8001H56.16V71.7901H54.16ZM27.9949 95.1935C35.8943 94.28 42.9013 91.4362 47.9556 87.33C53.0115 83.2224 56.16 77.8038 56.16 71.7901H54.16C54.16 77.0564 51.4086 81.9478 46.6945 85.7777C41.9787 89.6089 35.3457 92.3301 27.7652 93.2067L27.9949 95.1935ZM28.85 99.7655L28.88 94.2055L26.88 94.1947L26.85 99.7547L28.85 99.7655ZM25.1683 101.672C26.7887 103.182 29.3263 101.65 28.823 99.5292L26.877 99.991C26.8956 100.069 26.8829 100.114 26.8706 100.14C26.8551 100.174 26.8244 100.211 26.778 100.238C26.7316 100.265 26.6863 100.273 26.6527 100.271C26.6273 100.269 26.587 100.26 26.5318 100.208L25.1683 101.672ZM18.0703 95.0935L25.1703 101.674L26.5298 100.207L19.4298 93.6266L18.0703 95.0935ZM0.480131 89.7495C5.48637 92.7962 11.7721 94.81 18.671 95.3569L18.8291 93.3632C12.2114 92.8385 6.23333 90.9095 1.51987 88.041L0.480131 89.7495Z" fill="#1B1B1B"/>
<path d="M114 2C121.72 2 128 8.28 128 16V114C128 121.72 121.72 128 114 128H16C8.28 128 2 121.72 2 114V16C2 8.28 8.28 2 16 2H114ZM114 0H16C7.16 0 0 7.16 0 16V114C0 122.84 7.16 130 16 130H114C122.84 130 130 122.84 130 114V16C130 7.16 122.84 0 114 0Z" fill="#1B1B1B"/>
<path d="M154.29 45.93C154.29 33.38 139.67 23.21 121.63 23.21C103.59 23.21 88.97 33.38 88.97 45.93C88.97 56.08 98.54 64.67 111.75 67.59L111.82 73.3C111.4 74.42 112.69 75.41 113.66 74.71L122.03 68.65C139.88 68.5 154.28 58.39 154.28 45.94L154.29 45.93Z" fill="#F8FAFF" stroke="#1B1B1B" stroke-width="2" stroke-miterlimit="10"/>
</svg>
