<svg width="155" height="30" viewBox="0 0 155 30" fill="none" xmlns="http://www.w3.org/2000/svg">
<path d="M12.2647 16.5709L10.6918 14.998C10.0967 15.5922 9.29003 15.9259 8.44905 15.9259C7.60806 15.9259 6.80144 15.5922 6.20624 14.998L4.63049 16.5709C5.6431 17.5828 7.01606 18.1512 8.4476 18.1512C9.87914 18.1512 11.2521 17.5828 12.2647 16.5709Z" fill="#1B1B1B"/>
<path d="M4.05173 12.8436C2.88494 11.6768 2.22944 10.0942 2.22944 8.44411C2.22944 6.79399 2.88494 5.21144 4.05173 4.04461L2.47453 2.47754C1.69003 3.26173 1.06771 4.19279 0.643123 5.21755C0.218536 6.2423 0 7.34067 0 8.4499C0 9.55913 0.218536 10.6575 0.643123 11.6823C1.06771 12.707 1.69003 13.6381 2.47453 14.4223L3.05332 15.0011L4.63052 13.4253L4.05173 12.8436Z" fill="#1B1B1B"/>
<path d="M4.05173 17.1525L4.63052 16.5737L6.20337 15.0008C6.79857 14.4067 7.60519 14.073 8.44617 14.073C9.28715 14.073 10.0938 14.4067 10.689 15.0008L12.2618 16.5737C12.6787 16.1564 12.9129 15.5907 12.9129 15.0008C12.9129 14.411 12.6787 13.8452 12.2618 13.428C11.2492 12.4156 9.87589 11.8469 8.444 11.8469C7.01211 11.8469 5.63884 12.4156 4.62617 13.428L3.05332 15.0008L2.47453 15.5796C1.69003 16.3638 1.06771 17.2949 0.643123 18.3196C0.218536 19.3444 0 20.4427 0 21.552C0 22.6612 0.218536 23.7596 0.643123 24.7843C1.06771 25.8091 1.69003 26.7401 2.47453 27.5243L4.05173 25.9515C2.88494 24.7846 2.22944 23.2021 2.22944 21.552C2.22944 19.9018 2.88494 18.3193 4.05173 17.1525Z" fill="#1B1B1B"/>
<path d="M26.9443 14.998L27.5231 14.4193C28.3076 13.6351 28.9299 12.704 29.3545 11.6792C29.7791 10.6545 29.9976 9.55613 29.9976 8.4469C29.9976 7.33767 29.7791 6.2393 29.3545 5.21454C28.9299 4.18979 28.3076 3.25872 27.5231 2.47453C26.7389 1.69003 25.8078 1.06771 24.7831 0.643124C23.7583 0.218536 22.66 0 21.5507 0C20.4415 0 19.3431 0.218536 18.3184 0.643124C17.2936 1.06771 16.3625 1.69003 15.5784 2.47453L14.9996 3.05332L14.4208 2.47453C13.6366 1.69003 12.7055 1.06771 11.6808 0.643124C10.656 0.218536 9.55765 0 8.44842 0C7.33919 0 6.24082 0.218536 5.21606 0.643124C4.19131 1.06771 3.26024 1.69003 2.47606 2.47453L4.0518 4.0445C5.21864 2.8777 6.80119 2.22221 8.45131 2.22221C10.1014 2.22221 11.684 2.8777 12.8508 4.0445L13.4296 4.62328C12.928 5.12451 12.5301 5.71967 12.2586 6.37476C11.9871 7.02984 11.8474 7.732 11.8474 8.44111C11.8474 9.15022 11.9871 9.85238 12.2586 10.5075C12.5301 11.1625 12.928 11.7577 13.4296 12.2589C13.8466 12.6757 14.4121 12.9099 15.0017 12.9099C15.5913 12.9099 16.1568 12.6757 16.5739 12.2589C17.0755 11.7577 17.4734 11.1625 17.7449 10.5075C18.0164 9.85238 18.1561 9.15022 18.1561 8.44111C18.1561 7.732 18.0164 7.02984 17.7449 6.37476C17.4734 5.71967 17.0755 5.12451 16.5739 4.62328L17.1527 4.0445C17.7291 3.46082 18.4153 2.99689 19.1717 2.67942C19.9281 2.36194 20.7399 2.19718 21.5602 2.19462C22.3805 2.19206 23.1933 2.35176 23.9517 2.66451C24.7101 2.97726 25.3991 3.43689 25.9792 4.01697C26.5593 4.59704 27.0189 5.28609 27.3317 6.04448C27.6444 6.80287 27.8041 7.61562 27.8015 8.43597C27.799 9.25631 27.6342 10.068 27.3167 10.8245C26.9993 11.5809 26.5354 12.2671 25.9517 12.8435L25.3729 13.4223C24.8716 12.9209 24.2764 12.5231 23.6213 12.2517C22.9662 11.9803 22.2641 11.8407 21.5551 11.8407C20.846 11.8407 20.1439 11.9803 19.4888 12.2517C18.8337 12.5231 18.2386 12.9209 17.7372 13.4223C17.3203 13.8396 17.0862 14.4053 17.0862 14.9952C17.0862 15.585 17.3203 16.1507 17.7372 16.568C18.7499 17.5803 20.1232 18.149 21.5551 18.149C22.9869 18.149 24.3602 17.5803 25.3729 16.568L25.9517 17.1468C27.1185 18.3136 27.774 19.8962 27.774 21.5463C27.774 23.1964 27.1185 24.779 25.9517 25.9458C24.7848 27.1126 23.2023 27.7681 21.5522 27.7681C19.902 27.7681 18.3195 27.1126 17.1527 25.9458L16.5739 25.367C17.0755 24.8658 17.4734 24.2706 17.7449 23.6156C18.0164 22.9605 18.1561 22.2583 18.1561 21.5492C18.1561 20.8401 18.0164 20.1379 17.7449 19.4828C17.4734 18.8278 17.0755 18.2326 16.5739 17.7314C16.3675 17.5248 16.1224 17.361 15.8526 17.2492C15.5829 17.1374 15.2937 17.0799 15.0017 17.0799C14.7097 17.0799 14.4206 17.1374 14.1508 17.2492C13.8811 17.361 13.636 17.5248 13.4296 17.7314C12.928 18.2327 12.53 18.828 12.2585 19.4832C11.987 20.1384 11.8472 20.8407 11.8472 21.5499C11.8472 22.2592 11.987 22.9614 12.2585 23.6166C12.53 24.2718 12.928 24.8671 13.4296 25.3685L12.8508 25.9473C11.684 27.1141 10.1014 27.7695 8.45131 27.7695C6.80119 27.7695 5.21864 27.1141 4.0518 25.9473L2.47461 27.5245C4.05892 29.1078 6.20712 29.9972 8.44697 29.9972C10.6868 29.9972 12.835 29.1078 14.4193 27.5245L14.9981 26.9457L15.5769 27.5245C17.1612 29.1078 19.3094 29.9972 21.5493 29.9972C23.7891 29.9972 25.9373 29.1078 27.5216 27.5245C28.3061 26.7403 28.9285 25.8092 29.353 24.7844C29.7776 23.7597 29.9962 22.6613 29.9962 21.5521C29.9962 20.4429 29.7776 19.3445 29.353 18.3197C28.9285 17.295 28.3061 16.3639 27.5216 15.5797L26.9443 14.998ZM14.9996 10.689C14.4075 10.0927 14.0753 9.28646 14.0753 8.44617C14.0753 7.60589 14.4075 6.79969 14.9996 6.20337C15.5937 6.79857 15.9274 7.60519 15.9274 8.44617C15.9274 9.28716 15.5937 10.0938 14.9996 10.689ZM19.3086 14.998C19.9038 14.4039 20.7105 14.0702 21.5514 14.0702C22.3924 14.0702 23.199 14.4039 23.7942 14.998C23.199 15.5922 22.3924 15.9259 21.5514 15.9259C20.7105 15.9259 19.9038 15.5922 19.3086 14.998ZM14.9996 23.7971C14.4075 23.2008 14.0753 22.3945 14.0753 21.5543C14.0753 20.714 14.4075 19.9078 14.9996 19.3115C15.5937 19.9067 15.9274 20.7133 15.9274 21.5543C15.9274 22.3952 15.5937 23.2019 14.9996 23.7971Z" fill="#1B1B1B"/>
<path d="M46.9906 22.4773C45.8975 22.4873 44.814 22.2725 43.8073 21.8465C42.8423 21.4392 41.9689 20.8423 41.2389 20.0913C40.5103 19.3387 39.9374 18.4496 39.5532 17.4752C38.7564 15.4158 38.7564 13.1332 39.5532 11.0738C39.9344 10.1039 40.5033 9.21876 41.2273 8.46924C41.9518 7.7245 42.8176 7.13173 43.774 6.72564C44.7764 6.30041 45.8555 6.08567 46.9443 6.09476C48.2147 6.09476 49.3241 6.30891 50.2723 6.73721C51.2123 7.16054 52.0674 7.75136 52.7958 8.48081L51.304 9.97263C50.7887 9.39923 50.1547 8.94497 49.4461 8.64142C48.6544 8.30968 47.8026 8.14561 46.9443 8.15958C46.1573 8.1525 45.3771 8.30509 44.6509 8.60814C43.9562 8.89902 43.3306 9.33287 42.8147 9.88148C42.2868 10.4445 41.8775 11.1078 41.6108 11.832C41.0436 13.4194 41.0436 15.1542 41.6108 16.7416C41.8778 17.4656 42.2871 18.1288 42.8147 18.6921C43.3314 19.2398 43.9568 19.6735 44.6509 19.9654C45.3844 20.2693 46.172 20.4214 46.966 20.4125C47.8555 20.4328 48.7391 20.2647 49.559 19.9191C50.2671 19.6093 50.9006 19.1515 51.4169 18.5763L52.9087 20.0681C52.1717 20.8198 51.2948 21.42 50.3273 21.8349C49.2712 22.2767 48.1352 22.4955 46.9906 22.4773Z" fill="#1B1B1B"/>
<path d="M59.7702 22.4775C58.7633 22.4909 57.7719 22.2298 56.9023 21.7222C56.0395 21.217 55.3261 20.4923 54.8345 19.6217C54.3429 18.7512 54.0908 17.766 54.1038 16.7663C54.0896 15.7624 54.3514 14.7739 54.8606 13.9085C55.3574 13.0704 56.0602 12.3731 56.9023 11.8828C57.7717 11.3746 58.7632 11.113 59.7702 11.126C60.7867 11.1122 61.7886 11.3694 62.6728 11.8712C63.536 12.3625 64.252 13.076 64.7461 13.9376C65.2403 14.7992 65.4947 15.7775 65.4828 16.7706C65.4937 17.5239 65.3534 18.2716 65.0702 18.9696C64.787 19.6676 64.3666 20.3018 63.8339 20.8344C63.3013 21.3671 62.6672 21.7874 61.9691 22.0707C61.2711 22.3539 60.5234 22.4942 59.7702 22.4833V22.4775ZM59.7702 20.4807C60.4224 20.494 61.0658 20.3273 61.6295 19.9988C62.161 19.6809 62.5969 19.2255 62.8913 18.6806C63.2044 18.0914 63.3622 17.432 63.3499 16.7649C63.3612 16.1074 63.199 15.4586 62.8797 14.8838C62.581 14.3462 62.1458 13.897 61.6179 13.5815C61.0572 13.273 60.4275 13.1112 59.7875 13.1112C59.1475 13.1112 58.5178 13.273 57.9571 13.5815C57.4257 13.8925 56.9894 14.3428 56.6953 14.8838C56.3831 15.4609 56.2251 16.1088 56.2367 16.7649C56.2239 17.433 56.3817 18.0934 56.6953 18.6835C56.9931 19.237 57.4376 19.6978 57.98 20.0153C58.5224 20.3328 59.1418 20.4948 59.7702 20.4836V20.4807Z" fill="#1B1B1B"/>
<path d="M72.366 22.4774C71.4183 22.4905 70.4867 22.2313 69.6819 21.7308C68.8844 21.233 68.2317 20.5345 67.7892 19.705C67.328 18.8101 67.0874 17.8179 67.0874 16.8111C67.0874 15.8043 67.328 14.8121 67.7892 13.9171C68.2341 13.0872 68.8861 12.3863 69.6819 11.8827C70.4844 11.3758 71.4169 11.1129 72.366 11.1259C73.1389 11.1135 73.903 11.2909 74.5914 11.6425C75.2338 11.9743 75.7814 12.4637 76.1831 13.0649C76.5951 13.6903 76.8292 14.4161 76.8603 15.1644V18.4447C76.8262 19.1872 76.5966 19.9075 76.1947 20.5327C75.801 21.1405 75.2553 21.6348 74.6117 21.9666C73.916 22.3176 73.145 22.4929 72.366 22.4774ZM72.7104 20.5269C73.3466 20.5397 73.9735 20.3727 74.5191 20.0451C75.0374 19.7247 75.4578 19.2683 75.7345 18.7254C76.033 18.1317 76.182 17.474 76.1686 16.8096C76.1835 16.1381 76.0345 15.4731 75.7345 14.8721C75.4578 14.3293 75.0374 13.8728 74.5191 13.5525C73.9723 13.2241 73.3437 13.0571 72.706 13.0707C72.0727 13.0584 71.4484 13.2211 70.9016 13.5409C70.3814 13.8549 69.9571 14.3052 69.6746 14.8432C69.367 15.4419 69.2133 16.1078 69.2275 16.7807C69.214 17.4577 69.3676 18.1276 69.6746 18.7312C69.9545 19.2793 70.3839 19.7369 70.9132 20.0508C71.4576 20.3707 72.0791 20.5353 72.7104 20.5269ZM78.1249 22.2473H76.0369V19.3114L76.4276 16.6505L76.0369 14.0112V5.86621H78.1249V22.2473Z" fill="#1B1B1B"/>
<path d="M86.1788 22.4774C85.1469 22.4953 84.1289 22.2375 83.2299 21.7308C82.3776 21.2457 81.6687 20.5438 81.1752 19.6963C80.6808 18.8094 80.4204 17.8113 80.4183 16.7959C80.4163 15.7806 80.6728 14.7814 81.1636 13.8925C81.6536 13.0361 82.3643 12.3267 83.2217 11.8383C84.0791 11.3499 85.0518 11.1004 86.0384 11.1158C86.972 11.0992 87.8925 11.3373 88.7009 11.8046C89.4744 12.2567 90.1059 12.9163 90.524 13.7088C90.9714 14.5644 91.1963 15.5187 91.1781 16.4841C91.1781 16.6374 91.1781 16.8024 91.1564 16.9775C91.1375 17.1745 91.1066 17.3702 91.0638 17.5635H81.8639V15.8416H89.967L89.2102 16.5072C89.2294 15.8619 89.0955 15.2213 88.8195 14.6377C88.5753 14.1423 88.1928 13.7282 87.7184 13.4454C87.1945 13.1491 86.5995 13.002 85.9979 13.02C85.3486 13.0065 84.7071 13.1647 84.1386 13.4787C83.6099 13.778 83.1796 14.2244 82.9 14.7636C82.5975 15.3683 82.4484 16.0382 82.4659 16.7141C82.4497 17.4108 82.6074 18.1006 82.9246 18.7211C83.2177 19.2837 83.6708 19.7469 84.2268 20.0523C84.8257 20.3743 85.4975 20.5363 86.1773 20.5225C86.7551 20.529 87.3282 20.4198 87.8631 20.2013C88.3729 19.9889 88.8252 19.6586 89.1827 19.2376L90.5125 20.592C89.9847 21.1981 89.3261 21.6766 88.5865 21.9912C87.8256 22.3161 87.0062 22.4815 86.1788 22.4774Z" fill="#1B1B1B"/>
<path d="M98.2003 22.4774C96.9617 22.4774 95.9006 22.2478 95.0169 21.7886C94.0954 21.3005 93.2896 20.62 92.6541 19.7932L94.1227 18.3246C94.5738 18.9795 95.1675 19.5237 95.8591 19.9162C96.516 20.2751 97.3268 20.455 98.2914 20.4559C99.2397 20.4559 100.001 20.2495 100.575 19.8366C100.848 19.6485 101.07 19.3946 101.22 19.0983C101.37 18.8019 101.443 18.4727 101.433 18.1408C101.433 17.5446 101.291 17.0623 101.009 16.6938C100.71 16.3147 100.331 16.006 99.899 15.7895C99.4114 15.5396 98.9049 15.3287 98.384 15.1586C97.8342 14.9753 97.2839 14.7723 96.7331 14.5494C96.1934 14.3339 95.6822 14.053 95.2108 13.7131C94.7422 13.373 94.3609 12.9267 94.0981 12.4108C93.8232 11.8831 93.6857 11.2079 93.6857 10.385C93.6609 9.56741 93.8888 8.76201 94.3383 8.07857C94.7878 7.43305 95.4074 6.92469 96.1282 6.6099C96.9331 6.25657 97.8047 6.08087 98.6836 6.09478C99.6512 6.07948 100.609 6.28744 101.483 6.70251C102.268 7.07429 102.958 7.61839 103.502 8.29418L102.033 9.76285C101.611 9.25354 101.093 8.8322 100.508 8.52279C99.9252 8.24235 99.284 8.10447 98.6373 8.12054C97.7807 8.12054 97.0996 8.30768 96.5941 8.68196C96.3485 8.86143 96.1509 9.09873 96.0189 9.37284C95.8869 9.64696 95.8245 9.9494 95.8374 10.2534C95.8134 10.7251 95.965 11.189 96.2628 11.5556C96.5736 11.9068 96.9521 12.1918 97.3755 12.3934C97.8691 12.6378 98.3786 12.8486 98.9006 13.0243C99.4591 13.2172 100.014 13.4275 100.565 13.6552C101.104 13.8781 101.613 14.1699 102.078 14.5234C102.548 14.8881 102.928 15.3547 103.191 15.8879C103.474 16.4464 103.616 17.1462 103.616 17.9874C103.616 19.3958 103.131 20.4974 102.159 21.2923C101.188 22.0872 99.8681 22.4822 98.2003 22.4774Z" fill="#1B1B1B"/>
<path d="M110.637 22.4774C109.682 22.4887 108.744 22.2299 107.93 21.7308C107.122 21.2382 106.46 20.5389 106.012 19.705C105.552 18.8098 105.312 17.8177 105.312 16.8111C105.312 15.8044 105.552 14.8123 106.012 13.9171C106.46 13.0852 107.117 12.3841 107.918 11.8827C108.733 11.3746 109.677 11.1118 110.637 11.1259C111.406 11.1128 112.167 11.2903 112.851 11.6425C113.502 11.9789 114.052 12.4822 114.445 13.101C114.838 13.7198 115.06 14.4319 115.088 15.1644V18.4447C115.054 19.1855 114.828 19.9048 114.434 20.5327C114.049 21.1394 113.511 21.634 112.874 21.9666C112.182 22.3186 111.413 22.4941 110.637 22.4774ZM110.983 20.5269C112.007 20.5269 112.833 20.1791 113.46 19.4836C114.087 18.7881 114.4 17.8968 114.4 16.8096C114.413 16.1357 114.268 15.4682 113.977 14.8605C113.71 14.3139 113.292 13.8556 112.771 13.5409C112.222 13.2195 111.595 13.0567 110.96 13.0706C110.326 13.0599 109.702 13.2268 109.158 13.5525C108.631 13.8727 108.199 14.3284 107.908 14.8721C107.594 15.4605 107.435 16.1195 107.448 16.7865C107.433 17.4615 107.592 18.1289 107.908 18.7254C108.202 19.2818 108.646 19.7452 109.189 20.0634C109.732 20.3816 110.353 20.5421 110.983 20.5269ZM114.263 26.814V19.5183L114.652 16.8559L114.263 14.2166V11.3488H116.351V26.814H114.263Z" fill="#1B1B1B"/>
<path d="M123.759 22.4312C122.917 22.447 122.083 22.2478 121.339 21.8524C120.635 21.4699 120.058 20.892 119.676 20.1884C119.266 19.42 119.061 18.5589 119.08 17.688V11.3489H121.145V17.5911C121.131 18.1238 121.237 18.6528 121.454 19.1394C121.645 19.5583 121.962 19.9074 122.36 20.1378C122.788 20.374 123.271 20.4923 123.759 20.4807C124.572 20.4807 125.206 20.2246 125.664 19.7124C126.121 19.2001 126.351 18.493 126.352 17.5911V11.3489H128.417V17.6823C128.437 18.5531 128.231 19.4142 127.821 20.1826C127.441 20.8841 126.867 21.4616 126.169 21.8466C125.429 22.2451 124.599 22.4464 123.759 22.4312Z" fill="#1B1B1B"/>
<path d="M135.829 22.4774C134.87 22.4915 133.927 22.2325 133.11 21.7308C132.307 21.2356 131.65 20.5367 131.206 19.705C130.744 18.8101 130.504 17.8179 130.504 16.8111C130.504 15.8043 130.744 14.8121 131.206 13.9171C131.653 13.085 132.309 12.3838 133.11 11.8827C133.925 11.3746 134.869 11.1118 135.829 11.1259C136.598 11.1126 137.359 11.2901 138.043 11.6425C138.694 11.9789 139.244 12.4823 139.637 13.101C140.03 13.7198 140.252 14.4319 140.28 15.1644V18.4447C140.246 19.1856 140.021 19.9051 139.626 20.5327C139.238 21.1418 138.696 21.6368 138.054 21.9666C137.365 22.3162 136.601 22.4916 135.829 22.4774ZM136.173 20.5269C137.197 20.5269 138.023 20.1791 138.65 19.4836C139.277 18.7881 139.591 17.8968 139.591 16.8096C139.605 16.1345 139.456 15.4659 139.157 14.8606C138.886 14.317 138.469 13.8598 137.953 13.5409C137.408 13.2188 136.784 13.0559 136.151 13.0707C135.51 13.058 134.878 13.2249 134.327 13.5525C133.802 13.8716 133.373 14.3278 133.088 14.8721C132.782 15.4632 132.629 16.1211 132.641 16.7865C132.627 17.4599 132.78 18.1263 133.088 18.7254C133.375 19.2722 133.808 19.7289 134.338 20.0451C134.894 20.3716 135.529 20.5383 136.173 20.5269ZM139.453 22.2473V19.3114L139.844 16.6505L139.453 14.0112V11.3488H141.541V22.2473H139.453Z" fill="#1B1B1B"/>
<path d="M149.135 22.4774C148.187 22.4903 147.256 22.2312 146.451 21.7308C145.65 21.2314 144.995 20.5297 144.552 19.6963C144.091 18.8014 143.851 17.8092 143.851 16.8024C143.851 15.7956 144.091 14.8034 144.552 13.9085C145 13.0809 145.654 12.3831 146.451 11.8827C147.253 11.3759 148.186 11.113 149.135 11.1259C149.908 11.1134 150.672 11.2907 151.36 11.6425C152.003 11.9739 152.551 12.4634 152.952 13.0649C153.364 13.6903 153.598 14.4161 153.629 15.1644V18.4447C153.595 19.1872 153.366 19.9075 152.964 20.5327C152.57 21.1408 152.025 21.6352 151.381 21.9666C150.685 22.3176 149.914 22.4929 149.135 22.4774ZM149.479 20.5269C150.117 20.5405 150.746 20.3735 151.292 20.0451C151.811 19.7247 152.231 19.2683 152.508 18.7254C152.806 18.1317 152.955 17.474 152.942 16.8096C152.957 16.1381 152.808 15.4731 152.508 14.8721C152.231 14.3293 151.811 13.8728 151.292 13.5525C150.746 13.2241 150.117 13.0571 149.479 13.0707C148.843 13.0568 148.216 13.2195 147.666 13.5409C147.146 13.8549 146.722 14.3052 146.439 14.8432C146.132 15.4419 145.978 16.1078 145.992 16.7807C145.979 17.4577 146.132 18.1276 146.439 18.7312C146.72 19.279 147.149 19.7364 147.678 20.0508C148.223 20.3714 148.847 20.5361 149.479 20.5269ZM154.894 22.2473H152.8V19.3114L153.191 16.6505L152.8 14.0112V5.86621H154.888L154.894 22.2473Z" fill="#1B1B1B"/>
</svg>
